<?xml version="1.0" encoding="UTF-8"?>
<!DOCTYPE svg PUBLIC '-//W3C//DTD SVG 1.1//EN' 'http://www.w3.org/Graphics/SVG/1.1/DTD/svg11.dtd'>
<svg width="2e3" height="1200" xmlns="http://www.w3.org/2000/svg">
 <filter id="a">
  <feGaussianBlur stdDeviation="3.29"/>
 </filter>
 <path d="m0 1200v-1200h2e3v1200z" fill="#006eb6"/>
 <path transform="rotate(144 1e3 610.02)" d="m1182.6 358.7 100.6-138.46" fill="none" stroke="#003100" stroke-width="5"/>
 <path transform="rotate(144 1e3 610.02)" d="m1197.5 335.15c.148-.121 18.9-25.8 41.607-57.126l41.334-56.908-38.171 12.301c-21 6.76-38.2 12.4-38.245 12.45-.041.081.452 2.32 1.097 4.973 3.78 15.6 4.36 31 1.801 47.642-1.63 10.6-4.64 22.3-8.395 32.515-1.4 3.8-1.6 4.61-1.03 4.151z" fill="#658d1b"/>
 <path transform="rotate(144 1e3 610.02)" d="m1285 305v-87l-82.742 26.884" fill="none" stroke="#003100" stroke-linecap="square" stroke-width="5"/>
 <path transform="rotate(144 1e3 610.02)" d="m1200 337.65c.069-.178 18.7-25.9 41.473-57.223l41.347-56.899.096 40.104c.054 22.1.044 40.2-.022 40.221-.064.064-2.34.287-5.069.494-16 1.21-30.8 5.42-45.866 13.01-9.59 4.83-19.8 11.3-28.33 18.032-3.19 2.5-3.89 2.94-3.63 2.263z" fill="#78be20"/>
 <path transform="rotate(216 1e3 610)" d="m1182.6 358.7 100.6-138.46" fill="none" stroke="#003100" stroke-width="5"/>
 <path transform="rotate(216 1e3 610)" d="m1197.5 335.15c.148-.121 18.9-25.8 41.607-57.126l41.334-56.908-38.171 12.301c-21 6.76-38.2 12.4-38.245 12.45-.041.081.452 2.32 1.097 4.973 3.78 15.6 4.36 31 1.801 47.642-1.63 10.6-4.64 22.3-8.395 32.515-1.4 3.8-1.6 4.61-1.03 4.151z" fill="#658d1b"/>
 <path transform="rotate(216 1e3 610)" d="m1285 305v-87l-82.742 26.884" fill="none" stroke="#003100" stroke-linecap="square" stroke-width="5"/>
 <path transform="rotate(216 1e3 610)" d="m1200 337.65c.069-.178 18.7-25.9 41.473-57.223l41.347-56.899.096 40.104c.054 22.1.044 40.2-.022 40.221-.064.064-2.34.287-5.069.494-16 1.21-30.8 5.42-45.866 13.01-9.59 4.83-19.8 11.3-28.33 18.032-3.19 2.5-3.89 2.94-3.63 2.263z" fill="#78be20"/>
 <path transform="rotate(-72.002 999.89 609.96)" d="m1182.6 358.7 100.6-138.46" fill="none" stroke="#003100" stroke-width="5"/>
 <path transform="rotate(-72.002 999.89 609.96)" d="m1197.5 335.15c.148-.121 18.9-25.8 41.607-57.126l41.334-56.908-38.171 12.301c-21 6.76-38.2 12.4-38.245 12.45-.041.081.452 2.32 1.097 4.973 3.78 15.6 4.36 31 1.801 47.642-1.63 10.6-4.64 22.3-8.395 32.515-1.4 3.8-1.6 4.61-1.03 4.151z" fill="#658d1b"/>
 <path transform="rotate(-72.002 999.89 609.96)" d="m1285 305v-87l-82.742 26.884" fill="none" stroke="#003100" stroke-linecap="square" stroke-width="5"/>
 <path transform="rotate(-72.002 999.89 609.96)" d="m1200 337.65c.069-.178 18.7-25.9 41.473-57.223l41.347-56.899.096 40.104c.054 22.1.044 40.2-.022 40.221-.064.064-2.34.287-5.069.494-16 1.21-30.8 5.42-45.866 13.01-9.59 4.83-19.8 11.3-28.33 18.032-3.19 2.5-3.89 2.94-3.63 2.263z" fill="#78be20"/>
 <path d="m830 550 170-120 170 120-70 200h-205z" fill="#fff"/>
 <path d="m1182.6 358.7 100.6-138.46" fill="none" stroke="#003100" stroke-width="5"/>
 <path d="m1197.5 335.15c.148-.121 18.9-25.8 41.607-57.126l41.334-56.908-38.171 12.301c-21 6.76-38.2 12.4-38.245 12.45-.041.081.452 2.32 1.097 4.973 3.78 15.6 4.36 31 1.801 47.642-1.63 10.6-4.64 22.3-8.395 32.515-1.4 3.8-1.6 4.61-1.03 4.151z" fill="#658d1b"/>
 <path d="m1285 305v-87l-82.742 26.884" fill="none" stroke="#003100" stroke-linecap="square" stroke-width="5"/>
 <path d="m1200 337.65c.069-.178 18.7-25.9 41.473-57.223l41.347-56.899.096 40.104c.054 22.1.044 40.2-.022 40.221-.064.064-2.34.287-5.069.494-16 1.21-30.8 5.42-45.866 13.01-9.59 4.83-19.8 11.3-28.33 18.032-3.19 2.5-3.89 2.94-3.63 2.263z" fill="#78be20"/>
 <path transform="rotate(72.002 999.87 609.88)" d="m1182.6 358.7 100.6-138.46" fill="none" stroke="#003100" stroke-width="5"/>
 <path transform="rotate(72.002 999.87 609.88)" d="m1197.5 335.15c.148-.121 18.9-25.8 41.607-57.126l41.334-56.908-38.171 12.301c-21 6.76-38.2 12.4-38.245 12.45-.041.081.452 2.32 1.097 4.973 3.78 15.6 4.36 31 1.801 47.642-1.63 10.6-4.64 22.3-8.395 32.515-1.4 3.8-1.6 4.61-1.03 4.151z" fill="#658d1b"/>
 <path transform="rotate(72.002 999.87 609.88)" d="m1285 305v-87l-82.742 26.884" fill="none" stroke="#003100" stroke-linecap="square" stroke-width="5"/>
 <path transform="rotate(72.002 999.87 609.88)" d="m1200 337.65c.069-.178 18.7-25.9 41.473-57.223l41.347-56.899.096 40.104c.054 22.1.044 40.2-.022 40.221-.064.064-2.34.287-5.069.494-16 1.21-30.8 5.42-45.866 13.01-9.59 4.83-19.8 11.3-28.33 18.032-3.19 2.5-3.89 2.94-3.63 2.263z" fill="#78be20"/>
 <g fill="#fff" stroke="#6a5000" stroke-width="10">
  <path d="m840 390c-130-180 50-245 160-245s290 65 160 245"/>
  <path d="m741.32 694.19c-211 68-218-123-183.57-227.88 34-105 151-256 282.45-76.46"/>
  <path d="m1000.1 882.03c-.629 222-184 169-273.45 104.16-89-64.7-196-223 14.565-292.25"/>
  <path d="m1258.8 693.94c211 69.2 104 228 14.565 292.25-89 64.7-273 118-273.45-104.16"/>
  <path d="m1159.8 389.85c131-179 248-28.2 282.45 76.46 34 105 27.8 296-183.57 227.88"/>
 </g>
 <path transform="rotate(180 790.55 480.44) scale(.5812)" d="m1182.6 358.7 100.6-138.46" fill="none" stroke="#003100" stroke-width="5"/>
 <path transform="rotate(180 790.55 480.44) scale(.5812)" d="m1197.5 335.15c.148-.121 18.9-25.8 41.607-57.126l41.334-56.908-38.171 12.301c-21 6.76-38.2 12.4-38.245 12.45-.041.081.452 2.32 1.097 4.973 3.78 15.6 4.36 31 1.801 47.642-1.63 10.6-4.64 22.3-8.395 32.515-1.4 3.8-1.6 4.61-1.03 4.151z" fill="#658d1b"/>
 <path transform="rotate(180 790.55 480.44) scale(.5812)" d="m1285 305v-87l-82.742 26.884" fill="none" stroke="#003100" stroke-linecap="square" stroke-width="5"/>
 <path transform="rotate(180 790.55 480.44) scale(.5812)" d="m1200 337.65c.069-.178 18.7-25.9 41.473-57.223l41.347-56.899.096 40.104c.054 22.1.044 40.2-.022 40.221-.064.064-2.34.287-5.069.494-16 1.21-30.8 5.42-45.866 13.01-9.59 4.83-19.8 11.3-28.33 18.032-3.19 2.5-3.89 2.94-3.63 2.263z" fill="#78be20"/>
 <path d="m1105 245c-30 0-63 20-105 20s-75-20-105-20-45 20-5 80c-95-70-35-117 5-117s63 17 105 17 65-17 105-17 100 47 5 117c40-60 25-80-5-80z" fill="#d1d159" filter="url(#a)" stroke="#d1d159" stroke-width="3.2"/>
 <path transform="rotate(-36 1178.3 -163.98) scale(.5812)" d="m1182.6 358.7 100.6-138.46" fill="none" stroke="#003100" stroke-width="5"/>
 <path transform="rotate(-36 1178.3 -163.98) scale(.5812)" d="m1197.5 335.15c.148-.121 18.9-25.8 41.607-57.126l41.334-56.908-38.171 12.301c-21 6.76-38.2 12.4-38.245 12.45-.041.081.452 2.32 1.097 4.973 3.78 15.6 4.36 31 1.801 47.642-1.63 10.6-4.64 22.3-8.395 32.515-1.4 3.8-1.6 4.61-1.03 4.151z" fill="#658d1b"/>
 <path transform="rotate(-36 1178.3 -163.98) scale(.5812)" d="m1285 305v-87l-82.742 26.884" fill="none" stroke="#003100" stroke-linecap="square" stroke-width="5"/>
 <path transform="rotate(-36 1178.3 -163.98) scale(.5812)" d="m1200 337.65c.069-.178 18.7-25.9 41.473-57.223l41.347-56.899.096 40.104c.054 22.1.044 40.2-.022 40.221-.064.064-2.34.287-5.069.494-16 1.21-30.8 5.42-45.866 13.01-9.59 4.83-19.8 11.3-28.33 18.032-3.19 2.5-3.89 2.94-3.63 2.263z" fill="#78be20"/>
 <path d="m890 325c-95-70-35-117 5-117s63 17 105 17 65-17 105-17 100 47 5 117" fill="none" stroke="#6a5000" stroke-width="10"/>
 <path transform="rotate(-72.002 999.89 609.96)" d="m1105 245c-30 0-63 20-105 20s-75-20-105-20-45 20-5 80c-95-70-35-117 5-117s63 17 105 17 65-17 105-17 100 47 5 117c40-60 25-80-5-80z" fill="#d1d159" filter="url(#a)" stroke="#d1d159" stroke-width="3.2"/>
 <path transform="rotate(-72.002 999.89 609.96)" d="m890 325c-95-70-35-117 5-117s63 17 105 17 65-17 105-17 100 47 5 117" fill="none" stroke="#6a5000" stroke-width="10"/>
 <path transform="rotate(216 1e3 610)" d="m1105 245c-30 0-63 20-105 20s-75-20-105-20-45 20-5 80c-95-70-35-117 5-117s63 17 105 17 65-17 105-17 100 47 5 117c40-60 25-80-5-80z" fill="#d1d159" filter="url(#a)" stroke="#d1d159" stroke-width="3.2"/>
 <path transform="rotate(216 1e3 610)" d="m890 325c-95-70-35-117 5-117s63 17 105 17 65-17 105-17 100 47 5 117" fill="none" stroke="#6a5000" stroke-width="10"/>
 <path transform="matrix(-.1796 .5527 -.5527 -.1796 1516.7 163.19)" d="m1182.6 358.7 100.6-138.46" fill="none" stroke="#003100" stroke-width="5"/>
 <path transform="matrix(-.1796 .5527 -.5527 -.1796 1516.7 163.19)" d="m1197.5 335.15c.148-.121 18.9-25.8 41.607-57.126l41.334-56.908-38.171 12.301c-21 6.76-38.2 12.4-38.245 12.45-.041.081.452 2.32 1.097 4.973 3.78 15.6 4.36 31 1.801 47.642-1.63 10.6-4.64 22.3-8.395 32.515-1.4 3.8-1.6 4.61-1.03 4.151z" fill="#658d1b"/>
 <path transform="matrix(-.1796 .5527 -.5527 -.1796 1516.7 163.19)" d="m1285 305v-87l-82.742 26.884" fill="none" stroke="#003100" stroke-linecap="square" stroke-width="5"/>
 <path transform="matrix(-.1796 .5527 -.5527 -.1796 1516.7 163.19)" d="m1200 337.65c.069-.178 18.7-25.9 41.473-57.223l41.347-56.899.096 40.104c.054 22.1.044 40.2-.022 40.221-.064.064-2.34.287-5.069.494-16 1.21-30.8 5.42-45.866 13.01-9.59 4.83-19.8 11.3-28.33 18.032-3.19 2.5-3.89 2.94-3.63 2.263z" fill="#78be20"/>
 <path transform="rotate(144 1e3 610.02)" d="m1105 245c-30 0-63 20-105 20s-75-20-105-20-45 20-5 80c-95-70-35-117 5-117s63 17 105 17 65-17 105-17 100 47 5 117c40-60 25-80-5-80z" fill="#d1d159" filter="url(#a)" stroke="#d1d159" stroke-width="3.2"/>
 <path transform="rotate(144 1e3 610.02)" d="m890 325c-95-70-35-117 5-117s63 17 105 17 65-17 105-17 100 47 5 117" fill="none" stroke="#6a5000" stroke-width="10"/>
 <path transform="rotate(36 403.09 1125) scale(.5812)" d="m1182.6 358.7 100.6-138.46" fill="none" stroke="#003100" stroke-width="5"/>
 <path transform="rotate(36 403.09 1125) scale(.5812)" d="m1197.5 335.15c.148-.121 18.9-25.8 41.607-57.126l41.334-56.908-38.171 12.301c-21 6.76-38.2 12.4-38.245 12.45-.041.081.452 2.32 1.097 4.973 3.78 15.6 4.36 31 1.801 47.642-1.63 10.6-4.64 22.3-8.395 32.515-1.4 3.8-1.6 4.61-1.03 4.151z" fill="#658d1b"/>
 <path transform="rotate(36 403.09 1125) scale(.5812)" d="m1285 305v-87l-82.742 26.884" fill="none" stroke="#003100" stroke-linecap="square" stroke-width="5"/>
 <path transform="rotate(36 403.09 1125) scale(.5812)" d="m1200 337.65c.069-.178 18.7-25.9 41.473-57.223l41.347-56.899.096 40.104c.054 22.1.044 40.2-.022 40.221-.064.064-2.34.287-5.069.494-16 1.21-30.8 5.42-45.866 13.01-9.59 4.83-19.8 11.3-28.33 18.032-3.19 2.5-3.89 2.94-3.63 2.263z" fill="#78be20"/>
 <path transform="rotate(72.002 999.87 609.88)" d="m1105 245c-30 0-63 20-105 20s-75-20-105-20-45 20-5 80c-95-70-35-117 5-117s63 17 105 17 65-17 105-17 100 47 5 117c40-60 25-80-5-80z" fill="#d1d159" filter="url(#a)" stroke="#d1d159" stroke-width="3.2"/>
 <path transform="rotate(72.002 999.87 609.88)" d="m890 325c-95-70-35-117 5-117s63 17 105 17 65-17 105-17 100 47 5 117" fill="none" stroke="#6a5000" stroke-width="10"/>
 <path transform="matrix(-.1796 -.5527 .5527 -.1796 842.41 1268.6)" d="m1182.6 358.7 100.6-138.46" fill="none" stroke="#003100" stroke-width="5"/>
 <path transform="matrix(-.1796 -.5527 .5527 -.1796 842.41 1268.6)" d="m1197.5 335.15c.148-.121 18.9-25.8 41.607-57.126l41.334-56.908-38.171 12.301c-21 6.76-38.2 12.4-38.245 12.45-.041.081.452 2.32 1.097 4.973 3.78 15.6 4.36 31 1.801 47.642-1.63 10.6-4.64 22.3-8.395 32.515-1.4 3.8-1.6 4.61-1.03 4.151z" fill="#658d1b"/>
 <path transform="matrix(-.1796 -.5527 .5527 -.1796 842.41 1268.6)" d="m1285 305v-87l-82.742 26.884" fill="none" stroke="#003100" stroke-linecap="square" stroke-width="5"/>
 <path transform="matrix(-.1796 -.5527 .5527 -.1796 842.41 1268.6)" d="m1200 337.65c.069-.178 18.7-25.9 41.473-57.223l41.347-56.899.096 40.104c.054 22.1.044 40.2-.022 40.221-.064.064-2.34.287-5.069.494-16 1.21-30.8 5.42-45.866 13.01-9.59 4.83-19.8 11.3-28.33 18.032-3.19 2.5-3.89 2.94-3.63 2.263z" fill="#78be20"/>
 <g fill="#fff" stroke="#6a5000" stroke-width="5.81">
  <path d="m907.09 734.31c-76.1 104-144 16.4-164.15-44.435-19.8-60.8-16.2-172 106.68-132.43"/>
  <path d="m1092.9 734.22c75.6 105-29.1 142-92.986 142.38-63.9 0-168-37.8-92.986-142.38"/>
  <path d="m1150.3 557.44c123-39.5 126 71.6 106.68 132.43-19.8 60.8-88 149-164.15 44.435"/>
  <path d="m999.88 448.27c.366-129 107-98.1 158.92-60.536 51.7 37.6 114 130-8.465 169.85"/>
  <path d="m849.58 557.58c-123-40.2-60.2-132-8.464-169.85 51.7-37.6 159-68.5 158.92 60.536"/>
 </g>
 <path d="m1e3 442v110" fill="none" stroke="#6a5000" stroke-width="5.81"/>
 <path transform="matrix(-.1796 -.5527 .5527 -.1796 842.41 1268.6)" d="m1105 245c-30 0-63 20-105 20s-75-20-105-20-45 20-5 80c-95-70-35-117 5-117s63 17 105 17 65-17 105-17 100 47 5 117c40-60 25-80-5-80z" fill="#d1d159" filter="url(#a)" stroke="#d1d159" stroke-width="3.2"/>
 <path d="m862.19 718.34c-21.6 65.1-58.4 40.4-65.566 18.248s-1.92-37.9-9.461-61.088c-7.54-23.2-21.1-32.9-28.253-54.982s8.02-63.7 63.77-23.775" fill="none" stroke="#6a5000" stroke-width="5.81"/>
 <path transform="rotate(180 790.55 480.44) scale(.5812)" d="m1105 245c-30 0-63 20-105 20s-75-20-105-20-45 20-5 80c-95-70-35-117 5-117s63 17 105 17 65-17 105-17 100 47 5 117c40-60 25-80-5-80z" fill="#d1d159" filter="url(#a)" stroke="#d1d159" stroke-width="3.2"/>
 <path transform="rotate(180 790.55 480.44) scale(.5812)" d="m890 325c-95-70-35-117 5-117s63 17 105 17 65-17 105-17 100 47 5 117" fill="none" stroke="#6a5000" stroke-width="10"/>
 <path transform="matrix(-.1796 .5527 -.5527 -.1796 1516.7 163.19)" d="m1105 245c-30 0-63 20-105 20s-75-20-105-20-45 20-5 80c-95-70-35-117 5-117s63 17 105 17 65-17 105-17 100 47 5 117c40-60 25-80-5-80z" fill="#d1d159" filter="url(#a)" stroke="#d1d159" stroke-width="3.2"/>
 <path transform="matrix(-.1796 .5527 -.5527 -.1796 1516.7 163.19)" d="m890 325c-95-70-35-117 5-117s63 17 105 17 65-17 105-17 100 47 5 117" fill="none" stroke="#6a5000" stroke-width="10"/>
 <path transform="rotate(36 403.09 1125) scale(.5812)" d="m1105 245c-30 0-63 20-105 20s-75-20-105-20-45 20-5 80c-95-70-35-117 5-117s63 17 105 17 65-17 105-17 100 47 5 117c40-60 25-80-5-80z" fill="#d1d159" filter="url(#a)" stroke="#d1d159" stroke-width="3.2"/>
 <path transform="rotate(36 403.09 1125) scale(.5812)" d="m890 325c-95-70-35-117 5-117s63 17 105 17 65-17 105-17 100 47 5 117" fill="none" stroke="#6a5000" stroke-width="10"/>
 <path transform="rotate(-36 1178.3 -163.98) scale(.5812)" d="m1105 245c-30 0-63 20-105 20s-75-20-105-20-45 20-5 80c-95-70-35-117 5-117s63 17 105 17 65-17 105-17 100 47 5 117c40-60 25-80-5-80z" fill="#d1d159" filter="url(#a)" stroke="#d1d159" stroke-width="3.2"/>
 <path transform="rotate(-36 1178.3 -163.98) scale(.5812)" d="m890 325c-95-70-35-117 5-117s63 17 105 17 65-17 105-17 100 47 5 117" fill="none" stroke="#6a5000" stroke-width="10"/>
 <path d="m835.17 552.96 104.62 33.992m-41.06 158.67 64.656-88.992m136.21 86.992-64.656-88.992m123.06-99.548-104.62 33.992m-53.38 144.93v-54m117.9-31.68-51.357-16.687m6.357-121.95-31.74 43.687m-114.05-43.687 31.74 43.687m-76.78 94.953 51.357-16.687" fill="none" stroke="#6a5000" stroke-width="5.81"/>
 <path transform="matrix(1.0255 0 0 1.0597 -17.84 -25.83)" d="m1070 600a77.5 75 0 1 1 0-1e-4" fill="#ffd100"/>
 <g fill="none">
  <path d="m925.75 634.75 49.497 49.497m49.453-148.5 49.498 49.497m-81.268-53.027 84.853 84.853m-109.6-81.323 106.07 106.07m-152.03-38.89 84.853 84.853m-81.323-109.6 106.07 106.07m-95.46-123.75 113.14 113.14m14.1-14.14-113.14-113.14m74.24 137.89 49.498-49.497m-148.45-49.503 49.497-49.498m-53.027 81.318 84.853-84.853m-81.323 109.6 106.07-106.07m-38.89 152.03 84.853-84.853m-109.6 81.323 106.07-106.07m-123.75 95.46 113.14-113.14m-14.14-14.14-113.14 113.14" stroke="#c99700" stroke-width="2"/>
  <path transform="matrix(1.0255 0 0 1.0597 -17.84 -25.83)" d="m1070 600a77.5 75 0 1 1 0-1e-4" stroke="#6a5000" stroke-width="4.8"/>
 </g>
</svg>
