<svg xmlns="http://www.w3.org/2000/svg" width="200" height="54.05" viewBox="0 0 200 54.05"><defs><style>.a{fill:#7376ff;}.b{fill:#fff;}.c{fill:#ff3b5c;}</style></defs><g transform="translate(0)"><path class="a" d="M27.011,7.812A11.274,11.274,0,0,0,36.869.005V0l0,0V.005a11.273,11.273,0,0,0,9.856,7.807Z" transform="translate(-9.02)"/><path class="a" d="M67.987,20.021a11.274,11.274,0,0,0,10.476,6.957l0,0h0l0,0,0,0a11.273,11.273,0,0,0-4.372,11.789Z" transform="translate(-22.662 -6.668)"/><path class="a" d="M26.485,73.371a11.274,11.274,0,0,0-12.567.45l0,0v0h0l0,0A11.273,11.273,0,0,0,10.6,61.691Z" transform="translate(-3.54 -20.555)"/><path class="a" d="M10.521,19.557a11.274,11.274,0,0,1-10.515,6.9l0,0H0l0,0,0,0A11.273,11.273,0,0,1,4.31,38.27Z" transform="translate(0 -6.514)"/><path class="a" d="M48.775,73.558a11.274,11.274,0,0,1,12.564.526l0,0v0h0l0,0A11.273,11.273,0,0,1,64.73,61.974Z" transform="translate(-16.257 -20.649)"/><path class="b" d="M29.972,57.925a10.4,10.4,0,0,1-9.384-5.857l-1.66-3.378-3.713-.542a10.518,10.518,0,0,1-5.8-17.919L12.1,27.6l-.634-3.717A10.472,10.472,0,0,1,26.652,12.807l3.32,1.753,3.319-1.753A10.473,10.473,0,0,1,48.474,23.88L47.84,27.6l2.688,2.631a10.517,10.517,0,0,1-5.8,17.919l-3.713.542-1.66,3.378a10.4,10.4,0,0,1-9.383,5.857ZM21.756,13.363a8.749,8.749,0,0,0-8.523,10.216l.793,4.641-3.359,3.289a8.725,8.725,0,0,0,4.807,14.864l4.644.679,2.076,4.225a8.656,8.656,0,0,0,15.555,0l2.076-4.225,4.644-.679a8.725,8.725,0,0,0,4.807-14.864L45.917,28.22l.793-4.641a8.683,8.683,0,0,0-12.585-9.188l-4.154,2.194-4.155-2.194a8.676,8.676,0,0,0-4.061-1.029Z" transform="translate(-2.088 -3.875)"/><path class="c" d="M36.871,30.992a8.163,8.163,0,1,1-8.162,8.162,8.164,8.164,0,0,1,8.162-8.162m0-1.79a9.953,9.953,0,1,0,9.955,9.953A9.952,9.952,0,0,0,36.871,29.2Z" transform="translate(-8.989 -9.726)"/><path class="b" d="M103.16,50.046l-1.61-.224.358-2.863a77.64,77.64,0,0,0,9.26.806q6.619,0,6.62-6.218a5.11,5.11,0,0,0-.6-2.683,4.32,4.32,0,0,0-2.058-1.611A21.7,21.7,0,0,0,110.9,36.09a25.362,25.362,0,0,1-5.7-1.744,6.562,6.562,0,0,1-2.975-2.639,8.959,8.959,0,0,1-.939-4.428q0-8.32,9.975-8.32a66.081,66.081,0,0,1,9.349.894l-.313,2.907Q113.85,22,111.48,22q-6.71,0-6.71,5.055a5.433,5.433,0,0,0,.649,2.93,4.515,4.515,0,0,0,2.214,1.633A35.276,35.276,0,0,0,112.6,33a22.407,22.407,0,0,1,5.122,1.7,6.163,6.163,0,0,1,2.662,2.482,8.487,8.487,0,0,1,.85,4.092q0,9.528-9.885,9.528A57.568,57.568,0,0,1,103.16,50.046Z" transform="translate(-33.754 -6.305)"/><path class="b" d="M141.7,53.988a6.593,6.593,0,0,1-3-3.691,20.109,20.109,0,0,1-.895-6.62,20.361,20.361,0,0,1,.939-6.821,6.792,6.792,0,0,1,3.042-3.757,11.369,11.369,0,0,1,5.591-1.185A11.176,11.176,0,0,1,153,33.121a6.927,6.927,0,0,1,3.019,3.758,20.129,20.129,0,0,1,.94,6.8,20.137,20.137,0,0,1-.894,6.62,6.629,6.629,0,0,1-2.975,3.691,14.255,14.255,0,0,1-11.384,0Zm9.483-2.549A4.4,4.4,0,0,0,153,48.8a19.745,19.745,0,0,0,.514-5.122,20.628,20.628,0,0,0-.537-5.368,4.418,4.418,0,0,0-1.834-2.684,7.081,7.081,0,0,0-3.712-.805,7.2,7.2,0,0,0-3.735.805,4.468,4.468,0,0,0-1.879,2.684,19.8,19.8,0,0,0-.559,5.368,19.736,19.736,0,0,0,.515,5.1,4.37,4.37,0,0,0,1.834,2.662,7.242,7.242,0,0,0,3.824.827,7.022,7.022,0,0,0,3.758-.827Z" transform="translate(-45.93 -10.621)"/><path class="b" d="M180.588,54.956h-3.311l-6.352-22.365h3.355l5.592,19.458h1.476l5.636-19.458h3.355l-9.3,32.3H177.68Z" transform="translate(-56.97 -10.837)"/><path class="b" d="M206.271,47.764q-1.835-2.751-1.834-8.476,0-6.4,2.214-9.214t7.314-2.818a25.978,25.978,0,0,1,5.322.582V17.951H222.6V50.068h-3.311V48.547a13.851,13.851,0,0,1-6.933,1.969Q208.1,50.516,206.271,47.764Zm9.527-.626a15.047,15.047,0,0,0,2.6-.872l.894-.4V30.7a28.386,28.386,0,0,0-5.054-.537q-3.535,0-4.942,2.058t-1.41,6.8a13.863,13.863,0,0,0,1.141,6.42,4.132,4.132,0,0,0,3.959,2.08,11.669,11.669,0,0,0,2.817-.38Z" transform="translate(-68.141 -5.969)"/><path class="b" d="M243.445,53.988a6.593,6.593,0,0,1-3-3.691,20.109,20.109,0,0,1-.895-6.62,20.361,20.361,0,0,1,.939-6.821,6.791,6.791,0,0,1,3.042-3.757,11.366,11.366,0,0,1,5.591-1.185,11.176,11.176,0,0,1,5.614,1.207,6.927,6.927,0,0,1,3.019,3.758,20.129,20.129,0,0,1,.94,6.8,20.136,20.136,0,0,1-.895,6.62,6.631,6.631,0,0,1-2.975,3.691A14.256,14.256,0,0,1,243.445,53.988Zm9.484-2.549a4.407,4.407,0,0,0,1.811-2.64,19.76,19.76,0,0,0,.515-5.122,20.622,20.622,0,0,0-.537-5.368,4.418,4.418,0,0,0-1.834-2.684,7.081,7.081,0,0,0-3.712-.805,7.2,7.2,0,0,0-3.735.805,4.47,4.47,0,0,0-1.879,2.684A19.8,19.8,0,0,0,243,43.677a19.757,19.757,0,0,0,.515,5.1,4.369,4.369,0,0,0,1.834,2.662,7.24,7.24,0,0,0,3.824.827,7.022,7.022,0,0,0,3.757-.827Z" transform="translate(-79.821 -10.621)"/><path class="b" d="M276.332,54.576l-1.342-.224.179-2.907a59.748,59.748,0,0,0,7.694.76,7.345,7.345,0,0,0,4-.872,3.107,3.107,0,0,0,1.319-2.8,3.035,3.035,0,0,0-.648-2.1,3.645,3.645,0,0,0-1.654-1.029,19.784,19.784,0,0,0-2.841-.582l-1.118-.179a20.1,20.1,0,0,1-4.2-1.073,4.869,4.869,0,0,1-2.282-1.767,5.636,5.636,0,0,1-.76-3.153q0-3.623,2.192-5.144a10.834,10.834,0,0,1,6.218-1.521,37.508,37.508,0,0,1,6.486.581l1.253.224-.089,2.863a55.075,55.075,0,0,0-7.559-.715,7.379,7.379,0,0,0-3.87.8,2.753,2.753,0,0,0-1.275,2.505,2.562,2.562,0,0,0,.627,1.857,3.6,3.6,0,0,0,1.633.939,27.18,27.18,0,0,0,2.84.6l1.119.223a20.665,20.665,0,0,1,4.294,1.141,4.711,4.711,0,0,1,2.258,1.856,6.434,6.434,0,0,1,.739,3.355q0,3.623-2.125,5.3T282.908,55.2a42.543,42.543,0,0,1-6.576-.627Z" transform="translate(-91.55 -10.65)"/></g></svg>