<svg xmlns="http://www.w3.org/2000/svg" viewBox="0 0 115 167"><defs><style>.cls-1{fill:#fff;}.cls-2{fill:#ff3b5c;}</style></defs><title>card-hearts-8</title><g id="artwork"><rect class="cls-1" width="115" height="167" rx="8"/><path class="cls-2" d="M9.29523,20.95524a3.887,3.887,0,0,1,.54994-2.2367,5.35174,5.35174,0,0,1,1.86022-1.51485A4.43745,4.43745,0,0,1,10.03493,15.879a3.38136,3.38136,0,0,1-.50733-1.95986,3.07288,3.07288,0,0,1,1.33223-2.71405,6.245,6.245,0,0,1,3.63784-.91072,6.37763,6.37763,0,0,1,3.7127.94306,3.10454,3.10454,0,0,1,1.34257,2.70241,3.30482,3.30482,0,0,1-.50734,1.98185,4.56562,4.56562,0,0,1-1.81891,1.282,4.90174,4.90174,0,0,1,1.9351,1.37773,3.43381,3.43381,0,0,1,.60286,2.141q0,4.00511-5.22438,4.0051Q9.29459,24.72748,9.29523,20.95524Zm8.73571-.40232a2.14765,2.14765,0,0,0-.58221-1.63257,4.67355,4.67355,0,0,0-1.89379-.93271h-2.2204a3.46985,3.46985,0,0,0-1.74533.95341,2.54159,2.54159,0,0,0-.56026,1.73864q0,2.56529,3.51132,2.564Q18.02965,23.24368,18.03094,20.55292Zm-2.476-3.9844a4.14874,4.14874,0,0,0,1.71435-.95471,2.05213,2.05213,0,0,0,.54993-1.4838q0-2.35183-3.279-2.35183-3.27831,0-3.279,2.33113a2.2099,2.2099,0,0,0,.4983,1.5045,3.66554,3.66554,0,0,0,1.57493.95471Z"/><path class="cls-2" d="M14.54128,45.23821a25.15219,25.15219,0,0,1,2.33443-3.11912c1.62468-1.852,3.72992-3.72808,3.80593-6.38533a3.74367,3.74367,0,0,0-1.56109-3.27759,2.77928,2.77928,0,0,0-3.30514.16671,2.84737,2.84737,0,0,0-.96287,1.69845c-.02934.17674-.07364.46785-.31126.46785s-.28193-.29111-.31125-.46785a2.84739,2.84739,0,0,0-.96288-1.69845A2.77927,2.77927,0,0,0,9.962,32.45617a3.74369,3.74369,0,0,0-1.56109,3.27759c.076,2.65725,2.18125,4.53329,3.80591,6.38533A25.15127,25.15127,0,0,1,14.54128,45.23821Z"/><path class="cls-2" d="M105.70555,146.04347a3.89434,3.89434,0,0,1-.54993,2.2367,5.34589,5.34589,0,0,1-1.86152,1.51484,4.445,4.445,0,0,1,1.67175,1.32469,3.38287,3.38287,0,0,1,.50734,1.96115,3.0706,3.0706,0,0,1-1.33224,2.71276,6.235,6.235,0,0,1-3.63783.912,6.37467,6.37467,0,0,1-3.71271-.94435,3.10229,3.10229,0,0,1-1.34256-2.70112,3.29956,3.29956,0,0,1,.50733-1.98185A4.56656,4.56656,0,0,1,97.7741,149.795a4.90027,4.90027,0,0,1-1.9351-1.37643,3.43638,3.43638,0,0,1-.60287-2.141q0-4.00706,5.22439-4.0064Q105.7062,142.27122,105.70555,146.04347Zm-8.73441.40361a2.14909,2.14909,0,0,0,.58092,1.63257,4.68486,4.68486,0,0,0,1.8925.93142h2.22168a3.45021,3.45021,0,0,0,1.74405-.95341,2.53447,2.53447,0,0,0,.56155-1.73735q0-2.56529-3.51132-2.56529Q96.97115,143.755,96.97114,146.44708Zm2.47342,3.9844a4.13053,4.13053,0,0,0-1.71177.95341,2.05213,2.05213,0,0,0-.54994,1.48381q0,2.35182,3.27767,2.35312,3.27831,0,3.27766-2.33243a2.21747,2.21747,0,0,0-.49571-1.5045,3.66573,3.66573,0,0,0-1.57623-.95341Z"/><path class="cls-2" d="M100.45872,121.93765a25.15144,25.15144,0,0,1-2.33443,3.11912c-1.62468,1.852-3.72992,3.72808-3.80593,6.38533a3.74364,3.74364,0,0,0,1.56109,3.27759,2.77928,2.77928,0,0,0,3.30514-.1667,2.84743,2.84743,0,0,0,.96287-1.69845c.02934-.17674.07364-.46786.31126-.46786s.28193.29112.31125.46786a2.84745,2.84745,0,0,0,.96288,1.69845,2.77927,2.77927,0,0,0,3.30513.1667,3.74367,3.74367,0,0,0,1.56109-3.27759c-.076-2.65725-2.18125-4.53329-3.80591-6.38533A25.15052,25.15052,0,0,1,100.45872,121.93765Z"/><path class="cls-2" d="M36.34942,37.712a37.72884,37.72884,0,0,1,3.50165-4.67867c2.437-2.77806,5.59489-5.59212,5.70889-9.578a5.61551,5.61551,0,0,0-2.34162-4.91639,4.169,4.169,0,0,0-4.95772.25006,4.27115,4.27115,0,0,0-1.44431,2.54768c-.044.26511-.11045.70178-.46689.70178s-.42289-.43667-.46687-.70178A4.27116,4.27116,0,0,0,34.43823,18.789a4.16894,4.16894,0,0,0-4.9577-.25006,5.61554,5.61554,0,0,0-2.34163,4.91639c.114,3.98588,3.27187,6.79994,5.70887,9.578A37.72585,37.72585,0,0,1,36.34942,37.712Z"/><path class="cls-2" d="M36.34945,129.28805a37.72984,37.72984,0,0,1-3.50165,4.67867c-2.437,2.77806-5.59489,5.59212-5.7089,9.578a5.61554,5.61554,0,0,0,2.34163,4.91639,4.169,4.169,0,0,0,4.95772-.25006,4.27108,4.27108,0,0,0,1.4443-2.54768c.044-.26511.11046-.70178.4669-.70178s.42289.43667.46686.70178a4.27118,4.27118,0,0,0,1.44433,2.54768,4.16894,4.16894,0,0,0,4.9577.25006A5.61551,5.61551,0,0,0,45.56,143.54472c-.114-3.98588-3.27186-6.79994-5.70886-9.578A37.72485,37.72485,0,0,1,36.34945,129.28805Z"/><path class="cls-2" d="M78.65055,37.712a37.72984,37.72984,0,0,1,3.50165-4.67867c2.437-2.77806,5.59489-5.59212,5.7089-9.578a5.61554,5.61554,0,0,0-2.34163-4.91639,4.169,4.169,0,0,0-4.95772.25006,4.27108,4.27108,0,0,0-1.4443,2.54768c-.044.26511-.11046.70178-.4669.70178s-.42289-.43667-.46686-.70178A4.27118,4.27118,0,0,0,76.73936,18.789a4.16894,4.16894,0,0,0-4.9577-.25006A5.61551,5.61551,0,0,0,69.44,23.45528c.114,3.98588,3.27186,6.79994,5.70886,9.578A37.72485,37.72485,0,0,1,78.65055,37.712Z"/><path class="cls-2" d="M78.65058,129.28805a37.72884,37.72884,0,0,1-3.50165,4.67867c-2.437,2.77806-5.59489,5.59212-5.70889,9.578a5.61551,5.61551,0,0,0,2.34162,4.91639,4.169,4.169,0,0,0,4.95772-.25006,4.27115,4.27115,0,0,0,1.44431-2.54768c.044-.26511.11045-.70178.46689-.70178s.42289.43667.46687.70178a4.27116,4.27116,0,0,0,1.44432,2.54768,4.16894,4.16894,0,0,0,4.9577.25006,5.61554,5.61554,0,0,0,2.34163-4.91639c-.114-3.98588-3.27187-6.79994-5.70887-9.578A37.72585,37.72585,0,0,1,78.65058,129.28805Z"/><path class="cls-2" d="M36.34942,93.43513a37.72969,37.72969,0,0,1,3.50165-4.67868c2.437-2.77805,5.59489-5.59211,5.70889-9.578a5.61551,5.61551,0,0,0-2.34162-4.91639,4.169,4.169,0,0,0-4.95772.25006,4.27112,4.27112,0,0,0-1.44431,2.54768c-.044.26511-.11045.70178-.46689.70178s-.42289-.43667-.46687-.70178a4.27113,4.27113,0,0,0-1.44432-2.54768,4.16893,4.16893,0,0,0-4.9577-.25006,5.61554,5.61554,0,0,0-2.34163,4.91639c.114,3.98588,3.27187,6.79994,5.70887,9.578A37.7267,37.7267,0,0,1,36.34942,93.43513Z"/><path class="cls-2" d="M78.65055,93.43513a37.73069,37.73069,0,0,1,3.50165-4.67868c2.437-2.77805,5.59489-5.59211,5.7089-9.578a5.61554,5.61554,0,0,0-2.34163-4.91639,4.169,4.169,0,0,0-4.95772.25006,4.27106,4.27106,0,0,0-1.4443,2.54768c-.044.26511-.11046.70178-.4669.70178s-.42289-.43667-.46686-.70178a4.27115,4.27115,0,0,0-1.44433-2.54768,4.16893,4.16893,0,0,0-4.9577-.25006A5.61551,5.61551,0,0,0,69.44,79.17846c.114,3.98588,3.27186,6.79994,5.70886,9.578A37.7257,37.7257,0,0,1,78.65055,93.43513Z"/><path class="cls-2" d="M57.5,65.61674a37.73058,37.73058,0,0,1,3.50165-4.67867c2.437-2.77806,5.59489-5.59212,5.7089-9.578a5.61549,5.61549,0,0,0-2.34163-4.91638,4.169,4.169,0,0,0-4.95772.25005,4.27114,4.27114,0,0,0-1.4443,2.54768c-.044.26511-.11045.70178-.4669.70178s-.42288-.43667-.46686-.70178a4.27113,4.27113,0,0,0-1.44433-2.54768,4.16891,4.16891,0,0,0-4.95769-.25005,5.61549,5.61549,0,0,0-2.34163,4.91638c.114,3.98588,3.27187,6.79994,5.70887,9.578A37.72652,37.72652,0,0,1,57.5,65.61674Z"/><path class="cls-2" d="M57.5,101.38326a37.73058,37.73058,0,0,1-3.50165,4.67867c-2.437,2.77806-5.59489,5.59212-5.7089,9.578a5.61549,5.61549,0,0,0,2.34163,4.91638,4.169,4.169,0,0,0,4.95772-.25005,4.27114,4.27114,0,0,0,1.4443-2.54768c.044-.26511.11045-.70178.4669-.70178s.42288.43667.46686.70178a4.27113,4.27113,0,0,0,1.44433,2.54768,4.16891,4.16891,0,0,0,4.95769.25005,5.61549,5.61549,0,0,0,2.34163-4.91638c-.114-3.98588-3.27187-6.79994-5.70887-9.578A37.72652,37.72652,0,0,1,57.5,101.38326Z"/></g></svg>