<svg xmlns="http://www.w3.org/2000/svg" viewBox="0 0 115 167"><defs><style>.cls-1{fill:#fff;}</style></defs><title>card-spades-10</title><g id="artwork"><rect class="cls-1" width="115" height="167" rx="8"/><path d="M44.79648,28.22251c-.8183-2.5769-3.19939-4.01912-5.06489-5.77546a16.43852,16.43852,0,0,1-3.38217-4.519,16.43829,16.43829,0,0,1-3.38216,4.519c-1.8655,1.75634-4.24654,3.19856-5.06485,5.77546a5.42268,5.42268,0,0,0,2.81234,6.71827,3.91852,3.91852,0,0,0,4.55585-.97027,3.13356,3.13356,0,0,0,.57388-1.12627,4.92508,4.92508,0,0,1-.81006,2.97731,4.85317,4.85317,0,0,1-1.3149,1.31774v.65907h5.2598v-.65907a4.85335,4.85335,0,0,1-1.315-1.31774,4.92512,4.92512,0,0,1-.81-2.97746,3.13391,3.13391,0,0,0,.57392,1.12642,3.91848,3.91848,0,0,0,4.55585.97027A5.42274,5.42274,0,0,0,44.79648,28.22251Z"/><path d="M87.09762,28.22251c-.81831-2.5769-3.1994-4.01912-5.0649-5.77546a16.43829,16.43829,0,0,1-3.38216-4.519,16.43852,16.43852,0,0,1-3.38217,4.519c-1.8655,1.75634-4.24654,3.19856-5.06485,5.77546a5.42268,5.42268,0,0,0,2.81235,6.71827,3.91852,3.91852,0,0,0,4.55585-.97027,3.13354,3.13354,0,0,0,.57387-1.12627,4.925,4.925,0,0,1-.81006,2.97731,4.85327,4.85327,0,0,1-1.31489,1.31774v.65907h5.25979v-.65907a4.85349,4.85349,0,0,1-1.31495-1.31774,4.92512,4.92512,0,0,1-.81005-2.97746,3.13391,3.13391,0,0,0,.57392,1.12642,3.91849,3.91849,0,0,0,4.55585.97027A5.42275,5.42275,0,0,0,87.09762,28.22251Z"/><path d="M27.90238,138.77749c.81831,2.5769,3.1994,4.01912,5.0649,5.77546a16.43829,16.43829,0,0,1,3.38216,4.519,16.43852,16.43852,0,0,1,3.38217-4.519c1.8655-1.75634,4.24654-3.19856,5.06485-5.77546a5.42268,5.42268,0,0,0-2.81235-6.71827,3.91852,3.91852,0,0,0-4.55585.97027,3.13354,3.13354,0,0,0-.57387,1.12627,4.925,4.925,0,0,1,.81006-2.97731,4.85327,4.85327,0,0,1,1.31489-1.31774v-.65907H33.71955v.65907a4.85349,4.85349,0,0,1,1.315,1.31774,4.92512,4.92512,0,0,1,.81,2.97746,3.13391,3.13391,0,0,0-.57392-1.12642,3.91849,3.91849,0,0,0-4.55585-.97027A5.42275,5.42275,0,0,0,27.90238,138.77749Z"/><path d="M70.20352,138.77749c.8183,2.5769,3.19939,4.01912,5.06489,5.77546a16.43852,16.43852,0,0,1,3.38217,4.519,16.43829,16.43829,0,0,1,3.38216-4.519c1.8655-1.75634,4.24654-3.19856,5.06485-5.77546a5.42268,5.42268,0,0,0-2.81234-6.71827,3.91852,3.91852,0,0,0-4.55585.97027,3.13356,3.13356,0,0,0-.57388,1.12627,4.92508,4.92508,0,0,1,.81006-2.97731,4.85317,4.85317,0,0,1,1.3149-1.31774v-.65907h-5.2598v.65907a4.85335,4.85335,0,0,1,1.31495,1.31774,4.92512,4.92512,0,0,1,.81005,2.97746,3.13391,3.13391,0,0,0-.57392-1.12642,3.91848,3.91848,0,0,0-4.55585-.97027A5.42274,5.42274,0,0,0,70.20352,138.77749Z"/><path d="M44.79648,65.31369c-.8183-2.5769-3.19939-4.01912-5.06489-5.77546a16.43863,16.43863,0,0,1-3.38217-4.51895,16.43839,16.43839,0,0,1-3.38216,4.51895c-1.8655,1.75634-4.24654,3.19856-5.06485,5.77546A5.42269,5.42269,0,0,0,30.71475,72.032a3.91853,3.91853,0,0,0,4.55585-.97028,3.1336,3.1336,0,0,0,.57388-1.12626,4.92507,4.92507,0,0,1-.81006,2.9773,4.853,4.853,0,0,1-1.3149,1.31774v.65907h5.2598v-.65907a4.85321,4.85321,0,0,1-1.315-1.31774,4.92509,4.92509,0,0,1-.81-2.97745,3.13386,3.13386,0,0,0,.57392,1.12641,3.9185,3.9185,0,0,0,4.55585.97028A5.42276,5.42276,0,0,0,44.79648,65.31369Z"/><path d="M87.09762,65.31369c-.81831-2.5769-3.1994-4.01912-5.0649-5.77546a16.43839,16.43839,0,0,1-3.38216-4.51895,16.43863,16.43863,0,0,1-3.38217,4.51895c-1.8655,1.75634-4.24654,3.19856-5.06485,5.77546A5.42269,5.42269,0,0,0,73.01589,72.032a3.91854,3.91854,0,0,0,4.55585-.97028,3.13358,3.13358,0,0,0,.57387-1.12626,4.925,4.925,0,0,1-.81006,2.9773,4.85313,4.85313,0,0,1-1.31489,1.31774v.65907h5.25979v-.65907a4.85335,4.85335,0,0,1-1.31495-1.31774,4.92509,4.92509,0,0,1-.81005-2.97745,3.13386,3.13386,0,0,0,.57392,1.12641,3.91851,3.91851,0,0,0,4.55585.97028A5.42276,5.42276,0,0,0,87.09762,65.31369Z"/><path d="M70.20352,101.68631c.8183,2.5769,3.19939,4.01912,5.06489,5.77546a16.43863,16.43863,0,0,1,3.38217,4.519,16.43839,16.43839,0,0,1,3.38216-4.519c1.8655-1.75634,4.24654-3.19856,5.06485-5.77546A5.42269,5.42269,0,0,0,84.28525,94.968a3.91853,3.91853,0,0,0-4.55585.97028,3.1336,3.1336,0,0,0-.57388,1.12626,4.92507,4.92507,0,0,1,.81006-2.9773,4.853,4.853,0,0,1,1.3149-1.31774v-.65907h-5.2598v.65907a4.85321,4.85321,0,0,1,1.31495,1.31774,4.92509,4.92509,0,0,1,.81005,2.97745,3.13386,3.13386,0,0,0-.57392-1.12641,3.9185,3.9185,0,0,0-4.55585-.97028A5.42276,5.42276,0,0,0,70.20352,101.68631Z"/><path d="M27.90238,101.68631c.81831,2.5769,3.1994,4.01912,5.0649,5.77546a16.43839,16.43839,0,0,1,3.38216,4.519,16.43863,16.43863,0,0,1,3.38217-4.519c1.8655-1.75634,4.24654-3.19856,5.06485-5.77546A5.42269,5.42269,0,0,0,41.98411,94.968a3.91854,3.91854,0,0,0-4.55585.97028,3.13358,3.13358,0,0,0-.57387,1.12626,4.925,4.925,0,0,1,.81006-2.9773,4.85313,4.85313,0,0,1,1.31489-1.31774v-.65907H33.71955v.65907a4.85335,4.85335,0,0,1,1.315,1.31774,4.92509,4.92509,0,0,1,.81,2.97745,3.13386,3.13386,0,0,0-.57392-1.12641,3.91851,3.91851,0,0,0-4.55585-.97028A5.42276,5.42276,0,0,0,27.90238,101.68631Z"/><path d="M65.94705,46.7681c-.8183-2.5769-3.1994-4.01912-5.0649-5.77546A16.43859,16.43859,0,0,1,57.5,36.47369a16.43843,16.43843,0,0,1-3.38217,4.519C52.25232,42.749,49.87129,44.1912,49.053,46.7681a5.42267,5.42267,0,0,0,2.81234,6.71827,3.91852,3.91852,0,0,0,4.55585-.97027,3.13372,3.13372,0,0,0,.57388-1.12627,4.925,4.925,0,0,1-.81007,2.97731,4.853,4.853,0,0,1-1.31489,1.31774V56.344h5.2598v-.65907a4.85307,4.85307,0,0,1-1.315-1.31774,4.925,4.925,0,0,1-.81-2.97745,3.13384,3.13384,0,0,0,.57391,1.12641,3.91849,3.91849,0,0,0,4.55585.97027A5.42275,5.42275,0,0,0,65.94705,46.7681Z"/><path d="M49.053,120.2319c.8183,2.5769,3.1994,4.01912,5.0649,5.77546A16.43859,16.43859,0,0,1,57.5,130.52631a16.43843,16.43843,0,0,1,3.38217-4.51895c1.8655-1.75634,4.24653-3.19856,5.06484-5.77546a5.42267,5.42267,0,0,0-2.81234-6.71827,3.91852,3.91852,0,0,0-4.55585.97027,3.13372,3.13372,0,0,0-.57388,1.12627,4.925,4.925,0,0,1,.81007-2.97731,4.853,4.853,0,0,1,1.31489-1.31774v-.65907h-5.2598v.65907a4.85307,4.85307,0,0,1,1.315,1.31774,4.925,4.925,0,0,1,.81,2.97745,3.13384,3.13384,0,0,0-.57391-1.12641,3.91849,3.91849,0,0,0-4.55585-.97027A5.42275,5.42275,0,0,0,49.053,120.2319Z"/><path d="M20.16705,38.78229c-.54553-1.71793-2.13293-2.67941-3.37659-3.85031a10.959,10.959,0,0,1-2.25478-3.01263A10.959,10.959,0,0,1,12.2809,34.932c-1.24367,1.1709-2.831,2.13238-3.37656,3.85031a3.61511,3.61511,0,0,0,1.87489,4.47885,2.61237,2.61237,0,0,0,3.03724-.64685,2.08916,2.08916,0,0,0,.38258-.75084,3.28341,3.28341,0,0,1-.54,1.98487,3.23539,3.23539,0,0,1-.8766.87849v.43938h3.50653v-.43938a3.23564,3.23564,0,0,1-.87663-.87849,3.28336,3.28336,0,0,1-.54-1.985,2.08918,2.08918,0,0,0,.38261.75094,2.61233,2.61233,0,0,0,3.03723.64685A3.61516,3.61516,0,0,0,20.16705,38.78229Z"/><path d="M9.82089,12.35,6.22566,14.72379l-.741-1.22895,4.44208-2.96761H11.45V24.51662H9.82089Z"/><path d="M15.621,24.02892A4.23475,4.23475,0,0,1,13.939,21.73918a13.01116,13.01116,0,0,1-.56027-4.21725,13.01975,13.01975,0,0,1,.56027-4.21855,4.28325,4.28325,0,0,1,1.68208-2.2988,5.24892,5.24892,0,0,1,2.85553-.7102,4.46519,4.46519,0,0,1,3.8276,1.674q1.249,1.67462,1.24832,5.55359a13.01119,13.01119,0,0,1-.56026,4.21725,4.23475,4.23475,0,0,1-1.68208,2.28974,5.27093,5.27093,0,0,1-2.83358.69856A5.31734,5.31734,0,0,1,15.621,24.02892Zm4.801-1.282a3.24609,3.24609,0,0,0,1.09987-1.802,12.95522,12.95522,0,0,0,.35888-3.423,12.95535,12.95535,0,0,0-.35888-3.423,3.246,3.246,0,0,0-1.09987-1.802,3.228,3.228,0,0,0-1.94542-.54074,3.22536,3.22536,0,0,0-1.94543.54074,3.23188,3.23188,0,0,0-1.09987,1.802,12.94781,12.94781,0,0,0-.36017,3.423,12.94767,12.94767,0,0,0,.36017,3.423,3.23194,3.23194,0,0,0,1.09987,1.802,3.22512,3.22512,0,0,0,1.94543.53944A3.22778,3.22778,0,0,0,20.422,22.74693Z"/><path d="M94.833,128.21771c.54553,1.71793,2.13293,2.67941,3.37659,3.85031a10.959,10.959,0,0,1,2.25478,3.01263,10.959,10.959,0,0,1,2.25478-3.01263c1.24367-1.1709,2.831-2.13238,3.37656-3.85031a3.61511,3.61511,0,0,0-1.87489-4.47885,2.61237,2.61237,0,0,0-3.03724.64685,2.08916,2.08916,0,0,0-.38258.75084,3.28341,3.28341,0,0,1,.54-1.98487,3.23539,3.23539,0,0,1,.8766-.87849v-.43938H98.71106v.43938a3.23564,3.23564,0,0,1,.87663.87849,3.28336,3.28336,0,0,1,.54,1.985,2.08918,2.08918,0,0,0-.38261-.75094,2.61233,2.61233,0,0,0-3.03723-.64685A3.61516,3.61516,0,0,0,94.833,128.21771Z"/><path d="M105.17911,154.65l3.59523-2.37382.741,1.22895-4.44208,2.96761H103.55V142.48338h1.62915Z"/><path d="M99.379,142.97108a4.23475,4.23475,0,0,1,1.68208,2.28974,16.157,16.157,0,0,1,0,8.4358,4.28325,4.28325,0,0,1-1.68208,2.2988,5.24892,5.24892,0,0,1-2.85553.7102,4.46519,4.46519,0,0,1-3.8276-1.674q-1.249-1.67462-1.24832-5.55359a13.01119,13.01119,0,0,1,.56026-4.21725,4.23475,4.23475,0,0,1,1.68208-2.28974,6.14076,6.14076,0,0,1,5.68911,0Zm-4.80095,1.282a3.24609,3.24609,0,0,0-1.09987,1.802,16.50341,16.50341,0,0,0,0,6.84593,3.10817,3.10817,0,0,0,6.09059,0,16.44558,16.44558,0,0,0,0-6.84593,3.31961,3.31961,0,0,0-4.99072-1.802Z"/></g></svg>