<svg xmlns="http://www.w3.org/2000/svg" viewBox="0 0 115 167"><defs><style>.cls-1{fill:#fff;}.cls-2{fill:#ff3b5c;}</style></defs><title>card-diamonds-5</title><g id="artwork"><rect class="cls-1" width="115" height="167" rx="8"/><path class="cls-2" d="M10.63825,24.24424l-.6984-.14876.19106-1.29228a21.94548,21.94548,0,0,0,4.10257.46569,3.38511,3.38511,0,0,0,2.485-.84729,3.24527,3.24527,0,0,0,.85718-2.41639,2.77386,2.77386,0,0,0-.75132-2.1719,3.23089,3.23089,0,0,0-2.21007-.66748,6.62781,6.62781,0,0,0-1.53362.20051,7.56966,7.56966,0,0,0-1.34256.43463l-.44408.21215L10.17222,17.801l.38082-7.26985h8.14317v1.485h-6.789l-.38083,4.55594a6.89839,6.89839,0,0,1,3.27767-.86927q4.44207,0,4.44208,4.133a4.994,4.994,0,0,1-1.21606,3.61293,4.58129,4.58129,0,0,1-3.45839,1.26252A18.369,18.369,0,0,1,10.63825,24.24424Z"/><path class="cls-2" d="M104.2834,142.75576l.6971.14876-.18976,1.29228a21.9463,21.9463,0,0,0-4.10386-.46569,3.3892,3.3892,0,0,0-2.485.84729,3.24983,3.24983,0,0,0-.85588,2.41639,2.77818,2.77818,0,0,0,.75,2.1719,3.23453,3.23453,0,0,0,2.21136.66748,6.62621,6.62621,0,0,0,1.53233-.20051,7.55242,7.55242,0,0,0,1.34385-.43463l.44408-.21215,1.12053.21215-.38083,7.26985H96.22414v-1.485h6.789l.38211-4.55594a6.907,6.907,0,0,1-3.27895.86927q-4.44209,0-4.44208-4.13295a4.99451,4.99451,0,0,1,1.21734-3.61293,4.57826,4.57826,0,0,1,3.45711-1.26252A18.3709,18.3709,0,0,1,104.2834,142.75576Z"/><path class="cls-2" d="M14.53018,45.15573q-1.48188-1.81566-3.13952-3.47715Q9.7354,40.02015,7.92061,38.53265q1.81194-1.48485,3.47005-3.14591,1.65522-1.65865,3.13952-3.47715,1.48181,1.81566,3.13947,3.47715,1.65527,1.65861,3.47006,3.14591-1.812,1.4849-3.47006,3.14593Q16.01466,43.33718,14.53018,45.15573Z"/><path class="cls-2" d="M100.46986,135.01536q-1.48188-1.81566-3.13951-3.47715-1.65528-1.65843-3.47006-3.14593,1.812-1.48485,3.47006-3.1459,1.65521-1.65866,3.13951-3.47715,1.48182,1.81565,3.13948,3.47715,1.65527,1.65859,3.47005,3.1459-1.812,1.48489-3.47005,3.14593Q101.95433,133.1968,100.46986,135.01536Z"/><path class="cls-2" d="M57.5,93.87138q-2.22282-2.72348-4.70927-5.21572-2.48291-2.48766-5.20508-4.7189,2.71791-2.22728,5.20508-4.71885,2.48282-2.488,4.70927-5.21573,2.22271,2.72349,4.70921,5.21573,2.48291,2.4879,5.20508,4.71885-2.71793,2.22735-5.20508,4.7189Q59.72674,91.14356,57.5,93.87138Z"/><path class="cls-2" d="M36.34946,38.00805q-2.22282-2.72347-4.70927-5.21572-2.48291-2.48766-5.20508-4.7189,2.71793-2.22727,5.20508-4.71885,2.48283-2.488,4.70927-5.21573,2.22273,2.72349,4.70922,5.21573,2.48289,2.4879,5.20508,4.71885-2.71794,2.22735-5.20508,4.7189Q38.57618,35.28023,36.34946,38.00805Z"/><path class="cls-2" d="M36.34946,148.86115q-2.22282-2.72349-4.70927-5.21573-2.48291-2.48765-5.20508-4.7189,2.71793-2.22728,5.20508-4.71885,2.48283-2.488,4.70927-5.21572,2.22273,2.72348,4.70922,5.21572,2.48289,2.4879,5.20508,4.71885-2.71794,2.22735-5.20508,4.7189Q38.57618,146.13332,36.34946,148.86115Z"/><path class="cls-2" d="M78.65059,38.00805q-2.2228-2.72347-4.70927-5.21572-2.48291-2.48766-5.20508-4.7189,2.71793-2.22727,5.20508-4.71885,2.48283-2.488,4.70927-5.21573,2.22273,2.72349,4.70922,5.21573,2.48289,2.4879,5.20508,4.71885-2.71793,2.22735-5.20508,4.7189Q80.87731,35.28023,78.65059,38.00805Z"/><path class="cls-2" d="M78.65059,148.86115q-2.2228-2.72349-4.70927-5.21573-2.48291-2.48765-5.20508-4.7189,2.71793-2.22728,5.20508-4.71885,2.48283-2.488,4.70927-5.21572,2.22273,2.72348,4.70922,5.21572,2.48289,2.4879,5.20508,4.71885-2.71793,2.22735-5.20508,4.7189Q80.87731,146.13332,78.65059,148.86115Z"/></g></svg>