<svg xmlns="http://www.w3.org/2000/svg" viewBox="0 0 115 167"><defs><style>.cls-1{fill:#fff;}</style></defs><title>card-clubs-5</title><g id="artwork"><rect class="cls-1" width="115" height="167" rx="8"/><path d="M10.63591,24.24294l-.69839-.14746.19106-1.29357a21.85121,21.85121,0,0,0,4.10257.467,3.39048,3.39048,0,0,0,2.485-.84729,3.24726,3.24726,0,0,0,.85718-2.41639A2.77509,2.77509,0,0,0,16.822,17.832a3.23084,3.23084,0,0,0-2.21007-.66748,6.5641,6.5641,0,0,0-1.53362.2018,7.57008,7.57008,0,0,0-1.34257.43463l-.44408.21215L10.16989,17.801l.38082-7.26985h8.14317v1.48372h-6.789l-.38082,4.55724a6.89839,6.89839,0,0,1,3.27767-.86927q4.44207,0,4.44208,4.133a4.99819,4.99819,0,0,1-1.21606,3.61293,4.58067,4.58067,0,0,1-3.45839,1.26123A18.28676,18.28676,0,0,1,10.63591,24.24294Z"/><path d="M21.43021,39.4904a2.94332,2.94332,0,0,0-2.90339-2.1709A2.73373,2.73373,0,0,0,17.24928,37.7c-.20655.12342-.5948.364-.773.06089-.16133-.27452.13316-.53065.3094-.69984a2.9285,2.9285,0,0,0,.84295-1.57112A3.08149,3.08149,0,0,0,16.243,32.36825a3.218,3.218,0,0,0-3.43131,0,3.08147,3.08147,0,0,0-1.38563,3.12163A2.92853,2.92853,0,0,0,12.269,37.061c.17626.16919.47073.42532.30942.69984-.17819.3031-.56644.06253-.773-.06089a2.73366,2.73366,0,0,0-1.27754-.38045,2.94333,2.94333,0,0,0-2.90339,2.1709,3.18483,3.18483,0,0,0,1.4932,3.5655,3.2261,3.2261,0,0,0,4.72371-1.99155h.26275a3.55456,3.55456,0,0,1-.52553,2.62855,3.50031,3.50031,0,0,1-.94855.95057v.47543h3.79454v-.47543a3.50077,3.50077,0,0,1-.94856-.95057,3.5546,3.5546,0,0,1-.52552-2.62855h.26277A3.22607,3.22607,0,0,0,19.937,43.0559,3.18482,3.18482,0,0,0,21.43021,39.4904Z"/><path d="M104.36627,142.75576l.6971.14876-.18976,1.29228a21.9463,21.9463,0,0,0-4.10386-.46569,3.3892,3.3892,0,0,0-2.485.84729,3.24983,3.24983,0,0,0-.85588,2.41639,2.77818,2.77818,0,0,0,.75,2.1719,3.23453,3.23453,0,0,0,2.21136.66748,6.62621,6.62621,0,0,0,1.53233-.20051,7.55242,7.55242,0,0,0,1.34385-.43463l.44408-.21215,1.12053.21215-.38083,7.26985H96.307v-1.485h6.789l.38211-4.55594a6.907,6.907,0,0,1-3.27895.86927q-4.44209,0-4.44208-4.13295a4.99451,4.99451,0,0,1,1.21734-3.61293,4.57824,4.57824,0,0,1,3.45711-1.26252A18.3709,18.3709,0,0,1,104.36627,142.75576Z"/><path d="M93.56979,127.48683a2.94332,2.94332,0,0,0,2.90339,2.1709,2.73385,2.73385,0,0,0,1.27754-.38045c.20655-.12342.5948-.364.773-.06089.16133.27452-.13316.53065-.3094.69984a2.9285,2.9285,0,0,0-.843,1.57112A3.0815,3.0815,0,0,0,98.757,134.609a3.218,3.218,0,0,0,3.43131,0,3.08148,3.08148,0,0,0,1.38563-3.12163,2.92853,2.92853,0,0,0-.84293-1.57112c-.17626-.16919-.47073-.42532-.30942-.69984.17819-.3031.56644-.06253.773.06089a2.73378,2.73378,0,0,0,1.27754.38045,2.94333,2.94333,0,0,0,2.90339-2.1709,3.18483,3.18483,0,0,0-1.4932-3.5655,3.22611,3.22611,0,0,0-4.72371,1.99154h-.26275a3.55454,3.55454,0,0,1,.52553-2.62854,3.50049,3.50049,0,0,1,.94855-.95058v-.47542H98.57536v.47542a3.501,3.501,0,0,1,.94856.95058,3.55459,3.55459,0,0,1,.52552,2.62854h-.26277a3.22608,3.22608,0,0,0-4.72369-1.99154A3.18482,3.18482,0,0,0,93.56979,127.48683Z"/><path d="M67.85426,84.99185a4.415,4.415,0,0,0-4.35508-3.25635,4.10088,4.10088,0,0,0-1.91631.57067c-.30982.18514-.8922.546-1.15946.09135-.242-.41179.19975-.796.46411-1.04976a4.39288,4.39288,0,0,0,1.26442-2.35668,4.62223,4.62223,0,0,0-2.07845-4.68245,4.827,4.827,0,0,0-5.147,0,4.62219,4.62219,0,0,0-2.07844,4.68245,4.39276,4.39276,0,0,0,1.26439,2.35668c.26439.25378.7061.638.46414,1.04976-.26729.45464-.84967.09379-1.15949-.09135a4.10078,4.10078,0,0,0-1.91632-.57067,4.415,4.415,0,0,0-4.35507,3.25635,4.77723,4.77723,0,0,0,2.23979,5.34826,4.83916,4.83916,0,0,0,7.08556-2.98732h.39412a5.33181,5.33181,0,0,1-.78828,3.94282,5.25079,5.25079,0,0,1-1.42283,1.42586v.71313h5.69181v-.71313a5.25152,5.25152,0,0,1-1.42284-1.42586,5.33194,5.33194,0,0,1-.78828-3.94282h.39415a4.83912,4.83912,0,0,0,7.08553,2.98732A4.77721,4.77721,0,0,0,67.85426,84.99185Z"/><path d="M46.70369,29.46182a4.415,4.415,0,0,0-4.35507-3.25635,4.10084,4.10084,0,0,0-1.91631.57067c-.30982.18514-.8922.546-1.15947.09134-.242-.41178.19975-.796.46411-1.04976A4.39279,4.39279,0,0,0,41.00138,23.461a4.62224,4.62224,0,0,0-2.07845-4.68244,4.827,4.827,0,0,0-5.147,0A4.62217,4.62217,0,0,0,31.69752,23.461a4.39279,4.39279,0,0,0,1.26439,2.35668c.26439.25379.7061.638.46414,1.04976-.26729.45465-.84967.0938-1.15949-.09134a4.10077,4.10077,0,0,0-1.91631-.57067,4.415,4.415,0,0,0-4.35508,3.25635A4.77723,4.77723,0,0,0,28.235,34.81007a4.83914,4.83914,0,0,0,7.08556-2.98732h.39413a5.33188,5.33188,0,0,1-.78828,3.94282,5.25068,5.25068,0,0,1-1.42284,1.42586v.71314h5.69181v-.71314a5.25124,5.25124,0,0,1-1.42284-1.42586,5.332,5.332,0,0,1-.78828-3.94282h.39415a4.83911,4.83911,0,0,0,7.08554,2.98732A4.77721,4.77721,0,0,0,46.70369,29.46182Z"/><path d="M25.99517,137.53818a4.415,4.415,0,0,0,4.35508,3.25635,4.10088,4.10088,0,0,0,1.91631-.57067c.30982-.18514.8922-.546,1.15946-.09134.242.41178-.19975.796-.46411,1.04976a4.39284,4.39284,0,0,0-1.26442,2.35668,4.62222,4.62222,0,0,0,2.07845,4.68244,4.827,4.827,0,0,0,5.147,0,4.6222,4.6222,0,0,0,2.07845-4.68244,4.39274,4.39274,0,0,0-1.2644-2.35668c-.26438-.25379-.70609-.638-.46413-1.04976.26729-.45465.84966-.0938,1.15949.09134a4.10071,4.10071,0,0,0,1.91631.57067,4.415,4.415,0,0,0,4.35508-3.25635,4.77722,4.77722,0,0,0-2.2398-5.34825,4.83914,4.83914,0,0,0-7.08556,2.98732h-.39412a5.33188,5.33188,0,0,1,.78828-3.94282,5.25068,5.25068,0,0,1,1.42284-1.42586v-.71314H33.50353v.71314a5.25139,5.25139,0,0,1,1.42284,1.42586,5.332,5.332,0,0,1,.78828,3.94282h-.39416a4.8391,4.8391,0,0,0-7.08553-2.98732A4.77722,4.77722,0,0,0,25.99517,137.53818Z"/><path d="M89.00483,29.46182a4.415,4.415,0,0,0-4.35508-3.25635,4.10088,4.10088,0,0,0-1.91631.57067c-.30982.18514-.8922.546-1.15946.09134-.242-.41178.19975-.796.46411-1.04976A4.39284,4.39284,0,0,0,83.30251,23.461a4.62222,4.62222,0,0,0-2.07845-4.68244,4.827,4.827,0,0,0-5.147,0A4.6222,4.6222,0,0,0,73.99865,23.461a4.39274,4.39274,0,0,0,1.2644,2.35668c.26438.25379.70609.638.46413,1.04976-.26729.45465-.84966.0938-1.15949-.09134a4.10071,4.10071,0,0,0-1.91631-.57067,4.415,4.415,0,0,0-4.35508,3.25635,4.77722,4.77722,0,0,0,2.2398,5.34825,4.83914,4.83914,0,0,0,7.08556-2.98732h.39412a5.33188,5.33188,0,0,1-.78828,3.94282,5.25068,5.25068,0,0,1-1.42284,1.42586v.71314h5.69181v-.71314a5.25139,5.25139,0,0,1-1.42284-1.42586,5.332,5.332,0,0,1-.78828-3.94282h.39416A4.8391,4.8391,0,0,0,86.765,34.81007,4.77722,4.77722,0,0,0,89.00483,29.46182Z"/><path d="M68.29631,137.53818a4.415,4.415,0,0,0,4.35507,3.25635,4.10084,4.10084,0,0,0,1.91631-.57067c.30982-.18514.8922-.546,1.15947-.09134.242.41178-.19975.796-.46411,1.04976a4.39279,4.39279,0,0,0-1.26443,2.35668,4.62224,4.62224,0,0,0,2.07845,4.68244,4.827,4.827,0,0,0,5.147,0,4.62217,4.62217,0,0,0,2.07845-4.68244,4.39279,4.39279,0,0,0-1.26439-2.35668c-.26439-.25379-.7061-.638-.46414-1.04976.26729-.45465.84967-.0938,1.15949.09134a4.10077,4.10077,0,0,0,1.91631.57067,4.415,4.415,0,0,0,4.35508-3.25635,4.77723,4.77723,0,0,0-2.23979-5.34825,4.83914,4.83914,0,0,0-7.08556,2.98732h-.39413a5.33188,5.33188,0,0,1,.78828-3.94282,5.25068,5.25068,0,0,1,1.42284-1.42586v-.71314H75.80466v.71314a5.25124,5.25124,0,0,1,1.42284,1.42586,5.332,5.332,0,0,1,.78828,3.94282h-.39415a4.83911,4.83911,0,0,0-7.08554-2.98732A4.77721,4.77721,0,0,0,68.29631,137.53818Z"/></g></svg>