<svg xmlns="http://www.w3.org/2000/svg" viewBox="0 0 87 127"><defs><style>.cls-1{fill:#fff;}.cls-2{fill:#ff3b5c;}</style></defs><title>card-diamonds-7</title><g id="artwork"><rect class="cls-1" width="87" height="127" rx="6"/><path class="cls-2" d="M9.07192,18.67173,13.0565,9.83681V9.41993H7.74372V8.29844h6.5609V9.91706L10.24,19.04066Z"/><path class="cls-2" d="M77.86855,108.32827,73.884,117.16319v.41688h5.31278v1.12149h-6.5609v-1.61862l4.06467-9.1236Z"/><path class="cls-2" d="M10.99239,34.49193q-1.12107-1.3736-2.37511-2.63055-1.25224-1.25463-2.62517-2.38,1.37078-1.12332,2.62517-2.37994,1.25222-1.25481,2.37511-2.63055,1.121,1.37359,2.37509,2.63055,1.25225,1.25477,2.62517,2.37994-1.37079,1.12335-2.62517,2.38Q12.11543,33.11616,10.99239,34.49193Z"/><path class="cls-2" d="M76.00763,102.47269q-1.12107-1.37358-2.37511-2.63054-1.25224-1.25465-2.62517-2.38,1.37077-1.12332,2.62517-2.37994,1.25222-1.25481,2.37511-2.63054,1.121,1.37358,2.37509,2.63054Q79.635,96.337,81.00789,97.46218q-1.37079,1.12336-2.62517,2.38Q77.13067,101.09692,76.00763,102.47269Z"/><path class="cls-2" d="M27.49916,29.08435q-1.68161-2.06037-3.56267-3.94581-1.87837-1.882-3.93775-3.56995,2.05615-1.685,3.93775-3.56991,1.87832-1.88221,3.56267-3.94581,1.68153,2.06037,3.56262,3.94581,1.87838,1.88216,3.93776,3.56991-2.05617,1.685-3.93776,3.56995Q29.18372,27.0207,27.49916,29.08435Z"/><path class="cls-2" d="M27.49916,112.94713q-1.68161-2.06037-3.56267-3.94581-1.87837-1.882-3.93775-3.57,2.05615-1.685,3.93775-3.56991,1.87832-1.88221,3.56267-3.94581,1.68153,2.06037,3.56262,3.94581,1.87838,1.88214,3.93776,3.56991-2.05617,1.685-3.93776,3.57Q29.18372,110.88348,27.49916,112.94713Z"/><path class="cls-2" d="M59.50088,29.08435q-1.68161-2.06037-3.56266-3.94581-1.87838-1.882-3.93776-3.56995,2.05617-1.685,3.93776-3.56991,1.8783-1.88221,3.56266-3.94581,1.68154,2.06037,3.56263,3.94581,1.87836,1.88216,3.93775,3.56991-2.05617,1.685-3.93775,3.56995Q61.18545,27.0207,59.50088,29.08435Z"/><path class="cls-2" d="M59.50088,112.94713q-1.68161-2.06037-3.56266-3.94581-1.87838-1.882-3.93776-3.57,2.05617-1.685,3.93776-3.56991,1.8783-1.88221,3.56266-3.94581,1.68154,2.06037,3.56263,3.94581,1.87836,1.88214,3.93775,3.56991-2.05617,1.685-3.93775,3.57Q61.18545,110.88348,59.50088,112.94713Z"/><path class="cls-2" d="M27.49916,71.01574q-1.68161-2.06037-3.56267-3.94581Q22.05812,65.188,19.99874,63.5q2.05615-1.685,3.93775-3.56991,1.87832-1.88222,3.56267-3.94581,1.68153,2.06037,3.56262,3.94581Q32.94016,61.81221,34.99954,63.5q-2.05617,1.685-3.93776,3.56995Q29.18372,68.95209,27.49916,71.01574Z"/><path class="cls-2" d="M59.50088,71.01574q-1.68161-2.06037-3.56266-3.94581Q54.05985,65.188,52.00046,63.5q2.05617-1.685,3.93776-3.56991,1.8783-1.88222,3.56266-3.94581,1.68154,2.06037,3.56263,3.94581Q64.94187,61.81221,67.00126,63.5q-2.05617,1.685-3.93775,3.56995Q61.18545,68.95209,59.50088,71.01574Z"/><path class="cls-2" d="M43.5,49.97165q-1.68151-2.06037-3.56247-3.94581-1.87828-1.882-3.93755-3.57,2.056-1.685,3.93755-3.56991,1.8782-1.88222,3.56247-3.94582,1.68145,2.06039,3.56243,3.94582Q48.94072,40.76812,51,42.45589q-2.05607,1.685-3.93755,3.57Q45.1845,47.908,43.5,49.97165Z"/></g></svg>