<svg xmlns="http://www.w3.org/2000/svg" viewBox="0 0 87 127"><defs><style>.cls-1{fill:#fff;}.cls-2{fill:#ff3b5c;}</style></defs><title>card-hearts-7</title><g id="artwork"><rect class="cls-1" width="87" height="127" rx="6"/><path class="cls-2" d="M9.08,18.671,13.06463,9.837V9.42014H7.75185V8.29767h6.56089v1.6196L10.24807,19.0399Z"/><path class="cls-2" d="M11.00079,34.556a19.02835,19.02835,0,0,1,1.76605-2.35956c1.22911-1.401,2.82177-2.82022,2.87927-4.83038a2.832,2.832,0,0,0-1.181-2.47944,2.10268,2.10268,0,0,0-2.50041.12611,2.154,2.154,0,0,0-.72843,1.28485c-.0222.1337-.05571.35392-.23548.35392s-.21328-.22022-.23546-.35392a2.154,2.154,0,0,0-.72845-1.28485,2.10267,2.10267,0,0,0-2.5004-.12611,2.832,2.832,0,0,0-1.181,2.47944c.05748,2.01016,1.65016,3.42935,2.87925,4.83038A19.02636,19.02636,0,0,1,11.00079,34.556Z"/><path class="cls-2" d="M77.92063,108.32849,73.937,117.16242v.41689h5.3118v1.12344H72.6889v-1.6196l4.0637-9.1236Z"/><path class="cls-2" d="M75.99921,92.57767a19.02835,19.02835,0,0,1-1.76605,2.35956c-1.22911,1.401-2.82177,2.82022-2.87927,4.83038a2.832,2.832,0,0,0,1.181,2.47944,2.10268,2.10268,0,0,0,2.50041-.12611,2.154,2.154,0,0,0,.72843-1.28485c.0222-.1337.05571-.35392.23548-.35392s.21328.22022.23546.35392a2.154,2.154,0,0,0,.72845,1.28485,2.10267,2.10267,0,0,0,2.5004.12611,2.832,2.832,0,0,0,1.181-2.47944c-.05748-2.01016-1.65016-3.42935-2.87925-4.83038A19.02636,19.02636,0,0,1,75.99921,92.57767Z"/><path class="cls-2" d="M27.49913,28.86219a28.54189,28.54189,0,0,1,2.64907-3.53933c1.84366-2.10155,4.23265-4.23033,4.3189-7.24557a4.24792,4.24792,0,0,0-1.77149-3.71916,3.154,3.154,0,0,0-3.75062.18917,3.231,3.231,0,0,0-1.09265,1.92727c-.03329.20055-.08356.53088-.35321.53088s-.31993-.33033-.3532-.53088a3.231,3.231,0,0,0-1.09266-1.92727,3.154,3.154,0,0,0-3.75061-.18917,4.248,4.248,0,0,0-1.77149,3.71916c.08623,3.01524,2.47524,5.144,4.31888,7.24557A28.54,28.54,0,0,1,27.49913,28.86219Z"/><path class="cls-2" d="M27.49915,98.13781a28.54388,28.54388,0,0,1-2.64907,3.53933c-1.84367,2.10155-4.23266,4.23033-4.31891,7.24557a4.248,4.248,0,0,0,1.77149,3.71916,3.154,3.154,0,0,0,3.75062-.18917,3.231,3.231,0,0,0,1.09265-1.92727c.03329-.20055.08356-.53088.35322-.53088s.31992.33033.35319.53088A3.231,3.231,0,0,0,28.945,112.4527a3.154,3.154,0,0,0,3.7506.18917,4.24792,4.24792,0,0,0,1.77149-3.71916c-.08622-3.01524-2.47524-5.144-4.31888-7.24557A28.53989,28.53989,0,0,1,27.49915,98.13781Z"/><path class="cls-2" d="M59.50085,28.86219a28.54388,28.54388,0,0,1,2.64907-3.53933c1.84367-2.10155,4.23266-4.23033,4.31891-7.24557a4.248,4.248,0,0,0-1.77149-3.71916,3.154,3.154,0,0,0-3.75062.18917,3.231,3.231,0,0,0-1.09265,1.92727c-.03329.20055-.08356.53088-.35322.53088s-.31992-.33033-.35319-.53088A3.231,3.231,0,0,0,58.055,14.5473a3.154,3.154,0,0,0-3.7506-.18917,4.24792,4.24792,0,0,0-1.77149,3.71916c.08622,3.01524,2.47524,5.144,4.31888,7.24557A28.53989,28.53989,0,0,1,59.50085,28.86219Z"/><path class="cls-2" d="M59.50087,98.13781a28.54189,28.54189,0,0,1-2.64907,3.53933c-1.84366,2.10155-4.23265,4.23033-4.3189,7.24557a4.24792,4.24792,0,0,0,1.77149,3.71916,3.154,3.154,0,0,0,3.75062-.18917,3.231,3.231,0,0,0,1.09265-1.92727c.03329-.20055.08356-.53088.35321-.53088s.31993.33033.3532.53088a3.231,3.231,0,0,0,1.09266,1.92727,3.154,3.154,0,0,0,3.75061.18917,4.248,4.248,0,0,0,1.77149-3.71916c-.08623-3.01524-2.47524-5.144-4.31888-7.24557A28.54,28.54,0,0,1,59.50087,98.13781Z"/><path class="cls-2" d="M27.49913,71.01574a28.54114,28.54114,0,0,1,2.64907-3.53933c1.84366-2.10155,4.23265-4.23033,4.3189-7.24558a4.24792,4.24792,0,0,0-1.77149-3.71915,3.154,3.154,0,0,0-3.75062.18916,3.231,3.231,0,0,0-1.09265,1.92727c-.03329.20055-.08356.53089-.35321.53089s-.31993-.33034-.3532-.53089a3.231,3.231,0,0,0-1.09266-1.92727,3.154,3.154,0,0,0-3.75061-.18916,4.248,4.248,0,0,0-1.77149,3.71915c.08623,3.01525,2.47524,5.144,4.31888,7.24558A28.53923,28.53923,0,0,1,27.49913,71.01574Z"/><path class="cls-2" d="M59.50085,71.01574a28.54313,28.54313,0,0,1,2.64907-3.53933c1.84367-2.10155,4.23266-4.23033,4.31891-7.24558a4.248,4.248,0,0,0-1.77149-3.71915,3.154,3.154,0,0,0-3.75062.18916,3.231,3.231,0,0,0-1.09265,1.92727c-.03329.20055-.08356.53089-.35322.53089s-.31992-.33034-.35319-.53089A3.231,3.231,0,0,0,58.055,56.70084a3.154,3.154,0,0,0-3.7506-.18916,4.24792,4.24792,0,0,0-1.77149,3.71915c.08622,3.01525,2.47524,5.144,4.31888,7.24558A28.53915,28.53915,0,0,1,59.50085,71.01574Z"/><path class="cls-2" d="M43.5,49.97165a28.54106,28.54106,0,0,1,2.64893-3.53933c1.84357-2.10155,4.23243-4.23034,4.31868-7.24558a4.24805,4.24805,0,0,0-1.7714-3.71915,3.15372,3.15372,0,0,0-3.75042.18916A3.231,3.231,0,0,0,43.85319,37.584c-.03329.20055-.08356.53089-.3532.53089s-.31991-.33034-.35318-.53089a3.231,3.231,0,0,0-1.0926-1.92727,3.1537,3.1537,0,0,0-3.75041-.18916,4.24805,4.24805,0,0,0-1.7714,3.71915c.08623,3.01524,2.47511,5.144,4.31866,7.24558A28.54006,28.54006,0,0,1,43.5,49.97165Z"/></g></svg>