<svg xmlns="http://www.w3.org/2000/svg" viewBox="0 0 87 127"><defs><style>.cls-1{fill:#fff;}.cls-2{fill:#ff3b5c;}</style></defs><title>card-hearts-10</title><g id="artwork"><rect class="cls-1" x="0.00232" width="86.99536" height="127" rx="6"/><path class="cls-2" d="M7.43328,9.67648,4.71355,11.47223,4.153,10.54255,7.51336,8.29762H8.6657V18.88033H7.43328Z"/><path class="cls-2" d="M12.92156,18.51139a3.20351,3.20351,0,0,1-1.27246-1.73214,9.84273,9.84273,0,0,1-.42383-3.19028,9.84913,9.84913,0,0,1,.42383-3.19125,3.2402,3.2402,0,0,1,1.27246-1.739,3.97075,3.97075,0,0,1,2.16016-.53725,3.37784,3.37784,0,0,1,2.89551,1.26632,7.17456,7.17456,0,0,1,.94433,4.20118,9.84273,9.84273,0,0,1-.42383,3.19028,3.20351,3.20351,0,0,1-1.27246,1.73214,3.98737,3.98737,0,0,1-2.14355.52845A4.02251,4.02251,0,0,1,12.92156,18.51139Zm3.63184-.9698a2.45567,2.45567,0,0,0,.832-1.36321,9.80071,9.80071,0,0,0,.27148-2.58941,9.80076,9.80076,0,0,0-.27148-2.58941,2.45564,2.45564,0,0,0-.832-1.3632,2.44191,2.44191,0,0,0-1.47168-.40906A2.43986,2.43986,0,0,0,13.61,9.63636a2.44483,2.44483,0,0,0-.832,1.3632,9.79471,9.79471,0,0,0-.27246,2.58941,9.79466,9.79466,0,0,0,.27246,2.58941,2.44486,2.44486,0,0,0,.832,1.36321,2.43976,2.43976,0,0,0,1.47168.40808A2.4418,2.4418,0,0,0,16.5534,17.54159Z"/><path class="cls-2" d="M11.00252,34.55582a19.02855,19.02855,0,0,1,1.766-2.35955c1.229-1.401,2.82162-2.82022,2.87911-4.83038a2.832,2.832,0,0,0-1.18093-2.47944,2.10249,2.10249,0,0,0-2.50028.12611,2.154,2.154,0,0,0-.72839,1.28485c-.02219.1337-.0557.35392-.23547.35392s-.21327-.22022-.23545-.35392a2.154,2.154,0,0,0-.7284-1.28485,2.10247,2.10247,0,0,0-2.50027-.12611,2.832,2.832,0,0,0-1.18093,2.47944c.05748,2.01016,1.65007,3.42935,2.8791,4.83038A19.02548,19.02548,0,0,1,11.00252,34.55582Z"/><path class="cls-2" d="M79.56805,117.32286l2.71972-1.79478.56055.92968L79.488,118.7027H78.33562V108.12h1.23243Z"/><path class="cls-2" d="M74.07976,108.48892a3.19731,3.19731,0,0,1,1.27247,1.73117,12.22288,12.22288,0,0,1,0,6.38153,3.24286,3.24286,0,0,1-1.27247,1.74,3.97918,3.97918,0,0,1-2.16015.53726,3.3759,3.3759,0,0,1-2.89551-1.2673,7.171,7.171,0,0,1-.94434-4.20021,9.84941,9.84941,0,0,1,.42383-3.19125,3.19729,3.19729,0,0,1,1.27246-1.73117,4.63774,4.63774,0,0,1,4.30371,0Zm-3.63183.96981a2.452,2.452,0,0,0-.832,1.3632,12.48435,12.48435,0,0,0,0,5.17882,2.35127,2.35127,0,0,0,4.60742,0,12.44087,12.44087,0,0,0,0-5.17882,2.50956,2.50956,0,0,0-3.77539-1.3632Z"/><path class="cls-2" d="M75.99748,92.57753a19.0278,19.0278,0,0,1-1.766,2.35955c-1.229,1.401-2.82162,2.82023-2.87911,4.83039a2.832,2.832,0,0,0,1.18093,2.47943,2.10249,2.10249,0,0,0,2.50028-.12611A2.154,2.154,0,0,0,75.762,100.836c.02219-.1337.0557-.35393.23547-.35393s.21327.22023.23545.35393a2.154,2.154,0,0,0,.7284,1.28484,2.10247,2.10247,0,0,0,2.50027.12611,2.832,2.832,0,0,0,1.18093-2.47943c-.05748-2.01016-1.65007-3.42935-2.8791-4.83039A19.02474,19.02474,0,0,1,75.99748,92.57753Z"/><path class="cls-2" d="M27.5,28.86219a28.5418,28.5418,0,0,1,2.64893-3.53933c1.84357-2.10155,4.23243-4.23033,4.31868-7.24557a4.24806,4.24806,0,0,0-1.7714-3.71916,3.15373,3.15373,0,0,0-3.75042.18917,3.231,3.231,0,0,0-1.09259,1.92727c-.03329.20055-.08356.53088-.3532.53088s-.31991-.33033-.35318-.53088a3.231,3.231,0,0,0-1.0926-1.92727,3.15372,3.15372,0,0,0-3.75041-.18917,4.24806,4.24806,0,0,0-1.7714,3.71916c.08623,3.01524,2.47511,5.144,4.31866,7.24557A28.54081,28.54081,0,0,1,27.5,28.86219Z"/><path class="cls-2" d="M59.5,28.86219a28.5418,28.5418,0,0,1,2.64893-3.53933c1.84357-2.10155,4.23243-4.23033,4.31868-7.24557a4.24806,4.24806,0,0,0-1.7714-3.71916,3.15373,3.15373,0,0,0-3.75042.18917,3.231,3.231,0,0,0-1.09259,1.92727c-.03329.20055-.08356.53088-.3532.53088s-.31991-.33033-.35318-.53088a3.231,3.231,0,0,0-1.0926-1.92727,3.15372,3.15372,0,0,0-3.75041-.18917,4.24806,4.24806,0,0,0-1.7714,3.71916c.08623,3.01524,2.47511,5.144,4.31866,7.24557A28.54081,28.54081,0,0,1,59.5,28.86219Z"/><path class="cls-2" d="M27.5,98.13781a28.5418,28.5418,0,0,1-2.64893,3.53933c-1.84357,2.10155-4.23243,4.23033-4.31868,7.24557a4.24806,4.24806,0,0,0,1.7714,3.71916,3.15373,3.15373,0,0,0,3.75042-.18917,3.231,3.231,0,0,0,1.09259-1.92727c.03329-.20055.08356-.53088.3532-.53088s.31991.33033.35318.53088a3.231,3.231,0,0,0,1.0926,1.92727,3.15372,3.15372,0,0,0,3.75041.18917,4.24806,4.24806,0,0,0,1.7714-3.71916c-.08623-3.01524-2.47511-5.144-4.31866-7.24557A28.54081,28.54081,0,0,1,27.5,98.13781Z"/><path class="cls-2" d="M59.5,98.13781a28.5418,28.5418,0,0,1-2.64893,3.53933c-1.84357,2.10155-4.23243,4.23033-4.31868,7.24557a4.24806,4.24806,0,0,0,1.7714,3.71916,3.15373,3.15373,0,0,0,3.75042-.18917,3.231,3.231,0,0,0,1.09259-1.92727c.03329-.20055.08356-.53088.3532-.53088s.31991.33033.35318.53088a3.231,3.231,0,0,0,1.0926,1.92727,3.15372,3.15372,0,0,0,3.75041.18917,4.24806,4.24806,0,0,0,1.7714-3.71916c-.08623-3.01524-2.47511-5.144-4.31866-7.24557A28.54081,28.54081,0,0,1,59.5,98.13781Z"/><path class="cls-2" d="M27.5,56.96456a28.54106,28.54106,0,0,1,2.64893-3.53933c1.84357-2.10155,4.23243-4.23034,4.31868-7.24558a4.24805,4.24805,0,0,0-1.7714-3.71915,3.15372,3.15372,0,0,0-3.75042.18916,3.231,3.231,0,0,0-1.09259,1.92727c-.03329.20055-.08356.53089-.3532.53089s-.31991-.33034-.35318-.53089a3.231,3.231,0,0,0-1.0926-1.92727,3.1537,3.1537,0,0,0-3.75041-.18916,4.24805,4.24805,0,0,0-1.7714,3.71915c.08623,3.01524,2.47511,5.144,4.31866,7.24558A28.54006,28.54006,0,0,1,27.5,56.96456Z"/><path class="cls-2" d="M59.5,56.96456a28.54106,28.54106,0,0,1,2.64893-3.53933c1.84357-2.10155,4.23243-4.23034,4.31868-7.24558a4.24805,4.24805,0,0,0-1.7714-3.71915,3.15372,3.15372,0,0,0-3.75042.18916,3.231,3.231,0,0,0-1.09259,1.92727c-.03329.20055-.08356.53089-.3532.53089s-.31991-.33034-.35318-.53089a3.231,3.231,0,0,0-1.0926-1.92727,3.1537,3.1537,0,0,0-3.75041-.18916,4.24805,4.24805,0,0,0-1.7714,3.71915c.08623,3.01524,2.47511,5.144,4.31866,7.24558A28.54006,28.54006,0,0,1,59.5,56.96456Z"/><path class="cls-2" d="M59.5,70.03544a28.54106,28.54106,0,0,1-2.64893,3.53933c-1.84357,2.10155-4.23243,4.23034-4.31868,7.24558a4.24805,4.24805,0,0,0,1.7714,3.71915,3.15372,3.15372,0,0,0,3.75042-.18916,3.231,3.231,0,0,0,1.09259-1.92727c.03329-.20055.08356-.53089.3532-.53089s.31991.33034.35318.53089a3.231,3.231,0,0,0,1.0926,1.92727,3.1537,3.1537,0,0,0,3.75041.18916,4.24805,4.24805,0,0,0,1.7714-3.71915c-.08623-3.01524-2.47511-5.144-4.31866-7.24558A28.54006,28.54006,0,0,1,59.5,70.03544Z"/><path class="cls-2" d="M27.5,70.03544a28.54106,28.54106,0,0,1-2.64893,3.53933c-1.84357,2.10155-4.23243,4.23034-4.31868,7.24558a4.24805,4.24805,0,0,0,1.7714,3.71915,3.15372,3.15372,0,0,0,3.75042-.18916,3.231,3.231,0,0,0,1.09259-1.92727c.03329-.20055.08356-.53089.3532-.53089s.31991.33034.35318.53089a3.231,3.231,0,0,0,1.0926,1.92727,3.1537,3.1537,0,0,0,3.75041.18916,4.24805,4.24805,0,0,0,1.7714-3.71915c-.08623-3.01524-2.47511-5.144-4.31866-7.24558A28.54006,28.54006,0,0,1,27.5,70.03544Z"/><path class="cls-2" d="M43.5,42.957a28.54106,28.54106,0,0,1,2.64893-3.53933c1.84357-2.10155,4.23243-4.23033,4.31868-7.24558a4.24805,4.24805,0,0,0-1.7714-3.71915,3.15373,3.15373,0,0,0-3.75042.18916,3.231,3.231,0,0,0-1.09259,1.92727c-.03329.20055-.08356.53089-.3532.53089s-.31991-.33034-.35318-.53089a3.231,3.231,0,0,0-1.0926-1.92727,3.15372,3.15372,0,0,0-3.75041-.18916A4.24805,4.24805,0,0,0,36.5324,32.172c.08623,3.01525,2.47511,5.144,4.31866,7.24558A28.54006,28.54006,0,0,1,43.5,42.957Z"/><path class="cls-2" d="M43.5,84.043a28.54106,28.54106,0,0,1-2.64893,3.53933c-1.84357,2.10155-4.23243,4.23033-4.31868,7.24558a4.24805,4.24805,0,0,0,1.7714,3.71915,3.15373,3.15373,0,0,0,3.75042-.18916,3.231,3.231,0,0,0,1.09259-1.92727c.03329-.20055.08356-.53089.3532-.53089s.31991.33034.35318.53089a3.231,3.231,0,0,0,1.0926,1.92727,3.15372,3.15372,0,0,0,3.75041.18916A4.24805,4.24805,0,0,0,50.4676,94.828c-.08623-3.01525-2.47511-5.144-4.31866-7.24558A28.54006,28.54006,0,0,1,43.5,84.043Z"/></g></svg>