<svg xmlns="http://www.w3.org/2000/svg" viewBox="0 0 87 127"><defs><style>.cls-1{fill:#fff;}</style></defs><title>card-clubs-8</title><g id="artwork"><rect class="cls-1" x="0.00232" width="86.99536" height="127" rx="6"/><path d="M7.02325,16.18642a2.94689,2.94689,0,0,1,.416-1.691,4.05439,4.05439,0,0,1,1.40821-1.14693,3.33958,3.33958,0,0,1-1.26368-1.0021,2.55576,2.55576,0,0,1-.38476-1.4826A2.32252,2.32252,0,0,1,8.20782,8.81159a4.71458,4.71458,0,0,1,2.752-.68992,4.82122,4.82122,0,0,1,2.80762.71341,2.34685,2.34685,0,0,1,1.01562,2.0453,2.48993,2.48993,0,0,1-.38379,1.49826,3.4372,3.4372,0,0,1-1.376.9698,3.72058,3.72058,0,0,1,1.46484,1.0432,2.59643,2.59643,0,0,1,.45508,1.61863q0,3.03124-3.95117,3.03076Q7.02227,19.041,7.02325,16.18642Zm6.60839-.30435a1.62234,1.62234,0,0,0-.44042-1.234,3.51809,3.51809,0,0,0-1.43165-.70558H10.07989a2.60616,2.60616,0,0,0-1.32032.72124A1.91784,1.91784,0,0,0,8.33575,15.979q0,1.93912,2.65625,1.93961Q13.63164,17.91856,13.63164,15.88207Zm-1.87207-3.01413a3.13984,3.13984,0,0,0,1.2959-.72124,1.55394,1.55394,0,0,0,.416-1.12246q0-1.78059-2.47949-1.7801-2.48145,0-2.48047,1.76346a1.67394,1.67394,0,0,0,.376,1.1391,2.77626,2.77626,0,0,0,1.19239.72124Z"/><path d="M16.21387,30.20638A2.22659,2.22659,0,0,0,14.01752,28.564a2.06817,2.06817,0,0,0-.96644.28782c-.15625.09338-.45.27537-.58474.04607-.122-.20768.10074-.40145.23406-.52944a2.21556,2.21556,0,0,0,.63767-1.18859,2.33125,2.33125,0,0,0-1.0482-2.36158,2.43424,2.43424,0,0,0-2.59572,0A2.33124,2.33124,0,0,0,8.64594,27.1799a2.21562,2.21562,0,0,0,.63766,1.18859c.13334.128.3561.32176.23408.52944-.1348.2293-.42851.04731-.58476-.04607a2.0681,2.0681,0,0,0-.96643-.28782,2.2266,2.2266,0,0,0-2.19636,1.64234A2.40943,2.40943,0,0,0,6.8997,32.90376a2.44044,2.44044,0,0,0,3.5734-1.50665h.19877a2.68923,2.68923,0,0,1-.39755,1.98855,2.64816,2.64816,0,0,1-.71757.71913v.35967h2.8705v-.35967a2.64858,2.64858,0,0,1-.71757-.71913,2.68927,2.68927,0,0,1-.39754-1.98855h.19878a2.44042,2.44042,0,0,0,3.57338,1.50665A2.40943,2.40943,0,0,0,16.21387,30.20638Z"/><path d="M79.97832,110.81431a2.94689,2.94689,0,0,1-.416,1.691,4.04518,4.04518,0,0,1-1.4082,1.14693,3.34372,3.34372,0,0,1,1.26464,1.0021,2.55578,2.55578,0,0,1,.38379,1.4826,2.324,2.324,0,0,1-1.00781,2.05215,4.71668,4.71668,0,0,1-2.752.68992,4.82257,4.82257,0,0,1-2.8086-.71341,2.34912,2.34912,0,0,1-1.01562-2.0453,2.49681,2.49681,0,0,1,.38379-1.49826,3.4444,3.4444,0,0,1,1.376-.9698,3.7091,3.7091,0,0,1-1.46386-1.0432,2.59657,2.59657,0,0,1-.45606-1.61863q0-3.03124,3.95215-3.03076Q79.97882,107.9597,79.97832,110.81431Zm-6.60742.30435a1.62192,1.62192,0,0,0,.43946,1.234,3.53116,3.53116,0,0,0,1.43164.70558h1.68066A2.60271,2.60271,0,0,0,78.242,112.337a1.91821,1.91821,0,0,0,.4248-1.31525q0-1.93913-2.65625-1.93961Q73.37091,109.08217,73.3709,111.11866Zm1.8711,3.01413a3.13554,3.13554,0,0,0-1.29493.72123,1.554,1.554,0,0,0-.416,1.12247q0,1.78059,2.47949,1.7801,2.48,0,2.47949-1.76346a1.67838,1.67838,0,0,0-.375-1.13911,2.78228,2.78228,0,0,0-1.19238-.72123Z"/><path d="M70.78613,96.77759a2.22659,2.22659,0,0,0,2.19635,1.64234,2.06817,2.06817,0,0,0,.96644-.28782c.15625-.09338.45-.27537.58474-.04607.122.20768-.10074.40145-.23406.52945a2.21554,2.21554,0,0,0-.63767,1.18858,2.33125,2.33125,0,0,0,1.0482,2.36158,2.43424,2.43424,0,0,0,2.59572,0,2.33124,2.33124,0,0,0,1.04821-2.36158,2.21559,2.21559,0,0,0-.63766-1.18858c-.13334-.128-.3561-.32177-.23408-.52945.1348-.2293.42851-.04731.58476.04607a2.0681,2.0681,0,0,0,.96643.28782,2.2266,2.2266,0,0,0,2.19636-1.64234,2.40943,2.40943,0,0,0-1.12957-2.69738,2.44046,2.44046,0,0,0-3.5734,1.50665h-.19877a2.68924,2.68924,0,0,1,.39755-1.98855,2.64816,2.64816,0,0,1,.71757-.71913v-.35967h-2.8705v.35967a2.64858,2.64858,0,0,1,.71757.71913,2.68928,2.68928,0,0,1,.39754,1.98855h-.19878a2.44043,2.44043,0,0,0-3.57338-1.50665A2.40943,2.40943,0,0,0,70.78613,96.77759Z"/><path d="M35.3328,22.61894a3.3399,3.3399,0,0,0-3.29454-2.4635,3.102,3.102,0,0,0-1.44965.43173c-.23438.14006-.67493.413-.87712.0691-.18306-.31152.15111-.60217.3511-.79417a3.32335,3.32335,0,0,0,.95651-1.78288,3.4969,3.4969,0,0,0-1.57231-3.54237,3.65139,3.65139,0,0,0-3.89358,0,3.49688,3.49688,0,0,0-1.57231,3.54237,3.32326,3.32326,0,0,0,.95649,1.78288c.2.192.53415.48265.35111.79417-.2022.34395-.64275.071-.87713-.0691a3.102,3.102,0,0,0-1.44965-.43173,3.33989,3.33989,0,0,0-3.29454,2.4635A3.61415,3.61415,0,0,0,21.36154,26.665a3.66068,3.66068,0,0,0,5.3601-2.26h.29815a4.03387,4.03387,0,0,1-.59632,2.98283,3.97221,3.97221,0,0,1-1.07635,1.07869v.5395h4.30575v-.5395a3.97267,3.97267,0,0,1-1.07636-1.07869,4.034,4.034,0,0,1-.59632-2.98283h.29817a3.66065,3.66065,0,0,0,5.36008,2.26A3.61415,3.61415,0,0,0,35.3328,22.61894Z"/><path d="M19.66718,104.38106a3.3399,3.3399,0,0,0,3.29454,2.4635,3.102,3.102,0,0,0,1.44965-.43173c.23438-.14006.67493-.413.87712-.0691.18306.31152-.15111.60217-.3511.79417a3.32335,3.32335,0,0,0-.95651,1.78288,3.4969,3.4969,0,0,0,1.57231,3.54237,3.65139,3.65139,0,0,0,3.89358,0,3.49688,3.49688,0,0,0,1.57231-3.54237,3.32332,3.32332,0,0,0-.95649-1.78288c-.2-.192-.53415-.48265-.35111-.79417.2022-.34395.64275-.071.87713.0691a3.102,3.102,0,0,0,1.44965.43173,3.33989,3.33989,0,0,0,3.29454-2.4635,3.61415,3.61415,0,0,0-1.69436-4.04607,3.66068,3.66068,0,0,0-5.3601,2.26h-.29815a4.03387,4.03387,0,0,1,.59632-2.98283,3.97221,3.97221,0,0,1,1.07635-1.07869v-.5395H25.34711v.5395a3.97267,3.97267,0,0,1,1.07636,1.07869,4.034,4.034,0,0,1,.59632,2.98283h-.29817a3.66065,3.66065,0,0,0-5.36008-2.26A3.61415,3.61415,0,0,0,19.66718,104.38106Z"/><path d="M67.33282,22.61894a3.3399,3.3399,0,0,0-3.29454-2.4635,3.102,3.102,0,0,0-1.44965.43173c-.23438.14006-.67493.413-.87712.0691-.18306-.31152.15111-.60217.3511-.79417a3.32335,3.32335,0,0,0,.95651-1.78288,3.4969,3.4969,0,0,0-1.57231-3.54237,3.65139,3.65139,0,0,0-3.89358,0,3.49688,3.49688,0,0,0-1.57231,3.54237,3.32332,3.32332,0,0,0,.95649,1.78288c.2.192.53415.48265.35111.79417-.2022.34395-.64275.071-.87713-.0691a3.102,3.102,0,0,0-1.44965-.43173,3.33989,3.33989,0,0,0-3.29454,2.4635A3.61415,3.61415,0,0,0,53.36156,26.665a3.66068,3.66068,0,0,0,5.3601-2.26h.29815a4.03387,4.03387,0,0,1-.59632,2.98283,3.97221,3.97221,0,0,1-1.07635,1.07869v.5395h4.30575v-.5395a3.97267,3.97267,0,0,1-1.07636-1.07869,4.034,4.034,0,0,1-.59632-2.98283h.29817a3.66065,3.66065,0,0,0,5.36008,2.26A3.61415,3.61415,0,0,0,67.33282,22.61894Z"/><path d="M51.6672,104.38106a3.3399,3.3399,0,0,0,3.29454,2.4635,3.102,3.102,0,0,0,1.44965-.43173c.23438-.14006.67493-.413.87712-.0691.18306.31152-.15111.60217-.3511.79417a3.32335,3.32335,0,0,0-.95651,1.78288,3.4969,3.4969,0,0,0,1.57231,3.54237,3.65139,3.65139,0,0,0,3.89358,0,3.49688,3.49688,0,0,0,1.57231-3.54237,3.32326,3.32326,0,0,0-.95649-1.78288c-.2-.192-.53415-.48265-.35111-.79417.2022-.34395.64275-.071.87713.0691a3.102,3.102,0,0,0,1.44965.43173,3.33989,3.33989,0,0,0,3.29454-2.4635,3.61415,3.61415,0,0,0-1.69436-4.04607,3.66068,3.66068,0,0,0-5.3601,2.26h-.29815a4.03387,4.03387,0,0,1,.59632-2.98283,3.97221,3.97221,0,0,1,1.07635-1.07869v-.5395H57.34713v.5395a3.97267,3.97267,0,0,1,1.07636,1.07869,4.034,4.034,0,0,1,.59632,2.98283h-.29817a3.66065,3.66065,0,0,0-5.36008-2.26A3.61415,3.61415,0,0,0,51.6672,104.38106Z"/><path d="M35.3328,64.62862a3.3399,3.3399,0,0,0-3.29454-2.4635,3.102,3.102,0,0,0-1.44965.43173c-.23438.14006-.67493.413-.87712.0691-.18306-.31153.15111-.60218.3511-.79417a3.32342,3.32342,0,0,0,.95651-1.78288,3.49688,3.49688,0,0,0-1.57231-3.54237,3.65139,3.65139,0,0,0-3.89358,0A3.49687,3.49687,0,0,0,23.9809,60.0889a3.32333,3.32333,0,0,0,.95649,1.78288c.2.192.53415.48264.35111.79417-.2022.34395-.64275.071-.87713-.0691a3.102,3.102,0,0,0-1.44965-.43173,3.33989,3.33989,0,0,0-3.29454,2.4635,3.61415,3.61415,0,0,0,1.69436,4.04607,3.66068,3.66068,0,0,0,5.3601-2.26h.29815a4.03384,4.03384,0,0,1-.59632,2.98282,3.97224,3.97224,0,0,1-1.07635,1.0787v.5395h4.30575v-.5395a3.9727,3.9727,0,0,1-1.07636-1.0787,4.03393,4.03393,0,0,1-.59632-2.98282h.29817a3.66065,3.66065,0,0,0,5.36008,2.26A3.61415,3.61415,0,0,0,35.3328,64.62862Z"/><path d="M67.33282,64.62862a3.3399,3.3399,0,0,0-3.29454-2.4635,3.102,3.102,0,0,0-1.44965.43173c-.23438.14006-.67493.413-.87712.0691-.18306-.31153.15111-.60218.3511-.79417a3.32342,3.32342,0,0,0,.95651-1.78288,3.49688,3.49688,0,0,0-1.57231-3.54237,3.65139,3.65139,0,0,0-3.89358,0,3.49687,3.49687,0,0,0-1.57231,3.54237,3.32339,3.32339,0,0,0,.95649,1.78288c.2.192.53415.48264.35111.79417-.2022.34395-.64275.071-.87713-.0691a3.102,3.102,0,0,0-1.44965-.43173,3.33989,3.33989,0,0,0-3.29454,2.4635,3.61415,3.61415,0,0,0,1.69436,4.04607,3.66068,3.66068,0,0,0,5.3601-2.26h.29815a4.03384,4.03384,0,0,1-.59632,2.98282,3.97224,3.97224,0,0,1-1.07635,1.0787v.5395h4.30575v-.5395a3.9727,3.9727,0,0,1-1.07636-1.0787,4.03393,4.03393,0,0,1-.59632-2.98282h.29817a3.66065,3.66065,0,0,0,5.36008,2.26A3.61415,3.61415,0,0,0,67.33282,64.62862Z"/><path d="M51.33281,43.58453a3.3399,3.3399,0,0,0-3.29454-2.4635,3.102,3.102,0,0,0-1.44965.43172c-.23438.14006-.67493.413-.87712.06911-.18306-.31153.15111-.60218.3511-.79417a3.32342,3.32342,0,0,0,.95651-1.78288,3.49688,3.49688,0,0,0-1.57231-3.54237,3.65134,3.65134,0,0,0-3.89358,0,3.49687,3.49687,0,0,0-1.57231,3.54237,3.32333,3.32333,0,0,0,.95649,1.78288c.2.192.53415.48264.35111.79417-.2022.34394-.64275.071-.87713-.06911a3.102,3.102,0,0,0-1.44965-.43172,3.33989,3.33989,0,0,0-3.29454,2.4635,3.61416,3.61416,0,0,0,1.69436,4.04607,3.66068,3.66068,0,0,0,5.3601-2.26h.29815a4.03386,4.03386,0,0,1-.59632,2.98283,3.97224,3.97224,0,0,1-1.07635,1.0787v.5395h4.30575v-.5395a3.9727,3.9727,0,0,1-1.07636-1.0787,4.034,4.034,0,0,1-.59632-2.98283h.29817a3.66065,3.66065,0,0,0,5.36008,2.26A3.61416,3.61416,0,0,0,51.33281,43.58453Z"/><path d="M35.66719,83.41547a3.3399,3.3399,0,0,0,3.29454,2.4635,3.102,3.102,0,0,0,1.44965-.43172c.23438-.14006.67493-.413.87712-.06911.18306.31153-.15111.60218-.3511.79417a3.32342,3.32342,0,0,0-.95651,1.78288,3.49688,3.49688,0,0,0,1.57231,3.54237,3.65134,3.65134,0,0,0,3.89358,0,3.49687,3.49687,0,0,0,1.57231-3.54237,3.32333,3.32333,0,0,0-.95649-1.78288c-.2-.192-.53415-.48264-.35111-.79417.2022-.34394.64275-.07095.87713.06911a3.102,3.102,0,0,0,1.44965.43172,3.33989,3.33989,0,0,0,3.29454-2.4635,3.61416,3.61416,0,0,0-1.69436-4.04607,3.66068,3.66068,0,0,0-5.3601,2.26H43.9802a4.03386,4.03386,0,0,1,.59632-2.98283,3.97224,3.97224,0,0,1,1.07635-1.0787v-.5395H41.34712v.5395a3.9727,3.9727,0,0,1,1.07636,1.0787,4.034,4.034,0,0,1,.59632,2.98283h-.29817a3.66065,3.66065,0,0,0-5.36008-2.26A3.61416,3.61416,0,0,0,35.66719,83.41547Z"/></g></svg>