<svg xmlns="http://www.w3.org/2000/svg" viewBox="0 0 87 127"><defs><style>.cls-1{fill:#fff;}.cls-2{fill:#ff3b5c;}</style></defs><title>card-diamonds-2</title><g id="artwork"><rect class="cls-1" x="-0.00232" width="87" height="127" rx="6"/><path class="cls-2" d="M7.61411,17.83733l3.088-3.25486q.73613-.7692,1.14411-1.24186a5.07214,5.07214,0,0,0,.69632-1.05005,2.63467,2.63467,0,0,0,.2881-1.18706,1.71283,1.71283,0,0,0-.54446-1.43465,2.88357,2.88357,0,0,0-1.75986-.42471,11.60546,11.60546,0,0,0-2.32.27205l-.416.08025-.0962-1.02657a11.314,11.314,0,0,1,3.1364-.43254,3.71065,3.71065,0,0,1,2.45569.68992,2.67049,2.67049,0,0,1,.80815,2.14805,3.78766,3.78766,0,0,1-.48,1.92395,10.0935,10.0935,0,0,1-1.72812,2.0365L9.07024,17.806h5.29618v1.07452H7.61411Z"/><path class="cls-2" d="M79.32154,109.16241l-3.088,3.25487q-.73613.76918-1.14411,1.24283a5.00576,5.00576,0,0,0-.69583,1.05,2.62131,2.62131,0,0,0-.28811,1.18608,1.71411,1.71411,0,0,0,.544,1.43465,2.87424,2.87424,0,0,0,1.75986.42569,11.55784,11.55784,0,0,0,2.32043-.273l.416-.08024.09571,1.02656a11.27656,11.27656,0,0,1-3.13591.43255,3.71679,3.71679,0,0,1-2.45618-.689,2.674,2.674,0,0,1-.80815-2.149,3.78274,3.78274,0,0,1,.48-1.924,10.13657,10.13657,0,0,1,1.72812-2.03649l2.81607-2.8693H72.56923v-1.07451h6.75231Z"/><path class="cls-2" d="M10.99008,34.49191Q9.869,33.11832,8.615,31.86137q-1.25224-1.25464-2.62517-2.38Q7.36058,28.35808,8.615,27.10146q1.2522-1.25481,2.37511-2.63054,1.121,1.37358,2.37508,2.63054,1.25225,1.25477,2.62517,2.37994-1.37077,1.12336-2.62517,2.38Q12.11313,33.11614,10.99008,34.49191Z"/><path class="cls-2" d="M76.00532,102.47267q-1.12107-1.37358-2.37511-2.63054-1.25226-1.25464-2.62517-2.38,1.37078-1.12332,2.62517-2.37994,1.2522-1.25481,2.37511-2.63054,1.121,1.3736,2.37508,2.63054,1.25225,1.25476,2.62517,2.37994-1.37078,1.12337-2.62517,2.38Q77.12835,101.0969,76.00532,102.47267Z"/><path class="cls-2" d="M43.4977,29.08435Q41.81609,27.024,39.935,25.13854q-1.87838-1.882-3.93776-3.56995,2.05617-1.685,3.93776-3.56991,1.8783-1.88221,3.56266-3.94581,1.68154,2.06037,3.56263,3.94581,1.87836,1.88216,3.93775,3.56991-2.05617,1.685-3.93775,3.56995Q45.18227,27.0207,43.4977,29.08435Z"/><path class="cls-2" d="M43.4977,112.94713q-1.68161-2.06037-3.56266-3.94581-1.87838-1.882-3.93776-3.57,2.05617-1.685,3.93776-3.56991,1.8783-1.88221,3.56266-3.94581,1.68154,2.06037,3.56263,3.94581,1.87836,1.88214,3.93775,3.56991-2.05617,1.685-3.93775,3.57Q45.18227,110.88348,43.4977,112.94713Z"/></g></svg>