<svg xmlns="http://www.w3.org/2000/svg" viewBox="0 0 115 167"><defs><style>.cls-1{fill:#fff;}</style></defs><title>card-clubs-10</title><g id="artwork"><rect class="cls-1" width="115" height="167" rx="8"/><path d="M21.428,39.48836a2.94337,2.94337,0,0,0-2.90338-2.171,2.73387,2.73387,0,0,0-1.27755.38047c-.20654.12344-.59479.364-.773.0609-.16133-.27454.13317-.53068.30941-.69988a2.92874,2.92874,0,0,0,.84294-1.5712,3.08171,3.08171,0,0,0-1.38563-3.1218,3.2179,3.2179,0,0,0-3.43131,0,3.08171,3.08171,0,0,0-1.38563,3.1218,2.92873,2.92873,0,0,0,.84293,1.5712c.17626.1692.47073.42534.30943.69988-.1782.30311-.56645.06254-.773-.0609a2.73373,2.73373,0,0,0-1.27754-.38047,2.94337,2.94337,0,0,0-2.90338,2.171A3.185,3.185,0,0,0,9.11555,43.054a3.226,3.226,0,0,0,4.72371-1.99165H14.102a3.55494,3.55494,0,0,1-.52552,2.62869,3.50067,3.50067,0,0,1-.94856.95062v.47545h3.79454v-.47545a3.50109,3.50109,0,0,1-.94856-.95062,3.555,3.555,0,0,1-.52552-2.62869h.26277A3.226,3.226,0,0,0,19.93485,43.054,3.185,3.185,0,0,0,21.428,39.48836Z"/><path d="M9.82089,12.35,6.22566,14.72379l-.741-1.22895,4.44208-2.96761H11.45V24.51662H9.82089Z"/><path d="M15.621,24.02892A4.23475,4.23475,0,0,1,13.939,21.73918a13.01116,13.01116,0,0,1-.56027-4.21725,13.01975,13.01975,0,0,1,.56027-4.21855,4.28325,4.28325,0,0,1,1.68208-2.2988,5.24892,5.24892,0,0,1,2.85553-.7102,4.46519,4.46519,0,0,1,3.8276,1.674q1.249,1.67462,1.24832,5.55359a13.01119,13.01119,0,0,1-.56026,4.21725,4.23475,4.23475,0,0,1-1.68208,2.28974,5.27093,5.27093,0,0,1-2.83358.69856A5.31734,5.31734,0,0,1,15.621,24.02892Zm4.801-1.282a3.24609,3.24609,0,0,0,1.09987-1.802,12.95522,12.95522,0,0,0,.35888-3.423,12.95535,12.95535,0,0,0-.35888-3.423,3.246,3.246,0,0,0-1.09987-1.802,3.228,3.228,0,0,0-1.94542-.54074,3.22536,3.22536,0,0,0-1.94543.54074,3.23188,3.23188,0,0,0-1.09987,1.802,12.94781,12.94781,0,0,0-.36017,3.423,12.94767,12.94767,0,0,0,.36017,3.423,3.23194,3.23194,0,0,0,1.09987,1.802,3.22512,3.22512,0,0,0,1.94543.53944A3.22778,3.22778,0,0,0,20.422,22.74693Z"/><path d="M105.17911,154.65l3.59523-2.37382.741,1.22895-4.44208,2.96761H103.55V142.48338h1.62915Z"/><path d="M99.379,142.97108a4.23475,4.23475,0,0,1,1.68208,2.28974,16.157,16.157,0,0,1,0,8.4358,4.28325,4.28325,0,0,1-1.68208,2.2988,5.24892,5.24892,0,0,1-2.85553.7102,4.46519,4.46519,0,0,1-3.8276-1.674q-1.249-1.67462-1.24832-5.55359a13.01119,13.01119,0,0,1,.56026-4.21725,4.23475,4.23475,0,0,1,1.68208-2.28974,6.14076,6.14076,0,0,1,5.68911,0Zm-4.80095,1.282a3.24609,3.24609,0,0,0-1.09987,1.802,16.50341,16.50341,0,0,0,0,6.84593,3.10817,3.10817,0,0,0,6.09059,0,16.44558,16.44558,0,0,0,0-6.84593,3.31961,3.31961,0,0,0-4.99072-1.802Z"/><path d="M93.56763,127.48949a2.94335,2.94335,0,0,0,2.90338,2.171,2.73364,2.73364,0,0,0,1.27754-.38047c.20655-.12343.5948-.364.773-.06089.16132.27453-.13317.53068-.30941.69987a2.92882,2.92882,0,0,0-.843,1.57121,3.08172,3.08172,0,0,0,1.38564,3.12179,3.21783,3.21783,0,0,0,3.4313,0,3.08167,3.08167,0,0,0,1.38563-3.12179,2.92879,2.92879,0,0,0-.84293-1.57121c-.17626-.16919-.47073-.42534-.30942-.69987.17819-.30312.56644-.06254.773.06089a2.73357,2.73357,0,0,0,1.27755.38047,2.94335,2.94335,0,0,0,2.90338-2.171,3.18507,3.18507,0,0,0-1.4932-3.5657,3.226,3.226,0,0,0-4.7237,1.99166h-.26275a3.5549,3.5549,0,0,1,.52552-2.62869,3.50039,3.50039,0,0,1,.94856-.95062v-.47545H98.5732v.47545a3.50109,3.50109,0,0,1,.94856.95062,3.555,3.555,0,0,1,.52552,2.62869h-.26277a3.226,3.226,0,0,0-4.72369-1.99166A3.185,3.185,0,0,0,93.56763,127.48949Z"/><path d="M46.70369,29.45894a4.415,4.415,0,0,0-4.35507-3.25653,4.10054,4.10054,0,0,0-1.91631.57071c-.30982.18514-.8922.546-1.15947.09134-.242-.4118.19975-.796.46411-1.04981a4.39316,4.39316,0,0,0,1.26443-2.35681,4.62258,4.62258,0,0,0-2.07845-4.68269,4.82676,4.82676,0,0,0-5.147,0,4.62251,4.62251,0,0,0-2.07845,4.68269,4.39316,4.39316,0,0,0,1.26439,2.35681c.26439.25379.7061.638.46414,1.04981-.26729.45467-.84967.0938-1.15949-.09134a4.10047,4.10047,0,0,0-1.91631-.57071,4.415,4.415,0,0,0-4.35508,3.25653A4.77758,4.77758,0,0,0,28.235,34.80747,4.83908,4.83908,0,0,0,35.32052,31.82h.39413a5.33241,5.33241,0,0,1-.78828,3.943A5.25094,5.25094,0,0,1,33.50353,37.189v.71318h5.69181V37.189A5.2515,5.2515,0,0,1,37.7725,35.763a5.33251,5.33251,0,0,1-.78828-3.943h.39415a4.839,4.839,0,0,0,7.08554,2.98747A4.77756,4.77756,0,0,0,46.70369,29.45894Z"/><path d="M89.00483,29.45894a4.415,4.415,0,0,0-4.35508-3.25653,4.10058,4.10058,0,0,0-1.91631.57071c-.30982.18514-.8922.546-1.15946.09134-.242-.4118.19975-.796.46411-1.04981a4.39321,4.39321,0,0,0,1.26442-2.35681,4.62257,4.62257,0,0,0-2.07845-4.68269,4.82676,4.82676,0,0,0-5.147,0,4.62255,4.62255,0,0,0-2.07845,4.68269,4.39311,4.39311,0,0,0,1.2644,2.35681c.26438.25379.70609.638.46413,1.04981-.26729.45467-.84966.0938-1.15949-.09134a4.1004,4.1004,0,0,0-1.91631-.57071,4.415,4.415,0,0,0-4.35508,3.25653,4.77757,4.77757,0,0,0,2.2398,5.34853A4.83908,4.83908,0,0,0,77.62166,31.82h.39412a5.33241,5.33241,0,0,1-.78828,3.943A5.25094,5.25094,0,0,1,75.80466,37.189v.71318h5.69181V37.189A5.25164,5.25164,0,0,1,80.07363,35.763a5.33255,5.33255,0,0,1-.78828-3.943h.39416A4.839,4.839,0,0,0,86.765,34.80747,4.77757,4.77757,0,0,0,89.00483,29.45894Z"/><path d="M25.99517,137.54106a4.415,4.415,0,0,0,4.35508,3.25653,4.10058,4.10058,0,0,0,1.91631-.57071c.30982-.18514.8922-.546,1.15946-.09134.242.4118-.19975.796-.46411,1.04981a4.39321,4.39321,0,0,0-1.26442,2.35681,4.62257,4.62257,0,0,0,2.07845,4.68269,4.82676,4.82676,0,0,0,5.147,0,4.62255,4.62255,0,0,0,2.07845-4.68269,4.39311,4.39311,0,0,0-1.2644-2.35681c-.26438-.25379-.70609-.638-.46413-1.04981.26729-.45467.84966-.0938,1.15949.09134a4.1004,4.1004,0,0,0,1.91631.57071,4.415,4.415,0,0,0,4.35508-3.25653,4.77757,4.77757,0,0,0-2.2398-5.34853A4.83908,4.83908,0,0,0,37.37834,135.18h-.39412a5.33241,5.33241,0,0,1,.78828-3.943,5.25094,5.25094,0,0,1,1.42284-1.42593v-.71318H33.50353v.71318a5.25164,5.25164,0,0,1,1.42284,1.42593,5.33255,5.33255,0,0,1,.78828,3.943h-.39416a4.839,4.839,0,0,0-7.08553-2.98747A4.77757,4.77757,0,0,0,25.99517,137.54106Z"/><path d="M68.29631,137.54106a4.415,4.415,0,0,0,4.35507,3.25653,4.10054,4.10054,0,0,0,1.91631-.57071c.30982-.18514.8922-.546,1.15947-.09134.242.4118-.19975.796-.46411,1.04981a4.39316,4.39316,0,0,0-1.26443,2.35681,4.62258,4.62258,0,0,0,2.07845,4.68269,4.82676,4.82676,0,0,0,5.147,0,4.62251,4.62251,0,0,0,2.07845-4.68269,4.39316,4.39316,0,0,0-1.26439-2.35681c-.26439-.25379-.7061-.638-.46414-1.04981.26729-.45467.84967-.0938,1.15949.09134a4.10047,4.10047,0,0,0,1.91631.57071,4.415,4.415,0,0,0,4.35508-3.25653,4.77758,4.77758,0,0,0-2.23979-5.34853A4.83908,4.83908,0,0,0,79.67948,135.18h-.39413a5.33241,5.33241,0,0,1,.78828-3.943,5.25094,5.25094,0,0,1,1.42284-1.42593v-.71318H75.80466v.71318A5.2515,5.2515,0,0,1,77.2275,131.237a5.33251,5.33251,0,0,1,.78828,3.943h-.39415a4.839,4.839,0,0,0-7.08554-2.98747A4.77756,4.77756,0,0,0,68.29631,137.54106Z"/><path d="M46.70369,66.48093a4.415,4.415,0,0,0-4.35507-3.25652,4.10065,4.10065,0,0,0-1.91631.5707c-.30982.18515-.8922.546-1.15947.09135-.242-.41181.19975-.796.46411-1.04982a4.39309,4.39309,0,0,0,1.26443-2.3568,4.6226,4.6226,0,0,0-2.07845-4.6827,4.82681,4.82681,0,0,0-5.147,0,4.62253,4.62253,0,0,0-2.07845,4.6827,4.3931,4.3931,0,0,0,1.26439,2.3568c.26439.2538.7061.638.46414,1.04982-.26729.45467-.84967.0938-1.15949-.09135a4.10058,4.10058,0,0,0-1.91631-.5707,4.415,4.415,0,0,0-4.35508,3.25652A4.77759,4.77759,0,0,0,28.235,71.82947,4.83908,4.83908,0,0,0,35.32052,68.842h.39413a5.3324,5.3324,0,0,1-.78828,3.943A5.251,5.251,0,0,1,33.50353,74.211v.71317h5.69181V74.211A5.25154,5.25154,0,0,1,37.7725,72.785a5.33249,5.33249,0,0,1-.78828-3.943h.39415a4.839,4.839,0,0,0,7.08554,2.98748A4.77757,4.77757,0,0,0,46.70369,66.48093Z"/><path d="M89.00483,66.48093a4.415,4.415,0,0,0-4.35508-3.25652,4.10068,4.10068,0,0,0-1.91631.5707c-.30982.18515-.8922.546-1.15946.09135-.242-.41181.19975-.796.46411-1.04982a4.39314,4.39314,0,0,0,1.26442-2.3568,4.62258,4.62258,0,0,0-2.07845-4.6827,4.82681,4.82681,0,0,0-5.147,0,4.62256,4.62256,0,0,0-2.07845,4.6827,4.393,4.393,0,0,0,1.2644,2.3568c.26438.2538.70609.638.46413,1.04982-.26729.45467-.84966.0938-1.15949-.09135a4.10051,4.10051,0,0,0-1.91631-.5707,4.415,4.415,0,0,0-4.35508,3.25652,4.77758,4.77758,0,0,0,2.2398,5.34854A4.83908,4.83908,0,0,0,77.62166,68.842h.39412a5.3324,5.3324,0,0,1-.78828,3.943A5.251,5.251,0,0,1,75.80466,74.211v.71317h5.69181V74.211A5.25168,5.25168,0,0,1,80.07363,72.785a5.33253,5.33253,0,0,1-.78828-3.943h.39416A4.839,4.839,0,0,0,86.765,71.82947,4.77758,4.77758,0,0,0,89.00483,66.48093Z"/><path d="M68.29631,100.51907a4.415,4.415,0,0,0,4.35507,3.25652,4.10065,4.10065,0,0,0,1.91631-.5707c.30982-.18515.8922-.546,1.15947-.09135.242.41181-.19975.796-.46411,1.04982a4.39309,4.39309,0,0,0-1.26443,2.3568,4.6226,4.6226,0,0,0,2.07845,4.6827,4.82681,4.82681,0,0,0,5.147,0,4.62253,4.62253,0,0,0,2.07845-4.6827,4.3931,4.3931,0,0,0-1.26439-2.3568c-.26439-.2538-.7061-.638-.46414-1.04982.26729-.45467.84967-.0938,1.15949.09135a4.10058,4.10058,0,0,0,1.91631.5707,4.415,4.415,0,0,0,4.35508-3.25652A4.77759,4.77759,0,0,0,86.765,95.17053,4.83908,4.83908,0,0,0,79.67948,98.158h-.39413a5.3324,5.3324,0,0,1,.78828-3.943A5.251,5.251,0,0,1,81.49647,92.789v-.71317H75.80466V92.789A5.25154,5.25154,0,0,1,77.2275,94.215a5.33249,5.33249,0,0,1,.78828,3.943h-.39415a4.839,4.839,0,0,0-7.08554-2.98748A4.77757,4.77757,0,0,0,68.29631,100.51907Z"/><path d="M25.99517,100.51907a4.415,4.415,0,0,0,4.35508,3.25652,4.10068,4.10068,0,0,0,1.91631-.5707c.30982-.18515.8922-.546,1.15946-.09135.242.41181-.19975.796-.46411,1.04982a4.39314,4.39314,0,0,0-1.26442,2.3568,4.62258,4.62258,0,0,0,2.07845,4.6827,4.82681,4.82681,0,0,0,5.147,0,4.62256,4.62256,0,0,0,2.07845-4.6827,4.393,4.393,0,0,0-1.2644-2.3568c-.26438-.2538-.70609-.638-.46413-1.04982.26729-.45467.84966-.0938,1.15949.09135a4.10051,4.10051,0,0,0,1.91631.5707,4.415,4.415,0,0,0,4.35508-3.25652,4.77758,4.77758,0,0,0-2.2398-5.34854A4.83908,4.83908,0,0,0,37.37834,98.158h-.39412a5.3324,5.3324,0,0,1,.78828-3.943A5.251,5.251,0,0,1,39.19534,92.789v-.71317H33.50353V92.789A5.25168,5.25168,0,0,1,34.92637,94.215a5.33253,5.33253,0,0,1,.78828,3.943h-.39416A4.839,4.839,0,0,0,28.235,95.17053,4.77758,4.77758,0,0,0,25.99517,100.51907Z"/><path d="M67.85426,47.90075a4.415,4.415,0,0,0-4.35508-3.25653,4.10081,4.10081,0,0,0-1.91631.57071c-.30982.18515-.8922.546-1.15946.09135-.242-.41181.19975-.796.46411-1.04982a4.39318,4.39318,0,0,0,1.26442-2.3568,4.62257,4.62257,0,0,0-2.07845-4.6827,4.82681,4.82681,0,0,0-5.147,0,4.62253,4.62253,0,0,0-2.07844,4.6827,4.39307,4.39307,0,0,0,1.26439,2.3568c.26439.2538.7061.638.46414,1.04982-.26729.45466-.84967.0938-1.15949-.09135a4.10071,4.10071,0,0,0-1.91632-.57071,4.415,4.415,0,0,0-4.35507,3.25653,4.77758,4.77758,0,0,0,2.23979,5.34854,4.83908,4.83908,0,0,0,7.08556-2.98748h.39412a5.33231,5.33231,0,0,1-.78828,3.943,5.25094,5.25094,0,0,1-1.42283,1.42594V56.344h5.69181v-.71317a5.25168,5.25168,0,0,1-1.42284-1.42594,5.33245,5.33245,0,0,1-.78828-3.943h.39415a4.839,4.839,0,0,0,7.08553,2.98748A4.77757,4.77757,0,0,0,67.85426,47.90075Z"/><path d="M47.14574,119.09925a4.415,4.415,0,0,0,4.35508,3.25653,4.10081,4.10081,0,0,0,1.91631-.57071c.30982-.18515.8922-.546,1.15946-.09135.242.41181-.19975.796-.46411,1.04982a4.39318,4.39318,0,0,0-1.26442,2.3568,4.62257,4.62257,0,0,0,2.07845,4.6827,4.82681,4.82681,0,0,0,5.147,0,4.62253,4.62253,0,0,0,2.07844-4.6827,4.39307,4.39307,0,0,0-1.26439-2.3568c-.26439-.2538-.7061-.638-.46414-1.04982.26729-.45466.84967-.0938,1.15949.09135a4.10071,4.10071,0,0,0,1.91632.57071,4.415,4.415,0,0,0,4.35507-3.25653,4.77758,4.77758,0,0,0-2.23979-5.34854,4.83908,4.83908,0,0,0-7.08556,2.98748h-.39412a5.33231,5.33231,0,0,1,.78828-3.943,5.25094,5.25094,0,0,1,1.42283-1.42594v-.71317H54.65409v.71317a5.25168,5.25168,0,0,1,1.42284,1.42594,5.33245,5.33245,0,0,1,.78828,3.943h-.39415a4.839,4.839,0,0,0-7.08553-2.98748A4.77757,4.77757,0,0,0,47.14574,119.09925Z"/></g></svg>