<svg xmlns="http://www.w3.org/2000/svg" viewBox="0 0 87 127"><defs><style>.cls-1{fill:#fff;}.cls-2{fill:#ff3b5c;}</style></defs><title>card-hearts-3</title><g id="artwork"><rect class="cls-1" width="87" height="127" rx="6"/><path class="cls-2" d="M8.00787,18.71945l-.49612-.11156L7.62406,17.597a14.762,14.762,0,0,0,2.88.3846,3.48085,3.48085,0,0,0,1.93613-.46484,1.79325,1.79325,0,0,0,.70414-1.61961q0-1.923-2.17638-1.98756h-2.128V12.85169H10.968a1.82044,1.82044,0,0,0,.90434-.24857,2.07236,2.07236,0,0,0,.72807-.69775,1.83163,1.83163,0,0,0,.28761-1.00992,1.5184,1.5184,0,0,0-.50393-1.27514,2.72847,2.72847,0,0,0-1.65585-.39242,13.39473,13.39473,0,0,0-2.528.23976l-.416.08025-.11231-.97764a11.175,11.175,0,0,1,3.2326-.44918,3.78541,3.78541,0,0,1,2.47962.65763,2.62046,2.62046,0,0,1,.7686,2.1001,2.64914,2.64914,0,0,1-.416,1.44345,2.43307,2.43307,0,0,1-1.15241.962,4.068,4.068,0,0,1,1.0401.52943,1.80018,1.80018,0,0,1,.584.777,3.36317,3.36317,0,0,1,.20021,1.25947,3.15442,3.15442,0,0,1-.83207,2.41228,3.69491,3.69491,0,0,1-2.59194.778A15.23866,15.23866,0,0,1,8.00787,18.71945Z"/><path class="cls-2" d="M11.00079,34.55592a19.02761,19.02761,0,0,1,1.76605-2.35956c1.22911-1.401,2.82177-2.82022,2.87927-4.83038a2.832,2.832,0,0,0-1.181-2.47944,2.10268,2.10268,0,0,0-2.50041.12611,2.154,2.154,0,0,0-.72843,1.28485c-.0222.1337-.05571.35392-.23548.35392s-.21328-.22022-.23546-.35392a2.154,2.154,0,0,0-.72845-1.28485,2.10267,2.10267,0,0,0-2.5004-.12611,2.832,2.832,0,0,0-1.181,2.47944c.05748,2.01016,1.65016,3.42935,2.87925,4.83038A19.02561,19.02561,0,0,1,11.00079,34.55592Z"/><path class="cls-2" d="M78.99212,108.28107l.49612.11254-.11231,1.00993a14.85416,14.85416,0,0,0-2.88-.38557,3.48347,3.48347,0,0,0-1.93663.46582,1.79314,1.79314,0,0,0-.70316,1.61862q0,1.92444,2.17589,1.98854h2.12805v1.05886H76.032a1.8178,1.8178,0,0,0-.90434.24759,2.06922,2.06922,0,0,0-.72856.69775,1.83531,1.83531,0,0,0-.28712,1.00993,1.51839,1.51839,0,0,0,.50393,1.27513,2.72918,2.72918,0,0,0,1.65634.39242,13.30918,13.30918,0,0,0,2.52748-.24074l.416-.08024.11231.97861a11.1412,11.1412,0,0,1-3.2326.44918,3.78549,3.78549,0,0,1-2.47962-.65762,2.623,2.623,0,0,1-.7686-2.10108,2.65244,2.65244,0,0,1,.416-1.44248,2.43,2.43,0,0,1,1.15241-.962,4.06833,4.06833,0,0,1-1.0401-.52942,1.80018,1.80018,0,0,1-.584-.777,3.37473,3.37473,0,0,1-.20021-1.2585,3.15823,3.15823,0,0,1,.83208-2.41326,3.69487,3.69487,0,0,1,2.59193-.778A15.16439,15.16439,0,0,1,78.99212,108.28107Z"/><path class="cls-2" d="M75.99921,92.57762a19.02835,19.02835,0,0,1-1.76605,2.35956c-1.22911,1.401-2.82177,2.82022-2.87927,4.83038a2.832,2.832,0,0,0,1.181,2.47944,2.1027,2.1027,0,0,0,2.50041-.12611,2.154,2.154,0,0,0,.72843-1.28485c.0222-.1337.05571-.35392.23548-.35392s.21328.22022.23546.35392a2.154,2.154,0,0,0,.72845,1.28485,2.10268,2.10268,0,0,0,2.5004.12611,2.832,2.832,0,0,0,1.181-2.47944c-.05748-2.01016-1.65016-3.42935-2.87925-4.83038A19.02636,19.02636,0,0,1,75.99921,92.57762Z"/><path class="cls-2" d="M43.5,28.86219a28.54189,28.54189,0,0,1,2.64907-3.53933c1.84367-2.10155,4.23266-4.23033,4.31891-7.24557a4.248,4.248,0,0,0-1.7715-3.71916,3.154,3.154,0,0,0-3.75062.18917,3.231,3.231,0,0,0-1.09265,1.92727c-.03329.20055-.08355.53088-.35321.53088s-.31993-.33033-.35319-.53088a3.231,3.231,0,0,0-1.09267-1.92727,3.154,3.154,0,0,0-3.7506-.18917,4.248,4.248,0,0,0-1.7715,3.71916c.08623,3.01524,2.47524,5.144,4.31889,7.24557A28.54089,28.54089,0,0,1,43.5,28.86219Z"/><path class="cls-2" d="M43.5,71.01574a28.54114,28.54114,0,0,1,2.64907-3.53933c1.84367-2.10155,4.23266-4.23033,4.31891-7.24558a4.248,4.248,0,0,0-1.7715-3.71915,3.154,3.154,0,0,0-3.75062.18916,3.231,3.231,0,0,0-1.09265,1.92727c-.03329.20055-.08355.53089-.35321.53089s-.31993-.33034-.35319-.53089a3.23109,3.23109,0,0,0-1.09267-1.92727,3.154,3.154,0,0,0-3.7506-.18916,4.248,4.248,0,0,0-1.7715,3.71915c.08623,3.01525,2.47524,5.144,4.31889,7.24558A28.54014,28.54014,0,0,1,43.5,71.01574Z"/><path class="cls-2" d="M43.5,98.13781a28.54189,28.54189,0,0,1-2.64907,3.53933c-1.84367,2.10155-4.23266,4.23033-4.31891,7.24557a4.248,4.248,0,0,0,1.7715,3.71916,3.154,3.154,0,0,0,3.75062-.18917,3.231,3.231,0,0,0,1.09265-1.92727c.03329-.20055.08355-.53088.35321-.53088s.31993.33033.35319.53088a3.231,3.231,0,0,0,1.09267,1.92727,3.154,3.154,0,0,0,3.7506.18917,4.248,4.248,0,0,0,1.7715-3.71916c-.08623-3.01524-2.47524-5.144-4.31889-7.24557A28.54089,28.54089,0,0,1,43.5,98.13781Z"/></g></svg>