<svg xmlns="http://www.w3.org/2000/svg" viewBox="0 0 115 167"><defs><style>.cls-1{fill:#fff;}.cls-2{fill:#ff3b5c;}</style></defs><title>card-hearts-7</title><g id="artwork"><rect class="cls-1" width="115" height="167" rx="8"/><path class="cls-2" d="M12.00236,24.24294l5.267-11.677v-.55106H10.24669V10.53112h8.67245V12.672L13.5463,24.73062Z"/><path class="cls-2" d="M14.54128,45.24037a25.15128,25.15128,0,0,1,2.33443-3.119c1.62468-1.85194,3.72992-3.72788,3.80593-6.385A3.74339,3.74339,0,0,0,19.12055,32.459a2.77941,2.77941,0,0,0-3.30514.16669,2.84723,2.84723,0,0,0-.96287,1.69837c-.02934.17673-.07364.46783-.31126.46783s-.28193-.2911-.31125-.46783a2.84725,2.84725,0,0,0-.96288-1.69837A2.77939,2.77939,0,0,0,9.962,32.459a3.74341,3.74341,0,0,0-1.56109,3.27741c.076,2.65711,2.18125,4.533,3.80591,6.385A25.15036,25.15036,0,0,1,14.54128,45.24037Z"/><path class="cls-2" d="M102.99853,142.75576l-5.26569,11.677v.55106h7.02135v1.485H96.083V154.328l5.37155-12.05993Z"/><path class="cls-2" d="M100.45872,121.93572a25.15128,25.15128,0,0,1-2.33443,3.119c-1.62468,1.85194-3.72992,3.72788-3.80593,6.385a3.74339,3.74339,0,0,0,1.56109,3.27741,2.77941,2.77941,0,0,0,3.30514-.16669,2.84723,2.84723,0,0,0,.96287-1.69837c.02934-.17673.07364-.46783.31126-.46783s.28193.2911.31125.46783a2.84725,2.84725,0,0,0,.96288,1.69837,2.77939,2.77939,0,0,0,3.30513.16669,3.74341,3.74341,0,0,0,1.56109-3.27741c-.076-2.65711-2.18125-4.53305-3.80591-6.385A25.15036,25.15036,0,0,1,100.45872,121.93572Z"/><path class="cls-2" d="M36.34942,37.7144A37.72636,37.72636,0,0,1,39.85107,33.036c2.437-2.77791,5.59489-5.59182,5.70889-9.57749a5.61509,5.61509,0,0,0-2.34162-4.91612,4.16912,4.16912,0,0,0-4.95772.25,4.27086,4.27086,0,0,0-1.44431,2.54754c-.044.2651-.11045.70175-.46689.70175s-.42289-.43665-.46687-.70175a4.27088,4.27088,0,0,0-1.44432-2.54754,4.16909,4.16909,0,0,0-4.9577-.25,5.61513,5.61513,0,0,0-2.34163,4.91612c.114,3.98567,3.27187,6.79958,5.70887,9.57749A37.72337,37.72337,0,0,1,36.34942,37.7144Z"/><path class="cls-2" d="M36.34945,129.2856A37.72736,37.72736,0,0,1,32.8478,133.964c-2.437,2.77791-5.59489,5.59182-5.7089,9.57749a5.61513,5.61513,0,0,0,2.34163,4.91612,4.16912,4.16912,0,0,0,4.95772-.25,4.2708,4.2708,0,0,0,1.4443-2.54754c.044-.2651.11046-.70175.4669-.70175s.42289.43665.46686.70175a4.27089,4.27089,0,0,0,1.44433,2.54754,4.16909,4.16909,0,0,0,4.9577.25A5.61509,5.61509,0,0,0,45.56,143.54152c-.114-3.98567-3.27186-6.79958-5.70886-9.57749A37.72238,37.72238,0,0,1,36.34945,129.2856Z"/><path class="cls-2" d="M78.65055,37.7144A37.72736,37.72736,0,0,1,82.1522,33.036c2.437-2.77791,5.59489-5.59182,5.7089-9.57749a5.61513,5.61513,0,0,0-2.34163-4.91612,4.16912,4.16912,0,0,0-4.95772.25,4.2708,4.2708,0,0,0-1.4443,2.54754c-.044.2651-.11046.70175-.4669.70175s-.42289-.43665-.46686-.70175a4.27089,4.27089,0,0,0-1.44433-2.54754,4.16909,4.16909,0,0,0-4.9577-.25A5.61509,5.61509,0,0,0,69.44,23.45848c.114,3.98567,3.27186,6.79958,5.70886,9.57749A37.72238,37.72238,0,0,1,78.65055,37.7144Z"/><path class="cls-2" d="M78.65058,129.2856a37.72636,37.72636,0,0,1-3.50165,4.67843c-2.437,2.77791-5.59489,5.59182-5.70889,9.57749a5.61509,5.61509,0,0,0,2.34162,4.91612,4.16912,4.16912,0,0,0,4.95772-.25,4.27086,4.27086,0,0,0,1.44431-2.54754c.044-.2651.11045-.70175.46689-.70175s.42289.43665.46687.70175a4.27088,4.27088,0,0,0,1.44432,2.54754,4.16909,4.16909,0,0,0,4.9577.25,5.61513,5.61513,0,0,0,2.34163-4.91612c-.114-3.98567-3.27187-6.79958-5.70887-9.57749A37.72337,37.72337,0,0,1,78.65058,129.2856Z"/><path class="cls-2" d="M36.34942,93.4346a37.72785,37.72785,0,0,1,3.50165-4.67843c2.437-2.77791,5.59489-5.59182,5.70889-9.57748a5.61511,5.61511,0,0,0-2.34162-4.91613,4.16914,4.16914,0,0,0-4.95772.25005,4.27086,4.27086,0,0,0-1.44431,2.54754c-.044.26509-.11045.70174-.46689.70174s-.42289-.43665-.46687-.70174a4.27088,4.27088,0,0,0-1.44432-2.54754,4.16911,4.16911,0,0,0-4.9577-.25005,5.61514,5.61514,0,0,0-2.34163,4.91613c.114,3.98566,3.27187,6.79957,5.70887,9.57748A37.72486,37.72486,0,0,1,36.34942,93.4346Z"/><path class="cls-2" d="M78.65055,93.4346a37.72885,37.72885,0,0,1,3.50165-4.67843c2.437-2.77791,5.59489-5.59182,5.7089-9.57748a5.61514,5.61514,0,0,0-2.34163-4.91613,4.16914,4.16914,0,0,0-4.95772.25005,4.2708,4.2708,0,0,0-1.4443,2.54754c-.044.26509-.11046.70174-.4669.70174s-.42289-.43665-.46686-.70174a4.27089,4.27089,0,0,0-1.44433-2.54754,4.16911,4.16911,0,0,0-4.9577-.25005A5.61511,5.61511,0,0,0,69.44,79.17869c.114,3.98566,3.27186,6.79957,5.70886,9.57748A37.72387,37.72387,0,0,1,78.65055,93.4346Z"/><path class="cls-2" d="M57.5,65.6177a37.72938,37.72938,0,0,1,3.50146-4.67843c2.43691-2.77791,5.5946-5.59182,5.7086-9.57749a5.61523,5.61523,0,0,0-2.3415-4.91612,4.16875,4.16875,0,0,0-4.95746.25,4.27083,4.27083,0,0,0-1.44422,2.54755c-.044.26509-.11045.70174-.46688.70174s-.42286-.43665-.46684-.70174a4.27088,4.27088,0,0,0-1.44425-2.54755,4.1687,4.1687,0,0,0-4.95743-.25A5.61523,5.61523,0,0,0,48.29,51.36178c.114,3.98567,3.2717,6.79958,5.70857,9.57749A37.72432,37.72432,0,0,1,57.5,65.6177Z"/></g></svg>