<svg xmlns="http://www.w3.org/2000/svg" viewBox="0 0 87 127"><defs><style>.cls-1{fill:#fff;}.cls-2{fill:#ff3b5c;}</style></defs><title>card-diamonds-6</title><g id="artwork"><rect class="cls-1" width="87" height="127" rx="6"/><path class="cls-2" d="M7.31167,13.54122A6.46147,6.46147,0,0,1,8.37618,9.47705,3.68275,3.68275,0,0,1,11.43982,8.1383a15.17781,15.17781,0,0,1,2.465.19181l.43166.08025-.11231,1.00993a21.15186,21.15186,0,0,0-2.79995-.19181,2.5,2.5,0,0,0-2.09582.94534A4.33338,4.33338,0,0,0,8.592,12.88457l.40042-.16049a7.99959,7.99959,0,0,1,1.1192-.321,5.37152,5.37152,0,0,1,1.12017-.14484q3.55243,0,3.552,3.28716a3.37239,3.37239,0,0,1-.96782,2.58941,3.841,3.841,0,0,1-2.72769.90619Q7.31167,19.041,7.31167,13.54122Zm5.56085,3.79212a2.34252,2.34252,0,0,0,.63187-1.75563,2.13313,2.13313,0,0,0-.60844-1.65972,2.5022,2.5022,0,0,0-1.74423-.55292,5.2533,5.2533,0,0,0-1.1358.14386,8.51763,8.51763,0,0,0-1.07232.30532l-.36721.1605a5.897,5.897,0,0,0,.63187,2.92605,1.98111,1.98111,0,0,0,1.81552,1.05A2.54562,2.54562,0,0,0,12.87252,17.33334Z"/><path class="cls-2" d="M79.628,113.4595a6.46788,6.46788,0,0,1-1.06354,4.06417,3.68342,3.68342,0,0,1-3.06461,1.33875,15.16557,15.16557,0,0,1-2.464-.19181l-.43166-.08025.11231-1.00993a21.12621,21.12621,0,0,0,2.799.19181,2.50063,2.50063,0,0,0,2.0968-.94534,4.3335,4.3335,0,0,0,.73539-2.71075l-.39944.16049a8.0558,8.0558,0,0,1-1.12018.321,5.37152,5.37152,0,0,1-1.12017.14484q-3.55244,0-3.55195-3.28716a3.37237,3.37237,0,0,1,.96782-2.58941,3.842,3.842,0,0,1,2.72867-.90619Q79.62753,107.9597,79.628,113.4595Zm-5.55987-3.79213a2.33875,2.33875,0,0,0-.63187,1.75563,2.13274,2.13274,0,0,0,.60746,1.65973,2.50385,2.50385,0,0,0,1.74423.55292,5.23886,5.23886,0,0,0,1.1358-.14386,8.46792,8.46792,0,0,0,1.07232-.30533l.36819-.16049a5.91839,5.91839,0,0,0-.63187-2.92605,1.98156,1.98156,0,0,0-1.8165-1.05A2.54314,2.54314,0,0,0,74.06816,109.66737Z"/><path class="cls-2" d="M10.99239,34.49228Q9.87132,33.1187,8.61728,31.86174q-1.25224-1.25463-2.62517-2.38,1.37078-1.12332,2.62517-2.38Q9.8695,25.847,10.99239,24.47129q1.121,1.37359,2.37509,2.63054,1.25225,1.25478,2.62517,2.38-1.37079,1.12335-2.62517,2.38Q12.11543,33.11652,10.99239,34.49228Z"/><path class="cls-2" d="M76.00763,102.47305q-1.12107-1.37358-2.37511-2.63054-1.25224-1.25465-2.62517-2.38,1.37077-1.12332,2.62517-2.37994,1.25222-1.25481,2.37511-2.63054,1.121,1.37358,2.37509,2.63054,1.25224,1.25477,2.62517,2.37994-1.37079,1.12336-2.62517,2.38Q77.13067,101.09728,76.00763,102.47305Z"/><path class="cls-2" d="M27.49916,29.08435q-1.68161-2.06037-3.56267-3.94581-1.87837-1.882-3.93775-3.56995,2.05615-1.685,3.93775-3.56991,1.87832-1.88221,3.56267-3.94581,1.68153,2.06037,3.56262,3.94581,1.87838,1.88216,3.93776,3.56991-2.05617,1.685-3.93776,3.56995Q29.18372,27.0207,27.49916,29.08435Z"/><path class="cls-2" d="M27.49916,112.94713q-1.68161-2.06037-3.56267-3.94581-1.87837-1.882-3.93775-3.57,2.05615-1.685,3.93775-3.56991,1.87832-1.88221,3.56267-3.94581,1.68153,2.06037,3.56262,3.94581,1.87838,1.88214,3.93776,3.56991-2.05617,1.685-3.93776,3.57Q29.18372,110.88348,27.49916,112.94713Z"/><path class="cls-2" d="M59.50088,29.08435q-1.68161-2.06037-3.56266-3.94581-1.87838-1.882-3.93776-3.56995,2.05617-1.685,3.93776-3.56991,1.8783-1.88221,3.56266-3.94581,1.68154,2.06037,3.56263,3.94581,1.87836,1.88216,3.93775,3.56991-2.05617,1.685-3.93775,3.56995Q61.18545,27.0207,59.50088,29.08435Z"/><path class="cls-2" d="M59.50088,112.94713q-1.68161-2.06037-3.56266-3.94581-1.87838-1.882-3.93776-3.57,2.05617-1.685,3.93776-3.56991,1.8783-1.88221,3.56266-3.94581,1.68154,2.06037,3.56263,3.94581,1.87836,1.88214,3.93775,3.56991-2.05617,1.685-3.93775,3.57Q61.18545,110.88348,59.50088,112.94713Z"/><path class="cls-2" d="M27.49916,71.01574q-1.68161-2.06037-3.56267-3.94581Q22.05812,65.188,19.99874,63.5q2.05615-1.685,3.93775-3.56991,1.87832-1.88222,3.56267-3.94581,1.68153,2.06037,3.56262,3.94581Q32.94016,61.81221,34.99954,63.5q-2.05617,1.685-3.93776,3.56995Q29.18372,68.95209,27.49916,71.01574Z"/><path class="cls-2" d="M59.50088,71.01574q-1.68161-2.06037-3.56266-3.94581Q54.05985,65.188,52.00046,63.5q2.05617-1.685,3.93776-3.56991,1.8783-1.88222,3.56266-3.94581,1.68154,2.06037,3.56263,3.94581Q64.94187,61.81221,67.00126,63.5q-2.05617,1.685-3.93775,3.56995Q61.18545,68.95209,59.50088,71.01574Z"/></g></svg>