<svg xmlns="http://www.w3.org/2000/svg" viewBox="0 0 87 127"><defs><style>.cls-1{fill:#fff;}.cls-2{fill:#ff3b5c;}</style></defs><title>card-hearts-a</title><g id="artwork"><rect class="cls-1" x="-0.04788" width="87" height="127" rx="6"/><path class="cls-2" d="M43.45211,71.01574a28.54114,28.54114,0,0,1,2.64907-3.53933c1.84366-2.10155,4.23265-4.23033,4.3189-7.24558a4.24792,4.24792,0,0,0-1.77149-3.71915,3.154,3.154,0,0,0-3.75062.18916,3.231,3.231,0,0,0-1.09265,1.92727c-.03329.20055-.08356.53089-.35321.53089s-.31993-.33034-.3532-.53089a3.231,3.231,0,0,0-1.09266-1.92727,3.154,3.154,0,0,0-3.75061-.18916,4.248,4.248,0,0,0-1.77149,3.71915c.08623,3.01525,2.47524,5.144,4.31888,7.24558A28.53923,28.53923,0,0,1,43.45211,71.01574Z"/><path class="cls-2" d="M13.32118,16.02655H8.58509l-.79985,2.85363H6.56887l3.0402-11.0955h2.68862l3.0402,11.0955H14.12152Zm-4.4641-1.10681h4.1926L11.36942,8.84353h-.83208Z"/><path class="cls-2" d="M10.95331,34.55586a19.02935,19.02935,0,0,1,1.76605-2.35956c1.22911-1.401,2.82177-2.82022,2.87927-4.83038a2.832,2.832,0,0,0-1.181-2.47944,2.1027,2.1027,0,0,0-2.50042.12611,2.154,2.154,0,0,0-.72843,1.28485c-.02219.1337-.05571.35392-.23548.35392s-.21328-.22022-.23546-.35392a2.154,2.154,0,0,0-.72844-1.28485A2.10268,2.10268,0,0,0,7.489,24.88648a2.832,2.832,0,0,0-1.181,2.47944c.05748,2.01016,1.65016,3.42935,2.87925,4.83038A19.02536,19.02536,0,0,1,10.95331,34.55586Z"/><path class="cls-2" d="M73.58318,110.97347h4.73658l.79985-2.85363H80.3355l-3.04021,11.09551H74.60765l-3.0402-11.09551h1.21589Zm4.46411,1.10681H73.85566l1.67977,6.07621h.83208Z"/><path class="cls-2" d="M75.95173,92.57756a19.02835,19.02835,0,0,1-1.766,2.35956c-1.22911,1.401-2.82177,2.82022-2.87927,4.83038a2.832,2.832,0,0,0,1.181,2.47944,2.10268,2.10268,0,0,0,2.50041-.12611,2.154,2.154,0,0,0,.72843-1.28485c.0222-.1337.05571-.35392.23548-.35392s.21328.22022.23546.35392a2.154,2.154,0,0,0,.72845,1.28485,2.10267,2.10267,0,0,0,2.5004.12611,2.832,2.832,0,0,0,1.181-2.47944c-.05748-2.01016-1.65016-3.42935-2.87925-4.83038A19.02735,19.02735,0,0,1,75.95173,92.57756Z"/></g></svg>