<svg xmlns="http://www.w3.org/2000/svg" viewBox="0 0 87 127"><defs><style>.cls-1{fill:#fff;}</style></defs><title>card-spades-2</title><g id="artwork"><rect class="cls-1" x="-0.00232" width="87" height="127" rx="6"/><path d="M15.25677,29.67252c-.41271-1.29958-1.61361-2.02692-2.55447-2.91268a8.29016,8.29016,0,0,1-1.70579-2.279,8.29036,8.29036,0,0,1-1.70579,2.279c-.94086.88576-2.14173,1.6131-2.55444,2.91268a2.73472,2.73472,0,0,0,1.4184,3.38817,1.97636,1.97636,0,0,0,2.29773-.48933,1.58017,1.58017,0,0,0,.28943-.568,2.48371,2.48371,0,0,1-.40855,1.50152,2.44762,2.44762,0,0,1-.66316.66456v.33238h2.65276v-.33238a2.44759,2.44759,0,0,1-.66319-.66456,2.48378,2.48378,0,0,1-.40855-1.50159,1.58055,1.58055,0,0,0,.28946.56807,1.97635,1.97635,0,0,0,2.29773.48933A2.73477,2.73477,0,0,0,15.25677,29.67252Z"/><path d="M7.62,17.83832,10.708,14.58346q.73611-.76919,1.1441-1.24284a5.01826,5.01826,0,0,0,.69584-1.05,2.62139,2.62139,0,0,0,.2881-1.18608,1.71575,1.71575,0,0,0-.544-1.43513,2.87787,2.87787,0,0,0-1.75985-.42521,11.55793,11.55793,0,0,0-2.32044.273l-.416.08025L7.7,8.57086A11.27661,11.27661,0,0,1,10.836,8.13832a3.71682,3.71682,0,0,1,2.45619.68894,2.67406,2.67406,0,0,1,.80815,2.149,3.784,3.784,0,0,1-.48,1.92395,10.12253,10.12253,0,0,1-1.72812,2.036L9.07609,17.806h5.29618v1.07451H7.62Z"/><path d="M71.7399,97.328c.41271,1.29959,1.61361,2.02693,2.55447,2.91269a8.29066,8.29066,0,0,1,1.70579,2.279,8.29026,8.29026,0,0,1,1.70579-2.279c.94086-.88576,2.14173-1.6131,2.55444-2.91269a2.73471,2.73471,0,0,0-1.4184-3.38816,1.97636,1.97636,0,0,0-2.29773.48933,1.58035,1.58035,0,0,0-.28944.568,2.48379,2.48379,0,0,1,.40856-1.50152,2.44748,2.44748,0,0,1,.66316-.66456v-.33239H74.67377v.33239a2.44776,2.44776,0,0,1,.6632.66456,2.48371,2.48371,0,0,1,.40854,1.50159,1.58036,1.58036,0,0,0-.28945-.56807,1.97635,1.97635,0,0,0-2.29773-.48933A2.73475,2.73475,0,0,0,71.7399,97.328Z"/><path d="M79.37574,109.16242l-3.08806,3.25487q-.73611.76919-1.1441,1.24284a5.00528,5.00528,0,0,0-.69584,1.05,2.62136,2.62136,0,0,0-.2881,1.18608,1.71407,1.71407,0,0,0,.544,1.43464,2.8742,2.8742,0,0,0,1.75985.4257,11.55728,11.55728,0,0,0,2.32044-.273l.416-.08024.09571,1.02656a11.27661,11.27661,0,0,1-3.13591.43255,3.71684,3.71684,0,0,1-2.45619-.68894,2.67408,2.67408,0,0,1-.80815-2.149,3.78274,3.78274,0,0,1,.48-1.924,10.13623,10.13623,0,0,1,1.72812-2.03649l2.81607-2.86929H72.62343V108.1202h6.75231Z"/><path d="M49.88806,21.68361c-.61906-1.94938-2.42041-3.04039-3.8317-4.369a12.43542,12.43542,0,0,1-2.55868-3.41851A12.43546,12.43546,0,0,1,40.939,17.31458c-1.41129,1.32864-3.2126,2.41965-3.83166,4.369a4.10208,4.10208,0,0,0,2.1276,5.08225,2.96455,2.96455,0,0,0,3.44659-.734,2.37053,2.37053,0,0,0,.43416-.852,3.72556,3.72556,0,0,1-.61284,2.25228,3.67136,3.67136,0,0,1-.99474.99684v.49858h3.97915V28.429a3.67168,3.67168,0,0,1-.99479-.99684,3.7256,3.7256,0,0,1-.61282-2.25239,2.37066,2.37066,0,0,0,.43418.85211,2.96454,2.96454,0,0,0,3.4466.734A4.10213,4.10213,0,0,0,49.88806,21.68361Z"/><path d="M37.10731,105.31639c.61906,1.94938,2.42041,3.04039,3.8317,4.369a12.43542,12.43542,0,0,1,2.55868,3.41851,12.43542,12.43542,0,0,1,2.55868-3.41851c1.4113-1.32864,3.2126-2.41965,3.83167-4.369a4.10208,4.10208,0,0,0-2.1276-5.08225,2.96456,2.96456,0,0,0-3.4466.734,2.37051,2.37051,0,0,0-.43415.852,3.72562,3.72562,0,0,1,.61283-2.25228,3.67139,3.67139,0,0,1,.99475-.99684v-.49858H41.50812V98.571a3.6715,3.6715,0,0,1,.99478.99684,3.72554,3.72554,0,0,1,.61283,2.25239,2.37084,2.37084,0,0,0-.43419-.85211,2.96454,2.96454,0,0,0-3.4466-.734A4.10213,4.10213,0,0,0,37.10731,105.31639Z"/></g></svg>