<svg xmlns="http://www.w3.org/2000/svg" viewBox="0 0 115 167"><defs><style>.cls-1{fill:#7376ff;}.cls-2{fill:#3a3799;}.cls-3{fill:#ff3b5c;}</style></defs><title>card-back</title><g id="artwork"><rect class="cls-1" width="115" height="167" rx="8"/><path d="M107.06852,2.64512a5.295,5.295,0,0,1,5.28765,5.29025V159.06463a5.295,5.295,0,0,1-5.28765,5.29025H7.93148a5.295,5.295,0,0,1-5.28765-5.29025V7.93537A5.295,5.295,0,0,1,7.93148,2.64512h99.137m0-2.64512H7.93148A7.95666,7.95666,0,0,0,0,7.93537V159.06463A7.95625,7.95625,0,0,0,7.93148,167h99.137A7.95666,7.95666,0,0,0,115,159.06463V7.93537A7.95708,7.95708,0,0,0,107.06852,0Z"/><path class="cls-2" d="M107.06852,6.61281a1.324,1.324,0,0,1,1.32191,1.32256V159.06463a1.324,1.324,0,0,1-1.32191,1.32256H7.93083a1.324,1.324,0,0,1-1.32191-1.32256V7.93537A1.324,1.324,0,0,1,7.93083,6.61281h99.13769m0-2.64513H7.93083A3.97147,3.97147,0,0,0,3.96509,7.93537V159.06463a3.97147,3.97147,0,0,0,3.96574,3.96769h99.13769a3.97105,3.97105,0,0,0,3.96574-3.96769V7.93537a3.97105,3.97105,0,0,0-3.96574-3.96769Z"/><rect class="cls-3" x="32.31926" y="152.1848" width="0.70551" height="6.78048"/><rect class="cls-3" x="82.33968" y="152.36723" width="0.70551" height="6.70151"/><path class="cls-3" d="M75.45807,141.86129a1.87272,1.87272,0,1,1-1.8717,1.87272,1.874,1.874,0,0,1,1.8717-1.87272m0-.77939a2.65211,2.65211,0,1,0,2.65,2.65211,2.65146,2.65146,0,0,0-2.65-2.65211Z"/><path class="cls-3" d="M75.45773,138.47031a2.78648,2.78648,0,0,1,2.65072,1.94852v-16.7157a2.65137,2.65137,0,0,0-2.65039-2.65218h-.00033a2.65137,2.65137,0,0,0-2.65039,2.65218v16.7157A2.78638,2.78638,0,0,1,75.45773,138.47031Z"/><path d="M78.44778,150.52158H77.769a2.31111,2.31111,0,1,0-4.62221,0H72.468a2.98988,2.98988,0,1,1,5.97975,0Z"/><rect class="cls-3" x="75.11852" y="82.08412" width="0.67877" height="29.46547"/><path class="cls-3" d="M75.45789,158.775a11.44663,11.44663,0,0,1,1.06386-1.41928c.74042-.84272,1.69984-1.69636,1.73447-2.90547a1.70251,1.70251,0,0,0-.71143-1.49139,1.26817,1.26817,0,0,0-1.50624.07586,1.29516,1.29516,0,0,0-.43881.77283c-.01337.08043-.03356.21289-.14185.21289s-.12848-.13246-.14184-.21289a1.29518,1.29518,0,0,0-.43882-.77283,1.26815,1.26815,0,0,0-1.50623-.07586,1.70251,1.70251,0,0,0-.71143,1.49139c.03462,1.20911.99405,2.06275,1.73446,2.90547A11.44464,11.44464,0,0,1,75.45789,158.775Z"/><path d="M78.02426,116.29976c-.24861-.7817-.972-1.21919-1.5388-1.752a4.98712,4.98712,0,0,1-1.02757-1.37082,4.98728,4.98728,0,0,1-1.02756,1.37082c-.56678.53279-1.29018.97028-1.5388,1.752a1.644,1.644,0,0,0,.85444,2.038,1.1918,1.1918,0,0,0,1.38416-.29433.95.95,0,0,0,.17435-.34166,1.49232,1.49232,0,0,1-.24611.90317,1.47339,1.47339,0,0,1-.39949.39973v.19993h1.598v-.19993a1.47343,1.47343,0,0,1-.3995-.39973,1.4923,1.4923,0,0,1-.24611-.90321.95018.95018,0,0,0,.17437.3417,1.19178,1.19178,0,0,0,1.38415.29433A1.64406,1.64406,0,0,0,78.02426,116.29976Z"/><path d="M70.96291,146.2753a3.03144,3.03144,0,0,0-2.65055,2.10024v.00068l-.00068.00067v-.00135a3.03133,3.03133,0,0,0-2.64987-2.10024Z"/><rect x="67.97291" y="150.29821" width="0.67877" height="8.69737"/><rect class="cls-3" x="67.97291" y="134.69272" width="0.67877" height="9.53703"/><rect class="cls-3" x="65.6618" y="98.67228" width="5.30114" height="0.67882"/><path class="cls-3" d="M68.31237,132.51615q-.67533-.82622-1.43077-1.58228-.75435-.75467-1.58139-1.43155.82575-.67567,1.58139-1.43153.75433-.75477,1.43077-1.58227.6753.82622,1.43074,1.58227.75435.75474,1.5814,1.43153-.82575.6757-1.5814,1.43155Q68.9889,131.68863,68.31237,132.51615Z"/><path d="M71.45817,94.31593a1.34106,1.34106,0,0,0-1.32315-.98786,1.24728,1.24728,0,0,0-.58221.17312c-.09413.05616-.27107.16563-.35227.02771-.07352-.12492.06069-.24147.141-.31846a1.33208,1.33208,0,0,0,.38416-.71494,1.4014,1.4014,0,0,0-.63148-1.42049,1.46839,1.46839,0,0,0-1.56374,0A1.4014,1.4014,0,0,0,66.899,92.4955a1.332,1.332,0,0,0,.38415.71494c.08032.077.21452.19354.141.31846-.08121.13792-.25814.02845-.35227-.02771a1.24725,1.24725,0,0,0-.58221-.17312,1.34108,1.34108,0,0,0-1.32316.98786A1.44836,1.44836,0,0,0,65.847,95.9384a1.47083,1.47083,0,0,0,2.15273-.90624h.11974A1.61556,1.61556,0,0,1,67.88,96.22827a1.59424,1.59424,0,0,1-.43229.43256v.21634H69.177v-.21634a1.59438,1.59438,0,0,1-.43229-.43256,1.61556,1.61556,0,0,1-.23949-1.19611H68.625a1.47081,1.47081,0,0,0,2.15272.90624A1.44834,1.44834,0,0,0,71.45817,94.31593Z"/><path d="M68.26706,100.89469h.09059a2.60526,2.60526,0,0,1,2.60526,2.60526V115.356a2.60525,2.60525,0,0,1-2.60525,2.60525h-.09059a2.60525,2.60525,0,0,1-2.60525-2.60525V103.49994A2.60525,2.60525,0,0,1,68.26706,100.89469Z"/><circle cx="68.31236" cy="122.34029" r="2.65115"/><path d="M68.26706,62.59827h.09059a2.60525,2.60525,0,0,1,2.60525,2.60525V86.7833a2.60526,2.60526,0,0,1-2.60526,2.60526h-.09059a2.60526,2.60526,0,0,1-2.60526-2.60526V65.20353A2.60525,2.60525,0,0,1,68.26706,62.59827Z"/><circle cx="68.31236" cy="41.52428" r="2.65115"/><path d="M68.31213,16.6976a1.8724,1.8724,0,1,1-1.871,1.87208,1.874,1.874,0,0,1,1.871-1.87208m0-.77939a2.65179,2.65179,0,1,0,2.65065,2.65147,2.65036,2.65036,0,0,0-2.65065-2.65147Z"/><path class="cls-3" d="M68.31253,47.13684a2.78647,2.78647,0,0,1-2.65072-1.94852V51.077a2.65137,2.65137,0,0,0,2.65038,2.65218h.00034A2.65137,2.65137,0,0,0,70.96291,51.077V45.18832A2.78636,2.78636,0,0,1,68.31253,47.13684Z"/><path d="M68.31229,37.39232a2.99394,2.99394,0,0,1-2.98987-2.9912h.67877a2.31119,2.31119,0,1,0,4.62237,0h.67877A2.994,2.994,0,0,1,68.31229,37.39232Z"/><rect x="67.59776" y="25.67636" width="0.67877" height="6.99096"/><rect class="cls-3" x="65.6618" y="22.83536" width="5.30114" height="0.67882"/><path class="cls-3" d="M68.31235,8.09788q.67533.82622,1.43076,1.58227.75437.75467,1.5814,1.43155-.82575.67568-1.5814,1.43154-.75432.75477-1.43076,1.58227-.6753-.82621-1.43075-1.58227-.75435-.75474-1.58139-1.43154Q66.126,10.436,66.8816,9.68015,67.63583,8.92541,68.31235,8.09788Z"/><path d="M65.16654,57.93445a1.3411,1.3411,0,0,0,1.32316.98787,1.24733,1.24733,0,0,0,.58221-.17313c.09413-.05616.27106-.16563.35226-.02771.07352.12492-.06068.24148-.141.31846a1.33205,1.33205,0,0,0-.38416.71494,1.40141,1.40141,0,0,0,.63147,1.42049,1.46841,1.46841,0,0,0,1.56375,0,1.4014,1.4014,0,0,0,.63147-1.42049,1.3321,1.3321,0,0,0-.38415-.71494c-.08033-.077-.21453-.19354-.141-.31846.0812-.13792.25814-.02845.35227.02771a1.24726,1.24726,0,0,0,.58221.17313,1.34111,1.34111,0,0,0,1.32316-.98787,1.44836,1.44836,0,0,0-.68049-1.62247,1.47082,1.47082,0,0,0-2.15273.90625h-.11974a1.61558,1.61558,0,0,1,.23949-1.19612,1.59406,1.59406,0,0,1,.43229-.43255v-.21635H67.44772v.21635a1.59434,1.59434,0,0,1,.43229.43255,1.61562,1.61562,0,0,1,.23949,1.19612h-.11975A1.47081,1.47081,0,0,0,65.847,56.312,1.44836,1.44836,0,0,0,65.16654,57.93445Z"/><rect x="58.51641" y="125.88431" width="5.3011" height="18.69611" rx="2.65055"/><path class="cls-3" d="M61.12153,78.44841h.09059a2.60525,2.60525,0,0,1,2.60525,2.60525v21.57977a2.60525,2.60525,0,0,1-2.60525,2.60525h-.09059a2.60526,2.60526,0,0,1-2.60526-2.60526V81.05366a2.60526,2.60526,0,0,1,2.60526-2.60526Z"/><path class="cls-3" d="M61.16684,154.45011a1.87241,1.87241,0,1,1-1.87169,1.87273,1.87418,1.87418,0,0,1,1.87169-1.87273m0-.77938a2.65179,2.65179,0,1,0,2.65065,2.65211,2.65146,2.65146,0,0,0-2.65065-2.65211Z"/><path d="M61.167,115.35777a2.78649,2.78649,0,0,1-2.65072-1.94853V119.298a2.65137,2.65137,0,0,0,2.65039,2.65218H61.167a2.65137,2.65137,0,0,0,2.65039-2.65218v-5.88871A2.78639,2.78639,0,0,1,61.167,115.35777Z"/><rect x="58.51635" y="123.56694" width="5.30098" height="0.67882"/><path class="cls-3" d="M61.16682,112.76588a11.44628,11.44628,0,0,1,1.06386-1.41927c.74042-.84272,1.69984-1.69636,1.73447-2.90548a1.7025,1.7025,0,0,0-.71143-1.49138,1.26815,1.26815,0,0,0-1.50624.07586,1.29516,1.29516,0,0,0-.43881.77283c-.01337.08042-.03356.21289-.14185.21289s-.12848-.13247-.14184-.21289a1.29518,1.29518,0,0,0-.43882-.77283,1.26815,1.26815,0,0,0-1.50624-.07586,1.70252,1.70252,0,0,0-.71143,1.49138c.03463,1.20912.99406,2.06276,1.73446,2.90548A11.44436,11.44436,0,0,1,61.16682,112.76588Z"/><path d="M63.73319,149.23049c-.24861-.78171-.972-1.2192-1.53881-1.752a4.98718,4.98718,0,0,1-1.02756-1.37083,4.98718,4.98718,0,0,1-1.02756,1.37083c-.56678.53278-1.29018.97027-1.5388,1.752a1.644,1.644,0,0,0,.85444,2.038,1.1918,1.1918,0,0,0,1.38416-.29433.9502.9502,0,0,0,.17435-.34166,1.49228,1.49228,0,0,1-.24611.90317,1.47339,1.47339,0,0,1-.39949.39973v.19993h1.598v-.19993a1.47343,1.47343,0,0,1-.3995-.39973,1.4923,1.4923,0,0,1-.24611-.90321.95.95,0,0,0,.17436.3417,1.1918,1.1918,0,0,0,1.38416.29433A1.644,1.644,0,0,0,63.73319,149.23049Z"/><rect x="58.51631" y="8.09004" width="5.3011" height="24.55743" rx="2.60526"/><circle cx="61.16682" cy="56.47551" r="2.65115"/><path class="cls-3" d="M61.167,69.50285a2.78648,2.78648,0,0,1-2.65072-1.94852v6.49021a2.65138,2.65138,0,0,0,2.65039,2.65218H61.167a2.65138,2.65138,0,0,0,2.65039-2.65218V67.55433A2.78638,2.78638,0,0,1,61.167,69.50285Z"/><path d="M58.51627,44.12142a3.03143,3.03143,0,0,0,2.65055-2.10024v-.00067l.00068-.00068v.00135a3.03134,3.03134,0,0,0,2.64988,2.10024Z"/><rect x="60.82746" y="45.41731" width="0.67877" height="6.99096"/><path class="cls-3" d="M61.16683,34.20128A11.44635,11.44635,0,0,1,60.103,35.62055c-.74041.84272-1.69983,1.69637-1.73447,2.90548a1.70251,1.70251,0,0,0,.71143,1.49138,1.26817,1.26817,0,0,0,1.50625-.07585,1.29516,1.29516,0,0,0,.43881-.77284c.01337-.08042.03355-.21288.14185-.21288s.12848.13246.14184.21288a1.29521,1.29521,0,0,0,.43881.77284,1.26815,1.26815,0,0,0,1.50624.07585,1.70248,1.70248,0,0,0,.71143-1.49138c-.03463-1.20911-.99405-2.06276-1.73446-2.90548A11.44528,11.44528,0,0,1,61.16683,34.20128Z"/><path d="M58.60045,63.64964c.24862.78171.972,1.2192,1.53881,1.752a4.98732,4.98732,0,0,1,1.02757,1.37082,4.98728,4.98728,0,0,1,1.02756-1.37082c.56678-.53279,1.29018-.97028,1.5388-1.752a1.644,1.644,0,0,0-.85445-2.038,1.19179,1.19179,0,0,0-1.38415.29433.95.95,0,0,0-.17435.34166,1.4923,1.4923,0,0,1,.24611-.90317,1.47339,1.47339,0,0,1,.39949-.39973v-.19993h-1.598v.19993a1.47343,1.47343,0,0,1,.3995.39973,1.4923,1.4923,0,0,1,.24611.90321.95018.95018,0,0,0-.17437-.3417,1.19178,1.19178,0,0,0-1.38415-.29433A1.64405,1.64405,0,0,0,58.60045,63.64964Z"/><path d="M82.55813,113.10382h.09059a2.60526,2.60526,0,0,1,2.60526,2.60526v21.57977a2.60525,2.60525,0,0,1-2.60525,2.60525h-.09059a2.60526,2.60526,0,0,1-2.60526-2.60526V115.70907a2.60525,2.60525,0,0,1,2.60525-2.60525Z"/><path d="M82.60336,101.972a2.99394,2.99394,0,0,1-2.98988-2.9912h.67877a2.31119,2.31119,0,1,0,4.62237,0h.67877A2.994,2.994,0,0,1,82.60336,101.972Z"/><rect x="79.95287" y="103.43886" width="5.30114" height="0.67882"/><path class="cls-3" d="M82.60344,111.77024q-.67533-.82621-1.43076-1.58227-.75436-.75467-1.5814-1.43155.82575-.67567,1.5814-1.43154.75432-.75476,1.43076-1.58227.6753.82622,1.43074,1.58227.75435.75476,1.5814,1.43154-.82575.6757-1.5814,1.43155Q83.28,110.94271,82.60344,111.77024Z"/><path d="M85.74925,144.65771a1.3411,1.3411,0,0,0-1.32316-.98787,1.24733,1.24733,0,0,0-.58221.17313c-.09413.05616-.27106.16563-.35226.02771-.07353-.12492.06068-.24147.141-.31846a1.33208,1.33208,0,0,0,.38416-.71494,1.4014,1.4014,0,0,0-.63148-1.42049,1.46839,1.46839,0,0,0-1.56374,0,1.4014,1.4014,0,0,0-.63147,1.42049,1.33207,1.33207,0,0,0,.38415.71494c.08032.077.21452.19354.141.31846-.08121.13792-.25814.02845-.35227-.02771a1.24726,1.24726,0,0,0-.58221-.17313,1.3411,1.3411,0,0,0-1.32316.98787,1.44836,1.44836,0,0,0,.68049,1.62247,1.47083,1.47083,0,0,0,2.15273-.90625h.11974a1.61558,1.61558,0,0,1-.23949,1.19612,1.59424,1.59424,0,0,1-.43229.43256v.21634h1.72928v-.21634a1.59438,1.59438,0,0,1-.43229-.43256,1.61558,1.61558,0,0,1-.23949-1.19612H82.916a1.47081,1.47081,0,0,0,2.15272.90625A1.44836,1.44836,0,0,0,85.74925,144.65771Z"/><path class="cls-3" d="M82.55813,80.52022h.09059A2.60526,2.60526,0,0,1,85.254,83.12547V94.98153a2.60525,2.60525,0,0,1-2.60525,2.60525h-.09059a2.60526,2.60526,0,0,1-2.60526-2.60526V83.12547a2.60525,2.60525,0,0,1,2.60525-2.60525Z"/><path d="M85.254,148.67461a3.03144,3.03144,0,0,0-2.65055,2.10024v.00067l-.00068.00068v-.00135a3.03133,3.03133,0,0,0-2.64987-2.10024Z"/><path d="M82.55813,18.98h.09059A2.60526,2.60526,0,0,1,85.254,21.58524V43.165a2.60525,2.60525,0,0,1-2.60525,2.60525h-.09059A2.60526,2.60526,0,0,1,79.95288,43.165V21.58524A2.60526,2.60526,0,0,1,82.55813,18.98Z"/><path d="M85.59339,59.89337h-.67877a2.31119,2.31119,0,1,0-4.62237,0h-.67877a2.99,2.99,0,1,1,5.97991,0Z"/><rect x="79.95287" y="54.75643" width="5.30114" height="0.67882"/><path class="cls-3" d="M82.60342,47.10384q.67533.82621,1.43076,1.58227.75436.75467,1.5814,1.43155-.82575.67567-1.5814,1.43154-.75432.75477-1.43076,1.58227-.6753-.82621-1.43074-1.58227-.75436-.75475-1.5814-1.43154.82575-.67571,1.5814-1.43155Q81.9269,47.93137,82.60342,47.10384Z"/><path d="M79.45761,14.21637a1.3411,1.3411,0,0,0,1.32316.98787,1.24733,1.24733,0,0,0,.58221-.17313c.09413-.05616.27106-.16563.35226-.02771.07353.12492-.06068.24147-.141.31846a1.33208,1.33208,0,0,0-.38416.71494,1.4014,1.4014,0,0,0,.63148,1.42049,1.46839,1.46839,0,0,0,1.56374,0,1.4014,1.4014,0,0,0,.63147-1.42049,1.33207,1.33207,0,0,0-.38415-.71494c-.08033-.077-.21452-.19354-.141-.31846.08121-.13792.25814-.02845.35227.02771a1.24726,1.24726,0,0,0,.58221.17313,1.34111,1.34111,0,0,0,1.32316-.98787,1.44836,1.44836,0,0,0-.68049-1.62247,1.47082,1.47082,0,0,0-2.15273.90625h-.11974a1.61558,1.61558,0,0,1,.23949-1.19612,1.59438,1.59438,0,0,1,.43229-.43256v-.21634H81.73879v.21634a1.59452,1.59452,0,0,1,.43229.43256,1.61558,1.61558,0,0,1,.23949,1.19612h-.11975a1.47081,1.47081,0,0,0-2.15272-.90625A1.44836,1.44836,0,0,0,79.45761,14.21637Z"/><path class="cls-3" d="M82.55813,61.2873h.09059A2.60526,2.60526,0,0,1,85.254,63.89255V75.74861a2.60526,2.60526,0,0,1-2.60526,2.60526h-.09059a2.60526,2.60526,0,0,1-2.60526-2.60526V63.89255a2.60525,2.60525,0,0,1,2.60525-2.60525Z"/><path d="M79.95288,10.19947a3.03144,3.03144,0,0,0,2.65055-2.10024V8.09856l.00068-.00068v.00135A3.03133,3.03133,0,0,0,85.254,10.19947Z"/><path d="M96.94562,82.04h.09059a2.60525,2.60525,0,0,1,2.60525,2.60525V106.225a2.60526,2.60526,0,0,1-2.60526,2.60526h-.09059a2.60526,2.60526,0,0,1-2.60526-2.60526V84.64526A2.60525,2.60525,0,0,1,96.94562,82.04Z"/><circle cx="96.99091" cy="129.90428" r="2.65115"/><path d="M96.99123,146.6601a1.87273,1.87273,0,1,1-1.8717,1.87272,1.874,1.874,0,0,1,1.8717-1.87272m0-.77939a2.65211,2.65211,0,1,0,2.65,2.65211,2.65147,2.65147,0,0,0-2.65-2.65211Z"/><path class="cls-3" d="M96.99075,124.29172a2.78648,2.78648,0,0,1,2.65072,1.94852v-5.88871a2.65138,2.65138,0,0,0-2.65039-2.65218h-.00033a2.65138,2.65138,0,0,0-2.65039,2.65218v5.88871A2.78638,2.78638,0,0,1,96.99075,124.29172Z"/><path d="M99.98078,137.02766H99.302a2.31111,2.31111,0,1,0-4.62221,0H94.001a2.98988,2.98988,0,1,1,5.97975,0Z"/><rect x="96.65152" y="138.76114" width="0.67877" height="2.96251"/><rect class="cls-3" x="94.34041" y="143.58832" width="5.30098" height="0.67882"/><path class="cls-3" d="M96.99092,159.00488q-.67533-.82622-1.43076-1.58227-.75435-.75466-1.5814-1.43155.82575-.67568,1.5814-1.43154.75432-.75477,1.43076-1.58227.67531.82622,1.43075,1.58227.75435.75474,1.5814,1.43154-.82576.6757-1.5814,1.43155Q97.66744,158.17735,96.99092,159.00488Z"/><path d="M100.13673,113.49411a1.3411,1.3411,0,0,0-1.32315-.98787,1.24726,1.24726,0,0,0-.58221.17313c-.09413.05616-.27107.16563-.35227.02771-.07352-.12492.06069-.24147.141-.31846a1.33207,1.33207,0,0,0,.38415-.71494,1.40141,1.40141,0,0,0-.63147-1.42049,1.46839,1.46839,0,0,0-1.56374,0,1.4014,1.4014,0,0,0-.63147,1.42049,1.33205,1.33205,0,0,0,.38414.71494c.08033.077.21453.19354.141.31846-.08121.13792-.25815.02845-.35228-.02771a1.24726,1.24726,0,0,0-.58221-.17313,1.34109,1.34109,0,0,0-1.32315.98787,1.44836,1.44836,0,0,0,.68049,1.62247,1.47082,1.47082,0,0,0,2.15272-.90625h.11974a1.61548,1.61548,0,0,1-.23949,1.19612,1.5942,1.5942,0,0,1-.43228.43256v.21634h1.72927V115.839a1.59448,1.59448,0,0,1-.43228-.43256,1.61558,1.61558,0,0,1-.2395-1.19612h.11976a1.4708,1.4708,0,0,0,2.15271.90625A1.44836,1.44836,0,0,0,100.13673,113.49411Z"/><path d="M94.244,24.86a3.03144,3.03144,0,0,0,2.65055-2.10024V22.759l.00068-.00067v.00135A3.03133,3.03133,0,0,0,99.54505,24.86Z"/><rect x="96.55504" y="11.88847" width="0.67877" height="8.94846"/><rect class="cls-3" x="96.55504" y="26.90571" width="0.67877" height="9.53703"/><rect class="cls-3" x="94.24393" y="71.78436" width="5.30114" height="0.67882"/><path class="cls-3" d="M96.89449,38.61911q.67533.8262,1.43077,1.58227.75435.75467,1.58139,1.43155-.82575.67567-1.58139,1.43153-.75433.75477-1.43077,1.58227-.6753-.8262-1.43074-1.58227-.75435-.75474-1.5814-1.43153.82575-.67571,1.5814-1.43155Q96.218,39.44663,96.89449,38.61911Z"/><path d="M93.74869,76.81932a1.34108,1.34108,0,0,0,1.32315.98787,1.2473,1.2473,0,0,0,.58221-.17313c.09413-.05616.27107-.16563.35226-.02771.07353.12492-.06068.24147-.141.31846a1.33208,1.33208,0,0,0-.38416.71494,1.4014,1.4014,0,0,0,.63148,1.42049,1.46839,1.46839,0,0,0,1.56374,0,1.4014,1.4014,0,0,0,.63147-1.42049,1.332,1.332,0,0,0-.38415-.71494c-.08032-.077-.21452-.19354-.141-.31846.08121-.13792.25814-.02845.35227.02771a1.24726,1.24726,0,0,0,.58221.17313,1.3411,1.3411,0,0,0,1.32316-.98787,1.44836,1.44836,0,0,0-.68049-1.62247,1.47083,1.47083,0,0,0-2.15273.90625h-.11974a1.61558,1.61558,0,0,1,.23949-1.19612,1.59424,1.59424,0,0,1,.43229-.43256v-.21634H96.02986v.21634a1.59438,1.59438,0,0,1,.43229.43256,1.61558,1.61558,0,0,1,.23949,1.19612h-.11975a1.47081,1.47081,0,0,0-2.15272-.90625A1.44834,1.44834,0,0,0,93.74869,76.81932Z"/><path d="M96.8492,53.174h.09059a2.60526,2.60526,0,0,1,2.60526,2.60526V67.63531a2.60526,2.60526,0,0,1-2.60526,2.60526H96.8492a2.60525,2.60525,0,0,1-2.60525-2.60525V55.77925A2.60525,2.60525,0,0,1,96.8492,53.174Z"/><circle cx="96.8945" cy="48.79496" r="2.65115"/><path class="cls-3" d="M99.54505,8.09788a3.03144,3.03144,0,0,0-2.65055,2.10024v.00068l-.00068.00067v-.00135A3.03133,3.03133,0,0,0,94.244,8.09788Z"/><rect class="cls-3" x="75.11852" y="44.39843" width="0.67877" height="17.4895"/><path class="cls-3" d="M75.4126,18.22065h.09059a2.60525,2.60525,0,0,1,2.60525,2.60525V32.682a2.60526,2.60526,0,0,1-2.60526,2.60526H75.4126A2.60525,2.60525,0,0,1,72.80734,32.682V20.8259A2.60526,2.60526,0,0,1,75.4126,18.22065Z"/><circle cx="75.45789" cy="66.66813" r="2.65115"/><path d="M75.45806,10.04641a2.78649,2.78649,0,0,1-2.65072-1.94853v5.88871a2.65137,2.65137,0,0,0,2.65039,2.65218h.00033a2.65137,2.65137,0,0,0,2.65039-2.65218V8.09788A2.78639,2.78639,0,0,1,75.45806,10.04641Z"/><path d="M72.80734,80.21923A3.03143,3.03143,0,0,0,75.45789,78.119v-.00068l.00068-.00067V78.119a3.03134,3.03134,0,0,0,2.64988,2.10024Z"/><path class="cls-3" d="M75.4579,70.73787A11.44635,11.44635,0,0,1,74.394,72.15714c-.74041.84272-1.69983,1.69637-1.73446,2.90548A1.70248,1.70248,0,0,0,73.371,76.554a1.26817,1.26817,0,0,0,1.50624-.07585,1.29516,1.29516,0,0,0,.43881-.77284c.01337-.08042.03356-.21289.14185-.21289s.12848.13247.14184.21289a1.29521,1.29521,0,0,0,.43881.77284,1.26817,1.26817,0,0,0,1.50624.07585,1.70248,1.70248,0,0,0,.71143-1.49138c-.03462-1.20911-.99405-2.06276-1.73446-2.90548A11.44528,11.44528,0,0,1,75.4579,70.73787Z"/><path d="M72.89152,39.84791c.24862.7817.972,1.2192,1.53881,1.752a4.98712,4.98712,0,0,1,1.02757,1.37082,4.98728,4.98728,0,0,1,1.02756-1.37082c.56678-.53278,1.29018-.97028,1.5388-1.752a1.644,1.644,0,0,0-.85445-2.038,1.19179,1.19179,0,0,0-1.38415.29433.95.95,0,0,0-.17435.34165,1.49227,1.49227,0,0,1,.24611-.90316,1.47325,1.47325,0,0,1,.39949-.39973v-.19993h-1.598V37.143a1.47329,1.47329,0,0,1,.3995.39973,1.49226,1.49226,0,0,1,.24611.90321.95018.95018,0,0,0-.17437-.3417,1.19178,1.19178,0,0,0-1.38415-.29433A1.64405,1.64405,0,0,0,72.89152,39.84791Z"/><rect class="cls-3" x="89.40958" y="105.05502" width="0.67877" height="17.4895"/><path class="cls-3" d="M89.70367,131.656h.09059a2.60526,2.60526,0,0,1,2.60526,2.60526v11.85605a2.60526,2.60526,0,0,1-2.60526,2.60526h-.09059a2.60525,2.60525,0,0,1-2.60525-2.60525V134.26122a2.60526,2.60526,0,0,1,2.60526-2.60526Z"/><circle cx="89.74897" cy="100.27504" r="2.65115"/><path d="M89.7488,156.89677a2.78648,2.78648,0,0,1,2.65072,1.94852v-5.88871a2.65138,2.65138,0,0,0-2.65039-2.65218H89.7488a2.65138,2.65138,0,0,0-2.65039,2.65218v5.88871A2.78638,2.78638,0,0,1,89.7488,156.89677Z"/><path d="M92.39952,86.84865A3.03143,3.03143,0,0,0,89.749,88.94889v.00067l-.00068.00068v-.00135a3.03134,3.03134,0,0,0-2.64988-2.10024Z"/><path class="cls-3" d="M89.749,96.2053A11.44635,11.44635,0,0,1,90.81283,94.786c.74041-.84272,1.69983-1.69636,1.73446-2.90548a1.7025,1.7025,0,0,0-.71143-1.49138,1.26815,1.26815,0,0,0-1.50624.07586,1.29516,1.29516,0,0,0-.43881.77283c-.01337.08042-.03356.21289-.14185.21289s-.12848-.13247-.14184-.21289a1.29518,1.29518,0,0,0-.43882-.77283,1.26814,1.26814,0,0,0-1.50623-.07586,1.7025,1.7025,0,0,0-.71143,1.49138c.03462,1.20912.994,2.06276,1.73446,2.90548A11.44528,11.44528,0,0,1,89.749,96.2053Z"/><path d="M92.31533,127.09526c-.24861-.7817-.972-1.21919-1.5388-1.752a4.98712,4.98712,0,0,1-1.02757-1.37082,4.98728,4.98728,0,0,1-1.02756,1.37082c-.56678.53279-1.29018.97028-1.5388,1.752a1.644,1.644,0,0,0,.85445,2.038,1.19179,1.19179,0,0,0,1.38415-.29433.95.95,0,0,0,.17435-.34165,1.49227,1.49227,0,0,1-.24611.90316,1.47343,1.47343,0,0,1-.39949.39974v.19993h1.598v-.19993a1.47347,1.47347,0,0,1-.3995-.39974,1.49226,1.49226,0,0,1-.24611-.90321.95018.95018,0,0,0,.17437.3417,1.19178,1.19178,0,0,0,1.38415.29433A1.644,1.644,0,0,0,92.31533,127.09526Z"/><path class="cls-3" d="M89.74865,25.01752a1.87273,1.87273,0,1,1-1.871,1.87272,1.87417,1.87417,0,0,1,1.871-1.87272m0-.77939a2.65211,2.65211,0,1,0,2.65065,2.65211,2.65132,2.65132,0,0,0-2.65065-2.65211Z"/><path class="cls-3" d="M89.74913,32.154a2.78649,2.78649,0,0,1-2.65072-1.94853V46.9212a2.65137,2.65137,0,0,0,2.65039,2.65218h.00033a2.65137,2.65137,0,0,0,2.65039-2.65218V30.20549A2.78639,2.78639,0,0,1,89.74913,32.154Z"/><path d="M89.749,23.09419a2.994,2.994,0,0,1-2.98988-2.9912h.67877a2.31111,2.31111,0,1,0,4.62221,0h.67877A2.99394,2.99394,0,0,1,89.749,23.09419Z"/><path d="M92.73884,10.75h-.67877a2.31111,2.31111,0,1,0-4.62221,0h-.67877a2.98988,2.98988,0,1,1,5.97975,0Z"/><rect class="cls-3" x="89.40958" y="59.07466" width="0.67877" height="25.49515"/><path class="cls-3" d="M89.749,11.84933a11.44812,11.44812,0,0,1-1.06386,1.41928c-.74042.84272-1.69984,1.69636-1.73447,2.90547a1.70248,1.70248,0,0,0,.71143,1.49138,1.26815,1.26815,0,0,0,1.50624-.07585,1.29516,1.29516,0,0,0,.43881-.77284c.01337-.08042.03356-.21288.14185-.21288s.12848.13246.14184.21288a1.29517,1.29517,0,0,0,.43882.77284,1.26814,1.26814,0,0,0,1.50623.07585,1.70248,1.70248,0,0,0,.71143-1.49138c-.03462-1.20911-.99405-2.06275-1.73446-2.90547A11.44613,11.44613,0,0,1,89.749,11.84933Z"/><path d="M87.1826,54.32456c.24861.78171.972,1.2192,1.5388,1.752A4.987,4.987,0,0,1,89.749,57.44737a4.98718,4.98718,0,0,1,1.02756-1.37083c.56678-.53278,1.29018-.97027,1.5388-1.752a1.644,1.644,0,0,0-.85444-2.038,1.1918,1.1918,0,0,0-1.38416.29433.95.95,0,0,0-.17435.34166,1.49228,1.49228,0,0,1,.24611-.90317,1.47339,1.47339,0,0,1,.39949-.39973v-.19993H88.95v.19993a1.47343,1.47343,0,0,1,.3995.39973,1.4923,1.4923,0,0,1,.24611.90321.95.95,0,0,0-.17437-.3417,1.19178,1.19178,0,0,0-1.38415-.29433A1.644,1.644,0,0,0,87.1826,54.32456Z"/><path d="M103.99484,135.99349h.09059a2.60526,2.60526,0,0,1,2.60526,2.60526v18.03752a2.60526,2.60526,0,0,1-2.60526,2.60526h-.09059a2.60525,2.60525,0,0,1-2.60525-2.60525V138.59874A2.60526,2.60526,0,0,1,103.99484,135.99349Z"/><circle cx="104.04004" cy="112.16525" r="2.65115"/><path class="cls-3" d="M104.03987,99.13791a2.78648,2.78648,0,0,1,2.65072,1.94852V94.59622A2.65138,2.65138,0,0,0,104.0402,91.944h-.00033a2.65138,2.65138,0,0,0-2.65039,2.65218v6.49021A2.78638,2.78638,0,0,1,104.03987,99.13791Z"/><path d="M106.69059,124.51934a3.03143,3.03143,0,0,0-2.65055,2.10024v.00067l-.00068.00068v-.00135a3.03134,3.03134,0,0,0-2.64988-2.10024Z"/><rect x="103.70065" y="116.23237" width="0.67877" height="6.99096"/><path class="cls-3" d="M104.04,134.43948a11.44635,11.44635,0,0,1,1.06387-1.41927c.74041-.84272,1.69983-1.69637,1.73447-2.90548a1.70251,1.70251,0,0,0-.71143-1.49138,1.26818,1.26818,0,0,0-1.50625.07585,1.29516,1.29516,0,0,0-.43881.77284c-.01337.08042-.03355.21288-.14185.21288s-.12848-.13246-.14184-.21288a1.29521,1.29521,0,0,0-.43881-.77284,1.26817,1.26817,0,0,0-1.50624-.07585,1.70248,1.70248,0,0,0-.71143,1.49138c.03463,1.20911.99405,2.06276,1.73446,2.90548A11.44528,11.44528,0,0,1,104.04,134.43948Z"/><path d="M106.60641,104.99112c-.24862-.78171-.972-1.2192-1.53881-1.752a4.98732,4.98732,0,0,1-1.02757-1.37082,4.98728,4.98728,0,0,1-1.02756,1.37082c-.56678.53279-1.29018.97028-1.5388,1.752a1.644,1.644,0,0,0,.85445,2.038,1.19179,1.19179,0,0,0,1.38415-.29433.95.95,0,0,0,.17435-.34166,1.49228,1.49228,0,0,1-.24611.90317,1.47339,1.47339,0,0,1-.39949.39973v.19993h1.598V107.696a1.47343,1.47343,0,0,1-.3995-.39973,1.4923,1.4923,0,0,1-.24611-.90321.95018.95018,0,0,0,.17437.3417,1.19178,1.19178,0,0,0,1.38415.29433A1.64405,1.64405,0,0,0,106.60641,104.99112Z"/><path d="M103.99474,25.88687h.09059a2.60526,2.60526,0,0,1,2.60526,2.60526V40.1625a2.60526,2.60526,0,0,1-2.60526,2.60526h-.09059a2.60525,2.60525,0,0,1-2.60525-2.60525V28.49212a2.60526,2.60526,0,0,1,2.60526-2.60526Z"/><path class="cls-3" d="M103.99474,63.47636h.09059a2.60526,2.60526,0,0,1,2.60526,2.60526V87.66138a2.60525,2.60525,0,0,1-2.60525,2.60525h-.09059a2.60526,2.60526,0,0,1-2.60526-2.60526V66.08161a2.60525,2.60525,0,0,1,2.60525-2.60525Z"/><path class="cls-3" d="M104.03987,8.87728a1.87241,1.87241,0,1,1-1.871,1.87273,1.87418,1.87418,0,0,1,1.871-1.87273m0-.77938A2.65179,2.65179,0,1,0,106.69052,10.75a2.65091,2.65091,0,0,0-2.65065-2.65211Z"/><path d="M104.03987,53.35727a2.78649,2.78649,0,0,1,2.65072,1.94853V49.41709a2.65138,2.65138,0,0,0-2.65039-2.65218h-.00033a2.65138,2.65138,0,0,0-2.65039,2.65218V55.3058A2.78639,2.78639,0,0,1,104.03987,53.35727Z"/><rect x="101.38954" y="44.46935" width="5.30098" height="0.67882"/><rect class="cls-3" x="101.38954" y="15.56139" width="5.30098" height="0.67882"/><path class="cls-3" d="M104.04,55.94916a11.44628,11.44628,0,0,1-1.06386,1.41927c-.74042.84272-1.69984,1.69637-1.73447,2.90548a1.70248,1.70248,0,0,0,.71143,1.49138,1.26817,1.26817,0,0,0,1.50624-.07585,1.29516,1.29516,0,0,0,.43881-.77284c.01337-.08042.03356-.21289.14185-.21289s.12848.13247.14184.21289a1.29517,1.29517,0,0,0,.43882.77284,1.26817,1.26817,0,0,0,1.50624.07585,1.70251,1.70251,0,0,0,.71143-1.49138c-.03463-1.20911-.99406-2.06276-1.73446-2.90548A11.44436,11.44436,0,0,1,104.04,55.94916Z"/><path d="M101.47367,21.23678c.24861.7817.972,1.21919,1.53881,1.752A4.98728,4.98728,0,0,1,104.04,24.35958a4.98728,4.98728,0,0,1,1.02756-1.37082c.56678-.53279,1.29018-.97028,1.5388-1.752a1.644,1.644,0,0,0-.85444-2.038,1.1918,1.1918,0,0,0-1.38416.29433.95.95,0,0,0-.17435.34165,1.49227,1.49227,0,0,1,.24611-.90316,1.47343,1.47343,0,0,1,.39949-.39974V18.332h-1.598v.19993a1.47347,1.47347,0,0,1,.3995.39974,1.49226,1.49226,0,0,1,.24611.90321.95.95,0,0,0-.17436-.3417,1.1918,1.1918,0,0,0-1.38416-.29433A1.644,1.644,0,0,0,101.47367,21.23678Z"/><path d="M20.94416,146.2753a3.03144,3.03144,0,0,0-2.65055,2.10024v.00068l-.00067.00067v-.00135a3.03135,3.03135,0,0,0-2.64988-2.10024Z"/><rect x="17.95427" y="150.29821" width="0.67877" height="8.61227"/><rect class="cls-3" x="17.95427" y="134.69272" width="0.67877" height="9.53703"/><rect class="cls-3" x="15.643" y="98.67228" width="5.30114" height="0.67882"/><path class="cls-3" d="M18.29362,132.51615q-.67533-.82622-1.43076-1.58228-.75435-.75467-1.5814-1.43155.82575-.67567,1.5814-1.43153.75432-.75477,1.43076-1.58227.6753.82622,1.43075,1.58227.75435.75474,1.5814,1.43153-.82577.6757-1.5814,1.43155Q18.97014,131.68863,18.29362,132.51615Z"/><path d="M21.43943,94.31593a1.34108,1.34108,0,0,0-1.32316-.98786,1.24732,1.24732,0,0,0-.58221.17312c-.09413.05616-.27106.16563-.35226.02771-.07352-.12492.06069-.24147.141-.31846a1.332,1.332,0,0,0,.38416-.71494,1.40141,1.40141,0,0,0-.63147-1.42049,1.46839,1.46839,0,0,0-1.56374,0,1.40139,1.40139,0,0,0-.63148,1.42049,1.33207,1.33207,0,0,0,.38415.71494c.08033.077.21453.19354.141.31846-.0812.13792-.25814.02845-.35227-.02771a1.24725,1.24725,0,0,0-.58221-.17312,1.34107,1.34107,0,0,0-1.32315.98786,1.44834,1.44834,0,0,0,.68049,1.62247,1.47082,1.47082,0,0,0,2.15272-.90624h.11974a1.61551,1.61551,0,0,1-.23949,1.19611,1.5941,1.5941,0,0,1-.43229.43256v.21634h1.72928v-.21634a1.59434,1.59434,0,0,1-.43228-.43256,1.61556,1.61556,0,0,1-.2395-1.19611h.11975a1.47082,1.47082,0,0,0,2.15272.90624A1.44836,1.44836,0,0,0,21.43943,94.31593Z"/><path d="M18.24831,100.89469h.09059a2.60526,2.60526,0,0,1,2.60526,2.60526V115.356a2.60526,2.60526,0,0,1-2.60526,2.60526h-.09059a2.60525,2.60525,0,0,1-2.60525-2.60525V103.49994a2.60525,2.60525,0,0,1,2.60525-2.60525Z"/><circle cx="18.29361" cy="122.34029" r="2.65115"/><path d="M18.24832,62.59827h.09059a2.60525,2.60525,0,0,1,2.60525,2.60525V86.7833a2.60526,2.60526,0,0,1-2.60526,2.60526h-.09059a2.60526,2.60526,0,0,1-2.60526-2.60526V65.20353A2.60526,2.60526,0,0,1,18.24832,62.59827Z"/><circle cx="18.29361" cy="41.52428" r="2.65115"/><path d="M18.29381,16.6976a1.8724,1.8724,0,1,1-1.87169,1.87208,1.8739,1.8739,0,0,1,1.87169-1.87208m0-.77939a2.65179,2.65179,0,1,0,2.65,2.65147,2.65091,2.65091,0,0,0-2.65-2.65147Z"/><path class="cls-3" d="M18.29378,47.13684a2.78647,2.78647,0,0,1-2.65072-1.94852V51.077a2.65137,2.65137,0,0,0,2.65038,2.65218h.00034A2.65137,2.65137,0,0,0,20.94416,51.077V45.18832A2.78636,2.78636,0,0,1,18.29378,47.13684Z"/><path d="M18.29365,37.39232a2.994,2.994,0,0,1-2.99-2.9912h.67877a2.31119,2.31119,0,1,0,4.62238,0h.67877A2.994,2.994,0,0,1,18.29365,37.39232Z"/><rect x="17.57912" y="25.67636" width="0.67877" height="6.99096"/><rect class="cls-3" x="15.643" y="22.83536" width="5.30114" height="0.67882"/><path class="cls-3" d="M18.2936,8.09788q.67534.82622,1.43077,1.58227.75435.75467,1.5814,1.43155-.82577.67568-1.5814,1.43154Q18.97,13.298,18.2936,14.12551q-.6753-.82621-1.43074-1.58227-.75435-.75474-1.5814-1.43154.82575-.67571,1.5814-1.43155Q17.61709,8.92541,18.2936,8.09788Z"/><path d="M15.1478,57.93445a1.34109,1.34109,0,0,0,1.32315.98787,1.2473,1.2473,0,0,0,.58221-.17313c.09413-.05616.27107-.16563.35227-.02771.07352.12492-.06069.24148-.141.31846a1.332,1.332,0,0,0-.38415.71494,1.40138,1.40138,0,0,0,.63147,1.42049,1.46839,1.46839,0,0,0,1.56374,0,1.4014,1.4014,0,0,0,.63147-1.42049,1.332,1.332,0,0,0-.38415-.71494c-.08032-.077-.21452-.19354-.141-.31846.08121-.13792.25814-.02845.35227.02771a1.2473,1.2473,0,0,0,.58222.17313,1.3411,1.3411,0,0,0,1.32315-.98787,1.44836,1.44836,0,0,0-.68049-1.62247,1.47083,1.47083,0,0,0-2.15273.90625h-.11974a1.61553,1.61553,0,0,1,.2395-1.19612,1.594,1.594,0,0,1,.43228-.43255v-.21635H17.429v.21635a1.5942,1.5942,0,0,1,.43229.43255,1.61558,1.61558,0,0,1,.23949,1.19612H17.981a1.47081,1.47081,0,0,0-2.15272-.90625A1.44834,1.44834,0,0,0,15.1478,57.93445Z"/><path d="M11.10278,126.16631h.09059a2.60526,2.60526,0,0,1,2.60526,2.60526v12.83778a2.60526,2.60526,0,0,1-2.60526,2.60526h-.09059a2.60525,2.60525,0,0,1-2.60525-2.60525V128.77157a2.60525,2.60525,0,0,1,2.60525-2.60525Z"/><path class="cls-3" d="M11.10278,78.66743h.09059a2.60526,2.60526,0,0,1,2.60526,2.60526v21.57977a2.60526,2.60526,0,0,1-2.60526,2.60526h-.09059a2.60526,2.60526,0,0,1-2.60526-2.60526V81.27269a2.60525,2.60525,0,0,1,2.60525-2.60525Z"/><path class="cls-3" d="M11.14788,154.41337a1.87273,1.87273,0,1,1-1.87105,1.87272,1.87417,1.87417,0,0,1,1.87105-1.87272m0-.77939a2.65211,2.65211,0,1,0,2.65065,2.65211,2.65092,2.65092,0,0,0-2.65065-2.65211Z"/><path d="M11.14824,115.57679a2.78646,2.78646,0,0,1-2.65071-1.94852V119.517a2.65137,2.65137,0,0,0,2.65038,2.65218h.00033a2.65138,2.65138,0,0,0,2.65039-2.65218v-5.88871A2.78638,2.78638,0,0,1,11.14824,115.57679Z"/><rect x="8.49755" y="123.7858" width="5.30114" height="0.67882"/><path class="cls-3" d="M11.14807,112.98491a11.44635,11.44635,0,0,1,1.06387-1.41927c.74041-.84272,1.69983-1.69637,1.73447-2.90548a1.70251,1.70251,0,0,0-.71143-1.49138,1.26818,1.26818,0,0,0-1.50625.07585,1.29516,1.29516,0,0,0-.43881.77284c-.01337.08042-.03355.21288-.14185.21288s-.12848-.13246-.14184-.21288a1.29521,1.29521,0,0,0-.43881-.77284,1.26817,1.26817,0,0,0-1.50624-.07585,1.70248,1.70248,0,0,0-.71143,1.49138c.03463,1.20911.994,2.06276,1.73446,2.90548A11.44528,11.44528,0,0,1,11.14807,112.98491Z"/><path d="M13.71445,149.01146c-.24862-.7817-.972-1.2192-1.53881-1.752a4.98732,4.98732,0,0,1-1.02757-1.37082,4.98728,4.98728,0,0,1-1.02756,1.37082c-.56677.53278-1.29018.97028-1.5388,1.752a1.644,1.644,0,0,0,.85445,2.038,1.19179,1.19179,0,0,0,1.38415-.29433.95.95,0,0,0,.17435-.34165,1.49227,1.49227,0,0,1-.24611.90316,1.47325,1.47325,0,0,1-.39949.39973v.19993h1.598v-.19993a1.47329,1.47329,0,0,1-.3995-.39973,1.49226,1.49226,0,0,1-.24611-.90321.95018.95018,0,0,0,.17437.3417,1.19178,1.19178,0,0,0,1.38415.29433A1.64405,1.64405,0,0,0,13.71445,149.01146Z"/><path d="M11.10279,8.08888h.09059a2.60526,2.60526,0,0,1,2.60526,2.60526V30.04222a2.60526,2.60526,0,0,1-2.60526,2.60526h-.09059a2.60526,2.60526,0,0,1-2.60526-2.60526V10.69413A2.60525,2.60525,0,0,1,11.10279,8.08888Z"/><circle cx="11.14808" cy="56.47551" r="2.65115"/><path class="cls-3" d="M11.14824,69.50285a2.78646,2.78646,0,0,1-2.65071-1.94852v6.49021a2.65137,2.65137,0,0,0,2.65038,2.65218h.00033a2.65138,2.65138,0,0,0,2.65039-2.65218V67.55433A2.78638,2.78638,0,0,1,11.14824,69.50285Z"/><path d="M8.49753,44.12142a3.03144,3.03144,0,0,0,2.65055-2.10024v-.00067l.00067-.00068v.00135a3.03134,3.03134,0,0,0,2.64988,2.10024Z"/><rect x="10.80865" y="45.41731" width="0.67877" height="6.99096"/><path class="cls-3" d="M11.14808,34.20128a11.44628,11.44628,0,0,1-1.06386,1.41927c-.74042.84272-1.69984,1.69637-1.73447,2.90548a1.70248,1.70248,0,0,0,.71143,1.49138,1.26815,1.26815,0,0,0,1.50624-.07585,1.29516,1.29516,0,0,0,.43881-.77284c.01337-.08042.03356-.21288.14185-.21288s.12848.13246.14184.21288a1.29517,1.29517,0,0,0,.43882.77284,1.26815,1.26815,0,0,0,1.50624.07585,1.70251,1.70251,0,0,0,.71143-1.49138c-.03463-1.20911-.99406-2.06276-1.73446-2.90548A11.44536,11.44536,0,0,1,11.14808,34.20128Z"/><path d="M8.58171,63.64964c.24861.78171.972,1.2192,1.53881,1.752a4.98728,4.98728,0,0,1,1.02756,1.37082,4.98728,4.98728,0,0,1,1.02756-1.37082c.56678-.53279,1.29018-.97028,1.5388-1.752a1.644,1.644,0,0,0-.85444-2.038,1.1918,1.1918,0,0,0-1.38416.29433.9502.9502,0,0,0-.17435.34166,1.4923,1.4923,0,0,1,.24611-.90317,1.47339,1.47339,0,0,1,.39949-.39973v-.19993h-1.598v.19993a1.47343,1.47343,0,0,1,.3995.39973,1.4923,1.4923,0,0,1,.24611.90321.95.95,0,0,0-.17436-.3417,1.1918,1.1918,0,0,0-1.38416-.29433A1.644,1.644,0,0,0,8.58171,63.64964Z"/><path d="M32.62676,113.10382h.09059a2.60526,2.60526,0,0,1,2.60526,2.60526v21.57977a2.60525,2.60525,0,0,1-2.60525,2.60525h-.09059a2.60525,2.60525,0,0,1-2.60525-2.60525V115.70907A2.60526,2.60526,0,0,1,32.62676,113.10382Z"/><path d="M32.672,101.972a2.99394,2.99394,0,0,1-2.98988-2.9912h.67877a2.31119,2.31119,0,1,0,4.62237,0h.67877A2.994,2.994,0,0,1,32.672,101.972Z"/><rect x="30.02153" y="103.43886" width="5.30114" height="0.67882"/><path class="cls-3" d="M32.67206,111.77024q-.67533-.82621-1.43076-1.58227-.75435-.75467-1.5814-1.43155.82575-.67567,1.5814-1.43154.75432-.75476,1.43076-1.58227.67531.82622,1.43075,1.58227.75435.75476,1.5814,1.43154-.82577.6757-1.5814,1.43155Q33.34858,110.94271,32.67206,111.77024Z"/><path d="M35.81787,144.65771a1.34109,1.34109,0,0,0-1.32315-.98787,1.2473,1.2473,0,0,0-.58221.17313c-.09413.05616-.27107.16563-.35227.02771-.07352-.12492.06069-.24147.141-.31846a1.33207,1.33207,0,0,0,.38415-.71494,1.40141,1.40141,0,0,0-.63147-1.42049,1.46839,1.46839,0,0,0-1.56374,0,1.4014,1.4014,0,0,0-.63147,1.42049,1.33205,1.33205,0,0,0,.38414.71494c.08033.077.21453.19354.141.31846-.08121.13792-.25815.02845-.35228-.02771a1.24726,1.24726,0,0,0-.58221-.17313,1.34109,1.34109,0,0,0-1.32315.98787,1.44836,1.44836,0,0,0,.68049,1.62247,1.47082,1.47082,0,0,0,2.15272-.90625h.11975a1.61553,1.61553,0,0,1-.2395,1.19612,1.59406,1.59406,0,0,1-.43228.43256v.21634h1.72927v-.21634a1.59434,1.59434,0,0,1-.43228-.43256,1.61558,1.61558,0,0,1-.2395-1.19612h.11976a1.4708,1.4708,0,0,0,2.15271.90625A1.44835,1.44835,0,0,0,35.81787,144.65771Z"/><path class="cls-3" d="M32.62676,80.52022h.09059a2.60526,2.60526,0,0,1,2.60526,2.60526V94.98153a2.60526,2.60526,0,0,1-2.60526,2.60526h-.09059a2.60525,2.60525,0,0,1-2.60525-2.60525V83.12547a2.60525,2.60525,0,0,1,2.60525-2.60525Z"/><path d="M35.32261,148.67461a3.03145,3.03145,0,0,0-2.65056,2.10024v.00067l-.00067.00068v-.00135a3.03134,3.03134,0,0,0-2.64988-2.10024Z"/><path d="M32.62676,18.98h.09059a2.60526,2.60526,0,0,1,2.60526,2.60526V43.165a2.60525,2.60525,0,0,1-2.60525,2.60525h-.09059A2.60526,2.60526,0,0,1,30.0215,43.165V21.58524A2.60526,2.60526,0,0,1,32.62676,18.98Z"/><path d="M35.66205,59.89337h-.67877a2.31119,2.31119,0,1,0-4.62237,0h-.67877a2.99,2.99,0,1,1,5.97991,0Z"/><rect x="30.02153" y="54.75643" width="5.30114" height="0.67882"/><path class="cls-3" d="M32.67205,47.10384q.67533.82621,1.43076,1.58227.75435.75467,1.5814,1.43155-.82575.67567-1.5814,1.43154-.75432.75477-1.43076,1.58227-.67531-.82621-1.43075-1.58227-.75435-.75475-1.5814-1.43154.82576-.67571,1.5814-1.43155Q31.99553,47.93137,32.67205,47.10384Z"/><path d="M29.52624,14.21637a1.34109,1.34109,0,0,0,1.32315.98787,1.2473,1.2473,0,0,0,.58221-.17313c.09413-.05616.27107-.16563.35227-.02771.07352.12492-.06069.24147-.141.31846a1.33207,1.33207,0,0,0-.38415.71494,1.40141,1.40141,0,0,0,.63147,1.42049,1.46839,1.46839,0,0,0,1.56374,0,1.4014,1.4014,0,0,0,.63147-1.42049,1.33205,1.33205,0,0,0-.38414-.71494c-.08033-.077-.21453-.19354-.141-.31846.08121-.13792.25815-.02845.35228.02771a1.24726,1.24726,0,0,0,.58221.17313,1.34109,1.34109,0,0,0,1.32315-.98787,1.44836,1.44836,0,0,0-.68049-1.62247,1.47082,1.47082,0,0,0-2.15272.90625h-.11975a1.61553,1.61553,0,0,1,.2395-1.19612,1.5942,1.5942,0,0,1,.43228-.43256v-.21634H31.80742v.21634a1.59448,1.59448,0,0,1,.43228.43256,1.61558,1.61558,0,0,1,.2395,1.19612h-.11976a1.4708,1.4708,0,0,0-2.15271-.90625A1.44835,1.44835,0,0,0,29.52624,14.21637Z"/><path class="cls-3" d="M32.62676,61.2873h.09059a2.60526,2.60526,0,0,1,2.60526,2.60526V75.74861a2.60526,2.60526,0,0,1-2.60526,2.60526h-.09059a2.60526,2.60526,0,0,1-2.60526-2.60526V63.89255a2.60525,2.60525,0,0,1,2.60525-2.60525Z"/><path d="M30.0215,10.19947a3.03143,3.03143,0,0,0,2.65055-2.10024V8.09856l.00068-.00068v.00135a3.03134,3.03134,0,0,0,2.64988,2.10024Z"/><path d="M46.87214,81.7467h.09059A2.60526,2.60526,0,0,1,49.568,84.352v21.57977a2.60525,2.60525,0,0,1-2.60525,2.60525h-.09059a2.60526,2.60526,0,0,1-2.60526-2.60526V84.352A2.60526,2.60526,0,0,1,46.87214,81.7467Z"/><circle cx="46.91744" cy="129.61097" r="2.65115"/><path d="M46.9175,147.18872a1.8724,1.8724,0,1,1-1.8717,1.87208,1.874,1.874,0,0,1,1.8717-1.87208m0-.77939a2.65179,2.65179,0,1,0,2.65065,2.65147,2.65091,2.65091,0,0,0-2.65065-2.65147Z"/><path class="cls-3" d="M46.91727,123.99841a2.78647,2.78647,0,0,1,2.65072,1.94852v-5.8887a2.65137,2.65137,0,0,0-2.65038-2.65218h-.00034a2.65137,2.65137,0,0,0-2.65038,2.65218v5.8887A2.78636,2.78636,0,0,1,46.91727,123.99841Z"/><path d="M49.90737,136.73434H49.2286a2.31119,2.31119,0,1,0-4.62237,0h-.67877a2.99,2.99,0,1,1,5.97991,0Z"/><rect x="46.57811" y="138.46782" width="0.67877" height="3.6307"/><rect class="cls-3" x="44.26685" y="144.11661" width="5.30114" height="0.67882"/><path class="cls-3" d="M46.91745,159.04011q-.67533-.82622-1.43076-1.58227-.75436-.75466-1.5814-1.43155.82575-.67567,1.5814-1.43153.75432-.75477,1.43076-1.58228.6753.82621,1.43074,1.58228.75437.75474,1.5814,1.43153-.82575.67571-1.5814,1.43155Q47.594,158.21258,46.91745,159.04011Z"/><path d="M50.06326,113.2008a1.34108,1.34108,0,0,0-1.32316-.98786,1.2472,1.2472,0,0,0-.58221.17312c-.09413.05616-.27106.16563-.35226.02771-.07353-.12492.06068-.24147.141-.31846a1.33208,1.33208,0,0,0,.38416-.71494,1.4014,1.4014,0,0,0-.63148-1.42049,1.46839,1.46839,0,0,0-1.56374,0,1.4014,1.4014,0,0,0-.63147,1.42049,1.33207,1.33207,0,0,0,.38415.71494c.08033.077.21452.19354.141.31846-.08121.13792-.25814.02845-.35227-.02771a1.24713,1.24713,0,0,0-.58221-.17312,1.34109,1.34109,0,0,0-1.32316.98786,1.44836,1.44836,0,0,0,.68049,1.62247,1.47083,1.47083,0,0,0,2.15273-.90624h.11974a1.61556,1.61556,0,0,1-.23949,1.19611,1.59424,1.59424,0,0,1-.43229.43256v.21634h1.72928v-.21634a1.59438,1.59438,0,0,1-.43229-.43256,1.61556,1.61556,0,0,1-.23949-1.19611h.11975a1.47081,1.47081,0,0,0,2.15272.90624A1.44836,1.44836,0,0,0,50.06326,113.2008Z"/><path d="M44.2252,24.86a3.03143,3.03143,0,0,0,2.65055-2.10024V22.759l.00068-.00067v.00135A3.03134,3.03134,0,0,0,49.5263,24.86Z"/><rect x="46.53639" y="11.88847" width="0.67877" height="8.94846"/><rect class="cls-3" x="46.53639" y="26.90571" width="0.67877" height="9.53703"/><rect class="cls-3" x="44.22513" y="71.78436" width="5.30114" height="0.67882"/><path class="cls-3" d="M46.87575,38.61911q.67533.8262,1.43076,1.58227.75435.75467,1.5814,1.43155-.82576.67567-1.5814,1.43153-.75433.75477-1.43076,1.58227-.67531-.8262-1.43075-1.58227-.75435-.75474-1.5814-1.43153.82575-.67571,1.5814-1.43155Q46.19923,39.44663,46.87575,38.61911Z"/><path d="M43.72994,76.81932a1.34109,1.34109,0,0,0,1.32315.98787,1.2473,1.2473,0,0,0,.58221-.17313c.09413-.05616.27107-.16563.35227-.02771.07352.12492-.06069.24147-.141.31846a1.332,1.332,0,0,0-.38415.71494,1.40138,1.40138,0,0,0,.63147,1.42049,1.46839,1.46839,0,0,0,1.56374,0,1.4014,1.4014,0,0,0,.63147-1.42049,1.332,1.332,0,0,0-.38415-.71494c-.08032-.077-.21452-.19354-.141-.31846.08121-.13792.25815-.02845.35228.02771a1.24723,1.24723,0,0,0,.58221.17313,1.3411,1.3411,0,0,0,1.32315-.98787,1.44836,1.44836,0,0,0-.68049-1.62247,1.47082,1.47082,0,0,0-2.15272.90625h-.11975a1.61553,1.61553,0,0,1,.2395-1.19612,1.59406,1.59406,0,0,1,.43228-.43256v-.21634H46.01111v.21634a1.59424,1.59424,0,0,1,.43229.43256,1.61558,1.61558,0,0,1,.23949,1.19612h-.11975a1.4708,1.4708,0,0,0-2.15271-.90625A1.44834,1.44834,0,0,0,43.72994,76.81932Z"/><path d="M46.83046,53.174H46.921a2.60526,2.60526,0,0,1,2.60526,2.60526V67.63531A2.60525,2.60525,0,0,1,46.921,70.24057h-.09059a2.60526,2.60526,0,0,1-2.60526-2.60526V55.77926A2.60525,2.60525,0,0,1,46.83046,53.174Z"/><circle cx="46.87575" cy="48.79496" r="2.65115"/><path class="cls-3" d="M49.5263,8.09788a3.03144,3.03144,0,0,0-2.65055,2.10024v.00068l-.00067.00067v-.00135A3.03134,3.03134,0,0,0,44.2252,8.09788Z"/><path class="cls-3" d="M25.4391,138.07071a1.87273,1.87273,0,1,1-1.87169,1.87273,1.87418,1.87418,0,0,1,1.87169-1.87273m0-.77939a2.65212,2.65212,0,1,0,2.65065,2.65212,2.65147,2.65147,0,0,0-2.65065-2.65212Z"/><path class="cls-3" d="M25.439,134.67964a2.78649,2.78649,0,0,1,2.65072,1.94853V119.91246a2.65137,2.65137,0,0,0-2.65038-2.65218H25.439a2.65137,2.65137,0,0,0-2.65038,2.65218v16.71571A2.78637,2.78637,0,0,1,25.439,134.67964Z"/><path d="M28.42914,146.73069h-.67877a2.31119,2.31119,0,1,0-4.62237,0h-.67877a2.99,2.99,0,1,1,5.97991,0Z"/><path d="M25.4391,159.07519a2.994,2.994,0,0,1-2.98987-2.99152H23.128a2.31119,2.31119,0,1,0,4.62237,0h.67877A2.994,2.994,0,0,1,25.4391,159.07519Z"/><rect class="cls-3" x="25.09972" y="83.07517" width="0.67877" height="24.68385"/><path class="cls-3" d="M25.43914,154.98433a11.44745,11.44745,0,0,1,1.06387-1.41928c.74041-.84272,1.69983-1.69636,1.73447-2.90547a1.70251,1.70251,0,0,0-.71143-1.49138,1.26817,1.26817,0,0,0-1.50625.07585,1.29516,1.29516,0,0,0-.43881.77284c-.01337.08042-.03355.21288-.14185.21288s-.12848-.13246-.14184-.21288a1.29516,1.29516,0,0,0-.43881-.77284,1.26815,1.26815,0,0,0-1.50624-.07585,1.70248,1.70248,0,0,0-.71143,1.49138c.03463,1.20911.994,2.06275,1.73446,2.90547A11.44538,11.44538,0,0,1,25.43914,154.98433Z"/><path d="M28.00552,112.5091c-.24862-.78171-.972-1.2192-1.53881-1.752a4.98732,4.98732,0,0,1-1.02757-1.37082,4.98728,4.98728,0,0,1-1.02756,1.37082c-.56677.53279-1.29018.97028-1.53879,1.752a1.644,1.644,0,0,0,.85444,2.038,1.19179,1.19179,0,0,0,1.38415-.29433.95.95,0,0,0,.17435-.34166,1.49228,1.49228,0,0,1-.24611.90317,1.47339,1.47339,0,0,1-.39949.39973v.19993h1.598V115.214a1.47333,1.47333,0,0,1-.39951-.39973,1.4923,1.4923,0,0,1-.24611-.90321.95018.95018,0,0,0,.17437.3417,1.19178,1.19178,0,0,0,1.38415.29433A1.64405,1.64405,0,0,0,28.00552,112.5091Z"/><rect class="cls-3" x="25.09972" y="44.39843" width="0.67877" height="17.4895"/><path class="cls-3" d="M25.39385,18.22065h.09059A2.60526,2.60526,0,0,1,28.0897,20.8259V32.682a2.60526,2.60526,0,0,1-2.60526,2.60526h-.09059A2.60525,2.60525,0,0,1,22.7886,32.682V20.8259a2.60525,2.60525,0,0,1,2.60525-2.60525Z"/><circle cx="25.43915" cy="66.66813" r="2.65115"/><path d="M25.43932,10.04641A2.78647,2.78647,0,0,1,22.7886,8.09788v5.88871A2.65137,2.65137,0,0,0,25.439,16.63877h.00034a2.65137,2.65137,0,0,0,2.65038-2.65218V8.09788A2.78639,2.78639,0,0,1,25.43932,10.04641Z"/><path d="M22.7886,80.09453a3.03146,3.03146,0,0,0,2.65055-2.10024v-.00068l.00067-.00068v.00136a3.03135,3.03135,0,0,0,2.64988,2.10024Z"/><path class="cls-3" d="M25.43915,70.73787a11.44628,11.44628,0,0,1-1.06386,1.41927c-.74042.84272-1.69983,1.69637-1.73447,2.90548a1.70248,1.70248,0,0,0,.71143,1.49138,1.26817,1.26817,0,0,0,1.50624-.07585,1.29516,1.29516,0,0,0,.43881-.77284c.01337-.08042.03356-.21289.14185-.21289s.12848.13247.14184.21289a1.29517,1.29517,0,0,0,.43882.77284,1.26817,1.26817,0,0,0,1.50624.07585,1.70251,1.70251,0,0,0,.71143-1.49138c-.03463-1.20911-.99406-2.06276-1.73446-2.90548A11.44536,11.44536,0,0,1,25.43915,70.73787Z"/><path d="M22.87278,39.84791c.24861.7817.972,1.2192,1.53881,1.752a4.98728,4.98728,0,0,1,1.02756,1.37082,4.98728,4.98728,0,0,1,1.02756-1.37082c.56678-.53278,1.29018-.97028,1.5388-1.752a1.644,1.644,0,0,0-.85444-2.038,1.19179,1.19179,0,0,0-1.38415.29433.95.95,0,0,0-.17436.34165,1.49227,1.49227,0,0,1,.24611-.90316,1.47325,1.47325,0,0,1,.39949-.39973v-.19993h-1.598V37.143a1.47329,1.47329,0,0,1,.3995.39973,1.49226,1.49226,0,0,1,.24611.90321.95.95,0,0,0-.17436-.3417,1.19179,1.19179,0,0,0-1.38416-.29433A1.644,1.644,0,0,0,22.87278,39.84791Z"/><rect class="cls-3" x="39.39078" y="103.77634" width="0.67877" height="17.4895"/><path class="cls-3" d="M39.68489,130.377h.09059a2.60525,2.60525,0,0,1,2.60525,2.60525v13.55719a2.60526,2.60526,0,0,1-2.60526,2.60526h-.09059a2.60525,2.60525,0,0,1-2.60525-2.60525V132.98225a2.60526,2.60526,0,0,1,2.60526-2.60526Z"/><circle cx="39.73022" cy="98.9961" r="2.65115"/><path d="M39.73005,157.005a2.78648,2.78648,0,0,1,2.65072,1.94852v-5.88871a2.65137,2.65137,0,0,0-2.65038-2.65218h-.00034a2.65137,2.65137,0,0,0-2.65038,2.65218v5.88871A2.78636,2.78636,0,0,1,39.73005,157.005Z"/><path d="M42.38077,85.56971A3.03144,3.03144,0,0,0,39.73022,87.67v.00068l-.00068.00067V87.67a3.03134,3.03134,0,0,0-2.64987-2.10024Z"/><path class="cls-3" d="M39.73021,94.92637a11.44735,11.44735,0,0,1,1.06387-1.41927c.74041-.84273,1.69983-1.69637,1.73447-2.90548a1.70251,1.70251,0,0,0-.71143-1.49138,1.26817,1.26817,0,0,0-1.50625.07585,1.29521,1.29521,0,0,0-.43881.77284c-.01337.08042-.03355.21288-.14185.21288s-.12848-.13246-.14184-.21288a1.29516,1.29516,0,0,0-.43881-.77284,1.26815,1.26815,0,0,0-1.50624-.07585,1.70248,1.70248,0,0,0-.71143,1.49138c.03463,1.20911.994,2.06275,1.73446,2.90548A11.44528,11.44528,0,0,1,39.73021,94.92637Z"/><path d="M42.29659,125.81633c-.24862-.7817-.972-1.2192-1.53881-1.752a4.98741,4.98741,0,0,1-1.02757-1.37083,4.98718,4.98718,0,0,1-1.02756,1.37083c-.56677.53278-1.29018.97028-1.53879,1.752a1.644,1.644,0,0,0,.85444,2.038,1.19179,1.19179,0,0,0,1.38415-.29433.95.95,0,0,0,.17435-.34166,1.49228,1.49228,0,0,1-.24611.90317,1.47325,1.47325,0,0,1-.39949.39973v.19993h1.598v-.19993a1.47319,1.47319,0,0,1-.39951-.39973,1.4923,1.4923,0,0,1-.24611-.90321.95018.95018,0,0,0,.17437.3417,1.19178,1.19178,0,0,0,1.38415.29433A1.64405,1.64405,0,0,0,42.29659,125.81633Z"/><path class="cls-3" d="M39.73033,25.01752a1.87273,1.87273,0,1,1-1.8717,1.87272,1.874,1.874,0,0,1,1.8717-1.87272m0-.77939a2.65211,2.65211,0,1,0,2.65,2.65211,2.65146,2.65146,0,0,0-2.65-2.65211Z"/><path class="cls-3" d="M39.73039,32.154a2.78647,2.78647,0,0,1-2.65072-1.94853V46.9212a2.65137,2.65137,0,0,0,2.65038,2.65218h.00034a2.65137,2.65137,0,0,0,2.65038-2.65218V30.20549A2.78638,2.78638,0,0,1,39.73039,32.154Z"/><path d="M39.73017,23.09419a2.99394,2.99394,0,0,1-2.98988-2.9912h.67877a2.31119,2.31119,0,1,0,4.62237,0h.67877A2.994,2.994,0,0,1,39.73017,23.09419Z"/><path d="M42.7202,10.75h-.67877a2.31119,2.31119,0,1,0-4.62237,0h-.67877a2.99,2.99,0,1,1,5.97991,0Z"/><rect class="cls-3" x="39.39078" y="59.07466" width="0.67877" height="24.68385"/><path class="cls-3" d="M39.73022,11.84933a11.44712,11.44712,0,0,1-1.06386,1.41928c-.74042.84272-1.69983,1.69636-1.73447,2.90547a1.70248,1.70248,0,0,0,.71143,1.49138,1.26815,1.26815,0,0,0,1.50624-.07585,1.29511,1.29511,0,0,0,.43881-.77284c.01337-.08042.03356-.21288.14185-.21288s.12848.13246.14184.21288a1.29517,1.29517,0,0,0,.43882.77284,1.26815,1.26815,0,0,0,1.50624.07585,1.70251,1.70251,0,0,0,.71143-1.49138c-.03463-1.20911-.99406-2.06275-1.73446-2.90547A11.4472,11.4472,0,0,1,39.73022,11.84933Z"/><path d="M37.16385,54.32456c.24861.78171.972,1.2192,1.53881,1.752a4.98718,4.98718,0,0,1,1.02756,1.37083,4.987,4.987,0,0,1,1.02757-1.37083c.56677-.53278,1.29017-.97027,1.53879-1.752a1.644,1.644,0,0,0-.85444-2.038,1.19179,1.19179,0,0,0-1.38415.29433.95006.95006,0,0,0-.17436.34166,1.49228,1.49228,0,0,1,.24611-.90317,1.47339,1.47339,0,0,1,.39949-.39973v-.19993h-1.598v.19993a1.47347,1.47347,0,0,1,.39951.39973,1.49236,1.49236,0,0,1,.2461.90321.95.95,0,0,0-.17436-.3417,1.19178,1.19178,0,0,0-1.38415-.29433A1.644,1.644,0,0,0,37.16385,54.32456Z"/><path d="M53.97607,135.99344h.09059a2.60526,2.60526,0,0,1,2.60526,2.60526V156.624a2.60526,2.60526,0,0,1-2.60526,2.60526h-.09059a2.60526,2.60526,0,0,1-2.60526-2.60526V138.5987A2.60525,2.60525,0,0,1,53.97607,135.99344Z"/><circle cx="54.02129" cy="112.16525" r="2.65115"/><path class="cls-3" d="M54.02112,99.13791a2.78647,2.78647,0,0,1,2.65072,1.94852V94.59622A2.65137,2.65137,0,0,0,54.02146,91.944h-.00034a2.65137,2.65137,0,0,0-2.65038,2.65218v6.49021A2.78636,2.78636,0,0,1,54.02112,99.13791Z"/><path d="M56.67184,124.51934a3.03144,3.03144,0,0,0-2.65055,2.10024v.00067l-.00068.00068v-.00135a3.03133,3.03133,0,0,0-2.64987-2.10024Z"/><rect x="53.68184" y="116.23237" width="0.67877" height="6.99096"/><path class="cls-3" d="M54.02128,134.43948a11.44735,11.44735,0,0,1,1.06387-1.41927c.74041-.84272,1.69983-1.69637,1.73447-2.90548a1.70251,1.70251,0,0,0-.71143-1.49138,1.26818,1.26818,0,0,0-1.50625.07585,1.29514,1.29514,0,0,0-.4388.77284c-.01337.08042-.03356.21288-.14186.21288s-.12848-.13246-.14184-.21288a1.29516,1.29516,0,0,0-.43881-.77284,1.26817,1.26817,0,0,0-1.50624-.07585,1.70248,1.70248,0,0,0-.71143,1.49138c.03463,1.20911.99405,2.06276,1.73446,2.90548A11.44528,11.44528,0,0,1,54.02128,134.43948Z"/><path d="M56.58766,104.99112c-.24862-.78171-.972-1.2192-1.53881-1.752a4.98728,4.98728,0,0,1-1.02756-1.37082,4.98751,4.98751,0,0,1-1.02757,1.37082c-.56677.53279-1.29018.97028-1.53879,1.752a1.644,1.644,0,0,0,.85444,2.038,1.19179,1.19179,0,0,0,1.38415-.29433.95.95,0,0,0,.17435-.34166,1.49228,1.49228,0,0,1-.24611.90317,1.47325,1.47325,0,0,1-.39949.39973v.19993h1.598V107.696a1.47333,1.47333,0,0,1-.39951-.39973,1.4923,1.4923,0,0,1-.24611-.90321.95018.95018,0,0,0,.17437.3417,1.19178,1.19178,0,0,0,1.38415.29433A1.64405,1.64405,0,0,0,56.58766,104.99112Z"/><path d="M53.976,25.88687h.09059a2.60525,2.60525,0,0,1,2.60525,2.60525V40.1625a2.60526,2.60526,0,0,1-2.60526,2.60526H53.976a2.60525,2.60525,0,0,1-2.60525-2.60525V28.49212A2.60526,2.60526,0,0,1,53.976,25.88687Z"/><path class="cls-3" d="M53.976,63.47636h.09059a2.60526,2.60526,0,0,1,2.60526,2.60526V87.66138a2.60526,2.60526,0,0,1-2.60526,2.60526H53.976a2.60526,2.60526,0,0,1-2.60526-2.60526V66.08161A2.60525,2.60525,0,0,1,53.976,63.47636Z"/><path class="cls-3" d="M54.02155,8.87728A1.87241,1.87241,0,1,1,52.14986,10.75a1.874,1.874,0,0,1,1.87169-1.87273m0-.77938a2.65179,2.65179,0,1,0,2.65,2.65211,2.65146,2.65146,0,0,0-2.65-2.65211Z"/><path d="M54.02112,53.35727a2.78647,2.78647,0,0,1,2.65072,1.94853V49.41709a2.65137,2.65137,0,0,0-2.65038-2.65218h-.00034a2.65137,2.65137,0,0,0-2.65038,2.65218V55.3058A2.78637,2.78637,0,0,1,54.02112,53.35727Z"/><rect x="51.37074" y="44.46935" width="5.30114" height="0.67882"/><rect class="cls-3" x="51.37074" y="15.56139" width="5.30114" height="0.67882"/><path class="cls-3" d="M54.02129,55.94916a11.44628,11.44628,0,0,1-1.06386,1.41927c-.74042.84272-1.69983,1.69637-1.73447,2.90548a1.70248,1.70248,0,0,0,.71143,1.49138,1.26818,1.26818,0,0,0,1.50625-.07585,1.29514,1.29514,0,0,0,.4388-.77284c.01337-.08042.03356-.21289.14185-.21289s.12848.13247.14185.21289a1.29511,1.29511,0,0,0,.43881.77284,1.26817,1.26817,0,0,0,1.50624.07585,1.70251,1.70251,0,0,0,.71143-1.49138c-.03463-1.20911-.99406-2.06276-1.73446-2.90548A11.44635,11.44635,0,0,1,54.02129,55.94916Z"/><path d="M51.45492,21.23678c.24861.7817.972,1.21919,1.53881,1.752a4.98728,4.98728,0,0,1,1.02756,1.37082,4.98712,4.98712,0,0,1,1.02757-1.37082c.56677-.53279,1.29017-.97028,1.53879-1.752a1.644,1.644,0,0,0-.85444-2.038,1.19179,1.19179,0,0,0-1.38415.29433.95018.95018,0,0,0-.17436.34165,1.49221,1.49221,0,0,1,.24612-.90316,1.47325,1.47325,0,0,1,.39948-.39974V18.332h-1.598v.19993a1.4735,1.4735,0,0,1,.39951.39974,1.49232,1.49232,0,0,1,.2461.90321.95.95,0,0,0-.17436-.3417,1.19178,1.19178,0,0,0-1.38415-.29433A1.64405,1.64405,0,0,0,51.45492,21.23678Z"/></g></svg>