<svg xmlns="http://www.w3.org/2000/svg" viewBox="0 0 87 127"><defs><style>.cls-1{fill:#fff;}</style></defs><title>card-spades-10</title><g id="artwork"><rect class="cls-1" x="0.00232" width="86.99536" height="127" rx="6"/><path d="M15.26,29.67241c-.41269-1.29958-1.61352-2.02692-2.55433-2.91268a8.29025,8.29025,0,0,1-1.7057-2.279,8.29025,8.29025,0,0,1-1.7057,2.279c-.94081.88576-2.14162,1.6131-2.55431,2.91268a2.73479,2.73479,0,0,0,1.41833,3.38817,1.97621,1.97621,0,0,0,2.29761-.48933,1.58047,1.58047,0,0,0,.28942-.568,2.48384,2.48384,0,0,1-.40854,1.50152,2.44747,2.44747,0,0,1-.66312.66456v.33238h2.65262v-.33238a2.44758,2.44758,0,0,1-.66315-.66456,2.48385,2.48385,0,0,1-.40853-1.5016,1.58062,1.58062,0,0,0,.28944.56808,1.97619,1.97619,0,0,0,2.29761.48933A2.73482,2.73482,0,0,0,15.26,29.67241Z"/><path d="M7.43133,9.67685,4.7116,11.4726l-.56055-.92968L7.5114,8.298H8.66375V18.88021H7.43133Z"/><path d="M12.91961,18.51176a3.20168,3.20168,0,0,1-1.27246-1.73214,9.84269,9.84269,0,0,1-.42383-3.19028,9.84913,9.84913,0,0,1,.42383-3.19125,3.2402,3.2402,0,0,1,1.27246-1.739,3.97071,3.97071,0,0,1,2.16015-.53725,3.37655,3.37655,0,0,1,2.89551,1.26632,7.17455,7.17455,0,0,1,.94434,4.20118,9.84269,9.84269,0,0,1-.42383,3.19028,3.20168,3.20168,0,0,1-1.27246,1.73214,3.98741,3.98741,0,0,1-2.14356.52845A4.02247,4.02247,0,0,1,12.91961,18.51176Zm3.63183-.97029a2.45244,2.45244,0,0,0,.832-1.36272,9.80071,9.80071,0,0,0,.27148-2.58941,9.80076,9.80076,0,0,0-.27148-2.58941,2.45565,2.45565,0,0,0-.832-1.3632,2.43853,2.43853,0,0,0-1.47168-.40906,2.43657,2.43657,0,0,0-1.47168.40906,2.44494,2.44494,0,0,0-.832,1.3632,9.79471,9.79471,0,0,0-.27246,2.58941,9.79466,9.79466,0,0,0,.27246,2.58941,2.44176,2.44176,0,0,0,.832,1.36272,2.43655,2.43655,0,0,0,1.47168.40857A2.43851,2.43851,0,0,0,16.55144,17.54147Z"/><path d="M71.74008,97.32792c.41269,1.29959,1.61352,2.02693,2.55433,2.91269a8.29035,8.29035,0,0,1,1.7057,2.279,8.29035,8.29035,0,0,1,1.7057-2.279c.94081-.88576,2.14162-1.6131,2.55431-2.91269a2.73476,2.73476,0,0,0-1.41833-3.38816,1.97619,1.97619,0,0,0-2.29761.48933,1.58047,1.58047,0,0,0-.28942.568,2.48384,2.48384,0,0,1,.40854-1.50152,2.44747,2.44747,0,0,1,.66312-.66456v-.33239H74.6738V92.831a2.44758,2.44758,0,0,1,.66315.66456,2.48383,2.48383,0,0,1,.40853,1.50159,1.58042,1.58042,0,0,0-.28944-.56807,1.97617,1.97617,0,0,0-2.29761-.48933A2.7348,2.7348,0,0,0,71.74008,97.32792Z"/><path d="M79.57,117.32323l2.71973-1.79478.56054.92968-3.36035,2.24494H78.33758V108.12036H79.57Z"/><path d="M74.08172,108.48929a3.19728,3.19728,0,0,1,1.27246,1.73117,12.2226,12.2226,0,0,1,0,6.38153,3.2428,3.2428,0,0,1-1.27246,1.74,3.97922,3.97922,0,0,1-2.16016.53726,3.3759,3.3759,0,0,1-2.89551-1.2673,7.171,7.171,0,0,1-.94433-4.20021,9.84913,9.84913,0,0,1,.42383-3.19125,3.19728,3.19728,0,0,1,1.27246-1.73117,4.63774,4.63774,0,0,1,4.30371,0Zm-3.63184.96981a2.452,2.452,0,0,0-.832,1.36321,12.48475,12.48475,0,0,0,0,5.17881,2.35127,2.35127,0,0,0,4.60742,0,12.44082,12.44082,0,0,0,0-5.17881,2.50955,2.50955,0,0,0-3.77539-1.36321Z"/><path d="M33.89,21.68361c-.619-1.94938-2.42029-3.04039-3.8315-4.369A12.43537,12.43537,0,0,1,27.5,13.89607a12.43554,12.43554,0,0,1-2.55854,3.41851c-1.41122,1.32864-3.21243,2.41965-3.83147,4.369a4.10218,4.10218,0,0,0,2.12749,5.08225,2.96431,2.96431,0,0,0,3.44642-.734,2.3706,2.3706,0,0,0,.43412-.852,3.72566,3.72566,0,0,1-.6128,2.25228,3.67117,3.67117,0,0,1-.99469.99684v.49858h3.97894V28.429a3.67146,3.67146,0,0,1-.99473-.99684,3.72571,3.72571,0,0,1-.61279-2.25239,2.37077,2.37077,0,0,0,.43416.85211,2.96426,2.96426,0,0,0,3.44641.734A4.10222,4.10222,0,0,0,33.89,21.68361Z"/><path d="M65.89005,21.68361c-.619-1.94938-2.42029-3.04039-3.8315-4.369A12.43537,12.43537,0,0,1,59.5,13.89607a12.43554,12.43554,0,0,1-2.55854,3.41851c-1.41122,1.32864-3.21243,2.41965-3.83147,4.369a4.10218,4.10218,0,0,0,2.12749,5.08225,2.96431,2.96431,0,0,0,3.44642-.734,2.3706,2.3706,0,0,0,.43412-.852,3.72566,3.72566,0,0,1-.6128,2.25228,3.67117,3.67117,0,0,1-.99469.99684v.49858h3.97894V28.429a3.67146,3.67146,0,0,1-.99473-.99684,3.72571,3.72571,0,0,1-.61279-2.25239,2.37077,2.37077,0,0,0,.43416.85211,2.96426,2.96426,0,0,0,3.44641.734A4.10222,4.10222,0,0,0,65.89005,21.68361Z"/><path d="M21.11,105.31639c.619,1.94938,2.42029,3.04039,3.8315,4.369A12.43537,12.43537,0,0,1,27.5,113.10393a12.43554,12.43554,0,0,1,2.55854-3.41851c1.41122-1.32864,3.21243-2.41965,3.83147-4.369a4.10218,4.10218,0,0,0-2.12749-5.08225,2.96431,2.96431,0,0,0-3.44642.734,2.3706,2.3706,0,0,0-.43412.852,3.72566,3.72566,0,0,1,.6128-2.25228,3.67117,3.67117,0,0,1,.99469-.99684v-.49858H25.51053V98.571a3.67146,3.67146,0,0,1,.99473.99684,3.72571,3.72571,0,0,1,.61279,2.25239,2.37077,2.37077,0,0,0-.43416-.85211,2.96426,2.96426,0,0,0-3.44641-.734A4.10222,4.10222,0,0,0,21.11,105.31639Z"/><path d="M53.11,105.31639c.619,1.94938,2.42029,3.04039,3.8315,4.369A12.43537,12.43537,0,0,1,59.5,113.10393a12.43554,12.43554,0,0,1,2.55854-3.41851c1.41122-1.32864,3.21243-2.41965,3.83147-4.369a4.10218,4.10218,0,0,0-2.12749-5.08225,2.96431,2.96431,0,0,0-3.44642.734,2.3706,2.3706,0,0,0-.43412.852,3.72566,3.72566,0,0,1,.6128-2.25228,3.67117,3.67117,0,0,1,.99469-.99684v-.49858H57.51055V98.571a3.67146,3.67146,0,0,1,.99473.99684,3.72571,3.72571,0,0,1,.61279,2.25239,2.37077,2.37077,0,0,0-.43416-.85211,2.96426,2.96426,0,0,0-3.44641-.734A4.10222,4.10222,0,0,0,53.11,105.31639Z"/><path d="M33.89,49.7424c-.619-1.94938-2.42029-3.04039-3.8315-4.369A12.43537,12.43537,0,0,1,27.5,41.95486a12.43554,12.43554,0,0,1-2.55854,3.41851C23.53022,46.702,21.729,47.793,21.11,49.7424a4.10218,4.10218,0,0,0,2.12749,5.08225,2.96431,2.96431,0,0,0,3.44642-.734,2.3706,2.3706,0,0,0,.43412-.852,3.72566,3.72566,0,0,1-.6128,2.25228,3.67117,3.67117,0,0,1-.99469.99684v.49858h3.97894v-.49858a3.67146,3.67146,0,0,1-.99473-.99684,3.72571,3.72571,0,0,1-.61279-2.25239,2.37077,2.37077,0,0,0,.43416.85211,2.96426,2.96426,0,0,0,3.44641.734A4.10222,4.10222,0,0,0,33.89,49.7424Z"/><path d="M65.89005,49.7424c-.619-1.94938-2.42029-3.04039-3.8315-4.369A12.43537,12.43537,0,0,1,59.5,41.95486a12.43554,12.43554,0,0,1-2.55854,3.41851C55.53024,46.702,53.729,47.793,53.11,49.7424a4.10218,4.10218,0,0,0,2.12749,5.08225,2.96431,2.96431,0,0,0,3.44642-.734,2.3706,2.3706,0,0,0,.43412-.852,3.72566,3.72566,0,0,1-.6128,2.25228,3.67117,3.67117,0,0,1-.99469.99684v.49858h3.97894v-.49858a3.67146,3.67146,0,0,1-.99473-.99684,3.72571,3.72571,0,0,1-.61279-2.25239,2.37077,2.37077,0,0,0,.43416.85211,2.96426,2.96426,0,0,0,3.44641.734A4.10222,4.10222,0,0,0,65.89005,49.7424Z"/><path d="M53.11,77.2576c.619,1.94938,2.42029,3.04039,3.8315,4.369A12.43537,12.43537,0,0,1,59.5,85.04514a12.43554,12.43554,0,0,1,2.55854-3.41851C63.46978,80.298,65.271,79.207,65.89,77.2576a4.10218,4.10218,0,0,0-2.12749-5.08225,2.96431,2.96431,0,0,0-3.44642.734,2.3706,2.3706,0,0,0-.43412.852,3.72566,3.72566,0,0,1,.6128-2.25228,3.67117,3.67117,0,0,1,.99469-.99684v-.49858H57.51055v.49858a3.67146,3.67146,0,0,1,.99473.99684,3.72571,3.72571,0,0,1,.61279,2.25239,2.37077,2.37077,0,0,0-.43416-.85211,2.96426,2.96426,0,0,0-3.44641-.734A4.10222,4.10222,0,0,0,53.11,77.2576Z"/><path d="M21.11,77.2576c.619,1.94938,2.42029,3.04039,3.8315,4.369A12.43537,12.43537,0,0,1,27.5,85.04514a12.43554,12.43554,0,0,1,2.55854-3.41851C31.46976,80.298,33.271,79.207,33.89,77.2576a4.10218,4.10218,0,0,0-2.12749-5.08225,2.96431,2.96431,0,0,0-3.44642.734,2.3706,2.3706,0,0,0-.43412.852,3.72566,3.72566,0,0,1,.6128-2.25228,3.67117,3.67117,0,0,1,.99469-.99684v-.49858H25.51053v.49858a3.67146,3.67146,0,0,1,.99473.99684,3.72571,3.72571,0,0,1,.61279,2.25239,2.37077,2.37077,0,0,0-.43416-.85211,2.96426,2.96426,0,0,0-3.44641-.734A4.10222,4.10222,0,0,0,21.11,77.2576Z"/><path d="M49.89,35.713c-.619-1.94938-2.42029-3.04039-3.8315-4.369A12.43533,12.43533,0,0,1,43.5,27.92547a12.43549,12.43549,0,0,1-2.55854,3.4185C39.53023,32.67261,37.729,33.76362,37.11,35.713a4.10217,4.10217,0,0,0,2.12749,5.08225,2.9643,2.9643,0,0,0,3.44642-.734,2.3706,2.3706,0,0,0,.43412-.852,3.72565,3.72565,0,0,1-.6128,2.25227,3.67107,3.67107,0,0,1-.99469.99685V42.957h3.97894v-.49857a3.67136,3.67136,0,0,1-.99473-.99685,3.72569,3.72569,0,0,1-.61279-2.25239,2.37073,2.37073,0,0,0,.43416.85212,2.96426,2.96426,0,0,0,3.44641.734A4.10221,4.10221,0,0,0,49.89,35.713Z"/><path d="M37.11,91.287c.619,1.94938,2.42029,3.04039,3.8315,4.369A12.43533,12.43533,0,0,1,43.5,99.07453a12.43549,12.43549,0,0,1,2.55854-3.4185c1.41122-1.32864,3.21243-2.41965,3.83147-4.369a4.10217,4.10217,0,0,0-2.12749-5.08225,2.9643,2.9643,0,0,0-3.44642.734,2.3706,2.3706,0,0,0-.43412.852,3.72565,3.72565,0,0,1,.6128-2.25227,3.67107,3.67107,0,0,1,.99469-.99685V84.043H41.51054v.49857a3.67136,3.67136,0,0,1,.99473.99685,3.72569,3.72569,0,0,1,.61279,2.25239,2.37073,2.37073,0,0,0-.43416-.85212,2.96426,2.96426,0,0,0-3.44641-.734A4.10221,4.10221,0,0,0,37.11,91.287Z"/></g></svg>