<svg xmlns="http://www.w3.org/2000/svg" viewBox="0 0 115 167"><defs><style>.cls-1{fill:#fff;}</style></defs><title>card-spades-7</title><g id="artwork"><rect class="cls-1" width="115" height="167" rx="8"/><path d="M20.16919,38.78528c-.54553-1.71784-2.13293-2.67927-3.37659-3.8501a10.95844,10.95844,0,0,1-2.25478-3.01248A10.95844,10.95844,0,0,1,12.283,34.93518c-1.24367,1.17083-2.831,2.13226-3.37656,3.8501a3.61485,3.61485,0,0,0,1.87489,4.47861,2.61246,2.61246,0,0,0,3.03724-.64681,2.089,2.089,0,0,0,.38258-.75081,3.28311,3.28311,0,0,1-.54,1.98477,3.2352,3.2352,0,0,1-.8766.87844v.43936h3.50653v-.43936a3.23545,3.23545,0,0,1-.87663-.87844,3.28306,3.28306,0,0,1-.54-1.98487,2.08905,2.08905,0,0,0,.38261.75091,2.61243,2.61243,0,0,0,3.03723.64681A3.6149,3.6149,0,0,0,20.16919,38.78528Z"/><path d="M11.99976,24.24456l5.2657-11.67769v-.55106H10.2441V10.53209h8.67116V12.6723L13.54371,24.73224Z"/><path d="M94.83081,128.215c.54553,1.71784,2.13293,2.67927,3.37659,3.8501a10.95844,10.95844,0,0,1,2.25478,3.01248,10.95844,10.95844,0,0,1,2.25478-3.01248c1.24367-1.17083,2.831-2.13226,3.37656-3.8501a3.61485,3.61485,0,0,0-1.87489-4.47861,2.61246,2.61246,0,0,0-3.03724.64681,2.089,2.089,0,0,0-.38258.75081,3.28308,3.28308,0,0,1,.54-1.98476,3.23524,3.23524,0,0,1,.8766-.87845v-.43936H98.70892v.43936a3.23549,3.23549,0,0,1,.87663.87845,3.283,3.283,0,0,1,.54,1.98486,2.08913,2.08913,0,0,0-.38261-.75091,2.61243,2.61243,0,0,0-3.03723-.64681A3.6149,3.6149,0,0,0,94.83081,128.215Z"/><path d="M103.0011,142.75609l-5.26569,11.67833v.55106h7.02135v1.48243H96.0856v-2.13956l5.37155-12.05994Z"/><path d="M44.79648,83.85927c-.8183-2.57677-3.19939-4.01891-5.06489-5.77516a16.43781,16.43781,0,0,1-3.38217-4.51871,16.43758,16.43758,0,0,1-3.38216,4.51871c-1.8655,1.75625-4.24654,3.19839-5.06485,5.77516a5.42229,5.42229,0,0,0,2.81234,6.71791A3.91868,3.91868,0,0,0,35.2706,89.607a3.13338,3.13338,0,0,0,.57388-1.12621,4.92464,4.92464,0,0,1-.81006,2.97715,4.85305,4.85305,0,0,1-1.3149,1.31767v.659h5.2598v-.659a4.85324,4.85324,0,0,1-1.315-1.31767,4.92465,4.92465,0,0,1-.81-2.9773,3.13373,3.13373,0,0,0,.57392,1.12636,3.91865,3.91865,0,0,0,4.55585.97022A5.42235,5.42235,0,0,0,44.79648,83.85927Z"/><path d="M87.09762,83.85927c-.81831-2.57677-3.1994-4.01891-5.0649-5.77516a16.43758,16.43758,0,0,1-3.38216-4.51871,16.43781,16.43781,0,0,1-3.38217,4.51871c-1.8655,1.75625-4.24654,3.19839-5.06485,5.77516a5.42228,5.42228,0,0,0,2.81235,6.71791,3.91868,3.91868,0,0,0,4.55585-.97022,3.13336,3.13336,0,0,0,.57387-1.12621,4.92457,4.92457,0,0,1-.81006,2.97715,4.85316,4.85316,0,0,1-1.31489,1.31767v.659h5.25979v-.659A4.85338,4.85338,0,0,1,79.9655,91.4579a4.92465,4.92465,0,0,1-.81005-2.9773,3.13373,3.13373,0,0,0,.57392,1.12636,3.91865,3.91865,0,0,0,4.55585.97022A5.42236,5.42236,0,0,0,87.09762,83.85927Z"/><path d="M44.79648,28.22546c-.8183-2.57677-3.19939-4.01891-5.06489-5.77515a16.438,16.438,0,0,1-3.38217-4.51872,16.43777,16.43777,0,0,1-3.38216,4.51872c-1.8655,1.75624-4.24654,3.19838-5.06485,5.77515a5.42228,5.42228,0,0,0,2.81234,6.71791,3.91867,3.91867,0,0,0,4.55585-.97022,3.13338,3.13338,0,0,0,.57388-1.12621,4.92462,4.92462,0,0,1-.81006,2.97715,4.85291,4.85291,0,0,1-1.3149,1.31767v.659h5.2598v-.659a4.8531,4.8531,0,0,1-1.315-1.31767,4.92462,4.92462,0,0,1-.81-2.97729,3.13376,3.13376,0,0,0,.57392,1.12635,3.91863,3.91863,0,0,0,4.55585.97022A5.42235,5.42235,0,0,0,44.79648,28.22546Z"/><path d="M27.90238,138.77454c.81831,2.57677,3.1994,4.01891,5.0649,5.77515a16.43777,16.43777,0,0,1,3.38216,4.51872,16.438,16.438,0,0,1,3.38217-4.51872c1.8655-1.75624,4.24654-3.19838,5.06485-5.77515a5.42228,5.42228,0,0,0-2.81235-6.71791,3.91867,3.91867,0,0,0-4.55585.97022,3.13336,3.13336,0,0,0-.57387,1.12621,4.92455,4.92455,0,0,1,.81006-2.97715,4.853,4.853,0,0,1,1.31489-1.31767v-.659H33.71955v.659a4.85324,4.85324,0,0,1,1.315,1.31767,4.92462,4.92462,0,0,1,.81,2.97729,3.13376,3.13376,0,0,0-.57392-1.12635,3.91864,3.91864,0,0,0-4.55585-.97022A5.42235,5.42235,0,0,0,27.90238,138.77454Z"/><path d="M87.09762,28.22546c-.81831-2.57677-3.1994-4.01891-5.0649-5.77515a16.43777,16.43777,0,0,1-3.38216-4.51872,16.438,16.438,0,0,1-3.38217,4.51872c-1.8655,1.75624-4.24654,3.19838-5.06485,5.77515a5.42228,5.42228,0,0,0,2.81235,6.71791,3.91867,3.91867,0,0,0,4.55585-.97022,3.13336,3.13336,0,0,0,.57387-1.12621,4.92455,4.92455,0,0,1-.81006,2.97715,4.853,4.853,0,0,1-1.31489,1.31767v.659h5.25979v-.659a4.85324,4.85324,0,0,1-1.31495-1.31767,4.92462,4.92462,0,0,1-.81005-2.97729,3.13376,3.13376,0,0,0,.57392,1.12635,3.91864,3.91864,0,0,0,4.55585.97022A5.42235,5.42235,0,0,0,87.09762,28.22546Z"/><path d="M70.20352,138.77454c.8183,2.57677,3.19939,4.01891,5.06489,5.77515a16.438,16.438,0,0,1,3.38217,4.51872,16.43777,16.43777,0,0,1,3.38216-4.51872c1.8655-1.75624,4.24654-3.19838,5.06485-5.77515a5.42228,5.42228,0,0,0-2.81234-6.71791,3.91867,3.91867,0,0,0-4.55585.97022,3.13338,3.13338,0,0,0-.57388,1.12621,4.92462,4.92462,0,0,1,.81006-2.97715,4.85291,4.85291,0,0,1,1.3149-1.31767v-.659h-5.2598v.659a4.8531,4.8531,0,0,1,1.31495,1.31767,4.92462,4.92462,0,0,1,.81005,2.97729,3.13376,3.13376,0,0,0-.57392-1.12635,3.91863,3.91863,0,0,0-4.55585-.97022A5.42235,5.42235,0,0,0,70.20352,138.77454Z"/><path d="M65.9466,56.04236c-.81826-2.57676-3.19923-4.0189-5.06463-5.77515A16.4378,16.4378,0,0,1,57.5,45.74849a16.43763,16.43763,0,0,1-3.382,4.51872c-1.8654,1.75625-4.24631,3.19839-5.06457,5.77515a5.4224,5.4224,0,0,0,2.81219,6.71792,3.91833,3.91833,0,0,0,4.55561-.97022,3.13353,3.13353,0,0,0,.57384-1.12621,4.92469,4.92469,0,0,1-.81,2.97714,4.85262,4.85262,0,0,1-1.31482,1.31767v.659h5.25952v-.659A4.853,4.853,0,0,1,58.81487,63.641a4.9248,4.9248,0,0,1-.81-2.97729,3.13366,3.13366,0,0,0,.57389,1.12636,3.91828,3.91828,0,0,0,4.5556.97022A5.42247,5.42247,0,0,0,65.9466,56.04236Z"/></g></svg>