<svg xmlns="http://www.w3.org/2000/svg" viewBox="0 0 115 167"><defs><style>.cls-1{fill:#fff;}.cls-2{fill:#ff3b5c;}</style></defs><title>card-spades-q</title><g id="artwork"><rect class="cls-1" width="115" height="167" rx="8"/><path d="M20.16919,38.783c-.54553-1.71794-2.13293-2.67941-3.37659-3.85031a10.959,10.959,0,0,1-2.25478-3.01263A10.959,10.959,0,0,1,12.283,34.9327c-1.24367,1.1709-2.831,2.13237-3.37656,3.85031a3.61511,3.61511,0,0,0,1.87489,4.47885,2.61237,2.61237,0,0,0,3.03724-.64685,2.08912,2.08912,0,0,0,.38258-.75085,3.28341,3.28341,0,0,1-.54,1.98487,3.23528,3.23528,0,0,1-.8766.8785v.43938h3.50653v-.43938a3.23553,3.23553,0,0,1-.87663-.8785,3.28331,3.28331,0,0,1-.54-1.985,2.08918,2.08918,0,0,0,.38261.75094,2.61233,2.61233,0,0,0,3.03723.64685A3.61516,3.61516,0,0,0,20.16919,38.783Z"/><path d="M16.313,24.53861a6.9063,6.9063,0,0,1-1.77632.19017,6.46772,6.46772,0,0,1-3.43645-.784,4.317,4.317,0,0,1-1.79826-2.40551,13.9801,13.9801,0,0,1-.53832-4.29164,14.03656,14.03656,0,0,1,.54865-4.313,4.49885,4.49885,0,0,1,1.81891-2.4799,6.22868,6.22868,0,0,1,3.40547-.81629,6.22568,6.22568,0,0,1,3.40547.81629,4.538,4.538,0,0,1,1.82924,2.4799,13.79887,13.79887,0,0,1,.56155,4.313,13.623,13.623,0,0,1-.56155,4.34468,4.23325,4.23325,0,0,1-1.87184,2.37382l1.79826,2.90357-1.5233.72055Zm.73066-1.84408a3.2,3.2,0,0,0,1.23671-1.87577,13.61364,13.61364,0,0,0,.36017-3.529,13.89646,13.89646,0,0,0-.3705-3.58143,3.49879,3.49879,0,0,0-1.25865-1.98186,4.14045,4.14045,0,0,0-2.47471-.64682,4.19552,4.19552,0,0,0-2.47471.63583,3.45374,3.45374,0,0,0-1.25865,1.97085,13.80991,13.80991,0,0,0-.36921,3.56139,13.77607,13.77607,0,0,0,.35888,3.529,3.22,3.22,0,0,0,1.25866,1.90682,4.45369,4.45369,0,0,0,2.50569.60413A4.4171,4.4171,0,0,0,17.04362,22.69453Z"/><path d="M94.83081,128.21748c.54553,1.71793,2.13293,2.67941,3.37659,3.8503a10.95918,10.95918,0,0,1,2.25478,3.01264,10.95918,10.95918,0,0,1,2.25478-3.01264c1.24367-1.17089,2.831-2.13237,3.37656-3.8503a3.61511,3.61511,0,0,0-1.87489-4.47885,2.61234,2.61234,0,0,0-3.03724.64685,2.08908,2.08908,0,0,0-.38258.75084,3.28341,3.28341,0,0,1,.54-1.98487,3.23539,3.23539,0,0,1,.8766-.87849v-.43938H98.70892v.43938a3.23564,3.23564,0,0,1,.87663.87849,3.28336,3.28336,0,0,1,.54,1.985,2.08918,2.08918,0,0,0-.38261-.75094,2.6123,2.6123,0,0,0-3.03723-.64685A3.61516,3.61516,0,0,0,94.83081,128.21748Z"/><path d="M98.687,142.46139a6.90622,6.90622,0,0,1,1.77631-.19017,6.46768,6.46768,0,0,1,3.43645.784,4.31624,4.31624,0,0,1,1.79826,2.40616,17.30365,17.30365,0,0,1-.01032,8.60527,4.50807,4.50807,0,0,1-1.81892,2.47991,7.52242,7.52242,0,0,1-6.81093,0,4.54736,4.54736,0,0,1-1.82925-2.47991,13.80759,13.80759,0,0,1-.56155-4.313,13.62768,13.62768,0,0,1,.56155-4.34533,4.23319,4.23319,0,0,1,1.87185-2.37382l-1.79826-2.90357,1.52329-.7212Zm-.73067,1.84472a3.2021,3.2021,0,0,0-1.23671,1.87578,13.61707,13.61707,0,0,0-.36016,3.529A13.89865,13.89865,0,0,0,96.73,153.293a3.501,3.501,0,0,0,1.25866,1.98185,4.14052,4.14052,0,0,0,2.4747.64553,4.20034,4.20034,0,0,0,2.47471-.63518,3.45763,3.45763,0,0,0,1.25866-1.9715,17.43905,17.43905,0,0,0,.01032-7.08913,3.22525,3.22525,0,0,0-1.25865-1.90812,5.50037,5.50037,0,0,0-4.992-.01035Z"/><path d="M50.13514,48.13519a3.871,3.871,0,0,0-3.683,2.70578V42.66359a3.68274,3.68274,0,0,1,3.68237-3.683h.00064a3.68274,3.68274,0,0,1,3.68237,3.683V50.841A3.87136,3.87136,0,0,0,50.13514,48.13519Z"/><path d="M57.50117,48.13519a3.87218,3.87218,0,0,0-3.683,2.70578V42.66359a3.68316,3.68316,0,0,1,3.68237-3.683h.00064a3.68274,3.68274,0,0,1,3.68237,3.683V50.841A3.87076,3.87076,0,0,0,57.50117,48.13519Z"/><path d="M64.86785,48.13519a3.87156,3.87156,0,0,0-3.683,2.70578V42.66359a3.68274,3.68274,0,0,1,3.68237-3.683h.00064a3.68274,3.68274,0,0,1,3.68237,3.683V50.841A3.87137,3.87137,0,0,0,64.86785,48.13519Z"/><path d="M51.70063,77.91831c-.08109.25484-.31706.39747-.50194.57116a1.62608,1.62608,0,0,0-.33518.4469,1.62608,1.62608,0,0,0-.33518-.4469c-.18487-.17369-.42084-.31632-.50194-.57116a.53586.53586,0,0,1,.27871-.6644.3889.3889,0,0,1,.4515.096.30979.30979,0,0,1,.05687.11138.48626.48626,0,0,0-.08028-.29444.48051.48051,0,0,0-.13031-.13031v-.06518h.52126v.06518a.48051.48051,0,0,0-.13031.13031.48625.48625,0,0,0-.08028.29446.30964.30964,0,0,1,.05687-.1114.3889.3889,0,0,1,.4515-.096A.53586.53586,0,0,1,51.70063,77.91831Z"/><path d="M64.976,77.91831c-.0811.25484-.31707.39747-.50194.57116a1.62588,1.62588,0,0,0-.33518.4469,1.62608,1.62608,0,0,0-.33518-.4469c-.18488-.17369-.42085-.31632-.50194-.57116a.53586.53586,0,0,1,.27871-.6644.38889.38889,0,0,1,.45149.096.30963.30963,0,0,1,.05687.11138.48632.48632,0,0,0-.08027-.29444.48051.48051,0,0,0-.13031-.13031v-.06518h.52125v.06518a.48065.48065,0,0,0-.13031.13031.48632.48632,0,0,0-.08028.29446.30982.30982,0,0,1,.05688-.1114.38889.38889,0,0,1,.45149-.096A.53587.53587,0,0,1,64.976,77.91831Z"/><path d="M54.29435,78.78288c-.0811.25484-.31707.39747-.50194.57116a1.62588,1.62588,0,0,0-.33518.4469,1.62608,1.62608,0,0,0-.33518-.4469c-.18488-.17369-.42085-.31632-.50194-.57116a.53586.53586,0,0,1,.27871-.6644.38889.38889,0,0,1,.45149.09595.30978.30978,0,0,1,.05688.11139.48638.48638,0,0,0-.08028-.29444.4804.4804,0,0,0-.13031-.13032v-.06518h.52126v.06518a.48044.48044,0,0,0-.13032.13032.48627.48627,0,0,0-.08028.29445.30982.30982,0,0,1,.05688-.1114.38889.38889,0,0,1,.45149-.09595A.53588.53588,0,0,1,54.29435,78.78288Z"/><path d="M62.38224,78.78288c-.08109.25484-.31706.39747-.50194.57116a1.62608,1.62608,0,0,0-.33518.4469,1.62608,1.62608,0,0,0-.33518-.4469c-.18488-.17369-.42084-.31632-.50194-.57116a.53586.53586,0,0,1,.27871-.6644.3889.3889,0,0,1,.4515.09595.30975.30975,0,0,1,.05687.11139.48631.48631,0,0,0-.08028-.29444.4804.4804,0,0,0-.13031-.13032v-.06518h.52126v.06518a.48044.48044,0,0,0-.13032.13032.48626.48626,0,0,0-.08027.29445.30964.30964,0,0,1,.05687-.1114.3889.3889,0,0,1,.4515-.09595A.53586.53586,0,0,1,62.38224,78.78288Z"/><path d="M49.10692,76.18917c-.0811.25484-.31707.39746-.50194.57116a1.62573,1.62573,0,0,0-.33518.4469,1.62593,1.62593,0,0,0-.33518-.4469c-.18488-.1737-.42085-.31632-.50194-.57116a.53587.53587,0,0,1,.27871-.66441.38891.38891,0,0,1,.45149.096.30973.30973,0,0,1,.05688.11138.4864.4864,0,0,0-.08028-.29444.48055.48055,0,0,0-.13031-.13032v-.06517h.52125v.06517a.48069.48069,0,0,0-.13031.13032.4863.4863,0,0,0-.08028.29446.30982.30982,0,0,1,.05688-.1114.38891.38891,0,0,1,.45149-.096A.53589.53589,0,0,1,49.10692,76.18917Z"/><path d="M67.56967,76.18917c-.08109.25484-.31706.39746-.50194.57116a1.62593,1.62593,0,0,0-.33518.4469,1.62593,1.62593,0,0,0-.33518-.4469c-.18487-.1737-.42084-.31632-.50194-.57116a.53587.53587,0,0,1,.27871-.66441.38892.38892,0,0,1,.4515.096.30971.30971,0,0,1,.05687.11138.48633.48633,0,0,0-.08028-.29444.48055.48055,0,0,0-.13031-.13032v-.06517h.52126v.06517a.4804.4804,0,0,0-.13031.13032.48623.48623,0,0,0-.08028.29446.30964.30964,0,0,1,.05687-.1114.38892.38892,0,0,1,.4515-.096A.53587.53587,0,0,1,67.56967,76.18917Z"/><path d="M59.69662,80.83276c-.21268.66835-.83154,1.04241-1.3164,1.49794a4.26423,4.26423,0,0,0-.879,1.17205,4.26423,4.26423,0,0,0-.879-1.17205c-.48486-.45553-1.1037-.82959-1.31639-1.49794a1.40535,1.40535,0,0,1,.731-1.74247,1.01992,1.01992,0,0,1,1.1841.25165.812.812,0,0,1,.14915.29211,1.27534,1.27534,0,0,0-.21054-.7722,1.26,1.26,0,0,0-.34175-.34178v-.17093H58.1847v.17093a1.26,1.26,0,0,0-.34176.34178,1.27532,1.27532,0,0,0-.21054.77224.81237.81237,0,0,1,.14916-.29215,1.01992,1.01992,0,0,1,1.1841-.25165A1.40537,1.40537,0,0,1,59.69662,80.83276Z"/><rect x="39.07509" y="47.24226" width="7.37076" height="30.65377" rx="3.68538"/><rect x="68.55649" y="47.24226" width="7.37076" height="30.65377" rx="3.68538"/><path d="M57.50124,73.58836A11.74367,11.74367,0,0,1,45.77074,61.858h.66095a11.06946,11.06946,0,0,0,22.13892,0h.661A11.74353,11.74353,0,0,1,57.50124,73.58836Z"/><rect x="57.17076" y="58.74463" width="0.66095" height="3.62976"/><rect x="47.26805" y="55.39791" width="5.60004" height="0.66095"/><rect x="62.13421" y="55.39791" width="5.60004" height="0.66095"/><circle cx="64.94958" cy="55.72837" r="1.48006"/><circle cx="50.07588" cy="55.72837" r="1.48006"/><rect class="cls-2" x="54.40495" y="67.2115" width="6.19242" height="0.66095"/><path class="cls-2" d="M50.13514,37.79381a3.871,3.871,0,0,1-3.683-2.70578v8.17738a3.68273,3.68273,0,0,0,3.68237,3.683h.00064a3.68273,3.68273,0,0,0,3.68237-3.683V35.088A3.87136,3.87136,0,0,1,50.13514,37.79381Z"/><path class="cls-2" d="M57.50117,37.79381a3.87218,3.87218,0,0,1-3.683-2.70578v8.17738a3.68315,3.68315,0,0,0,3.68237,3.683h.00064a3.68273,3.68273,0,0,0,3.68237-3.683V35.088A3.87076,3.87076,0,0,1,57.50117,37.79381Z"/><path class="cls-2" d="M64.86785,37.79381a3.87156,3.87156,0,0,1-3.683-2.70578v8.17738a3.68273,3.68273,0,0,0,3.68237,3.683h.00064a3.68273,3.68273,0,0,0,3.68237-3.683V35.088A3.87137,3.87137,0,0,1,64.86785,37.79381Z"/><path d="M52.69465,35.516c.46563-1.46323,1.82051-2.28216,2.882-3.27946a9.336,9.336,0,0,0,1.92451-2.566,9.336,9.336,0,0,0,1.92451,2.566c1.06151.9973,2.41636,1.81623,2.882,3.27946a3.07677,3.07677,0,0,1-1.60028,3.81481,2.23294,2.23294,0,0,1-2.59236-.55094,1.778,1.778,0,0,1-.32655-.63953,2.79215,2.79215,0,0,0,.46094,1.69059,2.75874,2.75874,0,0,0,.7482.74825v.37424H56.00472v-.37424a2.75857,2.75857,0,0,0,.74823-.74825,2.79212,2.79212,0,0,0,.46093-1.69067,1.77813,1.77813,0,0,1-.32657.63961,2.23292,2.23292,0,0,1-2.59236.55094A3.0768,3.0768,0,0,1,52.69465,35.516Z"/><path d="M63.31687,42.70684c.15893-.49944.62139-.779.98371-1.11936a3.18682,3.18682,0,0,0,.65688-.87584,3.18685,3.18685,0,0,0,.65689.87584c.36232.3404.82477.61992.9837,1.11936a1.0502,1.0502,0,0,1-.54622,1.3021.76217.76217,0,0,1-.88484-.18806.607.607,0,0,1-.11146-.21828.95309.95309,0,0,0,.15733.577.94174.94174,0,0,0,.25538.2554v.12773H64.44668V44.435a.94149.94149,0,0,0,.25539-.2554.953.953,0,0,0,.15733-.57707.6069.6069,0,0,1-.11147.21831.76216.76216,0,0,1-.88484.18806A1.0502,1.0502,0,0,1,63.31687,42.70684Z"/><path d="M48.4043,42.70684c.15893-.49944.62139-.779.9837-1.11936a3.18665,3.18665,0,0,0,.65689-.87584,3.18665,3.18665,0,0,0,.65689.87584c.36232.3404.82476.61992.9837,1.11936a1.0502,1.0502,0,0,1-.54622,1.3021.76217.76217,0,0,1-.88484-.18806.607.607,0,0,1-.11146-.21828.95309.95309,0,0,0,.15733.577.94174.94174,0,0,0,.25538.2554v.12773H49.53411V44.435a.94149.94149,0,0,0,.25539-.2554.953.953,0,0,0,.15733-.57707.6069.6069,0,0,1-.11147.21831.76216.76216,0,0,1-.88484.18806A1.0502,1.0502,0,0,1,48.4043,42.70684Z"/><path class="cls-2" d="M37.24153,47.08991a2.08191,2.08191,0,0,0,1.8205-1.44173v-.00047l.00046-.00046v.00093a2.08183,2.08183,0,0,0,1.82,1.44173Z"/><path class="cls-2" d="M42.28166,48.10988a2.0819,2.0819,0,0,0,1.93453,1.28467l.00088-.00029-.00044.00015.00059.00029-.00089.00029a2.08182,2.08182,0,0,0-.80739,2.177Z"/><path class="cls-2" d="M38.15638,55.39227a2.08187,2.08187,0,0,0-2.32075.083l-.00055.00075.00027-.00038-.00064.0001.00055-.00074a2.08182,2.08182,0,0,0-.6122-2.23972Z"/><path class="cls-2" d="M35.86194,48.05276a2.08187,2.08187,0,0,1-1.94178,1.27369l-.00088-.00029.00044.00015-.00058.00029.00088.00029a2.08181,2.08181,0,0,1,.795,2.18152Z"/><path class="cls-2" d="M39.91852,55.40932a2.08187,2.08187,0,0,1,2.32021.0971l.00055.00075-.00028-.00038.00065.00011-.00054-.00075a2.08179,2.08179,0,0,1,.62576-2.236Z"/><path class="cls-1" d="M37.48363,54.4666l-.34505-.70146-.77155-.11249a1.77443,1.77443,0,0,1-.9793-3.024l.5583-.546-.1318-.771a1.76825,1.76825,0,0,1,2.56385-1.86893l.6901.364.6901-.364a1.76824,1.76824,0,0,1,2.56384,1.86893l-.13179.771.5583.546a1.77443,1.77443,0,0,1-.9793,3.024l-.77156.11249-.34505.70146A1.76443,1.76443,0,0,1,37.48363,54.4666Z"/><path d="M39.06825,55.61994a1.92,1.92,0,0,1-1.73291-1.0805l-.3066-.6232-.68564-.1a1.93985,1.93985,0,0,1-1.071-3.30575l.49636-.48538-.117-.68581a1.93343,1.93343,0,0,1,2.80374-2.04289l.613.32338.61286-.32338a1.93364,1.93364,0,0,1,2.8039,2.04289l-.11715.68581.49636.48538a1.93973,1.93973,0,0,1-1.071,3.30575l-.68564.1-.3066.6232A1.9199,1.9199,0,0,1,39.06825,55.61994ZM37.55108,47.399a1.61457,1.61457,0,0,0-1.574,1.88475l.14636.85621-.62029.60673a1.60912,1.60912,0,0,0,.88767,2.74226l.85766.12522.38341.77939a1.59917,1.59917,0,0,0,2.87247,0l.38341-.77939.85766-.12522a1.60912,1.60912,0,0,0,.88767-2.74226L42.01285,50.14l.14652-.85621a1.60317,1.60317,0,0,0-2.324-1.695l-.76713.40471-.7673-.40471A1.60348,1.60348,0,0,0,37.55108,47.399Z"/><path class="cls-2" d="M39.06792,49.56969a1.50748,1.50748,0,1,1-1.50715,1.50716,1.509,1.509,0,0,1,1.50715-1.50716m0-.33048a1.838,1.838,0,1,0,1.83828,1.83764,1.83793,1.83793,0,0,0-1.83828-1.83764Z"/><path d="M64.86486,118.86481a3.871,3.871,0,0,0,3.683-2.70578v8.17738a3.68274,3.68274,0,0,1-3.68237,3.683h-.00064a3.68274,3.68274,0,0,1-3.68237-3.683V116.159A3.87136,3.87136,0,0,0,64.86486,118.86481Z"/><path d="M57.49883,118.86481a3.87218,3.87218,0,0,0,3.683-2.70578v8.17738a3.68316,3.68316,0,0,1-3.68237,3.683h-.00064a3.68274,3.68274,0,0,1-3.68237-3.683V116.159A3.87076,3.87076,0,0,0,57.49883,118.86481Z"/><path d="M50.13215,118.86481a3.87156,3.87156,0,0,0,3.683-2.70578v8.17738a3.68274,3.68274,0,0,1-3.68237,3.683h-.00064a3.68274,3.68274,0,0,1-3.68237-3.683V116.159A3.87137,3.87137,0,0,0,50.13215,118.86481Z"/><path d="M63.29937,89.08169c.08109-.25484.31706-.39747.50194-.57116a1.62608,1.62608,0,0,0,.33518-.4469,1.62608,1.62608,0,0,0,.33518.4469c.18487.17369.42084.31632.50194.57116a.53586.53586,0,0,1-.27871.6644.3889.3889,0,0,1-.4515-.096.30979.30979,0,0,1-.05687-.11138.48626.48626,0,0,0,.08028.29444.48051.48051,0,0,0,.13031.13031v.06518h-.52126v-.06518a.48051.48051,0,0,0,.13031-.13031.48625.48625,0,0,0,.08028-.29446.30964.30964,0,0,1-.05687.1114.3889.3889,0,0,1-.4515.096A.53586.53586,0,0,1,63.29937,89.08169Z"/><path d="M50.024,89.08169c.0811-.25484.31707-.39747.50194-.57116a1.62588,1.62588,0,0,0,.33518-.4469,1.62608,1.62608,0,0,0,.33518.4469c.18488.17369.42085.31632.50194.57116a.53586.53586,0,0,1-.27871.6644.38889.38889,0,0,1-.45149-.096.30963.30963,0,0,1-.05687-.11138.48632.48632,0,0,0,.08027.29444.48051.48051,0,0,0,.13031.13031v.06518h-.52125v-.06518a.48065.48065,0,0,0,.13031-.13031.48632.48632,0,0,0,.08028-.29446.30982.30982,0,0,1-.05688.1114.38889.38889,0,0,1-.45149.096A.53587.53587,0,0,1,50.024,89.08169Z"/><path d="M60.70565,88.21712c.0811-.25484.31707-.39747.50194-.57116a1.62588,1.62588,0,0,0,.33518-.4469,1.62608,1.62608,0,0,0,.33518.4469c.18488.17369.42085.31632.50194.57116a.53586.53586,0,0,1-.27871.6644.38889.38889,0,0,1-.45149-.09595.30978.30978,0,0,1-.05688-.11139.48638.48638,0,0,0,.08028.29444.4804.4804,0,0,0,.13031.13032v.06518h-.52126v-.06518a.48044.48044,0,0,0,.13032-.13032.48627.48627,0,0,0,.08028-.29445.30982.30982,0,0,1-.05688.1114.38889.38889,0,0,1-.45149.09595A.53588.53588,0,0,1,60.70565,88.21712Z"/><path d="M52.61776,88.21712c.08109-.25484.31706-.39747.50194-.57116a1.62608,1.62608,0,0,0,.33518-.4469,1.62608,1.62608,0,0,0,.33518.4469c.18488.17369.42084.31632.50194.57116a.53586.53586,0,0,1-.27871.6644.3889.3889,0,0,1-.4515-.09595.30975.30975,0,0,1-.05687-.11139.48631.48631,0,0,0,.08028.29444.4804.4804,0,0,0,.13031.13032v.06518h-.52126v-.06518a.48044.48044,0,0,0,.13032-.13032.48626.48626,0,0,0,.08027-.29445.30964.30964,0,0,1-.05687.1114.3889.3889,0,0,1-.4515.09595A.53586.53586,0,0,1,52.61776,88.21712Z"/><path d="M65.89308,90.81083c.0811-.25484.31707-.39746.50194-.57116a1.62573,1.62573,0,0,0,.33518-.4469,1.62593,1.62593,0,0,0,.33518.4469c.18488.1737.42085.31632.50194.57116a.53587.53587,0,0,1-.27871.66441.38891.38891,0,0,1-.45149-.096.30973.30973,0,0,1-.05688-.11138.4864.4864,0,0,0,.08028.29444.48055.48055,0,0,0,.13031.13032v.06517h-.52125v-.06517a.48069.48069,0,0,0,.13031-.13032.4863.4863,0,0,0,.08028-.29446.30982.30982,0,0,1-.05688.1114.38891.38891,0,0,1-.45149.096A.53589.53589,0,0,1,65.89308,90.81083Z"/><path d="M47.43033,90.81083c.08109-.25484.31706-.39746.50194-.57116a1.62593,1.62593,0,0,0,.33518-.4469,1.62593,1.62593,0,0,0,.33518.4469c.18487.1737.42084.31632.50194.57116a.53587.53587,0,0,1-.27871.66441.38892.38892,0,0,1-.4515-.096.30971.30971,0,0,1-.05687-.11138.48633.48633,0,0,0,.08028.29444.48055.48055,0,0,0,.13031.13032v.06517h-.52126v-.06517a.4804.4804,0,0,0,.13031-.13032.48623.48623,0,0,0,.08028-.29446.30964.30964,0,0,1-.05687.1114.38892.38892,0,0,1-.4515.096A.53587.53587,0,0,1,47.43033,90.81083Z"/><path d="M55.30338,86.16724c.21268-.66835.83154-1.04241,1.3164-1.49794a4.26423,4.26423,0,0,0,.879-1.17205,4.26423,4.26423,0,0,0,.879,1.17205c.48486.45553,1.1037.82959,1.31639,1.49794a1.40535,1.40535,0,0,1-.73095,1.74247,1.01992,1.01992,0,0,1-1.1841-.25165.812.812,0,0,1-.14915-.29211,1.27534,1.27534,0,0,0,.21054.7722,1.26,1.26,0,0,0,.34175.34178v.17093H56.8153v-.17093a1.26,1.26,0,0,0,.34176-.34178,1.27532,1.27532,0,0,0,.21054-.77224.81237.81237,0,0,1-.14916.29215,1.01992,1.01992,0,0,1-1.1841.25165A1.40537,1.40537,0,0,1,55.30338,86.16724Z"/><rect x="68.55414" y="89.10397" width="7.37076" height="30.65377" rx="3.68538"/><rect x="39.07275" y="89.10397" width="7.37076" height="30.65377" rx="3.68538"/><path d="M57.49876,93.41164A11.74367,11.74367,0,0,1,69.22926,105.142h-.66095a11.06946,11.06946,0,0,0-22.13892,0h-.661A11.74353,11.74353,0,0,1,57.49876,93.41164Z"/><rect x="57.16829" y="104.6256" width="0.66095" height="3.62976"/><rect x="62.1319" y="110.94114" width="5.60004" height="0.66095"/><rect x="47.26575" y="110.94114" width="5.60004" height="0.66095"/><circle cx="50.05042" cy="111.27163" r="1.48006"/><circle cx="64.92412" cy="111.27163" r="1.48006"/><rect class="cls-2" x="54.40264" y="99.12754" width="6.19242" height="0.66095"/><path class="cls-2" d="M64.86486,129.20619a3.871,3.871,0,0,1,3.683,2.70578v-8.17738a3.68273,3.68273,0,0,0-3.68237-3.683h-.00064a3.68273,3.68273,0,0,0-3.68237,3.683V131.912A3.87136,3.87136,0,0,1,64.86486,129.20619Z"/><path class="cls-2" d="M57.49883,129.20619a3.87218,3.87218,0,0,1,3.683,2.70578v-8.17738a3.68315,3.68315,0,0,0-3.68237-3.683h-.00064a3.68273,3.68273,0,0,0-3.68237,3.683V131.912A3.87076,3.87076,0,0,1,57.49883,129.20619Z"/><path class="cls-2" d="M50.13215,129.20619a3.87156,3.87156,0,0,1,3.683,2.70578v-8.17738a3.68273,3.68273,0,0,0-3.68237-3.683h-.00064a3.68273,3.68273,0,0,0-3.68237,3.683V131.912A3.87137,3.87137,0,0,1,50.13215,129.20619Z"/><path d="M62.30535,131.484c-.46563,1.46323-1.82051,2.28216-2.882,3.27946a9.336,9.336,0,0,0-1.92451,2.566,9.336,9.336,0,0,0-1.92451-2.566c-1.06151-.9973-2.41636-1.81623-2.882-3.27946a3.07677,3.07677,0,0,1,1.60028-3.81481,2.23294,2.23294,0,0,1,2.59236.55094,1.778,1.778,0,0,1,.32655.63953,2.79215,2.79215,0,0,0-.46094-1.69059,2.75874,2.75874,0,0,0-.7482-.74825v-.37424h2.99292v.37424a2.75857,2.75857,0,0,0-.74823.74825,2.79212,2.79212,0,0,0-.46093,1.69067,1.77813,1.77813,0,0,1,.32657-.63961,2.23292,2.23292,0,0,1,2.59236-.55094A3.0768,3.0768,0,0,1,62.30535,131.484Z"/><path d="M51.68313,124.29316c-.15893.49944-.62139.779-.98371,1.11936a3.18682,3.18682,0,0,0-.65688.87584,3.18685,3.18685,0,0,0-.65689-.87584c-.36232-.3404-.82477-.61992-.9837-1.11936a1.0502,1.0502,0,0,1,.54622-1.3021.76217.76217,0,0,1,.88484.18806.607.607,0,0,1,.11146.21828.95309.95309,0,0,0-.15733-.577.94174.94174,0,0,0-.25538-.2554v-.12773h1.02156v.12773a.94149.94149,0,0,0-.25539.2554.953.953,0,0,0-.15733.57707.6069.6069,0,0,1,.11147-.21831.76216.76216,0,0,1,.88484-.18806A1.0502,1.0502,0,0,1,51.68313,124.29316Z"/><path d="M66.5957,124.29316c-.15893.49944-.62139.779-.9837,1.11936a3.18665,3.18665,0,0,0-.65689.87584,3.18665,3.18665,0,0,0-.65689-.87584c-.36232-.3404-.82476-.61992-.9837-1.11936a1.0502,1.0502,0,0,1,.54622-1.3021.76217.76217,0,0,1,.88484.18806.607.607,0,0,1,.11146.21828.95309.95309,0,0,0-.15733-.577.94174.94174,0,0,0-.25538-.2554v-.12773h1.02156v.12773a.94149.94149,0,0,0-.25539.2554.953.953,0,0,0-.15733.57707.6069.6069,0,0,1,.11147-.21831.76216.76216,0,0,1,.88484-.18806A1.0502,1.0502,0,0,1,66.5957,124.29316Z"/><path class="cls-2" d="M77.75847,119.91009a2.08191,2.08191,0,0,0-1.8205,1.44173v.00047l-.00046.00046v-.00093a2.08183,2.08183,0,0,0-1.82-1.44173Z"/><path class="cls-2" d="M72.71834,118.89012a2.0819,2.0819,0,0,0-1.93453-1.28467l-.00088.00029.00044-.00015-.00059-.00029.00089-.00029a2.08182,2.08182,0,0,0,.80739-2.177Z"/><path class="cls-2" d="M76.84362,111.60773a2.08187,2.08187,0,0,0,2.32075-.083l.00055-.00075-.00027.00038.00064-.0001-.00055.00074a2.08182,2.08182,0,0,0,.6122,2.23972Z"/><path class="cls-2" d="M79.13806,118.94724a2.08187,2.08187,0,0,1,1.94178-1.27369l.00088.00029-.00044-.00015.00058-.00029-.00088-.00029a2.08181,2.08181,0,0,1-.795-2.18152Z"/><path class="cls-2" d="M75.08148,111.59068a2.08187,2.08187,0,0,1-2.32021-.0971l-.00055-.00075.00028.00038-.00065-.00011.00054.00075a2.08179,2.08179,0,0,1-.62576,2.236Z"/><path class="cls-1" d="M77.51637,112.5334l.34505.70146.77155.11249a1.77443,1.77443,0,0,1,.9793,3.024l-.5583.546.1318.771a1.76825,1.76825,0,0,1-2.56385,1.86893l-.6901-.364-.6901.364a1.76824,1.76824,0,0,1-2.56384-1.86893l.13179-.771-.5583-.546a1.77443,1.77443,0,0,1,.9793-3.024l.77156-.11249.34505-.70146A1.76443,1.76443,0,0,1,77.51637,112.5334Z"/><path d="M75.93175,111.38006a1.92,1.92,0,0,1,1.73291,1.0805l.3066.6232.68564.1a1.93985,1.93985,0,0,1,1.071,3.30575l-.49636.48538.117.68581a1.93343,1.93343,0,0,1-2.80374,2.04289l-.613-.32338-.61286.32338a1.93364,1.93364,0,0,1-2.8039-2.04289l.11715-.68581-.49636-.48538a1.93973,1.93973,0,0,1,1.071-3.30575l.68564-.1.3066-.6232A1.9199,1.9199,0,0,1,75.93175,111.38006Zm1.51717,8.22094a1.61457,1.61457,0,0,0,1.574-1.88475l-.14636-.85621.62029-.60673a1.60912,1.60912,0,0,0-.88767-2.74226l-.85766-.12522-.38341-.77939a1.59917,1.59917,0,0,0-2.87247,0l-.38341.77939-.85766.12522a1.60912,1.60912,0,0,0-.88767,2.74226l.62029.60673-.14652.85621a1.60317,1.60317,0,0,0,2.324,1.695l.76713-.40471.7673.40471A1.60348,1.60348,0,0,0,77.44892,119.601Z"/><path class="cls-2" d="M75.93208,117.43031a1.50748,1.50748,0,1,1,1.50715-1.50716,1.509,1.509,0,0,1-1.50715,1.50716m0,.33048a1.838,1.838,0,1,0-1.83828-1.83764,1.83793,1.83793,0,0,0,1.83828,1.83764Z"/></g></svg>