<svg xmlns="http://www.w3.org/2000/svg" viewBox="0 0 87 127"><defs><style>.cls-1{fill:#fff;}.cls-2{fill:#ff3b5c;}</style></defs><title>card-spades-j</title><g id="artwork"><rect class="cls-1" x="0.00232" width="86.99536" height="127" rx="6"/><path d="M15.25994,29.672c-.41269-1.29959-1.61352-2.02693-2.55433-2.91269a8.2902,8.2902,0,0,1-1.7057-2.279,8.2902,8.2902,0,0,1-1.7057,2.279c-.94081.88576-2.14162,1.6131-2.55431,2.91269a2.73477,2.73477,0,0,0,1.41833,3.38816,1.97619,1.97619,0,0,0,2.29761-.48933,1.58047,1.58047,0,0,0,.28942-.568,2.48382,2.48382,0,0,1-.40854,1.50152,2.44747,2.44747,0,0,1-.66312.66456v.33239h2.65262v-.33239a2.44758,2.44758,0,0,1-.66315-.66456,2.48383,2.48383,0,0,1-.40853-1.50159,1.58042,1.58042,0,0,0,.28944.56807,1.97617,1.97617,0,0,0,2.29761.48933A2.7348,2.7348,0,0,0,15.25994,29.672Z"/><path d="M8.97519,18.92861a4.37447,4.37447,0,0,0,1.18457-.11254.74071.74071,0,0,0,.48731-.46484,3.56151,3.56151,0,0,0,.13672-1.17042V7.78515h1.21582l.01562,9.57181a3.61685,3.61685,0,0,1-.34375,1.79575,1.50878,1.50878,0,0,1-.95215.72956,7.62558,7.62558,0,0,1-1.74414.15217Z"/><path d="M71.74006,97.32753c.41269,1.29958,1.61352,2.02692,2.55433,2.91268a8.29025,8.29025,0,0,1,1.7057,2.279,8.29025,8.29025,0,0,1,1.7057-2.279c.94081-.88576,2.14162-1.6131,2.55431-2.91268a2.73479,2.73479,0,0,0-1.41833-3.38817,1.97621,1.97621,0,0,0-2.29761.48933,1.58047,1.58047,0,0,0-.28942.568,2.48384,2.48384,0,0,1,.40854-1.50152,2.44747,2.44747,0,0,1,.66312-.66456v-.33238H74.67378v.33238a2.44758,2.44758,0,0,1,.66315.66456,2.48385,2.48385,0,0,1,.40853,1.5016,1.58046,1.58046,0,0,0-.28944-.56808,1.97619,1.97619,0,0,0-2.29761-.48933A2.73482,2.73482,0,0,0,71.74006,97.32753Z"/><path d="M78.026,108.07139a4.38434,4.38434,0,0,0-1.18457.11156.74212.74212,0,0,0-.4873.46582,3.56151,3.56151,0,0,0-.13672,1.17042v9.39566H75.00156l-.01563-9.57181a3.6211,3.6211,0,0,1,.34375-1.79673,1.50807,1.50807,0,0,1,.95215-.72907,7.59264,7.59264,0,0,1,1.74414-.15266Z"/><path d="M51.092,59.61936c-.35815-.1604-8.77172-3.98316-8.77172-8.852h.5c0,4.54834,8.39123,8.35766,8.47607,8.39551Z"/><path class="cls-2" d="M52.14067,54.70041A3.041,3.041,0,0,1,49.103,51.66282v-.24927l5.04114-.01636V35.16257h.5V51.89573l-5.02906.01635a2.5412,2.5412,0,0,0,2.52564,2.28833Z"/><rect x="51.59965" y="43.60569" width="0.5" height="5.74585"/><path class="cls-2" d="M51.85775,34.93663a2.92926,2.92926,0,0,0-2.78614,2.04688v-6.186a2.78624,2.78624,0,0,1,2.78565-2.78613h.00049a2.78593,2.78593,0,0,1,2.78564,2.78613v6.186A2.92816,2.92816,0,0,0,51.85775,34.93663Z"/><path d="M50.61643,32.09588c.12022-.37781.47007-.58927.74415-.84678a2.41042,2.41042,0,0,0,.49693-.66255,2.41019,2.41019,0,0,0,.49692.66255c.27409.25751.62392.469.74415.84678a.79444.79444,0,0,1-.4132.985.57656.57656,0,0,1-.66937-.14225.45913.45913,0,0,1-.08432-.16513.721.721,0,0,0,.119.43652.71238.71238,0,0,0,.19319.1932v.09663h-.77279v-.09663a.71228.71228,0,0,0,.1932-.1932.72094.72094,0,0,0,.119-.43655.4591.4591,0,0,1-.08432.16516.57654.57654,0,0,1-.66936.14225A.79444.79444,0,0,1,50.61643,32.09588Z"/><path class="cls-2" d="M46.29282,34.93663a2.92831,2.92831,0,0,0-2.78613,2.04688v-6.186a2.78593,2.78593,0,0,1,2.78564-2.78613h.00049a2.78593,2.78593,0,0,1,2.78564,2.78613v6.186A2.92862,2.92862,0,0,0,46.29282,34.93663Z"/><path d="M45.0515,32.09588c.12023-.37781.47007-.58927.74415-.84678a2.41042,2.41042,0,0,0,.49693-.66255,2.41039,2.41039,0,0,0,.49692.66255c.27409.25751.62392.469.74415.84678a.79444.79444,0,0,1-.4132.985.57656.57656,0,0,1-.66937-.14225.45929.45929,0,0,1-.08432-.16513.721.721,0,0,0,.119.43652.71238.71238,0,0,0,.19319.1932v.09663h-.77279v-.09663a.71228.71228,0,0,0,.1932-.1932.72094.72094,0,0,0,.119-.43655.4591.4591,0,0,1-.08432.16516.57654.57654,0,0,1-.66936.14225A.79444.79444,0,0,1,45.0515,32.09588Z"/><rect x="45.27722" y="41.38929" width="4.35287" height="0.50018" transform="translate(-8.29425 12.0107) rotate(-13.27655)"/><circle cx="48.22815" cy="42.52197" r="1.11964"/><path d="M54.5491,60.20337c-.26151.82179-1.02246,1.28172-1.61863,1.84183a5.24338,5.24338,0,0,0-1.08086,1.44113,5.24338,5.24338,0,0,0-1.08086-1.44113c-.59617-.56011-1.3571-1.02-1.61861-1.84183a1.728,1.728,0,0,1,.89876-2.14251,1.2541,1.2541,0,0,1,1.45595.30943.99846.99846,0,0,1,.18339.35917,1.56816,1.56816,0,0,0-.25887-.94948,1.54955,1.54955,0,0,0-.42021-.42024v-.21018h1.68091v.21018a1.54935,1.54935,0,0,0-.42023.42024,1.56824,1.56824,0,0,0-.25888.94953.99859.99859,0,0,1,.18342-.35922,1.25407,1.25407,0,0,1,1.45594-.30943A1.728,1.728,0,0,1,54.5491,60.20337Z"/><rect x="37.92715" y="31.84443" width="5.57585" height="29.18901" rx="2.78792" transform="translate(81.43015 92.87788) rotate(-180)"/><rect x="32.35599" y="35.84212" width="5.57585" height="19.18901" rx="2.78792"/><rect class="cls-2" x="33.64041" y="33.00869" width="3.007" height="25.59921" rx="1.5035" transform="translate(70.28782 91.61658) rotate(180)"/><rect class="cls-1" x="35.01897" y="33.35251" width="0.25" height="24.98218"/><path class="cls-1" d="M35.144,58.48288a1.38011,1.38011,0,0,1-1.37854-1.37866v-22.592a1.37854,1.37854,0,0,1,2.75708,0v22.592A1.38012,1.38012,0,0,1,35.144,58.48288Zm0-25.09912a1.12967,1.12967,0,0,0-1.12854,1.12842v22.592a1.12854,1.12854,0,1,0,2.25708,0v-22.592A1.12968,1.12968,0,0,0,35.144,33.38376Z"/><circle class="cls-1" cx="35.14391" cy="32.14293" r="2.788"/><path d="M35.14372,29.85471a2.28809,2.28809,0,1,1-2.2876,2.28809,2.2906,2.2906,0,0,1,2.2876-2.28809m0-.5a2.78809,2.78809,0,1,0,2.78809,2.78809,2.788,2.788,0,0,0-2.78809-2.78809Z"/><path d="M33.90283,32.09588c.12023-.37781.47007-.58927.74416-.84678a2.41039,2.41039,0,0,0,.49692-.66255,2.41042,2.41042,0,0,0,.49693.66255c.27408.25751.62392.469.74415.84678a.79444.79444,0,0,1-.41321.985.57654.57654,0,0,1-.66936-.14225.45913.45913,0,0,1-.08432-.16513.721.721,0,0,0,.119.43652.71224.71224,0,0,0,.19319.1932v.09663h-.77279v-.09663a.71256.71256,0,0,0,.1932-.1932.72094.72094,0,0,0,.119-.43655.4591.4591,0,0,1-.08432.16516.57655.57655,0,0,1-.66937.14225A.79446.79446,0,0,1,33.90283,32.09588Z"/><path d="M35.908,67.38064c.35815.1604,8.77172,3.98316,8.77172,8.85205h-.5c0-4.54834-8.39123-8.35766-8.47607-8.39551Z"/><path class="cls-2" d="M34.85933,72.29959a3.041,3.041,0,0,1,3.03772,3.03759v.24927l-5.04114.01636V91.83743h-.5V75.10427l5.02906-.01635a2.5412,2.5412,0,0,0-2.52564-2.28833Z"/><rect x="34.90035" y="77.64846" width="0.5" height="5.74585"/><path class="cls-2" d="M35.14225,92.06337a2.92926,2.92926,0,0,0,2.78614-2.04688v6.186a2.78624,2.78624,0,0,1-2.78565,2.78613h-.00049a2.78593,2.78593,0,0,1-2.78564-2.78613v-6.186A2.92816,2.92816,0,0,0,35.14225,92.06337Z"/><path d="M36.38357,94.90412c-.12022.37781-.47007.58927-.74415.84678a2.41042,2.41042,0,0,0-.49693.66255,2.41019,2.41019,0,0,0-.49692-.66255c-.27409-.25751-.62392-.469-.74415-.84678a.79444.79444,0,0,1,.4132-.985.57656.57656,0,0,1,.66937.14225.45913.45913,0,0,1,.08432.16513.721.721,0,0,0-.119-.43652.71238.71238,0,0,0-.19319-.1932v-.09663h.77279v.09663a.71228.71228,0,0,0-.1932.1932.72094.72094,0,0,0-.119.43655.4591.4591,0,0,1,.08432-.16516.57654.57654,0,0,1,.66936-.14225A.79444.79444,0,0,1,36.38357,94.90412Z"/><path class="cls-2" d="M40.70718,92.06337a2.92831,2.92831,0,0,0,2.78613-2.04688v6.186a2.78593,2.78593,0,0,1-2.78564,2.78613h-.00049a2.78593,2.78593,0,0,1-2.78564-2.78613v-6.186A2.92862,2.92862,0,0,0,40.70718,92.06337Z"/><path d="M41.9485,94.90412c-.12023.37781-.47007.58927-.74415.84678a2.41042,2.41042,0,0,0-.49693.66255,2.41039,2.41039,0,0,0-.49692-.66255c-.27409-.25751-.62392-.469-.74415-.84678a.79444.79444,0,0,1,.4132-.985.57656.57656,0,0,1,.66937.14225.45929.45929,0,0,1,.08432.16513.721.721,0,0,0-.119-.43652.71238.71238,0,0,0-.19319-.1932v-.09663h.77279v.09663a.71228.71228,0,0,0-.1932.1932.72094.72094,0,0,0-.119.43655.4591.4591,0,0,1,.08432-.16516.57654.57654,0,0,1,.66936-.14225A.79444.79444,0,0,1,41.9485,94.90412Z"/><rect x="37.36991" y="85.11053" width="4.35287" height="0.50018" transform="translate(-18.54623 11.36331) rotate(-13.27655)"/><circle cx="38.77185" cy="84.47803" r="1.11964"/><path d="M32.4509,66.79663c.26151-.82179,1.02246-1.28172,1.61863-1.84183a5.24338,5.24338,0,0,0,1.08086-1.44113,5.24338,5.24338,0,0,0,1.08086,1.44113c.59617.56011,1.3571,1.02,1.61861,1.84183a1.728,1.728,0,0,1-.89876,2.14251,1.2541,1.2541,0,0,1-1.45595-.30943.99846.99846,0,0,1-.18339-.35917,1.56816,1.56816,0,0,0,.25887.94948,1.54955,1.54955,0,0,0,.42021.42024v.21018H34.30993v-.21018a1.54935,1.54935,0,0,0,.42023-.42024,1.56824,1.56824,0,0,0,.25888-.94953.99859.99859,0,0,1-.18342.35922,1.25407,1.25407,0,0,1-1.45594.30943A1.728,1.728,0,0,1,32.4509,66.79663Z"/><rect x="43.497" y="65.96656" width="5.57585" height="29.18901" rx="2.78792"/><rect x="49.06816" y="71.96888" width="5.57585" height="19.18901" rx="2.78792" transform="translate(103.71218 163.12676) rotate(180)"/><rect class="cls-2" x="50.35259" y="68.3921" width="3.007" height="25.59921" rx="1.5035"/><rect class="cls-1" x="51.73103" y="68.66531" width="0.25" height="24.98218"/><path class="cls-1" d="M51.856,68.51712a1.38011,1.38011,0,0,1,1.37854,1.37866v22.592a1.37854,1.37854,0,0,1-2.75708,0v-22.592A1.38012,1.38012,0,0,1,51.856,68.51712Zm0,25.09912a1.12967,1.12967,0,0,0,1.12854-1.12842v-22.592a1.12854,1.12854,0,1,0-2.25708,0v22.592A1.12968,1.12968,0,0,0,51.856,93.61624Z"/><circle class="cls-1" cx="51.85609" cy="94.85707" r="2.788"/><path d="M51.85628,97.14529a2.28809,2.28809,0,1,1,2.2876-2.28809,2.2906,2.2906,0,0,1-2.2876,2.28809m0,.5a2.78809,2.78809,0,1,0-2.78809-2.78809,2.788,2.788,0,0,0,2.78809,2.78809Z"/><path d="M53.09717,94.90412c-.12023.37781-.47007.58927-.74416.84678a2.41039,2.41039,0,0,0-.49692.66255,2.41042,2.41042,0,0,0-.49693-.66255c-.27408-.25751-.62392-.469-.74415-.84678a.79444.79444,0,0,1,.41321-.985.57654.57654,0,0,1,.66936.14225.45913.45913,0,0,1,.08432.16513.721.721,0,0,0-.119-.43652.71224.71224,0,0,0-.19319-.1932v-.09663h.77279v.09663a.71256.71256,0,0,0-.1932.1932.72094.72094,0,0,0-.119.43655.4591.4591,0,0,1,.08432-.16516.57655.57655,0,0,1,.66937-.14225A.79446.79446,0,0,1,53.09717,94.90412Z"/></g></svg>