<svg xmlns="http://www.w3.org/2000/svg" viewBox="0 0 87 127"><defs><style>.cls-1{fill:#fff;}.cls-2{fill:#ff3b5c;}</style></defs><title>card-diamonds-3</title><g id="artwork"><rect class="cls-1" x="-0.00463" width="87" height="127" rx="6"/><path class="cls-2" d="M7.99537,18.72l-.49612-.11254.11231-1.00993a14.83869,14.83869,0,0,0,2.88.3846,3.48086,3.48086,0,0,0,1.93614-.46485,1.79544,1.79544,0,0,0,.70414-1.6196q0-1.92444-2.17638-1.98854h-2.128V12.8513h2.12805a1.81033,1.81033,0,0,0,.90434-.24857,2.0638,2.0638,0,0,0,.72807-.69775,1.827,1.827,0,0,0,.28761-1.00993,1.51759,1.51759,0,0,0-.50393-1.27415,2.72094,2.72094,0,0,0-1.65585-.3934,13.31511,13.31511,0,0,0-2.528.24074l-.416.08024-.11231-.97861a11.17543,11.17543,0,0,1,3.2326-.4482,3.78549,3.78549,0,0,1,2.47962.65762,2.62048,2.62048,0,0,1,.7686,2.10011,2.64591,2.64591,0,0,1-.416,1.44247,2.43511,2.43511,0,0,1-1.15241.963,4.06884,4.06884,0,0,1,1.0401.52845,1.809,1.809,0,0,1,.584.778,3.36128,3.36128,0,0,1,.20021,1.2585A3.15823,3.15823,0,0,1,13.564,18.263a3.69484,3.69484,0,0,1-2.59193.777A15.23333,15.23333,0,0,1,7.99537,18.72Z"/><path class="cls-2" d="M78.93567,108.28068l.49612.11156-.11231,1.01091a14.76191,14.76191,0,0,0-2.88-.3846,3.478,3.478,0,0,0-1.93565.46485,1.7926,1.7926,0,0,0-.70512,1.6196q0,1.923,2.17687,1.98756H78.1036v1.05788H75.97555a1.82181,1.82181,0,0,0-.90434.24857,2.067,2.067,0,0,0-.72758.69775,1.828,1.828,0,0,0-.2881,1.00993,1.51839,1.51839,0,0,0,.50393,1.27513,2.72781,2.72781,0,0,0,1.65537.39242,13.399,13.399,0,0,0,2.52845-.23976l.416-.08024.11231.97763a11.1747,11.1747,0,0,1-3.2326.44918,3.78542,3.78542,0,0,1-2.47962-.65763,3.01617,3.01617,0,0,1-.35256-3.54355,2.43087,2.43087,0,0,1,1.15241-.962,4.06817,4.06817,0,0,1-1.0401-.52943,1.80015,1.80015,0,0,1-.584-.777,3.35341,3.35341,0,0,1-.20021-1.25948,3.15439,3.15439,0,0,1,.83208-2.41228,3.69487,3.69487,0,0,1,2.59193-.778A15.23861,15.23861,0,0,1,78.93567,108.28068Z"/><path class="cls-2" d="M10.98776,34.49191q-1.12107-1.37359-2.37511-2.63054-1.25225-1.25464-2.62517-2.38,1.37078-1.12332,2.62517-2.37994,1.2522-1.25481,2.37511-2.63054,1.121,1.37358,2.37508,2.63054,1.25225,1.25477,2.62517,2.37994-1.37077,1.12336-2.62517,2.38Q12.11081,33.11614,10.98776,34.49191Z"/><path class="cls-2" d="M76.003,102.47267q-1.12107-1.37358-2.37511-2.63054-1.25225-1.25464-2.62517-2.38,1.37077-1.12332,2.62517-2.37994,1.2522-1.25481,2.37511-2.63054,1.121,1.3736,2.37508,2.63054,1.25225,1.25476,2.62517,2.37994-1.37077,1.12337-2.62517,2.38Q77.126,101.0969,76.003,102.47267Z"/><path class="cls-2" d="M43.49539,29.08435q-1.68161-2.06037-3.56267-3.94581-1.87838-1.882-3.93775-3.56995,2.05615-1.685,3.93775-3.56991,1.87832-1.88221,3.56267-3.94581,1.68153,2.06037,3.56262,3.94581,1.87837,1.88216,3.93776,3.56991-2.05617,1.685-3.93776,3.56995Q45.18,27.0207,43.49539,29.08435Z"/><path class="cls-2" d="M43.49539,112.94713q-1.68161-2.06037-3.56267-3.94581-1.87838-1.882-3.93775-3.57,2.05615-1.685,3.93775-3.56991,1.87832-1.88221,3.56267-3.94581,1.68153,2.06037,3.56262,3.94581,1.87837,1.88214,3.93776,3.56991-2.05617,1.685-3.93776,3.57Q45.18,110.88348,43.49539,112.94713Z"/><path class="cls-2" d="M43.49539,71.01574q-1.68161-2.06037-3.56267-3.94581Q38.05435,65.188,35.995,63.5q2.05615-1.685,3.93775-3.56991,1.87832-1.88222,3.56267-3.94581,1.68153,2.06037,3.56262,3.94581Q48.93639,61.81221,50.99577,63.5,48.9396,65.185,47.058,67.06993,45.18,68.95209,43.49539,71.01574Z"/></g></svg>