<svg xmlns="http://www.w3.org/2000/svg" viewBox="0 0 115 167"><defs><style>.cls-1{fill:#fff;}</style></defs><title>card-spades-3</title><g id="artwork"><rect class="cls-1" width="115" height="167" rx="8"/><path d="M20.16919,38.785c-.54553-1.71785-2.13293-2.67927-3.37659-3.85011a10.95839,10.95839,0,0,1-2.25478-3.01247A10.95839,10.95839,0,0,1,12.283,34.93492c-1.24367,1.17084-2.831,2.13226-3.37656,3.85011a3.61486,3.61486,0,0,0,1.87489,4.47861,2.61245,2.61245,0,0,0,3.03724-.64682,2.0889,2.0889,0,0,0,.38258-.7508,3.2831,3.2831,0,0,1-.54,1.98476,3.23538,3.23538,0,0,1-.8766.87845v.43935h3.50653v-.43935a3.23563,3.23563,0,0,1-.87663-.87845,3.283,3.283,0,0,1-.54-1.98486,2.08909,2.08909,0,0,0,.38261.7509,2.61241,2.61241,0,0,0,3.03723.64682A3.61491,3.61491,0,0,0,20.16919,38.785Z"/><path d="M10.58224,24.30762l-.65579-.14811.14781-1.33561a19.58641,19.58641,0,0,0,3.80694.509,4.60248,4.60248,0,0,0,2.55927-.61509,2.36992,2.36992,0,0,0,.93075-2.14021q0-2.54283-2.87618-2.62789H11.68211v-1.399H14.495a2.405,2.405,0,0,0,1.19475-.32792,2.73378,2.73378,0,0,0,.96239-.92231,2.42168,2.42168,0,0,0,.38082-1.335A2.007,2.007,0,0,0,16.36688,12.28a3.60877,3.60877,0,0,0-2.18941-.51872,17.65907,17.65907,0,0,0-3.34221.31757l-.54994.10607L10.13816,10.892a14.74,14.74,0,0,1,4.27168-.59375,5.00653,5.00653,0,0,1,3.279.86928,3.46611,3.46611,0,0,1,1.01467,2.77664,3.49578,3.49578,0,0,1-.54993,1.90737,3.2049,3.2049,0,0,1-1.52265,1.27157,5.39921,5.39921,0,0,1,1.37483.69983,2.36956,2.36956,0,0,1,.772,1.02709,4.44784,4.44784,0,0,1,.264,1.66417,4.17213,4.17213,0,0,1-1.09987,3.1893,4.88292,4.88292,0,0,1-3.42612,1.02838A20.086,20.086,0,0,1,10.58224,24.30762Z"/><path d="M94.83081,128.21472c.54553,1.71785,2.13293,2.67927,3.37659,3.85011a10.95839,10.95839,0,0,1,2.25478,3.01247,10.95839,10.95839,0,0,1,2.25478-3.01247c1.24367-1.17084,2.831-2.13226,3.37656-3.85011a3.61484,3.61484,0,0,0-1.87489-4.4786,2.61245,2.61245,0,0,0-3.03724.64681,2.089,2.089,0,0,0-.38258.7508,3.2831,3.2831,0,0,1,.54-1.98476,3.23538,3.23538,0,0,1,.8766-.87845v-.43935H98.70892v.43935a3.23563,3.23563,0,0,1,.87663.87845,3.283,3.283,0,0,1,.54,1.98486,2.08909,2.08909,0,0,0-.38261-.7509,2.61241,2.61241,0,0,0-3.03723-.64681A3.61489,3.61489,0,0,0,94.83081,128.21472Z"/><path d="M104.41716,142.69238l.65579.14747-.14845,1.33625a19.51334,19.51334,0,0,0-3.807-.50837,4.605,4.605,0,0,0-2.55991.61444,2.37126,2.37126,0,0,0-.92947,2.14086q0,2.54185,2.87619,2.62724h2.81293v1.39834h-2.81293a2.40465,2.40465,0,0,0-1.1954.32857,2.7466,2.7466,0,0,0-.963.92231,2.42594,2.42594,0,0,0-.37953,1.335,2.007,2.007,0,0,0,.66612,1.68552,3.60743,3.60743,0,0,0,2.18941.51872,17.69852,17.69852,0,0,0,3.34092-.31692l.54993-.10607.14846,1.29227a14.77117,14.77117,0,0,1-4.273.59375,5.0037,5.0037,0,0,1-3.27766-.86928,3.466,3.466,0,0,1-1.016-2.776,3.50722,3.50722,0,0,1,.54993-1.908,3.21918,3.21918,0,0,1,1.5233-1.27157A5.37746,5.37746,0,0,1,96.993,149.177a2.37957,2.37957,0,0,1-.772-1.02709,4.45889,4.45889,0,0,1-.26464-1.66482,4.16964,4.16964,0,0,1,1.09987-3.18865,4.884,4.884,0,0,1,3.42612-1.02838A20.09328,20.09328,0,0,1,104.41716,142.69238Z"/><path d="M65.94705,28.22546c-.8183-2.57677-3.1994-4.01891-5.0649-5.77515A16.438,16.438,0,0,1,57.5,17.93159a16.43781,16.43781,0,0,1-3.38217,4.51872c-1.8655,1.75624-4.24653,3.19838-5.06484,5.77515a5.42227,5.42227,0,0,0,2.81234,6.71791,3.91867,3.91867,0,0,0,4.55585-.97022,3.13354,3.13354,0,0,0,.57388-1.12621,4.92456,4.92456,0,0,1-.81007,2.97715,4.85288,4.85288,0,0,1-1.31489,1.31767v.659h5.2598v-.659a4.853,4.853,0,0,1-1.315-1.31767,4.92456,4.92456,0,0,1-.81-2.97729,3.13374,3.13374,0,0,0,.57391,1.12635,3.91864,3.91864,0,0,0,4.55585.97022A5.42235,5.42235,0,0,0,65.94705,28.22546Z"/><path d="M49.053,138.77454c.8183,2.57677,3.1994,4.01891,5.0649,5.77515A16.438,16.438,0,0,1,57.5,149.06841a16.43781,16.43781,0,0,1,3.38217-4.51872c1.8655-1.75624,4.24653-3.19838,5.06484-5.77515a5.42227,5.42227,0,0,0-2.81234-6.71791,3.91867,3.91867,0,0,0-4.55585.97022,3.13354,3.13354,0,0,0-.57388,1.12621,4.92456,4.92456,0,0,1,.81007-2.97715,4.85288,4.85288,0,0,1,1.31489-1.31767v-.659h-5.2598v.659a4.853,4.853,0,0,1,1.315,1.31767,4.92456,4.92456,0,0,1,.81,2.97729,3.13374,3.13374,0,0,0-.57391-1.12635,3.91864,3.91864,0,0,0-4.55585-.97022A5.42235,5.42235,0,0,0,49.053,138.77454Z"/><path d="M65.94705,83.85927c-.8183-2.57677-3.1994-4.01891-5.0649-5.77516A16.43778,16.43778,0,0,1,57.5,73.5654a16.43761,16.43761,0,0,1-3.38217,4.51871c-1.8655,1.75625-4.24653,3.19839-5.06484,5.77516a5.42228,5.42228,0,0,0,2.81234,6.71791,3.91868,3.91868,0,0,0,4.55585-.97022,3.13354,3.13354,0,0,0,.57388-1.12621A4.92458,4.92458,0,0,1,56.185,91.4579a4.853,4.853,0,0,1-1.31489,1.31767v.659h5.2598v-.659a4.8531,4.8531,0,0,1-1.315-1.31767,4.92459,4.92459,0,0,1-.81-2.9773A3.1337,3.1337,0,0,0,58.5788,89.607a3.91865,3.91865,0,0,0,4.55585.97022A5.42236,5.42236,0,0,0,65.94705,83.85927Z"/></g></svg>