<svg xmlns="http://www.w3.org/2000/svg" viewBox="0 0 115 167"><defs><style>.cls-1{fill:#fff;}</style></defs><title>card-clubs-2</title><g id="artwork"><rect class="cls-1" width="115" height="167" rx="8"/><path d="M10.06492,23.14212l4.08191-4.30241q.973-1.01675,1.51232-1.64283a6.65033,6.65033,0,0,0,.91979-1.388,3.465,3.465,0,0,0,.38082-1.5678,2.27022,2.27022,0,0,0-.719-1.89767,3.809,3.809,0,0,0-2.32625-.56141,15.27711,15.27711,0,0,0-3.06724.36091l-.54994.10607L10.17077,10.892a14.906,14.906,0,0,1,4.14517-.57176,4.913,4.913,0,0,1,3.24668.91067,3.53467,3.53467,0,0,1,1.06825,2.84068,5.00356,5.00356,0,0,1-.63449,2.54315,13.36259,13.36259,0,0,1-2.2843,2.69062l-3.72239,3.794h7.0007v1.42034H10.06492Z"/><path d="M21.43021,39.49078a2.94335,2.94335,0,0,0-2.90339-2.1709,2.734,2.734,0,0,0-1.27754.38045c-.20655.12343-.5948.364-.773.0609-.16133-.27453.13316-.53066.3094-.69984a2.92853,2.92853,0,0,0,.84295-1.57112A3.08148,3.08148,0,0,0,16.243,32.36864a3.218,3.218,0,0,0-3.43131,0,3.08147,3.08147,0,0,0-1.38563,3.12163,2.92857,2.92857,0,0,0,.84293,1.57112c.17626.16918.47073.42531.30942.69984-.17819.30309-.56644.06253-.773-.0609a2.73389,2.73389,0,0,0-1.27754-.38045,2.94336,2.94336,0,0,0-2.90339,2.1709,3.18482,3.18482,0,0,0,1.4932,3.5655,3.22609,3.22609,0,0,0,4.72371-1.99154h.26275a3.55453,3.55453,0,0,1-.52553,2.62854,3.50035,3.50035,0,0,1-.94855.95058v.47542h3.79454v-.47542a3.50081,3.50081,0,0,1-.94856-.95058,3.55457,3.55457,0,0,1-.52552-2.62854h.26277A3.22606,3.22606,0,0,0,19.937,43.05628,3.18481,3.18481,0,0,0,21.43021,39.49078Z"/><path d="M104.93517,143.85788l-4.08192,4.30241q-.973,1.01674-1.51232,1.64283a6.65029,6.65029,0,0,0-.91978,1.388,3.46489,3.46489,0,0,0-.38083,1.5678,2.27022,2.27022,0,0,0,.71905,1.89767,3.809,3.809,0,0,0,2.32625.56141,15.27711,15.27711,0,0,0,3.06724-.36091l.54994-.10607.12651,1.35695a14.906,14.906,0,0,1-4.14517.57176,4.91306,4.91306,0,0,1-3.24668-.91067,3.53466,3.53466,0,0,1-1.06824-2.84068,5.00346,5.00346,0,0,1,.63449-2.54315,13.36214,13.36214,0,0,1,2.28429-2.69062l3.72239-3.794h-7.0007v-1.42034h8.92548Z"/><path d="M93.56979,127.48722a2.94335,2.94335,0,0,0,2.90339,2.1709,2.734,2.734,0,0,0,1.27754-.38045c.20655-.12343.5948-.364.773-.0609.16133.27453-.13316.53066-.3094.69984a2.92853,2.92853,0,0,0-.843,1.57112,3.08148,3.08148,0,0,0,1.38563,3.12163,3.218,3.218,0,0,0,3.43131,0,3.08147,3.08147,0,0,0,1.38563-3.12163,2.92857,2.92857,0,0,0-.84293-1.57112c-.17626-.16918-.47073-.42531-.30942-.69984.17819-.30309.56644-.06253.773.0609a2.73389,2.73389,0,0,0,1.27754.38045,2.94336,2.94336,0,0,0,2.90339-2.1709,3.18482,3.18482,0,0,0-1.4932-3.5655,3.22609,3.22609,0,0,0-4.72371,1.99154h-.26275a3.55456,3.55456,0,0,1,.52553-2.62855,3.50045,3.50045,0,0,1,.94855-.95057v-.47542H98.57536v.47542a3.50091,3.50091,0,0,1,.94856.95057,3.5546,3.5546,0,0,1,.52552,2.62855h-.26277a3.22606,3.22606,0,0,0-4.72369-1.99154A3.18481,3.18481,0,0,0,93.56979,127.48722Z"/><path d="M67.85426,29.46182a4.415,4.415,0,0,0-4.35508-3.25635,4.10088,4.10088,0,0,0-1.91631.57067c-.30982.18514-.8922.546-1.15946.09134-.242-.41178.19975-.796.46411-1.04976A4.39284,4.39284,0,0,0,62.15194,23.461a4.62222,4.62222,0,0,0-2.07845-4.68244,4.827,4.827,0,0,0-5.147,0A4.62218,4.62218,0,0,0,52.84809,23.461a4.39273,4.39273,0,0,0,1.26439,2.35668c.26439.25379.7061.638.46414,1.04976-.26729.45465-.84967.0938-1.15949-.09134a4.10078,4.10078,0,0,0-1.91632-.57067,4.415,4.415,0,0,0-4.35507,3.25635,4.77722,4.77722,0,0,0,2.23979,5.34825,4.83914,4.83914,0,0,0,7.08556-2.98732h.39412a5.33179,5.33179,0,0,1-.78828,3.94282,5.25051,5.25051,0,0,1-1.42283,1.42586v.71314h5.69181v-.71314a5.25124,5.25124,0,0,1-1.42284-1.42586,5.33193,5.33193,0,0,1-.78828-3.94282h.39415a4.8391,4.8391,0,0,0,7.08553,2.98732A4.77721,4.77721,0,0,0,67.85426,29.46182Z"/><path d="M47.14574,137.53818a4.415,4.415,0,0,0,4.35508,3.25635,4.10088,4.10088,0,0,0,1.91631-.57067c.30982-.18514.8922-.546,1.15946-.09134.242.41178-.19975.796-.46411,1.04976a4.39284,4.39284,0,0,0-1.26442,2.35668,4.62222,4.62222,0,0,0,2.07845,4.68244,4.827,4.827,0,0,0,5.147,0,4.62218,4.62218,0,0,0,2.07844-4.68244,4.39273,4.39273,0,0,0-1.26439-2.35668c-.26439-.25379-.7061-.638-.46414-1.04976.26729-.45465.84967-.0938,1.15949.09134a4.10078,4.10078,0,0,0,1.91632.57067,4.415,4.415,0,0,0,4.35507-3.25635,4.77722,4.77722,0,0,0-2.23979-5.34825,4.83914,4.83914,0,0,0-7.08556,2.98732h-.39412a5.33179,5.33179,0,0,1,.78828-3.94282,5.25051,5.25051,0,0,1,1.42283-1.42586v-.71314H54.65409v.71314a5.25124,5.25124,0,0,1,1.42284,1.42586,5.33193,5.33193,0,0,1,.78828,3.94282h-.39415a4.8391,4.8391,0,0,0-7.08553-2.98732A4.77721,4.77721,0,0,0,47.14574,137.53818Z"/></g></svg>