<svg xmlns="http://www.w3.org/2000/svg" viewBox="0 0 115 167"><defs><style>.cls-1{fill:#fff;}.cls-2{fill:#ff3b5c;}</style></defs><title>card-diamonds-a</title><g id="artwork"><rect class="cls-1" width="115" height="167" rx="8"/><path class="cls-2" d="M57.5,93.4346q-2.22282-2.72349-4.70927-5.21572Q50.30786,85.73122,47.58568,83.5q2.71791-2.22728,5.20508-4.71885,2.48282-2.488,4.70927-5.21572,2.22271,2.72349,4.70921,5.21572Q64.69215,81.269,67.41432,83.5q-2.71793,2.22737-5.20508,4.71891Q59.72674,90.70678,57.5,93.4346Z"/><path class="cls-2" d="M17.66117,20.74772h-6.261L10.3429,24.51977H8.7357L12.75436,9.85329H16.307l4.01866,14.66648H18.71844Zm-5.90083-1.463H17.301l-2.22039-8.03306H13.98074Z"/><path class="cls-2" d="M97.25975,146.25228h6.261l1.05727-3.77205h1.6072l-4.01866,14.66648H98.61393l-4.01865-14.66648h1.6072Zm5.90083,1.463H97.61992l2.22039,8.03306h1.09987Z"/><path class="cls-2" d="M14.53018,45.1562Q13.0483,43.34054,11.39066,41.679,9.7354,40.02062,7.92061,38.53312q1.81194-1.48485,3.47005-3.1459,1.65522-1.65865,3.13952-3.47715,1.48181,1.81565,3.13947,3.47715,1.65527,1.6586,3.47006,3.1459-1.812,1.4849-3.47006,3.14593Q16.01466,43.33764,14.53018,45.1562Z"/><path class="cls-2" d="M100.46986,135.01583q-1.48188-1.81565-3.13951-3.47715-1.65528-1.65843-3.47006-3.14593,1.812-1.48485,3.47006-3.1459,1.65521-1.65865,3.13951-3.47715,1.48182,1.81566,3.13948,3.47715,1.65527,1.6586,3.47005,3.1459-1.812,1.48489-3.47005,3.14593Q101.95433,133.19729,100.46986,135.01583Z"/></g></svg>