<svg xmlns="http://www.w3.org/2000/svg" viewBox="0 0 115 167"><defs><style>.cls-1{fill:#fff;}</style></defs><title>card-spades-5</title><g id="artwork"><rect class="cls-1" width="115" height="167" rx="8"/><path d="M20.16919,38.78531c-.54553-1.71784-2.13293-2.67927-3.37659-3.8501a10.95844,10.95844,0,0,1-2.25478-3.01248A10.95844,10.95844,0,0,1,12.283,34.93521c-1.24367,1.17083-2.831,2.13226-3.37656,3.8501a3.61485,3.61485,0,0,0,1.87489,4.47861,2.61246,2.61246,0,0,0,3.03724-.64681,2.089,2.089,0,0,0,.38258-.75081,3.28313,3.28313,0,0,1-.54,1.98477,3.2352,3.2352,0,0,1-.8766.87844v.43936h3.50653v-.43936a3.23545,3.23545,0,0,1-.87663-.87844,3.28306,3.28306,0,0,1-.54-1.98487,2.08905,2.08905,0,0,0,.38261.75091,2.61243,2.61243,0,0,0,3.03723.64681A3.6149,3.6149,0,0,0,20.16919,38.78531Z"/><path d="M10.645,24.24456l-.6971-.14876.18976-1.29227a21.947,21.947,0,0,0,4.10386.46568,3.38509,3.38509,0,0,0,2.485-.84729,3.24982,3.24982,0,0,0,.85589-2.41638,2.77815,2.77815,0,0,0-.75-2.1719,3.23309,3.23309,0,0,0-2.21007-.66748,6.5958,6.5958,0,0,0-1.53362.20115,7.53908,7.53908,0,0,0-1.34385.434l-.44408.21214L10.1803,17.8013l.38083-7.26921H18.7043v1.48372H11.914l-.37953,4.5566a6.89441,6.89441,0,0,1,3.27766-.86928q4.44209,0,4.44208,4.13295a4.9978,4.9978,0,0,1-1.216,3.61358,4.5846,4.5846,0,0,1-3.4584,1.26123A18.37653,18.37653,0,0,1,10.645,24.24456Z"/><path d="M94.83081,128.215c.54553,1.71784,2.13293,2.67927,3.37659,3.8501a10.95844,10.95844,0,0,1,2.25478,3.01248,10.95844,10.95844,0,0,1,2.25478-3.01248c1.24367-1.17083,2.831-2.13226,3.37656-3.8501a3.61485,3.61485,0,0,0-1.87489-4.47861,2.61246,2.61246,0,0,0-3.03724.64681,2.089,2.089,0,0,0-.38258.75081,3.28313,3.28313,0,0,1,.54-1.98477,3.2352,3.2352,0,0,1,.8766-.87844v-.43936H98.70892v.43936a3.23545,3.23545,0,0,1,.87663.87844,3.28308,3.28308,0,0,1,.54,1.98487,2.08913,2.08913,0,0,0-.38261-.75091,2.61243,2.61243,0,0,0-3.03723-.64681A3.6149,3.6149,0,0,0,94.83081,128.215Z"/><path d="M104.35474,142.75609l.6971.14876-.18977,1.29227a21.94685,21.94685,0,0,0-4.10385-.46568,3.3892,3.3892,0,0,0-2.485.84728,3.24983,3.24983,0,0,0-.85588,2.41639,2.77818,2.77818,0,0,0,.75,2.1719,3.23445,3.23445,0,0,0,2.21135.66748,6.56241,6.56241,0,0,0,1.53233-.2018,7.45715,7.45715,0,0,0,1.34386-.43334l.44408-.21215,1.12052.21215-.38082,7.26856H96.29548v-1.48243h6.789l.38211-4.55724a6.90691,6.90691,0,0,1-3.27895.86928q-4.44208,0-4.44208-4.13295a5.002,5.002,0,0,1,1.21734-3.61423,4.577,4.577,0,0,1,3.4571-1.25994A18.36415,18.36415,0,0,1,104.35474,142.75609Z"/><path d="M44.79648,28.22546c-.8183-2.57677-3.19939-4.01891-5.06489-5.77515a16.438,16.438,0,0,1-3.38217-4.51872,16.43777,16.43777,0,0,1-3.38216,4.51872c-1.8655,1.75624-4.24654,3.19838-5.06485,5.77515a5.42228,5.42228,0,0,0,2.81234,6.71791,3.91867,3.91867,0,0,0,4.55585-.97022,3.13338,3.13338,0,0,0,.57388-1.12621,4.92462,4.92462,0,0,1-.81006,2.97715,4.85291,4.85291,0,0,1-1.3149,1.31767v.659h5.2598v-.659a4.8531,4.8531,0,0,1-1.315-1.31767,4.92462,4.92462,0,0,1-.81-2.97729,3.13376,3.13376,0,0,0,.57392,1.12635,3.91863,3.91863,0,0,0,4.55585.97022A5.42235,5.42235,0,0,0,44.79648,28.22546Z"/><path d="M27.90238,138.77454c.81831,2.57677,3.1994,4.01891,5.0649,5.77515a16.43777,16.43777,0,0,1,3.38216,4.51872,16.438,16.438,0,0,1,3.38217-4.51872c1.8655-1.75624,4.24654-3.19838,5.06485-5.77515a5.42228,5.42228,0,0,0-2.81235-6.71791,3.91867,3.91867,0,0,0-4.55585.97022,3.13336,3.13336,0,0,0-.57387,1.12621,4.92455,4.92455,0,0,1,.81006-2.97715,4.853,4.853,0,0,1,1.31489-1.31767v-.659H33.71955v.659a4.85324,4.85324,0,0,1,1.315,1.31767,4.92462,4.92462,0,0,1,.81,2.97729,3.13376,3.13376,0,0,0-.57392-1.12635,3.91864,3.91864,0,0,0-4.55585-.97022A5.42235,5.42235,0,0,0,27.90238,138.77454Z"/><path d="M87.09762,28.22546c-.81831-2.57677-3.1994-4.01891-5.0649-5.77515a16.43777,16.43777,0,0,1-3.38216-4.51872,16.438,16.438,0,0,1-3.38217,4.51872c-1.8655,1.75624-4.24654,3.19838-5.06485,5.77515a5.42228,5.42228,0,0,0,2.81235,6.71791,3.91867,3.91867,0,0,0,4.55585-.97022,3.13336,3.13336,0,0,0,.57387-1.12621,4.92455,4.92455,0,0,1-.81006,2.97715,4.853,4.853,0,0,1-1.31489,1.31767v.659h5.25979v-.659a4.85324,4.85324,0,0,1-1.31495-1.31767,4.92462,4.92462,0,0,1-.81005-2.97729,3.13376,3.13376,0,0,0,.57392,1.12635,3.91864,3.91864,0,0,0,4.55585.97022A5.42235,5.42235,0,0,0,87.09762,28.22546Z"/><path d="M70.20352,138.77454c.8183,2.57677,3.19939,4.01891,5.06489,5.77515a16.438,16.438,0,0,1,3.38217,4.51872,16.43777,16.43777,0,0,1,3.38216-4.51872c1.8655-1.75624,4.24654-3.19838,5.06485-5.77515a5.42228,5.42228,0,0,0-2.81234-6.71791,3.91867,3.91867,0,0,0-4.55585.97022,3.13338,3.13338,0,0,0-.57388,1.12621,4.92462,4.92462,0,0,1,.81006-2.97715,4.85291,4.85291,0,0,1,1.3149-1.31767v-.659h-5.2598v.659a4.8531,4.8531,0,0,1,1.31495,1.31767,4.92462,4.92462,0,0,1,.81005,2.97729,3.13376,3.13376,0,0,0-.57392-1.12635,3.91863,3.91863,0,0,0-4.55585-.97022A5.42235,5.42235,0,0,0,70.20352,138.77454Z"/><path d="M65.94705,84.296c-.8183-2.57677-3.1994-4.01891-5.0649-5.77516A16.43778,16.43778,0,0,1,57.5,74.00218a16.43761,16.43761,0,0,1-3.38217,4.51871c-1.8655,1.75625-4.24653,3.19839-5.06484,5.77516A5.42227,5.42227,0,0,0,51.86532,91.014a3.91867,3.91867,0,0,0,4.55585-.97022,3.13354,3.13354,0,0,0,.57388-1.12621,4.92456,4.92456,0,0,1-.81007,2.97715,4.853,4.853,0,0,1-1.31489,1.31767v.659h5.2598v-.659a4.8531,4.8531,0,0,1-1.315-1.31767,4.92456,4.92456,0,0,1-.81-2.97729,3.13374,3.13374,0,0,0,.57391,1.12635,3.91864,3.91864,0,0,0,4.55585.97022A5.42235,5.42235,0,0,0,65.94705,84.296Z"/></g></svg>