<svg xmlns="http://www.w3.org/2000/svg" viewBox="0 0 87 127"><defs><style>.cls-1{fill:#fff;}</style></defs><title>card-clubs-6</title><g id="artwork"><rect class="cls-1" width="87" height="127" rx="6"/><path d="M7.31032,13.54138A6.47306,6.47306,0,0,1,8.37385,9.47622a3.68745,3.68745,0,0,1,3.06462-1.33874,15.16328,15.16328,0,0,1,2.464.19279l.43166.08025-.11134,1.00992a21.17076,21.17076,0,0,0-2.80093-.19278,2.50069,2.50069,0,0,0-2.09581.94631,4.33656,4.33656,0,0,0-.73637,2.70978l.40041-.16049a8.195,8.195,0,0,1,1.12018-.321,5.36284,5.36284,0,0,1,1.12018-.14385q3.551,0,3.55194,3.28716a3.37591,3.37591,0,0,1-.96782,2.58941,3.84159,3.84159,0,0,1-2.72866.90521Q7.30934,19.0402,7.31032,13.54138Zm5.55986,3.79212a2.34553,2.34553,0,0,0,.63187-1.75563,2.13134,2.13134,0,0,0-.60745-1.65972,2.50578,2.50578,0,0,0-1.74423-.5539,5.26106,5.26106,0,0,0-1.13678.14484,8.55924,8.55924,0,0,0-1.07135.30434l-.36818.1605A5.905,5.905,0,0,0,9.20593,16.9,1.98361,1.98361,0,0,0,11.02243,17.95,2.5412,2.5412,0,0,0,12.87018,17.3335Z"/><path d="M16.21242,30.20634A2.22669,2.22669,0,0,0,14.01594,28.564a2.06832,2.06832,0,0,0-.96648.28782c-.15626.09338-.45.27537-.58478.04607-.122-.20768.10075-.40145.23408-.52944a2.21559,2.21559,0,0,0,.63771-1.18859,2.33122,2.33122,0,0,0-1.04827-2.36158,2.43447,2.43447,0,0,0-2.59585,0,2.33117,2.33117,0,0,0-1.04826,2.36158,2.2155,2.2155,0,0,0,.63769,1.18859c.13334.128.35612.32176.23409.52944-.13481.2293-.42853.04731-.58479-.04607a2.06833,2.06833,0,0,0-.96649-.28782,2.22669,2.22669,0,0,0-2.19647,1.64234,2.40937,2.40937,0,0,0,1.12963,2.69738,2.44063,2.44063,0,0,0,3.57359-1.50665h.19878a2.68911,2.68911,0,0,1-.39757,1.98855,2.64831,2.64831,0,0,1-.71761.71913v.35967h2.87065v-.35967a2.64869,2.64869,0,0,1-.7176-.71913,2.68916,2.68916,0,0,1-.39757-1.98855h.19879a2.44061,2.44061,0,0,0,3.57358,1.50665A2.40939,2.40939,0,0,0,16.21242,30.20634Z"/><path d="M79.69113,113.45965a6.468,6.468,0,0,1-1.06353,4.06418,3.6847,3.6847,0,0,1-3.06462,1.33874,15.1668,15.1668,0,0,1-2.464-.1918l-.43166-.08025.11133-1.00993a21.16634,21.16634,0,0,0,2.80093.19181,2.5,2.5,0,0,0,2.09582-.94534,4.33964,4.33964,0,0,0,.73636-2.71076l-.40041.1605a8.0554,8.0554,0,0,1-1.12018.321,5.3722,5.3722,0,0,1-1.12017.14484q-3.551,0-3.552-3.28716a3.3759,3.3759,0,0,1,.96783-2.58941,3.84189,3.84189,0,0,1,2.72866-.9062Q79.69211,107.95985,79.69113,113.45965Zm-5.55987-3.79212a2.34255,2.34255,0,0,0-.63187,1.75563,2.13274,2.13274,0,0,0,.60746,1.65973,2.50551,2.50551,0,0,0,1.74423.55291,5.25488,5.25488,0,0,0,1.13678-.14385,8.5448,8.5448,0,0,0,1.07135-.30533l.36818-.16049a5.90771,5.90771,0,0,0-.63187-2.926,1.9836,1.9836,0,0,0-1.8165-1.05A2.54153,2.54153,0,0,0,74.13126,109.66753Z"/><path d="M70.78758,96.77755a2.22669,2.22669,0,0,0,2.19648,1.64234,2.06832,2.06832,0,0,0,.96648-.28782c.15626-.09338.45-.27537.58478-.04607.122.20768-.10075.40145-.23408.52944a2.21556,2.21556,0,0,0-.63771,1.18859,2.33122,2.33122,0,0,0,1.04827,2.36158,2.43447,2.43447,0,0,0,2.59585,0A2.33117,2.33117,0,0,0,78.35591,99.804a2.21546,2.21546,0,0,0-.63769-1.18859c-.13334-.128-.35612-.32176-.23409-.52944.13481-.2293.42853-.04731.58479.04607a2.06833,2.06833,0,0,0,.96649.28782,2.22669,2.22669,0,0,0,2.19647-1.64234,2.40937,2.40937,0,0,0-1.12963-2.69738,2.44063,2.44063,0,0,0-3.57359,1.50665h-.19878a2.6891,2.6891,0,0,1,.39757-1.98855,2.64831,2.64831,0,0,1,.71761-.71913v-.35967H74.57441v.35967a2.64869,2.64869,0,0,1,.7176.71913,2.68915,2.68915,0,0,1,.39757,1.98855h-.19879a2.44061,2.44061,0,0,0-3.57358-1.50665A2.40939,2.40939,0,0,0,70.78758,96.77755Z"/><path d="M35.33236,22.59292a3.34,3.34,0,0,0-3.29471-2.4635,3.10235,3.10235,0,0,0-1.44973.43173c-.23439.14006-.675.413-.87716.0691-.18307-.31153.15112-.60218.35111-.79417a3.3233,3.3233,0,0,0,.95656-1.78288A3.4968,3.4968,0,0,0,29.446,14.51083a3.65176,3.65176,0,0,0-3.89379,0,3.4968,3.4968,0,0,0-1.57239,3.54237,3.32334,3.32334,0,0,0,.95654,1.78288c.2.192.53418.48264.35113.79417-.20221.34395-.64279.071-.87717-.0691a3.10228,3.10228,0,0,0-1.44974-.43173,3.34,3.34,0,0,0-3.29471,2.4635A3.61409,3.61409,0,0,0,21.36036,26.639a3.66092,3.66092,0,0,0,5.36038-2.26h.29817a4.0337,4.0337,0,0,1-.59635,2.98283,3.97257,3.97257,0,0,1-1.07641,1.07869V28.98h4.306v-.5395a3.97285,3.97285,0,0,1-1.07641-1.07869,4.03375,4.03375,0,0,1-.59635-2.98283h.29818a3.6609,3.6609,0,0,0,5.36036,2.26A3.61406,3.61406,0,0,0,35.33236,22.59292Z"/><path d="M19.66591,104.355a3.34,3.34,0,0,0,3.29471,2.4635,3.10231,3.10231,0,0,0,1.44973-.43173c.23439-.14006.675-.413.87716-.0691.18308.31152-.15111.60217-.35111.79417a3.32324,3.32324,0,0,0-.95656,1.78287,3.49684,3.49684,0,0,0,1.57239,3.54238,3.65176,3.65176,0,0,0,3.89379,0,3.49679,3.49679,0,0,0,1.57239-3.54238,3.32321,3.32321,0,0,0-.95654-1.78287c-.2-.192-.53418-.48265-.35113-.79417.20221-.344.64279-.071.87718.0691a3.10224,3.10224,0,0,0,1.44973.43173,3.34,3.34,0,0,0,3.29471-2.4635,3.61407,3.61407,0,0,0-1.69445-4.04607,3.66092,3.66092,0,0,0-5.36038,2.26h-.29816a4.03366,4.03366,0,0,1,.59635-2.98283,3.97211,3.97211,0,0,1,1.0764-1.07869v-.53951h-4.306v.53951a3.97285,3.97285,0,0,1,1.07641,1.07869,4.03379,4.03379,0,0,1,.59635,2.98283h-.29819a3.66089,3.66089,0,0,0-5.36036-2.26A3.61407,3.61407,0,0,0,19.66591,104.355Z"/><path d="M67.33409,22.59292a3.34,3.34,0,0,0-3.29471-2.4635,3.10231,3.10231,0,0,0-1.44973.43173c-.23439.14006-.675.413-.87716.0691-.18308-.31153.15111-.60218.35111-.79417a3.3233,3.3233,0,0,0,.95656-1.78288,3.49682,3.49682,0,0,0-1.57239-3.54237,3.65176,3.65176,0,0,0-3.89379,0,3.49677,3.49677,0,0,0-1.57239,3.54237,3.32327,3.32327,0,0,0,.95654,1.78288c.2.192.53418.48264.35113.79417-.20221.34395-.64279.071-.87718-.0691a3.10224,3.10224,0,0,0-1.44973-.43173,3.34,3.34,0,0,0-3.29471,2.4635A3.61407,3.61407,0,0,0,53.36209,26.639a3.66092,3.66092,0,0,0,5.36038-2.26h.29816a4.03366,4.03366,0,0,1-.59635,2.98283,3.97239,3.97239,0,0,1-1.0764,1.07869V28.98h4.306v-.5395a3.97313,3.97313,0,0,1-1.07641-1.07869,4.03379,4.03379,0,0,1-.59635-2.98283h.29819a3.66089,3.66089,0,0,0,5.36036,2.26A3.61407,3.61407,0,0,0,67.33409,22.59292Z"/><path d="M51.66764,104.355a3.34,3.34,0,0,0,3.29471,2.4635,3.10235,3.10235,0,0,0,1.44973-.43173c.23439-.14006.675-.413.87716-.0691.18307.31152-.15112.60217-.35111.79417a3.32324,3.32324,0,0,0-.95656,1.78287,3.49682,3.49682,0,0,0,1.57239,3.54238,3.65176,3.65176,0,0,0,3.89379,0,3.49682,3.49682,0,0,0,1.57239-3.54238,3.32327,3.32327,0,0,0-.95654-1.78287c-.2-.192-.53418-.48265-.35113-.79417.20221-.344.64279-.071.87717.0691a3.10228,3.10228,0,0,0,1.44974.43173,3.34,3.34,0,0,0,3.29471-2.4635,3.61408,3.61408,0,0,0-1.69445-4.04607,3.66092,3.66092,0,0,0-5.36038,2.26h-.29817a4.0337,4.0337,0,0,1,.59635-2.98283,3.97229,3.97229,0,0,1,1.07641-1.07869v-.53951h-4.306v.53951a3.97257,3.97257,0,0,1,1.07641,1.07869,4.03375,4.03375,0,0,1,.59635,2.98283h-.29818a3.6609,3.6609,0,0,0-5.36036-2.26A3.61405,3.61405,0,0,0,51.66764,104.355Z"/><path d="M35.33236,64.62862a3.34,3.34,0,0,0-3.29471-2.4635,3.10235,3.10235,0,0,0-1.44973.43173c-.23439.14006-.675.413-.87716.0691-.18307-.31153.15112-.60218.35111-.79417a3.3233,3.3233,0,0,0,.95656-1.78288A3.4968,3.4968,0,0,0,29.446,56.54653a3.65176,3.65176,0,0,0-3.89379,0,3.4968,3.4968,0,0,0-1.57239,3.54237,3.32334,3.32334,0,0,0,.95654,1.78288c.2.192.53418.48264.35113.79417-.20221.34395-.64279.071-.87717-.0691a3.10228,3.10228,0,0,0-1.44974-.43173,3.34,3.34,0,0,0-3.29471,2.4635,3.61409,3.61409,0,0,0,1.69445,4.04607,3.66092,3.66092,0,0,0,5.36038-2.26h.29817a4.03367,4.03367,0,0,1-.59635,2.98282,3.97246,3.97246,0,0,1-1.07641,1.0787v.5395h4.306v-.5395a3.97274,3.97274,0,0,1-1.07641-1.0787,4.03371,4.03371,0,0,1-.59635-2.98282h.29818a3.6609,3.6609,0,0,0,5.36036,2.26A3.61406,3.61406,0,0,0,35.33236,64.62862Z"/><path d="M67.33409,64.62862a3.34,3.34,0,0,0-3.29471-2.4635,3.10231,3.10231,0,0,0-1.44973.43173c-.23439.14006-.675.413-.87716.0691-.18308-.31153.15111-.60218.35111-.79417a3.3233,3.3233,0,0,0,.95656-1.78288,3.49682,3.49682,0,0,0-1.57239-3.54237,3.65176,3.65176,0,0,0-3.89379,0,3.49677,3.49677,0,0,0-1.57239,3.54237,3.32327,3.32327,0,0,0,.95654,1.78288c.2.192.53418.48264.35113.79417-.20221.34395-.64279.071-.87718-.0691a3.10224,3.10224,0,0,0-1.44973-.43173,3.34,3.34,0,0,0-3.29471,2.4635,3.61407,3.61407,0,0,0,1.69445,4.04607,3.66092,3.66092,0,0,0,5.36038-2.26h.29816a4.03362,4.03362,0,0,1-.59635,2.98282,3.97229,3.97229,0,0,1-1.0764,1.0787v.5395h4.306v-.5395a3.973,3.973,0,0,1-1.07641-1.0787,4.03376,4.03376,0,0,1-.59635-2.98282h.29819a3.66089,3.66089,0,0,0,5.36036,2.26A3.61407,3.61407,0,0,0,67.33409,64.62862Z"/></g></svg>