<svg xmlns="http://www.w3.org/2000/svg" viewBox="0 0 87 127"><defs><style>.cls-1{fill:#fff;}.cls-2{fill:#ff3b5c;}</style></defs><title>card-diamonds-q</title><g id="artwork"><rect class="cls-1" x="0.00232" width="86.99536" height="127" rx="6"/><path class="cls-2" d="M12.33766,18.89632a5.22482,5.22482,0,0,1-1.34375.14385,4.89281,4.89281,0,0,1-2.59961-.593A3.26522,3.26522,0,0,1,7.034,16.62692a10.56994,10.56994,0,0,1-.40723-3.24606,10.62079,10.62079,0,0,1,.415-3.26269,3.40324,3.40324,0,0,1,1.376-1.876,4.7118,4.7118,0,0,1,2.57617-.61751,4.70954,4.70954,0,0,1,2.57617.61751,3.43286,3.43286,0,0,1,1.38379,1.876,10.44059,10.44059,0,0,1,.42481,3.26269,10.30882,10.30882,0,0,1-.42481,3.28716,3.20008,3.20008,0,0,1-1.416,1.79477l1.36036,2.197-1.15235.54508Zm.55273-1.39452a2.42538,2.42538,0,0,0,.93555-1.419,10.301,10.301,0,0,0,.27246-2.66966,10.51424,10.51424,0,0,0-.28027-2.70977A2.64516,2.64516,0,0,0,12.866,9.20414a3.13214,3.13214,0,0,0-1.87207-.4893,3.17752,3.17752,0,0,0-1.87207.48049,2.61567,2.61567,0,0,0-.95215,1.49141,10.44455,10.44455,0,0,0-.2793,2.69412,10.42115,10.42115,0,0,0,.27149,2.66965A2.43737,2.43737,0,0,0,9.114,17.493a3.37312,3.37312,0,0,0,1.8955.457A3.34175,3.34175,0,0,0,12.89039,17.5018Z"/><path class="cls-2" d="M74.60328,108.10368a5.19008,5.19008,0,0,1,1.34473-.14483,4.89035,4.89035,0,0,1,2.59961.593A3.26523,3.26523,0,0,1,79.908,110.3721a13.05968,13.05968,0,0,1-.00781,6.50973,3.407,3.407,0,0,1-1.37695,1.876,5.68045,5.68045,0,0,1-5.15137,0,3.4446,3.4446,0,0,1-1.38379-1.876,10.41932,10.41932,0,0,1-.42383-3.26269,10.28479,10.28479,0,0,1,.42383-3.28716,3.19829,3.19829,0,0,1,1.416-1.79575l-1.36036-2.196,1.15235-.54606Zm-.55175,1.39452a2.42228,2.42228,0,0,0-.93555,1.419,10.301,10.301,0,0,0-.27246,2.66966,10.51944,10.51944,0,0,0,.28027,2.70977,2.65182,2.65182,0,0,0,.95215,1.49924,3.13216,3.13216,0,0,0,1.87207.4893,3.17023,3.17023,0,0,0,1.87207-.48147,2.60964,2.60964,0,0,0,.95117-1.49141,13.1692,13.1692,0,0,0,.00879-5.36279,2.43682,2.43682,0,0,0-.95215-1.44346,3.37662,3.37662,0,0,0-1.89648-.457A3.33783,3.33783,0,0,0,74.05153,109.4982Z"/><path class="cls-2" d="M10.99413,34.49163q-1.121-1.3736-2.375-2.63054-1.25217-1.25464-2.625-2.38,1.37071-1.12332,2.625-2.37994,1.25214-1.25481,2.375-2.63054,1.121,1.37358,2.375,2.63054,1.25219,1.25476,2.625,2.37994-1.3707,1.12335-2.625,2.38Q12.11711,33.11586,10.99413,34.49163Z"/><path class="cls-2" d="M76.0059,102.47239q-1.121-1.37358-2.375-2.63054-1.25218-1.25464-2.625-2.38,1.3707-1.12332,2.625-2.37994,1.25214-1.25481,2.375-2.63054,1.121,1.37358,2.375,2.63054,1.25217,1.25477,2.625,2.37994-1.37071,1.12337-2.625,2.38Q77.12889,101.09662,76.0059,102.47239Z"/><path d="M43.5,60.14751l-.10217-.04566c-.35815-.1604-8.77173-3.98315-8.77173-8.852h.5c0,4.27441,7.41065,7.896,8.3739,8.34839.96314-.45264,8.37378-4.07617,8.37378-8.34839h.5c0,4.8689-8.41345,8.69165-8.7716,8.852Z"/><path d="M49.12492,45.98637a2.187,2.187,0,0,1-2.18445-2.18432h.5a1.68445,1.68445,0,0,0,3.3689,0h.5A2.187,2.187,0,0,1,49.12492,45.98637Z"/><path d="M37.875,45.98637a2.187,2.187,0,0,1-2.18444-2.18432h.5a1.68445,1.68445,0,0,0,3.36889,0h.5A2.187,2.187,0,0,1,37.875,45.98637Z"/><rect x="43.25004" y="47.19902" width="0.5" height="3.74585"/><path d="M49.07227,32.4575a2.92832,2.92832,0,0,0,2.78613-2.04687v8.186a2.78593,2.78593,0,0,1-2.78565,2.78614h-.00048a2.78593,2.78593,0,0,1-2.78565-2.78614v-8.186A2.92864,2.92864,0,0,0,49.07227,32.4575Z"/><path d="M43.5,32.4575a2.92922,2.92922,0,0,0,2.78613-2.04687v8.186a2.78624,2.78624,0,0,1-2.78564,2.78614H43.5a2.78593,2.78593,0,0,1-2.78564-2.78614v-8.186A2.92816,2.92816,0,0,0,43.5,32.4575Z"/><path d="M37.92725,32.4575a2.92878,2.92878,0,0,0,2.78613-2.04687v8.186a2.78593,2.78593,0,0,1-2.78565,2.78614h-.00048a2.78593,2.78593,0,0,1-2.78565-2.78614v-8.186A2.92864,2.92864,0,0,0,37.92725,32.4575Z"/><path class="cls-2" d="M42.113,27.3041a1.57491,1.57491,0,0,0,1.37717-1.09065V26.2131l.00035-.00035v.0007a1.57488,1.57488,0,0,0,1.37682,1.09065Z"/><path class="cls-2" d="M45.92576,28.07568a1.57491,1.57491,0,0,0,1.46343.97184l.00067-.00022-.00033.00011.00044.00022-.00067.00022a1.57487,1.57487,0,0,0-.61078,1.64684Z"/><path class="cls-2" d="M42.80506,33.58468a1.5749,1.5749,0,0,0-1.75561.06281l-.00041.00057.00021-.00029-.00049.00008.00041-.00057a1.57484,1.57484,0,0,0-.46311-1.6943Z"/><path class="cls-2" d="M41.07973,28.05321a1.57492,1.57492,0,0,1-1.46892.96353l-.00067-.00022.00033.00011-.00044.00022.00067.00022a1.57485,1.57485,0,0,1,.60143,1.65028Z"/><path class="cls-2" d="M44.13809,33.59757a1.57492,1.57492,0,0,1,1.75519.07346l.00041.00057-.0002-.00028.00049.00007-.00042-.00057a1.57486,1.57486,0,0,1,.47338-1.69146Z"/><path class="cls-1" d="M42.29614,32.88443l-.261-.53065-.58366-.08509a1.34233,1.34233,0,0,1-.74083-2.28759L41.133,29.568l-.0997-.58323a1.33764,1.33764,0,0,1,1.9395-1.41381l.52205.27536.522-.27536a1.33765,1.33765,0,0,1,1.93951,1.41381l-.09971.58323.42235.41306a1.34233,1.34233,0,0,1-.74083,2.28759l-.58366.08509-.261.53065A1.33475,1.33475,0,0,1,42.29614,32.88443Z"/><path d="M43.49479,33.75688h0A1.45213,1.45213,0,0,1,42.184,32.9395l-.23205-.47144-.51856-.07568a1.46736,1.46736,0,0,1-.81018-2.50073l.37549-.36695-.08862-.5188a1.46267,1.46267,0,0,1,2.12109-1.54541l.46362.24463.46375-.24463a1.46262,1.46262,0,0,1,2.121,1.54541l-.08862.5188.37549.36695a1.46736,1.46736,0,0,1-.81018,2.50073l-.51856.07568-.23193.47144A1.45244,1.45244,0,0,1,43.49479,33.75688Zm-1.1477-6.21875a1.22129,1.22129,0,0,0-1.19067,1.42578l.11084.64771-.46924.45874a1.21727,1.21727,0,0,0,.67151,2.07446l.64868.09473.29016.5896a1.20975,1.20975,0,0,0,2.173,0l.29-.5896.64868-.09473a1.21718,1.21718,0,0,0,.67151-2.07446l-.46924-.45874.11084-.64771a1.21262,1.21262,0,0,0-1.75793-1.28223l-.58045.30616-.58032-.30616A1.21389,1.21389,0,0,0,42.34709,27.53813Z"/><path class="cls-2" d="M43.495,29.18a1.14038,1.14038,0,1,1-1.14063,1.14013A1.14113,1.14113,0,0,1,43.495,29.18m0-.25a1.39038,1.39038,0,1,0,1.39014,1.39013A1.39046,1.39046,0,0,0,43.495,28.93Z"/><path class="cls-2" d="M43.5,56.212q-.33146-.4053-.70224-.77618-.37024-.3702-.77617-.70224.40528-.33144.77617-.70223.37025-.37025.70224-.77617.33146.40528.70224.77617.37024.37023.77617.70223-.40528.33147-.77617.70224Q43.83206,55.80606,43.5,56.212Z"/><path class="cls-2" d="M49.07142,39.884q-.33146-.40528-.70224-.77617-.37025-.3702-.77617-.70224.40528-.33145.77617-.70223.37023-.37026.70224-.77618.33145.4053.70223.77618.37024.37023.77618.70223-.4053.33146-.77618.70224Q49.40347,39.478,49.07142,39.884Z"/><path class="cls-2" d="M37.92859,39.884q-.33147-.40528-.70224-.77617-.37026-.3702-.77618-.70224.4053-.33145.77618-.70223.37023-.37026.70224-.77618.33144.4053.70223.77618.37025.37023.77617.70223-.40528.33146-.77617.70224Q38.26064,39.478,37.92859,39.884Z"/><rect class="cls-2" x="51.84075" y="35.49767" width="5.57585" height="19.18901" rx="2.78792"/><path class="cls-2" d="M54.62868,60.56481q-.66148-.80883-1.40143-1.549-.73888-.73878-1.549-1.40142.80881-.66145,1.549-1.40141.73886-.73889,1.40143-1.549.66146.80883,1.40141,1.549.73888.73886,1.549,1.40141-.80881.66148-1.549,1.40142Q55.29133,59.7547,54.62868,60.56481Z"/><path class="cls-2" d="M54.62867,63.50612q-.33146-.4053-.70224-.77618-.37025-.3702-.77617-.70224.40528-.33144.77617-.70223.37024-.37025.70224-.77618.33146.4053.70224.77618.37024.37023.77617.70223-.40529.33147-.77617.70224Q54.96071,63.10019,54.62867,63.50612Z"/><rect class="cls-2" x="29.58341" y="35.49767" width="5.57585" height="19.18901" rx="2.78792"/><path class="cls-2" d="M32.37134,60.56481q-.66148-.80883-1.40143-1.549-.73888-.73878-1.549-1.40142.80881-.66145,1.549-1.40141.73887-.73889,1.40143-1.549.66145.80883,1.40141,1.549.73888.73886,1.549,1.40141-.80881.66148-1.549,1.40142Q33.034,59.7547,32.37134,60.56481Z"/><path class="cls-2" d="M32.37133,63.50612q-.33146-.4053-.70224-.77618-.37025-.3702-.77617-.70224.40528-.33144.77617-.70223.37025-.37025.70224-.77618.33146.4053.70224.77618.37025.37023.77617.70223-.40528.33147-.77617.70224Q32.70338,63.10019,32.37133,63.50612Z"/><path d="M43.5,66.85249l.10217.04566c.35815.1604,8.77173,3.98315,8.77173,8.85205h-.5c0-4.27441-7.41065-7.896-8.3739-8.34839-.96314.45264-8.37378,4.07617-8.37378,8.34839h-.5c0-4.8689,8.41345-8.69165,8.7716-8.85205Z"/><path d="M37.87508,81.01363A2.187,2.187,0,0,1,40.05953,83.198h-.5a1.68445,1.68445,0,0,0-3.3689,0h-.5A2.187,2.187,0,0,1,37.87508,81.01363Z"/><path d="M49.125,81.01363A2.187,2.187,0,0,1,51.3094,83.198h-.5a1.68445,1.68445,0,0,0-3.36889,0h-.5A2.187,2.187,0,0,1,49.125,81.01363Z"/><rect x="43.24996" y="76.05513" width="0.5" height="3.74585"/><path d="M37.92773,94.5425a2.92832,2.92832,0,0,0-2.78613,2.04687v-8.186a2.78593,2.78593,0,0,1,2.78565-2.78614h.00048a2.78593,2.78593,0,0,1,2.78565,2.78614v8.186A2.92864,2.92864,0,0,0,37.92773,94.5425Z"/><path d="M43.5,94.5425a2.92922,2.92922,0,0,0-2.78613,2.04687v-8.186a2.78624,2.78624,0,0,1,2.78564-2.78614H43.5a2.78593,2.78593,0,0,1,2.78564,2.78614v8.186A2.92816,2.92816,0,0,0,43.5,94.5425Z"/><path d="M49.07275,94.5425a2.92878,2.92878,0,0,0-2.78613,2.04687v-8.186a2.78593,2.78593,0,0,1,2.78565-2.78614h.00048a2.78593,2.78593,0,0,1,2.78565,2.78614v8.186A2.92864,2.92864,0,0,0,49.07275,94.5425Z"/><path class="cls-2" d="M44.887,99.6959a1.57491,1.57491,0,0,0-1.37717,1.09065v.00035l-.00035.00035v-.0007a1.57488,1.57488,0,0,0-1.37682-1.09065Z"/><path class="cls-2" d="M41.07424,98.92432a1.57491,1.57491,0,0,0-1.46343-.97184l-.00067.00022.00033-.00011L39.61,97.95237l.00067-.00022a1.57487,1.57487,0,0,0,.61078-1.64684Z"/><path class="cls-2" d="M44.19494,93.41532a1.5749,1.5749,0,0,0,1.75561-.06281l.00041-.00057-.00021.00029.00049-.00008-.00041.00057a1.57484,1.57484,0,0,0,.46311,1.6943Z"/><path class="cls-2" d="M45.92027,98.94679a1.57492,1.57492,0,0,1,1.46892-.96353l.00067.00022-.00033-.00011.00044-.00022-.00067-.00022a1.57485,1.57485,0,0,1-.60143-1.65028Z"/><path class="cls-2" d="M42.86191,93.40243a1.57492,1.57492,0,0,1-1.75519-.07346l-.00041-.00057.0002.00028-.00049-.00007.00042.00057a1.57486,1.57486,0,0,1-.47338,1.69146Z"/><path class="cls-1" d="M44.70386,94.11557l.261.53065.58366.08509a1.34233,1.34233,0,0,1,.74083,2.28759L45.867,97.432l.0997.58323a1.33764,1.33764,0,0,1-1.9395,1.41381l-.52205-.27536-.522.27536a1.33765,1.33765,0,0,1-1.93951-1.41381l.09971-.58323L40.721,97.0189a1.34233,1.34233,0,0,1,.74083-2.28759l.58366-.08509.261-.53065A1.33475,1.33475,0,0,1,44.70386,94.11557Z"/><path d="M43.50521,93.24312h0a1.45213,1.45213,0,0,1,1.31079.81738l.23205.47144.51856.07568a1.46736,1.46736,0,0,1,.81018,2.50073l-.37549.367.08862.5188a1.46267,1.46267,0,0,1-2.12109,1.54541l-.46362-.24463-.46375.24463a1.46262,1.46262,0,0,1-2.121-1.54541l.08862-.5188-.37549-.367a1.46736,1.46736,0,0,1,.81018-2.50073l.51856-.07568.23193-.47144A1.45244,1.45244,0,0,1,43.50521,93.24312Zm1.1477,6.21875a1.22129,1.22129,0,0,0,1.19067-1.42578l-.11084-.64771.46924-.45874a1.21727,1.21727,0,0,0-.67151-2.07446l-.64868-.09473-.29016-.5896a1.20975,1.20975,0,0,0-2.173,0l-.29.5896-.64868.09473a1.21718,1.21718,0,0,0-.67151,2.07446l.46924.45874-.11084.64771a1.21262,1.21262,0,0,0,1.75793,1.28223l.58045-.30616.58032.30616A1.21389,1.21389,0,0,0,44.65291,99.46187Z"/><path class="cls-2" d="M43.505,97.82a1.14038,1.14038,0,1,1,1.14063-1.14013A1.14113,1.14113,0,0,1,43.505,97.82m0,.25a1.39038,1.39038,0,1,0-1.39014-1.39013A1.39046,1.39046,0,0,0,43.505,98.07Z"/><path class="cls-2" d="M43.5,70.788q.33146.4053.70224.77618.37024.3702.77617.70224-.40528.33144-.77617.70223-.37025.37025-.70224.77617-.33146-.40529-.70224-.77617-.37024-.37023-.77617-.70223.40528-.33147.77617-.70224Q43.16795,71.19394,43.5,70.788Z"/><path class="cls-2" d="M37.92858,87.116q.33146.40529.70224.77617.37025.3702.77617.70224-.40528.33145-.77617.70223-.37023.37026-.70224.77618-.33145-.4053-.70223-.77618-.37024-.37023-.77618-.70223.4053-.33146.77618-.70224Q37.59654,87.522,37.92858,87.116Z"/><path class="cls-2" d="M49.07141,87.116q.33147.40529.70224.77617.37026.3702.77618.70224-.4053.33145-.77618.70223-.37023.37026-.70224.77618-.33144-.4053-.70223-.77618-.37025-.37023-.77617-.70223.40528-.33146.77617-.70224Q48.73936,87.522,49.07141,87.116Z"/><rect class="cls-2" x="29.58341" y="72.31332" width="5.57585" height="19.18901" rx="2.78792" transform="translate(64.74266 163.81566) rotate(-180)"/><path class="cls-2" d="M32.37132,66.43519q.66148.80883,1.40143,1.549.73888.73878,1.549,1.40142-.80881.66146-1.549,1.40141-.73886.73888-1.40143,1.549-.66145-.80883-1.40141-1.549-.73888-.73886-1.549-1.40141.80881-.66148,1.549-1.40142Q31.70868,67.2453,32.37132,66.43519Z"/><path class="cls-2" d="M32.37133,63.49388q.33146.4053.70224.77618.37025.3702.77617.70224-.40528.33144-.77617.70223-.37024.37025-.70224.77618-.33146-.4053-.70224-.77618-.37025-.37023-.77617-.70223.40528-.33147.77617-.70224Q32.03929,63.89982,32.37133,63.49388Z"/><rect class="cls-2" x="51.84075" y="72.31332" width="5.57585" height="19.18901" rx="2.78792" transform="translate(109.25734 163.81566) rotate(-180)"/><path class="cls-2" d="M54.62866,66.43519q.66148.80883,1.40143,1.549.73888.73878,1.549,1.40142-.80881.66146-1.549,1.40141-.73887.73888-1.40143,1.549-.66145-.80883-1.40141-1.549-.73888-.73886-1.549-1.40141.80881-.66148,1.549-1.40142Q53.966,67.2453,54.62866,66.43519Z"/><path class="cls-2" d="M54.62867,63.49388q.33146.4053.70224.77618.37024.3702.77617.70224-.40529.33144-.77617.70223-.37025.37025-.70224.77618-.33146-.4053-.70224-.77618-.37025-.37023-.77617-.70223.40528-.33147.77617-.70224Q54.29662,63.89982,54.62867,63.49388Z"/></g></svg>