<svg xmlns="http://www.w3.org/2000/svg" viewBox="0 0 115 167"><defs><style>.cls-1{fill:#fff;}.cls-2{fill:#ff3b5c;}</style></defs><title>card-diamonds-10</title><g id="artwork"><rect class="cls-1" width="115" height="167" rx="8"/><path class="cls-2" d="M14.56932,45.15377q-1.48188-1.81576-3.13951-3.47734-1.65528-1.65852-3.47006-3.1461,1.812-1.48494,3.47006-3.14607,1.6552-1.65874,3.13951-3.47734,1.48182,1.81576,3.13948,3.47734,1.65527,1.65868,3.47005,3.14607-1.812,1.485-3.47005,3.1461Q16.05379,43.33512,14.56932,45.15377Z"/><path class="cls-2" d="M100.509,135.01819q-1.48188-1.81575-3.13951-3.47734-1.65526-1.65852-3.47005-3.1461,1.81194-1.48492,3.47005-3.14607,1.65522-1.65874,3.13951-3.47733,1.48182,1.81575,3.13948,3.47733,1.65527,1.65869,3.47005,3.14607-1.812,1.485-3.47005,3.1461Q101.99349,133.19953,100.509,135.01819Z"/><path class="cls-2" d="M9.82089,12.35,6.22566,14.72379l-.741-1.22895,4.44208-2.96761H11.45V24.51662H9.82089Z"/><path class="cls-2" d="M15.621,24.02892A4.23475,4.23475,0,0,1,13.939,21.73918a13.01116,13.01116,0,0,1-.56027-4.21725,13.01975,13.01975,0,0,1,.56027-4.21855,4.28325,4.28325,0,0,1,1.68208-2.2988,5.24892,5.24892,0,0,1,2.85553-.7102,4.46519,4.46519,0,0,1,3.8276,1.674q1.249,1.67462,1.24832,5.55359a13.01119,13.01119,0,0,1-.56026,4.21725,4.23475,4.23475,0,0,1-1.68208,2.28974,5.27093,5.27093,0,0,1-2.83358.69856A5.31734,5.31734,0,0,1,15.621,24.02892Zm4.801-1.282a3.24609,3.24609,0,0,0,1.09987-1.802,12.95522,12.95522,0,0,0,.35888-3.423,12.95535,12.95535,0,0,0-.35888-3.423,3.246,3.246,0,0,0-1.09987-1.802,3.228,3.228,0,0,0-1.94542-.54074,3.22536,3.22536,0,0,0-1.94543.54074,3.23188,3.23188,0,0,0-1.09987,1.802,12.94781,12.94781,0,0,0-.36017,3.423,12.94767,12.94767,0,0,0,.36017,3.423,3.23194,3.23194,0,0,0,1.09987,1.802,3.22512,3.22512,0,0,0,1.94543.53944A3.22778,3.22778,0,0,0,20.422,22.74693Z"/><path class="cls-2" d="M105.17911,154.65l3.59523-2.37382.741,1.22895-4.44208,2.96761H103.55V142.48338h1.62915Z"/><path class="cls-2" d="M99.379,142.97108a4.23475,4.23475,0,0,1,1.68208,2.28974,16.157,16.157,0,0,1,0,8.4358,4.28325,4.28325,0,0,1-1.68208,2.2988,5.24892,5.24892,0,0,1-2.85553.7102,4.46519,4.46519,0,0,1-3.8276-1.674q-1.249-1.67462-1.24832-5.55359a13.01119,13.01119,0,0,1,.56026-4.21725,4.23475,4.23475,0,0,1,1.68208-2.28974,6.14076,6.14076,0,0,1,5.68911,0Zm-4.80095,1.282a3.24609,3.24609,0,0,0-1.09987,1.802,16.50341,16.50341,0,0,0,0,6.84593,3.10817,3.10817,0,0,0,6.09059,0,16.44558,16.44558,0,0,0,0-6.84593,3.31961,3.31961,0,0,0-4.99072-1.802Z"/><path class="cls-2" d="M36.34946,38.00563q-2.22282-2.72364-4.70927-5.216-2.48291-2.48778-5.20508-4.71915,2.71793-2.22739,5.20508-4.7191,2.48283-2.48812,4.70927-5.216,2.22273,2.72364,4.70922,5.216,2.48289,2.488,5.20508,4.7191-2.71794,2.22747-5.20508,4.71915Q38.57618,35.27765,36.34946,38.00563Z"/><path class="cls-2" d="M78.65059,38.00563q-2.2228-2.72364-4.70927-5.216-2.48291-2.48778-5.20508-4.71915,2.71793-2.22739,5.20508-4.7191,2.48283-2.48812,4.70927-5.216,2.22273,2.72364,4.70922,5.216,2.48289,2.488,5.20508,4.7191-2.71793,2.22747-5.20508,4.71915Q80.87731,35.27765,78.65059,38.00563Z"/><path class="cls-2" d="M36.34946,148.86464q-2.22282-2.72364-4.70927-5.216-2.48291-2.48778-5.20508-4.71915,2.71793-2.2274,5.20508-4.7191,2.48283-2.48812,4.70927-5.216,2.22273,2.72364,4.70922,5.216,2.48289,2.488,5.20508,4.7191-2.71794,2.22747-5.20508,4.71915Q38.57618,146.13667,36.34946,148.86464Z"/><path class="cls-2" d="M78.65059,148.86464q-2.2228-2.72364-4.70927-5.216-2.48291-2.48778-5.20508-4.71915,2.71793-2.2274,5.20508-4.7191,2.48283-2.48812,4.70927-5.216,2.22273,2.72364,4.70922,5.216,2.48289,2.488,5.20508,4.7191-2.71793,2.22747-5.20508,4.71915Q80.87731,146.13667,78.65059,148.86464Z"/><path class="cls-2" d="M36.34946,74.95863q-2.22282-2.72362-4.70927-5.216-2.48291-2.48779-5.20508-4.71916,2.71793-2.2274,5.20508-4.7191,2.48283-2.48811,4.70927-5.216,2.22273,2.72362,4.70922,5.216,2.48289,2.488,5.20508,4.7191-2.71794,2.22747-5.20508,4.71916Q38.57618,72.23065,36.34946,74.95863Z"/><path class="cls-2" d="M78.65059,74.95863q-2.2228-2.72362-4.70927-5.216-2.48291-2.48779-5.20508-4.71916,2.71793-2.2274,5.20508-4.7191,2.48283-2.48811,4.70927-5.216,2.22273,2.72362,4.70922,5.216,2.48289,2.488,5.20508,4.7191-2.71793,2.22747-5.20508,4.71916Q80.87731,72.23065,78.65059,74.95863Z"/><path class="cls-2" d="M36.34946,111.91163q-2.22282-2.72363-4.70927-5.216-2.48291-2.48778-5.20508-4.71915,2.71793-2.22739,5.20508-4.71911,2.48283-2.48811,4.70927-5.216,2.22273,2.72362,4.70922,5.216,2.48289,2.488,5.20508,4.71911-2.71794,2.22747-5.20508,4.71915Q38.57618,109.18367,36.34946,111.91163Z"/><path class="cls-2" d="M78.65059,111.91163q-2.2228-2.72363-4.70927-5.216-2.48291-2.48778-5.20508-4.71915,2.71793-2.22739,5.20508-4.71911,2.48283-2.48811,4.70927-5.216,2.22273,2.72362,4.70922,5.216,2.48289,2.488,5.20508,4.71911-2.71793,2.22747-5.20508,4.71915Q80.87731,109.18367,78.65059,111.91163Z"/><path class="cls-2" d="M57.5,56.344q-2.22282-2.72364-4.70927-5.216-2.48291-2.48778-5.20508-4.71915,2.71791-2.2274,5.20508-4.7191,2.48282-2.48812,4.70927-5.216,2.22271,2.72363,4.70921,5.216,2.48291,2.488,5.20508,4.7191-2.71793,2.22747-5.20508,4.71915Q59.72674,53.616,57.5,56.344Z"/><path class="cls-2" d="M57.5,130.52631q-2.22282-2.72363-4.70927-5.216-2.48291-2.48778-5.20508-4.71915,2.71791-2.2274,5.20508-4.7191,2.48282-2.48812,4.70927-5.216,2.22271,2.72364,4.70921,5.216,2.48291,2.488,5.20508,4.7191-2.71793,2.22747-5.20508,4.71915Q59.72674,127.79834,57.5,130.52631Z"/></g></svg>