<svg xmlns="http://www.w3.org/2000/svg" viewBox="0 0 115 167"><defs><style>.cls-1{fill:#fff;}.cls-2{fill:#ff3b5c;}</style></defs><title>card-diamonds-k</title><g id="artwork"><rect class="cls-1" width="115" height="167" rx="8"/><path class="cls-2" d="M14.37049,18.031l-2.4321.08409V24.516H10.31053V9.85h1.62786V16.674l2.41145-.08409L18.09353,9.85H19.955l-4.18776,7.375L20.18741,24.516H18.26264Z"/><path class="cls-2" d="M100.55151,148.969l2.43211-.08538v-6.40092h1.62785V157.15h-1.62785v-6.82523l-2.41146.08538L96.82847,157.15H94.967l4.18776-7.37632-4.42013-7.29094h1.92477Z"/><path class="cls-2" d="M14.53018,45.15355q-1.48188-1.81575-3.13952-3.47733Q9.7354,40.01769,7.92061,38.53011q1.81194-1.48492,3.47005-3.14606,1.65522-1.65875,3.13952-3.47734,1.48181,1.81575,3.13947,3.47734,1.65527,1.65868,3.47006,3.14606-1.812,1.485-3.47006,3.14611Q16.01466,43.33491,14.53018,45.15355Z"/><path class="cls-2" d="M100.46986,135.018q-1.48188-1.81576-3.13951-3.47734-1.65528-1.65852-3.47006-3.1461,1.812-1.48493,3.47006-3.14607,1.65521-1.65874,3.13951-3.47734,1.48182,1.81576,3.13948,3.47734,1.65527,1.65868,3.47005,3.14607-1.812,1.485-3.47005,3.1461Q101.95433,133.19933,100.46986,135.018Z"/><path class="cls-2" d="M47.09321,73.63534a3.84568,3.84568,0,0,1-3.84115-3.84147H43.913a3.1802,3.1802,0,1,0,6.3604,0h.66095A3.84568,3.84568,0,0,1,47.09321,73.63534Z"/><path d="M46.22167,80.18712l-.27012-.60351c.122-.05454,12.19894-5.54066,12.19894-12.09276h.66095C58.81144,74.46993,46.73578,79.95669,46.22167,80.18712Z"/><path d="M46.93473,42.70312a3.87219,3.87219,0,0,0,3.683-2.70579v8.17738a3.68316,3.68316,0,0,1-3.68237,3.683h-.00065a3.68275,3.68275,0,0,1-3.68237-3.683V39.99733A3.87079,3.87079,0,0,0,46.93473,42.70312Z"/><path d="M54.29107,42.70312a3.871,3.871,0,0,0,3.683-2.70579v8.17738a3.68274,3.68274,0,0,1-3.68237,3.683h-.00064a3.68274,3.68274,0,0,1-3.68237-3.683V39.99733A3.87137,3.87137,0,0,0,54.29107,42.70312Z"/><rect x="51.38942" y="56.56231" width="7.00085" height="0.66071" transform="translate(-10.68116 12.73258) rotate(-12.06739)"/><path d="M56.23765,56.91451a1.48006,1.48006,0,1,1-2.89842.60123S55.16462,57.13787,56.23765,56.91451Z"/><path class="cls-2" d="M50.60473,36.95q-.82629,1.01035-1.75059,1.9349-.923.92286-1.9349,1.7506,1.01034.82626,1.9349,1.75057.923.923,1.75059,1.9349.82627-1.01034,1.75058-1.9349.923-.923,1.9349-1.75057-1.01034-.82629-1.9349-1.7506Q51.43248,37.962,50.60473,36.95Z"/><path class="cls-2" d="M50.60473,33.2759q-.414.50628-.8772.96956-.4625.46243-.96956.87721.50626.414.96956.87719.46248.4625.8772.96956.414-.50626.87719-.96956.46249-.46248.96956-.87719-.50626-.414-.96956-.87721Q51.0195,33.783,50.60473,33.2759Z"/><rect class="cls-2" x="58.01061" y="40.28497" width="7.37076" height="38.58523" rx="3.68538"/><rect class="cls-2" x="65.38192" y="44.5186" width="7.37076" height="25.36613" rx="3.68538"/><path class="cls-2" d="M45.95775,83.4915q.8237-1.00718,1.74509-1.92882.92008-.91995,1.92882-1.74509-1.00716-.82367-1.92882-1.74507-.92-.92007-1.74509-1.92882-.82366,1.00718-1.74507,1.92882-.92007.92006-1.92882,1.74507,1.00717.8237,1.92882,1.74509Q45.13262,82.48274,45.95775,83.4915Z"/><path d="M44.84748,66.86637A1.59318,1.59318,0,0,1,43.25609,65.275V48.02012H43.917V65.275a.93052.93052,0,0,0,1.861,0V62.56112H46.439V65.275A1.59332,1.59332,0,0,1,44.84748,66.86637Z"/><path class="cls-1" d="M65.40145,57.05436a3.69939,3.69939,0,0,1,3.58715-2.95644,3.69919,3.69919,0,0,0,0-1.481,3.699,3.699,0,0,1-3.58715-2.95644c-.01354,0-.02581-.00381-.03892-.00381a3.70073,3.70073,0,1,0,0,7.40146C65.37564,57.05817,65.38791,57.05479,65.40145,57.05436Z"/><rect x="67.02797" y="49.65166" width="3.97498" height="33.83984" rx="1.98749"/><rect class="cls-1" x="68.85018" y="53.36004" width="0.33048" height="29.7704"/><path class="cls-2" d="M69.01546,52.34306q.22741.27808.48182.53255.254.254.53256.48183-.27808.22742-.53256.48182-.254.254-.48182.53256-.22743-.27808-.48183-.53256-.254-.254-.53255-.48182.27809-.22743.53255-.48183Q68.78763,52.62159,69.01546,52.34306Z"/><path class="cls-2" d="M65.23237,51.56185q.40257.49224.8529.94269.44969.44963.9427.8529-.49226.40257-.9427.85289-.44967.44969-.8529.9427-.40256-.49224-.85289-.9427-.44969-.44966-.9427-.85289.49226-.40257.9427-.8529Q64.82909,52.05489,65.23237,51.56185Z"/><path class="cls-1" d="M69.01541,83.32633a1.8244,1.8244,0,0,1-1.8223-1.82246V51.63923a1.82231,1.82231,0,0,1,3.64461,0V81.50387A1.8244,1.8244,0,0,1,69.01541,83.32633Zm0-33.17876a1.49331,1.49331,0,0,0-1.49182,1.49166V81.50387a1.49183,1.49183,0,1,0,2.98365,0V51.63923A1.49331,1.49331,0,0,0,69.01541,50.14757Z"/><path class="cls-2" d="M67.90679,93.36466a3.84568,3.84568,0,0,1,3.84115,3.84147H71.087a3.1802,3.1802,0,1,0-6.3604,0h-.66095A3.84568,3.84568,0,0,1,67.90679,93.36466Z"/><path d="M68.77833,86.81288l.27012.60351c-.122.05454-12.19894,5.54066-12.19894,12.09276h-.66095C56.18856,92.53007,68.26422,87.04331,68.77833,86.81288Z"/><path d="M68.06527,124.29688a3.87219,3.87219,0,0,0-3.683,2.70579v-8.17738a3.68316,3.68316,0,0,1,3.68237-3.683h.00065a3.68275,3.68275,0,0,1,3.68237,3.683v8.17738A3.87079,3.87079,0,0,0,68.06527,124.29688Z"/><path d="M60.70893,124.29688a3.871,3.871,0,0,0-3.683,2.70579v-8.17738a3.68274,3.68274,0,0,1,3.68237-3.683h.00064a3.68274,3.68274,0,0,1,3.68237,3.683v8.17738A3.87137,3.87137,0,0,0,60.70893,124.29688Z"/><rect x="56.60973" y="109.77698" width="7.00085" height="0.66071" transform="translate(-21.69097 14.99986) rotate(-12.06739)"/><path d="M58.76235,110.08549a1.48006,1.48006,0,1,1,2.89842-.60123S59.83538,109.86213,58.76235,110.08549Z"/><path class="cls-2" d="M64.39527,130.05q.82629-1.01036,1.75059-1.9349.923-.92286,1.9349-1.7506-1.01034-.82626-1.9349-1.75057-.923-.923-1.75059-1.9349-.82627,1.01034-1.75058,1.9349-.923.923-1.9349,1.75057,1.01034.82629,1.9349,1.7506Q63.56752,129.038,64.39527,130.05Z"/><path class="cls-2" d="M64.39527,133.7241q.414-.50628.8772-.96956.46249-.46243.96956-.87721-.50626-.414-.96956-.87719-.46248-.46249-.8772-.96956-.414.50627-.87719.96956-.46249.46248-.96956.87719.50626.414.96956.87721Q63.9805,133.217,64.39527,133.7241Z"/><rect class="cls-2" x="49.61863" y="88.12979" width="7.37076" height="38.58523" rx="3.68538"/><rect class="cls-2" x="42.24731" y="97.11527" width="7.37076" height="25.36613" rx="3.68538"/><path class="cls-2" d="M69.04225,83.5085q-.82369,1.00718-1.74509,1.92882-.92009.92-1.92882,1.74509,1.00716.82367,1.92882,1.74507.92.92007,1.74509,1.92882.82367-1.00718,1.74507-1.92882.92007-.92006,1.92882-1.74507-1.00717-.8237-1.92882-1.74509Q69.86739,84.51727,69.04225,83.5085Z"/><path d="M70.15252,100.13363a1.59318,1.59318,0,0,1,1.59139,1.59139v17.25486H71.083V101.725a.93052.93052,0,0,0-1.861,0v2.71386H68.561V101.725A1.59332,1.59332,0,0,1,70.15252,100.13363Z"/><path class="cls-1" d="M49.59855,109.94564a3.69939,3.69939,0,0,1-3.58715,2.95644,3.69919,3.69919,0,0,0,0,1.481,3.699,3.699,0,0,1,3.58715,2.95644c.01354,0,.02581.00381.03892.00381a3.70073,3.70073,0,1,0,0-7.40146C49.62436,109.94183,49.61209,109.94521,49.59855,109.94564Z"/><rect x="43.99705" y="83.5085" width="3.97498" height="33.83984" rx="1.98749"/><rect class="cls-1" x="45.81935" y="83.86956" width="0.33048" height="29.7704"/><path class="cls-2" d="M45.98454,114.65694q-.22742-.27809-.48182-.53255-.254-.254-.53256-.48183.27808-.22742.53256-.48182.254-.254.48182-.53256.22743.27808.48183.53256.254.254.53255.48182-.27808.22743-.53255.48183Q46.21238,114.37841,45.98454,114.65694Z"/><path class="cls-2" d="M49.76763,115.43815q-.40257-.49224-.8529-.94269-.44969-.44962-.9427-.8529.49226-.40257.9427-.85289.44967-.44969.8529-.9427.40256.49224.85289.9427.44969.44965.9427.85289-.49226.40257-.9427.8529Q50.17091,114.94512,49.76763,115.43815Z"/><path class="cls-1" d="M45.98459,83.67367a1.8244,1.8244,0,0,1,1.8223,1.82246v29.86464a1.82231,1.82231,0,0,1-3.64461,0V85.49613A1.8244,1.8244,0,0,1,45.98459,83.67367Zm0,33.17876a1.49331,1.49331,0,0,0,1.49182-1.49166V85.49613a1.49183,1.49183,0,1,0-2.98365,0v29.86464A1.49331,1.49331,0,0,0,45.98459,116.85243Z"/></g></svg>