<svg xmlns="http://www.w3.org/2000/svg" viewBox="0 0 115 167"><defs><style>.cls-1{fill:#fff;}</style></defs><title>card-clubs-6</title><g id="artwork"><rect class="cls-1" width="115" height="167" rx="8"/><path d="M9.66306,17.46271a8.55632,8.55632,0,0,1,1.40582-5.37349,4.87421,4.87421,0,0,1,4.05093-1.7696,20.04331,20.04331,0,0,1,3.257.25484l.57059.10607-.14716,1.335a27.98466,27.98466,0,0,0-3.70238-.25483,3.30548,3.30548,0,0,0-2.77033,1.25088,5.73216,5.73216,0,0,0-.97336,3.58189l.52928-.21215a10.83214,10.83214,0,0,1,1.48069-.42429,7.08854,7.08854,0,0,1,1.48069-.19015q4.69381,0,4.69511,4.34509a4.46241,4.46241,0,0,1-1.27931,3.42278,5.07791,5.07791,0,0,1-3.60685,1.19656Q9.66177,24.73127,9.66306,17.46271Zm7.34925,5.01257a3.10042,3.10042,0,0,0,.83523-2.32066,2.81727,2.81727,0,0,0-.803-2.19389,3.31226,3.31226,0,0,0-2.30559-.73216,6.95471,6.95471,0,0,0-1.50264.19145,11.31579,11.31579,0,0,0-1.41615.4023l-.48668.21214a7.80558,7.80558,0,0,0,.83523,3.86777,2.622,2.622,0,0,0,2.40113,1.388A3.35908,3.35908,0,0,0,17.01231,22.47528Z"/><path d="M21.43021,39.4911a2.94332,2.94332,0,0,0-2.90339-2.1709,2.73385,2.73385,0,0,0-1.27754.38045c-.20655.12342-.5948.364-.773.06089-.16133-.27452.13316-.53065.3094-.69984a2.9285,2.9285,0,0,0,.84295-1.57112A3.0815,3.0815,0,0,0,16.243,32.369a3.218,3.218,0,0,0-3.43131,0,3.08148,3.08148,0,0,0-1.38563,3.12163A2.92853,2.92853,0,0,0,12.269,37.0617c.17626.16919.47073.42532.30942.69984-.17819.3031-.56644.06253-.773-.06089a2.73378,2.73378,0,0,0-1.27754-.38045,2.94333,2.94333,0,0,0-2.90339,2.1709,3.18483,3.18483,0,0,0,1.4932,3.5655,3.2261,3.2261,0,0,0,4.72371-1.99155h.26275a3.55456,3.55456,0,0,1-.52553,2.62855,3.50049,3.50049,0,0,1-.94855.95058v.47542h3.79454v-.47542a3.501,3.501,0,0,1-.94856-.95058,3.5546,3.5546,0,0,1-.52552-2.62855h.26277A3.22607,3.22607,0,0,0,19.937,43.0566,3.18482,3.18482,0,0,0,21.43021,39.4911Z"/><path d="M105.33885,149.53859a8.54965,8.54965,0,0,1-1.40582,5.37219,4.87059,4.87059,0,0,1-4.05093,1.7696,20.04758,20.04758,0,0,1-3.257-.25354l-.57059-.10608.14717-1.335a27.97821,27.97821,0,0,0,3.70237.25354,3.30454,3.30454,0,0,0,2.77033-1.24959,5.73625,5.73625,0,0,0,.97336-3.58318l-.52928.21215a10.64939,10.64939,0,0,1-1.48069.42429,7.10073,7.10073,0,0,1-1.48069.19144q-4.69382,0-4.69511-4.34509a4.46242,4.46242,0,0,1,1.27931-3.42278,5.07843,5.07843,0,0,1,3.60685-1.19785Q105.34014,142.26873,105.33885,149.53859ZM97.9896,144.526a3.09646,3.09646,0,0,0-.83523,2.32066,2.81913,2.81913,0,0,0,.803,2.19389,3.31188,3.31188,0,0,0,2.30559.73087,6.94574,6.94574,0,0,0,1.50264-.19016,11.29468,11.29468,0,0,0,1.41615-.40359l.48668-.21214a7.809,7.809,0,0,0-.83523-3.86777,2.622,2.622,0,0,0-2.40113-1.388A3.35948,3.35948,0,0,0,97.9896,144.526Z"/><path d="M93.56979,127.48753a2.94332,2.94332,0,0,0,2.90339,2.1709,2.73373,2.73373,0,0,0,1.27754-.38045c.20655-.12342.5948-.364.773-.06089.16133.27452-.13316.53065-.3094.69984a2.9285,2.9285,0,0,0-.843,1.57112,3.08149,3.08149,0,0,0,1.38563,3.12163,3.218,3.218,0,0,0,3.43131,0,3.08147,3.08147,0,0,0,1.38563-3.12163,2.92853,2.92853,0,0,0-.84293-1.57112c-.17626-.16919-.47073-.42532-.30942-.69984.17819-.3031.56644-.06253.773.06089a2.73366,2.73366,0,0,0,1.27754.38045,2.94333,2.94333,0,0,0,2.90339-2.1709,3.18483,3.18483,0,0,0-1.4932-3.5655,3.2261,3.2261,0,0,0-4.72371,1.99155h-.26275a3.55456,3.55456,0,0,1,.52553-2.62855,3.50031,3.50031,0,0,1,.94855-.95057V121.859H98.57536v.47543a3.50077,3.50077,0,0,1,.94856.95057,3.5546,3.5546,0,0,1,.52552,2.62855h-.26277A3.22607,3.22607,0,0,0,95.063,123.922,3.18482,3.18482,0,0,0,93.56979,127.48753Z"/><path d="M46.70369,29.46182a4.415,4.415,0,0,0-4.35507-3.25635,4.10084,4.10084,0,0,0-1.91631.57067c-.30982.18514-.8922.546-1.15947.09134-.242-.41178.19975-.796.46411-1.04976A4.39279,4.39279,0,0,0,41.00138,23.461a4.62224,4.62224,0,0,0-2.07845-4.68244,4.827,4.827,0,0,0-5.147,0A4.62217,4.62217,0,0,0,31.69752,23.461a4.39279,4.39279,0,0,0,1.26439,2.35668c.26439.25379.7061.638.46414,1.04976-.26729.45465-.84967.0938-1.15949-.09134a4.10077,4.10077,0,0,0-1.91631-.57067,4.415,4.415,0,0,0-4.35508,3.25635A4.77723,4.77723,0,0,0,28.235,34.81007a4.83914,4.83914,0,0,0,7.08556-2.98732h.39413a5.33188,5.33188,0,0,1-.78828,3.94282,5.25068,5.25068,0,0,1-1.42284,1.42586v.71314h5.69181v-.71314a5.25124,5.25124,0,0,1-1.42284-1.42586,5.332,5.332,0,0,1-.78828-3.94282h.39415a4.83911,4.83911,0,0,0,7.08554,2.98732A4.77721,4.77721,0,0,0,46.70369,29.46182Z"/><path d="M25.99517,137.53818a4.415,4.415,0,0,0,4.35508,3.25635,4.10088,4.10088,0,0,0,1.91631-.57067c.30982-.18514.8922-.546,1.15946-.09134.242.41178-.19975.796-.46411,1.04976a4.39284,4.39284,0,0,0-1.26442,2.35668,4.62222,4.62222,0,0,0,2.07845,4.68244,4.827,4.827,0,0,0,5.147,0,4.6222,4.6222,0,0,0,2.07845-4.68244,4.39274,4.39274,0,0,0-1.2644-2.35668c-.26438-.25379-.70609-.638-.46413-1.04976.26729-.45465.84966-.0938,1.15949.09134a4.10071,4.10071,0,0,0,1.91631.57067,4.415,4.415,0,0,0,4.35508-3.25635,4.77722,4.77722,0,0,0-2.2398-5.34825,4.83914,4.83914,0,0,0-7.08556,2.98732h-.39412a5.33188,5.33188,0,0,1,.78828-3.94282,5.25068,5.25068,0,0,1,1.42284-1.42586v-.71314H33.50353v.71314a5.25139,5.25139,0,0,1,1.42284,1.42586,5.332,5.332,0,0,1,.78828,3.94282h-.39416a4.8391,4.8391,0,0,0-7.08553-2.98732A4.77722,4.77722,0,0,0,25.99517,137.53818Z"/><path d="M89.00483,29.46182a4.415,4.415,0,0,0-4.35508-3.25635,4.10088,4.10088,0,0,0-1.91631.57067c-.30982.18514-.8922.546-1.15946.09134-.242-.41178.19975-.796.46411-1.04976A4.39284,4.39284,0,0,0,83.30251,23.461a4.62222,4.62222,0,0,0-2.07845-4.68244,4.827,4.827,0,0,0-5.147,0A4.6222,4.6222,0,0,0,73.99865,23.461a4.39274,4.39274,0,0,0,1.2644,2.35668c.26438.25379.70609.638.46413,1.04976-.26729.45465-.84966.0938-1.15949-.09134a4.10071,4.10071,0,0,0-1.91631-.57067,4.415,4.415,0,0,0-4.35508,3.25635,4.77722,4.77722,0,0,0,2.2398,5.34825,4.83914,4.83914,0,0,0,7.08556-2.98732h.39412a5.33188,5.33188,0,0,1-.78828,3.94282,5.25068,5.25068,0,0,1-1.42284,1.42586v.71314h5.69181v-.71314a5.25139,5.25139,0,0,1-1.42284-1.42586,5.332,5.332,0,0,1-.78828-3.94282h.39416A4.8391,4.8391,0,0,0,86.765,34.81007,4.77722,4.77722,0,0,0,89.00483,29.46182Z"/><path d="M68.29631,137.53818a4.415,4.415,0,0,0,4.35507,3.25635,4.10084,4.10084,0,0,0,1.91631-.57067c.30982-.18514.8922-.546,1.15947-.09134.242.41178-.19975.796-.46411,1.04976a4.39279,4.39279,0,0,0-1.26443,2.35668,4.62224,4.62224,0,0,0,2.07845,4.68244,4.827,4.827,0,0,0,5.147,0,4.62217,4.62217,0,0,0,2.07845-4.68244,4.39279,4.39279,0,0,0-1.26439-2.35668c-.26439-.25379-.7061-.638-.46414-1.04976.26729-.45465.84967-.0938,1.15949.09134a4.10077,4.10077,0,0,0,1.91631.57067,4.415,4.415,0,0,0,4.35508-3.25635,4.77723,4.77723,0,0,0-2.23979-5.34825,4.83914,4.83914,0,0,0-7.08556,2.98732h-.39413a5.33188,5.33188,0,0,1,.78828-3.94282,5.25068,5.25068,0,0,1,1.42284-1.42586v-.71314H75.80466v.71314a5.25124,5.25124,0,0,1,1.42284,1.42586,5.332,5.332,0,0,1,.78828,3.94282h-.39415a4.83911,4.83911,0,0,0-7.08554-2.98732A4.77721,4.77721,0,0,0,68.29631,137.53818Z"/><path d="M46.70369,85.02625a4.415,4.415,0,0,0-4.35507-3.25635,4.10084,4.10084,0,0,0-1.91631.57067c-.30982.18514-.8922.546-1.15947.09134-.242-.41178.19975-.796.46411-1.04976a4.3928,4.3928,0,0,0,1.26443-2.35667A4.62225,4.62225,0,0,0,38.92293,74.343a4.827,4.827,0,0,0-5.147,0,4.62218,4.62218,0,0,0-2.07845,4.68245,4.3928,4.3928,0,0,0,1.26439,2.35667c.26439.25379.7061.638.46414,1.04976-.26729.45465-.84967.0938-1.15949-.09134a4.10077,4.10077,0,0,0-1.91631-.57067,4.415,4.415,0,0,0-4.35508,3.25635A4.77723,4.77723,0,0,0,28.235,90.3745a4.83914,4.83914,0,0,0,7.08556-2.98732h.39413A5.33188,5.33188,0,0,1,34.92637,91.33a5.25068,5.25068,0,0,1-1.42284,1.42586V93.469h5.69181v-.71314A5.25124,5.25124,0,0,1,37.7725,91.33a5.332,5.332,0,0,1-.78828-3.94282h.39415a4.83911,4.83911,0,0,0,7.08554,2.98732A4.77721,4.77721,0,0,0,46.70369,85.02625Z"/><path d="M89.00483,85.02625a4.415,4.415,0,0,0-4.35508-3.25635,4.10088,4.10088,0,0,0-1.91631.57067c-.30982.18514-.8922.546-1.15946.09134-.242-.41178.19975-.796.46411-1.04976a4.39285,4.39285,0,0,0,1.26442-2.35667A4.62223,4.62223,0,0,0,81.22406,74.343a4.827,4.827,0,0,0-5.147,0,4.62222,4.62222,0,0,0-2.07845,4.68245,4.39275,4.39275,0,0,0,1.2644,2.35667c.26438.25379.70609.638.46413,1.04976-.26729.45465-.84966.0938-1.15949-.09134a4.10071,4.10071,0,0,0-1.91631-.57067,4.415,4.415,0,0,0-4.35508,3.25635,4.77722,4.77722,0,0,0,2.2398,5.34825,4.83914,4.83914,0,0,0,7.08556-2.98732h.39412A5.33188,5.33188,0,0,1,77.2275,91.33a5.25068,5.25068,0,0,1-1.42284,1.42586V93.469h5.69181v-.71314A5.25139,5.25139,0,0,1,80.07363,91.33a5.332,5.332,0,0,1-.78828-3.94282h.39416A4.8391,4.8391,0,0,0,86.765,90.3745,4.77721,4.77721,0,0,0,89.00483,85.02625Z"/></g></svg>