<svg xmlns="http://www.w3.org/2000/svg" viewBox="0 0 115 167"><defs><style>.cls-1{fill:#fff;}.cls-2{fill:#ff3b5c;}</style></defs><title>card-diamonds-3</title><g id="artwork"><rect class="cls-1" width="115" height="167" rx="8"/><path class="cls-2" d="M10.57471,24.30762l-.65579-.14876.14846-1.335a19.615,19.615,0,0,0,3.80694.50837,4.60119,4.60119,0,0,0,2.55927-.61444,2.37332,2.37332,0,0,0,.93076-2.14086q0-2.5438-2.87684-2.62853H11.67458V16.55009h2.81293a2.39309,2.39309,0,0,0,1.1954-.32856,2.72815,2.72815,0,0,0,.96239-.92232,2.41493,2.41493,0,0,0,.38018-1.335A2.006,2.006,0,0,0,16.35936,12.28a3.5966,3.5966,0,0,0-2.18877-.52,17.59962,17.59962,0,0,0-3.34156.31822l-.54994.10607-.14846-1.29357a14.77212,14.77212,0,0,1,4.273-.59245,5.00373,5.00373,0,0,1,3.27767.86928,3.46385,3.46385,0,0,1,1.016,2.776,3.49743,3.49743,0,0,1-.54994,1.90672A3.21872,3.21872,0,0,1,16.624,17.12314a5.37923,5.37923,0,0,1,1.37484.69853,2.3913,2.3913,0,0,1,.772,1.02839,4.44312,4.44312,0,0,1,.26464,1.66353,4.17467,4.17467,0,0,1-1.09987,3.18994,4.884,4.884,0,0,1-3.42612,1.02709A20.13627,20.13627,0,0,1,10.57471,24.30762Z"/><path class="cls-2" d="M104.34638,142.69238l.65579.14747-.14845,1.33625a19.51334,19.51334,0,0,0-3.807-.50837,4.59738,4.59738,0,0,0-2.55862.61444,2.36959,2.36959,0,0,0-.93205,2.14086q0,2.54185,2.87748,2.62724h2.81293v1.39834h-2.81293a2.40825,2.40825,0,0,0-1.1954.32857,2.73226,2.73226,0,0,0-.96174.92231,2.41635,2.41635,0,0,0-.38082,1.335,2.007,2.007,0,0,0,.66612,1.68552,3.60562,3.60562,0,0,0,2.18812.51872,17.71206,17.71206,0,0,0,3.34221-.31692l.54993-.10607.14846,1.29227a14.77117,14.77117,0,0,1-4.273.59375,5.0037,5.0037,0,0,1-3.27766-.86928,3.98694,3.98694,0,0,1-.466-4.684,3.21312,3.21312,0,0,1,1.5233-1.27157,5.37746,5.37746,0,0,1-1.37484-.69983,2.37957,2.37957,0,0,1-.772-1.02709,4.43286,4.43286,0,0,1-.26464-1.66482,4.16964,4.16964,0,0,1,1.09987-3.18865,4.884,4.884,0,0,1,3.42613-1.02838A20.14311,20.14311,0,0,1,104.34638,142.69238Z"/><path class="cls-2" d="M14.53018,45.15549q-1.48188-1.81565-3.13952-3.47715Q9.7354,40.01991,7.92061,38.53241q1.81194-1.48485,3.47005-3.1459,1.65522-1.65865,3.13952-3.47715Q16.012,33.725,17.66965,35.38651q1.65527,1.6586,3.47006,3.1459-1.812,1.4849-3.47006,3.14593Q16.01466,43.337,14.53018,45.15549Z"/><path class="cls-2" d="M100.46986,135.01513q-1.48188-1.81566-3.13951-3.47715-1.65528-1.65844-3.47006-3.14594,1.812-1.48485,3.47006-3.1459,1.65521-1.65865,3.13951-3.47715,1.48182,1.81566,3.13948,3.47715,1.65527,1.6586,3.47005,3.1459-1.812,1.48491-3.47005,3.14594Q101.95433,133.19658,100.46986,135.01513Z"/><path class="cls-2" d="M57.5,38.00805q-2.22282-2.72347-4.70927-5.21572-2.48291-2.48766-5.20508-4.7189,2.71791-2.22727,5.20508-4.71885,2.48282-2.488,4.70927-5.21573,2.22271,2.72349,4.70921,5.21573,2.48291,2.4879,5.20508,4.71885-2.71793,2.22735-5.20508,4.7189Q59.72674,35.28023,57.5,38.00805Z"/><path class="cls-2" d="M57.5,148.86115q-2.22282-2.72349-4.70927-5.21573-2.48291-2.48765-5.20508-4.7189,2.71791-2.22728,5.20508-4.71885,2.48282-2.488,4.70927-5.21572,2.22271,2.72348,4.70921,5.21572,2.48291,2.4879,5.20508,4.71885-2.71793,2.22735-5.20508,4.7189Q59.72674,146.13332,57.5,148.86115Z"/><path class="cls-2" d="M57.5,93.4346q-2.22282-2.72349-4.70927-5.21572Q50.30786,85.73122,47.58568,83.5q2.71791-2.22728,5.20508-4.71885,2.48282-2.488,4.70927-5.21572,2.22271,2.72349,4.70921,5.21572Q64.69215,81.269,67.41432,83.5q-2.71793,2.22737-5.20508,4.71891Q59.72674,90.70678,57.5,93.4346Z"/></g></svg>