<svg xmlns="http://www.w3.org/2000/svg" viewBox="0 0 115 167"><defs><style>.cls-1{fill:#fff;}.cls-2{fill:#ff3b5c;}</style></defs><title>card-diamonds-j</title><g id="artwork"><rect class="cls-1" width="115" height="167" rx="8"/><path class="cls-2" d="M11.85441,24.58066a5.78279,5.78279,0,0,0,1.56589-.14877.97918.97918,0,0,0,.64418-.61448,4.70813,4.70813,0,0,0,.18073-1.54719V9.85h1.6072l.02065,12.65307a4.78115,4.78115,0,0,1-.4544,2.37382,1.99349,1.99349,0,0,1-1.25866.96376,10.03678,10.03678,0,0,1-2.30559.20181Z"/><path class="cls-2" d="M103.06875,142.41934a5.719,5.719,0,0,0-1.5646.14877.98365.98365,0,0,0-.64547.61448,4.752,4.752,0,0,0-.17944,1.54719V157.15H99.072l-.02066-12.65436a4.77551,4.77551,0,0,1,.45441-2.37253,1.9912,1.9912,0,0,1,1.25865-.965,10.032,10.032,0,0,1,2.30431-.20181Z"/><path class="cls-2" d="M14.53018,45.15355q-1.48188-1.81575-3.13952-3.47733Q9.7354,40.01769,7.92061,38.53011q1.81194-1.48492,3.47005-3.14606,1.65522-1.65875,3.13952-3.47734,1.48181,1.81575,3.13947,3.47734,1.65527,1.65868,3.47006,3.14606-1.812,1.485-3.47006,3.14611Q16.01466,43.33491,14.53018,45.15355Z"/><path class="cls-2" d="M100.46986,135.018q-1.48188-1.81576-3.13951-3.47734-1.65528-1.65852-3.47006-3.1461,1.812-1.48493,3.47006-3.14607,1.65521-1.65874,3.13951-3.47734,1.48182,1.81576,3.13948,3.47734,1.65527,1.65868,3.47005,3.14607-1.812,1.485-3.47005,3.1461Q101.95433,133.19933,100.46986,135.018Z"/><path class="cls-2" d="M50.14619,38.78986a3.871,3.871,0,0,1-3.683-2.70578v8.17738a3.68274,3.68274,0,0,0,3.68237,3.683h.00065a3.68275,3.68275,0,0,0,3.68237-3.683V36.08408A3.87138,3.87138,0,0,1,50.14619,38.78986Z"/><path class="cls-2" d="M57.51222,38.78986a3.87218,3.87218,0,0,1-3.683-2.70578v8.17738a3.68316,3.68316,0,0,0,3.68237,3.683h.00065a3.68275,3.68275,0,0,0,3.68237-3.683V36.08408A3.87077,3.87077,0,0,1,57.51222,38.78986Z"/><path class="cls-2" d="M64.87889,38.78986a3.87157,3.87157,0,0,1-3.683-2.70578v8.17738a3.68274,3.68274,0,0,0,3.68237,3.683h.00064a3.68274,3.68274,0,0,0,3.68237-3.683V36.08408A3.87136,3.87136,0,0,1,64.87889,38.78986Z"/><path class="cls-2" d="M57.50087,72.29935a4.02034,4.02034,0,0,1-4.01575-4.01575h.66095a3.35472,3.35472,0,1,0,6.70944,0h.66095A4.0202,4.0202,0,0,1,57.50087,72.29935Z"/><rect x="57.17039" y="58.72944" width="0.66095" height="7.59549"/><path d="M38.04773,72.42586a1.92994,1.92994,0,1,1-1.92994,1.92994,1.93186,1.93186,0,0,1,1.92994-1.92994m0-.66095a2.59089,2.59089,0,1,0,2.59089,2.59089,2.59119,2.59119,0,0,0-2.59089-2.59089Z"/><path d="M42.76607,74.56235a1.92994,1.92994,0,1,1-1.92994,1.92993,1.93185,1.93185,0,0,1,1.92994-1.92993m0-.661A2.59089,2.59089,0,1,0,45.357,76.49228a2.59078,2.59078,0,0,0-2.59089-2.59089Z"/><rect x="39.06175" y="48.54891" width="7.37076" height="25.36613" rx="3.68538"/><rect x="68.551" y="48.54891" width="7.37076" height="25.36613" rx="3.68538"/><circle cx="64.93767" cy="57.03502" r="1.48006"/><circle cx="50.06397" cy="57.03502" r="1.48006"/><path d="M64.87773,49.649a3.87159,3.87159,0,0,0-3.683,2.70579V44.17744a3.68275,3.68275,0,0,1,3.68237-3.683h.00065a3.68275,3.68275,0,0,1,3.68237,3.683v8.17738A3.87139,3.87139,0,0,0,64.87773,49.649Z"/><path d="M57.51269,49.649a3.87219,3.87219,0,0,0-3.683,2.70579V44.17744a3.68316,3.68316,0,0,1,3.68237-3.683h.00065a3.68275,3.68275,0,0,1,3.68237,3.683v8.17738A3.87078,3.87078,0,0,0,57.51269,49.649Z"/><path d="M50.14735,49.649a3.871,3.871,0,0,0-3.683,2.70579V44.17744a3.68274,3.68274,0,0,1,3.68237-3.683h.00064a3.68274,3.68274,0,0,1,3.68237,3.683v8.17738A3.87137,3.87137,0,0,0,50.14735,49.649Z"/><path d="M57.50087,79.1361l-.13506-.06035c-.47345-.212-11.59543-5.26569-11.59543-11.70161h.66095c0,5.64716,9.7962,10.43747,11.06954,11.03581,1.27334-.59834,11.06938-5.38865,11.06938-11.03581h.661c0,6.43592-11.12183,11.48957-11.59528,11.70161Z"/><path class="cls-2" d="M64.87713,46.11139q-.43816-.53577-.9283-1.026-.48942-.48938-1.026-.9283.53577-.43815,1.026-.92829.48942-.48944.9283-1.026.43815.53576.92829,1.026.48944.48942,1.026.92829-.53576.43816-1.026.9283Q65.31606,45.57477,64.87713,46.11139Z"/><path class="cls-2" d="M57.51222,46.11139q-.43816-.53577-.9283-1.026-.48942-.48938-1.026-.9283.53577-.43815,1.026-.92829.48942-.48944.9283-1.026.43815.53576.92829,1.026.48944.48942,1.026.92829-.53576.43816-1.026.9283Q57.95115,45.57477,57.51222,46.11139Z"/><path class="cls-2" d="M50.14731,46.11139q-.43816-.53577-.9283-1.026-.48942-.48938-1.026-.9283.53577-.43815,1.026-.92829.48942-.48944.9283-1.026.43815.53576.92829,1.026.48944.48942,1.026.92829-.53576.43816-1.026.9283Q50.58624,45.57477,50.14731,46.11139Z"/><path class="cls-2" d="M57.50083,83.50359q-.82369-1.00716-1.74509-1.92882-.92007-.91995-1.92882-1.74509,1.00718-.82367,1.92882-1.74507.92005-.92007,1.74509-1.92882.82366,1.00718,1.74507,1.92882.92009.92006,1.92882,1.74507-1.00716.8237-1.92882,1.74509Q58.326,82.49483,57.50083,83.50359Z"/><rect class="cls-2" x="70.24889" y="45.37087" width="3.97498" height="33.83984" rx="1.98749"/><rect class="cls-1" x="72.07108" y="45.82534" width="0.33048" height="33.02418"/><path class="cls-1" d="M72.23632,79.04541a1.82433,1.82433,0,0,1-1.8223-1.82214V47.35863a1.82231,1.82231,0,1,1,3.64461,0V77.22327A1.82433,1.82433,0,0,1,72.23632,79.04541Zm0-33.17877a1.4936,1.4936,0,0,0-1.49183,1.492V77.22327a1.49183,1.49183,0,0,0,2.98366,0V47.35863A1.4936,1.4936,0,0,0,72.23632,45.86664Z"/><circle class="cls-1" cx="72.23638" cy="44.22642" r="3.68548"/><path d="M72.23665,41.2022a3.02432,3.02432,0,1,1-3.02465,3.024,3.02769,3.02769,0,0,1,3.02465-3.024m0-.66095a3.68528,3.68528,0,1,0,3.685,3.685,3.68508,3.68508,0,0,0-3.685-3.685Z"/><path class="cls-2" d="M72.23639,46.18075q-.43816-.53577-.9283-1.026-.48944-.48936-1.026-.92829.53575-.43815,1.026-.92829.48942-.48944.9283-1.026.43815.53575.92829,1.026.48942.48942,1.026.92829-.53577.43815-1.026.92829Q72.67532,45.64413,72.23639,46.18075Z"/><path class="cls-2" d="M64.85381,128.21014a3.871,3.871,0,0,1,3.683,2.70578v-8.17738a3.68274,3.68274,0,0,0-3.68237-3.683h-.00065a3.68275,3.68275,0,0,0-3.68237,3.683v8.17738A3.87138,3.87138,0,0,1,64.85381,128.21014Z"/><path class="cls-2" d="M57.48778,128.21014a3.87218,3.87218,0,0,1,3.683,2.70578v-8.17738a3.68316,3.68316,0,0,0-3.68237-3.683h-.00065a3.68275,3.68275,0,0,0-3.68237,3.683v8.17738A3.87077,3.87077,0,0,1,57.48778,128.21014Z"/><path class="cls-2" d="M50.12111,128.21014a3.87157,3.87157,0,0,1,3.683,2.70578v-8.17738a3.68274,3.68274,0,0,0-3.68237-3.683h-.00064a3.68274,3.68274,0,0,0-3.68237,3.683v8.17738A3.87136,3.87136,0,0,1,50.12111,128.21014Z"/><path class="cls-2" d="M57.49913,94.70065a4.02034,4.02034,0,0,1,4.01575,4.01575h-.66095a3.35472,3.35472,0,1,0-6.70944,0h-.66095A4.0202,4.0202,0,0,1,57.49913,94.70065Z"/><rect x="57.16865" y="100.67506" width="0.66095" height="7.59549"/><path d="M76.95227,94.57414a1.92994,1.92994,0,1,1,1.92994-1.92994,1.93186,1.93186,0,0,1-1.92994,1.92994m0,.66095a2.59089,2.59089,0,1,0-2.59089-2.59089,2.59119,2.59119,0,0,0,2.59089,2.59089Z"/><path d="M72.23393,92.43765a1.92994,1.92994,0,1,1,1.92994-1.92993,1.93185,1.93185,0,0,1-1.92994,1.92993m0,.661A2.59089,2.59089,0,1,0,69.643,90.50772a2.59078,2.59078,0,0,0,2.59089,2.59089Z"/><rect x="68.56748" y="93.08496" width="7.37076" height="25.36613" rx="3.68538"/><rect x="39.07823" y="93.08496" width="7.37076" height="25.36613" rx="3.68538"/><circle cx="50.06233" cy="109.96498" r="1.48006"/><circle cx="64.93603" cy="109.96498" r="1.48006"/><path d="M50.12227,117.351a3.87159,3.87159,0,0,0,3.683-2.70579v8.17738a3.68275,3.68275,0,0,1-3.68237,3.683h-.00065a3.68275,3.68275,0,0,1-3.68237-3.683v-8.17738A3.87139,3.87139,0,0,0,50.12227,117.351Z"/><path d="M57.48731,117.351a3.87219,3.87219,0,0,0,3.683-2.70579v8.17738a3.68316,3.68316,0,0,1-3.68237,3.683h-.00065a3.68275,3.68275,0,0,1-3.68237-3.683v-8.17738A3.87078,3.87078,0,0,0,57.48731,117.351Z"/><path d="M64.85265,117.351a3.871,3.871,0,0,0,3.683-2.70579v8.17738a3.68274,3.68274,0,0,1-3.68237,3.683h-.00064a3.68274,3.68274,0,0,1-3.68237-3.683v-8.17738A3.87137,3.87137,0,0,0,64.85265,117.351Z"/><path d="M57.49913,87.8639l.13506.06035c.47345.212,11.59543,5.26569,11.59543,11.70161h-.66095c0-5.64716-9.7962-10.43747-11.06954-11.03581-1.27334.59834-11.06938,5.38865-11.06938,11.03581h-.661c0-6.43592,11.12183-11.48957,11.59528-11.70161Z"/><path class="cls-2" d="M50.12287,120.88861q.43817.53577.9283,1.026.48942.48937,1.026.9283-.53577.43815-1.026.92829-.48942.48944-.9283,1.026-.43815-.53575-.92829-1.026-.48944-.48942-1.026-.92829.53575-.43816,1.026-.9283Q49.68394,121.42523,50.12287,120.88861Z"/><path class="cls-2" d="M57.48778,120.88861q.43816.53577.9283,1.026.48942.48937,1.026.9283-.53577.43815-1.026.92829-.48942.48944-.9283,1.026-.43815-.53575-.92829-1.026-.48944-.48942-1.026-.92829.53576-.43816,1.026-.9283Q57.04885,121.42523,57.48778,120.88861Z"/><path class="cls-2" d="M64.85269,120.88861q.43817.53577.9283,1.026.48942.48937,1.026.9283-.53577.43815-1.026.92829-.48942.48944-.9283,1.026-.43815-.53575-.92829-1.026-.48944-.48942-1.026-.92829.53576-.43816,1.026-.9283Q64.41376,121.42523,64.85269,120.88861Z"/><path class="cls-2" d="M57.49917,83.49641q.82369,1.00716,1.74509,1.92882.92007.92,1.92882,1.74509-1.00718.82367-1.92882,1.74507-.92005.92007-1.74509,1.92882-.82366-1.00718-1.74507-1.92882-.92009-.92006-1.92882-1.74507,1.00716-.8237,1.92882-1.74509Q56.674,84.50518,57.49917,83.49641Z"/><rect class="cls-2" x="40.77613" y="87.78929" width="3.97498" height="33.83984" rx="1.98749"/><rect class="cls-1" x="42.59844" y="88.15049" width="0.33048" height="33.02418"/><path class="cls-1" d="M42.76368,87.95459a1.82433,1.82433,0,0,1,1.8223,1.82214v29.86464a1.82231,1.82231,0,1,1-3.64461,0V89.77673A1.82433,1.82433,0,0,1,42.76368,87.95459Zm0,33.17877a1.4936,1.4936,0,0,0,1.49183-1.492V89.77673a1.49183,1.49183,0,0,0-2.98366,0v29.86464A1.4936,1.4936,0,0,0,42.76368,121.13336Z"/><circle class="cls-1" cx="42.76362" cy="122.77358" r="3.68548"/><path d="M42.76335,125.7978a3.02432,3.02432,0,1,1,3.02465-3.024,3.02769,3.02769,0,0,1-3.02465,3.024m0,.66095a3.68528,3.68528,0,1,0-3.685-3.685,3.68508,3.68508,0,0,0,3.685,3.685Z"/><path class="cls-2" d="M42.76361,120.81925q.43816.53577.9283,1.026.48944.48936,1.026.92829-.53575.43815-1.026.92829-.48942.48944-.9283,1.026-.43815-.53576-.92829-1.026-.48942-.48942-1.026-.92829.53577-.43815,1.026-.92829Q42.32468,121.35587,42.76361,120.81925Z"/></g></svg>