<svg xmlns="http://www.w3.org/2000/svg" viewBox="0 0 87 127"><defs><style>.cls-1{fill:#fff;}</style></defs><title>card-spades-3</title><g id="artwork"><rect class="cls-1" x="-0.00463" width="87" height="127" rx="6"/><path d="M15.25445,29.67252c-.41271-1.29958-1.61361-2.02692-2.55447-2.91268a8.29056,8.29056,0,0,1-1.70579-2.279,8.29032,8.29032,0,0,1-1.70578,2.279c-.94087.88576-2.14174,1.6131-2.55445,2.91268a2.73473,2.73473,0,0,0,1.4184,3.38817,1.97636,1.97636,0,0,0,2.29773-.48933,1.58035,1.58035,0,0,0,.28944-.568,2.48372,2.48372,0,0,1-.40856,1.50152,2.44748,2.44748,0,0,1-.66316.66456v.33238h2.65277v-.33238a2.44776,2.44776,0,0,1-.6632-.66456,2.48371,2.48371,0,0,1-.40854-1.50159,1.58052,1.58052,0,0,0,.28945.56807,1.97635,1.97635,0,0,0,2.29773.48933A2.73476,2.73476,0,0,0,15.25445,29.67252Z"/><path d="M8.00171,18.72005l-.49612-.112.11182-1.01042a14.81731,14.81731,0,0,0,2.88.38509,3.48186,3.48186,0,0,0,1.93614-.46533,1.79291,1.79291,0,0,0,.70414-1.61912q0-1.9237-2.1759-1.988h-2.128V12.8518h2.128a1.81952,1.81952,0,0,0,.90386-.24807,2.06816,2.06816,0,0,0,.72806-.69776,1.83193,1.83193,0,0,0,.2881-1.00992,1.51837,1.51837,0,0,0-.50393-1.27514,2.73023,2.73023,0,0,0-1.65634-.39242,13.35974,13.35974,0,0,0-2.52845.24025l-.416.08025-.11134-.97813a11.15153,11.15153,0,0,1,3.23162-.44918,3.78754,3.78754,0,0,1,2.4806.65763,2.62218,2.62218,0,0,1,.76762,2.10059,2.64456,2.64456,0,0,1-.416,1.443,2.42451,2.42451,0,0,1-1.15191.962,4.08468,4.08468,0,0,1,1.04009.52943,1.79273,1.79273,0,0,1,.584.777,3.36478,3.36478,0,0,1,.19972,1.259,3.15628,3.15628,0,0,1-.83208,2.41277,3.69407,3.69407,0,0,1-2.59194.778A15.19561,15.19561,0,0,1,8.00171,18.72005Z"/><path d="M71.73758,97.328c.41271,1.29959,1.61361,2.02693,2.55447,2.91269a8.29026,8.29026,0,0,1,1.70579,2.279,8.29046,8.29046,0,0,1,1.70579-2.279c.94086-.88576,2.14173-1.6131,2.55444-2.91269a2.7347,2.7347,0,0,0-1.4184-3.38816,1.97636,1.97636,0,0,0-2.29773.48933,1.58033,1.58033,0,0,0-.28943.568,2.48371,2.48371,0,0,1,.40855-1.50152,2.44762,2.44762,0,0,1,.66316-.66456v-.33239H74.67146v.33239a2.44759,2.44759,0,0,1,.66319.66456,2.48378,2.48378,0,0,1,.40855,1.50159,1.58055,1.58055,0,0,0-.28946-.56807,1.97635,1.97635,0,0,0-2.29773-.48933A2.73476,2.73476,0,0,0,71.73758,97.328Z"/><path d="M78.98987,108.28069l.49612.11157-.11231,1.0109a14.76271,14.76271,0,0,0-2.88-.38459,3.48374,3.48374,0,0,0-1.93662.46484,1.79387,1.79387,0,0,0-.70317,1.6196q0,1.923,2.1759,1.98756h2.128v1.05788h-2.128a1.81915,1.81915,0,0,0-.90434.24857,2.07791,2.07791,0,0,0-.72856.69775,1.83525,1.83525,0,0,0-.28712,1.00993,1.51835,1.51835,0,0,0,.50393,1.27513,2.72915,2.72915,0,0,0,1.65634.39243,13.38959,13.38959,0,0,0,2.52748-.23976l.416-.08025.11231.97763a11.17462,11.17462,0,0,1-3.23259.44919,3.78539,3.78539,0,0,1-2.47962-.65763,2.62209,2.62209,0,0,1-.7686-2.1001,2.65331,2.65331,0,0,1,.416-1.44346,2.43533,2.43533,0,0,1,1.1524-.962,4.06873,4.06873,0,0,1-1.04009-.52943,1.80028,1.80028,0,0,1-.584-.777,3.37314,3.37314,0,0,1-.2002-1.25947,3.15439,3.15439,0,0,1,.83207-2.41228,3.69485,3.69485,0,0,1,2.59194-.778A15.20179,15.20179,0,0,1,78.98987,108.28069Z"/><path d="M49.88574,21.68361c-.61906-1.94938-2.42041-3.04039-3.8317-4.369a12.43542,12.43542,0,0,1-2.55868-3.41851,12.43542,12.43542,0,0,1-2.55868,3.41851c-1.4113,1.32864-3.2126,2.41965-3.83167,4.369a4.10208,4.10208,0,0,0,2.1276,5.08225,2.96456,2.96456,0,0,0,3.4466-.734,2.37051,2.37051,0,0,0,.43415-.852,3.72562,3.72562,0,0,1-.61283,2.25228,3.67139,3.67139,0,0,1-.99475.99684v.49858h3.97915V28.429a3.6715,3.6715,0,0,1-.99478-.99684,3.72554,3.72554,0,0,1-.61283-2.25239,2.37084,2.37084,0,0,0,.43419.85211,2.96454,2.96454,0,0,0,3.4466.734A4.10213,4.10213,0,0,0,49.88574,21.68361Z"/><path d="M37.105,105.31639c.61906,1.94938,2.42041,3.04039,3.8317,4.369a12.43523,12.43523,0,0,1,2.55868,3.41851,12.43546,12.43546,0,0,1,2.55869-3.41851c1.41129-1.32864,3.2126-2.41965,3.83166-4.369a4.10208,4.10208,0,0,0-2.1276-5.08225,2.96455,2.96455,0,0,0-3.44659.734,2.37053,2.37053,0,0,0-.43416.852,3.72556,3.72556,0,0,1,.61284-2.25228A3.6715,3.6715,0,0,1,45.485,98.571v-.49858H41.5058V98.571a3.67168,3.67168,0,0,1,.99479.99684,3.7256,3.7256,0,0,1,.61282,2.25239,2.37066,2.37066,0,0,0-.43418-.85211,2.96454,2.96454,0,0,0-3.4466-.734A4.10213,4.10213,0,0,0,37.105,105.31639Z"/><path d="M49.88574,63.77179c-.61906-1.94938-2.42041-3.04039-3.8317-4.369a12.43538,12.43538,0,0,1-2.55868-3.4185,12.43538,12.43538,0,0,1-2.55868,3.4185c-1.4113,1.32864-3.2126,2.41965-3.83167,4.369a4.10208,4.10208,0,0,0,2.1276,5.08225,2.96456,2.96456,0,0,0,3.4466-.734,2.37051,2.37051,0,0,0,.43415-.852,3.72561,3.72561,0,0,1-.61283,2.25227,3.67129,3.67129,0,0,1-.99475.99685v.49857h3.97915v-.49857a3.6714,3.6714,0,0,1-.99478-.99685,3.72552,3.72552,0,0,1-.61283-2.25239,2.3708,2.3708,0,0,0,.43419.85212,2.96453,2.96453,0,0,0,3.4466.734A4.10212,4.10212,0,0,0,49.88574,63.77179Z"/></g></svg>