<svg xmlns="http://www.w3.org/2000/svg" viewBox="0 0 87 127"><defs><style>.cls-1{fill:#fff;}</style></defs><title>card-clubs-7</title><g id="artwork"><rect class="cls-1" width="87" height="127" rx="6"/><path d="M9.06958,18.67224l3.98459-8.83491V9.42044H7.74139V8.298h6.5609V9.91758L10.23762,19.0402Z"/><path d="M16.21242,30.20634A2.22669,2.22669,0,0,0,14.01594,28.564a2.06832,2.06832,0,0,0-.96648.28782c-.15626.09338-.45.27537-.58478.04607-.122-.20768.10075-.40145.23408-.52944a2.21559,2.21559,0,0,0,.63771-1.18859,2.33122,2.33122,0,0,0-1.04827-2.36158,2.43447,2.43447,0,0,0-2.59585,0,2.33117,2.33117,0,0,0-1.04826,2.36158,2.2155,2.2155,0,0,0,.63769,1.18859c.13334.128.35612.32176.23409.52944-.13481.2293-.42853.04731-.58479-.04607a2.06833,2.06833,0,0,0-.96649-.28782,2.22669,2.22669,0,0,0-2.19647,1.64234,2.40937,2.40937,0,0,0,1.12963,2.69738,2.44063,2.44063,0,0,0,3.57359-1.50665h.19878a2.68911,2.68911,0,0,1-.39757,1.98855,2.64831,2.64831,0,0,1-.71761.71913v.35967h2.87065v-.35967a2.64869,2.64869,0,0,1-.7176-.71913,2.68916,2.68916,0,0,1-.39757-1.98855h.19879a2.44061,2.44061,0,0,0,3.57358,1.50665A2.40939,2.40939,0,0,0,16.21242,30.20634Z"/><path d="M77.93165,108.32879,73.948,117.1637v.41689h5.31181v1.12149H72.69993v-1.61862l4.06369-9.12361Z"/><path d="M70.78758,96.77755a2.22669,2.22669,0,0,0,2.19648,1.64234,2.06832,2.06832,0,0,0,.96648-.28782c.15626-.09338.45-.27537.58478-.04607.122.20768-.10075.40145-.23408.52944a2.21556,2.21556,0,0,0-.63771,1.18859,2.33122,2.33122,0,0,0,1.04827,2.36158,2.43447,2.43447,0,0,0,2.59585,0A2.33117,2.33117,0,0,0,78.35591,99.804a2.21546,2.21546,0,0,0-.63769-1.18859c-.13334-.128-.35612-.32176-.23409-.52944.13481-.2293.42853-.04731.58479.04607a2.06833,2.06833,0,0,0,.96649.28782,2.22669,2.22669,0,0,0,2.19647-1.64234,2.40937,2.40937,0,0,0-1.12963-2.69738,2.44063,2.44063,0,0,0-3.57359,1.50665h-.19878a2.6891,2.6891,0,0,1,.39757-1.98855,2.64831,2.64831,0,0,1,.71761-.71913v-.35967H74.57441v.35967a2.64869,2.64869,0,0,1,.7176.71913,2.68915,2.68915,0,0,1,.39757,1.98855h-.19879a2.44061,2.44061,0,0,0-3.57358-1.50665A2.40939,2.40939,0,0,0,70.78758,96.77755Z"/><path d="M35.33236,22.59292a3.34,3.34,0,0,0-3.29471-2.4635,3.10235,3.10235,0,0,0-1.44973.43173c-.23439.14006-.675.413-.87716.0691-.18307-.31153.15112-.60218.35111-.79417a3.3233,3.3233,0,0,0,.95656-1.78288A3.4968,3.4968,0,0,0,29.446,14.51083a3.65176,3.65176,0,0,0-3.89379,0,3.4968,3.4968,0,0,0-1.57239,3.54237,3.32334,3.32334,0,0,0,.95654,1.78288c.2.192.53418.48264.35113.79417-.20221.34395-.64279.071-.87717-.0691a3.10228,3.10228,0,0,0-1.44974-.43173,3.34,3.34,0,0,0-3.29471,2.4635A3.61409,3.61409,0,0,0,21.36036,26.639a3.66092,3.66092,0,0,0,5.36038-2.26h.29817a4.0337,4.0337,0,0,1-.59635,2.98283,3.97257,3.97257,0,0,1-1.07641,1.07869V28.98h4.306v-.5395a3.97285,3.97285,0,0,1-1.07641-1.07869,4.03375,4.03375,0,0,1-.59635-2.98283h.29818a3.6609,3.6609,0,0,0,5.36036,2.26A3.61406,3.61406,0,0,0,35.33236,22.59292Z"/><path d="M19.66591,104.355a3.34,3.34,0,0,0,3.29471,2.4635,3.10231,3.10231,0,0,0,1.44973-.43173c.23439-.14006.675-.413.87716-.0691.18308.31152-.15111.60217-.35111.79417a3.32324,3.32324,0,0,0-.95656,1.78287,3.49684,3.49684,0,0,0,1.57239,3.54238,3.65176,3.65176,0,0,0,3.89379,0,3.49679,3.49679,0,0,0,1.57239-3.54238,3.32321,3.32321,0,0,0-.95654-1.78287c-.2-.192-.53418-.48265-.35113-.79417.20221-.344.64279-.071.87718.0691a3.10224,3.10224,0,0,0,1.44973.43173,3.34,3.34,0,0,0,3.29471-2.4635,3.61407,3.61407,0,0,0-1.69445-4.04607,3.66092,3.66092,0,0,0-5.36038,2.26h-.29816a4.03366,4.03366,0,0,1,.59635-2.98283,3.97211,3.97211,0,0,1,1.0764-1.07869v-.53951h-4.306v.53951a3.97285,3.97285,0,0,1,1.07641,1.07869,4.03379,4.03379,0,0,1,.59635,2.98283h-.29819a3.66089,3.66089,0,0,0-5.36036-2.26A3.61407,3.61407,0,0,0,19.66591,104.355Z"/><path d="M67.33409,22.59292a3.34,3.34,0,0,0-3.29471-2.4635,3.10231,3.10231,0,0,0-1.44973.43173c-.23439.14006-.675.413-.87716.0691-.18308-.31153.15111-.60218.35111-.79417a3.3233,3.3233,0,0,0,.95656-1.78288,3.49682,3.49682,0,0,0-1.57239-3.54237,3.65176,3.65176,0,0,0-3.89379,0,3.49677,3.49677,0,0,0-1.57239,3.54237,3.32327,3.32327,0,0,0,.95654,1.78288c.2.192.53418.48264.35113.79417-.20221.34395-.64279.071-.87718-.0691a3.10224,3.10224,0,0,0-1.44973-.43173,3.34,3.34,0,0,0-3.29471,2.4635A3.61407,3.61407,0,0,0,53.36209,26.639a3.66092,3.66092,0,0,0,5.36038-2.26h.29816a4.03366,4.03366,0,0,1-.59635,2.98283,3.97239,3.97239,0,0,1-1.0764,1.07869V28.98h4.306v-.5395a3.97313,3.97313,0,0,1-1.07641-1.07869,4.03379,4.03379,0,0,1-.59635-2.98283h.29819a3.66089,3.66089,0,0,0,5.36036,2.26A3.61407,3.61407,0,0,0,67.33409,22.59292Z"/><path d="M51.66764,104.355a3.34,3.34,0,0,0,3.29471,2.4635,3.10235,3.10235,0,0,0,1.44973-.43173c.23439-.14006.675-.413.87716-.0691.18307.31152-.15112.60217-.35111.79417a3.32324,3.32324,0,0,0-.95656,1.78287,3.49682,3.49682,0,0,0,1.57239,3.54238,3.65176,3.65176,0,0,0,3.89379,0,3.49682,3.49682,0,0,0,1.57239-3.54238,3.32327,3.32327,0,0,0-.95654-1.78287c-.2-.192-.53418-.48265-.35113-.79417.20221-.344.64279-.071.87717.0691a3.10228,3.10228,0,0,0,1.44974.43173,3.34,3.34,0,0,0,3.29471-2.4635,3.61408,3.61408,0,0,0-1.69445-4.04607,3.66092,3.66092,0,0,0-5.36038,2.26h-.29817a4.0337,4.0337,0,0,1,.59635-2.98283,3.97229,3.97229,0,0,1,1.07641-1.07869v-.53951h-4.306v.53951a3.97257,3.97257,0,0,1,1.07641,1.07869,4.03375,4.03375,0,0,1,.59635,2.98283h-.29818a3.6609,3.6609,0,0,0-5.36036-2.26A3.61405,3.61405,0,0,0,51.66764,104.355Z"/><path d="M35.33236,64.62862a3.34,3.34,0,0,0-3.29471-2.4635,3.10235,3.10235,0,0,0-1.44973.43173c-.23439.14006-.675.413-.87716.0691-.18307-.31153.15112-.60218.35111-.79417a3.3233,3.3233,0,0,0,.95656-1.78288A3.4968,3.4968,0,0,0,29.446,56.54653a3.65176,3.65176,0,0,0-3.89379,0,3.4968,3.4968,0,0,0-1.57239,3.54237,3.32334,3.32334,0,0,0,.95654,1.78288c.2.192.53418.48264.35113.79417-.20221.34395-.64279.071-.87717-.0691a3.10228,3.10228,0,0,0-1.44974-.43173,3.34,3.34,0,0,0-3.29471,2.4635,3.61409,3.61409,0,0,0,1.69445,4.04607,3.66092,3.66092,0,0,0,5.36038-2.26h.29817a4.03367,4.03367,0,0,1-.59635,2.98282,3.97246,3.97246,0,0,1-1.07641,1.0787v.5395h4.306v-.5395a3.97274,3.97274,0,0,1-1.07641-1.0787,4.03371,4.03371,0,0,1-.59635-2.98282h.29818a3.6609,3.6609,0,0,0,5.36036,2.26A3.61406,3.61406,0,0,0,35.33236,64.62862Z"/><path d="M67.33409,64.62862a3.34,3.34,0,0,0-3.29471-2.4635,3.10231,3.10231,0,0,0-1.44973.43173c-.23439.14006-.675.413-.87716.0691-.18308-.31153.15111-.60218.35111-.79417a3.3233,3.3233,0,0,0,.95656-1.78288,3.49682,3.49682,0,0,0-1.57239-3.54237,3.65176,3.65176,0,0,0-3.89379,0,3.49677,3.49677,0,0,0-1.57239,3.54237,3.32327,3.32327,0,0,0,.95654,1.78288c.2.192.53418.48264.35113.79417-.20221.34395-.64279.071-.87718-.0691a3.10224,3.10224,0,0,0-1.44973-.43173,3.34,3.34,0,0,0-3.29471,2.4635,3.61407,3.61407,0,0,0,1.69445,4.04607,3.66092,3.66092,0,0,0,5.36038-2.26h.29816a4.03362,4.03362,0,0,1-.59635,2.98282,3.97229,3.97229,0,0,1-1.0764,1.0787v.5395h4.306v-.5395a3.973,3.973,0,0,1-1.07641-1.0787,4.03376,4.03376,0,0,1-.59635-2.98282h.29819a3.66089,3.66089,0,0,0,5.36036,2.26A3.61407,3.61407,0,0,0,67.33409,64.62862Z"/><path d="M51.33281,43.58453a3.3399,3.3399,0,0,0-3.29454-2.4635,3.102,3.102,0,0,0-1.44965.43172c-.23438.14006-.67493.413-.87712.06911-.18306-.31153.15111-.60218.3511-.79417a3.32342,3.32342,0,0,0,.95651-1.78288,3.49688,3.49688,0,0,0-1.57231-3.54237,3.65134,3.65134,0,0,0-3.89358,0,3.49687,3.49687,0,0,0-1.57231,3.54237,3.32333,3.32333,0,0,0,.95649,1.78288c.2.192.53415.48264.35111.79417-.2022.34394-.64275.071-.87713-.06911a3.102,3.102,0,0,0-1.44965-.43172,3.33989,3.33989,0,0,0-3.29454,2.4635,3.61416,3.61416,0,0,0,1.69436,4.04607,3.66068,3.66068,0,0,0,5.3601-2.26h.29815a4.03386,4.03386,0,0,1-.59632,2.98283,3.97224,3.97224,0,0,1-1.07635,1.0787v.5395h4.30575v-.5395a3.9727,3.9727,0,0,1-1.07636-1.0787,4.034,4.034,0,0,1-.59632-2.98283h.29817a3.66065,3.66065,0,0,0,5.36008,2.26A3.61416,3.61416,0,0,0,51.33281,43.58453Z"/></g></svg>