<svg xmlns="http://www.w3.org/2000/svg" viewBox="0 0 87 127"><defs><style>.cls-1{fill:#fff;}.cls-2{fill:#ff3b5c;}</style></defs><title>card-diamonds-k</title><g id="artwork"><rect class="cls-1" x="0.00232" width="86.99536" height="127" rx="6"/><path class="cls-2" d="M10.87333,13.9739l-1.83984.06361v4.84217H7.802V7.78515H9.03349v5.16218l1.82421-.06361,2.832-5.09857h1.4082L11.93,13.36422l3.34375,5.51546H13.81767Z"/><path class="cls-2" d="M76.06767,113.0261l1.83984-.06459v-4.84217h1.23144v11.09551H77.90751v-5.16316l-1.82422.06459-2.832,5.09857h-1.4082l3.168-5.58-3.34375-5.51546h1.45606Z"/><path class="cls-2" d="M10.99413,34.49163q-1.121-1.3736-2.375-2.63054-1.25217-1.25464-2.625-2.38,1.37071-1.12332,2.625-2.37994,1.25214-1.25481,2.375-2.63054,1.121,1.37358,2.375,2.63054,1.25219,1.25476,2.625,2.37994-1.3707,1.12335-2.625,2.38Q12.11711,33.11586,10.99413,34.49163Z"/><path class="cls-2" d="M76.0059,102.47239q-1.121-1.37358-2.375-2.63054-1.25218-1.25464-2.625-2.38,1.3707-1.12332,2.625-2.37994,1.25214-1.25481,2.375-2.63054,1.121,1.37358,2.375,2.63054,1.25217,1.25477,2.625,2.37994-1.37071,1.12337-2.625,2.38Q77.12889,101.09662,76.0059,102.47239Z"/><path class="cls-2" d="M35.62746,56.03757a2.9092,2.9092,0,0,1-2.90577-2.906h.5a2.40577,2.40577,0,1,0,4.81153,0h.5A2.9092,2.9092,0,0,1,35.62746,56.03757Z"/><path d="M34.96815,60.99387l-.20434-.45654c.09228-.04126,9.22827-4.19141,9.22827-9.14795h.5C44.49208,56.66892,35.35707,60.81955,34.96815,60.99387Z"/><path d="M35.50757,32.63792A2.92926,2.92926,0,0,0,38.29371,30.591v6.186a2.78624,2.78624,0,0,1-2.78565,2.78613h-.00049a2.78593,2.78593,0,0,1-2.78564-2.78613V30.591A2.92816,2.92816,0,0,0,35.50757,32.63792Z"/><path d="M41.0725,32.63792A2.92834,2.92834,0,0,0,43.85864,30.591v6.186A2.78593,2.78593,0,0,1,41.073,39.56321H41.0725a2.78593,2.78593,0,0,1-2.78564-2.78613V30.591A2.92862,2.92862,0,0,0,41.0725,32.63792Z"/><rect x="38.87746" y="43.12214" width="5.29602" height="0.49981" transform="translate(-8.14983 9.63982) rotate(-12.06739)"/><path d="M42.54506,43.38857a1.11964,1.11964,0,0,1-2.19261.45482S41.73333,43.55754,42.54506,43.38857Z"/><path class="cls-2" d="M38.28386,28.28582q-.62508.76431-1.32429,1.46372-.69822.69813-1.46372,1.32429.76431.625,1.46372,1.32428.69819.6982,1.32429,1.46371.62505-.76429,1.32428-1.46371.69821-.69819,1.46371-1.32428-.76431-.62507-1.46371-1.32429Q38.91,29.05135,38.28386,28.28582Z"/><path class="cls-2" d="M38.28386,25.50641q-.31323.383-.66359.73345-.34987.34981-.73346.66359.383.3132.73346.66358.34986.34986.66359.73345.3132-.383.66358-.73345.34986-.34986.73345-.66358-.383-.31321-.73345-.66359Q38.59763,25.89,38.28386,25.50641Z"/><rect class="cls-2" x="43.88627" y="30.80864" width="5.57585" height="29.18901" rx="2.78792"/><rect class="cls-2" x="49.46253" y="34.0113" width="5.57585" height="19.18901" rx="2.78792" transform="translate(104.5009 87.2116) rotate(180)"/><path class="cls-2" d="M34.7685,63.49357q.62311-.76191,1.32013-1.45912.696-.69592,1.45912-1.32012-.76191-.62308-1.45912-1.32012-.696-.696-1.32013-1.45911-.62309.7619-1.32011,1.45911-.696.696-1.45911,1.32012.7619.6231,1.45911,1.32012Q34.1443,62.73045,34.7685,63.49357Z"/><path d="M33.9286,50.917a1.20521,1.20521,0,0,1-1.20385-1.20386v-13.053h.5v13.053a.70392.70392,0,0,0,1.40783,0v-2.053h.5v2.053A1.20531,1.20531,0,0,1,33.9286,50.917Z"/><path class="cls-1" d="M49.4773,43.49437a2.79851,2.79851,0,0,1,2.71361-2.23649,2.79831,2.79831,0,0,0,0-1.12033,2.79818,2.79818,0,0,1-2.71361-2.23649c-.01024,0-.01952-.00288-.02944-.00288a2.79954,2.79954,0,1,0,0,5.59907C49.45778,43.49725,49.46706,43.49469,49.4773,43.49437Z"/><rect x="50.70773" y="37.89436" width="3.007" height="25.59921" rx="1.5035"/><rect class="cls-1" x="52.0862" y="40.69968" width="0.25" height="22.52075"/><path class="cls-2" d="M52.21123,39.93035q.172.21038.36449.40287.19218.19215.40287.3645-.21036.172-.40287.36449-.19216.19216-.36449.40286-.172-.21036-.36449-.40286-.19218-.19218-.40287-.36449.21036-.172.40287-.3645Q52.03888,40.14105,52.21123,39.93035Z"/><path class="cls-2" d="M49.34939,39.33938q.30454.37237.64521.71313.34017.34014.71313.64521-.37237.30453-.71313.64519-.34017.34018-.64521.71314-.30453-.37237-.64519-.71314-.34017-.34016-.71313-.64519.37237-.30454.71313-.64521Q49.04431,39.71236,49.34939,39.33938Z"/><path class="cls-1" d="M52.2112,63.36863A1.38013,1.38013,0,0,1,50.83266,61.99v-22.592a1.37854,1.37854,0,0,1,2.75708,0V61.99A1.38013,1.38013,0,0,1,52.2112,63.36863Zm0-25.09913a1.12967,1.12967,0,0,0-1.12854,1.12842V61.99a1.12854,1.12854,0,1,0,2.25708,0v-22.592A1.12968,1.12968,0,0,0,52.2112,38.2695Z"/><path class="cls-2" d="M51.37254,70.96243a2.9092,2.9092,0,0,1,2.90577,2.906h-.5a2.40577,2.40577,0,1,0-4.81153,0h-.5A2.9092,2.9092,0,0,1,51.37254,70.96243Z"/><path d="M52.03185,66.00613l.20434.45654c-.09228.04126-9.22827,4.19141-9.22827,9.14795h-.5C42.50792,70.33108,51.64293,66.18045,52.03185,66.00613Z"/><path d="M51.49243,94.36208A2.92926,2.92926,0,0,0,48.70629,96.409v-6.186a2.78624,2.78624,0,0,1,2.78565-2.78613h.00049a2.78593,2.78593,0,0,1,2.78564,2.78613v6.186A2.92816,2.92816,0,0,0,51.49243,94.36208Z"/><path d="M45.9275,94.36208A2.92834,2.92834,0,0,0,43.14136,96.409v-6.186A2.78593,2.78593,0,0,1,45.927,87.43679h.00049a2.78593,2.78593,0,0,1,2.78564,2.78613v6.186A2.92862,2.92862,0,0,0,45.9275,94.36208Z"/><rect x="42.82653" y="83.37805" width="5.29602" height="0.49981" transform="translate(-16.47855 11.35498) rotate(-12.06739)"/><path d="M44.45494,83.61143a1.11964,1.11964,0,0,1,2.19261-.45482S45.26667,83.44246,44.45494,83.61143Z"/><path class="cls-2" d="M48.71614,98.71418q.62508-.76431,1.32429-1.46372.69822-.69813,1.46372-1.32429-.76431-.62505-1.46372-1.32428-.69819-.69821-1.32429-1.46371-.62505.7643-1.32428,1.46371-.69821.69819-1.46371,1.32428.76431.62506,1.46371,1.32429Q48.09,97.94865,48.71614,98.71418Z"/><path class="cls-2" d="M48.71614,101.49359q.31323-.383.66359-.73345.34987-.34982.73346-.66359-.383-.3132-.73346-.66358-.34986-.34986-.66359-.73345-.3132.383-.66358.73345-.34986.34986-.73345.66358.383.31321.73345.66359Q48.40238,101.11,48.71614,101.49359Z"/><rect class="cls-2" x="37.53789" y="67.00235" width="5.57585" height="29.18901" rx="2.78792" transform="translate(80.65162 163.19371) rotate(180)"/><rect class="cls-2" x="31.96163" y="73.7997" width="5.57585" height="19.18901" rx="2.78792"/><path class="cls-2" d="M52.2315,63.50643q-.62311.76191-1.32013,1.45912-.696.69593-1.45912,1.32012.76191.62309,1.45912,1.32012.696.696,1.32013,1.45911.62309-.76189,1.32011-1.45911.696-.696,1.45911-1.32012-.7619-.6231-1.45911-1.32012Q52.8557,64.26955,52.2315,63.50643Z"/><path d="M53.0714,76.083a1.20521,1.20521,0,0,1,1.20385,1.20386v13.053h-.5v-13.053a.70392.70392,0,0,0-1.40783,0v2.053h-.5v-2.053A1.20531,1.20531,0,0,1,53.0714,76.083Z"/><path class="cls-1" d="M37.5227,83.50563a2.79851,2.79851,0,0,1-2.71361,2.23649,2.79831,2.79831,0,0,0,0,1.12033,2.79818,2.79818,0,0,1,2.71361,2.23649c.01024,0,.01952.00288.02944.00288a2.79954,2.79954,0,1,0,0-5.59907C37.54222,83.50275,37.53294,83.50531,37.5227,83.50563Z"/><rect x="33.28527" y="63.50643" width="3.007" height="25.59921" rx="1.5035" transform="translate(69.57754 152.61207) rotate(-180)"/><rect class="cls-1" x="34.6638" y="63.77957" width="0.25" height="22.52075"/><path class="cls-2" d="M34.78877,87.06965q-.172-.21037-.36449-.40287-.19218-.19215-.40287-.3645.21036-.172.40287-.36449.19216-.19217.36449-.40286.172.21036.36449.40286.19218.19218.40287.36449-.21036.172-.40287.3645Q34.96113,86.85895,34.78877,87.06965Z"/><path class="cls-2" d="M37.65061,87.66062q-.30454-.37238-.64521-.71313-.34017-.34014-.71313-.64521.37237-.30453.71313-.64519.34017-.34018.64521-.71314.30453.37238.64519.71314.34017.34015.71313.64519-.37237.30454-.71313.64521Q37.95569,87.28765,37.65061,87.66062Z"/><path class="cls-1" d="M34.7888,63.63137A1.38013,1.38013,0,0,1,36.16734,65.01v22.592a1.37854,1.37854,0,0,1-2.75708,0V65.01A1.38013,1.38013,0,0,1,34.7888,63.63137Zm0,25.09913a1.12967,1.12967,0,0,0,1.12854-1.12842V65.01a1.12854,1.12854,0,1,0-2.25708,0v22.592A1.12968,1.12968,0,0,0,34.7888,88.7305Z"/></g></svg>