<svg xmlns="http://www.w3.org/2000/svg" viewBox="0 0 87 127"><defs><style>.cls-1{fill:#fff;}</style></defs><title>card-clubs-a</title><g id="artwork"><rect class="cls-1" x="0.04788" width="87" height="127" rx="6"/><path d="M51.38111,64.62862a3.34005,3.34005,0,0,0-3.29471-2.4635,3.10238,3.10238,0,0,0-1.44974.43173c-.23438.14006-.675.413-.87715.0691-.18308-.31153.15111-.60218.35111-.79417a3.3233,3.3233,0,0,0,.95656-1.78288,3.49683,3.49683,0,0,0-1.57239-3.54237,3.65176,3.65176,0,0,0-3.89379,0,3.49677,3.49677,0,0,0-1.57239,3.54237,3.32327,3.32327,0,0,0,.95654,1.78288c.2.192.53418.48264.35113.79417-.20221.34395-.64279.071-.87718-.0691a3.10224,3.10224,0,0,0-1.44973-.43173,3.34,3.34,0,0,0-3.29471,2.4635,3.61407,3.61407,0,0,0,1.69445,4.04607,3.66092,3.66092,0,0,0,5.36038-2.26h.29816a4.03362,4.03362,0,0,1-.59635,2.98282,3.97229,3.97229,0,0,1-1.0764,1.0787v.5395h4.306v-.5395a3.973,3.973,0,0,1-1.07641-1.0787,4.03376,4.03376,0,0,1-.59635-2.98282h.29819a3.66089,3.66089,0,0,0,5.36036,2.26A3.61409,3.61409,0,0,0,51.38111,64.62862Z"/><path d="M13.40636,16.02611H8.67027l-.79985,2.85461H6.65405l3.0402-11.0955h2.68862l3.0402,11.0955H14.2067ZM8.94225,14.92028h4.19261L11.4546,8.8431h-.83208Z"/><path d="M16.2603,30.20636A2.22669,2.22669,0,0,0,14.06383,28.564a2.06828,2.06828,0,0,0-.96649.28782c-.15626.09337-.45.27537-.58477.04607-.122-.20769.10074-.40145.23407-.52945a2.21553,2.21553,0,0,0,.63771-1.18858,2.33121,2.33121,0,0,0-1.04826-2.36158,2.43449,2.43449,0,0,0-2.59586,0A2.33119,2.33119,0,0,0,8.692,27.17989a2.2155,2.2155,0,0,0,.63769,1.18858c.13335.128.35612.32176.23409.52945-.13481.2293-.42853.0473-.58479-.04607a2.06818,2.06818,0,0,0-.96649-.28782A2.22669,2.22669,0,0,0,5.816,30.20636a2.40938,2.40938,0,0,0,1.12963,2.69738,2.44062,2.44062,0,0,0,3.57359-1.50664H10.718a2.68912,2.68912,0,0,1-.39757,1.98855,2.64827,2.64827,0,0,1-.7176.71913v.35967h2.87065v-.35967a2.64859,2.64859,0,0,1-.71761-.71913,2.68917,2.68917,0,0,1-.39757-1.98855h.19879a2.4406,2.4406,0,0,0,3.57358,1.50664A2.40937,2.40937,0,0,0,16.2603,30.20636Z"/><path d="M73.68887,110.974h4.73658l.79985-2.85363h1.21588L77.401,119.21589H74.71334l-3.0402-11.09551H72.889Zm4.46411,1.10681H73.96135l1.67977,6.07621h.83208Z"/><path d="M70.83547,96.77758a2.22669,2.22669,0,0,0,2.19647,1.64233,2.06827,2.06827,0,0,0,.96649-.28781c.15625-.09338.45-.27537.58477-.04607.12205.20768-.10074.40145-.23407.52944a2.21549,2.21549,0,0,0-.63771,1.18859,2.33121,2.33121,0,0,0,1.04826,2.36158,2.43449,2.43449,0,0,0,2.59586,0,2.33119,2.33119,0,0,0,1.04826-2.36158,2.21554,2.21554,0,0,0-.6377-1.18859c-.13334-.128-.35612-.32176-.23408-.52944.1348-.2293.42852-.04731.58478.04607a2.06824,2.06824,0,0,0,.96649.28781,2.22669,2.22669,0,0,0,2.19647-1.64233,2.40937,2.40937,0,0,0-1.12963-2.69738,2.44061,2.44061,0,0,0-3.57359,1.50665h-.19877a2.68906,2.68906,0,0,1,.39757-1.98855,2.648,2.648,0,0,1,.7176-.71913V92.5195H74.62229v.35967a2.64827,2.64827,0,0,1,.7176.71913,2.68915,2.68915,0,0,1,.39757,1.98855h-.19879A2.44059,2.44059,0,0,0,71.9651,94.0802,2.40937,2.40937,0,0,0,70.83547,96.77758Z"/></g></svg>