<svg xmlns="http://www.w3.org/2000/svg" viewBox="0 0 87 127"><defs><style>.cls-1{fill:#fff;}.cls-2{fill:#ff3b5c;}</style></defs><title>card-spades-a</title><g id="artwork"><rect class="cls-1" width="87" height="127" rx="6"/><path d="M15.25968,29.67246c-.41271-1.29959-1.61361-2.02693-2.55447-2.91269a8.29031,8.29031,0,0,1-1.70579-2.279,8.29011,8.29011,0,0,1-1.70579,2.279c-.94086.88576-2.14173,1.6131-2.55444,2.91269a2.73471,2.73471,0,0,0,1.4184,3.38816,1.97636,1.97636,0,0,0,2.29773-.48932,1.58014,1.58014,0,0,0,.28943-.568,2.48367,2.48367,0,0,1-.40855,1.50152,2.44779,2.44779,0,0,1-.66316.66457v.33238H12.3258v-.33238a2.44776,2.44776,0,0,1-.66319-.66457,2.48376,2.48376,0,0,1-.40855-1.50159,1.58051,1.58051,0,0,0,.28946.56808,1.97635,1.97635,0,0,0,2.29773.48932A2.73474,2.73474,0,0,0,15.25968,29.67246Z"/><path d="M13.36593,16.02681H8.62984L7.83,18.88045H6.61361L9.65382,7.78494h2.68862l3.0402,11.09551H14.16626ZM8.90182,14.92h4.19261L11.41416,8.84331h-.83207Z"/><path d="M71.74281,97.328c.41271,1.29959,1.61361,2.02693,2.55447,2.91268a8.29036,8.29036,0,0,1,1.70579,2.279,8.29016,8.29016,0,0,1,1.70579-2.279c.94086-.88575,2.14173-1.61309,2.55444-2.91268a2.73473,2.73473,0,0,0-1.4184-3.38817,1.97638,1.97638,0,0,0-2.29773.48933,1.58035,1.58035,0,0,0-.28944.568,2.48374,2.48374,0,0,1,.40856-1.50151,2.44779,2.44779,0,0,1,.66316-.66457v-.33238H74.67668v.33238a2.4478,2.4478,0,0,1,.6632.66457,2.48367,2.48367,0,0,1,.40854,1.50159,1.58033,1.58033,0,0,0-.28945-.56808,1.97636,1.97636,0,0,0-2.29773-.48933A2.73476,2.73476,0,0,0,71.74281,97.328Z"/><path d="M73.63281,110.97374h4.73658l.79985-2.85364h1.21589l-3.04021,11.09551H74.65728l-3.0402-11.09551H72.833Zm4.46411,1.10681H73.90529l1.67978,6.0762h.83207Z"/><path class="cls-2" d="M43.41589,59.97839a3.40894,3.40894,0,1,1-3.40869,3.40869,3.41276,3.41276,0,0,1,3.40869-3.40869m0-1a4.40894,4.40894,0,1,0,4.40869,4.40869,4.40874,4.40874,0,0,0-4.40869-4.40869Z"/><path class="cls-2" d="M38.99192,53.66788a5.042,5.042,0,0,0,4.409-3.49168v-.00112L43.402,50.174v.00225a5.04188,5.04188,0,0,0,4.40788,3.49168Z"/><path class="cls-2" d="M51.19845,56.13811a5.042,5.042,0,0,0,4.68517,3.11131l.00214-.00069-.00107.00034.00142.00072-.00214.0007a5.04186,5.04186,0,0,0-1.9554,5.27234Z"/><path class="cls-2" d="M41.20757,73.7751a5.042,5.042,0,0,0-5.62055.20109l-.00134.00181.00067-.0009-.00157.00024.00133-.00181a5.04187,5.04187,0,0,0-1.48265-5.42429Z"/><path class="cls-2" d="M35.65074,55.99979A5.04206,5.04206,0,0,1,30.948,59.0845l-.00213-.00071.00106.00036-.00142.00071.00214.00071a5.04185,5.04185,0,0,1,1.92549,5.28333Z"/><path class="cls-2" d="M45.47524,73.81639a5.042,5.042,0,0,1,5.61924.23517l.00132.00182-.00066-.00091.00157.00025-.00132-.00182a5.04184,5.04184,0,0,1,1.51551-5.4152Z"/><path d="M43.38416,74.31262h0a4.70734,4.70734,0,0,1-4.249-2.64966l-.71155-1.44629-1.59008-.23193a4.75582,4.75582,0,0,1-2.62635-8.105l1.15174-1.12647-.272-1.59082a4.7408,4.7408,0,0,1,6.87537-5.00879l1.42188.75,1.42187-.75a4.74085,4.74085,0,0,1,6.87537,5.00879l-.27185,1.59082,1.15161,1.12647a4.75575,4.75575,0,0,1-2.62622,8.105l-1.59021.23193L47.6333,71.663A4.70778,4.70778,0,0,1,43.38416,74.31262ZM39.74561,54.59533a3.76782,3.76782,0,0,0-3.6731,4.39868l.36035,2.10743L34.90637,62.5946A3.75562,3.75562,0,0,0,36.97778,68.995l2.11084.30811.94373,1.91845a3.732,3.732,0,0,0,6.70373,0l.94361-1.91845,2.111-.30811a3.75564,3.75564,0,0,0,2.07129-6.40039l-1.52637-1.49316L50.6958,58.994A3.74112,3.74112,0,0,0,45.27258,55.038l-1.88842.99609L41.49573,55.038A3.74415,3.74415,0,0,0,39.74561,54.59533Z"/><path d="M49.68485,42.41857h.0004a3.13781,3.13781,0,0,1,3.13751,3.1379v4.51747a3.29842,3.29842,0,0,0-3.13791-2.30538H37.14678a3.29877,3.29877,0,0,0-3.1379,2.30538V45.55647a3.13815,3.13815,0,0,1,3.1379-3.1379H49.68485Z"/><path d="M21.69048,62.827l-.00013.00037a3.13782,3.13782,0,0,0,2.0144,3.95382l4.29623,1.3964a3.29842,3.29842,0,0,1-1.22252-3.69685l3.87565-11.924A3.29879,3.29879,0,0,1,33.81655,50.285l-4.29623-1.39639a3.13814,3.13814,0,0,0-3.95419,2.01427h0Z"/><path d="M65.14116,62.827l.00012.00037a3.13782,3.13782,0,0,1-2.01439,3.95382l-4.29623,1.3964a3.29842,3.29842,0,0,0,1.22252-3.69685l-3.87566-11.924A3.29877,3.29877,0,0,0,53.01508,50.285l4.29623-1.39639a3.13814,3.13814,0,0,1,3.95419,2.01427h0Z"/><path d="M50.57161,83.83712l-.00033.00023a3.13781,3.13781,0,0,1-4.3823-.697L43.53586,79.484a3.29841,3.29841,0,0,0,3.89367.023l10.1479-7.36366a3.29879,3.29879,0,0,0,1.18575-3.70881l2.65313,3.65629a3.13815,3.13815,0,0,1-.69681,4.38262h0Z"/><path d="M36.26,83.83712l.00032.00023a3.13781,3.13781,0,0,0,4.3823-.697L43.29578,79.484a3.29843,3.29843,0,0,1-3.89368.023L29.2542,72.14336a3.29879,3.29879,0,0,1-1.18575-3.70881l-2.65313,3.65629a3.13816,3.13816,0,0,0,.69681,4.38262h0Z"/><path class="cls-2" d="M37.84519,87.56844a6.44464,6.44464,0,0,1,5.63551,4.463v.00144l.00143.00144v-.00288a6.44442,6.44442,0,0,1,5.63407-4.463Z"/><path class="cls-2" d="M64.81779,76.20586a6.44464,6.44464,0,0,1,5.9885-3.97682l.00273.00089-.00136-.00044.00181-.00092-.00273-.00089a6.44444,6.44444,0,0,1-2.49936-6.739Z"/><path class="cls-2" d="M22.166,76.20586A6.44462,6.44462,0,0,0,16.15511,72.263l-.00273.0009.00136-.00045-.00181-.00091.00272-.00091a6.4444,6.4444,0,0,0,2.46113-6.75306Z"/><path class="cls-2" d="M33.78722,40.15187a6.44465,6.44465,0,0,1-7.18409-.257l-.0017-.00232.00085.00116-.002-.00031.00171.00232a6.44444,6.44444,0,0,1-1.8951,6.93323Z"/><path class="cls-2" d="M53.13385,40.19543a6.44467,6.44467,0,0,0,7.18241-.30059l.00168-.00233-.00084.00116.002-.00031-.00169.00232a6.4444,6.4444,0,0,0,1.9371,6.92161Z"/><path d="M53.166,88.43078a11.75673,11.75673,0,0,1-5.49341-1.37012L43.5,84.85974l-4.17261,2.20092A11.789,11.789,0,0,1,22.23267,74.60241l.79724-4.66406-3.377-3.30273a11.82874,11.82874,0,0,1,6.52967-20.1587l4.66552-.67993,2.08692-4.24243a11.76462,11.76462,0,0,1,21.12988,0L56.15186,45.797l4.66552.67993a11.82874,11.82874,0,0,1,6.52967,20.1587l-3.377,3.30273.79724,4.66406A11.82332,11.82332,0,0,1,53.166,88.43078ZM43.5,83.72937l4.63916,2.447a10.55472,10.55472,0,0,0,11.3302-.80689,10.76606,10.76606,0,0,0,4.31238-10.59863l-.88562-5.18066,3.75171-3.66944a10.77575,10.77575,0,0,0,2.72326-11.10791,10.59092,10.59092,0,0,0-8.698-7.34619l-5.18628-.7561-2.3191-4.7146a10.76476,10.76476,0,0,0-19.33544,0l-2.3191,4.7146-5.18628.7561a10.59092,10.59092,0,0,0-8.698,7.34619,10.77575,10.77575,0,0,0,2.72326,11.10791l3.75171,3.66944-.88562,5.18066A10.76606,10.76606,0,0,0,27.53064,85.3695a10.55224,10.55224,0,0,0,11.3302.80689Z"/></g></svg>