<svg xmlns="http://www.w3.org/2000/svg" viewBox="0 0 87 127"><defs><style>.cls-1{fill:#fff;}.cls-2{fill:#ff3b5c;}</style></defs><title>card-hearts-4</title><g id="artwork"><rect class="cls-1" width="87" height="127" rx="6"/><path class="cls-2" d="M12.28053,16.81138H7.16014v-.961l3.008-7.55293h1.34382L8.45611,15.72121h3.82442V12.41839H13.512v3.30282h1.3448v1.09017H13.512v2.06879H12.28053Z"/><path class="cls-2" d="M11.00079,34.55614a19.0275,19.0275,0,0,1,1.76605-2.35955c1.22911-1.401,2.82177-2.82022,2.87927-4.83039a2.83194,2.83194,0,0,0-1.181-2.47943,2.10268,2.10268,0,0,0-2.50041.12611,2.154,2.154,0,0,0-.72843,1.28484c-.0222.1337-.05571.35393-.23548.35393s-.21328-.22023-.23546-.35393a2.154,2.154,0,0,0-.72845-1.28484,2.10267,2.10267,0,0,0-2.5004-.12611,2.832,2.832,0,0,0-1.181,2.47943c.05748,2.01017,1.65016,3.42936,2.87925,4.83039A19.02551,19.02551,0,0,1,11.00079,34.55614Z"/><path class="cls-2" d="M74.7194,110.18862h5.12039v.963l-3.008,7.551H75.488l3.05583-7.42277H74.7194v3.30281H73.48789v-3.30281h-1.3448v-1.09115h1.3448v-2.06781H74.7194Z"/><path class="cls-2" d="M75.99921,92.57785a19.0275,19.0275,0,0,1-1.76605,2.35955c-1.22911,1.401-2.82177,2.82022-2.87927,4.83039a2.83194,2.83194,0,0,0,1.181,2.47943,2.10268,2.10268,0,0,0,2.50041-.12611,2.15394,2.15394,0,0,0,.72843-1.28484c.0222-.1337.05571-.35393.23548-.35393s.21328.22023.23546.35393a2.154,2.154,0,0,0,.72845,1.28484,2.10267,2.10267,0,0,0,2.5004.12611,2.832,2.832,0,0,0,1.181-2.47943c-.05748-2.01017-1.65016-3.42935-2.87925-4.83039A19.02551,19.02551,0,0,1,75.99921,92.57785Z"/><path class="cls-2" d="M27.49913,28.86219a28.54189,28.54189,0,0,1,2.64907-3.53933c1.84366-2.10155,4.23265-4.23033,4.3189-7.24557a4.24792,4.24792,0,0,0-1.77149-3.71916,3.154,3.154,0,0,0-3.75062.18917,3.231,3.231,0,0,0-1.09265,1.92727c-.03329.20055-.08356.53088-.35321.53088s-.31993-.33033-.3532-.53088a3.231,3.231,0,0,0-1.09266-1.92727,3.154,3.154,0,0,0-3.75061-.18917,4.248,4.248,0,0,0-1.77149,3.71916c.08623,3.01524,2.47524,5.144,4.31888,7.24557A28.54,28.54,0,0,1,27.49913,28.86219Z"/><path class="cls-2" d="M27.49915,98.13781a28.54388,28.54388,0,0,1-2.64907,3.53933c-1.84367,2.10155-4.23266,4.23033-4.31891,7.24557a4.248,4.248,0,0,0,1.77149,3.71916,3.154,3.154,0,0,0,3.75062-.18917,3.231,3.231,0,0,0,1.09265-1.92727c.03329-.20055.08356-.53088.35322-.53088s.31992.33033.35319.53088A3.231,3.231,0,0,0,28.945,112.4527a3.154,3.154,0,0,0,3.7506.18917,4.24792,4.24792,0,0,0,1.77149-3.71916c-.08622-3.01524-2.47524-5.144-4.31888-7.24557A28.53989,28.53989,0,0,1,27.49915,98.13781Z"/><path class="cls-2" d="M59.50085,28.86219a28.54388,28.54388,0,0,1,2.64907-3.53933c1.84367-2.10155,4.23266-4.23033,4.31891-7.24557a4.248,4.248,0,0,0-1.77149-3.71916,3.154,3.154,0,0,0-3.75062.18917,3.231,3.231,0,0,0-1.09265,1.92727c-.03329.20055-.08356.53088-.35322.53088s-.31992-.33033-.35319-.53088A3.231,3.231,0,0,0,58.055,14.5473a3.154,3.154,0,0,0-3.7506-.18917,4.24792,4.24792,0,0,0-1.77149,3.71916c.08622,3.01524,2.47524,5.144,4.31888,7.24557A28.53989,28.53989,0,0,1,59.50085,28.86219Z"/><path class="cls-2" d="M59.50087,98.13781a28.54189,28.54189,0,0,1-2.64907,3.53933c-1.84366,2.10155-4.23265,4.23033-4.3189,7.24557a4.24792,4.24792,0,0,0,1.77149,3.71916,3.154,3.154,0,0,0,3.75062-.18917,3.231,3.231,0,0,0,1.09265-1.92727c.03329-.20055.08356-.53088.35321-.53088s.31993.33033.3532.53088a3.231,3.231,0,0,0,1.09266,1.92727,3.154,3.154,0,0,0,3.75061.18917,4.248,4.248,0,0,0,1.77149-3.71916c-.08623-3.01524-2.47524-5.144-4.31888-7.24557A28.54,28.54,0,0,1,59.50087,98.13781Z"/></g></svg>