<svg xmlns="http://www.w3.org/2000/svg" viewBox="0 0 87 127"><defs><style>.cls-1{fill:#fff;}</style></defs><title>card-clubs-2</title><g id="artwork"><rect class="cls-1" x="-0.00232" width="87" height="127" rx="6"/><path d="M7.612,17.83825l3.08806-3.25486q.73613-.7692,1.1441-1.24284A5.03131,5.03131,0,0,0,12.54,12.2905a2.62142,2.62142,0,0,0,.2881-1.18608,1.71749,1.71749,0,0,0-.544-1.43563,2.88161,2.88161,0,0,0-1.75986-.42471,11.558,11.558,0,0,0-2.32044.273l-.416.08025L7.69209,8.57079A11.27667,11.27667,0,0,1,10.828,8.13824a3.7168,3.7168,0,0,1,2.45619.689,2.67406,2.67406,0,0,1,.80815,2.149,3.78529,3.78529,0,0,1-.48,1.92395,10.10912,10.10912,0,0,1-1.72812,2.03552L9.06814,17.806h5.29619v1.07451H7.612Z"/><path d="M16.2101,30.20637A2.22669,2.22669,0,0,0,14.01363,28.564a2.06817,2.06817,0,0,0-.96649.28782c-.15626.09337-.45.27536-.58477.04606-.122-.20768.10074-.40145.23407-.52944a2.21556,2.21556,0,0,0,.63771-1.18859,2.33121,2.33121,0,0,0-1.04826-2.36158,2.43449,2.43449,0,0,0-2.59586,0,2.33119,2.33119,0,0,0-1.04826,2.36158,2.21553,2.21553,0,0,0,.63769,1.18859c.13335.128.35612.32176.23409.52944-.13481.2293-.42853.04731-.58479-.04606a2.06806,2.06806,0,0,0-.96649-.28782A2.2267,2.2267,0,0,0,5.7658,30.20637a2.40939,2.40939,0,0,0,1.12964,2.69738A2.44061,2.44061,0,0,0,10.469,31.3971h.19878a2.68914,2.68914,0,0,1-.39757,1.98856,2.64827,2.64827,0,0,1-.7176.71913v.35966h2.87065v-.35966a2.64873,2.64873,0,0,1-.71761-.71913,2.68918,2.68918,0,0,1-.39757-1.98856h.1988a2.44059,2.44059,0,0,0,3.57357,1.50665A2.40937,2.40937,0,0,0,16.2101,30.20637Z"/><path d="M79.38342,109.16235l-3.08806,3.25487q-.73613.76918-1.1441,1.24283a5.03131,5.03131,0,0,0-.69584,1.05,2.62142,2.62142,0,0,0-.2881,1.18608,1.71749,1.71749,0,0,0,.544,1.43563,2.88161,2.88161,0,0,0,1.75986.42471,11.558,11.558,0,0,0,2.32044-.273l.416-.08024.0957,1.02656a11.27654,11.27654,0,0,1-3.1359.43255,3.7168,3.7168,0,0,1-2.45619-.68895,2.674,2.674,0,0,1-.80815-2.149,3.78529,3.78529,0,0,1,.48-1.92395,10.10884,10.10884,0,0,1,1.72812-2.03551l2.81606-2.87027H72.6311v-1.07452h6.75232Z"/><path d="M70.78527,96.77759a2.22669,2.22669,0,0,0,2.19647,1.64233,2.06817,2.06817,0,0,0,.96649-.28782c.15625-.09337.45-.27536.58477-.04607.12205.20769-.10074.40145-.23407.52945a2.21546,2.21546,0,0,0-.63771,1.18858,2.33122,2.33122,0,0,0,1.04826,2.36159,2.43454,2.43454,0,0,0,2.59586,0,2.33121,2.33121,0,0,0,1.04826-2.36159,2.21545,2.21545,0,0,0-.6377-1.18858c-.13334-.128-.35612-.32176-.23408-.52945.1348-.22929.42852-.0473.58478.04607a2.06813,2.06813,0,0,0,.96649.28782,2.22671,2.22671,0,0,0,2.19648-1.64233,2.40939,2.40939,0,0,0-1.12964-2.69738,2.44062,2.44062,0,0,0-3.57359,1.50664h-.19877a2.68908,2.68908,0,0,1,.39757-1.98855,2.64813,2.64813,0,0,1,.7176-.71913V92.5195H74.57209v.35967a2.64841,2.64841,0,0,1,.7176.71913,2.68917,2.68917,0,0,1,.39757,1.98855h-.19879a2.44059,2.44059,0,0,0-3.57357-1.50664A2.40937,2.40937,0,0,0,70.78527,96.77759Z"/><path d="M51.33091,22.61894a3.34,3.34,0,0,0-3.29471-2.4635,3.10231,3.10231,0,0,0-1.44973.43173c-.23439.14006-.675.413-.87716.0691-.18308-.31152.15111-.60217.35111-.79417a3.32323,3.32323,0,0,0,.95656-1.78288,3.49683,3.49683,0,0,0-1.57239-3.54237,3.65176,3.65176,0,0,0-3.89379,0,3.49678,3.49678,0,0,0-1.57239,3.54237A3.3232,3.3232,0,0,0,40.935,19.8621c.2.192.53418.48265.35113.79417-.20221.34395-.64279.071-.87718-.0691a3.10224,3.10224,0,0,0-1.44973-.43173,3.34,3.34,0,0,0-3.29471,2.4635A3.61407,3.61407,0,0,0,37.35891,26.665a3.66092,3.66092,0,0,0,5.36038-2.26h.29816a4.03366,4.03366,0,0,1-.59635,2.98283,3.97225,3.97225,0,0,1-1.0764,1.07869v.5395h4.306v-.5395a3.973,3.973,0,0,1-1.07641-1.07869,4.03379,4.03379,0,0,1-.59635-2.98283h.29819a3.66089,3.66089,0,0,0,5.36036,2.26A3.61407,3.61407,0,0,0,51.33091,22.61894Z"/><path d="M35.66446,104.38106a3.34,3.34,0,0,0,3.29471,2.4635,3.10235,3.10235,0,0,0,1.44973-.43173c.23439-.14006.675-.413.87716-.0691.18307.31152-.15112.60217-.35111.79417a3.32323,3.32323,0,0,0-.95656,1.78288,3.49682,3.49682,0,0,0,1.57239,3.54237,3.65176,3.65176,0,0,0,3.89379,0,3.49682,3.49682,0,0,0,1.57239-3.54237,3.32327,3.32327,0,0,0-.95654-1.78288c-.2-.192-.53418-.48265-.35113-.79417.20221-.34395.64279-.071.87718.0691a3.10221,3.10221,0,0,0,1.44973.43173,3.34,3.34,0,0,0,3.29471-2.4635,3.61409,3.61409,0,0,0-1.69445-4.04607,3.66092,3.66092,0,0,0-5.36038,2.26h-.29817a4.0337,4.0337,0,0,1,.59635-2.98283,3.97243,3.97243,0,0,1,1.07641-1.07869v-.5395h-4.306v.5395a3.97271,3.97271,0,0,1,1.07641,1.07869,4.03375,4.03375,0,0,1,.59635,2.98283h-.29818a3.6609,3.6609,0,0,0-5.36036-2.26A3.61406,3.61406,0,0,0,35.66446,104.38106Z"/></g></svg>