<svg xmlns="http://www.w3.org/2000/svg" viewBox="0 0 115 167"><defs><style>.cls-1{fill:#fff;}.cls-2{fill:#ff3b5c;}</style></defs><title>card-diamonds-7</title><g id="artwork"><rect class="cls-1" width="115" height="167" rx="8"/><path class="cls-2" d="M11.99161,24.24424l5.267-11.67834v-.55106H10.236V10.53242H18.9084V12.672L13.53556,24.73191Z"/><path class="cls-2" d="M102.9297,142.75576l-5.267,11.67834v.55106h7.02265v1.48242H96.01291V154.328l5.37284-12.05993Z"/><path class="cls-2" d="M14.53018,45.156q-1.48188-1.81566-3.13952-3.47715Q9.7354,40.02041,7.92061,38.53291q1.81194-1.48485,3.47005-3.1459,1.65522-1.65866,3.13952-3.47715Q16.012,33.72552,17.66965,35.387q1.65527,1.65859,3.47006,3.1459-1.812,1.4849-3.47006,3.14593Q16.01466,43.33745,14.53018,45.156Z"/><path class="cls-2" d="M100.46986,135.01562Q98.988,133.2,97.33035,131.53847q-1.65528-1.65843-3.47006-3.14593,1.812-1.48485,3.47006-3.1459,1.65521-1.65865,3.13951-3.47715,1.48182,1.81566,3.13948,3.47715,1.65527,1.65859,3.47005,3.1459-1.812,1.4849-3.47005,3.14593Q101.95433,133.19708,100.46986,135.01562Z"/><path class="cls-2" d="M36.34946,38.00805q-2.22282-2.72347-4.70927-5.21572-2.48291-2.48766-5.20508-4.7189,2.71793-2.22727,5.20508-4.71885,2.48283-2.488,4.70927-5.21573,2.22273,2.72349,4.70922,5.21573,2.48289,2.4879,5.20508,4.71885-2.71794,2.22735-5.20508,4.7189Q38.57618,35.28023,36.34946,38.00805Z"/><path class="cls-2" d="M36.34946,148.86115q-2.22282-2.72349-4.70927-5.21573-2.48291-2.48765-5.20508-4.7189,2.71793-2.22728,5.20508-4.71885,2.48283-2.488,4.70927-5.21572,2.22273,2.72348,4.70922,5.21572,2.48289,2.4879,5.20508,4.71885-2.71794,2.22735-5.20508,4.7189Q38.57618,146.13332,36.34946,148.86115Z"/><path class="cls-2" d="M78.65059,38.00805q-2.2228-2.72347-4.70927-5.21572-2.48291-2.48766-5.20508-4.7189,2.71793-2.22727,5.20508-4.71885,2.48283-2.488,4.70927-5.21573,2.22273,2.72349,4.70922,5.21573,2.48289,2.4879,5.20508,4.71885-2.71793,2.22735-5.20508,4.7189Q80.87731,35.28023,78.65059,38.00805Z"/><path class="cls-2" d="M78.65059,148.86115q-2.2228-2.72349-4.70927-5.21573-2.48291-2.48765-5.20508-4.7189,2.71793-2.22728,5.20508-4.71885,2.48283-2.488,4.70927-5.21572,2.22273,2.72348,4.70922,5.21572,2.48289,2.4879,5.20508,4.71885-2.71793,2.22735-5.20508,4.7189Q80.87731,146.13332,78.65059,148.86115Z"/><path class="cls-2" d="M36.34946,93.4346q-2.22282-2.72349-4.70927-5.21572Q29.15729,85.73122,26.43511,83.5q2.71793-2.22728,5.20508-4.71885,2.48283-2.488,4.70927-5.21572,2.22273,2.72349,4.70922,5.21572Q43.54157,81.269,46.26376,83.5q-2.71794,2.22737-5.20508,4.71891Q38.57618,90.70678,36.34946,93.4346Z"/><path class="cls-2" d="M78.65059,93.4346q-2.2228-2.72349-4.70927-5.21572Q71.45842,85.73122,68.73624,83.5q2.71793-2.22728,5.20508-4.71885,2.48283-2.488,4.70927-5.21572,2.22273,2.72349,4.70922,5.21572Q85.8427,81.269,88.56489,83.5q-2.71793,2.22737-5.20508,4.71891Q80.87731,90.70678,78.65059,93.4346Z"/><path class="cls-2" d="M57.5,65.6177q-2.2227-2.72349-4.709-5.21573-2.48277-2.48764-5.2048-4.7189,2.71777-2.22728,5.2048-4.71885,2.48268-2.488,4.709-5.21573,2.22261,2.72349,4.709,5.21573,2.48277,2.4879,5.2048,4.71885Q64.696,57.91042,62.209,60.402,59.72663,62.88987,57.5,65.6177Z"/></g></svg>