<svg xmlns="http://www.w3.org/2000/svg" viewBox="0 0 115 167"><defs><style>.cls-1{fill:#fff;}.cls-2{fill:#ff3b5c;}</style></defs><title>card-diamonds-4</title><g id="artwork"><rect class="cls-1" width="115" height="167" rx="8"/><path class="cls-2" d="M16.22255,21.78516H9.45422V20.51359l3.97606-9.98247h1.77631l-4.03931,9.813h5.05527V15.97834h1.62786v4.36579H19.628v1.441H17.85041v2.73461H16.22255Z"/><path class="cls-2" d="M98.69861,145.21484h6.76833v1.27028l-3.97606,9.98376H99.71457l4.03931-9.813H98.69861v4.36579H97.07075v-4.36579H95.29443v-1.441h1.77632v-2.73461h1.62786Z"/><path class="cls-2" d="M14.53018,45.15549q-1.48188-1.81565-3.13952-3.47715Q9.7354,40.01991,7.92061,38.53241q1.81194-1.48485,3.47005-3.1459,1.65522-1.65865,3.13952-3.47715Q16.012,33.725,17.66965,35.38651q1.65527,1.6586,3.47006,3.1459-1.812,1.4849-3.47006,3.14593Q16.01466,43.337,14.53018,45.15549Z"/><path class="cls-2" d="M100.46986,135.01513q-1.48188-1.81566-3.13951-3.47715-1.65528-1.65844-3.47006-3.14594,1.812-1.48485,3.47006-3.1459,1.65521-1.65865,3.13951-3.47715,1.48182,1.81566,3.13948,3.47715,1.65527,1.6586,3.47005,3.1459-1.812,1.48491-3.47005,3.14594Q101.95433,133.19658,100.46986,135.01513Z"/><path class="cls-2" d="M36.34946,38.00805q-2.22282-2.72347-4.70927-5.21572-2.48291-2.48766-5.20508-4.7189,2.71793-2.22727,5.20508-4.71885,2.48283-2.488,4.70927-5.21573,2.22273,2.72349,4.70922,5.21573,2.48289,2.4879,5.20508,4.71885-2.71794,2.22735-5.20508,4.7189Q38.57618,35.28023,36.34946,38.00805Z"/><path class="cls-2" d="M36.34946,148.86115q-2.22282-2.72349-4.70927-5.21573-2.48291-2.48765-5.20508-4.7189,2.71793-2.22728,5.20508-4.71885,2.48283-2.488,4.70927-5.21572,2.22273,2.72348,4.70922,5.21572,2.48289,2.4879,5.20508,4.71885-2.71794,2.22735-5.20508,4.7189Q38.57618,146.13332,36.34946,148.86115Z"/><path class="cls-2" d="M78.65059,38.00805q-2.2228-2.72347-4.70927-5.21572-2.48291-2.48766-5.20508-4.7189,2.71793-2.22727,5.20508-4.71885,2.48283-2.488,4.70927-5.21573,2.22273,2.72349,4.70922,5.21573,2.48289,2.4879,5.20508,4.71885-2.71793,2.22735-5.20508,4.7189Q80.87731,35.28023,78.65059,38.00805Z"/><path class="cls-2" d="M78.65059,148.86115q-2.2228-2.72349-4.70927-5.21573-2.48291-2.48765-5.20508-4.7189,2.71793-2.22728,5.20508-4.71885,2.48283-2.488,4.70927-5.21572,2.22273,2.72348,4.70922,5.21572,2.48289,2.4879,5.20508,4.71885-2.71793,2.22735-5.20508,4.7189Q80.87731,146.13332,78.65059,148.86115Z"/></g></svg>