<svg xmlns="http://www.w3.org/2000/svg" viewBox="0 0 87 127"><defs><style>.cls-1{fill:#fff;}.cls-2{fill:#ff3b5c;}</style></defs><title>card-hearts-6</title><g id="artwork"><rect class="cls-1" width="87" height="127" rx="6"/><path class="cls-2" d="M7.3198,13.54107A6.46461,6.46461,0,0,1,8.38431,9.47592,3.68274,3.68274,0,0,1,11.448,8.13718a15.17645,15.17645,0,0,1,2.465.19278l.43167.08025-.11231,1.00993a21.15671,21.15671,0,0,0-2.8-.19279,2.50065,2.50065,0,0,0-2.09581.94632,4.33031,4.33031,0,0,0-.73637,2.70978l.40041-.1605a8.13571,8.13571,0,0,1,1.1192-.321,5.363,5.363,0,0,1,1.12018-.14386q3.55244,0,3.552,3.28716a3.37382,3.37382,0,0,1-.96783,2.58941,3.84065,3.84065,0,0,1-2.72768.90522Q7.31979,19.0399,7.3198,13.54107Zm5.56084,3.79115a2.34255,2.34255,0,0,0,.63187-1.75563,2.13229,2.13229,0,0,0-.60843-1.65875,2.5022,2.5022,0,0,0-1.74423-.55292,5.19348,5.19348,0,0,0-1.13581.14386,8.53105,8.53105,0,0,0-1.07232.30435l-.36721.16049a5.89452,5.89452,0,0,0,.63187,2.92605,1.97934,1.97934,0,0,0,1.81553,1.05A2.54143,2.54143,0,0,0,12.88064,17.33222Z"/><path class="cls-2" d="M11.00079,34.556a19.02835,19.02835,0,0,1,1.76605-2.35956c1.22911-1.401,2.82177-2.82022,2.87927-4.83038a2.832,2.832,0,0,0-1.181-2.47944,2.10268,2.10268,0,0,0-2.50041.12611,2.154,2.154,0,0,0-.72843,1.28485c-.0222.1337-.05571.35392-.23548.35392s-.21328-.22022-.23546-.35392a2.154,2.154,0,0,0-.72845-1.28485,2.10267,2.10267,0,0,0-2.5004-.12611,2.832,2.832,0,0,0-1.181,2.47944c.05748,2.01016,1.65016,3.42935,2.87925,4.83038A19.02636,19.02636,0,0,1,11.00079,34.556Z"/><path class="cls-2" d="M79.6801,113.45935a6.468,6.468,0,0,1-1.06353,4.06418,3.68471,3.68471,0,0,1-3.06462,1.33874,15.16566,15.16566,0,0,1-2.464-.19181l-.43166-.08025.11133-1.0109a21.00767,21.00767,0,0,0,2.80093.19278,2.49806,2.49806,0,0,0,2.09582-.94631,4.33346,4.33346,0,0,0,.73637-2.7088l-.40042.16049a8.06675,8.06675,0,0,1-1.12017.32,5.29788,5.29788,0,0,1-1.12018.14385q-3.551,0-3.55195-3.28618a3.37591,3.37591,0,0,1,.96783-2.58941,3.84194,3.84194,0,0,1,2.72866-.90619Q79.68107,107.95955,79.6801,113.45935Zm-5.55986-3.79212a2.34549,2.34549,0,0,0-.63187,1.75563,2.13272,2.13272,0,0,0,.60745,1.65972,2.50553,2.50553,0,0,0,1.74423.55292,5.25425,5.25425,0,0,0,1.13678-.14386,8.71408,8.71408,0,0,0,1.07135-.30532l.36818-.15952a5.905,5.905,0,0,0-.63187-2.926,1.98269,1.98269,0,0,0-1.8165-1.051A2.53732,2.53732,0,0,0,74.12024,109.66723Z"/><path class="cls-2" d="M75.99921,92.57767a19.02835,19.02835,0,0,1-1.76605,2.35956c-1.22911,1.401-2.82177,2.82022-2.87927,4.83038a2.832,2.832,0,0,0,1.181,2.47944,2.10268,2.10268,0,0,0,2.50041-.12611,2.154,2.154,0,0,0,.72843-1.28485c.0222-.1337.05571-.35392.23548-.35392s.21328.22022.23546.35392a2.154,2.154,0,0,0,.72845,1.28485,2.10267,2.10267,0,0,0,2.5004.12611,2.832,2.832,0,0,0,1.181-2.47944c-.05748-2.01016-1.65016-3.42935-2.87925-4.83038A19.02636,19.02636,0,0,1,75.99921,92.57767Z"/><path class="cls-2" d="M27.49913,28.86219a28.54189,28.54189,0,0,1,2.64907-3.53933c1.84366-2.10155,4.23265-4.23033,4.3189-7.24557a4.24792,4.24792,0,0,0-1.77149-3.71916,3.154,3.154,0,0,0-3.75062.18917,3.231,3.231,0,0,0-1.09265,1.92727c-.03329.20055-.08356.53088-.35321.53088s-.31993-.33033-.3532-.53088a3.231,3.231,0,0,0-1.09266-1.92727,3.154,3.154,0,0,0-3.75061-.18917,4.248,4.248,0,0,0-1.77149,3.71916c.08623,3.01524,2.47524,5.144,4.31888,7.24557A28.54,28.54,0,0,1,27.49913,28.86219Z"/><path class="cls-2" d="M27.49915,98.13781a28.54388,28.54388,0,0,1-2.64907,3.53933c-1.84367,2.10155-4.23266,4.23033-4.31891,7.24557a4.248,4.248,0,0,0,1.77149,3.71916,3.154,3.154,0,0,0,3.75062-.18917,3.231,3.231,0,0,0,1.09265-1.92727c.03329-.20055.08356-.53088.35322-.53088s.31992.33033.35319.53088A3.231,3.231,0,0,0,28.945,112.4527a3.154,3.154,0,0,0,3.7506.18917,4.24792,4.24792,0,0,0,1.77149-3.71916c-.08622-3.01524-2.47524-5.144-4.31888-7.24557A28.53989,28.53989,0,0,1,27.49915,98.13781Z"/><path class="cls-2" d="M59.50085,28.86219a28.54388,28.54388,0,0,1,2.64907-3.53933c1.84367-2.10155,4.23266-4.23033,4.31891-7.24557a4.248,4.248,0,0,0-1.77149-3.71916,3.154,3.154,0,0,0-3.75062.18917,3.231,3.231,0,0,0-1.09265,1.92727c-.03329.20055-.08356.53088-.35322.53088s-.31992-.33033-.35319-.53088A3.231,3.231,0,0,0,58.055,14.5473a3.154,3.154,0,0,0-3.7506-.18917,4.24792,4.24792,0,0,0-1.77149,3.71916c.08622,3.01524,2.47524,5.144,4.31888,7.24557A28.53989,28.53989,0,0,1,59.50085,28.86219Z"/><path class="cls-2" d="M59.50087,98.13781a28.54189,28.54189,0,0,1-2.64907,3.53933c-1.84366,2.10155-4.23265,4.23033-4.3189,7.24557a4.24792,4.24792,0,0,0,1.77149,3.71916,3.154,3.154,0,0,0,3.75062-.18917,3.231,3.231,0,0,0,1.09265-1.92727c.03329-.20055.08356-.53088.35321-.53088s.31993.33033.3532.53088a3.231,3.231,0,0,0,1.09266,1.92727,3.154,3.154,0,0,0,3.75061.18917,4.248,4.248,0,0,0,1.77149-3.71916c-.08623-3.01524-2.47524-5.144-4.31888-7.24557A28.54,28.54,0,0,1,59.50087,98.13781Z"/><path class="cls-2" d="M27.49913,71.01574a28.54114,28.54114,0,0,1,2.64907-3.53933c1.84366-2.10155,4.23265-4.23033,4.3189-7.24558a4.24792,4.24792,0,0,0-1.77149-3.71915,3.154,3.154,0,0,0-3.75062.18916,3.231,3.231,0,0,0-1.09265,1.92727c-.03329.20055-.08356.53089-.35321.53089s-.31993-.33034-.3532-.53089a3.231,3.231,0,0,0-1.09266-1.92727,3.154,3.154,0,0,0-3.75061-.18916,4.248,4.248,0,0,0-1.77149,3.71915c.08623,3.01525,2.47524,5.144,4.31888,7.24558A28.53923,28.53923,0,0,1,27.49913,71.01574Z"/><path class="cls-2" d="M59.50085,71.01574a28.54313,28.54313,0,0,1,2.64907-3.53933c1.84367-2.10155,4.23266-4.23033,4.31891-7.24558a4.248,4.248,0,0,0-1.77149-3.71915,3.154,3.154,0,0,0-3.75062.18916,3.231,3.231,0,0,0-1.09265,1.92727c-.03329.20055-.08356.53089-.35322.53089s-.31992-.33034-.35319-.53089A3.231,3.231,0,0,0,58.055,56.70084a3.154,3.154,0,0,0-3.7506-.18916,4.24792,4.24792,0,0,0-1.77149,3.71915c.08622,3.01525,2.47524,5.144,4.31888,7.24558A28.53915,28.53915,0,0,1,59.50085,71.01574Z"/></g></svg>