<svg xmlns="http://www.w3.org/2000/svg" viewBox="0 0 87 127"><defs><style>.cls-1{fill:#fff;}.cls-2{fill:#ff3b5c;}</style></defs><title>card-diamonds-10</title><g id="artwork"><rect class="cls-1" x="0.00232" width="86.99536" height="127" rx="6"/><path class="cls-2" d="M7.42547,9.67726,4.70574,11.473l-.56055-.92968L7.50555,8.2984H8.65789V18.88013H7.42547Z"/><path class="cls-2" d="M12.91375,18.51218A3.19988,3.19988,0,0,1,11.64129,16.78a9.84262,9.84262,0,0,1-.42383-3.19027,9.84916,9.84916,0,0,1,.42383-3.19126,3.24017,3.24017,0,0,1,1.27246-1.739,3.97063,3.97063,0,0,1,2.16015-.53726,3.37528,3.37528,0,0,1,2.89551,1.26632,7.17451,7.17451,0,0,1,.94434,4.20119A9.84262,9.84262,0,0,1,18.48992,16.78a3.19988,3.19988,0,0,1-1.27246,1.73215,3.98741,3.98741,0,0,1-2.14356.52845A4.02247,4.02247,0,0,1,12.91375,18.51218Zm3.63183-.97079a2.44911,2.44911,0,0,0,.832-1.36223,9.80063,9.80063,0,0,0,.27148-2.5894,9.80071,9.80071,0,0,0-.27148-2.58941,2.45558,2.45558,0,0,0-.832-1.36321,2.43527,2.43527,0,0,0-1.47168-.40906,2.43326,2.43326,0,0,0-1.47167.40906,2.44489,2.44489,0,0,0-.832,1.36321,9.79466,9.79466,0,0,0-.27246,2.58941,9.79457,9.79457,0,0,0,.27246,2.5894,2.43847,2.43847,0,0,0,.832,1.36223,2.43319,2.43319,0,0,0,1.47167.40906A2.4352,2.4352,0,0,0,16.54558,17.54139Z"/><path class="cls-2" d="M79.51629,117.32266l2.71972-1.79477.55957.92968-3.35937,2.24494H78.28387V108.11979h1.23242Z"/><path class="cls-2" d="M74.028,108.48873a3.1913,3.1913,0,0,1,1.27148,1.73116,12.19539,12.19539,0,0,1,0,6.38153,3.23673,3.23673,0,0,1-1.27148,1.74,3.97931,3.97931,0,0,1-2.16016.53726,3.3759,3.3759,0,0,1-2.89551-1.26731,7.171,7.171,0,0,1-.94433-4.2002,9.84955,9.84955,0,0,1,.42382-3.19126,3.19732,3.19732,0,0,1,1.27247-1.73116,4.63774,4.63774,0,0,1,4.30371,0Zm-3.63184.9698a2.45208,2.45208,0,0,0-.832,1.36321,12.44087,12.44087,0,0,0,0,5.17882,2.35182,2.35182,0,0,0,4.6084,0,12.4848,12.4848,0,0,0,0-5.17882,2.51052,2.51052,0,0,0-3.77637-1.36321Z"/><path class="cls-2" d="M10.99413,34.49224q-1.121-1.37358-2.375-2.63054-1.25217-1.25464-2.625-2.38,1.37071-1.12332,2.625-2.37994,1.25214-1.25481,2.375-2.63054,1.121,1.37358,2.375,2.63054,1.25219,1.25476,2.625,2.37994-1.3707,1.12337-2.625,2.38Q12.11711,33.11647,10.99413,34.49224Z"/><path class="cls-2" d="M76.0059,102.473q-1.121-1.37358-2.375-2.63054-1.25218-1.25463-2.625-2.38,1.3707-1.12333,2.625-2.38,1.25214-1.25481,2.375-2.63054,1.121,1.37359,2.375,2.63054,1.25217,1.25477,2.625,2.38-1.37071,1.12335-2.625,2.38Q77.12889,101.09723,76.0059,102.473Z"/><path class="cls-2" d="M27.5,29.08435Q25.8185,27.024,23.93754,25.13854,22.05926,23.25658,20,21.56859q2.056-1.685,3.93755-3.56991,1.8782-1.88221,3.56247-3.94581,1.68145,2.06037,3.56243,3.94581Q32.94071,19.88084,35,21.56859q-2.05606,1.685-3.93755,3.56995Q29.18449,27.0207,27.5,29.08435Z"/><path class="cls-2" d="M59.5,29.08435q-1.68152-2.06037-3.56247-3.94581Q54.05928,23.25658,52,21.56859q2.056-1.685,3.93755-3.56991Q57.81576,16.11647,59.5,14.05287q1.68145,2.06037,3.56243,3.94581Q64.94073,19.88084,67,21.56859q-2.05607,1.685-3.93755,3.56995Q61.18451,27.0207,59.5,29.08435Z"/><path class="cls-2" d="M27.5,112.94713q-1.68151-2.06037-3.56247-3.94581-1.87828-1.882-3.93755-3.57,2.056-1.685,3.93755-3.56991,1.8782-1.88221,3.56247-3.94581,1.68145,2.06037,3.56243,3.94581Q32.94071,103.7436,35,105.43137q-2.05606,1.685-3.93755,3.57Q29.18449,110.88348,27.5,112.94713Z"/><path class="cls-2" d="M59.5,112.94713q-1.68152-2.06037-3.56247-3.94581-1.87828-1.882-3.93755-3.57,2.056-1.685,3.93755-3.56991Q57.81576,99.97925,59.5,97.91565q1.68145,2.06037,3.56243,3.94581Q64.94073,103.7436,67,105.43137q-2.05607,1.685-3.93755,3.57Q61.18451,110.88348,59.5,112.94713Z"/><path class="cls-2" d="M27.5,57.03861q-1.68151-2.06037-3.56247-3.94581Q22.05926,51.21084,20,49.52285q2.056-1.685,3.93755-3.56991,1.8782-1.88222,3.56247-3.94581,1.68145,2.06037,3.56243,3.94581Q32.94071,47.8351,35,49.52285q-2.05606,1.685-3.93755,3.56995Q29.18449,54.975,27.5,57.03861Z"/><path class="cls-2" d="M59.5,57.03861q-1.68152-2.06037-3.56247-3.94581Q54.05928,51.21084,52,49.52285q2.056-1.685,3.93755-3.56991Q57.81576,44.07073,59.5,42.00713q1.68145,2.06037,3.56243,3.94581Q64.94073,47.8351,67,49.52285q-2.05607,1.685-3.93755,3.56995Q61.18451,54.975,59.5,57.03861Z"/><path class="cls-2" d="M27.5,84.99287q-1.68151-2.06037-3.56247-3.94581-1.87828-1.882-3.93755-3.57,2.056-1.685,3.93755-3.56991Q25.81574,72.025,27.5,69.96139q1.68145,2.06037,3.56243,3.94581Q32.94071,75.78934,35,77.47711q-2.05606,1.685-3.93755,3.57Q29.18449,82.92922,27.5,84.99287Z"/><path class="cls-2" d="M59.5,84.99287q-1.68152-2.06037-3.56247-3.94581-1.87828-1.882-3.93755-3.57,2.056-1.685,3.93755-3.56991Q57.81576,72.025,59.5,69.96139q1.68145,2.06037,3.56243,3.94581Q64.94073,75.78934,67,77.47711q-2.05607,1.685-3.93755,3.57Q61.18451,82.92922,59.5,84.99287Z"/><path class="cls-2" d="M43.5,42.957q-1.68151-2.06037-3.56247-3.94581Q38.05927,37.12918,36,35.44119q2.056-1.685,3.93755-3.56991,1.8782-1.88221,3.56247-3.94581,1.68145,2.06037,3.56243,3.94581Q48.94072,33.75342,51,35.44119q-2.05607,1.685-3.93755,3.56995Q45.1845,40.89329,43.5,42.957Z"/><path class="cls-2" d="M43.5,99.07453q-1.68151-2.06037-3.56247-3.94581-1.87828-1.882-3.93755-3.57,2.056-1.685,3.93755-3.56991Q41.81575,86.10664,43.5,84.043q1.68145,2.06037,3.56243,3.94581Q48.94072,89.871,51,91.55877q-2.05607,1.685-3.93755,3.57Q45.1845,97.01088,43.5,99.07453Z"/></g></svg>