<svg xmlns="http://www.w3.org/2000/svg" viewBox="0 0 115 167"><defs><style>.cls-1{fill:#fff;}.cls-2{fill:#ff3b5c;}</style></defs><title>card-diamonds-8</title><g id="artwork"><rect class="cls-1" width="115" height="167" rx="8"/><path class="cls-2" d="M9.28361,20.95589a3.88971,3.88971,0,0,1,.54994-2.23541,5.35953,5.35953,0,0,1,1.86151-1.51614,4.427,4.427,0,0,1-1.67046-1.32469A3.3829,3.3829,0,0,1,9.516,13.9185a3.07017,3.07017,0,0,1,1.33353-2.71276,6.24224,6.24224,0,0,1,3.63783-.91072,6.37326,6.37326,0,0,1,3.71142.94307,3.1,3.1,0,0,1,1.34256,2.7024,3.2958,3.2958,0,0,1-.50733,1.98185,4.55612,4.55612,0,0,1-1.81892,1.282,4.91674,4.91674,0,0,1,1.93639,1.37772,3.43371,3.43371,0,0,1,.60157,2.141q0,4.00511-5.22309,4.0051Q9.28233,24.72813,9.28361,20.95589Zm8.73571-.40232a2.14765,2.14765,0,0,0-.58221-1.63257,4.66693,4.66693,0,0,0-1.8925-.93272h-2.2204a3.4556,3.4556,0,0,0-1.74533.95471,2.52946,2.52946,0,0,0-.56026,1.73735q0,2.56528,3.51132,2.56528Q18.01932,23.24562,18.01932,20.55357Zm-2.47471-3.9857a4.13635,4.13635,0,0,0,1.71306-.95341,2.05213,2.05213,0,0,0,.54994-1.4838q0-2.35183-3.27767-2.35183-3.28025,0-3.27895,2.33113a2.20928,2.20928,0,0,0,.497,1.5045,3.65769,3.65769,0,0,0,1.57622.95341Z"/><path class="cls-2" d="M105.63714,146.04282a3.88431,3.88431,0,0,1-.54994,2.2367,5.35179,5.35179,0,0,1-1.86023,1.51485,4.44977,4.44977,0,0,1,1.67046,1.32468,3.38289,3.38289,0,0,1,.50734,1.96116,3.07059,3.07059,0,0,1-1.33224,2.71275,6.23494,6.23494,0,0,1-3.63783.912,6.37745,6.37745,0,0,1-3.71271-.94436,3.10229,3.10229,0,0,1-1.34256-2.70111,3.29952,3.29952,0,0,1,.50733-1.98185,4.56637,4.56637,0,0,1,1.81892-1.28329,4.90037,4.90037,0,0,1-1.9351-1.37643,3.43643,3.43643,0,0,1-.60287-2.141q0-4.007,5.22439-4.0064Q105.63778,142.27057,105.63714,146.04282Zm-8.73571.40361a2.14958,2.14958,0,0,0,.58221,1.63257,4.674,4.674,0,0,0,1.89379.93142h2.22039a3.46021,3.46021,0,0,0,1.74534-.95341,2.54034,2.54034,0,0,0,.56026-1.73735q0-2.56529-3.51132-2.56528Q96.90273,143.75438,96.90143,146.44643Zm2.476,3.98441a4.13367,4.13367,0,0,0-1.71435.95341,2.05209,2.05209,0,0,0-.54994,1.4838q0,2.35183,3.279,2.35312,3.27831,0,3.27895-2.33242a2.21223,2.21223,0,0,0-.49829-1.5045,3.65215,3.65215,0,0,0-1.57494-.95341Z"/><path class="cls-2" d="M14.53018,45.15377Q13.0483,43.338,11.39066,41.67643q-1.65526-1.65852-3.47005-3.1461,1.81194-1.48494,3.47005-3.14607,1.65522-1.65874,3.13952-3.47734,1.48181,1.81576,3.13947,3.47734,1.65527,1.65868,3.47006,3.14607-1.812,1.485-3.47006,3.1461Q16.01466,43.33512,14.53018,45.15377Z"/><path class="cls-2" d="M100.46986,135.01819q-1.48188-1.81575-3.13951-3.47734-1.65528-1.65852-3.47006-3.1461,1.812-1.48492,3.47006-3.14607,1.65521-1.65874,3.13951-3.47733,1.48182,1.81575,3.13948,3.47733,1.65527,1.65869,3.47005,3.14607-1.812,1.485-3.47005,3.1461Q101.95433,133.19953,100.46986,135.01819Z"/><path class="cls-2" d="M36.34946,38.00563q-2.22282-2.72364-4.70927-5.216-2.48291-2.48778-5.20508-4.71915,2.71793-2.22739,5.20508-4.7191,2.48283-2.48812,4.70927-5.216,2.22273,2.72364,4.70922,5.216,2.48289,2.488,5.20508,4.7191-2.71794,2.22747-5.20508,4.71915Q38.57618,35.27765,36.34946,38.00563Z"/><path class="cls-2" d="M36.34946,148.86464q-2.22282-2.72364-4.70927-5.216-2.48291-2.48778-5.20508-4.71915,2.71793-2.2274,5.20508-4.7191,2.48283-2.48812,4.70927-5.216,2.22273,2.72364,4.70922,5.216,2.48289,2.488,5.20508,4.7191-2.71794,2.22747-5.20508,4.71915Q38.57618,146.13667,36.34946,148.86464Z"/><path class="cls-2" d="M78.65059,38.00563q-2.2228-2.72364-4.70927-5.216-2.48291-2.48778-5.20508-4.71915,2.71793-2.22739,5.20508-4.7191,2.48283-2.48812,4.70927-5.216,2.22273,2.72364,4.70922,5.216,2.48289,2.488,5.20508,4.7191-2.71793,2.22747-5.20508,4.71915Q80.87731,35.27765,78.65059,38.00563Z"/><path class="cls-2" d="M78.65059,148.86464q-2.2228-2.72364-4.70927-5.216-2.48291-2.48778-5.20508-4.71915,2.71793-2.2274,5.20508-4.7191,2.48283-2.48812,4.70927-5.216,2.22273,2.72364,4.70922,5.216,2.48289,2.488,5.20508,4.7191-2.71793,2.22747-5.20508,4.71915Q80.87731,146.13667,78.65059,148.86464Z"/><path class="cls-2" d="M36.34946,93.43513q-2.22282-2.72362-4.70927-5.216Q29.15729,85.73133,26.43511,83.5q2.71793-2.22738,5.20508-4.7191,2.48283-2.48811,4.70927-5.216,2.22273,2.72362,4.70922,5.216,2.48289,2.488,5.20508,4.7191-2.71794,2.22747-5.20508,4.71916Q38.57618,90.70717,36.34946,93.43513Z"/><path class="cls-2" d="M78.65059,93.43513q-2.2228-2.72362-4.70927-5.216Q71.45842,85.73133,68.73624,83.5q2.71793-2.22738,5.20508-4.7191,2.48283-2.48811,4.70927-5.216,2.22273,2.72362,4.70922,5.216,2.48289,2.488,5.20508,4.7191-2.71793,2.22747-5.20508,4.71916Q80.87731,90.70717,78.65059,93.43513Z"/><path class="cls-2" d="M57.5,65.61674q-2.22282-2.72362-4.70927-5.216-2.48291-2.48778-5.20508-4.71915,2.71791-2.2274,5.20508-4.7191,2.48282-2.48813,4.70927-5.216,2.22271,2.72364,4.70921,5.216,2.48291,2.488,5.20508,4.7191-2.71793,2.22747-5.20508,4.71915Q59.72674,62.88878,57.5,65.61674Z"/><path class="cls-2" d="M57.5,121.25352q-2.22282-2.72364-4.70927-5.216-2.48291-2.48778-5.20508-4.71915,2.71791-2.22739,5.20508-4.7191,2.48282-2.48812,4.70927-5.216,2.22271,2.72362,4.70921,5.216,2.48291,2.488,5.20508,4.7191-2.71793,2.22747-5.20508,4.71915Q59.72674,118.52555,57.5,121.25352Z"/></g></svg>