<svg xmlns="http://www.w3.org/2000/svg" viewBox="0 0 115 167"><defs><style>.cls-1{fill:#fff;}</style></defs><title>card-spades-8</title><g id="artwork"><rect class="cls-1" width="115" height="167" rx="8"/><path d="M20.16919,38.78229c-.54553-1.71793-2.13293-2.67941-3.37659-3.85031a10.959,10.959,0,0,1-2.25478-3.01263A10.959,10.959,0,0,1,12.283,34.932c-1.24367,1.1709-2.831,2.13238-3.37656,3.85031a3.61511,3.61511,0,0,0,1.87489,4.47885,2.61237,2.61237,0,0,0,3.03724-.64685,2.08916,2.08916,0,0,0,.38258-.75084,3.28341,3.28341,0,0,1-.54,1.98487,3.23539,3.23539,0,0,1-.8766.87849v.43938h3.50653v-.43938a3.23564,3.23564,0,0,1-.87663-.87849,3.28336,3.28336,0,0,1-.54-1.985,2.08918,2.08918,0,0,0,.38261.75094,2.61233,2.61233,0,0,0,3.03723.64685A3.61516,3.61516,0,0,0,20.16919,38.78229Z"/><path d="M9.29125,20.95524a3.89338,3.89338,0,0,1,.54994-2.236,5.35879,5.35879,0,0,1,1.86151-1.5155A4.42711,4.42711,0,0,1,10.03224,15.879a3.38213,3.38213,0,0,1-.50862-1.96051,3.07054,3.07054,0,0,1,1.33353-2.7134,6.24215,6.24215,0,0,1,3.63783-.91072,6.37321,6.37321,0,0,1,3.71141.94306A3.10079,3.10079,0,0,1,19.549,13.93985a3.29575,3.29575,0,0,1-.50734,1.98185,4.55609,4.55609,0,0,1-1.81891,1.282,4.91685,4.91685,0,0,1,1.93639,1.37773,3.43366,3.43366,0,0,1,.60157,2.141q0,4.00511-5.22309,4.0051Q9.29,24.72748,9.29125,20.95524Zm8.73571-.40232a2.14765,2.14765,0,0,0-.58221-1.63257,4.66694,4.66694,0,0,0-1.8925-.93271h-2.2204a3.46,3.46,0,0,0-1.74533.95405,2.53235,2.53235,0,0,0-.56026,1.738q0,2.56529,3.51132,2.56464Q18.027,23.24433,18.027,20.55292Zm-2.47471-3.98505a4.14382,4.14382,0,0,0,1.71306-.95406,2.05213,2.05213,0,0,0,.54993-1.4838q0-2.35183-3.27766-2.35183-3.28025,0-3.279,2.33113a2.20928,2.20928,0,0,0,.497,1.5045,3.66428,3.66428,0,0,0,1.57622.95406Z"/><path d="M94.83081,128.21676c.54553,1.71793,2.13293,2.67941,3.37659,3.8503a10.95918,10.95918,0,0,1,2.25478,3.01264,10.95918,10.95918,0,0,1,2.25478-3.01264c1.24367-1.17089,2.831-2.13237,3.37656-3.8503a3.61511,3.61511,0,0,0-1.87489-4.47885,2.61237,2.61237,0,0,0-3.03724.64685,2.08908,2.08908,0,0,0-.38258.75084,3.28341,3.28341,0,0,1,.54-1.98487,3.23539,3.23539,0,0,1,.8766-.87849v-.43938H98.70892v.43938a3.23564,3.23564,0,0,1,.87663.87849,3.28336,3.28336,0,0,1,.54,1.985,2.08918,2.08918,0,0,0-.38261-.75094,2.61233,2.61233,0,0,0-3.03723-.64685A3.61516,3.61516,0,0,0,94.83081,128.21676Z"/><path d="M105.708,146.04347a3.89426,3.89426,0,0,1-.54994,2.2367,5.34584,5.34584,0,0,1-1.86151,1.51484,4.44514,4.44514,0,0,1,1.67175,1.32469,3.383,3.383,0,0,1,.50733,1.96115,3.07062,3.07062,0,0,1-1.33223,2.71276,6.235,6.235,0,0,1-3.63784.912,6.37466,6.37466,0,0,1-3.7127-.94435,3.10228,3.10228,0,0,1-1.34257-2.70112,3.29949,3.29949,0,0,1,.50734-1.98185,4.56652,4.56652,0,0,1,1.81891-1.28329,4.90027,4.90027,0,0,1-1.9351-1.37643,3.43638,3.43638,0,0,1-.60286-2.141q0-4.00706,5.22438-4.0064Q105.70867,142.27122,105.708,146.04347Zm-8.73441.40361a2.14909,2.14909,0,0,0,.58091,1.63257,4.68486,4.68486,0,0,0,1.8925.93142h2.22169a3.45018,3.45018,0,0,0,1.744-.95341,2.53442,2.53442,0,0,0,.56155-1.73735q0-2.56529-3.51132-2.56529Q96.97362,143.755,96.97362,146.44708Zm2.47341,3.9844a4.13067,4.13067,0,0,0-1.71177.95341,2.05217,2.05217,0,0,0-.54993,1.48381q0,2.35182,3.27766,2.35312,3.27831,0,3.27767-2.33243a2.21743,2.21743,0,0,0-.49572-1.5045,3.66575,3.66575,0,0,0-1.57622-.95341Z"/><path d="M44.79648,28.22251c-.8183-2.5769-3.19939-4.01912-5.06489-5.77546a16.43852,16.43852,0,0,1-3.38217-4.519,16.43829,16.43829,0,0,1-3.38216,4.519c-1.8655,1.75634-4.24654,3.19856-5.06485,5.77546a5.42268,5.42268,0,0,0,2.81234,6.71827,3.91852,3.91852,0,0,0,4.55585-.97027,3.13356,3.13356,0,0,0,.57388-1.12627,4.92508,4.92508,0,0,1-.81006,2.97731,4.85317,4.85317,0,0,1-1.3149,1.31774v.65907h5.2598v-.65907a4.85335,4.85335,0,0,1-1.315-1.31774,4.92512,4.92512,0,0,1-.81-2.97746,3.13391,3.13391,0,0,0,.57392,1.12642,3.91848,3.91848,0,0,0,4.55585.97027A5.42274,5.42274,0,0,0,44.79648,28.22251Z"/><path d="M27.90238,138.77749c.81831,2.5769,3.1994,4.01912,5.0649,5.77546a16.43829,16.43829,0,0,1,3.38216,4.519,16.43852,16.43852,0,0,1,3.38217-4.519c1.8655-1.75634,4.24654-3.19856,5.06485-5.77546a5.42268,5.42268,0,0,0-2.81235-6.71827,3.91852,3.91852,0,0,0-4.55585.97027,3.13354,3.13354,0,0,0-.57387,1.12627,4.925,4.925,0,0,1,.81006-2.97731,4.85327,4.85327,0,0,1,1.31489-1.31774v-.65907H33.71955v.65907a4.85349,4.85349,0,0,1,1.315,1.31774,4.92512,4.92512,0,0,1,.81,2.97746,3.13391,3.13391,0,0,0-.57392-1.12642,3.91849,3.91849,0,0,0-4.55585-.97027A5.42275,5.42275,0,0,0,27.90238,138.77749Z"/><path d="M87.09762,28.22251c-.81831-2.5769-3.1994-4.01912-5.0649-5.77546a16.43829,16.43829,0,0,1-3.38216-4.519,16.43852,16.43852,0,0,1-3.38217,4.519c-1.8655,1.75634-4.24654,3.19856-5.06485,5.77546a5.42268,5.42268,0,0,0,2.81235,6.71827,3.91852,3.91852,0,0,0,4.55585-.97027,3.13354,3.13354,0,0,0,.57387-1.12627,4.925,4.925,0,0,1-.81006,2.97731,4.85327,4.85327,0,0,1-1.31489,1.31774v.65907h5.25979v-.65907a4.85349,4.85349,0,0,1-1.31495-1.31774,4.92512,4.92512,0,0,1-.81005-2.97746,3.13391,3.13391,0,0,0,.57392,1.12642,3.91849,3.91849,0,0,0,4.55585.97027A5.42275,5.42275,0,0,0,87.09762,28.22251Z"/><path d="M70.20352,138.77749c.8183,2.5769,3.19939,4.01912,5.06489,5.77546a16.43852,16.43852,0,0,1,3.38217,4.519,16.43829,16.43829,0,0,1,3.38216-4.519c1.8655-1.75634,4.24654-3.19856,5.06485-5.77546a5.42268,5.42268,0,0,0-2.81234-6.71827,3.91852,3.91852,0,0,0-4.55585.97027,3.13356,3.13356,0,0,0-.57388,1.12627,4.92508,4.92508,0,0,1,.81006-2.97731,4.85317,4.85317,0,0,1,1.3149-1.31774v-.65907h-5.2598v.65907a4.85335,4.85335,0,0,1,1.31495,1.31774,4.92512,4.92512,0,0,1,.81005,2.97746,3.13391,3.13391,0,0,0-.57392-1.12642,3.91848,3.91848,0,0,0-4.55585-.97027A5.42274,5.42274,0,0,0,70.20352,138.77749Z"/><path d="M44.79648,83.85929c-.8183-2.57691-3.19939-4.01912-5.06489-5.77547a16.43863,16.43863,0,0,1-3.38217-4.519,16.43839,16.43839,0,0,1-3.38216,4.519c-1.8655,1.75635-4.24654,3.19856-5.06485,5.77547a5.42268,5.42268,0,0,0,2.81234,6.71827,3.91855,3.91855,0,0,0,4.55585-.97027,3.13372,3.13372,0,0,0,.57388-1.12627,4.92507,4.92507,0,0,1-.81006,2.9773,4.853,4.853,0,0,1-1.3149,1.31774v.65907h5.2598v-.65907a4.85321,4.85321,0,0,1-1.315-1.31774,4.92509,4.92509,0,0,1-.81-2.97745,3.134,3.134,0,0,0,.57392,1.12642,3.91851,3.91851,0,0,0,4.55585.97027A5.42275,5.42275,0,0,0,44.79648,83.85929Z"/><path d="M87.09762,83.85929c-.81831-2.57691-3.1994-4.01912-5.0649-5.77547a16.43839,16.43839,0,0,1-3.38216-4.519,16.43863,16.43863,0,0,1-3.38217,4.519c-1.8655,1.75635-4.24654,3.19856-5.06485,5.77547a5.42268,5.42268,0,0,0,2.81235,6.71827,3.91855,3.91855,0,0,0,4.55585-.97027,3.1337,3.1337,0,0,0,.57387-1.12627,4.925,4.925,0,0,1-.81006,2.9773,4.85313,4.85313,0,0,1-1.31489,1.31774v.65907h5.25979v-.65907a4.85335,4.85335,0,0,1-1.31495-1.31774,4.92509,4.92509,0,0,1-.81005-2.97745,3.134,3.134,0,0,0,.57392,1.12642,3.91852,3.91852,0,0,0,4.55585.97027A5.42275,5.42275,0,0,0,87.09762,83.85929Z"/><path d="M65.94705,56.0409c-.8183-2.57691-3.1994-4.01912-5.0649-5.77546A16.43879,16.43879,0,0,1,57.5,45.74648a16.43862,16.43862,0,0,1-3.38217,4.519c-1.8655,1.75634-4.24653,3.19855-5.06484,5.77546a5.42267,5.42267,0,0,0,2.81234,6.71827,3.91852,3.91852,0,0,0,4.55585-.97027,3.1338,3.1338,0,0,0,.57388-1.12627,4.925,4.925,0,0,1-.81007,2.97731,4.8531,4.8531,0,0,1-1.31489,1.31773v.65907h5.2598v-.65907a4.85318,4.85318,0,0,1-1.315-1.31773,4.92507,4.92507,0,0,1-.81-2.97746,3.134,3.134,0,0,0,.57391,1.12642,3.91849,3.91849,0,0,0,4.55585.97027A5.42275,5.42275,0,0,0,65.94705,56.0409Z"/><path d="M49.053,110.9591c.8183,2.57691,3.1994,4.01912,5.0649,5.77546a16.43879,16.43879,0,0,1,3.38216,4.519,16.43862,16.43862,0,0,1,3.38217-4.519c1.8655-1.75634,4.24653-3.19855,5.06484-5.77546a5.42267,5.42267,0,0,0-2.81234-6.71827,3.91852,3.91852,0,0,0-4.55585.97027,3.1338,3.1338,0,0,0-.57388,1.12627,4.925,4.925,0,0,1,.81007-2.97731,4.8531,4.8531,0,0,1,1.31489-1.31773v-.65907h-5.2598v.65907a4.85318,4.85318,0,0,1,1.315,1.31773,4.92507,4.92507,0,0,1,.81,2.97746,3.134,3.134,0,0,0-.57391-1.12642,3.91849,3.91849,0,0,0-4.55585-.97027A5.42275,5.42275,0,0,0,49.053,110.9591Z"/></g></svg>