<svg xmlns="http://www.w3.org/2000/svg" viewBox="0 0 87 127"><defs><style>.cls-1{fill:#fff;}</style></defs><title>card-spades-8</title><g id="artwork"><rect class="cls-1" x="0.00232" width="86.99536" height="127" rx="6"/><path d="M15.26,29.67241c-.41269-1.29958-1.61352-2.02692-2.55433-2.91268A8.29025,8.29025,0,0,1,11,24.48072a8.29025,8.29025,0,0,1-1.7057,2.279c-.94081.88576-2.14162,1.6131-2.55431,2.91268a2.73479,2.73479,0,0,0,1.41833,3.38817,1.97621,1.97621,0,0,0,2.29761-.48933,1.58047,1.58047,0,0,0,.28942-.568,2.48384,2.48384,0,0,1-.40854,1.50152,2.44733,2.44733,0,0,1-.66312.66456v.33238H12.3263v-.33238a2.44758,2.44758,0,0,1-.66315-.66456,2.48385,2.48385,0,0,1-.40853-1.5016,1.58062,1.58062,0,0,0,.28944.56808,1.97619,1.97619,0,0,0,2.29761.48933A2.73482,2.73482,0,0,0,15.26,29.67241Z"/><path d="M7.03106,16.18658a2.94534,2.94534,0,0,1,.416-1.69153A4.05394,4.05394,0,0,1,8.85528,13.3486a3.34891,3.34891,0,0,1-1.26367-1.00209,2.55851,2.55851,0,0,1-.38477-1.48309A2.32282,2.32282,0,0,1,8.21563,8.81078a4.7221,4.7221,0,0,1,2.75195-.68894,4.82128,4.82128,0,0,1,2.80762.7134,2.34572,2.34572,0,0,1,1.01562,2.04433A2.49326,2.49326,0,0,1,14.407,12.3788a3.44659,3.44659,0,0,1-1.376.9698,3.71948,3.71948,0,0,1,1.46484,1.04223,2.59753,2.59753,0,0,1,.45508,1.6196q0,3.02979-3.95117,3.02978Q7.03008,19.04021,7.03106,16.18658Zm6.6084-.30435a1.62467,1.62467,0,0,0-.44043-1.235,3.53063,3.53063,0,0,0-1.43164-.70558H10.0877a2.61735,2.61735,0,0,0-1.32031.72173,1.91564,1.91564,0,0,0-.42383,1.31477q0,1.94058,2.65625,1.94009Q13.63945,17.91823,13.63946,15.88223Zm-1.87207-3.01461a3.1349,3.1349,0,0,0,1.2959-.72173,1.55241,1.55241,0,0,0,.416-1.12247q0-1.77912-2.47949-1.77912-2.48145,0-2.48047,1.76346a1.67127,1.67127,0,0,0,.376,1.13813,2.772,2.772,0,0,0,1.19238.72173Z"/><path d="M71.74014,97.32792c.41269,1.29959,1.61353,2.02693,2.55434,2.91269a8.29051,8.29051,0,0,1,1.70569,2.279,8.29035,8.29035,0,0,1,1.7057-2.279c.94081-.88576,2.14162-1.6131,2.55431-2.91269a2.73476,2.73476,0,0,0-1.41833-3.38816,1.97619,1.97619,0,0,0-2.29761.48933,1.58047,1.58047,0,0,0-.28942.568,2.48384,2.48384,0,0,1,.40854-1.50152,2.44737,2.44737,0,0,1,.66313-.66456v-.33239H74.67386V92.831a2.44762,2.44762,0,0,1,.66316.66456,2.48389,2.48389,0,0,1,.40852,1.50159,1.58026,1.58026,0,0,0-.28944-.56807,1.97617,1.97617,0,0,0-2.29761-.48933A2.7348,2.7348,0,0,0,71.74014,97.32792Z"/><path d="M79.96856,110.8135a2.94591,2.94591,0,0,1-.416,1.692,4.04394,4.04394,0,0,1-1.4082,1.14595,3.36262,3.36262,0,0,1,1.26465,1.0021,2.55914,2.55914,0,0,1,.38379,1.48358A2.32286,2.32286,0,0,1,78.785,118.1893a4.71663,4.71663,0,0,1-2.752.68992,4.82229,4.82229,0,0,1-2.80859-.71439,2.34681,2.34681,0,0,1-1.01563-2.04334,2.496,2.496,0,0,1,.38379-1.49923,3.45454,3.45454,0,0,1,1.376-.97079,3.7069,3.7069,0,0,1-1.46387-1.04124,2.59959,2.59959,0,0,1-.456-1.6196q0-3.03126,3.95215-3.03077Q79.969,107.95986,79.96856,110.8135Zm-6.60742.30532a1.62574,1.62574,0,0,0,.43945,1.235,3.54392,3.54392,0,0,0,1.43164.7046h1.68066a2.61,2.61,0,0,0,1.31934-.72123,1.9173,1.9173,0,0,0,.42481-1.31428q0-1.94058-2.65625-1.94059Q73.36114,109.08233,73.36114,111.11882Zm1.87109,3.01413a3.1246,3.1246,0,0,0-1.29492.72124,1.55241,1.55241,0,0,0-.416,1.12247q0,1.77911,2.4795,1.78009,2.48,0,2.47949-1.76444a1.67742,1.67742,0,0,0-.375-1.13812,2.773,2.773,0,0,0-1.19239-.72124Z"/><path d="M33.89,21.68361c-.619-1.94938-2.42029-3.04039-3.8315-4.369A12.43537,12.43537,0,0,1,27.5,13.89607a12.43554,12.43554,0,0,1-2.55854,3.41851c-1.41122,1.32864-3.21243,2.41965-3.83147,4.369a4.10218,4.10218,0,0,0,2.12749,5.08225,2.96431,2.96431,0,0,0,3.44642-.734,2.3706,2.3706,0,0,0,.43412-.852,3.72566,3.72566,0,0,1-.6128,2.25228,3.67117,3.67117,0,0,1-.99469.99684v.49858h3.97894V28.429a3.67146,3.67146,0,0,1-.99473-.99684,3.72571,3.72571,0,0,1-.61279-2.25239,2.37077,2.37077,0,0,0,.43416.85211,2.96426,2.96426,0,0,0,3.44641.734A4.10222,4.10222,0,0,0,33.89,21.68361Z"/><path d="M21.11,105.31639c.619,1.94938,2.42029,3.04039,3.8315,4.369A12.43537,12.43537,0,0,1,27.5,113.10393a12.43554,12.43554,0,0,1,2.55854-3.41851c1.41122-1.32864,3.21243-2.41965,3.83147-4.369a4.10218,4.10218,0,0,0-2.12749-5.08225,2.96431,2.96431,0,0,0-3.44642.734,2.3706,2.3706,0,0,0-.43412.852,3.72566,3.72566,0,0,1,.6128-2.25228,3.67117,3.67117,0,0,1,.99469-.99684v-.49858H25.51053V98.571a3.67146,3.67146,0,0,1,.99473.99684,3.72571,3.72571,0,0,1,.61279,2.25239,2.37077,2.37077,0,0,0-.43416-.85211,2.96426,2.96426,0,0,0-3.44641-.734A4.10222,4.10222,0,0,0,21.11,105.31639Z"/><path d="M65.89005,21.68361c-.619-1.94938-2.42029-3.04039-3.8315-4.369A12.43537,12.43537,0,0,1,59.5,13.89607a12.43554,12.43554,0,0,1-2.55854,3.41851c-1.41122,1.32864-3.21243,2.41965-3.83147,4.369a4.10218,4.10218,0,0,0,2.12749,5.08225,2.96431,2.96431,0,0,0,3.44642-.734,2.3706,2.3706,0,0,0,.43412-.852,3.72566,3.72566,0,0,1-.6128,2.25228,3.67117,3.67117,0,0,1-.99469.99684v.49858h3.97894V28.429a3.67146,3.67146,0,0,1-.99473-.99684,3.72571,3.72571,0,0,1-.61279-2.25239,2.37077,2.37077,0,0,0,.43416.85211,2.96426,2.96426,0,0,0,3.44641.734A4.10222,4.10222,0,0,0,65.89005,21.68361Z"/><path d="M53.11,105.31639c.619,1.94938,2.42029,3.04039,3.8315,4.369A12.43537,12.43537,0,0,1,59.5,113.10393a12.43554,12.43554,0,0,1,2.55854-3.41851c1.41122-1.32864,3.21243-2.41965,3.83147-4.369a4.10218,4.10218,0,0,0-2.12749-5.08225,2.96431,2.96431,0,0,0-3.44642.734,2.3706,2.3706,0,0,0-.43412.852,3.72566,3.72566,0,0,1,.6128-2.25228,3.67117,3.67117,0,0,1,.99469-.99684v-.49858H57.51055V98.571a3.67146,3.67146,0,0,1,.99473.99684,3.72571,3.72571,0,0,1,.61279,2.25239,2.37077,2.37077,0,0,0-.43416-.85211,2.96426,2.96426,0,0,0-3.44641-.734A4.10222,4.10222,0,0,0,53.11,105.31639Z"/><path d="M33.89,63.77179c-.619-1.94938-2.42029-3.04039-3.8315-4.369A12.43533,12.43533,0,0,1,27.5,55.98426a12.43549,12.43549,0,0,1-2.55854,3.4185c-1.41122,1.32864-3.21243,2.41965-3.83147,4.369A4.10217,4.10217,0,0,0,23.23746,68.854a2.9643,2.9643,0,0,0,3.44642-.734,2.3706,2.3706,0,0,0,.43412-.852,3.72565,3.72565,0,0,1-.6128,2.25227,3.67107,3.67107,0,0,1-.99469.99685v.49857h3.97894v-.49857a3.67136,3.67136,0,0,1-.99473-.99685,3.72569,3.72569,0,0,1-.61279-2.25239,2.37073,2.37073,0,0,0,.43416.85212,2.96426,2.96426,0,0,0,3.44641.734A4.10221,4.10221,0,0,0,33.89,63.77179Z"/><path d="M65.89005,63.77179c-.619-1.94938-2.42029-3.04039-3.8315-4.369A12.43533,12.43533,0,0,1,59.5,55.98426a12.43549,12.43549,0,0,1-2.55854,3.4185c-1.41122,1.32864-3.21243,2.41965-3.83147,4.369A4.10217,4.10217,0,0,0,55.23748,68.854a2.9643,2.9643,0,0,0,3.44642-.734,2.3706,2.3706,0,0,0,.43412-.852,3.72565,3.72565,0,0,1-.6128,2.25227,3.67107,3.67107,0,0,1-.99469.99685v.49857h3.97894v-.49857a3.67136,3.67136,0,0,1-.99473-.99685,3.72569,3.72569,0,0,1-.61279-2.25239,2.37073,2.37073,0,0,0,.43416.85212,2.96426,2.96426,0,0,0,3.44641.734A4.10221,4.10221,0,0,0,65.89005,63.77179Z"/><path d="M49.89,42.7277c-.619-1.94938-2.42029-3.04039-3.8315-4.369A12.43537,12.43537,0,0,1,43.5,34.94016a12.43554,12.43554,0,0,1-2.55854,3.41851c-1.41122,1.32864-3.21243,2.41965-3.83147,4.369A4.10218,4.10218,0,0,0,39.23747,47.81a2.96432,2.96432,0,0,0,3.44642-.734,2.37056,2.37056,0,0,0,.43412-.852,3.72566,3.72566,0,0,1-.6128,2.25228,3.67107,3.67107,0,0,1-.99469.99685v.49857h3.97894v-.49857a3.67136,3.67136,0,0,1-.99473-.99685,3.72571,3.72571,0,0,1-.61279-2.25239,2.3709,2.3709,0,0,0,.43416.85212,2.96427,2.96427,0,0,0,3.44641.734A4.10222,4.10222,0,0,0,49.89,42.7277Z"/><path d="M37.11,84.2723c.619,1.94938,2.42029,3.04039,3.8315,4.369A12.43537,12.43537,0,0,1,43.5,92.05984a12.43554,12.43554,0,0,1,2.55854-3.41851c1.41122-1.32864,3.21243-2.41965,3.83147-4.369a4.10218,4.10218,0,0,0-2.12749-5.08225,2.96432,2.96432,0,0,0-3.44642.734,2.37056,2.37056,0,0,0-.43412.852,3.72566,3.72566,0,0,1,.6128-2.25228,3.67107,3.67107,0,0,1,.99469-.99685v-.49857H41.51054v.49857a3.67136,3.67136,0,0,1,.99473.99685,3.72571,3.72571,0,0,1,.61279,2.25239,2.3709,2.3709,0,0,0-.43416-.85212,2.96427,2.96427,0,0,0-3.44641-.734A4.10222,4.10222,0,0,0,37.11,84.2723Z"/></g></svg>