<svg xmlns="http://www.w3.org/2000/svg" viewBox="0 0 87 127"><defs><style>.cls-1{fill:#fff;}.cls-2{fill:#ff3b5c;}</style></defs><title>card-hearts-j</title><g id="artwork"><rect class="cls-1" x="0.00232" width="86.99536" height="127" rx="6"/><path class="cls-2" d="M8.97777,18.92763a4.38429,4.38429,0,0,0,1.18457-.11156.74214.74214,0,0,0,.48731-.46582,3.56153,3.56153,0,0,0,.13671-1.17042V7.78418h1.21583l.01562,9.5718a3.6211,3.6211,0,0,1-.34375,1.79673,1.508,1.508,0,0,1-.95215.72907,7.59258,7.59258,0,0,1-1.74414.15266Z"/><path class="cls-2" d="M11.00252,34.55574a19.0278,19.0278,0,0,1,1.766-2.35955c1.229-1.401,2.82162-2.82022,2.87911-4.83039a2.832,2.832,0,0,0-1.18093-2.47943,2.10249,2.10249,0,0,0-2.50028.12611,2.154,2.154,0,0,0-.72839,1.28484c-.02219.1337-.0557.35393-.23547.35393s-.21327-.22023-.23545-.35393a2.154,2.154,0,0,0-.7284-1.28484,2.10247,2.10247,0,0,0-2.50027-.12611A2.832,2.832,0,0,0,6.35747,27.3658c.05748,2.01017,1.65007,3.42935,2.8791,4.83039A19.02474,19.02474,0,0,1,11.00252,34.55574Z"/><path class="cls-2" d="M78.02465,108.07237a4.33441,4.33441,0,0,0-1.18457.11254.73852.73852,0,0,0-.48731.46484,3.56147,3.56147,0,0,0-.13672,1.17042v9.39565H75.00023l-.01562-9.57278a3.61255,3.61255,0,0,1,.34375-1.79478,1.50626,1.50626,0,0,1,.95215-.73,7.59252,7.59252,0,0,1,1.74414-.15266Z"/><path class="cls-2" d="M75.99748,92.57745a19.0278,19.0278,0,0,1-1.766,2.35955c-1.229,1.401-2.82162,2.82022-2.87911,4.83039a2.832,2.832,0,0,0,1.18093,2.47943,2.10249,2.10249,0,0,0,2.50028-.12611,2.154,2.154,0,0,0,.72839-1.28484c.02219-.1337.0557-.35393.23547-.35393s.21327.22023.23545.35393a2.154,2.154,0,0,0,.7284,1.28484,2.10247,2.10247,0,0,0,2.50027.12611,2.832,2.832,0,0,0,1.18093-2.47943c-.05748-2.01017-1.65007-3.42936-2.8791-4.83039A19.02474,19.02474,0,0,1,75.99748,92.57745Z"/><path class="cls-2" d="M35.31,59.302h-.25l.0011-7.33789h.25a2.54066,2.54066,0,0,0,2.53784-2.53784h.5a3.04188,3.04188,0,0,1-2.78784,3.02759L35.56,58.79859a9.02247,9.02247,0,0,0,8.76147-9.008h.5A9.52226,9.52226,0,0,1,35.31,59.302Z"/><path d="M32.72357,50.26h-.25l-.00012-16.28565h.5l.00012,15.77369a2.49247,2.49247,0,0,0,2.24683-2.52588h.5A2.98553,2.98553,0,0,1,32.72357,50.26Z"/><circle cx="38.1833" cy="40.32591" r="1.11964"/><path d="M35.25922,33.27779a2.92923,2.92923,0,0,1,2.78613,2.04688v-6.186a2.78624,2.78624,0,0,0-2.78564-2.78613h-.00049a2.78593,2.78593,0,0,0-2.78565,2.78613v6.186A2.92819,2.92819,0,0,1,35.25922,33.27779Z"/><path d="M40.82415,33.27779a2.92833,2.92833,0,0,1,2.78613,2.04688v-6.186a2.78593,2.78593,0,0,0-2.78565-2.78613h-.00048a2.78593,2.78593,0,0,0-2.78565,2.78613v6.186A2.92865,2.92865,0,0,1,40.82415,33.27779Z"/><path class="cls-2" d="M38.04193,30.59833a14.37114,14.37114,0,0,0-1.33626-1.78168c-.93-1.05791-2.13506-2.12954-2.17857-3.6474a2.13681,2.13681,0,0,1,.89359-1.8722,1.59357,1.59357,0,0,1,1.89191.09522,1.62568,1.62568,0,0,1,.55116.97018c.01679.101.04215.26725.17817.26725s.16138-.16629.17816-.26725a1.62569,1.62569,0,0,1,.55117-.97018,1.59356,1.59356,0,0,1,1.8919-.09522,2.13681,2.13681,0,0,1,.89359,1.8722c-.0435,1.51786-1.24858,2.58949-2.17856,3.6474A14.37014,14.37014,0,0,0,38.04193,30.59833Z"/><path class="cls-2" d="M35.061,59.29776a8.18613,8.18613,0,0,0,.76134,1.01513A3.54469,3.54469,0,0,1,37.06359,62.391a1.21746,1.21746,0,0,1-.50913,1.0667.90794.90794,0,0,1-1.07792-.05425.92624.92624,0,0,1-.314-.55277c-.00957-.05752-.024-.15226-.10151-.15226s-.09195.09474-.10151.15226a.92629.92629,0,0,1-.314.55277.90794.90794,0,0,1-1.07792.05425,1.21746,1.21746,0,0,1-.50913-1.0667,3.54467,3.54467,0,0,1,1.24124-2.07812A8.18621,8.18621,0,0,0,35.061,59.29776Z"/><rect x="43.58141" y="29.76816" width="5.57585" height="29.18901" rx="2.78792"/><rect x="49.14425" y="33.74511" width="5.57585" height="19.18901" rx="2.78792" transform="translate(103.86435 86.67922) rotate(-180)"/><path class="cls-1" d="M49.19862,43.60978a2.79854,2.79854,0,0,1,2.71362-2.23649,2.79826,2.79826,0,0,0,0-1.12032,2.79821,2.79821,0,0,1-2.71362-2.23649c-.01024,0-.01952-.00288-.02944-.00288a2.79953,2.79953,0,1,0,0,5.59906C49.1791,43.61266,49.18838,43.6101,49.19862,43.60978Z"/><rect class="cls-2" x="50.42906" y="38.00978" width="3.007" height="25.59921" rx="1.5035"/><rect class="cls-1" x="51.80756" y="40.81495" width="0.25" height="22.52075"/><path class="cls-1" d="M51.93256,63.4839A1.38007,1.38007,0,0,1,50.554,62.10548v-22.592a1.37854,1.37854,0,1,1,2.75708,0v22.592A1.38008,1.38008,0,0,1,51.93256,63.4839Zm0-25.09912A1.12987,1.12987,0,0,0,50.804,39.51344v22.592a1.12854,1.12854,0,0,0,2.25708,0v-22.592A1.12987,1.12987,0,0,0,51.93256,38.38478Z"/><path class="cls-2" d="M50.42866,40.80612a5.01773,5.01773,0,0,0-.62207.46656,2.17221,2.17221,0,0,1-1.27349.76065.74609.74609,0,0,1-.65368-.312.5564.5564,0,0,1,.03325-.66056.56763.56763,0,0,1,.33874-.19244c.03525-.00586.09331-.01471.09331-.06221s-.05806-.05634-.09331-.0622a.56758.56758,0,0,1-.33874-.19244.5564.5564,0,0,1-.03325-.66056.74605.74605,0,0,1,.65368-.312,2.1722,2.1722,0,0,1,1.27349.76064A5.01666,5.01666,0,0,0,50.42866,40.80612Z"/><path class="cls-1" d="M51.93833,41.5785a2.69664,2.69664,0,0,0-.25082-.33443,1.16787,1.16787,0,0,1-.40893-.68464.4011.4011,0,0,1,.16773-.35142.29911.29911,0,0,1,.35512.01788.30508.30508,0,0,1,.10346.1821c.00315.019.00791.05017.03344.05017s.03029-.03122.03344-.05017a.30518.30518,0,0,1,.10346-.1821.29911.29911,0,0,1,.35512-.01788.40108.40108,0,0,1,.16773.35142,1.1678,1.1678,0,0,1-.40892.68464A2.69672,2.69672,0,0,0,51.93833,41.5785Z"/><path class="cls-2" d="M51.69,67.698h.25l-.0011,7.33789h-.25a2.54066,2.54066,0,0,0-2.53784,2.53784h-.5a3.04188,3.04188,0,0,1,2.78784-3.02759l.0011-6.34472a9.02247,9.02247,0,0,0-8.76147,9.00805h-.5A9.52226,9.52226,0,0,1,51.69,67.698Z"/><path d="M54.27643,76.74h.25l.00012,16.28565h-.5l-.00012-15.77369a2.49247,2.49247,0,0,0-2.24683,2.52588h-.5A2.98553,2.98553,0,0,1,54.27643,76.74Z"/><circle cx="48.8167" cy="86.67409" r="1.11964"/><path d="M51.74078,93.72221a2.92923,2.92923,0,0,1-2.78613-2.04688v6.186a2.78624,2.78624,0,0,0,2.78564,2.78613h.00049a2.78593,2.78593,0,0,0,2.78565-2.78613v-6.186A2.92819,2.92819,0,0,1,51.74078,93.72221Z"/><path d="M46.17585,93.72221a2.92833,2.92833,0,0,1-2.78613-2.04688v6.186a2.78593,2.78593,0,0,0,2.78565,2.78613h.00048a2.78593,2.78593,0,0,0,2.78565-2.78613v-6.186A2.92865,2.92865,0,0,1,46.17585,93.72221Z"/><path class="cls-2" d="M48.95807,96.40167a14.37114,14.37114,0,0,0,1.33626,1.78168c.93,1.05791,2.13506,2.12954,2.17857,3.6474a2.13681,2.13681,0,0,1-.89359,1.8722,1.59357,1.59357,0,0,1-1.89191-.09522,1.62568,1.62568,0,0,1-.55116-.97018c-.01679-.101-.04215-.26725-.17817-.26725s-.16138.16629-.17816.26725a1.62569,1.62569,0,0,1-.55117.97018,1.59356,1.59356,0,0,1-1.8919.09522,2.13681,2.13681,0,0,1-.89359-1.8722c.0435-1.51786,1.24858-2.58949,2.17856-3.6474A14.37014,14.37014,0,0,0,48.95807,96.40167Z"/><path class="cls-2" d="M51.939,67.70224a8.18613,8.18613,0,0,0-.76134-1.01513A3.54469,3.54469,0,0,1,49.93641,64.609a1.21746,1.21746,0,0,1,.50913-1.0667.90794.90794,0,0,1,1.07792.05425.92624.92624,0,0,1,.314.55277c.00957.05752.024.15226.10151.15226s.09195-.09474.10151-.15226a.92629.92629,0,0,1,.314-.55277.90794.90794,0,0,1,1.07792-.05425,1.21746,1.21746,0,0,1,.50913,1.0667,3.54467,3.54467,0,0,1-1.24124,2.07812A8.18621,8.18621,0,0,0,51.939,67.70224Z"/><rect x="37.84274" y="68.04283" width="5.57585" height="29.18901" rx="2.78792" transform="translate(81.26133 165.27467) rotate(-180)"/><rect x="32.2799" y="74.06589" width="5.57585" height="19.18901" rx="2.78792"/><path class="cls-1" d="M37.80138,83.39022a2.79854,2.79854,0,0,1-2.71362,2.23649,2.79826,2.79826,0,0,0,0,1.12032,2.79821,2.79821,0,0,1,2.71362,2.23649c.01024,0,.01952.00288.02944.00288a2.79953,2.79953,0,1,0,0-5.59906C37.8209,83.38734,37.81162,83.3899,37.80138,83.39022Z"/><rect class="cls-2" x="33.56394" y="63.39101" width="3.007" height="25.59921" rx="1.5035" transform="translate(70.13489 152.38124) rotate(-180)"/><rect class="cls-1" x="34.94244" y="63.6643" width="0.25" height="22.52075"/><path class="cls-1" d="M35.06744,63.5161A1.38007,1.38007,0,0,1,36.446,64.89452v22.592a1.37854,1.37854,0,1,1-2.75708,0v-22.592A1.38008,1.38008,0,0,1,35.06744,63.5161Zm0,25.09912A1.12987,1.12987,0,0,0,36.196,87.48656v-22.592a1.12854,1.12854,0,0,0-2.25708,0v22.592A1.12987,1.12987,0,0,0,35.06744,88.61522Z"/><path class="cls-2" d="M36.57134,86.19388a5.01773,5.01773,0,0,0,.62207-.46656,2.17221,2.17221,0,0,1,1.27349-.76065.74609.74609,0,0,1,.65368.312.5564.5564,0,0,1-.03325.66056.56763.56763,0,0,1-.33874.19244c-.03525.00586-.09331.01471-.09331.06221s.05806.05634.09331.0622a.56758.56758,0,0,1,.33874.19244.5564.5564,0,0,1,.03325.66056.74605.74605,0,0,1-.65368.312,2.1722,2.1722,0,0,1-1.27349-.76064A5.01666,5.01666,0,0,0,36.57134,86.19388Z"/><path class="cls-1" d="M35.06167,85.4215a2.69664,2.69664,0,0,0,.25082.33443,1.16787,1.16787,0,0,1,.40893.68464.4011.4011,0,0,1-.16773.35142.29911.29911,0,0,1-.35512-.01788.30508.30508,0,0,1-.10346-.1821c-.00315-.019-.00791-.05017-.03344-.05017s-.03029.03122-.03344.05017a.30518.30518,0,0,1-.10346.1821.29911.29911,0,0,1-.35512.01788.40108.40108,0,0,1-.16773-.35142,1.1678,1.1678,0,0,1,.40892-.68464A2.69672,2.69672,0,0,0,35.06167,85.4215Z"/></g></svg>