<svg xmlns="http://www.w3.org/2000/svg" viewBox="0 0 87 127"><defs><style>.cls-1{fill:#fff;}</style></defs><title>card-clubs-10</title><g id="artwork"><rect class="cls-1" x="0.00232" width="86.99536" height="127" rx="6"/><path d="M7.42351,9.67669,4.70379,11.47342l-.56055-.93066,3.36035-2.244H8.65594V18.88054H7.42351Z"/><path d="M12.9118,18.5116a3.19731,3.19731,0,0,1-1.27247-1.73117,9.84535,9.84535,0,0,1-.42382-3.19125,9.843,9.843,0,0,1,.42382-3.19028,3.24286,3.24286,0,0,1,1.27247-1.74A3.97071,3.97071,0,0,1,15.072,8.12167,3.37588,3.37588,0,0,1,17.96746,9.389a7.17306,7.17306,0,0,1,.94434,4.2002,9.84532,9.84532,0,0,1-.42383,3.19125,3.19729,3.19729,0,0,1-1.27246,1.73117A3.98745,3.98745,0,0,1,15.072,19.041,4.02247,4.02247,0,0,1,12.9118,18.5116Zm3.63183-.96981a2.45555,2.45555,0,0,0,.832-1.3632,9.8007,9.8007,0,0,0,.27149-2.58941,9.8007,9.8007,0,0,0-.27149-2.58941,2.44914,2.44914,0,0,0-.832-1.36223A2.43531,2.43531,0,0,0,15.072,9.22848a2.43329,2.43329,0,0,0-1.47168.40906,2.4385,2.4385,0,0,0-.832,1.36223,9.79471,9.79471,0,0,0-.27246,2.58941,9.79471,9.79471,0,0,0,.27246,2.58941,2.44485,2.44485,0,0,0,.832,1.3632,2.43322,2.43322,0,0,0,1.47168.40906A2.43524,2.43524,0,0,0,16.54363,17.54179Z"/><path d="M16.21387,30.20638A2.22659,2.22659,0,0,0,14.01752,28.564a2.06817,2.06817,0,0,0-.96644.28782c-.15625.09338-.45.27537-.58474.04607-.122-.20768.10074-.40145.23406-.52944a2.21556,2.21556,0,0,0,.63767-1.18859,2.33125,2.33125,0,0,0-1.0482-2.36158,2.43424,2.43424,0,0,0-2.59572,0A2.33124,2.33124,0,0,0,8.64594,27.1799a2.21562,2.21562,0,0,0,.63766,1.18859c.13334.128.3561.32176.23408.52944-.1348.2293-.42851.04731-.58476-.04607a2.0681,2.0681,0,0,0-.96643-.28782,2.2266,2.2266,0,0,0-2.19636,1.64234A2.40943,2.40943,0,0,0,6.8997,32.90376a2.44044,2.44044,0,0,0,3.5734-1.50665h.19877a2.68923,2.68923,0,0,1-.39755,1.98855,2.64816,2.64816,0,0,1-.71757.71913v.35967h2.8705v-.35967a2.64858,2.64858,0,0,1-.71757-.71913,2.68927,2.68927,0,0,1-.39754-1.98855h.19878a2.44042,2.44042,0,0,0,3.57338,1.50665A2.40943,2.40943,0,0,0,16.21387,30.20638Z"/><path d="M79.57976,117.324l2.71973-1.79673.56055.93066-3.36035,2.244H78.34734V108.12019h1.23242Z"/><path d="M74.09148,108.48913a3.19724,3.19724,0,0,1,1.27246,1.73117,12.2226,12.2226,0,0,1,0,6.38153,3.2428,3.2428,0,0,1-1.27246,1.74,3.97071,3.97071,0,0,1-2.16015.53726,3.37588,3.37588,0,0,1-2.89551-1.26731,7.17306,7.17306,0,0,1-.94434-4.2002,9.845,9.845,0,0,1,.42383-3.19125,3.19724,3.19724,0,0,1,1.27246-1.73117,4.63774,4.63774,0,0,1,4.30371,0Zm-3.63183.9698a2.45561,2.45561,0,0,0-.832,1.36321,12.48435,12.48435,0,0,0,0,5.17882,2.35154,2.35154,0,0,0,4.60742,0,12.44087,12.44087,0,0,0,0-5.17882,2.50955,2.50955,0,0,0-3.77539-1.36321Z"/><path d="M70.78613,96.77759a2.22659,2.22659,0,0,0,2.19635,1.64234,2.06817,2.06817,0,0,0,.96644-.28782c.15625-.09338.45-.27537.58474-.04607.122.20768-.10074.40145-.23406.52945a2.21554,2.21554,0,0,0-.63767,1.18858,2.33125,2.33125,0,0,0,1.0482,2.36158,2.43424,2.43424,0,0,0,2.59572,0,2.33124,2.33124,0,0,0,1.04821-2.36158,2.21559,2.21559,0,0,0-.63766-1.18858c-.13334-.128-.3561-.32177-.23408-.52945.1348-.2293.42851-.04731.58476.04607a2.0681,2.0681,0,0,0,.96643.28782,2.2266,2.2266,0,0,0,2.19636-1.64234,2.40943,2.40943,0,0,0-1.12957-2.69738,2.44046,2.44046,0,0,0-3.5734,1.50665h-.19877a2.68924,2.68924,0,0,1,.39755-1.98855,2.64816,2.64816,0,0,1,.71757-.71913v-.35967h-2.8705v.35967a2.64858,2.64858,0,0,1,.71757.71913,2.68928,2.68928,0,0,1,.39754,1.98855h-.19878a2.44043,2.44043,0,0,0-3.57338-1.50665A2.40943,2.40943,0,0,0,70.78613,96.77759Z"/><path d="M35.3328,22.61894a3.3399,3.3399,0,0,0-3.29454-2.4635,3.102,3.102,0,0,0-1.44965.43173c-.23438.14006-.67493.413-.87712.0691-.18306-.31152.15111-.60217.3511-.79417a3.32335,3.32335,0,0,0,.95651-1.78288,3.4969,3.4969,0,0,0-1.57231-3.54237,3.65139,3.65139,0,0,0-3.89358,0,3.49688,3.49688,0,0,0-1.57231,3.54237,3.32326,3.32326,0,0,0,.95649,1.78288c.2.192.53415.48265.35111.79417-.2022.34395-.64275.071-.87713-.0691a3.102,3.102,0,0,0-1.44965-.43173,3.33989,3.33989,0,0,0-3.29454,2.4635A3.61415,3.61415,0,0,0,21.36154,26.665a3.66068,3.66068,0,0,0,5.3601-2.26h.29815a4.03387,4.03387,0,0,1-.59632,2.98283,3.97221,3.97221,0,0,1-1.07635,1.07869v.5395h4.30575v-.5395a3.97267,3.97267,0,0,1-1.07636-1.07869,4.034,4.034,0,0,1-.59632-2.98283h.29817a3.66065,3.66065,0,0,0,5.36008,2.26A3.61415,3.61415,0,0,0,35.3328,22.61894Z"/><path d="M67.33282,22.61894a3.3399,3.3399,0,0,0-3.29454-2.4635,3.102,3.102,0,0,0-1.44965.43173c-.23438.14006-.67493.413-.87712.0691-.18306-.31152.15111-.60217.3511-.79417a3.32335,3.32335,0,0,0,.95651-1.78288,3.4969,3.4969,0,0,0-1.57231-3.54237,3.65139,3.65139,0,0,0-3.89358,0,3.49688,3.49688,0,0,0-1.57231,3.54237,3.32332,3.32332,0,0,0,.95649,1.78288c.2.192.53415.48265.35111.79417-.2022.34395-.64275.071-.87713-.0691a3.102,3.102,0,0,0-1.44965-.43173,3.33989,3.33989,0,0,0-3.29454,2.4635A3.61415,3.61415,0,0,0,53.36156,26.665a3.66068,3.66068,0,0,0,5.3601-2.26h.29815a4.03387,4.03387,0,0,1-.59632,2.98283,3.97221,3.97221,0,0,1-1.07635,1.07869v.5395h4.30575v-.5395a3.97267,3.97267,0,0,1-1.07636-1.07869,4.034,4.034,0,0,1-.59632-2.98283h.29817a3.66065,3.66065,0,0,0,5.36008,2.26A3.61415,3.61415,0,0,0,67.33282,22.61894Z"/><path d="M19.66718,104.38106a3.3399,3.3399,0,0,0,3.29454,2.4635,3.102,3.102,0,0,0,1.44965-.43173c.23438-.14006.67493-.413.87712-.0691.18306.31152-.15111.60217-.3511.79417a3.32335,3.32335,0,0,0-.95651,1.78288,3.4969,3.4969,0,0,0,1.57231,3.54237,3.65139,3.65139,0,0,0,3.89358,0,3.49688,3.49688,0,0,0,1.57231-3.54237,3.32332,3.32332,0,0,0-.95649-1.78288c-.2-.192-.53415-.48265-.35111-.79417.2022-.34395.64275-.071.87713.0691a3.102,3.102,0,0,0,1.44965.43173,3.33989,3.33989,0,0,0,3.29454-2.4635,3.61415,3.61415,0,0,0-1.69436-4.04607,3.66068,3.66068,0,0,0-5.3601,2.26h-.29815a4.03387,4.03387,0,0,1,.59632-2.98283,3.97221,3.97221,0,0,1,1.07635-1.07869v-.5395H25.34711v.5395a3.97267,3.97267,0,0,1,1.07636,1.07869,4.034,4.034,0,0,1,.59632,2.98283h-.29817a3.66065,3.66065,0,0,0-5.36008-2.26A3.61415,3.61415,0,0,0,19.66718,104.38106Z"/><path d="M51.6672,104.38106a3.3399,3.3399,0,0,0,3.29454,2.4635,3.102,3.102,0,0,0,1.44965-.43173c.23438-.14006.67493-.413.87712-.0691.18306.31152-.15111.60217-.3511.79417a3.32335,3.32335,0,0,0-.95651,1.78288,3.4969,3.4969,0,0,0,1.57231,3.54237,3.65139,3.65139,0,0,0,3.89358,0,3.49688,3.49688,0,0,0,1.57231-3.54237,3.32326,3.32326,0,0,0-.95649-1.78288c-.2-.192-.53415-.48265-.35111-.79417.2022-.34395.64275-.071.87713.0691a3.102,3.102,0,0,0,1.44965.43173,3.33989,3.33989,0,0,0,3.29454-2.4635,3.61415,3.61415,0,0,0-1.69436-4.04607,3.66068,3.66068,0,0,0-5.3601,2.26h-.29815a4.03387,4.03387,0,0,1,.59632-2.98283,3.97221,3.97221,0,0,1,1.07635-1.07869v-.5395H57.34713v.5395a3.97267,3.97267,0,0,1,1.07636,1.07869,4.034,4.034,0,0,1,.59632,2.98283h-.29817a3.66065,3.66065,0,0,0-5.36008-2.26A3.61415,3.61415,0,0,0,51.6672,104.38106Z"/><path d="M35.3328,50.62539a3.33991,3.33991,0,0,0-3.29454-2.4635,3.102,3.102,0,0,0-1.44965.43173c-.23438.14006-.67493.413-.87712.0691-.18306-.31152.15111-.60217.3511-.79417a3.32336,3.32336,0,0,0,.95651-1.78287,3.49691,3.49691,0,0,0-1.57231-3.54238,3.65139,3.65139,0,0,0-3.89358,0,3.49689,3.49689,0,0,0-1.57231,3.54238,3.32326,3.32326,0,0,0,.95649,1.78287c.2.192.53415.48265.35111.79417-.2022.34395-.64275.071-.87713-.0691a3.102,3.102,0,0,0-1.44965-.43173,3.3399,3.3399,0,0,0-3.29454,2.4635,3.61415,3.61415,0,0,0,1.69436,4.04607,3.66068,3.66068,0,0,0,5.3601-2.26h.29815a4.03387,4.03387,0,0,1-.59632,2.98283A3.97207,3.97207,0,0,1,25.34712,56.473v.53951h4.30575V56.473a3.97253,3.97253,0,0,1-1.07636-1.07869,4.034,4.034,0,0,1-.59632-2.98283h.29817a3.66065,3.66065,0,0,0,5.36008,2.26A3.61415,3.61415,0,0,0,35.3328,50.62539Z"/><path d="M67.33282,50.62539a3.33991,3.33991,0,0,0-3.29454-2.4635,3.102,3.102,0,0,0-1.44965.43173c-.23438.14006-.67493.413-.87712.0691-.18306-.31152.15111-.60217.3511-.79417a3.32336,3.32336,0,0,0,.95651-1.78287,3.49691,3.49691,0,0,0-1.57231-3.54238,3.65139,3.65139,0,0,0-3.89358,0,3.49689,3.49689,0,0,0-1.57231,3.54238,3.32333,3.32333,0,0,0,.95649,1.78287c.2.192.53415.48265.35111.79417-.2022.34395-.64275.071-.87713-.0691a3.102,3.102,0,0,0-1.44965-.43173,3.3399,3.3399,0,0,0-3.29454,2.4635,3.61415,3.61415,0,0,0,1.69436,4.04607,3.66068,3.66068,0,0,0,5.3601-2.26h.29815a4.03387,4.03387,0,0,1-.59632,2.98283A3.97207,3.97207,0,0,1,57.34714,56.473v.53951h4.30575V56.473a3.97253,3.97253,0,0,1-1.07636-1.07869,4.034,4.034,0,0,1-.59632-2.98283h.29817a3.66065,3.66065,0,0,0,5.36008,2.26A3.61415,3.61415,0,0,0,67.33282,50.62539Z"/><path d="M51.6672,76.37461a3.33991,3.33991,0,0,0,3.29454,2.4635,3.102,3.102,0,0,0,1.44965-.43173c.23438-.14006.67493-.413.87712-.0691.18306.31152-.15111.60217-.3511.79417a3.32336,3.32336,0,0,0-.95651,1.78287,3.49691,3.49691,0,0,0,1.57231,3.54238,3.65139,3.65139,0,0,0,3.89358,0,3.49689,3.49689,0,0,0,1.57231-3.54238,3.32326,3.32326,0,0,0-.95649-1.78287c-.2-.192-.53415-.48265-.35111-.79417.2022-.344.64275-.071.87713.0691a3.102,3.102,0,0,0,1.44965.43173,3.3399,3.3399,0,0,0,3.29454-2.4635,3.61415,3.61415,0,0,0-1.69436-4.04607,3.66068,3.66068,0,0,0-5.3601,2.26h-.29815a4.03387,4.03387,0,0,1,.59632-2.98283A3.97207,3.97207,0,0,1,61.65288,70.527v-.53951H57.34713V70.527a3.97253,3.97253,0,0,1,1.07636,1.07869,4.034,4.034,0,0,1,.59632,2.98283h-.29817a3.66065,3.66065,0,0,0-5.36008-2.26A3.61415,3.61415,0,0,0,51.6672,76.37461Z"/><path d="M19.66718,76.37461a3.33991,3.33991,0,0,0,3.29454,2.4635,3.102,3.102,0,0,0,1.44965-.43173c.23438-.14006.67493-.413.87712-.0691.18306.31152-.15111.60217-.3511.79417a3.32336,3.32336,0,0,0-.95651,1.78287,3.49691,3.49691,0,0,0,1.57231,3.54238,3.65139,3.65139,0,0,0,3.89358,0,3.49689,3.49689,0,0,0,1.57231-3.54238,3.32333,3.32333,0,0,0-.95649-1.78287c-.2-.192-.53415-.48265-.35111-.79417.2022-.344.64275-.071.87713.0691a3.102,3.102,0,0,0,1.44965.43173,3.3399,3.3399,0,0,0,3.29454-2.4635,3.61415,3.61415,0,0,0-1.69436-4.04607,3.66068,3.66068,0,0,0-5.3601,2.26h-.29815a4.03387,4.03387,0,0,1,.59632-2.98283A3.97207,3.97207,0,0,1,29.65286,70.527v-.53951H25.34711V70.527a3.97253,3.97253,0,0,1,1.07636,1.07869,4.034,4.034,0,0,1,.59632,2.98283h-.29817a3.66065,3.66065,0,0,0-5.36008-2.26A3.61415,3.61415,0,0,0,19.66718,76.37461Z"/><path d="M51.33281,36.56983a3.3399,3.3399,0,0,0-3.29454-2.4635,3.102,3.102,0,0,0-1.44965.43173c-.23438.14006-.67493.413-.87712.0691-.18306-.31153.15111-.60218.3511-.79417a3.32342,3.32342,0,0,0,.95651-1.78288,3.49688,3.49688,0,0,0-1.57231-3.54237,3.65139,3.65139,0,0,0-3.89358,0,3.49687,3.49687,0,0,0-1.57231,3.54237A3.32333,3.32333,0,0,0,40.9374,33.813c.2.192.53415.48264.35111.79417-.2022.34395-.64275.071-.87713-.0691a3.102,3.102,0,0,0-1.44965-.43173,3.33989,3.33989,0,0,0-3.29454,2.4635,3.61415,3.61415,0,0,0,1.69436,4.04607,3.66068,3.66068,0,0,0,5.3601-2.26h.29815a4.03384,4.03384,0,0,1-.59632,2.98282,3.97224,3.97224,0,0,1-1.07635,1.0787v.5395h4.30575v-.5395a3.9727,3.9727,0,0,1-1.07636-1.0787,4.03393,4.03393,0,0,1-.59632-2.98282h.29817a3.66065,3.66065,0,0,0,5.36008,2.26A3.61415,3.61415,0,0,0,51.33281,36.56983Z"/><path d="M35.66719,90.43017a3.3399,3.3399,0,0,0,3.29454,2.4635,3.102,3.102,0,0,0,1.44965-.43173c.23438-.14006.67493-.413.87712-.0691.18306.31153-.15111.60218-.3511.79417a3.32342,3.32342,0,0,0-.95651,1.78288,3.49688,3.49688,0,0,0,1.57231,3.54237,3.65139,3.65139,0,0,0,3.89358,0,3.49687,3.49687,0,0,0,1.57231-3.54237A3.32333,3.32333,0,0,0,46.0626,93.187c-.2-.192-.53415-.48264-.35111-.79417.2022-.344.64275-.071.87713.0691a3.102,3.102,0,0,0,1.44965.43173,3.33989,3.33989,0,0,0,3.29454-2.4635,3.61415,3.61415,0,0,0-1.69436-4.04607,3.66068,3.66068,0,0,0-5.3601,2.26H43.9802a4.03384,4.03384,0,0,1,.59632-2.98282,3.97224,3.97224,0,0,1,1.07635-1.0787V84.043H41.34712v.5395a3.9727,3.9727,0,0,1,1.07636,1.0787,4.03393,4.03393,0,0,1,.59632,2.98282h-.29817a3.66065,3.66065,0,0,0-5.36008-2.26A3.61415,3.61415,0,0,0,35.66719,90.43017Z"/></g></svg>