<svg xmlns="http://www.w3.org/2000/svg" viewBox="0 0 115 167"><defs><style>.cls-1{fill:#fff;}.cls-2{fill:#ff3b5c;}</style></defs><title>card-diamonds-9</title><g id="artwork"><rect class="cls-1" width="115" height="167" rx="8"/><path class="cls-2" d="M36.34946,38.00563q-2.22282-2.72364-4.70927-5.216-2.48291-2.48778-5.20508-4.71915,2.71793-2.22739,5.20508-4.7191,2.48283-2.48812,4.70927-5.216,2.22273,2.72364,4.70922,5.216,2.48289,2.488,5.20508,4.7191-2.71794,2.22747-5.20508,4.71915Q38.57618,35.27765,36.34946,38.00563Z"/><path class="cls-2" d="M78.65059,38.00563q-2.2228-2.72364-4.70927-5.216-2.48291-2.48778-5.20508-4.71915,2.71793-2.22739,5.20508-4.7191,2.48283-2.48812,4.70927-5.216,2.22273,2.72364,4.70922,5.216,2.48289,2.488,5.20508,4.7191-2.71793,2.22747-5.20508,4.71915Q80.87731,35.27765,78.65059,38.00563Z"/><path class="cls-2" d="M36.34946,148.86464q-2.22282-2.72364-4.70927-5.216-2.48291-2.48778-5.20508-4.71915,2.71793-2.2274,5.20508-4.7191,2.48283-2.48812,4.70927-5.216,2.22273,2.72364,4.70922,5.216,2.48289,2.488,5.20508,4.7191-2.71794,2.22747-5.20508,4.71915Q38.57618,146.13667,36.34946,148.86464Z"/><path class="cls-2" d="M78.65059,148.86464q-2.2228-2.72364-4.70927-5.216-2.48291-2.48778-5.20508-4.71915,2.71793-2.2274,5.20508-4.7191,2.48283-2.48812,4.70927-5.216,2.22273,2.72364,4.70922,5.216,2.48289,2.488,5.20508,4.7191-2.71793,2.22747-5.20508,4.71915Q80.87731,146.13667,78.65059,148.86464Z"/><path class="cls-2" d="M36.34946,74.95863q-2.22282-2.72362-4.70927-5.216-2.48291-2.48779-5.20508-4.71916,2.71793-2.2274,5.20508-4.7191,2.48283-2.48811,4.70927-5.216,2.22273,2.72362,4.70922,5.216,2.48289,2.488,5.20508,4.7191-2.71794,2.22747-5.20508,4.71916Q38.57618,72.23065,36.34946,74.95863Z"/><path class="cls-2" d="M78.65059,74.95863q-2.2228-2.72362-4.70927-5.216-2.48291-2.48779-5.20508-4.71916,2.71793-2.2274,5.20508-4.7191,2.48283-2.48811,4.70927-5.216,2.22273,2.72362,4.70922,5.216,2.48289,2.488,5.20508,4.7191-2.71793,2.22747-5.20508,4.71916Q80.87731,72.23065,78.65059,74.95863Z"/><path class="cls-2" d="M36.34946,111.91163q-2.22282-2.72363-4.70927-5.216-2.48291-2.48778-5.20508-4.71915,2.71793-2.22739,5.20508-4.71911,2.48283-2.48811,4.70927-5.216,2.22273,2.72362,4.70922,5.216,2.48289,2.488,5.20508,4.71911-2.71794,2.22747-5.20508,4.71915Q38.57618,109.18367,36.34946,111.91163Z"/><path class="cls-2" d="M78.65059,111.91163q-2.2228-2.72363-4.70927-5.216-2.48291-2.48778-5.20508-4.71915,2.71793-2.22739,5.20508-4.71911,2.48283-2.48811,4.70927-5.216,2.22273,2.72362,4.70922,5.216,2.48289,2.488,5.20508,4.71911-2.71793,2.22747-5.20508,4.71915Q80.87731,109.18367,78.65059,111.91163Z"/><path class="cls-2" d="M57.5,93.43513q-2.22282-2.72362-4.70927-5.216Q50.30786,85.73133,47.58568,83.5q2.71791-2.22738,5.20508-4.7191,2.48282-2.48811,4.70927-5.216,2.22271,2.72362,4.70921,5.216,2.48291,2.488,5.20508,4.7191-2.71793,2.22747-5.20508,4.71916Q59.72674,90.70717,57.5,93.43513Z"/><path class="cls-2" d="M10.55464,24.43254l-.54994-.08538.14846-1.31434a27.80773,27.80773,0,0,0,3.68043.25485q3.80694,0,3.84955-4.87572a10.76661,10.76661,0,0,1-3.63784.80593q-4.56987,0-4.56859-4.25994A4.4677,4.4677,0,0,1,10.787,11.566a4.91214,4.91214,0,0,1,3.53327-1.24965q5.054,0,5.054,7.4604,0,3.62478-1.37354,5.28839a5.09685,5.09685,0,0,1-4.16712,1.66362A19.60222,19.60222,0,0,1,10.55464,24.43254Zm6.59922-7.22885.54993-.19016q-.0639-5.25669-3.38352-5.256a3.07761,3.07761,0,0,0-2.31592.859,3.21061,3.21061,0,0,0-.83523,2.34148q0,2.81754,3.00269,2.81883A9.3027,9.3027,0,0,0,17.15386,17.20369Z"/><path class="cls-2" d="M104.37149,142.56746l.54993.08538-.14716,1.31434a27.83774,27.83774,0,0,0-3.68044-.25485q-3.80888,0-3.84954,4.87572a10.76021,10.76021,0,0,1,3.63783-.80593q4.56795,0,4.56859,4.25994a4.46847,4.46847,0,0,1-1.31158,3.39192,4.9068,4.9068,0,0,1-3.532,1.24965q-5.054,0-5.05527-7.4604,0-3.62478,1.37484-5.28839a5.09512,5.09512,0,0,1,4.16711-1.66362A19.58759,19.58759,0,0,1,104.37149,142.56746Zm-6.59922,7.22885-.54994.19016q.0639,5.25669,3.38481,5.25605a3.08156,3.08156,0,0,0,2.31593-.859,3.21061,3.21061,0,0,0,.83523-2.34148q0-2.81754-3.004-2.81883A9.309,9.309,0,0,0,97.77227,149.79631Z"/><path class="cls-2" d="M14.53018,45.15377Q13.0483,43.338,11.39066,41.67643q-1.65526-1.65852-3.47005-3.1461,1.81194-1.48494,3.47005-3.14607,1.65522-1.65874,3.13952-3.47734,1.48181,1.81576,3.13947,3.47734,1.65527,1.65868,3.47006,3.14607-1.812,1.485-3.47006,3.1461Q16.01466,43.33512,14.53018,45.15377Z"/><path class="cls-2" d="M100.46986,135.01819q-1.48188-1.81575-3.13951-3.47734-1.65528-1.65852-3.47006-3.1461,1.812-1.48492,3.47006-3.14607,1.65521-1.65874,3.13951-3.47733,1.48182,1.81575,3.13948,3.47733,1.65527,1.65869,3.47005,3.14607-1.812,1.485-3.47005,3.1461Q101.95433,133.19953,100.46986,135.01819Z"/></g></svg>