<svg xmlns="http://www.w3.org/2000/svg" viewBox="0 0 115 167"><defs><style>.cls-1{fill:#fff;}.cls-2{fill:#ff3b5c;}</style></defs><title>card-diamonds-6</title><g id="artwork"><rect class="cls-1" width="115" height="167" rx="8"/><path class="cls-2" d="M9.66485,17.46206A8.5411,8.5411,0,0,1,11.072,12.08987a4.868,4.868,0,0,1,4.04964-1.7696,20.06257,20.06257,0,0,1,3.2583.25354l.57059.10607-.14845,1.335a27.961,27.961,0,0,0-3.70109-.25353,3.30454,3.30454,0,0,0-2.77033,1.24958,5.72808,5.72808,0,0,0-.97336,3.58319l.52928-.21215a10.57442,10.57442,0,0,1,1.4794-.42429,7.10083,7.10083,0,0,1,1.4807-.19145q4.69573,0,4.6951,4.3451a4.45774,4.45774,0,0,1-1.27931,3.42278,5.07718,5.07718,0,0,1-3.60556,1.19784Q9.66486,24.73191,9.66485,17.46206Zm7.35054,5.01258a3.09649,3.09649,0,0,0,.83523-2.32067,2.81971,2.81971,0,0,0-.80424-2.19389,3.30759,3.30759,0,0,0-2.3056-.73086,6.94458,6.94458,0,0,0-1.50135.19015,11.25824,11.25824,0,0,0-1.41744.4036l-.48539.21214a7.795,7.795,0,0,0,.83523,3.86777,2.61873,2.61873,0,0,0,2.39984,1.388A3.36489,3.36489,0,0,0,17.01539,22.47464Z"/><path class="cls-2" d="M105.25544,149.53794a8.54963,8.54963,0,0,1-1.40582,5.37219,4.86891,4.86891,0,0,1-4.05093,1.7696,20.04646,20.04646,0,0,1-3.257-.25354l-.57059-.10607.14846-1.335a27.927,27.927,0,0,0,3.69979.25353,3.30538,3.30538,0,0,0,2.77162-1.24958,5.72816,5.72816,0,0,0,.97207-3.58319l-.528.21215a10.648,10.648,0,0,1-1.48069.42429,7.10083,7.10083,0,0,1-1.48069.19145q-4.69575,0-4.69511-4.3451a4.45774,4.45774,0,0,1,1.27931-3.42278,5.07843,5.07843,0,0,1,3.60685-1.19784Q105.25479,142.26809,105.25544,149.53794Zm-7.34925-5.01258A3.09148,3.09148,0,0,0,97.071,146.846a2.81915,2.81915,0,0,0,.803,2.19389,3.30973,3.30973,0,0,0,2.30559.73086,6.92532,6.92532,0,0,0,1.50135-.19015,11.19424,11.19424,0,0,0,1.41744-.4036l.48668-.21214a7.82321,7.82321,0,0,0-.83523-3.86777,2.61932,2.61932,0,0,0-2.40113-1.388A3.36159,3.36159,0,0,0,97.90619,144.52536Z"/><path class="cls-2" d="M14.53018,45.156q-1.48188-1.81566-3.13952-3.47715Q9.7354,40.02041,7.92061,38.53291q1.81194-1.48485,3.47005-3.1459,1.65522-1.65866,3.13952-3.47715Q16.012,33.72552,17.66965,35.387q1.65527,1.65859,3.47006,3.1459-1.812,1.4849-3.47006,3.14593Q16.01466,43.33745,14.53018,45.156Z"/><path class="cls-2" d="M100.46986,135.01562Q98.988,133.2,97.33035,131.53847q-1.65528-1.65843-3.47006-3.14593,1.812-1.48485,3.47006-3.1459,1.65521-1.65865,3.13951-3.47715,1.48182,1.81566,3.13948,3.47715,1.65527,1.65859,3.47005,3.1459-1.812,1.4849-3.47005,3.14593Q101.95433,133.19708,100.46986,135.01562Z"/><path class="cls-2" d="M36.34946,38.00805q-2.22282-2.72347-4.70927-5.21572-2.48291-2.48766-5.20508-4.7189,2.71793-2.22727,5.20508-4.71885,2.48283-2.488,4.70927-5.21573,2.22273,2.72349,4.70922,5.21573,2.48289,2.4879,5.20508,4.71885-2.71794,2.22735-5.20508,4.7189Q38.57618,35.28023,36.34946,38.00805Z"/><path class="cls-2" d="M36.34946,148.86115q-2.22282-2.72349-4.70927-5.21573-2.48291-2.48765-5.20508-4.7189,2.71793-2.22728,5.20508-4.71885,2.48283-2.488,4.70927-5.21572,2.22273,2.72348,4.70922,5.21572,2.48289,2.4879,5.20508,4.71885-2.71794,2.22735-5.20508,4.7189Q38.57618,146.13332,36.34946,148.86115Z"/><path class="cls-2" d="M78.65059,38.00805q-2.2228-2.72347-4.70927-5.21572-2.48291-2.48766-5.20508-4.7189,2.71793-2.22727,5.20508-4.71885,2.48283-2.488,4.70927-5.21573,2.22273,2.72349,4.70922,5.21573,2.48289,2.4879,5.20508,4.71885-2.71793,2.22735-5.20508,4.7189Q80.87731,35.28023,78.65059,38.00805Z"/><path class="cls-2" d="M78.65059,148.86115q-2.2228-2.72349-4.70927-5.21573-2.48291-2.48765-5.20508-4.7189,2.71793-2.22728,5.20508-4.71885,2.48283-2.488,4.70927-5.21572,2.22273,2.72348,4.70922,5.21572,2.48289,2.4879,5.20508,4.71885-2.71793,2.22735-5.20508,4.7189Q80.87731,146.13332,78.65059,148.86115Z"/><path class="cls-2" d="M36.34946,93.4346q-2.22282-2.72349-4.70927-5.21572Q29.15729,85.73122,26.43511,83.5q2.71793-2.22728,5.20508-4.71885,2.48283-2.488,4.70927-5.21572,2.22273,2.72349,4.70922,5.21572Q43.54157,81.269,46.26376,83.5q-2.71794,2.22737-5.20508,4.71891Q38.57618,90.70678,36.34946,93.4346Z"/><path class="cls-2" d="M78.65059,93.4346q-2.2228-2.72349-4.70927-5.21572Q71.45842,85.73122,68.73624,83.5q2.71793-2.22728,5.20508-4.71885,2.48283-2.488,4.70927-5.21572,2.22273,2.72349,4.70922,5.21572Q85.8427,81.269,88.56489,83.5q-2.71793,2.22737-5.20508,4.71891Q80.87731,90.70678,78.65059,93.4346Z"/></g></svg>