<svg xmlns="http://www.w3.org/2000/svg" viewBox="0 0 87 127"><defs><style>.cls-1{fill:#fff;}.cls-2{fill:#ff3b5c;}</style></defs><title>card-clubs-j</title><g id="artwork"><rect class="cls-1" x="0.00232" width="86.99536" height="127" rx="6"/><path d="M8.968,18.92861a4.37457,4.37457,0,0,0,1.18457-.11254.74069.74069,0,0,0,.4873-.46484,3.56151,3.56151,0,0,0,.13672-1.17042V7.78515h1.21582L12.008,17.357a3.61674,3.61674,0,0,1-.34375,1.79575,1.50954,1.50954,0,0,1-.95214.73005,7.65894,7.65894,0,0,1-1.74414.15168Z"/><path d="M16.21387,30.20624a2.2266,2.2266,0,0,0-2.19635-1.64233,2.068,2.068,0,0,0-.96644.28781c-.15625.09338-.45.27537-.58474.04607-.122-.20768.10074-.40145.23406-.52944a2.21556,2.21556,0,0,0,.63767-1.18859,2.33125,2.33125,0,0,0-1.0482-2.36158,2.43424,2.43424,0,0,0-2.59572,0,2.33124,2.33124,0,0,0-1.04821,2.36158,2.21562,2.21562,0,0,0,.63766,1.18859c.13334.128.3561.32176.23408.52944-.1348.2293-.42851.04731-.58476-.04607a2.068,2.068,0,0,0-.96643-.28781,2.2266,2.2266,0,0,0-2.19636,1.64233A2.40943,2.40943,0,0,0,6.8997,32.90362,2.44044,2.44044,0,0,0,10.4731,31.397h.19877a2.68923,2.68923,0,0,1-.39755,1.98855,2.648,2.648,0,0,1-.71757.71913v.35967h2.8705v-.35967a2.64844,2.64844,0,0,1-.71757-.71913,2.68927,2.68927,0,0,1-.39754-1.98855h.19878a2.44042,2.44042,0,0,0,3.57338,1.50665A2.40943,2.40943,0,0,0,16.21387,30.20624Z"/><path d="M78.03636,108.07139a4.38439,4.38439,0,0,0-1.18457.11156.74212.74212,0,0,0-.4873.46582,3.56151,3.56151,0,0,0-.13672,1.17042v9.39566H75.012l-.01562-9.57181a3.621,3.621,0,0,1,.34375-1.79673,1.508,1.508,0,0,1,.95214-.72907,7.59264,7.59264,0,0,1,1.74414-.15266Z"/><path d="M70.78613,96.77746a2.2266,2.2266,0,0,0,2.19635,1.64233,2.06805,2.06805,0,0,0,.96644-.28782c.15625-.09337.45-.27537.58474-.04607.122.20769-.10074.40145-.23406.52945a2.21554,2.21554,0,0,0-.63767,1.18858,2.33125,2.33125,0,0,0,1.0482,2.36158,2.43424,2.43424,0,0,0,2.59572,0,2.33124,2.33124,0,0,0,1.04821-2.36158,2.21559,2.21559,0,0,0-.63766-1.18858c-.13334-.128-.3561-.32176-.23408-.52945.1348-.2293.42851-.0473.58476.04607a2.068,2.068,0,0,0,.96643.28782,2.2266,2.2266,0,0,0,2.19636-1.64233,2.40943,2.40943,0,0,0-1.12957-2.69738,2.44045,2.44045,0,0,0-3.5734,1.50664h-.19877a2.68925,2.68925,0,0,1,.39755-1.98855,2.64816,2.64816,0,0,1,.71757-.71913v-.35967h-2.8705V92.879a2.64858,2.64858,0,0,1,.71757.71913,2.68929,2.68929,0,0,1,.39754,1.98855h-.19878a2.44042,2.44042,0,0,0-3.57338-1.50664A2.40943,2.40943,0,0,0,70.78613,96.77746Z"/><rect x="43.25112" y="49.13029" width="0.5" height="5.74609"/><path d="M43.50112,63.50212a8.88387,8.88387,0,0,1-8.8739-8.87378h.5a8.37384,8.37384,0,0,0,16.74768,0h.5A8.88376,8.88376,0,0,1,43.50112,63.50212Z"/><path d="M50.41494,49.39274h-.5a1.71,1.71,0,0,0-3.41992,0h-.5a2.21,2.21,0,0,1,4.41992,0Z"/><circle cx="48.84092" cy="48.33935" r="0.64806"/><path d="M41.00711,49.39274h-.5a1.71,1.71,0,0,0-3.41993,0h-.5a2.21,2.21,0,0,1,4.41993,0Z"/><circle cx="39.43311" cy="48.33935" r="0.64806"/><rect class="cls-2" x="40.15884" y="57.33268" width="6.68445" height="0.5"/><path class="cls-2" d="M40.15884,57.80949a1.11964,1.11964,0,0,0,2.23928,0Z"/><path d="M37.92081,42.38113A2.92833,2.92833,0,0,0,35.13467,44.428V38.242a2.78593,2.78593,0,0,1,2.78565-2.78614h.00049A2.78593,2.78593,0,0,1,40.70645,38.242v6.186A2.92861,2.92861,0,0,0,37.92081,42.38113Z"/><path d="M43.49307,42.38113A2.92922,2.92922,0,0,0,40.70694,44.428V38.242a2.78624,2.78624,0,0,1,2.78564-2.78614h.00049A2.78593,2.78593,0,0,1,46.27872,38.242v6.186A2.92818,2.92818,0,0,0,43.49307,42.38113Z"/><path d="M49.06583,42.38113A2.92879,2.92879,0,0,0,46.27969,44.428V38.242a2.78593,2.78593,0,0,1,2.78565-2.78614h.00049A2.78593,2.78593,0,0,1,51.85147,38.242v6.186A2.92861,2.92861,0,0,0,49.06583,42.38113Z"/><path class="cls-2" d="M37.92081,34.0004a2.92833,2.92833,0,0,1-2.78614-2.04687v6.186a2.78592,2.78592,0,0,0,2.78565,2.78613h.00049a2.78592,2.78592,0,0,0,2.78564-2.78613v-6.186A2.92861,2.92861,0,0,1,37.92081,34.0004Z"/><path class="cls-2" d="M43.49307,34.0004a2.92922,2.92922,0,0,1-2.78613-2.04687v6.186a2.78623,2.78623,0,0,0,2.78564,2.78613h.00049a2.78592,2.78592,0,0,0,2.78565-2.78613v-6.186A2.92818,2.92818,0,0,1,43.49307,34.0004Z"/><path class="cls-2" d="M49.06583,34.0004a2.92879,2.92879,0,0,1-2.78614-2.04687v6.186a2.78592,2.78592,0,0,0,2.78565,2.78613h.00049a2.78592,2.78592,0,0,0,2.78564-2.78613v-6.186A2.92861,2.92861,0,0,1,49.06583,34.0004Z"/><path d="M44.68784,36.88549a.50932.50932,0,0,0-.50253-.375.47393.47393,0,0,0-.22112.06572c-.03575.02132-.10295.06287-.13379.01052-.02792-.04742.02305-.09166.05356-.12089a.50557.50557,0,0,0,.1459-.27138.53187.53187,0,0,0-.23983-.5392.55794.55794,0,0,0-.59391,0,.53183.53183,0,0,0-.23983.5392.50557.50557,0,0,0,.1459.27138c.03051.02923.08147.07347.05355.12089-.03084.05235-.098.0108-.13379-.01052a.4739.4739,0,0,0-.22112-.06572.50932.50932,0,0,0-.50253.375.54966.54966,0,0,0,.25845.61588.55871.55871,0,0,0,.8176-.344h.04547a.6129.6129,0,0,1-.091.454.60517.60517,0,0,1-.16418.16419v.08212h.65678v-.08212a.60531.60531,0,0,1-.16418-.16419.613.613,0,0,1-.091-.454h.04548a.5587.5587,0,0,0,.8176.344A.54967.54967,0,0,0,44.68784,36.88549Z"/><path d="M48.082,30.47749a.77161.77161,0,0,0-.76134-.56811.718.718,0,0,0-.335.09956c-.05416.0323-.156.09526-.20269.01594-.0423-.07184.03492-.13887.08113-.18314a.76585.76585,0,0,0,.221-.41115.80576.80576,0,0,0-.36335-.8169.84534.84534,0,0,0-.89978,0,.80576.80576,0,0,0-.36335.8169.766.766,0,0,0,.221.41115c.04622.04427.12344.1113.08114.18314-.04673.07932-.14854.01636-.2027-.01594a.718.718,0,0,0-.335-.09956.77161.77161,0,0,0-.76134.56811.83274.83274,0,0,0,.39155.93306.84646.84646,0,0,0,1.23868-.52117h.0689a.92864.92864,0,0,1-.13781.68786.917.917,0,0,1-.24873.24876v.12441h.995V31.826a.9172.9172,0,0,1-.24874-.24876.92868.92868,0,0,1-.1378-.68786h.0689a.84645.84645,0,0,0,1.23868.52117A.83274.83274,0,0,0,48.082,30.47749Z"/><path d="M42.52438,30.47749a.77163.77163,0,0,0-.76134-.56811.718.718,0,0,0-.335.09956c-.05416.0323-.156.09526-.20269.01594-.04231-.07184.03492-.13887.08113-.18314a.7659.7659,0,0,0,.221-.41115.80576.80576,0,0,0-.36334-.8169.84534.84534,0,0,0-.89978,0,.80575.80575,0,0,0-.36335.8169.7659.7659,0,0,0,.221.41115c.04622.04427.12344.1113.08114.18314-.04673.07932-.14854.01636-.2027-.01594a.718.718,0,0,0-.335-.09956.77163.77163,0,0,0-.76134.56811.83276.83276,0,0,0,.39156.93306.84644.84644,0,0,0,1.23867-.52117h.0689a.92863.92863,0,0,1-.1378.68786.91692.91692,0,0,1-.24874.24876v.12441h.995V31.826a.91706.91706,0,0,1-.24874-.24876.92863.92863,0,0,1-.1378-.68786h.0689a.84644.84644,0,0,0,1.23867.52117A.83275.83275,0,0,0,42.52438,30.47749Z"/><rect x="51.82868" y="41.17118" width="5.57585" height="20.10595" rx="2.78792"/><rect x="29.55649" y="41.17118" width="5.57585" height="20.10595" rx="2.78792"/><rect class="cls-2" x="53.14854" y="37.65303" width="3.007" height="25.59921" rx="1.5035" transform="translate(109.30409 100.90526) rotate(180)"/><rect class="cls-1" x="54.527" y="37.99675" width="0.25" height="24.98218"/><path class="cls-1" d="M54.652,63.12712a1.38008,1.38008,0,0,1-1.37854-1.37842v-22.592a1.37854,1.37854,0,1,1,2.75708,0v22.592A1.38007,1.38007,0,0,1,54.652,63.12712Zm0-25.09912a1.12987,1.12987,0,0,0-1.12854,1.12866v22.592a1.12854,1.12854,0,0,0,2.25708,0v-22.592A1.12987,1.12987,0,0,0,54.652,38.028Z"/><circle class="cls-1" cx="54.65551" cy="36.78727" r="2.788"/><path d="M54.6553,34.49919a2.28809,2.28809,0,1,1-2.2876,2.28808,2.2906,2.2906,0,0,1,2.2876-2.28808m0-.5a2.78809,2.78809,0,1,0,2.78809,2.78808,2.788,2.788,0,0,0-2.78809-2.78808Z"/><path d="M55.85028,36.88549a.50932.50932,0,0,0-.50253-.375.47393.47393,0,0,0-.22112.06572c-.03575.02132-.10295.06287-.13379.01052-.02792-.04742.023-.09166.05355-.12089a.50552.50552,0,0,0,.14591-.27138.53186.53186,0,0,0-.23984-.5392.55792.55792,0,0,0-.5939,0,.53183.53183,0,0,0-.23983.5392.5055.5055,0,0,0,.1459.27138c.0305.02923.08147.07347.05355.12089-.03084.05235-.098.0108-.13379-.01052a.4739.4739,0,0,0-.22112-.06572.50932.50932,0,0,0-.50253.375.54966.54966,0,0,0,.25845.61588.55871.55871,0,0,0,.8176-.344h.04547a.61294.61294,0,0,1-.091.454.60517.60517,0,0,1-.16418.16419v.08212h.65678v-.08212a.60531.60531,0,0,1-.16418-.16419.613.613,0,0,1-.091-.454h.04548a.5587.5587,0,0,0,.8176.344A.54967.54967,0,0,0,55.85028,36.88549Z"/><rect x="43.24888" y="72.12361" width="0.5" height="5.74609"/><path d="M43.49888,63.49788a8.88387,8.88387,0,0,1,8.8739,8.87378h-.5a8.37384,8.37384,0,0,0-16.74768,0h-.5A8.88376,8.88376,0,0,1,43.49888,63.49788Z"/><path d="M36.58506,77.60726h.5a1.71,1.71,0,0,0,3.41992,0h.5a2.21,2.21,0,0,1-4.41992,0Z"/><circle cx="38.15908" cy="78.66065" r="0.64806"/><path d="M45.99289,77.60726h.5a1.71,1.71,0,0,0,3.41993,0h.5a2.21,2.21,0,0,1-4.41993,0Z"/><circle cx="47.56689" cy="78.66065" r="0.64806"/><rect class="cls-2" x="40.15671" y="69.16732" width="6.68445" height="0.5"/><path class="cls-2" d="M46.84116,69.19051a1.11964,1.11964,0,1,0-2.23928,0Z"/><path d="M49.07919,84.61887A2.92833,2.92833,0,0,0,51.86533,82.572v6.186a2.78593,2.78593,0,0,1-2.78565,2.78614h-.00049A2.78593,2.78593,0,0,1,46.29355,88.758V82.572A2.92861,2.92861,0,0,0,49.07919,84.61887Z"/><path d="M43.50693,84.61887A2.92922,2.92922,0,0,0,46.29306,82.572v6.186a2.78624,2.78624,0,0,1-2.78564,2.78614h-.00049A2.78593,2.78593,0,0,1,40.72128,88.758V82.572A2.92818,2.92818,0,0,0,43.50693,84.61887Z"/><path d="M37.93417,84.61887A2.92879,2.92879,0,0,0,40.72031,82.572v6.186a2.78593,2.78593,0,0,1-2.78565,2.78614h-.00049A2.78593,2.78593,0,0,1,35.14853,88.758V82.572A2.92861,2.92861,0,0,0,37.93417,84.61887Z"/><path class="cls-2" d="M49.07919,92.9996a2.92833,2.92833,0,0,1,2.78614,2.04687v-6.186a2.78592,2.78592,0,0,0-2.78565-2.78613h-.00049a2.78592,2.78592,0,0,0-2.78564,2.78613v6.186A2.92861,2.92861,0,0,1,49.07919,92.9996Z"/><path class="cls-2" d="M43.50693,92.9996a2.92922,2.92922,0,0,1,2.78613,2.04687v-6.186a2.78623,2.78623,0,0,0-2.78564-2.78613h-.00049a2.78592,2.78592,0,0,0-2.78565,2.78613v6.186A2.92818,2.92818,0,0,1,43.50693,92.9996Z"/><path class="cls-2" d="M37.93417,92.9996a2.92879,2.92879,0,0,1,2.78614,2.04687v-6.186a2.78592,2.78592,0,0,0-2.78565-2.78613h-.00049a2.78592,2.78592,0,0,0-2.78564,2.78613v6.186A2.92861,2.92861,0,0,1,37.93417,92.9996Z"/><path d="M42.31216,90.11451a.50932.50932,0,0,0,.50253.375.47393.47393,0,0,0,.22112-.06572c.03575-.02132.10295-.06287.13379-.01052.02792.04742-.02305.09166-.05356.12089a.50557.50557,0,0,0-.1459.27138.53187.53187,0,0,0,.23983.5392.55794.55794,0,0,0,.59391,0,.53183.53183,0,0,0,.23983-.5392.50557.50557,0,0,0-.1459-.27138c-.03051-.02923-.08147-.07347-.05355-.12089.03084-.05235.098-.0108.13379.01052a.4739.4739,0,0,0,.22112.06572.50932.50932,0,0,0,.50253-.375.54966.54966,0,0,0-.25845-.61588.55871.55871,0,0,0-.8176.344h-.04547a.6129.6129,0,0,1,.091-.454.60517.60517,0,0,1,.16418-.16419v-.08212h-.65678v.08212a.60531.60531,0,0,1,.16418.16419.613.613,0,0,1,.091.454H43.3882a.5587.5587,0,0,0-.8176-.344A.54967.54967,0,0,0,42.31216,90.11451Z"/><path d="M38.918,96.52251a.77161.77161,0,0,0,.76134.56811.718.718,0,0,0,.335-.09956c.05416-.0323.156-.09526.20269-.01594.0423.07184-.03492.13887-.08113.18314a.76585.76585,0,0,0-.221.41115.80576.80576,0,0,0,.36335.8169.84534.84534,0,0,0,.89978,0,.80576.80576,0,0,0,.36335-.8169.766.766,0,0,0-.221-.41115c-.04622-.04427-.12344-.1113-.08114-.18314.04673-.07932.14854-.01636.2027.01594a.718.718,0,0,0,.335.09956.77161.77161,0,0,0,.76134-.56811.83274.83274,0,0,0-.39155-.93306.84646.84646,0,0,0-1.23868.52117h-.0689a.92864.92864,0,0,1,.13781-.68786.917.917,0,0,1,.24873-.24876v-.12441h-.995V95.174a.9172.9172,0,0,1,.24874.24876.92868.92868,0,0,1,.1378.68786h-.0689a.84645.84645,0,0,0-1.23868-.52117A.83274.83274,0,0,0,38.918,96.52251Z"/><path d="M44.47562,96.52251a.77163.77163,0,0,0,.76134.56811.718.718,0,0,0,.335-.09956c.05416-.0323.156-.09526.20269-.01594.04231.07184-.03492.13887-.08113.18314a.7659.7659,0,0,0-.221.41115.80576.80576,0,0,0,.36334.8169.84534.84534,0,0,0,.89978,0,.80575.80575,0,0,0,.36335-.8169.7659.7659,0,0,0-.221-.41115c-.04622-.04427-.12344-.1113-.08114-.18314.04673-.07932.14854-.01636.2027.01594a.718.718,0,0,0,.335.09956.77163.77163,0,0,0,.76134-.56811.83276.83276,0,0,0-.39156-.93306.84644.84644,0,0,0-1.23867.52117h-.0689a.92863.92863,0,0,1,.1378-.68786.91692.91692,0,0,1,.24874-.24876v-.12441h-.995V95.174a.91706.91706,0,0,1,.24874.24876.92863.92863,0,0,1,.1378.68786h-.0689a.84644.84644,0,0,0-1.23867-.52117A.83275.83275,0,0,0,44.47562,96.52251Z"/><rect x="29.59548" y="65.72286" width="5.57585" height="20.10595" rx="2.78792" transform="translate(64.7668 151.55168) rotate(-180)"/><rect x="51.86766" y="65.72286" width="5.57585" height="20.10595" rx="2.78792" transform="translate(109.31118 151.55168) rotate(-180)"/><rect class="cls-2" x="30.84445" y="63.74777" width="3.007" height="25.59921" rx="1.5035"/><rect class="cls-1" x="32.223" y="64.02108" width="0.25" height="24.98218"/><path class="cls-1" d="M32.348,63.87288a1.38008,1.38008,0,0,1,1.37854,1.37842v22.592a1.37854,1.37854,0,1,1-2.75708,0V65.2513A1.38007,1.38007,0,0,1,32.348,63.87288Zm0,25.09912a1.12987,1.12987,0,0,0,1.12854-1.12866V65.2513a1.12854,1.12854,0,0,0-2.25708,0v22.592A1.12987,1.12987,0,0,0,32.348,88.972Z"/><circle class="cls-1" cx="32.34449" cy="90.21273" r="2.788"/><path d="M32.3447,92.50081a2.28809,2.28809,0,1,1,2.2876-2.28808,2.2906,2.2906,0,0,1-2.2876,2.28808m0,.5a2.78809,2.78809,0,1,0-2.78809-2.78808,2.788,2.788,0,0,0,2.78809,2.78808Z"/><path d="M31.14972,90.11451a.50932.50932,0,0,0,.50253.375.47393.47393,0,0,0,.22112-.06572c.03575-.02132.10295-.06287.13379-.01052.02792.04742-.023.09166-.05355.12089a.50552.50552,0,0,0-.14591.27138.53186.53186,0,0,0,.23984.5392.55792.55792,0,0,0,.5939,0,.53183.53183,0,0,0,.23983-.5392.5055.5055,0,0,0-.1459-.27138c-.0305-.02923-.08147-.07347-.05355-.12089.03084-.05235.098-.0108.13379.01052a.4739.4739,0,0,0,.22112.06572.50932.50932,0,0,0,.50253-.375.54966.54966,0,0,0-.25845-.61588.55871.55871,0,0,0-.8176.344h-.04547a.61294.61294,0,0,1,.091-.454.60517.60517,0,0,1,.16418-.16419v-.08212H32.0161v.08212a.60531.60531,0,0,1,.16418.16419.613.613,0,0,1,.091.454h-.04548a.5587.5587,0,0,0-.8176-.344A.54967.54967,0,0,0,31.14972,90.11451Z"/></g></svg>