<svg xmlns="http://www.w3.org/2000/svg" viewBox="0 0 87 127"><defs><style>.cls-1{fill:#fff;}.cls-2{fill:#ff3b5c;}</style></defs><title>card-diamonds-5</title><g id="artwork"><rect class="cls-1" width="87" height="127" rx="6"/><path class="cls-2" d="M8.04806,18.67173l-.52834-.11254.14453-.97764a16.60223,16.60223,0,0,0,3.10369.3523,2.5609,2.5609,0,0,0,1.88-.641,2.4551,2.4551,0,0,0,.64847-1.82805,2.09849,2.09849,0,0,0-.56839-1.64309,2.44423,2.44423,0,0,0-1.672-.505,5.014,5.014,0,0,0-1.16022.15169,5.726,5.726,0,0,0-1.01568.32881l-.336.16049-.84867-.16049.2881-5.4998h6.16048V9.4209h-5.136L8.72,12.86758a5.21871,5.21871,0,0,1,2.47963-.65763q3.36052,0,3.36053,3.12667a3.77813,3.77813,0,0,1-.92,2.73326,3.46586,3.46586,0,0,1-2.61635.95513A13.89683,13.89683,0,0,1,8.04806,18.67173Z"/><path class="cls-2" d="M78.89266,108.32827l.52737.11254-.14356.97764a16.60267,16.60267,0,0,0-3.10466-.3523,2.564,2.564,0,0,0-1.88.641,2.45857,2.45857,0,0,0-.6475,1.82805,2.10176,2.10176,0,0,0,.56742,1.64309,2.447,2.447,0,0,0,1.67294.505,5.01279,5.01279,0,0,0,1.15924-.15169,5.71321,5.71321,0,0,0,1.01666-.32881l.33595-.16049.8477.16049-.2881,5.4998H72.79566V117.5791h5.136l.28908-3.44668a5.22526,5.22526,0,0,1-2.4806.65763q-3.36053,0-3.36053-3.12667a3.77843,3.77843,0,0,1,.92095-2.73326,3.46352,3.46352,0,0,1,2.61537-.95513A13.89815,13.89815,0,0,1,78.89266,108.32827Z"/><path class="cls-2" d="M10.99239,34.49173q-1.12107-1.37359-2.37511-2.63054-1.25224-1.25464-2.62517-2.38,1.37078-1.12332,2.62517-2.37994,1.25222-1.25481,2.37511-2.63054,1.121,1.37358,2.37509,2.63054,1.25225,1.25477,2.62517,2.37994-1.37079,1.12335-2.62517,2.38Q12.11543,33.116,10.99239,34.49173Z"/><path class="cls-2" d="M76.00763,102.47249q-1.12107-1.37358-2.37511-2.63054-1.25224-1.25464-2.62517-2.38,1.37077-1.12332,2.62517-2.37994,1.25222-1.25481,2.37511-2.63054,1.121,1.37358,2.37509,2.63054Q79.635,96.33681,81.00789,97.462q-1.37079,1.12337-2.62517,2.38Q77.13067,101.09672,76.00763,102.47249Z"/><path class="cls-2" d="M43.5,71.01574q-1.6816-2.06037-3.56266-3.94581Q38.059,65.188,35.9996,63.5q2.05617-1.685,3.93776-3.56991,1.8783-1.88222,3.56266-3.94581,1.68154,2.06037,3.56262,3.94581Q48.941,61.81221,51.0004,63.5q-2.05617,1.685-3.93776,3.56995Q45.18458,68.95209,43.5,71.01574Z"/><path class="cls-2" d="M27.49916,29.08435q-1.68161-2.06037-3.56267-3.94581-1.87837-1.882-3.93775-3.56995,2.05615-1.685,3.93775-3.56991,1.87832-1.88221,3.56267-3.94581,1.68153,2.06037,3.56262,3.94581,1.87838,1.88216,3.93776,3.56991-2.05617,1.685-3.93776,3.56995Q29.18372,27.0207,27.49916,29.08435Z"/><path class="cls-2" d="M27.49916,112.94713q-1.68161-2.06037-3.56267-3.94581-1.87837-1.882-3.93775-3.57,2.05615-1.685,3.93775-3.56991,1.87832-1.88221,3.56267-3.94581,1.68153,2.06037,3.56262,3.94581,1.87838,1.88214,3.93776,3.56991-2.05617,1.685-3.93776,3.57Q29.18372,110.88348,27.49916,112.94713Z"/><path class="cls-2" d="M59.50088,29.08435q-1.68161-2.06037-3.56266-3.94581-1.87838-1.882-3.93776-3.56995,2.05617-1.685,3.93776-3.56991,1.8783-1.88221,3.56266-3.94581,1.68154,2.06037,3.56263,3.94581,1.87836,1.88216,3.93775,3.56991-2.05617,1.685-3.93775,3.56995Q61.18545,27.0207,59.50088,29.08435Z"/><path class="cls-2" d="M59.50088,112.94713q-1.68161-2.06037-3.56266-3.94581-1.87838-1.882-3.93776-3.57,2.05617-1.685,3.93776-3.56991,1.8783-1.88221,3.56266-3.94581,1.68154,2.06037,3.56263,3.94581,1.87836,1.88214,3.93775,3.56991-2.05617,1.685-3.93775,3.57Q61.18545,110.88348,59.50088,112.94713Z"/></g></svg>