<svg xmlns="http://www.w3.org/2000/svg" viewBox="0 0 115 167"><defs><style>.cls-1{fill:#fff;}</style></defs><title>card-clubs-a</title><g id="artwork"><rect class="cls-1" width="115" height="167" rx="8"/><path d="M67.85426,84.99185a4.415,4.415,0,0,0-4.35508-3.25635,4.10088,4.10088,0,0,0-1.91631.57067c-.30982.18514-.8922.546-1.15946.09135-.242-.41179.19975-.796.46411-1.04976a4.39288,4.39288,0,0,0,1.26442-2.35668,4.62223,4.62223,0,0,0-2.07845-4.68245,4.827,4.827,0,0,0-5.147,0,4.62219,4.62219,0,0,0-2.07844,4.68245,4.39276,4.39276,0,0,0,1.26439,2.35668c.26439.25378.7061.638.46414,1.04976-.26729.45464-.84967.09379-1.15949-.09135a4.10078,4.10078,0,0,0-1.91632-.57067,4.415,4.415,0,0,0-4.35507,3.25635,4.77723,4.77723,0,0,0,2.23979,5.34826,4.83916,4.83916,0,0,0,7.08556-2.98732h.39412a5.33181,5.33181,0,0,1-.78828,3.94282,5.25079,5.25079,0,0,1-1.42283,1.42586v.71313h5.69181v-.71313a5.25152,5.25152,0,0,1-1.42284-1.42586,5.33194,5.33194,0,0,1-.78828-3.94282h.39415a4.83912,4.83912,0,0,0,7.08553,2.98732A4.77721,4.77721,0,0,0,67.85426,84.99185Z"/><path d="M17.65776,20.74643H11.39741l-1.05727,3.77334H8.73229L12.75094,9.85329h3.55393l4.01865,14.66648H18.71567ZM11.75693,19.2847h5.542l-2.221-8.03306H13.978Z"/><path d="M21.43021,39.49044a2.94335,2.94335,0,0,0-2.90339-2.1709A2.734,2.734,0,0,0,17.24928,37.7c-.20655.12343-.5948.364-.773.0609-.16133-.27453.13316-.53066.3094-.69985a2.92847,2.92847,0,0,0,.84295-1.57111A3.08148,3.08148,0,0,0,16.243,32.3683a3.218,3.218,0,0,0-3.43131,0,3.08147,3.08147,0,0,0-1.38563,3.12163A2.92851,2.92851,0,0,0,12.269,37.061c.17626.16919.47073.42532.30942.69985-.17819.30309-.56644.06253-.773-.0609a2.73389,2.73389,0,0,0-1.27754-.38045,2.94336,2.94336,0,0,0-2.90339,2.1709,3.18482,3.18482,0,0,0,1.4932,3.5655,3.22609,3.22609,0,0,0,4.72371-1.99154h.26275a3.55453,3.55453,0,0,1-.52553,2.62854,3.50035,3.50035,0,0,1-.94855.95058v.47542h3.79454v-.47542a3.50081,3.50081,0,0,1-.94856-.95058,3.55458,3.55458,0,0,1-.52552-2.62854h.26277A3.22606,3.22606,0,0,0,19.937,43.05594,3.18481,3.18481,0,0,0,21.43021,39.49044Z"/><path d="M97.34154,146.25228h6.261l1.05727-3.77205H106.267l-4.01866,14.66648H98.69572l-4.01866-14.66648h1.60721Zm5.90082,1.463H97.7017l2.2204,8.03177H101.022Z"/><path d="M93.56979,127.48688a2.94335,2.94335,0,0,0,2.90339,2.1709,2.734,2.734,0,0,0,1.27754-.38045c.20655-.12343.5948-.364.773-.0609.16133.27453-.13316.53065-.3094.69984a2.92853,2.92853,0,0,0-.843,1.57112A3.08148,3.08148,0,0,0,98.757,134.609a3.218,3.218,0,0,0,3.43131,0,3.08147,3.08147,0,0,0,1.38563-3.12163,2.92857,2.92857,0,0,0-.84293-1.57112c-.17626-.16919-.47073-.42531-.30942-.69984.17819-.30309.56644-.06253.773.0609a2.73389,2.73389,0,0,0,1.27754.38045,2.94336,2.94336,0,0,0,2.90339-2.1709,3.18484,3.18484,0,0,0-1.4932-3.56551,3.2261,3.2261,0,0,0-4.72371,1.99155h-.26275a3.55456,3.55456,0,0,1,.52553-2.62855,3.50045,3.50045,0,0,1,.94855-.95057v-.47542H98.57536v.47542a3.50091,3.50091,0,0,1,.94856.95057,3.5546,3.5546,0,0,1,.52552,2.62855h-.26277a3.22607,3.22607,0,0,0-4.72369-1.99155A3.18483,3.18483,0,0,0,93.56979,127.48688Z"/></g></svg>