<svg xmlns="http://www.w3.org/2000/svg" viewBox="0 0 115 167"><defs><style>.cls-1{fill:#fff;}</style></defs><title>card-spades-6</title><g id="artwork"><rect class="cls-1" width="115" height="167" rx="8"/><path d="M20.16919,38.785c-.54553-1.71785-2.13293-2.67927-3.37659-3.8501a10.95844,10.95844,0,0,1-2.25478-3.01248A10.95844,10.95844,0,0,1,12.283,34.93486c-1.24367,1.17083-2.831,2.13225-3.37656,3.8501a3.61486,3.61486,0,0,0,1.87489,4.47861,2.61246,2.61246,0,0,0,3.03724-.64681,2.089,2.089,0,0,0,.38258-.75081,3.2831,3.2831,0,0,1-.54,1.98476,3.23524,3.23524,0,0,1-.8766.87845v.43936h3.50653v-.43936a3.23549,3.23549,0,0,1-.87663-.87845,3.283,3.283,0,0,1-.54-1.98486,2.08913,2.08913,0,0,0,.38261.75091,2.61243,2.61243,0,0,0,3.03723.64681A3.61491,3.61491,0,0,0,20.16919,38.785Z"/><path d="M9.673,17.46206a8.54963,8.54963,0,0,1,1.40582-5.37219,4.86894,4.86894,0,0,1,4.05093-1.7696,20.04646,20.04646,0,0,1,3.257.25354l.57059.10607-.14845,1.33561a27.82066,27.82066,0,0,0-3.6998-.25418,3.30411,3.30411,0,0,0-2.77162,1.25023,5.724,5.724,0,0,0-.97207,3.58189l.528-.21215a10.65631,10.65631,0,0,1,1.48069-.42364,7.05121,7.05121,0,0,1,1.4807-.1908q4.69574,0,4.6951,4.34445a4.45774,4.45774,0,0,1-1.27931,3.42278,5.07841,5.07841,0,0,1-3.60685,1.19784Q9.67365,24.73191,9.673,17.46206Zm7.34925,5.01258a3.09345,3.09345,0,0,0,.83523-2.32067,2.81918,2.81918,0,0,0-.80295-2.19389,3.30978,3.30978,0,0,0-2.3056-.73086,6.92547,6.92547,0,0,0-1.50135.19015,11.30432,11.30432,0,0,0-1.41744.4036l-.48668.21149a7.82145,7.82145,0,0,0,.83523,3.86777,2.61872,2.61872,0,0,0,2.40113,1.38865A3.3588,3.3588,0,0,0,17.02225,22.47464Z"/><path d="M94.83081,128.21466c.54553,1.71784,2.13293,2.67927,3.37659,3.8501a10.95844,10.95844,0,0,1,2.25478,3.01248,10.95844,10.95844,0,0,1,2.25478-3.01248c1.24367-1.17083,2.831-2.13226,3.37656-3.8501a3.61485,3.61485,0,0,0-1.87489-4.47861,2.61246,2.61246,0,0,0-3.03724.64681,2.089,2.089,0,0,0-.38258.75081,3.28311,3.28311,0,0,1,.54-1.98477,3.2352,3.2352,0,0,1,.8766-.87844v-.43936H98.70892v.43936a3.23545,3.23545,0,0,1,.87663.87844,3.28306,3.28306,0,0,1,.54,1.98487,2.08905,2.08905,0,0,0-.38261-.75091,2.61243,2.61243,0,0,0-3.03723-.64681A3.6149,3.6149,0,0,0,94.83081,128.21466Z"/><path d="M105.32684,149.53794a8.54957,8.54957,0,0,1-1.40582,5.37219,4.87058,4.87058,0,0,1-4.05093,1.7696,20.04646,20.04646,0,0,1-3.257-.25354l-.57059-.10607.14717-1.335a27.98,27.98,0,0,0,3.70238.25353,3.30455,3.30455,0,0,0,2.77033-1.24958,5.73628,5.73628,0,0,0,.97336-3.58319l-.52928.21215a10.64882,10.64882,0,0,1-1.48069.42429,7.10083,7.10083,0,0,1-1.4807.19145q-4.69382,0-4.6951-4.3451a4.46242,4.46242,0,0,1,1.27931-3.42278,5.0784,5.0784,0,0,1,3.60685-1.19784Q105.32814,142.26809,105.32684,149.53794Zm-7.34925-5.01258a3.09649,3.09649,0,0,0-.83523,2.32067,2.81918,2.81918,0,0,0,.803,2.19389,3.312,3.312,0,0,0,2.3056.73086,6.94582,6.94582,0,0,0,1.50264-.19015,11.29482,11.29482,0,0,0,1.41614-.4036l.48668-.21214a7.80908,7.80908,0,0,0-.83523-3.86777,2.622,2.622,0,0,0-2.40112-1.388A3.35954,3.35954,0,0,0,97.97759,144.52536Z"/><path d="M44.79648,28.22546c-.8183-2.57677-3.19939-4.01891-5.06489-5.77515a16.438,16.438,0,0,1-3.38217-4.51872,16.43777,16.43777,0,0,1-3.38216,4.51872c-1.8655,1.75624-4.24654,3.19838-5.06485,5.77515a5.42228,5.42228,0,0,0,2.81234,6.71791,3.91867,3.91867,0,0,0,4.55585-.97022,3.13338,3.13338,0,0,0,.57388-1.12621,4.92462,4.92462,0,0,1-.81006,2.97715,4.85291,4.85291,0,0,1-1.3149,1.31767v.659h5.2598v-.659a4.8531,4.8531,0,0,1-1.315-1.31767,4.92462,4.92462,0,0,1-.81-2.97729,3.13376,3.13376,0,0,0,.57392,1.12635,3.91863,3.91863,0,0,0,4.55585.97022A5.42235,5.42235,0,0,0,44.79648,28.22546Z"/><path d="M27.90238,138.77454c.81831,2.57677,3.1994,4.01891,5.0649,5.77515a16.43777,16.43777,0,0,1,3.38216,4.51872,16.438,16.438,0,0,1,3.38217-4.51872c1.8655-1.75624,4.24654-3.19838,5.06485-5.77515a5.42228,5.42228,0,0,0-2.81235-6.71791,3.91867,3.91867,0,0,0-4.55585.97022,3.13336,3.13336,0,0,0-.57387,1.12621,4.92455,4.92455,0,0,1,.81006-2.97715,4.853,4.853,0,0,1,1.31489-1.31767v-.659H33.71955v.659a4.85324,4.85324,0,0,1,1.315,1.31767,4.92462,4.92462,0,0,1,.81,2.97729,3.13376,3.13376,0,0,0-.57392-1.12635,3.91864,3.91864,0,0,0-4.55585-.97022A5.42235,5.42235,0,0,0,27.90238,138.77454Z"/><path d="M87.09762,28.22546c-.81831-2.57677-3.1994-4.01891-5.0649-5.77515a16.43777,16.43777,0,0,1-3.38216-4.51872,16.438,16.438,0,0,1-3.38217,4.51872c-1.8655,1.75624-4.24654,3.19838-5.06485,5.77515a5.42228,5.42228,0,0,0,2.81235,6.71791,3.91867,3.91867,0,0,0,4.55585-.97022,3.13336,3.13336,0,0,0,.57387-1.12621,4.92455,4.92455,0,0,1-.81006,2.97715,4.853,4.853,0,0,1-1.31489,1.31767v.659h5.25979v-.659a4.85324,4.85324,0,0,1-1.31495-1.31767,4.92462,4.92462,0,0,1-.81005-2.97729,3.13376,3.13376,0,0,0,.57392,1.12635,3.91864,3.91864,0,0,0,4.55585.97022A5.42235,5.42235,0,0,0,87.09762,28.22546Z"/><path d="M70.20352,138.77454c.8183,2.57677,3.19939,4.01891,5.06489,5.77515a16.438,16.438,0,0,1,3.38217,4.51872,16.43777,16.43777,0,0,1,3.38216-4.51872c1.8655-1.75624,4.24654-3.19838,5.06485-5.77515a5.42228,5.42228,0,0,0-2.81234-6.71791,3.91867,3.91867,0,0,0-4.55585.97022,3.13338,3.13338,0,0,0-.57388,1.12621,4.92462,4.92462,0,0,1,.81006-2.97715,4.85291,4.85291,0,0,1,1.3149-1.31767v-.659h-5.2598v.659a4.8531,4.8531,0,0,1,1.31495,1.31767,4.92462,4.92462,0,0,1,.81005,2.97729,3.13376,3.13376,0,0,0-.57392-1.12635,3.91863,3.91863,0,0,0-4.55585-.97022A5.42235,5.42235,0,0,0,70.20352,138.77454Z"/><path d="M44.79648,83.85927c-.8183-2.57677-3.19939-4.01891-5.06489-5.77516a16.43781,16.43781,0,0,1-3.38217-4.51871,16.43758,16.43758,0,0,1-3.38216,4.51871c-1.8655,1.75625-4.24654,3.19839-5.06485,5.77516a5.42229,5.42229,0,0,0,2.81234,6.71791A3.91868,3.91868,0,0,0,35.2706,89.607a3.13338,3.13338,0,0,0,.57388-1.12621,4.92464,4.92464,0,0,1-.81006,2.97715,4.85305,4.85305,0,0,1-1.3149,1.31767v.659h5.2598v-.659a4.85324,4.85324,0,0,1-1.315-1.31767,4.92465,4.92465,0,0,1-.81-2.9773,3.13373,3.13373,0,0,0,.57392,1.12636,3.91865,3.91865,0,0,0,4.55585.97022A5.42235,5.42235,0,0,0,44.79648,83.85927Z"/><path d="M87.09762,83.85927c-.81831-2.57677-3.1994-4.01891-5.0649-5.77516a16.43758,16.43758,0,0,1-3.38216-4.51871,16.43781,16.43781,0,0,1-3.38217,4.51871c-1.8655,1.75625-4.24654,3.19839-5.06485,5.77516a5.42228,5.42228,0,0,0,2.81235,6.71791,3.91868,3.91868,0,0,0,4.55585-.97022,3.13336,3.13336,0,0,0,.57387-1.12621,4.92457,4.92457,0,0,1-.81006,2.97715,4.85316,4.85316,0,0,1-1.31489,1.31767v.659h5.25979v-.659A4.85338,4.85338,0,0,1,79.9655,91.4579a4.92465,4.92465,0,0,1-.81005-2.9773,3.13373,3.13373,0,0,0,.57392,1.12636,3.91865,3.91865,0,0,0,4.55585.97022A5.42236,5.42236,0,0,0,87.09762,83.85927Z"/></g></svg>