<svg xmlns="http://www.w3.org/2000/svg" viewBox="0 0 115 167"><defs><style>.cls-1{fill:#fff;}.cls-2{fill:#ff3b5c;}</style></defs><title>card-spades-j</title><g id="artwork"><rect class="cls-1" width="115" height="167" rx="8"/><path d="M20.16919,38.78247c-.54553-1.71794-2.13293-2.67942-3.37659-3.85031a10.95888,10.95888,0,0,1-2.25478-3.01264A10.95888,10.95888,0,0,1,12.283,34.93216c-1.24367,1.17089-2.831,2.13237-3.37656,3.85031a3.61511,3.61511,0,0,0,1.87489,4.47884,2.61235,2.61235,0,0,0,3.03724-.64684,2.0892,2.0892,0,0,0,.38258-.75085,3.28341,3.28341,0,0,1-.54,1.98487,3.23525,3.23525,0,0,1-.8766.87849v.43938h3.50653V44.727a3.2355,3.2355,0,0,1-.87663-.87849,3.28336,3.28336,0,0,1-.54-1.985,2.08931,2.08931,0,0,0,.38261.75095,2.61231,2.61231,0,0,0,3.03723.64684A3.61516,3.61516,0,0,0,20.16919,38.78247Z"/><path d="M11.86133,24.58066a5.78279,5.78279,0,0,0,1.56589-.14877.97917.97917,0,0,0,.64417-.61448,4.70786,4.70786,0,0,0,.18073-1.54719V9.85h1.60721L15.88,22.50308a4.78126,4.78126,0,0,1-.4544,2.37382,1.9945,1.9945,0,0,1-1.25866.96441,10.08056,10.08056,0,0,1-2.30559.20116Z"/><path d="M94.83081,128.21693c.54553,1.71794,2.13293,2.67941,3.37659,3.85031a10.95888,10.95888,0,0,1,2.25478,3.01264,10.95888,10.95888,0,0,1,2.25478-3.01264c1.24367-1.1709,2.831-2.13237,3.37656-3.85031a3.61512,3.61512,0,0,0-1.87489-4.47885,2.61237,2.61237,0,0,0-3.03724.64685,2.08912,2.08912,0,0,0-.38258.75085,3.28341,3.28341,0,0,1,.54-1.98487,3.23542,3.23542,0,0,1,.8766-.8785V121.833H98.70892v.43938a3.23567,3.23567,0,0,1,.87663.8785,3.28334,3.28334,0,0,1,.54,1.985,2.08931,2.08931,0,0,0-.38261-.751,2.61233,2.61233,0,0,0-3.03723-.64685A3.61517,3.61517,0,0,0,94.83081,128.21693Z"/><path d="M103.14021,142.41934a5.79572,5.79572,0,0,0-1.56589.14748.981.981,0,0,0-.64417.61577,4.70786,4.70786,0,0,0-.18073,1.54719V157.15H99.14221l-.02065-12.65307a4.78684,4.78684,0,0,1,.4544-2.37511,1.99349,1.99349,0,0,1,1.25866-.96376,10.03678,10.03678,0,0,1,2.30559-.20181Z"/><path d="M67.53589,78.37014c-.47345-.212-11.59543-5.26537-11.59543-11.70161h.66095c0,6.0125,11.09246,11.04808,11.20461,11.0981Z"/><path class="cls-2" d="M68.92218,71.86774a4.01992,4.01992,0,0,1-4.01559-4.01543V67.5228l6.66393-.02162V46.04048h.661V68.1602l-6.648.02162a3.35925,3.35925,0,0,0,3.33866,3.025Z"/><rect x="68.20701" y="57.20152" width="0.66095" height="7.59549"/><path class="cls-2" d="M68.54819,45.74181a3.87219,3.87219,0,0,0-3.683,2.70578V40.27022a3.68316,3.68316,0,0,1,3.68237-3.683h.00065a3.68275,3.68275,0,0,1,3.68237,3.683v8.17737A3.87079,3.87079,0,0,0,68.54819,45.74181Z"/><path d="M66.90727,41.9866c.15893-.49944.62139-.779.98371-1.11937a3.18666,3.18666,0,0,0,.65689-.87583,3.18642,3.18642,0,0,0,.65688.87583c.36232.34041.82477.61993.9837,1.11937a1.05017,1.05017,0,0,1-.54621,1.30209.76215.76215,0,0,1-.88484-.18805.60671.60671,0,0,1-.11146-.21829.953.953,0,0,0,.15733.577.94156.94156,0,0,0,.25538.25539v.12774H68.03708v-.12774a.94177.94177,0,0,0,.2554-.25539.953.953,0,0,0,.15732-.57708.60676.60676,0,0,1-.11146.21832.76215.76215,0,0,1-.88484.18805A1.05019,1.05019,0,0,1,66.90727,41.9866Z"/><path class="cls-2" d="M61.19185,45.74181a3.871,3.871,0,0,0-3.683,2.70578V40.27022a3.68274,3.68274,0,0,1,3.68237-3.683h.00064a3.68274,3.68274,0,0,1,3.68237,3.683v8.17737A3.87138,3.87138,0,0,0,61.19185,45.74181Z"/><path d="M59.55094,41.9866c.15893-.49944.62139-.779.98371-1.11937a3.18662,3.18662,0,0,0,.65688-.87583,3.18666,3.18666,0,0,0,.65689.87583c.36232.34041.82477.61993.9837,1.11937a1.05018,1.05018,0,0,1-.54622,1.30209.76215.76215,0,0,1-.88484-.18805.607.607,0,0,1-.11146-.21829.95312.95312,0,0,0,.15733.577.94184.94184,0,0,0,.25538.25539v.12774H60.68075v-.12774a.9416.9416,0,0,0,.25539-.25539.95305.95305,0,0,0,.15733-.57708.60694.60694,0,0,1-.11147.21832.76214.76214,0,0,1-.88484.18805A1.05019,1.05019,0,0,1,59.55094,41.9866Z"/><rect x="59.84933" y="54.27164" width="5.75411" height="0.6612" transform="translate(-10.86299 15.86456) rotate(-13.27655)"/><circle cx="63.75019" cy="55.76894" r="1.48006"/><path d="M72.10591,79.14215c-.3457,1.08634-1.3516,1.69433-2.13968,2.43474a6.93143,6.93143,0,0,0-1.4288,1.905,6.93143,6.93143,0,0,0-1.4288-1.905c-.78809-.74041-1.794-1.3484-2.13965-2.43474A2.28425,2.28425,0,0,1,66.15705,76.31a1.65779,1.65779,0,0,1,1.92463.409,1.3201,1.3201,0,0,1,.24244.4748,2.073,2.073,0,0,0-.34222-1.25513,2.04807,2.04807,0,0,0-.55547-.55552v-.27784h2.222v.27784a2.04822,2.04822,0,0,0-.55551.55552,2.07292,2.07292,0,0,0-.3422,1.25519,1.32023,1.32023,0,0,1,.24245-.47486,1.65776,1.65776,0,0,1,1.92462-.409A2.28429,2.28429,0,0,1,72.10591,79.14215Z"/><rect x="50.1332" y="41.6542" width="7.37076" height="38.58523" rx="3.68538"/><rect x="42.76863" y="46.93878" width="7.37076" height="25.36613" rx="3.68538"/><rect class="cls-2" x="44.46652" y="43.19324" width="3.97498" height="33.83984" rx="1.98749"/><rect class="cls-1" x="46.28884" y="43.64775" width="0.33048" height="33.02418"/><path class="cls-1" d="M46.45408,76.86783a1.8244,1.8244,0,0,1-1.82231-1.82247V45.18072a1.82231,1.82231,0,0,1,3.64461,0V75.04536A1.8244,1.8244,0,0,1,46.45408,76.86783Zm0-33.17877a1.49331,1.49331,0,0,0-1.49183,1.49166V75.04536a1.49183,1.49183,0,1,0,2.98366,0V45.18072A1.49332,1.49332,0,0,0,46.45408,43.68906Z"/><circle class="cls-1" cx="46.45401" cy="42.0488" r="3.68548"/><path d="M46.45376,39.024a3.02464,3.02464,0,1,1-3.024,3.02464,3.028,3.028,0,0,1,3.024-3.02464m0-.661a3.6856,3.6856,0,1,0,3.68559,3.6856,3.68551,3.68551,0,0,0-3.68559-3.6856Z"/><path d="M44.81341,41.9866c.15894-.49944.62139-.779.98371-1.11937a3.18646,3.18646,0,0,0,.65689-.87583,3.18646,3.18646,0,0,0,.65689.87583c.36232.34041.82476.61993.9837,1.11937a1.05019,1.05019,0,0,1-.54622,1.30209.76215.76215,0,0,1-.88484-.18805.60687.60687,0,0,1-.11146-.21829.95312.95312,0,0,0,.15733.577.9417.9417,0,0,0,.25538.25539v.12774H45.94323v-.12774a.9416.9416,0,0,0,.25539-.25539.95305.95305,0,0,0,.15733-.57708.60694.60694,0,0,1-.11147.21832.76214.76214,0,0,1-.88484.18805A1.0502,1.0502,0,0,1,44.81341,41.9866Z"/><path d="M47.46411,88.62986c.47345.212,11.59543,5.26537,11.59543,11.70161h-.66095c0-6.0125-11.09246-11.04808-11.20461-11.0981Z"/><path class="cls-2" d="M46.07782,95.13226a4.01992,4.01992,0,0,1,4.01559,4.01543v.32951l-6.66393.02162v21.4607h-.661V98.8398l6.648-.02162a3.35925,3.35925,0,0,0-3.33866-3.025Z"/><rect x="46.13204" y="102.20299" width="0.66095" height="7.59549"/><path class="cls-2" d="M46.45181,121.25819a3.87219,3.87219,0,0,0,3.683-2.70578v8.17737a3.68316,3.68316,0,0,1-3.68237,3.683h-.00065a3.68275,3.68275,0,0,1-3.68237-3.683v-8.17737A3.87079,3.87079,0,0,0,46.45181,121.25819Z"/><path d="M48.09273,125.0134c-.15893.49944-.62139.779-.98371,1.11937a3.18666,3.18666,0,0,0-.65689.87583,3.18642,3.18642,0,0,0-.65688-.87583c-.36232-.34041-.82477-.61993-.9837-1.11937a1.05017,1.05017,0,0,1,.54621-1.30209.76215.76215,0,0,1,.88484.18805.60671.60671,0,0,1,.11146.21829.953.953,0,0,0-.15733-.577.94156.94156,0,0,0-.25538-.25539v-.12774h1.02157v.12774a.94177.94177,0,0,0-.2554.25539.953.953,0,0,0-.15732.57708.60676.60676,0,0,1,.11146-.21832.76215.76215,0,0,1,.88484-.18805A1.05019,1.05019,0,0,1,48.09273,125.0134Z"/><path class="cls-2" d="M53.80815,121.25819a3.871,3.871,0,0,0,3.683-2.70578v8.17737a3.68274,3.68274,0,0,1-3.68237,3.683h-.00064a3.68274,3.68274,0,0,1-3.68237-3.683v-8.17737A3.87138,3.87138,0,0,0,53.80815,121.25819Z"/><path d="M55.44906,125.0134c-.15893.49944-.62139.779-.98371,1.11937a3.18662,3.18662,0,0,0-.65688.87583,3.18666,3.18666,0,0,0-.65689-.87583c-.36232-.34041-.82477-.61993-.9837-1.11937a1.05018,1.05018,0,0,1,.54622-1.30209.76215.76215,0,0,1,.88484.18805.607.607,0,0,1,.11146.21829.95312.95312,0,0,0-.15733-.577.94184.94184,0,0,0-.25538-.25539v-.12774h1.02156v.12774a.9416.9416,0,0,0-.25539.25539.95305.95305,0,0,0-.15733.57708.60694.60694,0,0,1,.11147-.21832.76214.76214,0,0,1,.88484-.18805A1.05019,1.05019,0,0,1,55.44906,125.0134Z"/><rect x="49.39657" y="112.06717" width="5.75411" height="0.6612" transform="translate(-24.41519 15.00877) rotate(-13.27655)"/><circle cx="51.24981" cy="111.23106" r="1.48006"/><path d="M42.89409,87.85785c.3457-1.08634,1.3516-1.69433,2.13968-2.43474a6.93143,6.93143,0,0,0,1.4288-1.905,6.93143,6.93143,0,0,0,1.4288,1.905c.78809.74041,1.794,1.3484,2.13965,2.43474a2.28425,2.28425,0,0,1-1.18807,2.8322,1.65779,1.65779,0,0,1-1.92463-.409,1.3201,1.3201,0,0,1-.24244-.4748,2.073,2.073,0,0,0,.34222,1.25513,2.04807,2.04807,0,0,0,.55547.55552v.27784h-2.222v-.27784a2.04822,2.04822,0,0,0,.55551-.55552,2.07292,2.07292,0,0,0,.3422-1.25519,1.32023,1.32023,0,0,1-.24245.47486,1.65776,1.65776,0,0,1-1.92462.409A2.28429,2.28429,0,0,1,42.89409,87.85785Z"/><rect x="57.49604" y="86.76056" width="7.37076" height="38.58523" rx="3.68538"/><rect x="64.86061" y="94.69509" width="7.37076" height="25.36613" rx="3.68538"/><rect class="cls-2" x="66.5585" y="89.96692" width="3.97498" height="33.83984" rx="1.98749"/><rect class="cls-1" x="68.38068" y="90.32807" width="0.33048" height="33.02418"/><path class="cls-1" d="M68.54592,90.13217a1.8244,1.8244,0,0,1,1.82231,1.82247v29.86464a1.82231,1.82231,0,0,1-3.64461,0V91.95464A1.8244,1.8244,0,0,1,68.54592,90.13217Zm0,33.17877a1.49331,1.49331,0,0,0,1.49183-1.49166V91.95464a1.49183,1.49183,0,1,0-2.98366,0v29.86464A1.49332,1.49332,0,0,0,68.54592,123.31094Z"/><circle class="cls-1" cx="68.54599" cy="124.9512" r="3.68548"/><path d="M68.54624,127.976a3.02464,3.02464,0,1,1,3.024-3.02464,3.028,3.028,0,0,1-3.024,3.02464m0,.661a3.6856,3.6856,0,1,0-3.68559-3.6856,3.68551,3.68551,0,0,0,3.68559,3.6856Z"/><path d="M70.18659,125.0134c-.15894.49944-.62139.779-.98371,1.11937a3.18646,3.18646,0,0,0-.65689.87583,3.18646,3.18646,0,0,0-.65689-.87583c-.36232-.34041-.82476-.61993-.9837-1.11937a1.05019,1.05019,0,0,1,.54622-1.30209.76215.76215,0,0,1,.88484.18805.60687.60687,0,0,1,.11146.21829.95312.95312,0,0,0-.15733-.577.9417.9417,0,0,0-.25538-.25539v-.12774h1.02156v.12774a.9416.9416,0,0,0-.25539.25539.95305.95305,0,0,0-.15733.57708.60694.60694,0,0,1,.11147-.21832.76214.76214,0,0,1,.88484-.18805A1.0502,1.0502,0,0,1,70.18659,125.0134Z"/></g></svg>