<svg xmlns="http://www.w3.org/2000/svg" viewBox="0 0 115 167"><defs><style>.cls-1{fill:#fff;}.cls-2{fill:#ff3b5c;}</style></defs><title>card-clubs-q</title><g id="artwork"><rect class="cls-1" width="115" height="167" rx="8"/><path d="M16.30362,24.53861a6.90622,6.90622,0,0,1-1.77631.19017,6.46768,6.46768,0,0,1-3.43645-.784A4.31767,4.31767,0,0,1,9.2926,21.54a13.98743,13.98743,0,0,1-.53832-4.29228,14.03408,14.03408,0,0,1,.54864-4.313,4.49887,4.49887,0,0,1,1.81892-2.4799,6.22866,6.22866,0,0,1,3.40547-.81629,6.22562,6.22562,0,0,1,3.40546.81629,4.538,4.538,0,0,1,1.82925,2.4799,13.79638,13.79638,0,0,1,.56155,4.313,13.61889,13.61889,0,0,1-.56155,4.344,4.23617,4.23617,0,0,1-1.87185,2.37512l1.79826,2.90292-1.52329.72055Zm.73067-1.84472A3.19394,3.19394,0,0,0,18.271,20.81811a13.61029,13.61029,0,0,0,.36016-3.529,13.89445,13.89445,0,0,0-.37049-3.58078A3.501,3.501,0,0,0,17.002,11.72643a4.14039,4.14039,0,0,0-2.4747-.64682,4.19075,4.19075,0,0,0-2.47471.63647,3.44984,3.44984,0,0,0-1.25866,1.97021,13.81385,13.81385,0,0,0-.3692,3.56139,13.77562,13.77562,0,0,0,.35888,3.529,3.218,3.218,0,0,0,1.25865,1.90682,4.44846,4.44846,0,0,0,2.50569.60413A4.417,4.417,0,0,0,17.03429,22.69389Z"/><path d="M21.43021,39.48931a2.94335,2.94335,0,0,0-2.90339-2.171,2.73387,2.73387,0,0,0-1.27754.38047c-.20655.12343-.5948.364-.773.0609-.16133-.27454.13316-.53068.3094-.69988a2.92873,2.92873,0,0,0,.84295-1.5712,3.08172,3.08172,0,0,0-1.38563-3.1218,3.21784,3.21784,0,0,0-3.43131,0,3.08171,3.08171,0,0,0-1.38563,3.1218,2.92876,2.92876,0,0,0,.84293,1.5712c.17626.1692.47073.42534.30942.69988-.17819.30311-.56644.06253-.773-.0609a2.7338,2.7338,0,0,0-1.27754-.38047,2.94336,2.94336,0,0,0-2.90339,2.171A3.18507,3.18507,0,0,0,9.11772,43.055a3.22606,3.22606,0,0,0,4.72371-1.99165h.26275a3.55488,3.55488,0,0,1-.52553,2.62868,3.50053,3.50053,0,0,1-.94855.95063v.47545h3.79454v-.47545a3.501,3.501,0,0,1-.94856-.95063,3.55492,3.55492,0,0,1-.52552-2.62868h.26277A3.226,3.226,0,0,0,19.937,43.055,3.18507,3.18507,0,0,0,21.43021,39.48931Z"/><path d="M98.70093,142.46139a6.90625,6.90625,0,0,1,1.77632-.19017,6.46766,6.46766,0,0,1,3.43644.784,4.3163,4.3163,0,0,1,1.79827,2.40616,17.30381,17.30381,0,0,1-.01033,8.60527,4.508,4.508,0,0,1-1.81892,2.47991,7.52242,7.52242,0,0,1-6.81093,0,4.5473,4.5473,0,0,1-1.82924-2.47991,13.80727,13.80727,0,0,1-.56156-4.313,13.62735,13.62735,0,0,1,.56156-4.34533,4.23314,4.23314,0,0,1,1.87184-2.37382l-1.79826-2.90422,1.52329-.72055Zm-.73066,1.84472a3.20206,3.20206,0,0,0-1.23671,1.87578,13.61656,13.61656,0,0,0-.36017,3.529,13.89909,13.89909,0,0,0,.37049,3.58208,3.501,3.501,0,0,0,1.25866,1.98185,4.14056,4.14056,0,0,0,2.47471.64553,4.20031,4.20031,0,0,0,2.4747-.63518,3.45763,3.45763,0,0,0,1.25866-1.9715,17.43929,17.43929,0,0,0,.01033-7.08913,3.22531,3.22531,0,0,0-1.25866-1.90812,5.50034,5.50034,0,0,0-4.992-.01035Z"/><path d="M93.56979,127.49043a2.94335,2.94335,0,0,0,2.90339,2.171,2.73375,2.73375,0,0,0,1.27754-.38047c.20655-.12343.5948-.364.773-.0609.16133.27454-.13316.53068-.3094.69988a2.92873,2.92873,0,0,0-.843,1.5712A3.08172,3.08172,0,0,0,98.757,134.613a3.21784,3.21784,0,0,0,3.43131,0,3.08171,3.08171,0,0,0,1.38563-3.1218,2.92876,2.92876,0,0,0-.84293-1.5712c-.17626-.1692-.47073-.42534-.30942-.69988.17819-.30311.56644-.06253.773.0609a2.73368,2.73368,0,0,0,1.27754.38047,2.94336,2.94336,0,0,0,2.90339-2.171,3.18507,3.18507,0,0,0-1.4932-3.56569,3.22606,3.22606,0,0,0-4.72371,1.99165h-.26275a3.55489,3.55489,0,0,1,.52553-2.62868,3.50053,3.50053,0,0,1,.94855-.95063v-.47545H98.57536v.47545a3.501,3.501,0,0,1,.94856.95063,3.55493,3.55493,0,0,1,.52552,2.62868h-.26277a3.226,3.226,0,0,0-4.72369-1.99165A3.18507,3.18507,0,0,0,93.56979,127.49043Z"/><rect x="47.26688" y="53.45663" width="2.95622" height="0.66095"/><rect x="64.77685" y="53.45663" width="2.95622" height="0.66095"/><circle cx="64.94841" cy="53.78709" r="1.48006"/><circle cx="50.07471" cy="53.78709" r="1.48006"/><path class="cls-2" d="M55.67335,74.97056a2.08187,2.08187,0,0,0,1.8205-1.44173v-.00046l.00046-.00047v.00093a2.0818,2.0818,0,0,0,1.82,1.44173Z"/><path class="cls-2" d="M60.71349,75.99053A2.08188,2.08188,0,0,0,62.648,77.27521l.00089-.00029-.00044.00014.00058.0003-.00088.00029a2.0818,2.0818,0,0,0-.80739,2.177Z"/><path class="cls-2" d="M56.58821,83.27292a2.08191,2.08191,0,0,0-2.32076.083l-.00055.00074.00028-.00037-.00065.0001.00055-.00075a2.08182,2.08182,0,0,0-.61219-2.23971Z"/><path class="cls-2" d="M54.29376,75.93342A2.08188,2.08188,0,0,1,52.352,77.20711l-.00088-.00029.00044.00014-.00059.0003.00088.00029a2.08182,2.08182,0,0,1,.795,2.18151Z"/><path class="cls-2" d="M58.35035,83.29a2.08187,2.08187,0,0,1,2.3202.09711l.00055.00075-.00027-.00038.00064.0001-.00054-.00075a2.08181,2.08181,0,0,1,.62576-2.236Z"/><path class="cls-1" d="M55.91546,82.34726l-.34505-.70147-.77156-.11248a1.77443,1.77443,0,0,1-.9793-3.024l.5583-.546-.1318-.771a1.76825,1.76825,0,0,1,2.56385-1.86893l.6901.364.6901-.364A1.76825,1.76825,0,0,1,60.754,77.19231l-.1318.771.5583.546a1.77443,1.77443,0,0,1-.9793,3.024l-.77156.11248-.34505.70147A1.76442,1.76442,0,0,1,55.91546,82.34726Z"/><path d="M57.4999,83.5007a1.91991,1.91991,0,0,1-1.73275-1.08051l-.3066-.62351-.68548-.09973a1.93968,1.93968,0,0,1-1.071-3.30574l.4962-.48539-.117-.6858a1.93337,1.93337,0,0,1,2.80373-2.0429l.613.32338.61287-.32338A1.93351,1.93351,0,0,1,60.91682,77.22l-.11715.6858.49636.48539A1.9398,1.9398,0,0,1,60.225,81.697l-.68548.09973-.30675.62351A1.92,1.92,0,0,1,57.4999,83.5007Zm-1.43616-1.22638a1.59918,1.59918,0,0,0,2.87247,0l.38357-.77972.8575-.1249a1.60907,1.60907,0,0,0,.88767-2.74225l-.62029-.60674.14652-.8562a1.603,1.603,0,0,0-2.324-1.695l-.76713.40471-.7673-.40471a1.6029,1.6029,0,0,0-2.32383,1.695l.14636.8562-.62013.60674a1.6091,1.6091,0,0,0,.88751,2.74225l.85766.1249Z"/><path class="cls-2" d="M57.4999,77.45012a1.50781,1.50781,0,1,1-1.50781,1.50781,1.50958,1.50958,0,0,1,1.50781-1.50781m0-.33047a1.83828,1.83828,0,1,0,1.83828,1.83828,1.8382,1.8382,0,0,0-1.83828-1.83828Z"/><rect x="57.16958" y="56.0175" width="0.66095" height="7.59582"/><path class="cls-2" d="M50.134,36.26184a3.871,3.871,0,0,1-3.683-2.70579V45.69916a3.68275,3.68275,0,0,0,3.68237,3.683H50.134a3.68275,3.68275,0,0,0,3.68237-3.683V33.55605A3.87139,3.87139,0,0,1,50.134,36.26184Z"/><path class="cls-2" d="M57.5,36.26184a3.8722,3.8722,0,0,1-3.683-2.70579V45.69916a3.68316,3.68316,0,0,0,3.68237,3.683H57.5a3.68274,3.68274,0,0,0,3.68237-3.683V33.55605A3.87078,3.87078,0,0,1,57.5,36.26184Z"/><path class="cls-2" d="M64.86668,36.26184a3.87159,3.87159,0,0,1-3.683-2.70579V45.69916a3.68275,3.68275,0,0,0,3.68237,3.683h.00065a3.68275,3.68275,0,0,0,3.68237-3.683V33.55605A3.87139,3.87139,0,0,1,64.86668,36.26184Z"/><path d="M57.50006,73.53668l-.13507-.06035c-.47344-.212-11.59543-5.26569-11.59543-11.70161h.661c0,5.64716,9.7962,10.43747,11.06954,11.03581,1.27334-.59834,11.06938-5.38865,11.06938-11.03581h.66095c0,6.43592-11.12182,11.48957-11.59527,11.70161Z"/><path class="cls-2" d="M57.48392,67.966a2.89194,2.89194,0,0,1-2.99511-2.99559h.66095a2.26807,2.26807,0,0,0,2.33545,2.33464Z"/><path d="M62.09761,38.6194a1.95985,1.95985,0,0,0-1.93378-1.443,1.82371,1.82371,0,0,0-.85091.25288c-.13757.082-.39616.24194-.51483.04048-.10746-.18248.08869-.35272.20607-.46518a1.94536,1.94536,0,0,0,.56145-1.0443,2.04659,2.04659,0,0,0-.9229-2.07491,2.147,2.147,0,0,0-2.28541,0,2.04656,2.04656,0,0,0-.92289,2.07491,1.94533,1.94533,0,0,0,.56143,1.0443c.11739.11246.31352.2827.20609.46518-.11869.20146-.37728.04156-.51485-.04048a1.82361,1.82361,0,0,0-.85091-.25288,1.95988,1.95988,0,0,0-1.93379,1.443,2.11515,2.11515,0,0,0,.99454,2.36994,2.14993,2.14993,0,0,0,3.14621-1.32375h.175a2.35874,2.35874,0,0,1-.35,1.74716,2.32909,2.32909,0,0,1-.63178.63183v.316h2.52734v-.316a2.32937,2.32937,0,0,1-.63178-.63183,2.35878,2.35878,0,0,1-.35-1.74716h.175a2.14992,2.14992,0,0,0,3.1462,1.32375A2.11513,2.11513,0,0,0,62.09761,38.6194Z"/><rect x="68.56271" y="42.69984" width="7.37076" height="27.28518" rx="3.68538"/><path d="M68.77063,72.42485a1.48237,1.48237,0,0,0,1.46265,1.09141,1.37942,1.37942,0,0,0,.64359-.19127c.10405-.062.29964-.183.3894-.03061.08127.138-.06709.26678-.15587.35184a1.47139,1.47139,0,0,0-.42466.78987,1.548,1.548,0,0,0,.69805,1.56938,1.62392,1.62392,0,0,0,1.7286,0,1.548,1.548,0,0,0,.698-1.56938,1.47144,1.47144,0,0,0-.42465-.78987c-.08879-.08506-.23714-.21383-.15588-.35184.08977-.15238.28536-.03144.38941.03061a1.37939,1.37939,0,0,0,.6436.19127,1.48236,1.48236,0,0,0,1.46264-1.09141,1.59982,1.59982,0,0,0-.75223-1.79254,1.62614,1.62614,0,0,0-2.37968,1.00124h-.13236a1.784,1.784,0,0,1,.26474-1.32149,1.76169,1.76169,0,0,1,.47786-.47789v-.239H71.2923v.239a1.762,1.762,0,0,1,.47786.47789,1.78408,1.78408,0,0,1,.26474,1.32149h-.13237a1.62613,1.62613,0,0,0-2.37967-1.00124A1.59982,1.59982,0,0,0,68.77063,72.42485Z"/><rect x="39.06652" y="42.69984" width="7.37076" height="27.28518" rx="3.68538"/><path d="M39.27444,72.42485a1.48237,1.48237,0,0,0,1.46265,1.09141,1.37942,1.37942,0,0,0,.64359-.19127c.10405-.062.29964-.183.3894-.03061.08127.138-.06708.26678-.15587.35184a1.47131,1.47131,0,0,0-.42465.78987,1.54794,1.54794,0,0,0,.698,1.56938,1.62392,1.62392,0,0,0,1.7286,0,1.548,1.548,0,0,0,.69805-1.56938,1.47144,1.47144,0,0,0-.42465-.78987c-.08879-.08506-.23714-.21383-.15588-.35184.08977-.15238.28536-.03144.38941.03061a1.37939,1.37939,0,0,0,.6436.19127,1.48236,1.48236,0,0,0,1.46264-1.09141,1.59982,1.59982,0,0,0-.75223-1.79254,1.62614,1.62614,0,0,0-2.37968,1.00124H42.9651a1.784,1.784,0,0,1,.26474-1.32149,1.76169,1.76169,0,0,1,.47786-.47789v-.239H41.79611v.239a1.762,1.762,0,0,1,.47786.47789,1.78408,1.78408,0,0,1,.26474,1.32149h-.13237a1.62613,1.62613,0,0,0-2.37967-1.00124A1.59982,1.59982,0,0,0,39.27444,72.42485Z"/><rect x="64.7769" y="112.88242" width="2.95622" height="0.66095"/><rect x="47.26692" y="112.88242" width="2.95622" height="0.66095"/><circle cx="50.05159" cy="113.21291" r="1.48006"/><circle cx="64.92529" cy="113.21291" r="1.48006"/><path class="cls-2" d="M59.32665,92.02944a2.08187,2.08187,0,0,0-1.8205,1.44173v.00046l-.00046.00047v-.00093a2.0818,2.0818,0,0,0-1.82-1.44173Z"/><path class="cls-2" d="M54.28651,91.00947A2.08188,2.08188,0,0,0,52.352,89.72479l-.00089.00029.00044-.00014-.00058-.0003.00088-.00029a2.0818,2.0818,0,0,0,.80739-2.177Z"/><path class="cls-2" d="M58.41179,83.72708a2.08191,2.08191,0,0,0,2.32076-.083l.00055-.00074-.00028.00037.00065-.0001-.00055.00075a2.08182,2.08182,0,0,0,.61219,2.23971Z"/><path class="cls-2" d="M60.70624,91.06658A2.08188,2.08188,0,0,1,62.648,89.79289l.00088.00029-.00044-.00014.00059-.0003-.00088-.00029a2.08182,2.08182,0,0,1-.795-2.18151Z"/><path class="cls-2" d="M56.64965,83.71a2.08187,2.08187,0,0,1-2.3202-.09711l-.00055-.00075.00027.00038-.00064-.0001.00054.00075a2.08181,2.08181,0,0,1-.62576,2.236Z"/><path class="cls-1" d="M59.08454,84.65274l.34505.70147.77156.11248a1.77443,1.77443,0,0,1,.9793,3.024l-.5583.546.1318.771a1.76825,1.76825,0,0,1-2.56385,1.86893l-.6901-.364-.6901.364a1.76825,1.76825,0,0,1-2.56385-1.86893l.1318-.771-.5583-.546a1.77443,1.77443,0,0,1,.9793-3.024l.77156-.11248.34505-.70147A1.76442,1.76442,0,0,1,59.08454,84.65274Z"/><path d="M57.5001,83.4993a1.91991,1.91991,0,0,1,1.73275,1.08051l.3066.62351.68548.09973a1.93968,1.93968,0,0,1,1.071,3.30574l-.4962.48539.117.6858a1.93337,1.93337,0,0,1-2.80373,2.0429l-.613-.32338-.61287.32338A1.93351,1.93351,0,0,1,54.08318,89.78l.11715-.6858-.49636-.48539a1.9398,1.9398,0,0,1,1.071-3.30574l.68548-.09973.30675-.62351A1.92,1.92,0,0,1,57.5001,83.4993Zm1.43616,1.22638a1.59918,1.59918,0,0,0-2.87247,0l-.38357.77972-.8575.1249a1.60907,1.60907,0,0,0-.88767,2.74225l.62029.60674-.14652.8562a1.603,1.603,0,0,0,2.324,1.695l.76713-.40471.7673.40471a1.6029,1.6029,0,0,0,2.32383-1.695l-.14636-.8562.62013-.60674a1.6091,1.6091,0,0,0-.88751-2.74225l-.85766-.1249Z"/><path class="cls-2" d="M57.5001,89.54988a1.50781,1.50781,0,1,1,1.50781-1.50781,1.50958,1.50958,0,0,1-1.50781,1.50781m0,.33047a1.83828,1.83828,0,1,0-1.83828-1.83828,1.8382,1.8382,0,0,0,1.83828,1.83828Z"/><rect x="57.16946" y="103.38668" width="0.66095" height="7.59582"/><path class="cls-2" d="M64.866,130.73816a3.871,3.871,0,0,1,3.683,2.70579V121.30084a3.68275,3.68275,0,0,0-3.68237-3.683H64.866a3.68275,3.68275,0,0,0-3.68237,3.683V133.444A3.87139,3.87139,0,0,1,64.866,130.73816Z"/><path class="cls-2" d="M57.5,130.73816a3.8722,3.8722,0,0,1,3.683,2.70579V121.30084a3.68316,3.68316,0,0,0-3.68237-3.683H57.5a3.68274,3.68274,0,0,0-3.68237,3.683V133.444A3.87078,3.87078,0,0,1,57.5,130.73816Z"/><path class="cls-2" d="M50.13332,130.73816a3.87159,3.87159,0,0,1,3.683,2.70579V121.30084a3.68275,3.68275,0,0,0-3.68237-3.683h-.00065a3.68275,3.68275,0,0,0-3.68237,3.683V133.444A3.87139,3.87139,0,0,1,50.13332,130.73816Z"/><path d="M57.49994,93.46332l.13507.06035c.47344.212,11.59543,5.26569,11.59543,11.70161h-.661c0-5.64716-9.7962-10.43747-11.06954-11.03581-1.27334.59834-11.06938,5.38865-11.06938,11.03581h-.66095c0-6.43592,11.12182-11.48957,11.59527-11.70161Z"/><path class="cls-2" d="M57.51608,99.034a2.89194,2.89194,0,0,1,2.99511,2.99559h-.66095A2.26807,2.26807,0,0,0,57.51479,99.695Z"/><path d="M52.90239,128.3806a1.95985,1.95985,0,0,0,1.93378,1.443,1.82371,1.82371,0,0,0,.85091-.25288c.13757-.082.39616-.24194.51483-.04048.10746.18248-.08869.35272-.20607.46518a1.94536,1.94536,0,0,0-.56145,1.0443,2.04659,2.04659,0,0,0,.9229,2.07491,2.147,2.147,0,0,0,2.28541,0,2.04656,2.04656,0,0,0,.92289-2.07491,1.94533,1.94533,0,0,0-.56143-1.0443c-.11739-.11246-.31352-.2827-.20609-.46518.11869-.20146.37728-.04156.51485.04048a1.82361,1.82361,0,0,0,.85091.25288,1.95988,1.95988,0,0,0,1.93379-1.443,2.11515,2.11515,0,0,0-.99454-2.36994,2.14993,2.14993,0,0,0-3.14621,1.32375h-.175a2.35874,2.35874,0,0,1,.35-1.74716,2.32909,2.32909,0,0,1,.63178-.63183v-.316H56.23633v.316a2.32937,2.32937,0,0,1,.63178.63183,2.35878,2.35878,0,0,1,.35,1.74716h-.175a2.14992,2.14992,0,0,0-3.1462-1.32375A2.11513,2.11513,0,0,0,52.90239,128.3806Z"/><rect x="39.06652" y="97.01497" width="7.37076" height="27.28518" rx="3.68538"/><path d="M46.22937,94.57515a1.48237,1.48237,0,0,0-1.46265-1.09141,1.37942,1.37942,0,0,0-.64359.19127c-.10405.062-.29964.183-.3894.03061-.08127-.138.06709-.26678.15587-.35184a1.47139,1.47139,0,0,0,.42466-.78987,1.548,1.548,0,0,0-.698-1.56938,1.62392,1.62392,0,0,0-1.7286,0,1.548,1.548,0,0,0-.69805,1.56938,1.47144,1.47144,0,0,0,.42465.78987c.08879.08506.23714.21383.15588.35184-.08977.15238-.28536.03144-.38941-.03061a1.37939,1.37939,0,0,0-.6436-.19127,1.48236,1.48236,0,0,0-1.46264,1.09141,1.59982,1.59982,0,0,0,.75223,1.79254,1.62614,1.62614,0,0,0,2.37968-1.00124h.13236a1.784,1.784,0,0,1-.26474,1.32149,1.76169,1.76169,0,0,1-.47786.47789v.239H43.7077v-.239a1.762,1.762,0,0,1-.47786-.47789,1.78408,1.78408,0,0,1-.26474-1.32149h.13237a1.62613,1.62613,0,0,0,2.37967,1.00124A1.59982,1.59982,0,0,0,46.22937,94.57515Z"/><rect x="68.56271" y="97.01497" width="7.37076" height="27.28518" rx="3.68538"/><path d="M75.72556,94.57515a1.48237,1.48237,0,0,0-1.46265-1.09141,1.37942,1.37942,0,0,0-.64359.19127c-.10405.062-.29964.183-.3894.03061-.08127-.138.06708-.26678.15587-.35184a1.47131,1.47131,0,0,0,.42465-.78987,1.54794,1.54794,0,0,0-.698-1.56938,1.62392,1.62392,0,0,0-1.7286,0,1.548,1.548,0,0,0-.698,1.56938,1.47144,1.47144,0,0,0,.42465.78987c.08879.08506.23714.21383.15588.35184-.08977.15238-.28536.03144-.38941-.03061a1.37939,1.37939,0,0,0-.6436-.19127,1.48236,1.48236,0,0,0-1.46264,1.09141,1.59982,1.59982,0,0,0,.75223,1.79254,1.62614,1.62614,0,0,0,2.37968-1.00124h.13236a1.784,1.784,0,0,1-.26474,1.32149,1.76169,1.76169,0,0,1-.47786.47789v.239h1.91159v-.239a1.762,1.762,0,0,1-.47786-.47789,1.78408,1.78408,0,0,1-.26474-1.32149h.13237a1.62613,1.62613,0,0,0,2.37967,1.00124A1.59982,1.59982,0,0,0,75.72556,94.57515Z"/></g></svg>