<svg xmlns="http://www.w3.org/2000/svg" viewBox="0 0 87 127"><defs><style>.cls-1{fill:#fff;}</style></defs><title>card-clubs-2_1</title><g id="artwork"><rect class="cls-1" x="-0.00463" width="87" height="127" rx="6"/><path d="M7.99376,18.72l-.49612-.11254.11182-1.00993a14.86352,14.86352,0,0,0,2.88.38557,3.48172,3.48172,0,0,0,1.93614-.46582,1.79253,1.79253,0,0,0,.70414-1.61862q0-1.92444-2.1759-1.98854h-2.128V12.85124h2.128a1.81879,1.81879,0,0,0,.90386-.24759,2.06378,2.06378,0,0,0,.72806-.69775,1.832,1.832,0,0,0,.2881-1.00993A1.51836,1.51836,0,0,0,12.37,9.62084a2.73014,2.73014,0,0,0-1.65634-.39242,13.31922,13.31922,0,0,0-2.52845.24074l-.416.08024-.11133-.97861a11.13469,11.13469,0,0,1,3.23161-.44918,3.78753,3.78753,0,0,1,2.4806.65763,2.6226,2.6226,0,0,1,.76762,2.10108,2.64425,2.64425,0,0,1-.416,1.44247,2.42191,2.42191,0,0,1-1.15192.962,4.08468,4.08468,0,0,1,1.04009.52943,1.7927,1.7927,0,0,1,.584.777,3.36564,3.36564,0,0,1,.19972,1.2585,3.15823,3.15823,0,0,1-.83208,2.41326,3.69406,3.69406,0,0,1-2.59193.778A15.15819,15.15819,0,0,1,7.99376,18.72Z"/><path d="M16.20778,30.20637A2.22669,2.22669,0,0,0,14.01131,28.564a2.06817,2.06817,0,0,0-.96649.28782c-.15625.09337-.45.27536-.58477.04606-.12205-.20768.10074-.40145.23407-.52944a2.21549,2.21549,0,0,0,.63771-1.18859,2.33121,2.33121,0,0,0-1.04826-2.36158,2.43449,2.43449,0,0,0-2.59586,0,2.33119,2.33119,0,0,0-1.04826,2.36158,2.21548,2.21548,0,0,0,.6377,1.18859c.13334.128.35612.32176.23408.52944-.1348.2293-.42852.04731-.58478-.04606A2.06813,2.06813,0,0,0,7.96,28.564a2.22671,2.22671,0,0,0-2.19648,1.64233,2.40939,2.40939,0,0,0,1.12964,2.69738,2.44061,2.44061,0,0,0,3.57359-1.50665h.19877a2.68909,2.68909,0,0,1-.39757,1.98856,2.64827,2.64827,0,0,1-.7176.71913v.35966H12.421v-.35966a2.64855,2.64855,0,0,1-.7176-.71913,2.68918,2.68918,0,0,1-.39757-1.98856h.19879a2.44059,2.44059,0,0,0,3.57357,1.50665A2.40937,2.40937,0,0,0,16.20778,30.20637Z"/><path d="M78.99755,108.28062l.49612.11254-.11231,1.00993a14.85425,14.85425,0,0,0-2.88-.38557,3.47773,3.47773,0,0,0-1.93565.46582,1.79189,1.79189,0,0,0-.70512,1.61862q0,1.92444,2.17688,1.98854h2.128v1.05886h-2.128a1.82052,1.82052,0,0,0-.90435.24759,2.05838,2.05838,0,0,0-.72757.69775,1.828,1.828,0,0,0-.28811,1.00993,1.51837,1.51837,0,0,0,.50394,1.27513,2.72775,2.72775,0,0,0,1.65536.39242,13.31922,13.31922,0,0,0,2.52845-.24074l.416-.08024.11231.97861a11.14113,11.14113,0,0,1-3.23259.44918,3.7855,3.7855,0,0,1-2.47963-.65762,3.01608,3.01608,0,0,1-.35255-3.54356,2.42533,2.42533,0,0,1,1.1524-.962,4.06809,4.06809,0,0,1-1.04009-.52943,1.80017,1.80017,0,0,1-.584-.777,3.35493,3.35493,0,0,1-.2002-1.2585,3.15822,3.15822,0,0,1,.83207-2.41326,3.6949,3.6949,0,0,1,2.59194-.778A15.16455,15.16455,0,0,1,78.99755,108.28062Z"/><path d="M70.783,96.77759a2.22669,2.22669,0,0,0,2.19647,1.64233,2.06817,2.06817,0,0,0,.96649-.28782c.15626-.09337.45-.27536.58477-.04607.12205.20769-.10074.40145-.23407.52945a2.21553,2.21553,0,0,0-.63771,1.18858,2.33122,2.33122,0,0,0,1.04826,2.36159,2.43454,2.43454,0,0,0,2.59586,0,2.33121,2.33121,0,0,0,1.04826-2.36159,2.2155,2.2155,0,0,0-.63769-1.18858c-.13335-.128-.35612-.32176-.23409-.52945.13481-.22929.42853-.0473.58479.04607a2.06806,2.06806,0,0,0,.96649.28782,2.2267,2.2267,0,0,0,2.19647-1.64233,2.40939,2.40939,0,0,0-1.12964-2.69738A2.44061,2.44061,0,0,0,76.524,95.58685h-.19878a2.68912,2.68912,0,0,1,.39757-1.98855,2.64813,2.64813,0,0,1,.7176-.71913V92.5195H74.56977v.35967a2.64859,2.64859,0,0,1,.71761.71913,2.68917,2.68917,0,0,1,.39757,1.98855h-.19879a2.4406,2.4406,0,0,0-3.57358-1.50664A2.40937,2.40937,0,0,0,70.783,96.77759Z"/><path d="M51.32859,22.61894a3.34,3.34,0,0,0-3.29471-2.4635,3.10235,3.10235,0,0,0-1.44973.43173c-.23439.14006-.675.413-.87716.0691-.18307-.31152.15112-.60217.35111-.79417a3.32323,3.32323,0,0,0,.95656-1.78288,3.49682,3.49682,0,0,0-1.57239-3.54237,3.65176,3.65176,0,0,0-3.89379,0,3.49682,3.49682,0,0,0-1.57239,3.54237,3.32327,3.32327,0,0,0,.95654,1.78288c.2.192.53418.48265.35113.79417-.20221.34395-.64279.071-.87718-.0691a3.10221,3.10221,0,0,0-1.44973-.43173,3.34,3.34,0,0,0-3.29471,2.4635A3.61409,3.61409,0,0,0,37.35659,26.665a3.66092,3.66092,0,0,0,5.36038-2.26h.29817a4.0337,4.0337,0,0,1-.59635,2.98283,3.97243,3.97243,0,0,1-1.07641,1.07869v.5395h4.306v-.5395A3.97271,3.97271,0,0,1,44.572,27.38787,4.03375,4.03375,0,0,1,43.9756,24.405h.29818a3.6609,3.6609,0,0,0,5.36036,2.26A3.61406,3.61406,0,0,0,51.32859,22.61894Z"/><path d="M35.66214,104.38106a3.34,3.34,0,0,0,3.29471,2.4635,3.10231,3.10231,0,0,0,1.44973-.43173c.23439-.14006.675-.413.87716-.0691.18308.31152-.15111.60217-.35111.79417a3.32323,3.32323,0,0,0-.95656,1.78288,3.49683,3.49683,0,0,0,1.57239,3.54237,3.65176,3.65176,0,0,0,3.89379,0,3.49678,3.49678,0,0,0,1.57239-3.54237,3.3232,3.3232,0,0,0-.95654-1.78288c-.2-.192-.53418-.48265-.35113-.79417.20221-.34395.64279-.071.87718.0691a3.10224,3.10224,0,0,0,1.44973.43173,3.34,3.34,0,0,0,3.29471-2.4635,3.61407,3.61407,0,0,0-1.69445-4.04607,3.66092,3.66092,0,0,0-5.36038,2.26H43.9756a4.03366,4.03366,0,0,1,.59635-2.98283,3.97225,3.97225,0,0,1,1.0764-1.07869v-.5395h-4.306v.5395a3.973,3.973,0,0,1,1.07641,1.07869,4.03379,4.03379,0,0,1,.59635,2.98283H42.717a3.66089,3.66089,0,0,0-5.36036-2.26A3.61407,3.61407,0,0,0,35.66214,104.38106Z"/><path d="M51.32859,64.62862a3.34,3.34,0,0,0-3.29471-2.4635,3.10235,3.10235,0,0,0-1.44973.43173c-.23439.14006-.675.413-.87716.0691-.18307-.31153.15112-.60218.35111-.79417a3.3233,3.3233,0,0,0,.95656-1.78288,3.4968,3.4968,0,0,0-1.57239-3.54237,3.65176,3.65176,0,0,0-3.89379,0,3.4968,3.4968,0,0,0-1.57239,3.54237,3.32334,3.32334,0,0,0,.95654,1.78288c.2.192.53418.48264.35113.79417-.20221.34395-.64279.071-.87718-.0691a3.10221,3.10221,0,0,0-1.44973-.43173,3.34,3.34,0,0,0-3.29471,2.4635,3.61409,3.61409,0,0,0,1.69445,4.04607,3.66092,3.66092,0,0,0,5.36038-2.26h.29817a4.03367,4.03367,0,0,1-.59635,2.98282,3.97246,3.97246,0,0,1-1.07641,1.0787v.5395h4.306v-.5395a3.97274,3.97274,0,0,1-1.07641-1.0787,4.03371,4.03371,0,0,1-.59635-2.98282h.29818a3.6609,3.6609,0,0,0,5.36036,2.26A3.61406,3.61406,0,0,0,51.32859,64.62862Z"/></g></svg>