<svg xmlns="http://www.w3.org/2000/svg" viewBox="0 0 115 167"><defs><style>.cls-1{fill:#fff;}.cls-2{fill:#ff3b5c;}</style></defs><title>card-spades-a</title><g id="artwork"><rect class="cls-1" width="115" height="167" rx="8"/><path d="M20.16919,38.78507c-.54553-1.71784-2.13293-2.67927-3.37659-3.8501a10.95844,10.95844,0,0,1-2.25478-3.01248A10.95844,10.95844,0,0,1,12.283,34.935c-1.24367,1.17083-2.831,2.13226-3.37656,3.8501a3.61485,3.61485,0,0,0,1.87489,4.47861,2.61246,2.61246,0,0,0,3.03724-.64681,2.089,2.089,0,0,0,.38258-.75081,3.28313,3.28313,0,0,1-.54,1.98477,3.2352,3.2352,0,0,1-.8766.87844v.43936h3.50653v-.43936a3.23545,3.23545,0,0,1-.87663-.87844,3.28308,3.28308,0,0,1-.54-1.98487,2.08913,2.08913,0,0,0,.38261.75091,2.61243,2.61243,0,0,0,3.03723.64681A3.6149,3.6149,0,0,0,20.16919,38.78507Z"/><path d="M17.666,20.74772H11.40561l-1.05727,3.77205H8.74049L12.75915,9.85329h3.55392l4.01866,14.66648H18.72388Zm-5.90083-1.463h5.542l-2.221-8.03241H13.98617Z"/><path d="M94.83081,128.21477c.54553,1.71784,2.13293,2.67927,3.37659,3.8501a10.95844,10.95844,0,0,1,2.25478,3.01248,10.95844,10.95844,0,0,1,2.25478-3.01248c1.24367-1.17083,2.831-2.13226,3.37656-3.8501a3.61485,3.61485,0,0,0-1.87489-4.47861,2.61246,2.61246,0,0,0-3.03724.64681,2.089,2.089,0,0,0-.38258.75081,3.28313,3.28313,0,0,1,.54-1.98477,3.2352,3.2352,0,0,1,.8766-.87844v-.43936H98.70892v.43936a3.23545,3.23545,0,0,1,.87663.87844,3.28308,3.28308,0,0,1,.54,1.98487,2.08913,2.08913,0,0,0-.38261-.75091,2.61243,2.61243,0,0,0-3.03723-.64681A3.6149,3.6149,0,0,0,94.83081,128.21477Z"/><path d="M97.32908,146.25228h6.261l1.05727-3.77205h1.60721l-4.01866,14.66648H98.68327l-4.01866-14.66648h1.6072Zm5.90083,1.463H97.68925l2.2204,8.03177h1.09987Z"/><path class="cls-2" d="M57.38882,78.845a4.50607,4.50607,0,1,1-4.50574,4.50574A4.51113,4.51113,0,0,1,57.38882,78.845m0-1.32184a5.8279,5.8279,0,1,0,5.82759,5.82758,5.82765,5.82765,0,0,0-5.82759-5.82758Z"/><path class="cls-2" d="M51.541,70.50352a6.66477,6.66477,0,0,0,5.828-4.61544V65.8866l.00149-.00149v.003a6.66453,6.66453,0,0,0,5.8265,4.61544Z"/><path class="cls-2" d="M67.67611,73.76877a6.66479,6.66479,0,0,0,6.193,4.11265l.00282-.00092-.00141.00046.00187.001-.00282.00092A6.66453,6.66453,0,0,0,71.2849,84.852Z"/><path class="cls-2" d="M54.46978,97.082a6.66477,6.66477,0,0,0-7.42947.26582l-.00176.00239.00088-.00119-.00208.00031.00176-.00239a6.66454,6.66454,0,0,0-1.95982-7.17Z"/><path class="cls-2" d="M47.12454,73.58592a6.66478,6.66478,0,0,1-6.21625,4.0775l-.00282-.00094.00141.00047-.00188.00094.00282.00094a6.66454,6.66454,0,0,1,2.5452,6.98372Z"/><path class="cls-2" d="M60.111,97.1366a6.66477,6.66477,0,0,1,7.42772.31086l.00175.0024-.00087-.0012.00207.00033-.00174-.0024a6.66454,6.66454,0,0,1,2.00326-7.158Z"/><path d="M57.34687,97.79254h0a6.22234,6.22234,0,0,1-5.61652-3.50242l-.94056-1.91176L48.688,92.07178a6.28643,6.28643,0,0,1-3.4716-10.71348l1.52241-1.489-.35951-2.1028a6.26658,6.26658,0,0,1,9.08813-6.62082l1.87949.99138,1.87949-.99138a6.26663,6.26663,0,0,1,9.08813,6.62082l-.35934,2.1028,1.52224,1.489A6.28633,6.28633,0,0,1,66.006,92.07178l-2.102.30658-.94039,1.91176A6.223,6.223,0,0,1,57.34687,97.79254ZM52.53729,71.72946A4.98046,4.98046,0,0,0,47.682,77.54381l.47633,2.78567-2.01777,1.97373a4.96432,4.96432,0,0,0,2.73807,8.46028l2.79019.40727,1.24745,2.53589a4.93306,4.93306,0,0,0,8.86126,0l1.24729-2.53589,2.79036-.40727a4.96435,4.96435,0,0,0,2.73791-8.46028l-2.01761-1.97373.47616-2.78567a4.94517,4.94517,0,0,0-7.16862-5.22927l-2.4962,1.31668-2.4962-1.31668A4.94913,4.94913,0,0,0,52.53729,71.72946Z"/><path d="M65.67538,55.63374h.00052a4.14769,4.14769,0,0,1,4.14729,4.14781v5.97136a4.36,4.36,0,0,0-4.14781-3.04734H49.10207a4.36047,4.36047,0,0,0-4.14781,3.04734V59.78155a4.14813,4.14813,0,0,1,4.14781-4.14781H65.67538Z"/><path d="M28.67132,82.61033l-.00016.0005a4.14767,4.14767,0,0,0,2.6627,5.2263L37.01279,89.683a4.36,4.36,0,0,1-1.616-4.88664l5.123-15.76165A4.36046,4.36046,0,0,1,44.7,66.032l-5.67893-1.84582a4.14813,4.14813,0,0,0-5.2268,2.66254h0Z"/><path d="M86.10613,82.61033l.00016.0005a4.14768,4.14768,0,0,1-2.6627,5.2263L77.76466,89.683a4.36,4.36,0,0,0,1.616-4.88664l-5.123-15.76165a4.36044,4.36044,0,0,0-4.18023-3.0027l5.67892-1.84582a4.14814,4.14814,0,0,1,5.22681,2.66254h0Z"/><path d="M66.84752,110.3824l-.00042.00031a4.14768,4.14768,0,0,1-5.79269-.92138l-3.507-4.833a4.36,4.36,0,0,0,5.14681.0304l13.41388-9.73357a4.36044,4.36044,0,0,0,1.56738-4.90244l3.507,4.833a4.14814,4.14814,0,0,1-.92107,5.79312h0Z"/><path d="M47.92992,110.3824l.00043.00031a4.14768,4.14768,0,0,0,5.79269-.92138l3.507-4.833a4.36,4.36,0,0,1-5.14682.0304L38.66935,94.92513A4.36047,4.36047,0,0,1,37.102,90.02269l-3.507,4.833a4.14813,4.14813,0,0,0,.92107,5.79312h0Z"/><path class="cls-2" d="M50.02526,115.3146a8.51877,8.51877,0,0,1,7.44922,5.89936v.0019l.0019.0019v-.0038a8.51849,8.51849,0,0,1,7.44733-5.89936Z"/><path class="cls-2" d="M85.67869,100.29511a8.51876,8.51876,0,0,1,7.91583-5.25672l.00361.00118-.0018-.00059.00239-.00122-.00361-.00118a8.51846,8.51846,0,0,1-3.30374-8.90789Z"/><path class="cls-2" d="M29.29994,100.29511a8.51878,8.51878,0,0,0-7.94549-5.21179l-.0036.0012.0018-.0006-.0024-.0012.0036-.0012a8.51848,8.51848,0,0,0,3.25322-8.92646Z"/><path class="cls-2" d="M44.66127,52.63752a8.51878,8.51878,0,0,1-9.49621-.33976l-.00225-.00306.00113.00153-.00266-.0004.00225.00306a8.51849,8.51849,0,0,1-2.505,9.16461Z"/><path class="cls-2" d="M70.23441,52.6951a8.51876,8.51876,0,0,0,9.494-.39733l.00223-.00307-.00112.00154.00265-.00042-.00223.00307a8.51851,8.51851,0,0,0,2.56053,9.14926Z"/><path d="M70.27692,116.45448a15.5407,15.5407,0,0,1-7.2614-1.81107L57.5,111.73414l-5.51552,2.90927A15.58316,15.58316,0,0,1,29.388,98.1756l1.05382-6.16514L25.978,87.64478a15.63568,15.63568,0,0,1,8.63117-26.64655l6.16707-.89876,2.75857-5.60781a15.55094,15.55094,0,0,1,27.9303,0l2.75857,5.60781,6.16707.89876A15.63568,15.63568,0,0,1,89.022,87.64478l-4.46379,4.36568L85.612,98.1756a15.62852,15.62852,0,0,1-15.33507,18.27888ZM57.5,110.24l6.13222,3.23456a13.95161,13.95161,0,0,0,14.9767-1.06657,14.231,14.231,0,0,0,5.70027-14.00968l-1.17064-6.848,4.95915-4.8504A14.24382,14.24382,0,0,0,91.69742,72.017a13.99948,13.99948,0,0,0-11.49735-9.71048l-6.85543-.99945-3.06546-6.23194a14.22931,14.22931,0,0,0-25.55836,0l-3.06546,6.23194-6.85543.99945A13.99948,13.99948,0,0,0,23.30258,72.017,14.24382,14.24382,0,0,0,26.9023,86.69987l4.95915,4.8504-1.17064,6.848A14.231,14.231,0,0,0,36.39108,112.408a13.94838,13.94838,0,0,0,14.9767,1.06657Z"/></g></svg>