<svg xmlns="http://www.w3.org/2000/svg" viewBox="0 0 87 127"><defs><style>.cls-1{fill:#fff;}.cls-2{fill:#ff3b5c;}</style></defs><title>card-spades-k</title><g id="artwork"><rect class="cls-1" x="0.00232" width="86.99536" height="127" rx="6"/><path d="M15.25994,29.67186c-.41269-1.29958-1.61352-2.02692-2.55433-2.91268a8.29025,8.29025,0,0,1-1.7057-2.279,8.29025,8.29025,0,0,1-1.7057,2.279c-.94081.88576-2.14162,1.6131-2.55431,2.91268A2.73479,2.73479,0,0,0,8.15823,33.06a1.97619,1.97619,0,0,0,2.29761-.48933,1.58047,1.58047,0,0,0,.28942-.568,2.48384,2.48384,0,0,1-.40854,1.50152,2.44747,2.44747,0,0,1-.66312.66456v.33238h2.65262v-.33238a2.44758,2.44758,0,0,1-.66315-.66456,2.48385,2.48385,0,0,1-.40853-1.5016,1.58046,1.58046,0,0,0,.28944.56808,1.97617,1.97617,0,0,0,2.29761.48933A2.73482,2.73482,0,0,0,15.25994,29.67186Z"/><path d="M10.87871,13.97341l-1.83985.0641v4.84217H7.80742V7.78466H9.03886v5.16267l1.82422-.06409,2.832-5.09858h1.40821l-3.168,5.57956,3.34375,5.51546H13.823Z"/><path d="M71.74006,97.32737c.41269,1.29959,1.61352,2.02693,2.55433,2.91269a8.29035,8.29035,0,0,1,1.7057,2.279,8.29035,8.29035,0,0,1,1.7057-2.279c.94081-.88576,2.14162-1.6131,2.55431-2.91269a2.73478,2.73478,0,0,0-1.41833-3.38816,1.97619,1.97619,0,0,0-2.29761.48933,1.58047,1.58047,0,0,0-.28942.568,2.48384,2.48384,0,0,1,.40854-1.50152,2.44747,2.44747,0,0,1,.66312-.66456v-.33239H74.67378v.33239a2.44758,2.44758,0,0,1,.66315.66456,2.48383,2.48383,0,0,1,.40853,1.50159,1.58042,1.58042,0,0,0-.28944-.56807,1.97617,1.97617,0,0,0-2.29761-.48933A2.73481,2.73481,0,0,0,71.74006,97.32737Z"/><path d="M76.12089,113.02561l1.83985-.06361v-4.84217h1.23144v11.09551H77.96074v-5.16316l-1.82422.06361-2.832,5.09955H71.89628l3.168-5.58-3.34375-5.51546h1.45606Z"/><rect x="29.57018" y="37.66747" width="5.57585" height="19.04163" rx="2.78792"/><rect x="51.85585" y="37.66747" width="5.57585" height="19.04163" rx="2.78792"/><rect class="cls-2" x="41.15873" y="54.94849" width="4.68445" height="0.5"/><rect x="37.68635" y="42.9056" width="0.50018" height="4.35287" transform="translate(-14.65508 71.64697) rotate(-76.71863)"/><path d="M39.31031,45.63948a1.11964,1.11964,0,1,1-2.17653-.52638S38.50428,45.44514,39.31031,45.63948Z"/><rect x="46.88915" y="44.83194" width="4.35287" height="0.50018" transform="translate(-9.04177 12.47289) rotate(-13.27655)"/><path d="M47.69155,45.63948a1.11964,1.11964,0,1,0,2.17654-.52638S48.49759,45.44514,47.69155,45.63948Z"/><path d="M43.50089,52.346a1.67793,1.67793,0,0,1-1.6759-1.676h.5a1.176,1.176,0,1,0,2.35193,0h.5A1.678,1.678,0,0,1,43.50089,52.346Z"/><path d="M43.50089,59.66773a5.32949,5.32949,0,0,1-2.77258-.78028c-2.78333-1.6936-6.1012-4.35522-6.1012-7.41723h.5c0,2.97876,3.67212,5.6582,5.86109,6.99a4.81815,4.81815,0,0,0,5.02563,0c2.18884-1.33179,5.861-4.01123,5.861-6.99h.5c0,3.062-3.31787,5.72363-6.10107,7.41723A5.33038,5.33038,0,0,1,43.50089,59.66773Z"/><path d="M45.21095,61.42305c-.16566.52057-.64768.81192-1.02534,1.16673a3.32159,3.32159,0,0,0-.68468.9129,3.32139,3.32139,0,0,0-.68468-.9129c-.37765-.35481-.85967-.64616-1.02533-1.16673a1.09464,1.09464,0,0,1,.56933-1.3572.79443.79443,0,0,1,.92229.196.6325.6325,0,0,1,.11617.22753.99334.99334,0,0,0-.164-.60146.98128.98128,0,0,0-.26618-.26621v-.13314h1.06479v.13314a.98121.98121,0,0,0-.2662.26621.99343.99343,0,0,0-.164.60149.63268.63268,0,0,1,.11619-.22756.79441.79441,0,0,1,.92228-.196A1.09464,1.09464,0,0,1,45.21095,61.42305Z"/><path class="cls-2" d="M37.92867,32.0571a2.92831,2.92831,0,0,1-2.78613-2.04688v10.186a2.78593,2.78593,0,0,0,2.78564,2.78613h.00049a2.78593,2.78593,0,0,0,2.78564-2.78613v-10.186A2.92862,2.92862,0,0,1,37.92867,32.0571Z"/><path class="cls-2" d="M43.50093,32.0571a2.92923,2.92923,0,0,1-2.78613-2.04688v10.186a2.78624,2.78624,0,0,0,2.78565,2.78613h.00048a2.78593,2.78593,0,0,0,2.78565-2.78613v-10.186A2.92819,2.92819,0,0,1,43.50093,32.0571Z"/><path class="cls-2" d="M49.07369,32.0571a2.9288,2.9288,0,0,1-2.78614-2.04688v10.186a2.78593,2.78593,0,0,0,2.78565,2.78613h.00049a2.78593,2.78593,0,0,0,2.78564-2.78613v-10.186A2.92862,2.92862,0,0,1,49.07369,32.0571Z"/><path d="M46.24157,41.15271c-.2655.83433-1.038,1.30127-1.6433,1.86992a5.32324,5.32324,0,0,0-1.09734,1.4631,5.32324,5.32324,0,0,0-1.09734-1.4631c-.60526-.56865-1.37779-1.03559-1.64329-1.86992a1.75435,1.75435,0,0,1,.91247-2.17517,1.27319,1.27319,0,0,1,1.47814.31415,1.01363,1.01363,0,0,1,.18619.36465,1.59209,1.59209,0,0,0-.26282-.964,1.573,1.573,0,0,0-.42662-.42665v-.21338H44.3542v.21338a1.573,1.573,0,0,0-.42664.42665,1.59211,1.59211,0,0,0-.26282.964,1.01393,1.01393,0,0,1,.18621-.36469,1.27318,1.27318,0,0,1,1.47814-.31415A1.75437,1.75437,0,0,1,46.24157,41.15271Z"/><path d="M47.9282,30.87633c-.42889-1.34778-1.67687-2.10209-2.65461-3.0207a8.599,8.599,0,0,1-1.77266-2.36351,8.59923,8.59923,0,0,1-1.77266,2.36351c-.97775.91861-2.22569,1.67292-2.65459,3.0207a2.834,2.834,0,0,0,1.474,3.5138,2.05676,2.05676,0,0,0,2.38781-.50748,1.63753,1.63753,0,0,0,.30078-.58906,2.57193,2.57193,0,0,1-.42457,1.5572,2.5409,2.5409,0,0,1-.68916.6892v.34471h2.75676V35.54a2.54087,2.54087,0,0,1-.68919-.6892,2.5719,2.5719,0,0,1-.42457-1.55728,1.63778,1.63778,0,0,0,.30081.58914,2.05674,2.05674,0,0,0,2.38781.50748A2.834,2.834,0,0,0,47.9282,30.87633Z"/><path class="cls-2" d="M54.681,58.31748h0a.71131.71131,0,0,1,.71131.71131v3.76258a.71131.71131,0,0,1-.71131.71131h0a.7113.7113,0,0,1-.7113-.7113V59.02879A.71131.71131,0,0,1,54.681,58.31748Z"/><path class="cls-2" d="M54.681,60.427h0a1.50329,1.50329,0,0,0,1.50328-1.50329V36.33355c0-.83024-1.50328-1.50328-1.50328-1.50328h0s-1.50329.673-1.50329,1.50328V58.92367A1.5033,1.5033,0,0,0,54.681,60.427Z"/><path class="cls-1" d="M56.0629,59.9812h-.25V36.3335c0-.34888-.57641-.80225-1.13208-1.09033-.55542.28735-1.13171.74023-1.13171,1.09033V59.9812h-.25V36.3335c0-.64868,1.10461-1.23194,1.32605-1.34229l.05591-.02783.05578.02783c.22144.1106,1.32605.69556,1.32605,1.34229Z"/><rect class="cls-1" x="54.55607" y="37.97803" width="0.25" height="22.00439"/><path d="M56.24238,58.66376c.435.13843.67849.54123.975.85681a2.7756,2.7756,0,0,0,.76286.57216,2.77557,2.77557,0,0,0-.76286.57215c-.29649.31558-.54.71838-.975.85681a.91471.91471,0,0,1-1.13413-.47576.66385.66385,0,0,1,.16379-.7707.52868.52868,0,0,1,.19013-.09708.83014.83014,0,0,0-.50261.137.82036.82036,0,0,0-.22245.22244h-.11126v-.88979h.11126a.82012.82012,0,0,0,.22245.22245.83017.83017,0,0,0,.50264.137.52875.52875,0,0,1-.19016-.09709.66386.66386,0,0,1-.16379-.77071A.91472.91472,0,0,1,56.24238,58.66376Z"/><path d="M53.11969,61.5217c-.435-.13843-.67848-.54124-.975-.85682a2.77545,2.77545,0,0,0-.76286-.57216,2.77522,2.77522,0,0,0,.76286-.57215c.2965-.31558.54-.71838.975-.85681a.91472.91472,0,0,1,1.13414.47576.66385.66385,0,0,1-.1638.7707.52844.52844,0,0,1-.19013.09708.83013.83013,0,0,0,.50261-.137.82008.82008,0,0,0,.22245-.22244h.11126v.88979H54.625a.82.82,0,0,0-.22245-.22245.83.83,0,0,0-.50263-.137.52863.52863,0,0,1,.19015.09709.66385.66385,0,0,1,.1638.7707A.91475.91475,0,0,1,53.11969,61.5217Z"/><rect x="51.85398" y="70.2909" width="5.57585" height="19.04163" rx="2.78792" transform="translate(109.2838 159.62342) rotate(180)"/><rect x="29.56831" y="70.2909" width="5.57585" height="19.04163" rx="2.78792" transform="translate(64.71246 159.62342) rotate(-180)"/><rect class="cls-2" x="41.15682" y="71.55151" width="4.68445" height="0.5"/><rect x="48.81347" y="79.74153" width="0.50018" height="4.35287" transform="translate(-41.93493 110.84997) rotate(-76.71863)"/><path d="M47.68969,81.36052a1.11964,1.11964,0,1,1,2.17653.52638S48.49572,81.55486,47.68969,81.36052Z"/><rect x="35.75797" y="81.66787" width="4.35287" height="0.50018" transform="translate(-17.7987 10.90112) rotate(-13.27655)"/><path d="M39.30845,81.36052a1.11964,1.11964,0,1,0-2.17654.52638S38.50241,81.55486,39.30845,81.36052Z"/><path d="M43.49911,74.65405a1.67793,1.67793,0,0,1,1.6759,1.676h-.5a1.176,1.176,0,1,0-2.35193,0h-.5A1.678,1.678,0,0,1,43.49911,74.65405Z"/><path d="M43.49911,67.33227a5.32949,5.32949,0,0,1,2.77258.78028c2.78333,1.6936,6.1012,4.35522,6.1012,7.41723h-.5c0-2.97876-3.67212-5.6582-5.86109-6.99a4.81815,4.81815,0,0,0-5.02563,0c-2.18884,1.33179-5.861,4.01123-5.861,6.99h-.5c0-3.062,3.31787-5.72363,6.10107-7.41723A5.33038,5.33038,0,0,1,43.49911,67.33227Z"/><path d="M41.78905,65.577c.16566-.52057.64768-.81192,1.02534-1.16673a3.32159,3.32159,0,0,0,.68468-.9129,3.32139,3.32139,0,0,0,.68468.9129c.37765.35481.85967.64616,1.02533,1.16673a1.09464,1.09464,0,0,1-.56933,1.3572.79443.79443,0,0,1-.92229-.196.6325.6325,0,0,1-.11617-.22753.99334.99334,0,0,0,.164.60146.98128.98128,0,0,0,.26618.26621v.13314H42.96667v-.13314a.98121.98121,0,0,0,.2662-.26621.99343.99343,0,0,0,.164-.60149.63268.63268,0,0,1-.11619.22756.79441.79441,0,0,1-.92228.196A1.09464,1.09464,0,0,1,41.78905,65.577Z"/><path class="cls-2" d="M49.07133,94.9429a2.92831,2.92831,0,0,1,2.78613,2.04688v-10.186a2.78593,2.78593,0,0,0-2.78564-2.78613h-.00049a2.78593,2.78593,0,0,0-2.78564,2.78613v10.186A2.92862,2.92862,0,0,1,49.07133,94.9429Z"/><path class="cls-2" d="M43.49907,94.9429a2.92923,2.92923,0,0,1,2.78613,2.04688v-10.186a2.78624,2.78624,0,0,0-2.78565-2.78613h-.00048a2.78593,2.78593,0,0,0-2.78565,2.78613v10.186A2.92819,2.92819,0,0,1,43.49907,94.9429Z"/><path class="cls-2" d="M37.92631,94.9429a2.9288,2.9288,0,0,1,2.78614,2.04688v-10.186a2.78593,2.78593,0,0,0-2.78565-2.78613h-.00049a2.78593,2.78593,0,0,0-2.78564,2.78613v10.186A2.92862,2.92862,0,0,1,37.92631,94.9429Z"/><path d="M40.75843,85.84729c.2655-.83433,1.038-1.30127,1.6433-1.86992a5.32324,5.32324,0,0,0,1.09734-1.4631,5.32324,5.32324,0,0,0,1.09734,1.4631c.60526.56865,1.37779,1.03559,1.64329,1.86992a1.75435,1.75435,0,0,1-.91247,2.17517,1.27319,1.27319,0,0,1-1.47814-.31415,1.01363,1.01363,0,0,1-.18619-.36465,1.59209,1.59209,0,0,0,.26282.964,1.573,1.573,0,0,0,.42662.42665v.21338H42.6458v-.21338a1.573,1.573,0,0,0,.42664-.42665,1.59211,1.59211,0,0,0,.26282-.964,1.01393,1.01393,0,0,1-.18621.36469,1.27318,1.27318,0,0,1-1.47814.31415A1.75437,1.75437,0,0,1,40.75843,85.84729Z"/><path d="M39.0718,96.12367c.42889,1.34778,1.67687,2.10209,2.65461,3.0207a8.599,8.599,0,0,1,1.77266,2.36351,8.59923,8.59923,0,0,1,1.77266-2.36351c.97775-.91861,2.22569-1.67292,2.65459-3.0207a2.834,2.834,0,0,0-1.474-3.5138,2.05676,2.05676,0,0,0-2.38781.50748,1.63753,1.63753,0,0,0-.30078.58906,2.57193,2.57193,0,0,1,.42457-1.5572,2.5409,2.5409,0,0,1,.68916-.6892V91.1153H42.12069V91.46a2.54087,2.54087,0,0,1,.68919.6892,2.5719,2.5719,0,0,1,.42457,1.55728,1.63778,1.63778,0,0,0-.30081-.58914,2.05674,2.05674,0,0,0-2.38781-.50748A2.834,2.834,0,0,0,39.0718,96.12367Z"/><path class="cls-2" d="M32.319,63.49732h0a.71131.71131,0,0,1,.71131.71131v3.76258a.71131.71131,0,0,1-.71131.71131h0a.7113.7113,0,0,1-.7113-.7113V64.20863A.71131.71131,0,0,1,32.319,63.49732Z" transform="translate(64.63793 132.17984) rotate(-180)"/><path class="cls-2" d="M32.319,66.573h0a1.50329,1.50329,0,0,0-1.50328,1.50329V90.66645c0,.83024,1.50328,1.50328,1.50328,1.50328h0s1.50329-.673,1.50329-1.50328V68.07633A1.5033,1.5033,0,0,0,32.319,66.573Z"/><path class="cls-1" d="M30.9371,67.0188h.25V90.6665c0,.34888.57641.80225,1.13208,1.09033.55542-.28735,1.13171-.74023,1.13171-1.09033V67.0188h.25V90.6665c0,.64868-1.10461,1.23194-1.32605,1.34229l-.05591.02783-.05578-.02783c-.22144-.1106-1.32605-.69556-1.32605-1.34229Z"/><rect class="cls-1" x="32.19393" y="67.01758" width="0.25" height="22.00439"/><path d="M30.75762,68.33624c-.435-.13843-.67849-.54123-.975-.85681a2.7756,2.7756,0,0,0-.76286-.57216,2.77557,2.77557,0,0,0,.76286-.57215c.29649-.31558.54-.71838.975-.85681a.91471.91471,0,0,1,1.13413.47576.66385.66385,0,0,1-.16379.7707.52868.52868,0,0,1-.19013.09708.83014.83014,0,0,0,.50261-.137.82036.82036,0,0,0,.22245-.22244h.11126v.88979h-.11126a.82012.82012,0,0,0-.22245-.22245.83017.83017,0,0,0-.50264-.137.52875.52875,0,0,1,.19016.09709.66386.66386,0,0,1,.16379.77071A.91472.91472,0,0,1,30.75762,68.33624Z"/><path d="M33.88031,65.4783c.435.13843.67848.54124.975.85682a2.77545,2.77545,0,0,0,.76286.57216,2.77522,2.77522,0,0,0-.76286.57215c-.2965.31558-.54.71838-.975.85681a.91472.91472,0,0,1-1.13414-.47576.66385.66385,0,0,1,.1638-.7707.52844.52844,0,0,1,.19013-.09708.83013.83013,0,0,0-.50261.137.82008.82008,0,0,0-.22245.22244h-.11126v-.88979H32.375a.82.82,0,0,0,.22245.22245.83.83,0,0,0,.50263.137.52863.52863,0,0,1-.19015-.09709.66385.66385,0,0,1-.1638-.7707A.91475.91475,0,0,1,33.88031,65.4783Z"/></g></svg>