<svg xmlns="http://www.w3.org/2000/svg" viewBox="0 0 87 127"><defs><style>.cls-1{fill:#fff;}</style></defs><title>card-spades-4</title><g id="artwork"><rect class="cls-1" x="-0.00463" width="87" height="127" rx="6"/><path d="M15.25382,29.67252c-.41271-1.29958-1.61361-2.02692-2.55447-2.91268a8.29036,8.29036,0,0,1-1.70579-2.279,8.29016,8.29016,0,0,1-1.70579,2.279c-.94086.88576-2.14173,1.6131-2.55444,2.91268a2.73473,2.73473,0,0,0,1.4184,3.38817,1.97636,1.97636,0,0,0,2.29773-.48933,1.58017,1.58017,0,0,0,.28943-.568,2.48371,2.48371,0,0,1-.40855,1.50152,2.44762,2.44762,0,0,1-.66316.66456v.33238h2.65276v-.33238a2.44759,2.44759,0,0,1-.66319-.66456,2.48371,2.48371,0,0,1-.40854-1.50159,1.58036,1.58036,0,0,0,.28945.56807,1.97635,1.97635,0,0,0,2.29773.48933A2.73476,2.73476,0,0,0,15.25382,29.67252Z"/><path d="M12.273,16.81225H7.15257v-.962l3.008-7.55195h1.3448L8.44952,15.72158H12.273V12.41877h1.23248v3.30281h1.34382v1.09067H13.50545v2.06829H12.273Z"/><path d="M71.73695,97.328c.41271,1.29959,1.61361,2.02693,2.55447,2.91269a8.29046,8.29046,0,0,1,1.70579,2.279,8.29026,8.29026,0,0,1,1.70579-2.279c.94086-.88576,2.14173-1.6131,2.55444-2.91269a2.73471,2.73471,0,0,0-1.4184-3.38816,1.97636,1.97636,0,0,0-2.29773.48933,1.58017,1.58017,0,0,0-.28943.568,2.48371,2.48371,0,0,1,.40855-1.50152,2.44762,2.44762,0,0,1,.66316-.66456v-.33239H74.67083v.33239a2.44759,2.44759,0,0,1,.66319.66456,2.48378,2.48378,0,0,1,.40855,1.50159,1.58055,1.58055,0,0,0-.28946-.56807,1.97635,1.97635,0,0,0-2.29773-.48933A2.73475,2.73475,0,0,0,71.73695,97.328Z"/><path d="M74.71672,110.189h5.12039v.961l-3.008,7.55293H75.48532l3.05583-7.42376H74.71672V114.582H73.48521v-3.30282h-1.3448V110.189h1.3448V108.1202h1.23151Z"/><path d="M33.88488,21.68361c-.61906-1.94938-2.42041-3.04039-3.8317-4.369a12.43542,12.43542,0,0,1-2.55868-3.41851,12.43546,12.43546,0,0,1-2.55869,3.41851c-1.41129,1.32864-3.21259,2.41965-3.83166,4.369a4.10208,4.10208,0,0,0,2.1276,5.08225,2.96457,2.96457,0,0,0,3.4466-.734,2.37067,2.37067,0,0,0,.43415-.852,3.72556,3.72556,0,0,1-.61284,2.25228,3.67136,3.67136,0,0,1-.99474.99684v.49858h3.97915V28.429a3.67168,3.67168,0,0,1-.99479-.99684,3.7256,3.7256,0,0,1-.61282-2.25239,2.37066,2.37066,0,0,0,.43418.85211,2.96454,2.96454,0,0,0,3.4466.734A4.10213,4.10213,0,0,0,33.88488,21.68361Z"/><path d="M21.10413,105.31639c.61906,1.94938,2.42041,3.04039,3.8317,4.369a12.43542,12.43542,0,0,1,2.55868,3.41851,12.43542,12.43542,0,0,1,2.55868-3.41851c1.4113-1.32864,3.2126-2.41965,3.83167-4.369a4.10208,4.10208,0,0,0-2.1276-5.08225,2.96456,2.96456,0,0,0-3.4466.734,2.37051,2.37051,0,0,0-.43415.852,3.72562,3.72562,0,0,1,.61283-2.25228,3.67139,3.67139,0,0,1,.99475-.99684v-.49858H25.50494V98.571a3.6715,3.6715,0,0,1,.99478.99684,3.72554,3.72554,0,0,1,.61283,2.25239,2.37084,2.37084,0,0,0-.43419-.85211,2.96454,2.96454,0,0,0-3.4466-.734A4.10213,4.10213,0,0,0,21.10413,105.31639Z"/><path d="M65.88661,21.68361c-.61907-1.94938-2.42042-3.04039-3.83171-4.369a12.43542,12.43542,0,0,1-2.55868-3.41851,12.43542,12.43542,0,0,1-2.55868,3.41851c-1.41129,1.32864-3.2126,2.41965-3.83167,4.369a4.10208,4.10208,0,0,0,2.1276,5.08225,2.96456,2.96456,0,0,0,3.4466-.734,2.37051,2.37051,0,0,0,.43415-.852,3.72555,3.72555,0,0,1-.61283,2.25228,3.6715,3.6715,0,0,1-.99474.99684v.49858H61.4858V28.429a3.67154,3.67154,0,0,1-.99479-.99684,3.7256,3.7256,0,0,1-.61282-2.25239,2.37066,2.37066,0,0,0,.43418.85211,2.96454,2.96454,0,0,0,3.4466.734A4.10214,4.10214,0,0,0,65.88661,21.68361Z"/><path d="M53.10585,105.31639c.61907,1.94938,2.42042,3.04039,3.83171,4.369a12.43542,12.43542,0,0,1,2.55868,3.41851,12.43542,12.43542,0,0,1,2.55868-3.41851c1.41129-1.32864,3.2126-2.41965,3.83167-4.369a4.10208,4.10208,0,0,0-2.1276-5.08225,2.96456,2.96456,0,0,0-3.4466.734,2.37051,2.37051,0,0,0-.43415.852,3.72555,3.72555,0,0,1,.61283-2.25228,3.6715,3.6715,0,0,1,.99474-.99684v-.49858H57.50666V98.571a3.67154,3.67154,0,0,1,.99479.99684,3.7256,3.7256,0,0,1,.61282,2.25239,2.37066,2.37066,0,0,0-.43418-.85211,2.96454,2.96454,0,0,0-3.4466-.734A4.10214,4.10214,0,0,0,53.10585,105.31639Z"/></g></svg>