<svg xmlns="http://www.w3.org/2000/svg" viewBox="0 0 115 167"><defs><style>.cls-1{fill:#fff;}.cls-2{fill:#ff3b5c;}</style></defs><title>card-joker-1</title><g id="artwork"><rect class="cls-1" width="115" height="167" rx="8"/><path d="M10.39342,25.98587a5.77173,5.77173,0,0,0,1.5646-.14812.98474.98474,0,0,0,.64546-.61513,4.71583,4.71583,0,0,0,.17944-1.54719V11.25523h1.60721l.02194,12.65371a4.79738,4.79738,0,0,1-.4544,2.37382,1.99349,1.99349,0,0,1-1.25866.96376,10.04445,10.04445,0,0,1-2.30559.20181Z"/><path d="M9.64339,46.545A4.29134,4.29134,0,0,1,7.8348,44.13883a13.92986,13.92986,0,0,1-.53961-4.29164,14.03507,14.03507,0,0,1,.54994-4.313A4.50345,4.50345,0,0,1,9.664,33.0543a6.22848,6.22848,0,0,1,3.40547-.81564,6.23448,6.23448,0,0,1,3.40547.81564,4.555,4.555,0,0,1,1.82924,2.4799,13.97383,13.97383,0,0,1,.56026,4.355,13.91608,13.91608,0,0,1-.53961,4.30264,4.21334,4.21334,0,0,1-1.797,2.37382,6.61232,6.61232,0,0,1-3.43774.76325A6.52288,6.52288,0,0,1,9.64339,46.545Zm5.93181-1.251a3.20149,3.20149,0,0,0,1.238-1.87577,13.67962,13.67962,0,0,0,.35888-3.52905,13.9,13.9,0,0,0-.3705-3.58143A3.50615,3.50615,0,0,0,15.54422,34.326a4.1432,4.1432,0,0,0-2.47471-.64617,4.20037,4.20037,0,0,0-2.47471.63517,3.45119,3.45119,0,0,0-1.25865,1.9715,13.79659,13.79659,0,0,0-.3705,3.56074,13.76409,13.76409,0,0,0,.36017,3.529,3.21017,3.21017,0,0,0,1.25865,1.90747,4.459,4.459,0,0,0,2.50569.60413A4.40943,4.40943,0,0,0,15.5752,45.29405Z"/><path d="M12.91073,61.82673l-2.43211.08409v6.40091H8.85076V53.64512h1.62786V60.4697l2.41145-.08408,3.74369-6.7405h1.86152l-4.18777,7.37567,4.42013,7.29094H16.80287Z"/><path d="M10.64773,76.28183v5.06523h6.00668v1.41977H10.64773v5.29874H17.9234v1.44111H9.01987V74.84007H17.9234v1.44176Z"/><path d="M8.35375,96.03437H13.7679a4.97137,4.97137,0,0,1,3.51132,1.09183,4.40668,4.40668,0,0,1,1.16313,3.35958q0,3.41325-2.68642,4.25994l2.81293,5.95591H16.7706l-2.64382-5.617H9.98161v5.617H8.35375Zm5.43481,7.60917q2.982,0,2.982-3.09437,0-3.07272-3.0027-3.073H9.98161v6.16741Z"/><path d="M104.60658,141.01348a5.77215,5.77215,0,0,0-1.5646.14812.98476.98476,0,0,0-.64546.61513,4.71394,4.71394,0,0,0-.17944,1.54654v12.4215h-1.60721l-.02194-12.65435a4.7974,4.7974,0,0,1,.4544-2.37383,1.99349,1.99349,0,0,1,1.25866-.96376,10.04512,10.04512,0,0,1,2.30559-.2018Z"/><path d="M105.35661,120.45436a4.29132,4.29132,0,0,1,1.80859,2.40616,17.26129,17.26129,0,0,1-.01033,8.60463,4.50342,4.50342,0,0,1-1.81891,2.4799,7.5171,7.5171,0,0,1-6.81094,0,4.555,4.555,0,0,1-1.82924-2.4799,17.31365,17.31365,0,0,1-.02065-8.65767,4.21337,4.21337,0,0,1,1.797-2.37382,6.61232,6.61232,0,0,1,3.43774-.76325A6.52288,6.52288,0,0,1,105.35661,120.45436ZM99.4248,121.7053a3.20149,3.20149,0,0,0-1.238,1.87578,13.67959,13.67959,0,0,0-.35888,3.529,13.8999,13.8999,0,0,0,.3705,3.58143,3.50618,3.50618,0,0,0,1.25736,1.98186,4.1432,4.1432,0,0,0,2.47471.64617,4.20037,4.20037,0,0,0,2.47471-.63518,3.45119,3.45119,0,0,0,1.25865-1.9715,17.38169,17.38169,0,0,0,.01033-7.08978,3.21017,3.21017,0,0,0-1.25865-1.90747,4.459,4.459,0,0,0-2.50569-.60413A4.40943,4.40943,0,0,0,99.4248,121.7053Z"/><path d="M102.08927,105.17262l2.43211-.08408V98.68762h1.62786v14.66661h-1.62786v-6.82458l-2.41145.08409-3.74369,6.74049H96.50472l4.18777-7.37567-4.42013-7.29094h1.92477Z"/><path d="M104.35227,90.71752V85.65229H98.34559V84.23252h6.00668V78.93378H97.0766V77.49267h8.90353V92.15928H97.0766V90.71752Z"/><path d="M106.64625,70.965H101.2321a4.97137,4.97137,0,0,1-3.51132-1.09183,4.40665,4.40665,0,0,1-1.16313-3.35957q0-3.41327,2.68642-4.26l-2.81293-5.9559H98.2294l2.64382,5.617h4.14517v-5.617h1.62786Zm-5.43481-7.60917q-2.982,0-2.982,3.09438,0,3.0727,3.0027,3.073h3.78629V63.35581Z"/><rect class="cls-2" x="57.17455" y="51.61936" width="0.66095" height="7.59549"/><rect class="cls-2" x="39.07392" y="41.43895" width="7.37076" height="25.36613" rx="3.68538"/><rect class="cls-2" x="68.55532" y="41.43895" width="7.37076" height="25.36613" rx="3.68538"/><path class="cls-2" d="M63.10005,52.42979a2.10053,2.10053,0,0,1,1.8368,1.45464v.00047l.00047.00047v-.00094a2.10043,2.10043,0,0,1,1.83633-1.45464Z"/><path class="cls-2" d="M64.93732,47.46751H63.10005v-.01639a2.10054,2.10054,0,0,0,1.8368-1.45465V45.996l.00047-.00047v.00093a2.10044,2.10044,0,0,0,1.83633,1.45465v.01639Z"/><circle class="cls-2" cx="64.93685" cy="49.93317" r="1.48006"/><path class="cls-2" d="M64.93657,54.542a.8191.8191,0,1,1-.81909.8191.8198.8198,0,0,1,.81909-.8191m0-.66095a1.48,1.48,0,1,0,1.48,1.48,1.48,1.48,0,0,0-1.48-1.48Z"/><circle class="cls-2" cx="50.06315" cy="49.93317" r="1.48006"/><path class="cls-2" d="M48.22635,52.42979a2.10052,2.10052,0,0,1,1.8368,1.45464v.00047l.00047.00047v-.00094a2.10044,2.10044,0,0,1,1.83633-1.45464Z"/><path class="cls-2" d="M50.06362,47.46751H48.22635v-.01639a2.10053,2.10053,0,0,0,1.8368-1.45465V45.996l.00047-.00047v.00093a2.10045,2.10045,0,0,0,1.83633,1.45465v.01639Z"/><circle cx="50.02967" cy="76.46878" r="1.48006"/><circle cx="64.90337" cy="76.46878" r="1.48006"/><circle cx="57.50191" cy="80.90965" r="2.59097"/><path class="cls-2" d="M56.65923,69.76242a7.5373,7.5373,0,0,0-6.591,5.21967v.00168l-.00168.00168v-.00336a7.537,7.537,0,0,0-6.58929-5.21967Z"/><path class="cls-2" d="M71.53292,69.76242a7.53729,7.53729,0,0,0-6.591,5.21967v.00168l-.00168.00168v-.00336A7.537,7.537,0,0,0,58.351,69.76242Z"/><path class="cls-2" d="M68.32576,69.76242A12.37429,12.37429,0,0,0,57.5051,78.33176v.00276l-.00276.00276v-.00552a12.37385,12.37385,0,0,0-10.8179-8.56934Z"/><path d="M63.34179,65.21509h-.661a1.84,1.84,0,0,0-.506-1.422,1.86974,1.86974,0,0,0-1.28608-.40374l-6.22453.00162a3.13214,3.13214,0,0,1-2.1494-.75035,2.9376,2.9376,0,0,1-.84636-2.24557h.66095a2.31153,2.31153,0,0,0,.63288,1.75889,2.4981,2.4981,0,0,0,1.68079.57672l6.21355-.00065a2.49636,2.49636,0,0,1,1.75744.5693A2.46013,2.46013,0,0,1,63.34179,65.21509Z"/><path d="M49.63282,37.89365V36.4912A4.15161,4.15161,0,0,0,46.476,32.46673,4.14323,4.14323,0,0,1,53.8409,35.088v2.80562Z"/><path d="M65.37738,37.89365V36.4912a4.15162,4.15162,0,0,1,3.15679-4.02447,4.14323,4.14323,0,0,0-7.36486,2.6213v2.80562Z"/><circle class="cls-2" cx="69.91113" cy="33.01442" r="1.48006"/><circle class="cls-2" cx="45.09908" cy="33.01442" r="1.48006"/><path d="M64.86869,35.91728h.00047a3.68566,3.68566,0,0,1,3.68531,3.68578v5.3062a3.86075,3.86075,0,0,0-7.36359-.01779v.01779l-.00375-.00889-.00374.00889v-.01779a3.85946,3.85946,0,0,0-7.3561,0v.01779l-.00375-.00889-.00374.00889v-.01779a3.86107,3.86107,0,0,0-7.36406.01779v-5.3062a3.68606,3.68606,0,0,1,3.68577-3.68578H64.86869Z"/><path d="M47.44457,37.179A11.505,11.505,0,0,0,57.5051,29.21162v-.00257l.00257-.00256v.00513a11.50463,11.50463,0,0,0,10.058,7.96737Z"/><circle class="cls-2" cx="57.5051" cy="26.61047" r="2.59097"/><rect class="cls-2" x="57.1645" y="107.78514" width="0.66095" height="7.59549"/><rect class="cls-2" x="68.55532" y="100.19492" width="7.37076" height="25.36613" rx="3.68538"/><rect class="cls-2" x="39.07392" y="100.19492" width="7.37076" height="25.36613" rx="3.68538"/><path class="cls-2" d="M51.89995,114.57021a2.10053,2.10053,0,0,1-1.8368-1.45464v-.00047l-.00047-.00047v.00094a2.10043,2.10043,0,0,1-1.83633,1.45464Z"/><path class="cls-2" d="M50.06268,119.53249h1.83727v.01639a2.10054,2.10054,0,0,0-1.8368,1.45465v.00046l-.00047.00047v-.00093a2.10044,2.10044,0,0,0-1.83633-1.45465v-.01639Z"/><circle class="cls-2" cx="50.06315" cy="117.06683" r="1.48006"/><path class="cls-2" d="M50.06343,112.458a.8191.8191,0,1,1,.81909-.8191.8198.8198,0,0,1-.81909.8191m0,.66095a1.48,1.48,0,1,0-1.48-1.48005,1.48,1.48,0,0,0,1.48,1.48005Z"/><circle class="cls-2" cx="64.93685" cy="117.06683" r="1.48006"/><path class="cls-2" d="M66.77365,114.57021a2.10052,2.10052,0,0,1-1.8368-1.45464v-.00047l-.00047-.00047v.00094a2.10044,2.10044,0,0,1-1.83633,1.45464Z"/><path class="cls-2" d="M64.93638,119.53249h1.83727v.01639a2.10053,2.10053,0,0,0-1.8368,1.45465v.00046l-.00047.00047v-.00093a2.10045,2.10045,0,0,0-1.83633-1.45465v-.01639Z"/><circle cx="64.97033" cy="90.53122" r="1.48006"/><circle cx="50.09663" cy="90.53122" r="1.48006"/><circle cx="57.49809" cy="86.09035" r="2.59097"/><path class="cls-2" d="M58.34077,97.23758a7.5373,7.5373,0,0,0,6.591-5.21967v-.00168l.00168-.00168v.00336a7.537,7.537,0,0,0,6.58929,5.21967Z"/><path class="cls-2" d="M43.46708,97.23758a7.53729,7.53729,0,0,0,6.591-5.21967v-.00168l.00168-.00168v.00336A7.537,7.537,0,0,0,56.649,97.23758Z"/><path class="cls-2" d="M46.67424,97.23758A12.37429,12.37429,0,0,0,57.4949,88.66824v-.00276l.00276-.00276v.00552a12.37385,12.37385,0,0,0,10.8179,8.56934Z"/><path d="M51.65821,101.78491h.661a1.84,1.84,0,0,0,.506,1.422,1.86974,1.86974,0,0,0,1.28608.40374l6.22453-.00162a3.13214,3.13214,0,0,1,2.1494.75035,2.9376,2.9376,0,0,1,.84636,2.24557h-.66095a2.31153,2.31153,0,0,0-.63288-1.75889,2.4981,2.4981,0,0,0-1.68079-.57672l-6.21355.00065a2.49636,2.49636,0,0,1-1.75744-.5693A2.46013,2.46013,0,0,1,51.65821,101.78491Z"/><path d="M65.36718,129.10635v1.40245a4.15161,4.15161,0,0,0,3.15678,4.02447,4.14323,4.14323,0,0,1-7.36486-2.6213v-2.80562Z"/><path d="M49.62262,129.10635v1.40245a4.15162,4.15162,0,0,1-3.15679,4.02447,4.14323,4.14323,0,0,0,7.36486-2.6213v-2.80562Z"/><circle class="cls-2" cx="45.08887" cy="133.98558" r="1.48006"/><circle class="cls-2" cx="69.90092" cy="133.98558" r="1.48006"/><path d="M50.13131,131.08272h-.00047a3.68566,3.68566,0,0,1-3.68531-3.68578v-5.3062a3.86075,3.86075,0,0,0,7.36359.01779v-.01779l.00375.00889.00374-.00889v.01779a3.85946,3.85946,0,0,0,7.3561,0v-.01779l.00375.00889.00374-.00889v.01779a3.86107,3.86107,0,0,0,7.36406-.01779v5.3062a3.68606,3.68606,0,0,1-3.68577,3.68578H50.13131Z"/><path d="M67.55543,129.821a11.505,11.505,0,0,0-10.06053,7.96737v.00257l-.00257.00256v-.00513a11.50463,11.50463,0,0,0-10.058-7.96737Z"/><circle class="cls-2" cx="57.4949" cy="140.38953" r="2.59097"/></g></svg>