<svg xmlns="http://www.w3.org/2000/svg" viewBox="0 0 115 167"><defs><style>.cls-1{fill:#fff;}.cls-2{fill:#ff3b5c;}</style></defs><title>card-hearts-j</title><g id="artwork"><rect class="cls-1" width="115" height="167" rx="8"/><path class="cls-2" d="M11.86474,24.57936a5.79582,5.79582,0,0,0,1.56589-.14747.981.981,0,0,0,.64417-.61577,4.70794,4.70794,0,0,0,.18073-1.54719V9.84872h1.60721l.02065,12.65306a4.78688,4.78688,0,0,1-.4544,2.37512,1.99349,1.99349,0,0,1-1.25866.96376,10.03678,10.03678,0,0,1-2.30559.20181Z"/><path class="cls-2" d="M14.54128,45.23831a25.15219,25.15219,0,0,1,2.33443-3.11912c1.62468-1.852,3.72992-3.72808,3.80593-6.38533a3.74367,3.74367,0,0,0-1.56109-3.27759,2.77928,2.77928,0,0,0-3.30514.16671,2.84737,2.84737,0,0,0-.96287,1.69845c-.02934.17674-.07364.46785-.31126.46785s-.28193-.29111-.31125-.46785a2.84739,2.84739,0,0,0-.96288-1.69845A2.77927,2.77927,0,0,0,9.962,32.45627a3.74369,3.74369,0,0,0-1.56109,3.27759c.076,2.65725,2.18125,4.53329,3.80591,6.38533A25.15127,25.15127,0,0,1,14.54128,45.23831Z"/><path class="cls-2" d="M103.13846,142.42064a5.73023,5.73023,0,0,0-1.5659.14876.97634.97634,0,0,0-.64417.61448,4.70822,4.70822,0,0,0-.18073,1.54719v12.42021h-1.6072l-.02066-12.65436a4.77554,4.77554,0,0,1,.45441-2.37253,1.9912,1.9912,0,0,1,1.25865-.96505,10.03694,10.03694,0,0,1,2.3056-.20181Z"/><path class="cls-2" d="M100.45872,121.93775a25.15144,25.15144,0,0,1-2.33443,3.11912c-1.62468,1.852-3.72992,3.72808-3.80593,6.38533a3.74364,3.74364,0,0,0,1.56109,3.27759,2.77928,2.77928,0,0,0,3.30514-.1667,2.84743,2.84743,0,0,0,.96287-1.69845c.02934-.17674.07364-.46786.31126-.46786s.28193.29112.31125.46786a2.84745,2.84745,0,0,0,.96288,1.69845,2.77927,2.77927,0,0,0,3.30513.1667,3.74367,3.74367,0,0,0,1.56109-3.27759c-.076-2.65725-2.18125-4.53329-3.80591-6.38533A25.15052,25.15052,0,0,1,100.45872,121.93775Z"/><path class="cls-2" d="M46.67356,77.95064h-.33048l.00145-9.7H46.675a3.35853,3.35853,0,0,0,3.3548-3.3548h.66095a4.02108,4.02108,0,0,1-3.68527,4.0022L47.004,77.28517A11.9269,11.9269,0,0,0,58.58591,65.37733h.661A12.58758,12.58758,0,0,1,46.67356,77.95064Z"/><path d="M43.25454,65.99794h-.33048L42.9239,44.46979h.66095L43.585,65.32117a3.2948,3.2948,0,0,0,2.9701-3.339h.661A3.94659,3.94659,0,0,1,43.25454,65.99794Z"/><circle cx="50.4718" cy="52.86595" r="1.48006"/><path d="M46.60643,43.549a3.87219,3.87219,0,0,1,3.683,2.70579V38.07738a3.68316,3.68316,0,0,0-3.68237-3.683h-.00065a3.68275,3.68275,0,0,0-3.68237,3.683v8.17738A3.87078,3.87078,0,0,1,46.60643,43.549Z"/><path d="M53.96276,43.549a3.871,3.871,0,0,1,3.683,2.70579V38.07738a3.68274,3.68274,0,0,0-3.68237-3.683h-.00065a3.68275,3.68275,0,0,0-3.68237,3.683v8.17738A3.87139,3.87139,0,0,1,53.96276,43.549Z"/><path class="cls-2" d="M50.28493,40.007a18.99721,18.99721,0,0,0-1.76642-2.35523c-1.22936-1.39846-2.82236-2.815-2.87987-4.82152a2.82469,2.82469,0,0,1,1.18124-2.47489,2.10657,2.10657,0,0,1,2.50094.12588,2.149,2.149,0,0,1,.72858,1.28249c.0222.13345.05572.35327.23553.35327s.21333-.21982.23551-.35327a2.149,2.149,0,0,1,.72859-1.28249A2.10655,2.10655,0,0,1,53.75,30.35533a2.82469,2.82469,0,0,1,1.18124,2.47489c-.0575,2.00647-1.65051,3.42306-2.87986,4.82152A18.99515,18.99515,0,0,0,50.28493,40.007Z"/><path class="cls-2" d="M46.3444,77.945a10.82344,10.82344,0,0,0,1.00642,1.34191c.70044.79678,1.60806,1.60389,1.64083,2.74709a1.60939,1.60939,0,0,1-.673,1.41008,1.2002,1.2002,0,0,1-1.42492-.07172,1.22439,1.22439,0,0,1-.41512-.7307c-.01265-.076-.03174-.20128-.13419-.20128s-.12154.12524-.13418.20128a1.2244,1.2244,0,0,1-.41513.7307,1.20019,1.20019,0,0,1-1.42491.07172,1.60939,1.60939,0,0,1-.673-1.41008c.03276-1.1432.94039-1.95031,1.64082-2.74709A10.82245,10.82245,0,0,0,46.3444,77.945Z"/><rect x="57.60762" y="38.90956" width="7.37076" height="38.58523" rx="3.68538"/><rect x="64.96119" y="44.16672" width="7.37076" height="25.36613" rx="3.68538"/><path class="cls-1" d="M65.03307,57.20693a3.69938,3.69938,0,0,1,3.58715-2.95644,3.69924,3.69924,0,0,0,0-1.481,3.699,3.699,0,0,1-3.58715-2.95644c-.01354,0-.02581-.0038-.03892-.0038a3.70073,3.70073,0,1,0,0,7.40146C65.00726,57.21074,65.01953,57.20735,65.03307,57.20693Z"/><rect class="cls-2" x="66.65959" y="49.80423" width="3.97498" height="33.83984" rx="1.98749"/><rect class="cls-1" x="68.48184" y="53.51242" width="0.33048" height="29.7704"/><path class="cls-1" d="M68.64708,83.47871a1.82433,1.82433,0,0,1-1.82231-1.82214V51.79193a1.82231,1.82231,0,1,1,3.64461,0V81.65657A1.82433,1.82433,0,0,1,68.64708,83.47871Zm0-33.17877a1.4936,1.4936,0,0,0-1.49183,1.492V81.65657a1.49183,1.49183,0,0,0,2.98365,0V51.79193A1.49359,1.49359,0,0,0,68.64708,50.29994Z"/><path class="cls-2" d="M66.65907,53.50075a6.63223,6.63223,0,0,0-.82233.61674A2.87142,2.87142,0,0,1,64.15331,55.123a.98626.98626,0,0,1-.86411-.41243.73551.73551,0,0,1,.044-.8732.75031.75031,0,0,1,.44778-.25439c.0466-.00775.12335-.01945.12335-.08223s-.07675-.07448-.12335-.08223a.75031.75031,0,0,1-.44778-.25439.7355.7355,0,0,1-.044-.87319.98622.98622,0,0,1,.86411-.41243,2.8714,2.8714,0,0,1,1.68343,1.0055A6.63223,6.63223,0,0,0,66.65907,53.50075Z"/><path class="cls-1" d="M68.65471,54.52176a3.56551,3.56551,0,0,0-.33156-.44209,1.54375,1.54375,0,0,1-.54057-.905.53023.53023,0,0,1,.22173-.46455.3954.3954,0,0,1,.46944.02363.40333.40333,0,0,1,.13675.24073c.00417.02505.01046.06631.04421.06631s.04005-.04126.04421-.06631a.40339.40339,0,0,1,.13676-.24073.3954.3954,0,0,1,.46944-.02363.5302.5302,0,0,1,.22172.46455,1.54373,1.54373,0,0,1-.54056.905A3.56559,3.56559,0,0,0,68.65471,54.52176Z"/><path class="cls-2" d="M68.32644,89.04936h.33048l-.00145,9.7H68.325a3.35853,3.35853,0,0,0-3.3548,3.3548h-.66095a4.02108,4.02108,0,0,1,3.68527-4.0022l.00146-8.38716a11.9269,11.9269,0,0,0-11.58188,11.90784h-.661A12.58758,12.58758,0,0,1,68.32644,89.04936Z"/><path d="M71.74546,101.00206h.33048l.00016,21.52815h-.66095L71.415,101.67883a3.2948,3.2948,0,0,0-2.9701,3.339h-.661A3.94659,3.94659,0,0,1,71.74546,101.00206Z"/><circle cx="64.5282" cy="114.13405" r="1.48006"/><path d="M68.39357,123.451a3.87219,3.87219,0,0,1-3.683-2.70579v8.17738a3.68316,3.68316,0,0,0,3.68237,3.683h.00065a3.68275,3.68275,0,0,0,3.68237-3.683v-8.17738A3.87078,3.87078,0,0,1,68.39357,123.451Z"/><path d="M61.03724,123.451a3.871,3.871,0,0,1-3.683-2.70579v8.17738a3.68274,3.68274,0,0,0,3.68237,3.683h.00065a3.68275,3.68275,0,0,0,3.68237-3.683v-8.17738A3.87139,3.87139,0,0,1,61.03724,123.451Z"/><path class="cls-2" d="M64.71507,126.993a18.99721,18.99721,0,0,0,1.76642,2.35523c1.22936,1.39846,2.82236,2.815,2.87987,4.82152a2.82469,2.82469,0,0,1-1.18124,2.47489,2.10657,2.10657,0,0,1-2.50094-.12588,2.149,2.149,0,0,1-.72858-1.28249c-.0222-.13345-.05572-.35327-.23553-.35327s-.21333.21982-.23551.35327a2.149,2.149,0,0,1-.72859,1.28249,2.10655,2.10655,0,0,1-2.50093.12588,2.82469,2.82469,0,0,1-1.18124-2.47489c.0575-2.00647,1.65051-3.42306,2.87986-4.82152A18.99515,18.99515,0,0,0,64.71507,126.993Z"/><path class="cls-2" d="M68.6556,89.055a10.82344,10.82344,0,0,0-1.00642-1.34191c-.70044-.79678-1.60806-1.60389-1.64083-2.74709a1.60939,1.60939,0,0,1,.673-1.41008,1.2002,1.2002,0,0,1,1.42492.07172,1.22439,1.22439,0,0,1,.41512.7307c.01265.076.03174.20128.13419.20128s.12154-.12524.13418-.20128a1.2244,1.2244,0,0,1,.41513-.7307,1.20019,1.20019,0,0,1,1.42491-.07172,1.60939,1.60939,0,0,1,.673,1.41008c-.03276,1.1432-.94039,1.95031-1.64082,2.74709A10.82245,10.82245,0,0,0,68.6556,89.055Z"/><rect x="50.02162" y="89.50521" width="7.37076" height="38.58523" rx="3.68538"/><rect x="42.66804" y="97.46715" width="7.37076" height="25.36613" rx="3.68538"/><path class="cls-1" d="M49.96693,109.79307a3.69938,3.69938,0,0,1-3.58715,2.95644,3.69924,3.69924,0,0,0,0,1.481,3.699,3.699,0,0,1,3.58715,2.95644c.01354,0,.02581.0038.03892.0038a3.70073,3.70073,0,1,0,0-7.40146C49.99274,109.78926,49.98047,109.79265,49.96693,109.79307Z"/><rect class="cls-2" x="44.36543" y="83.35593" width="3.97498" height="33.83984" rx="1.98749"/><rect class="cls-1" x="46.18769" y="83.71719" width="0.33048" height="29.7704"/><path class="cls-1" d="M46.35292,83.52129a1.82433,1.82433,0,0,1,1.82231,1.82214v29.86464a1.82231,1.82231,0,1,1-3.64461,0V85.34343A1.82433,1.82433,0,0,1,46.35292,83.52129Zm0,33.17877a1.4936,1.4936,0,0,0,1.49183-1.492V85.34343a1.49183,1.49183,0,0,0-2.98365,0v29.86464A1.49359,1.49359,0,0,0,46.35292,116.70006Z"/><path class="cls-2" d="M48.34093,113.49925a6.63223,6.63223,0,0,0,.82233-.61674,2.87142,2.87142,0,0,1,1.68343-1.00551.98626.98626,0,0,1,.86411.41243.73551.73551,0,0,1-.044.8732.75031.75031,0,0,1-.44778.25439c-.0466.00775-.12335.01945-.12335.08223s.07675.07448.12335.08223a.75031.75031,0,0,1,.44778.25439.7355.7355,0,0,1,.044.87319.98622.98622,0,0,1-.86411.41243,2.8714,2.8714,0,0,1-1.68343-1.0055A6.63223,6.63223,0,0,0,48.34093,113.49925Z"/><path class="cls-1" d="M46.34529,112.47824a3.56551,3.56551,0,0,0,.33156.44209,1.54375,1.54375,0,0,1,.54057.905.53023.53023,0,0,1-.22173.46455.3954.3954,0,0,1-.46944-.02363.40333.40333,0,0,1-.13675-.24073c-.00417-.02505-.01046-.06631-.04421-.06631s-.04005.04126-.04421.06631a.40339.40339,0,0,1-.13676.24073.3954.3954,0,0,1-.46944.02363.5302.5302,0,0,1-.22172-.46455,1.54373,1.54373,0,0,1,.54056-.905A3.56559,3.56559,0,0,0,46.34529,112.47824Z"/></g></svg>