<svg xmlns="http://www.w3.org/2000/svg" viewBox="0 0 115 167"><defs><style>.cls-1{fill:#fff;}.cls-2{fill:#ff3b5c;}</style></defs><title>card-clubs-k</title><g id="artwork"><rect class="cls-1" width="115" height="167" rx="8"/><path d="M14.36791,18.031l-2.43211.08538v6.40092H10.30794V9.85H11.9358v6.82523l2.41146-.08538L18.09094,9.85h1.86152l-4.18777,7.37632,4.42014,7.29094H18.26006Z"/><path d="M21.43021,39.48866a2.94337,2.94337,0,0,0-2.90339-2.171,2.73387,2.73387,0,0,0-1.27754.38047c-.20655.12344-.5948.364-.773.0609-.16133-.27454.13316-.53068.3094-.69988a2.92869,2.92869,0,0,0,.84295-1.5712,3.08172,3.08172,0,0,0-1.38563-3.1218,3.2179,3.2179,0,0,0-3.43131,0,3.08171,3.08171,0,0,0-1.38563,3.1218,2.92873,2.92873,0,0,0,.84293,1.5712c.17626.1692.47073.42534.30942.69988-.17819.30311-.56644.06254-.773-.0609a2.7338,2.7338,0,0,0-1.27754-.38047,2.94338,2.94338,0,0,0-2.90339,2.171,3.18506,3.18506,0,0,0,1.4932,3.56569,3.226,3.226,0,0,0,4.72371-1.99165h.26275a3.5549,3.5549,0,0,1-.52553,2.62869,3.5005,3.5005,0,0,1-.94855.95062v.47545h3.79454V44.642a3.501,3.501,0,0,1-.94856-.95062,3.55494,3.55494,0,0,1-.52552-2.62869h.26277A3.226,3.226,0,0,0,19.937,43.05435,3.18506,3.18506,0,0,0,21.43021,39.48866Z"/><path d="M100.63542,148.96773l2.43211-.08408v-6.40092h1.62785V157.15h-1.62785v-6.82523l-2.41146.08408L96.91238,157.15H95.05087l4.18777-7.37632-4.42014-7.29094h1.92477Z"/><path d="M93.56979,127.48979a2.94335,2.94335,0,0,0,2.90339,2.171,2.73375,2.73375,0,0,0,1.27754-.38047c.20655-.12343.5948-.364.773-.0609.16133.27454-.13316.53069-.3094.69988a2.92875,2.92875,0,0,0-.843,1.57121,3.08171,3.08171,0,0,0,1.38563,3.12179,3.21784,3.21784,0,0,0,3.43131,0,3.08169,3.08169,0,0,0,1.38563-3.12179,2.92879,2.92879,0,0,0-.84293-1.57121c-.17626-.16919-.47073-.42534-.30942-.69988.17819-.30311.56644-.06253.773.0609a2.73368,2.73368,0,0,0,1.27754.38047,2.94336,2.94336,0,0,0,2.90339-2.171,3.18508,3.18508,0,0,0-1.4932-3.5657,3.22606,3.22606,0,0,0-4.72371,1.99166h-.26275a3.5549,3.5549,0,0,1,.52553-2.62869,3.50053,3.50053,0,0,1,.94855-.95063V121.861H98.57536v.47544a3.501,3.501,0,0,1,.94856.95063,3.55494,3.55494,0,0,1,.52552,2.62869h-.26277a3.226,3.226,0,0,0-4.72369-1.99166A3.18507,3.18507,0,0,0,93.56979,127.48979Z"/><path d="M52.89837,78.4503a1.95988,1.95988,0,0,0,1.93379,1.443,1.82364,1.82364,0,0,0,.8509-.25288c.13757-.082.39617-.24194.51484-.04048.10745.18247-.0887.35272-.20608.46518a1.94534,1.94534,0,0,0-.56144,1.0443,2.04659,2.04659,0,0,0,.92289,2.07491,2.1471,2.1471,0,0,0,2.28542,0,2.04657,2.04657,0,0,0,.92289-2.07491,1.94526,1.94526,0,0,0-.56143-1.0443c-.1174-.11246-.31353-.28271-.20609-.46518.11868-.20146.37728-.04156.51485.04048a1.8236,1.8236,0,0,0,.8509.25288,1.95987,1.95987,0,0,0,1.93379-1.443,2.11514,2.11514,0,0,0-.99454-2.37,2.14995,2.14995,0,0,0-3.14621,1.32376h-.175a2.35872,2.35872,0,0,1,.35-1.74716,2.32889,2.32889,0,0,1,.63179-.63184v-.316H56.23231v.316a2.32917,2.32917,0,0,1,.63179.63184,2.35877,2.35877,0,0,1,.35,1.74716h-.175a2.14992,2.14992,0,0,0-3.14619-1.32376A2.11514,2.11514,0,0,0,52.89837,78.4503Z"/><path class="cls-2" d="M57.49591,75.14862a7.04311,7.04311,0,0,1-3.66527-1.03145c-3.67914-2.23879-8.06507-5.75721-8.06507-9.80491h.661c0,3.93765,4.85421,7.47963,7.74782,9.24013a6.36843,6.36843,0,0,0,6.64343,0c2.89346-1.7605,7.74767-5.30248,7.74767-9.24013h.66095c0,4.0477-4.38592,7.56612-8.06507,9.80491A7.04324,7.04324,0,0,1,57.49591,75.14862Z"/><path d="M50.13,47.294a3.871,3.871,0,0,0-3.683,2.70578V41.82236a3.68274,3.68274,0,0,1,3.68237-3.683H50.13a3.68274,3.68274,0,0,1,3.68237,3.683v8.17737A3.87138,3.87138,0,0,0,50.13,47.294Z"/><path d="M57.496,47.294a3.87219,3.87219,0,0,0-3.683,2.70578V41.82236a3.68316,3.68316,0,0,1,3.68237-3.683H57.496a3.68275,3.68275,0,0,1,3.68237,3.683v8.17737A3.87079,3.87079,0,0,0,57.496,47.294Z"/><path d="M64.86266,47.294a3.87157,3.87157,0,0,0-3.683,2.70578V41.82236a3.68274,3.68274,0,0,1,3.68237-3.683h.00064a3.68274,3.68274,0,0,1,3.68237,3.683v8.17737A3.87138,3.87138,0,0,0,64.86266,47.294Z"/><rect x="39.08078" y="46.79216" width="7.37076" height="25.17131" rx="3.68538"/><rect x="68.54042" y="46.79216" width="7.37076" height="25.17131" rx="3.68538"/><path class="cls-2" d="M50.13,36.87939a3.871,3.871,0,0,1-3.683-2.70578V42.351a3.68274,3.68274,0,0,0,3.68237,3.683H50.13a3.68274,3.68274,0,0,0,3.68237-3.683V34.17361A3.87136,3.87136,0,0,1,50.13,36.87939Z"/><path class="cls-2" d="M57.496,36.87939a3.87218,3.87218,0,0,1-3.683-2.70578V42.351a3.68316,3.68316,0,0,0,3.68237,3.683H57.496a3.68275,3.68275,0,0,0,3.68237-3.683V34.17361A3.87078,3.87078,0,0,1,57.496,36.87939Z"/><path class="cls-2" d="M64.86266,36.87939a3.87156,3.87156,0,0,1-3.683-2.70578V42.351A3.68274,3.68274,0,0,0,64.862,46.034h.00064A3.68274,3.68274,0,0,0,68.545,42.351V34.17361A3.87136,3.87136,0,0,1,64.86266,36.87939Z"/><path d="M67.01782,42.36971a.89608.89608,0,0,0-.88416-.65974.83378.83378,0,0,0-.389.11562c-.0629.03751-.18114.11062-.2354.0185-.04912-.08342.04056-.16126.09423-.21268a.88949.88949,0,0,0,.2567-.47747.93573.93573,0,0,0-.422-.94868.98168.98168,0,0,0-1.04493,0,.93572.93572,0,0,0-.422.94868.88948.88948,0,0,0,.25669.47747c.05368.05142.14336.12926.09423.21268-.05426.09212-.17249.019-.23539-.0185a.83382.83382,0,0,0-.38905-.11562.89608.89608,0,0,0-.88416.65974.96709.96709,0,0,0,.45472,1.08358.983.983,0,0,0,1.43849-.60524h.08a1.07848,1.07848,0,0,1-.16.79883,1.06478,1.06478,0,0,1-.28886.28888v.14448h1.15554v-.14448a1.06506,1.06506,0,0,1-.28886-.28888,1.07848,1.07848,0,0,1-.16-.79883h.08a.983.983,0,0,0,1.43849.60524A.96709.96709,0,0,0,67.01782,42.36971Z"/><path d="M52.17835,42.36971a.89608.89608,0,0,0-.88416-.65974.83374.83374,0,0,0-.389.11562c-.0629.03751-.18114.11062-.2354.0185-.04912-.08342.04056-.16126.09423-.21268a.88949.88949,0,0,0,.2567-.47747.93572.93572,0,0,0-.422-.94868.98167.98167,0,0,0-1.04492,0,.93572.93572,0,0,0-.422.94868.88948.88948,0,0,0,.25669.47747c.05368.05142.14335.12926.09423.21268-.05426.09212-.1725.019-.23539-.0185a.83382.83382,0,0,0-.389-.11562.89608.89608,0,0,0-.88416.65974.96709.96709,0,0,0,.45472,1.08358.983.983,0,0,0,1.43849-.60524h.08a1.07848,1.07848,0,0,1-.16.79883,1.06506,1.06506,0,0,1-.28886.28888v.14448H50.654v-.14448a1.06506,1.06506,0,0,1-.28886-.28888,1.07848,1.07848,0,0,1-.16-.79883h.08a.983.983,0,0,0,1.43849.60524A.96709.96709,0,0,0,52.17835,42.36971Z"/><path d="M59.59808,42.36971a.89606.89606,0,0,0-.88415-.65974.83382.83382,0,0,0-.389.11562c-.0629.03751-.18113.11062-.23539.0185-.04913-.08342.04055-.16126.09422-.21268a.88943.88943,0,0,0,.2567-.47747.93573.93573,0,0,0-.422-.94868.98167.98167,0,0,0-1.04492,0,.93572.93572,0,0,0-.422.94868.88941.88941,0,0,0,.25669.47747c.05367.05142.14335.12926.09423.21268-.05427.09212-.1725.019-.2354-.0185A.83378.83378,0,0,0,56.278,41.71a.89606.89606,0,0,0-.88415.65974.96707.96707,0,0,0,.45472,1.08358.983.983,0,0,0,1.43849-.60524h.08a1.07843,1.07843,0,0,1-.16.79883,1.06506,1.06506,0,0,1-.28886.28888v.14448h1.15553v-.14448a1.06534,1.06534,0,0,1-.28886-.28888,1.07848,1.07848,0,0,1-.16-.79883h.08a.983.983,0,0,0,1.43849.60524A.96708.96708,0,0,0,59.59808,42.36971Z"/><rect x="57.16543" y="59.24375" width="0.66095" height="3.62976"/><path class="cls-2" d="M57.49591,69.262a3.97876,3.97876,0,0,1-3.43532-1.96285l.567-.33952a3.32677,3.32677,0,0,0,5.73655,0l.567.33952A3.97875,3.97875,0,0,1,57.49591,69.262Z"/><path class="cls-2" d="M72.276,71.47462h0a.94028.94028,0,0,1,.94028.94028v4.97378a.94029.94029,0,0,1-.94029.94029h0a.94028.94028,0,0,1-.94028-.94028v-4.9738a.94028.94028,0,0,1,.94028-.94028Z"/><path class="cls-2" d="M72.276,74.26315h0a1.9872,1.9872,0,0,0,1.9872-1.9872V42.41385c0-1.0975-1.9872-1.9872-1.9872-1.9872h0s-1.9872.8897-1.9872,1.9872V72.276A1.9872,1.9872,0,0,0,72.276,74.26315Z"/><path class="cls-1" d="M74.10272,73.67406h-.33048V42.41393c0-.46183-.762-1.06082-1.49651-1.44132-.73421.37954-1.496.9782-1.496,1.44132V73.67406h-.33048V42.41393c0-.8575,1.4602-1.6285,1.75292-1.77438l.07374-.03679.07375.03679c.29272.1462,1.75308.9185,1.75308,1.77438Z"/><rect class="cls-1" x="72.11074" y="44.58753" width="0.33048" height="29.08814"/><path d="M74.45246,76.87459a1.1407,1.1407,0,0,0,.83986-1.12553,1.06144,1.06144,0,0,0-.14718-.49526c-.04775-.08007-.14082-.23058-.02356-.29965.10621-.06254.20529.05162.27075.12a1.13226,1.13226,0,0,0,.60782.32678,1.19121,1.19121,0,0,0,1.20767-.53716,1.24966,1.24966,0,0,0,0-1.33019,1.19117,1.19117,0,0,0-1.20767-.53716,1.13225,1.13225,0,0,0-.60782.32677c-.06546.06833-.16454.18249-.27075.12-.11726-.06908-.02419-.21959.02356-.29966a1.06141,1.06141,0,0,0,.14718-.49526,1.14071,1.14071,0,0,0-.83986-1.12553,1.23107,1.23107,0,0,0-1.37938.57885,1.25135,1.25135,0,0,0,.77047,1.83121v.10185a1.37284,1.37284,0,0,1-1.01691-.20372,1.35563,1.35563,0,0,1-.36775-.36772H72.275v1.471h.18393a1.35563,1.35563,0,0,1,.36775-.36772,1.37289,1.37289,0,0,1,1.01691-.20372v.10186a1.25133,1.25133,0,0,0-.77047,1.8312A1.23107,1.23107,0,0,0,74.45246,76.87459Z"/><path d="M70.09954,76.87459a1.1407,1.1407,0,0,1-.83986-1.12553,1.06145,1.06145,0,0,1,.14719-.49526c.04775-.08007.14081-.23058.02356-.29965-.10621-.06254-.2053.05162-.27075.12a1.13233,1.13233,0,0,1-.60782.32678,1.19121,1.19121,0,0,1-1.20767-.53716,1.24966,1.24966,0,0,1,0-1.33019,1.19117,1.19117,0,0,1,1.20767-.53716,1.13232,1.13232,0,0,1,.60782.32677c.06545.06833.16454.18249.27075.12.11725-.06908.02419-.21959-.02356-.29966a1.06142,1.06142,0,0,1-.14719-.49526,1.14071,1.14071,0,0,1,.83986-1.12553,1.23109,1.23109,0,0,1,1.37939.57885,1.25135,1.25135,0,0,1-.77047,1.83121v.10185a1.37284,1.37284,0,0,0,1.01691-.20372,1.35577,1.35577,0,0,0,.36775-.36772h.18393v1.471h-.18393a1.35577,1.35577,0,0,0-.36775-.36772,1.37289,1.37289,0,0,0-1.01691-.20372v.10186a1.25133,1.25133,0,0,1,.77047,1.8312A1.23109,1.23109,0,0,1,70.09954,76.87459Z"/><rect x="49.63602" y="53.11095" width="0.6611" height="4.23425" transform="translate(-10.89009 98.16136) rotate(-83.06565)"/><circle cx="50.58659" cy="56.37339" r="1.18067"/><rect x="62.90827" y="54.89753" width="4.23425" height="0.6611" transform="translate(-6.1863 8.24577) rotate(-6.92722)"/><circle cx="64.40539" cy="56.37339" r="1.18067"/><path d="M62.10163,88.5497a1.95988,1.95988,0,0,0-1.93379-1.443,1.82364,1.82364,0,0,0-.8509.25288c-.13757.082-.39617.24194-.51484.04048-.10745-.18247.0887-.35272.20608-.46518a1.94534,1.94534,0,0,0,.56144-1.0443,2.04659,2.04659,0,0,0-.92289-2.07491,2.1471,2.1471,0,0,0-2.28542,0,2.04657,2.04657,0,0,0-.92289,2.07491,1.94526,1.94526,0,0,0,.56143,1.0443c.1174.11246.31353.28271.20609.46518-.11868.20146-.37728.04156-.51485-.04048a1.8236,1.8236,0,0,0-.8509-.25288,1.95987,1.95987,0,0,0-1.93379,1.443,2.11514,2.11514,0,0,0,.99454,2.37,2.14995,2.14995,0,0,0,3.14621-1.32376h.175a2.35872,2.35872,0,0,1-.35,1.74716,2.32889,2.32889,0,0,1-.63179.63184v.316h2.52735v-.316a2.32917,2.32917,0,0,1-.63179-.63184,2.35877,2.35877,0,0,1-.35-1.74716h.175a2.14992,2.14992,0,0,0,3.14619,1.32376A2.11514,2.11514,0,0,0,62.10163,88.5497Z"/><path class="cls-2" d="M57.50409,91.85138a7.04311,7.04311,0,0,1,3.66527,1.03145c3.67914,2.23879,8.06507,5.75721,8.06507,9.80491h-.661c0-3.93765-4.85421-7.47963-7.74782-9.24013a6.36843,6.36843,0,0,0-6.64343,0c-2.89346,1.7605-7.74767,5.30248-7.74767,9.24013H45.7736c0-4.0477,4.38592-7.56612,8.06507-9.80491A7.04324,7.04324,0,0,1,57.50409,91.85138Z"/><path d="M64.87005,119.70605a3.871,3.871,0,0,0,3.683-2.70578v8.17737a3.68274,3.68274,0,0,1-3.68237,3.683h-.00064a3.68274,3.68274,0,0,1-3.68237-3.683v-8.17737A3.87138,3.87138,0,0,0,64.87005,119.70605Z"/><path d="M57.504,119.70605a3.87219,3.87219,0,0,0,3.683-2.70578v8.17737a3.68316,3.68316,0,0,1-3.68237,3.683H57.504a3.68275,3.68275,0,0,1-3.68237-3.683v-8.17737A3.87079,3.87079,0,0,0,57.504,119.70605Z"/><path d="M50.13734,119.70605a3.87157,3.87157,0,0,0,3.683-2.70578v8.17737a3.68274,3.68274,0,0,1-3.68237,3.683h-.00064a3.68274,3.68274,0,0,1-3.68237-3.683v-8.17737A3.87138,3.87138,0,0,0,50.13734,119.70605Z"/><rect x="68.54845" y="95.03653" width="7.37076" height="25.17131" rx="3.68538"/><rect x="39.08881" y="95.03653" width="7.37076" height="25.17131" rx="3.68538"/><path class="cls-2" d="M64.87005,130.12061a3.871,3.871,0,0,1,3.683,2.70578V124.649a3.68274,3.68274,0,0,0-3.68237-3.683h-.00064a3.68274,3.68274,0,0,0-3.68237,3.683v8.17738A3.87136,3.87136,0,0,1,64.87005,130.12061Z"/><path class="cls-2" d="M57.504,130.12061a3.87218,3.87218,0,0,1,3.683,2.70578V124.649a3.68316,3.68316,0,0,0-3.68237-3.683H57.504a3.68275,3.68275,0,0,0-3.68237,3.683v8.17738A3.87078,3.87078,0,0,1,57.504,130.12061Z"/><path class="cls-2" d="M50.13734,130.12061a3.87156,3.87156,0,0,1,3.683,2.70578V124.649a3.68274,3.68274,0,0,0-3.68237-3.683h-.00064a3.68274,3.68274,0,0,0-3.68237,3.683v8.17738A3.87136,3.87136,0,0,1,50.13734,130.12061Z"/><path d="M47.98218,124.63029a.89608.89608,0,0,0,.88416.65974.83378.83378,0,0,0,.389-.11562c.0629-.03751.18114-.11062.2354-.0185.04912.08342-.04056.16126-.09423.21268a.88949.88949,0,0,0-.2567.47747.93573.93573,0,0,0,.422.94868.98168.98168,0,0,0,1.04493,0,.93572.93572,0,0,0,.422-.94868.88948.88948,0,0,0-.25669-.47747c-.05368-.05142-.14336-.12926-.09423-.21268.05426-.09212.17249-.019.23539.0185a.83382.83382,0,0,0,.389.11562.89608.89608,0,0,0,.88416-.65974.96709.96709,0,0,0-.45472-1.08358.983.983,0,0,0-1.43849.60524h-.08a1.07848,1.07848,0,0,1,.16-.79883,1.06478,1.06478,0,0,1,.28886-.28888v-.14448H49.50651v.14448a1.06506,1.06506,0,0,1,.28886.28888,1.07848,1.07848,0,0,1,.16.79883h-.08a.983.983,0,0,0-1.43849-.60524A.96709.96709,0,0,0,47.98218,124.63029Z"/><path d="M62.82165,124.63029a.89608.89608,0,0,0,.88416.65974.83374.83374,0,0,0,.389-.11562c.0629-.03751.18114-.11062.2354-.0185.04912.08342-.04056.16126-.09423.21268a.88949.88949,0,0,0-.2567.47747.93572.93572,0,0,0,.422.94868.98167.98167,0,0,0,1.04492,0,.93572.93572,0,0,0,.422-.94868.88948.88948,0,0,0-.25669-.47747c-.05368-.05142-.14335-.12926-.09423-.21268.05426-.09212.1725-.019.23539.0185a.83382.83382,0,0,0,.389.11562.89608.89608,0,0,0,.88416-.65974.96709.96709,0,0,0-.45472-1.08358.983.983,0,0,0-1.43849.60524h-.08a1.07848,1.07848,0,0,1,.16-.79883,1.06506,1.06506,0,0,1,.28886-.28888v-.14448H64.346v.14448a1.06506,1.06506,0,0,1,.28886.28888,1.07848,1.07848,0,0,1,.16.79883h-.08a.983.983,0,0,0-1.43849-.60524A.96709.96709,0,0,0,62.82165,124.63029Z"/><path d="M55.40192,124.63029a.89606.89606,0,0,0,.88415.65974.83382.83382,0,0,0,.389-.11562c.0629-.03751.18113-.11062.23539-.0185.04913.08342-.04055.16126-.09422.21268a.88943.88943,0,0,0-.2567.47747.93573.93573,0,0,0,.422.94868.98167.98167,0,0,0,1.04492,0,.93572.93572,0,0,0,.422-.94868.88941.88941,0,0,0-.25669-.47747c-.05367-.05142-.14335-.12926-.09423-.21268.05427-.09212.1725-.019.2354.0185a.83378.83378,0,0,0,.38905.11562.89606.89606,0,0,0,.88415-.65974.96707.96707,0,0,0-.45472-1.08358.983.983,0,0,0-1.43849.60524h-.08a1.07843,1.07843,0,0,1,.16-.79883,1.06506,1.06506,0,0,1,.28886-.28888v-.14448H56.92625v.14448a1.06534,1.06534,0,0,1,.28886.28888,1.07848,1.07848,0,0,1,.16.79883h-.08a.983.983,0,0,0-1.43849-.60524A.96708.96708,0,0,0,55.40192,124.63029Z"/><rect x="57.17362" y="104.12648" width="0.66095" height="3.62976"/><path class="cls-2" d="M57.50409,97.738a3.97876,3.97876,0,0,1,3.43532,1.96285l-.567.33952a3.32677,3.32677,0,0,0-5.73655,0l-.567-.33952A3.97875,3.97875,0,0,1,57.50409,97.738Z"/><path class="cls-2" d="M42.724,88.671h0a.94028.94028,0,0,1,.94028.94028v4.97379a.94029.94029,0,0,1-.94029.94029h0a.94028.94028,0,0,1-.94028-.94028V89.6113A.94028.94028,0,0,1,42.724,88.671Z"/><path class="cls-2" d="M42.724,92.73685h0a1.9872,1.9872,0,0,0-1.9872,1.9872v29.8621c0,1.0975,1.9872,1.9872,1.9872,1.9872h0s1.9872-.8897,1.9872-1.9872V94.72405A1.9872,1.9872,0,0,0,42.724,92.73685Z"/><path class="cls-1" d="M40.89728,93.32594h.33048v31.26013c0,.46183.762,1.06082,1.49651,1.44132.73421-.37954,1.496-.9782,1.496-1.44132V93.32594h.33048v31.26013c0,.8575-1.4602,1.6285-1.75292,1.77438l-.07374.03679-.07375-.03679c-.29272-.1462-1.75308-.9185-1.75308-1.77438Z"/><rect class="cls-1" x="42.55879" y="93.32433" width="0.33048" height="29.08814"/><path d="M40.54754,90.12541a1.1407,1.1407,0,0,0-.83986,1.12553,1.06144,1.06144,0,0,0,.14718.49526c.04775.08007.14082.23058.02356.29965-.10621.06254-.20529-.05162-.27075-.12a1.13226,1.13226,0,0,0-.60782-.32678,1.19121,1.19121,0,0,0-1.20767.53716,1.24966,1.24966,0,0,0,0,1.33019,1.19117,1.19117,0,0,0,1.20767.53716,1.13225,1.13225,0,0,0,.60782-.32677c.06546-.06833.16454-.18249.27075-.12.11726.06908.02419.21959-.02356.29966a1.06141,1.06141,0,0,0-.14718.49526,1.14071,1.14071,0,0,0,.83986,1.12553,1.23107,1.23107,0,0,0,1.37938-.57885,1.25135,1.25135,0,0,0-.77047-1.83121v-.10185a1.37284,1.37284,0,0,1,1.01691.20372,1.35563,1.35563,0,0,1,.36775.36772H42.725v-1.471h-.18393a1.35563,1.35563,0,0,1-.36775.36772,1.37289,1.37289,0,0,1-1.01691.20372v-.10186a1.25133,1.25133,0,0,0,.77047-1.8312A1.23107,1.23107,0,0,0,40.54754,90.12541Z"/><path d="M44.90046,90.12541a1.1407,1.1407,0,0,1,.83986,1.12553,1.06145,1.06145,0,0,1-.14719.49526c-.04775.08007-.14081.23058-.02356.29965.10621.06254.2053-.05162.27075-.12a1.13233,1.13233,0,0,1,.60782-.32678,1.19121,1.19121,0,0,1,1.20767.53716,1.24966,1.24966,0,0,1,0,1.33019,1.19117,1.19117,0,0,1-1.20767.53716,1.13232,1.13232,0,0,1-.60782-.32677c-.06545-.06833-.16454-.18249-.27075-.12-.11725.06908-.02419.21959.02356.29966a1.06142,1.06142,0,0,1,.14719.49526,1.14071,1.14071,0,0,1-.83986,1.12553,1.23109,1.23109,0,0,1-1.37939-.57885,1.25135,1.25135,0,0,1,.77047-1.83121v-.10185a1.37284,1.37284,0,0,0-1.01691.20372,1.35577,1.35577,0,0,0-.36775.36772H42.723v-1.471h.18393a1.35577,1.35577,0,0,0,.36775.36772,1.37289,1.37289,0,0,0,1.01691.20372v-.10186a1.25133,1.25133,0,0,1-.77047-1.8312A1.23109,1.23109,0,0,1,44.90046,90.12541Z"/><rect x="64.70288" y="109.65479" width="0.6611" height="4.23425" transform="translate(-53.77251 162.83519) rotate(-83.06565)"/><circle cx="64.41341" cy="110.62661" r="1.18067"/><rect x="47.85747" y="111.44137" width="4.23425" height="0.6611" transform="translate(-13.11583 6.84328) rotate(-6.92722)"/><circle cx="50.59461" cy="110.62661" r="1.18067"/></g></svg>