<svg xmlns="http://www.w3.org/2000/svg" viewBox="0 0 87 127"><defs><style>.cls-1{fill:#fff;}.cls-2{fill:#ff3b5c;}</style></defs><title>card-diamonds-8</title><g id="artwork"><rect class="cls-1" x="0.00232" width="86.99536" height="127" rx="6"/><path class="cls-2" d="M7.0252,16.18654a2.94247,2.94247,0,0,1,.416-1.691,4.05434,4.05434,0,0,1,1.4082-1.14693,3.349,3.349,0,0,1-1.26367-1.0021A2.55911,2.55911,0,0,1,7.201,10.86289,2.32252,2.32252,0,0,1,8.20977,8.81074a4.7221,4.7221,0,0,1,2.75195-.68894,4.8212,4.8212,0,0,1,2.80762.71341A2.34512,2.34512,0,0,1,14.785,10.87953a2.49326,2.49326,0,0,1-.38379,1.49923,3.4467,3.4467,0,0,1-1.376.96981A3.71937,3.71937,0,0,1,14.49,14.39079a2.59753,2.59753,0,0,1,.45508,1.6196q0,3.02979-3.95117,3.02978Q7.02423,19.04017,7.0252,16.18654Zm6.6084-.30435a1.62468,1.62468,0,0,0-.44043-1.235,3.53063,3.53063,0,0,0-1.43164-.70558H10.08184a2.61414,2.61414,0,0,0-1.32031.72222A1.91347,1.91347,0,0,0,8.3377,15.9781q0,1.94058,2.65625,1.94058Q13.63361,17.91868,13.6336,15.88219Zm-1.87207-3.0151a3.12917,3.12917,0,0,0,1.2959-.72124,1.55241,1.55241,0,0,0,.416-1.12247q0-1.77912-2.47949-1.77911-2.48145,0-2.48047,1.76345a1.67127,1.67127,0,0,0,.376,1.13813,2.76693,2.76693,0,0,0,1.19238.72124Z"/><path class="cls-2" d="M79.91485,110.81248a2.93836,2.93836,0,0,1-.416,1.692,4.04861,4.04861,0,0,1-1.40722,1.146,3.36624,3.36624,0,0,1,1.26367,1.0021,2.55908,2.55908,0,0,1,.38379,1.48357,2.32285,2.32285,0,0,1-1.00782,2.05215,4.7166,4.7166,0,0,1-2.752.68992,4.82448,4.82448,0,0,1-2.80859-.71438,2.34683,2.34683,0,0,1-1.01563-2.04335,2.496,2.496,0,0,1,.38379-1.49923,3.45444,3.45444,0,0,1,1.376-.97078,3.707,3.707,0,0,1-1.46387-1.04125,2.59959,2.59959,0,0,1-.45605-1.6196q0-3.03126,3.95214-3.03076Q79.91534,107.95885,79.91485,110.81248Zm-6.6084.30533a1.62615,1.62615,0,0,0,.44043,1.235,3.53592,3.53592,0,0,0,1.43262.7046h1.67968a2.61778,2.61778,0,0,0,1.32032-.72124,1.92177,1.92177,0,0,0,.42382-1.31428q0-1.94058-2.65625-1.94058Q73.30743,109.08132,73.30645,111.11781Zm1.87305,3.01412a3.12722,3.12722,0,0,0-1.29688.72124,1.55241,1.55241,0,0,0-.416,1.12247q0,1.77912,2.48046,1.78009,2.48,0,2.48047-1.76443a1.67347,1.67347,0,0,0-.37695-1.13813,2.76285,2.76285,0,0,0-1.19141-.72124Z"/><path class="cls-2" d="M10.99413,34.49179q-1.121-1.3736-2.375-2.63054-1.25217-1.25464-2.625-2.38,1.37071-1.12332,2.625-2.37994,1.25214-1.25481,2.375-2.63054,1.121,1.37358,2.375,2.63054,1.25219,1.25476,2.625,2.37994-1.3707,1.12336-2.625,2.38Q12.11711,33.116,10.99413,34.49179Z"/><path class="cls-2" d="M76.0059,102.47255q-1.121-1.37358-2.375-2.63054-1.25218-1.25465-2.625-2.38,1.3707-1.12332,2.625-2.37994,1.25214-1.25481,2.375-2.63054,1.121,1.37358,2.375,2.63054,1.25217,1.25477,2.625,2.37994-1.37071,1.12336-2.625,2.38Q77.12889,101.09678,76.0059,102.47255Z"/><path class="cls-2" d="M27.5,29.08435Q25.8185,27.024,23.93754,25.13854,22.05926,23.25658,20,21.56859q2.056-1.685,3.93755-3.56991,1.8782-1.88221,3.56247-3.94581,1.68145,2.06037,3.56243,3.94581Q32.94071,19.88084,35,21.56859q-2.05606,1.685-3.93755,3.56995Q29.18449,27.0207,27.5,29.08435Z"/><path class="cls-2" d="M27.5,112.94713q-1.68151-2.06037-3.56247-3.94581-1.87828-1.882-3.93755-3.57,2.056-1.685,3.93755-3.56991,1.8782-1.88221,3.56247-3.94581,1.68145,2.06037,3.56243,3.94581Q32.94071,103.7436,35,105.43137q-2.05606,1.685-3.93755,3.57Q29.18449,110.88348,27.5,112.94713Z"/><path class="cls-2" d="M59.5,29.08435q-1.68152-2.06037-3.56247-3.94581Q54.05928,23.25658,52,21.56859q2.056-1.685,3.93755-3.56991Q57.81576,16.11647,59.5,14.05287q1.68145,2.06037,3.56243,3.94581Q64.94073,19.88084,67,21.56859q-2.05607,1.685-3.93755,3.56995Q61.18451,27.0207,59.5,29.08435Z"/><path class="cls-2" d="M59.5,112.94713q-1.68152-2.06037-3.56247-3.94581-1.87828-1.882-3.93755-3.57,2.056-1.685,3.93755-3.56991Q57.81576,99.97925,59.5,97.91565q1.68145,2.06037,3.56243,3.94581Q64.94073,103.7436,67,105.43137q-2.05607,1.685-3.93755,3.57Q61.18451,110.88348,59.5,112.94713Z"/><path class="cls-2" d="M27.5,71.01574q-1.68151-2.06037-3.56247-3.94581Q22.05926,65.188,20,63.5q2.056-1.685,3.93755-3.56991,1.8782-1.88222,3.56247-3.94581,1.68145,2.06037,3.56243,3.94581Q32.94071,61.81221,35,63.5q-2.05606,1.685-3.93755,3.56995Q29.18449,68.95209,27.5,71.01574Z"/><path class="cls-2" d="M59.5,71.01574q-1.68152-2.06037-3.56247-3.94581Q54.05928,65.188,52,63.5q2.056-1.685,3.93755-3.56991Q57.81576,58.04786,59.5,55.98426q1.68145,2.06037,3.56243,3.94581Q64.94073,61.81221,67,63.5q-2.05607,1.685-3.93755,3.56995Q61.18451,68.95209,59.5,71.01574Z"/><path class="cls-2" d="M43.5,49.97165q-1.68151-2.06037-3.56247-3.94581-1.87828-1.882-3.93755-3.57,2.056-1.685,3.93755-3.56991,1.8782-1.88222,3.56247-3.94582,1.68145,2.06039,3.56243,3.94582Q48.94072,40.76812,51,42.45589q-2.05607,1.685-3.93755,3.57Q45.1845,47.908,43.5,49.97165Z"/><path class="cls-2" d="M43.5,92.05984q-1.68151-2.06038-3.56247-3.94582Q38.05927,86.23206,36,84.54407q2.056-1.685,3.93755-3.56991,1.8782-1.88221,3.56247-3.94581,1.68145,2.06037,3.56243,3.94581Q48.94072,82.85632,51,84.54407q-2.05607,1.685-3.93755,3.56995Q45.1845,89.99618,43.5,92.05984Z"/></g></svg>