<svg xmlns="http://www.w3.org/2000/svg" viewBox="0 0 115 167"><defs><style>.cls-1{fill:#fff;}</style></defs><title>card-clubs-8</title><g id="artwork"><rect class="cls-1" width="115" height="167" rx="8"/><path d="M9.281,20.95524A3.89539,3.89539,0,0,1,9.831,18.71983a5.35964,5.35964,0,0,1,1.86151-1.51614A4.41476,4.41476,0,0,1,10.022,15.879a3.37853,3.37853,0,0,1-.50862-1.95986,3.07016,3.07016,0,0,1,1.33353-2.71276,6.23214,6.23214,0,0,1,3.63783-.912,6.37321,6.37321,0,0,1,3.71141.94306,3.1023,3.1023,0,0,1,1.34257,2.7037,3.29145,3.29145,0,0,1-.50734,1.98056,4.54354,4.54354,0,0,1-1.81891,1.282,4.91822,4.91822,0,0,1,1.93639,1.379,3.43223,3.43223,0,0,1,.60157,2.13967q0,4.00706-5.22309,4.0064Q9.27975,24.72878,9.281,20.95524Zm8.73571-.40232a2.14457,2.14457,0,0,0-.58221-1.63128,4.65062,4.65062,0,0,0-1.8925-.93271h-2.2204a3.44519,3.44519,0,0,0-1.74533.95341A2.53521,2.53521,0,0,0,11.016,20.681q0,2.56334,3.51132,2.564Q18.01674,23.245,18.01674,20.55292ZM15.542,16.56852a4.151,4.151,0,0,0,1.71306-.95341A2.05426,2.05426,0,0,0,17.805,14.1313q0-2.35377-3.27766-2.35312-3.28025,0-3.279,2.33113a2.2128,2.2128,0,0,0,.497,1.5058,3.6702,3.6702,0,0,0,1.57622.95341Z"/><path d="M21.43021,39.48836a2.94337,2.94337,0,0,0-2.90339-2.171,2.73387,2.73387,0,0,0-1.27754.38047c-.20655.12344-.5948.364-.773.0609-.16133-.27454.13316-.53068.3094-.69988a2.92869,2.92869,0,0,0,.84295-1.5712,3.08172,3.08172,0,0,0-1.38563-3.1218,3.2179,3.2179,0,0,0-3.43131,0,3.08171,3.08171,0,0,0-1.38563,3.1218,2.92873,2.92873,0,0,0,.84293,1.5712c.17626.1692.47073.42534.30942.69988-.17819.30311-.56644.06254-.773-.0609a2.7338,2.7338,0,0,0-1.27754-.38047,2.94338,2.94338,0,0,0-2.90339,2.171A3.18506,3.18506,0,0,0,9.11772,43.054a3.226,3.226,0,0,0,4.72371-1.99165h.26275a3.5549,3.5549,0,0,1-.52553,2.62869,3.5005,3.5005,0,0,1-.94855.95062v.47545h3.79454v-.47545a3.501,3.501,0,0,1-.94856-.95062,3.55494,3.55494,0,0,1-.52552-2.62869h.26277A3.226,3.226,0,0,0,19.937,43.054,3.18506,3.18506,0,0,0,21.43021,39.48836Z"/><path d="M105.72105,146.04476a3.89547,3.89547,0,0,1-.54994,2.23541,5.34739,5.34739,0,0,1-1.86152,1.51614,4.42006,4.42006,0,0,1,1.67175,1.32468,3.37849,3.37849,0,0,1,.50734,1.95986,3.07209,3.07209,0,0,1-1.33224,2.71276,6.235,6.235,0,0,1-3.63783.912,6.37489,6.37489,0,0,1-3.71271-.94306,3.1053,3.1053,0,0,1-1.34256-2.7037,3.30058,3.30058,0,0,1,.50733-1.98056,4.55306,4.55306,0,0,1,1.81892-1.282,4.90311,4.90311,0,0,1-1.9351-1.379,3.43239,3.43239,0,0,1-.60286-2.13967q0-4.00706,5.22438-4.0064Q105.72169,142.27122,105.72105,146.04476Zm-8.73442.40232a2.14407,2.14407,0,0,0,.58092,1.63128,4.668,4.668,0,0,0,1.8925.93271h2.22168a3.44064,3.44064,0,0,0,1.74405-.95341,2.53569,2.53569,0,0,0,.56155-1.73865q0-2.56333-3.51132-2.564Q96.98664,143.755,96.98663,146.44708Zm2.47342,3.9844a4.14494,4.14494,0,0,0-1.71177.95341,2.05427,2.05427,0,0,0-.54994,1.48381q0,2.35377,3.27767,2.35312,3.27831,0,3.27766-2.33113a2.21868,2.21868,0,0,0-.49571-1.5058,3.6782,3.6782,0,0,0-1.57623-.95341Z"/><path d="M93.56979,127.48949a2.94335,2.94335,0,0,0,2.90339,2.171,2.73364,2.73364,0,0,0,1.27754-.38047c.20655-.12343.5948-.364.773-.06089.16133.27453-.13316.53068-.3094.69987a2.92875,2.92875,0,0,0-.843,1.57121A3.08171,3.08171,0,0,0,98.757,134.612a3.21784,3.21784,0,0,0,3.43131,0,3.08169,3.08169,0,0,0,1.38563-3.12179,2.92879,2.92879,0,0,0-.84293-1.57121c-.17626-.16919-.47073-.42534-.30942-.69987.17819-.30312.56644-.06254.773.06089a2.73357,2.73357,0,0,0,1.27754.38047,2.94336,2.94336,0,0,0,2.90339-2.171,3.18508,3.18508,0,0,0-1.4932-3.5657,3.22606,3.22606,0,0,0-4.72371,1.99166h-.26275a3.5549,3.5549,0,0,1,.52553-2.62869,3.50036,3.50036,0,0,1,.94855-.95062v-.47545H98.57536v.47545a3.50081,3.50081,0,0,1,.94856.95062,3.55494,3.55494,0,0,1,.52552,2.62869h-.26277a3.226,3.226,0,0,0-4.72369-1.99166A3.18507,3.18507,0,0,0,93.56979,127.48949Z"/><path d="M46.70369,29.45894a4.415,4.415,0,0,0-4.35507-3.25653,4.10054,4.10054,0,0,0-1.91631.57071c-.30982.18514-.8922.546-1.15947.09134-.242-.4118.19975-.796.46411-1.04981a4.39316,4.39316,0,0,0,1.26443-2.35681,4.62258,4.62258,0,0,0-2.07845-4.68269,4.82676,4.82676,0,0,0-5.147,0,4.62251,4.62251,0,0,0-2.07845,4.68269,4.39316,4.39316,0,0,0,1.26439,2.35681c.26439.25379.7061.638.46414,1.04981-.26729.45467-.84967.0938-1.15949-.09134a4.10047,4.10047,0,0,0-1.91631-.57071,4.415,4.415,0,0,0-4.35508,3.25653A4.77758,4.77758,0,0,0,28.235,34.80747,4.83908,4.83908,0,0,0,35.32052,31.82h.39413a5.33241,5.33241,0,0,1-.78828,3.943A5.25094,5.25094,0,0,1,33.50353,37.189v.71318h5.69181V37.189A5.2515,5.2515,0,0,1,37.7725,35.763a5.33251,5.33251,0,0,1-.78828-3.943h.39415a4.839,4.839,0,0,0,7.08554,2.98747A4.77756,4.77756,0,0,0,46.70369,29.45894Z"/><path d="M25.99517,137.54106a4.415,4.415,0,0,0,4.35508,3.25653,4.10058,4.10058,0,0,0,1.91631-.57071c.30982-.18514.8922-.546,1.15946-.09134.242.4118-.19975.796-.46411,1.04981a4.39321,4.39321,0,0,0-1.26442,2.35681,4.62257,4.62257,0,0,0,2.07845,4.68269,4.82676,4.82676,0,0,0,5.147,0,4.62255,4.62255,0,0,0,2.07845-4.68269,4.39311,4.39311,0,0,0-1.2644-2.35681c-.26438-.25379-.70609-.638-.46413-1.04981.26729-.45467.84966-.0938,1.15949.09134a4.1004,4.1004,0,0,0,1.91631.57071,4.415,4.415,0,0,0,4.35508-3.25653,4.77757,4.77757,0,0,0-2.2398-5.34853A4.83908,4.83908,0,0,0,37.37834,135.18h-.39412a5.33241,5.33241,0,0,1,.78828-3.943,5.25094,5.25094,0,0,1,1.42284-1.42593v-.71318H33.50353v.71318a5.25164,5.25164,0,0,1,1.42284,1.42593,5.33255,5.33255,0,0,1,.78828,3.943h-.39416a4.839,4.839,0,0,0-7.08553-2.98747A4.77757,4.77757,0,0,0,25.99517,137.54106Z"/><path d="M89.00483,29.45894a4.415,4.415,0,0,0-4.35508-3.25653,4.10058,4.10058,0,0,0-1.91631.57071c-.30982.18514-.8922.546-1.15946.09134-.242-.4118.19975-.796.46411-1.04981a4.39321,4.39321,0,0,0,1.26442-2.35681,4.62257,4.62257,0,0,0-2.07845-4.68269,4.82676,4.82676,0,0,0-5.147,0,4.62255,4.62255,0,0,0-2.07845,4.68269,4.39311,4.39311,0,0,0,1.2644,2.35681c.26438.25379.70609.638.46413,1.04981-.26729.45467-.84966.0938-1.15949-.09134a4.1004,4.1004,0,0,0-1.91631-.57071,4.415,4.415,0,0,0-4.35508,3.25653,4.77757,4.77757,0,0,0,2.2398,5.34853A4.83908,4.83908,0,0,0,77.62166,31.82h.39412a5.33241,5.33241,0,0,1-.78828,3.943A5.25094,5.25094,0,0,1,75.80466,37.189v.71318h5.69181V37.189A5.25164,5.25164,0,0,1,80.07363,35.763a5.33255,5.33255,0,0,1-.78828-3.943h.39416A4.839,4.839,0,0,0,86.765,34.80747,4.77757,4.77757,0,0,0,89.00483,29.45894Z"/><path d="M68.29631,137.54106a4.415,4.415,0,0,0,4.35507,3.25653,4.10054,4.10054,0,0,0,1.91631-.57071c.30982-.18514.8922-.546,1.15947-.09134.242.4118-.19975.796-.46411,1.04981a4.39316,4.39316,0,0,0-1.26443,2.35681,4.62258,4.62258,0,0,0,2.07845,4.68269,4.82676,4.82676,0,0,0,5.147,0,4.62251,4.62251,0,0,0,2.07845-4.68269,4.39316,4.39316,0,0,0-1.26439-2.35681c-.26439-.25379-.7061-.638-.46414-1.04981.26729-.45467.84967-.0938,1.15949.09134a4.10047,4.10047,0,0,0,1.91631.57071,4.415,4.415,0,0,0,4.35508-3.25653,4.77758,4.77758,0,0,0-2.23979-5.34853A4.83908,4.83908,0,0,0,79.67948,135.18h-.39413a5.33241,5.33241,0,0,1,.78828-3.943,5.25094,5.25094,0,0,1,1.42284-1.42593v-.71318H75.80466v.71318A5.2515,5.2515,0,0,1,77.2275,131.237a5.33251,5.33251,0,0,1,.78828,3.943h-.39415a4.839,4.839,0,0,0-7.08554-2.98747A4.77756,4.77756,0,0,0,68.29631,137.54106Z"/><path d="M46.70369,84.99193a4.415,4.415,0,0,0-4.35507-3.25652,4.10065,4.10065,0,0,0-1.91631.5707c-.30982.18515-.8922.546-1.15947.09135-.242-.41181.19975-.796.46411-1.04982a4.39309,4.39309,0,0,0,1.26443-2.3568,4.6226,4.6226,0,0,0-2.07845-4.6827,4.82681,4.82681,0,0,0-5.147,0,4.62253,4.62253,0,0,0-2.07845,4.6827,4.3931,4.3931,0,0,0,1.26439,2.3568c.26439.2538.7061.638.46414,1.04982-.26729.45467-.84967.0938-1.15949-.09135a4.10058,4.10058,0,0,0-1.91631-.5707,4.415,4.415,0,0,0-4.35508,3.25652A4.77759,4.77759,0,0,0,28.235,90.34047,4.83908,4.83908,0,0,0,35.32052,87.353h.39413a5.3324,5.3324,0,0,1-.78828,3.943A5.251,5.251,0,0,1,33.50353,92.722v.71317h5.69181V92.722A5.25154,5.25154,0,0,1,37.7725,91.296a5.33249,5.33249,0,0,1-.78828-3.943h.39415a4.839,4.839,0,0,0,7.08554,2.98748A4.77757,4.77757,0,0,0,46.70369,84.99193Z"/><path d="M89.00483,84.99193a4.415,4.415,0,0,0-4.35508-3.25652,4.10068,4.10068,0,0,0-1.91631.5707c-.30982.18515-.8922.546-1.15946.09135-.242-.41181.19975-.796.46411-1.04982a4.39314,4.39314,0,0,0,1.26442-2.3568,4.62258,4.62258,0,0,0-2.07845-4.6827,4.82681,4.82681,0,0,0-5.147,0,4.62256,4.62256,0,0,0-2.07845,4.6827,4.393,4.393,0,0,0,1.2644,2.3568c.26438.2538.70609.638.46413,1.04982-.26729.45467-.84966.0938-1.15949-.09135a4.10051,4.10051,0,0,0-1.91631-.5707,4.415,4.415,0,0,0-4.35508,3.25652,4.77758,4.77758,0,0,0,2.2398,5.34854A4.83908,4.83908,0,0,0,77.62166,87.353h.39412a5.3324,5.3324,0,0,1-.78828,3.943A5.251,5.251,0,0,1,75.80466,92.722v.71317h5.69181V92.722A5.25168,5.25168,0,0,1,80.07363,91.296a5.33253,5.33253,0,0,1-.78828-3.943h.39416A4.839,4.839,0,0,0,86.765,90.34047,4.77758,4.77758,0,0,0,89.00483,84.99193Z"/><path d="M67.85426,57.17354A4.415,4.415,0,0,0,63.49918,53.917a4.10068,4.10068,0,0,0-1.91631.5707c-.30982.18515-.8922.546-1.15946.09135-.242-.4118.19975-.796.46411-1.04982a4.39314,4.39314,0,0,0,1.26442-2.3568,4.62256,4.62256,0,0,0-2.07845-4.68269,4.82676,4.82676,0,0,0-5.147,0,4.62252,4.62252,0,0,0-2.07844,4.68269,4.393,4.393,0,0,0,1.26439,2.3568c.26439.2538.7061.638.46414,1.04982-.26729.45467-.84967.0938-1.15949-.09135a4.10058,4.10058,0,0,0-1.91632-.5707,4.415,4.415,0,0,0-4.35507,3.25652,4.77758,4.77758,0,0,0,2.23979,5.34854,4.83908,4.83908,0,0,0,7.08556-2.98747h.39412a5.33229,5.33229,0,0,1-.78828,3.943,5.25066,5.25066,0,0,1-1.42283,1.42594v.71317h5.69181v-.71317a5.2514,5.2514,0,0,1-1.42284-1.42594,5.33243,5.33243,0,0,1-.78828-3.943h.39415a4.839,4.839,0,0,0,7.08553,2.98747A4.77756,4.77756,0,0,0,67.85426,57.17354Z"/><path d="M47.14574,109.82646a4.415,4.415,0,0,0,4.35508,3.25652,4.10068,4.10068,0,0,0,1.91631-.5707c.30982-.18515.8922-.546,1.15946-.09135.242.4118-.19975.796-.46411,1.04982a4.39314,4.39314,0,0,0-1.26442,2.3568,4.62256,4.62256,0,0,0,2.07845,4.68269,4.82676,4.82676,0,0,0,5.147,0,4.62252,4.62252,0,0,0,2.07844-4.68269,4.393,4.393,0,0,0-1.26439-2.3568c-.26439-.2538-.7061-.638-.46414-1.04982.26729-.45467.84967-.0938,1.15949.09135a4.10058,4.10058,0,0,0,1.91632.5707,4.415,4.415,0,0,0,4.35507-3.25652,4.77758,4.77758,0,0,0-2.23979-5.34854,4.83908,4.83908,0,0,0-7.08556,2.98747h-.39412a5.33229,5.33229,0,0,1,.78828-3.943,5.25066,5.25066,0,0,1,1.42283-1.42594v-.71317H54.65409v.71317a5.2514,5.2514,0,0,1,1.42284,1.42594,5.33243,5.33243,0,0,1,.78828,3.943h-.39415a4.839,4.839,0,0,0-7.08553-2.98747A4.77756,4.77756,0,0,0,47.14574,109.82646Z"/></g></svg>