<svg xmlns="http://www.w3.org/2000/svg" viewBox="0 0 87 127"><defs><style>.cls-1{fill:#fff;}.cls-2{fill:#ff3b5c;}</style></defs><title>card-diamonds-4</title><g id="artwork"><rect class="cls-1" width="87" height="127" rx="6"/><path class="cls-2" d="M12.27272,16.81138H7.15233v-.962l3.008-7.552h1.34382L8.44829,15.72121h3.82443V12.41839h1.23151v3.30282H14.849v1.09017H13.50423v2.06879H12.27272Z"/><path class="cls-2" d="M74.66764,110.18862H79.788v.961l-3.008,7.55293H75.43624l3.05583-7.42375H74.66764v3.30282H73.43613v-3.30282H72.09231v-1.09017h1.34382v-2.06879h1.23151Z"/><path class="cls-2" d="M10.99239,34.49155Q9.87132,33.118,8.61728,31.861,7.365,30.60637,5.99211,29.481q1.37078-1.12332,2.62517-2.37994,1.25222-1.25481,2.37511-2.63054,1.121,1.37358,2.37509,2.63054,1.25225,1.25477,2.62517,2.37994-1.37079,1.12336-2.62517,2.38Q12.11543,33.11578,10.99239,34.49155Z"/><path class="cls-2" d="M76.00763,102.47231q-1.12107-1.37358-2.37511-2.63054-1.25224-1.25464-2.62517-2.38,1.37077-1.12334,2.62517-2.37995,1.25222-1.25481,2.37511-2.63054,1.121,1.3736,2.37509,2.63054,1.25224,1.25476,2.62517,2.37995-1.37079,1.12335-2.62517,2.38Q77.13067,101.09654,76.00763,102.47231Z"/><path class="cls-2" d="M27.49916,29.08435q-1.68161-2.06037-3.56267-3.94581-1.87837-1.882-3.93775-3.56995,2.05615-1.685,3.93775-3.56991,1.87832-1.88221,3.56267-3.94581,1.68153,2.06037,3.56262,3.94581,1.87838,1.88216,3.93776,3.56991-2.05617,1.685-3.93776,3.56995Q29.18372,27.0207,27.49916,29.08435Z"/><path class="cls-2" d="M27.49916,112.94713q-1.68161-2.06037-3.56267-3.94581-1.87837-1.882-3.93775-3.57,2.05615-1.685,3.93775-3.56991,1.87832-1.88221,3.56267-3.94581,1.68153,2.06037,3.56262,3.94581,1.87838,1.88214,3.93776,3.56991-2.05617,1.685-3.93776,3.57Q29.18372,110.88348,27.49916,112.94713Z"/><path class="cls-2" d="M59.50088,29.08435q-1.68161-2.06037-3.56266-3.94581-1.87838-1.882-3.93776-3.56995,2.05617-1.685,3.93776-3.56991,1.8783-1.88221,3.56266-3.94581,1.68154,2.06037,3.56263,3.94581,1.87836,1.88216,3.93775,3.56991-2.05617,1.685-3.93775,3.56995Q61.18545,27.0207,59.50088,29.08435Z"/><path class="cls-2" d="M59.50088,112.94713q-1.68161-2.06037-3.56266-3.94581-1.87838-1.882-3.93776-3.57,2.05617-1.685,3.93776-3.56991,1.8783-1.88221,3.56266-3.94581,1.68154,2.06037,3.56263,3.94581,1.87836,1.88214,3.93775,3.56991-2.05617,1.685-3.93775,3.57Q61.18545,110.88348,59.50088,112.94713Z"/></g></svg>