<svg xmlns="http://www.w3.org/2000/svg" viewBox="0 0 87 127"><defs><style>.cls-1{fill:#fff;}</style></defs><title>card-spades-5</title><g id="artwork"><rect class="cls-1" width="87" height="127" rx="6"/><path d="M15.25836,29.67246c-.41271-1.29958-1.61361-2.02692-2.55447-2.91268a8.29032,8.29032,0,0,1-1.70578-2.279,8.29056,8.29056,0,0,1-1.70579,2.279c-.94086.88576-2.14173,1.6131-2.55445,2.91268a2.73474,2.73474,0,0,0,1.4184,3.38817A1.97638,1.97638,0,0,0,10.454,32.5713a1.58049,1.58049,0,0,0,.28943-.568,2.48365,2.48365,0,0,1-.40856,1.50152,2.44748,2.44748,0,0,1-.66316.66456v.33238h2.65277v-.33238a2.44759,2.44759,0,0,1-.66319-.66456,2.48371,2.48371,0,0,1-.40855-1.50159,1.58052,1.58052,0,0,0,.28945.56807,1.97636,1.97636,0,0,0,2.29774.48933A2.73476,2.73476,0,0,0,15.25836,29.67246Z"/><path d="M8.05313,18.67207l-.52737-.11254.14356-.97763a16.6036,16.6036,0,0,0,3.10466.3523,2.56089,2.56089,0,0,0,1.88-.641,2.45853,2.45853,0,0,0,.6475-1.828,2.10174,2.10174,0,0,0-.56742-1.64309,2.44585,2.44585,0,0,0-1.672-.505,4.98991,4.98991,0,0,0-1.16022.15218,5.70362,5.70362,0,0,0-1.01665.32832l-.336.16049-.8477-.16049.2881-5.49931h6.16049V9.42076h-5.137L8.726,12.86792a5.21578,5.21578,0,0,1,2.47962-.65763q3.36054,0,3.36053,3.12667a3.7809,3.7809,0,0,1-.92,2.73375,3.46833,3.46833,0,0,1-2.61635.95415A13.90226,13.90226,0,0,1,8.05313,18.67207Z"/><path d="M71.7415,97.328c.41271,1.29959,1.61361,2.02693,2.55447,2.91269a8.29032,8.29032,0,0,1,1.70578,2.279,8.29056,8.29056,0,0,1,1.70579-2.279c.94086-.88576,2.14173-1.6131,2.55445-2.91269a2.73472,2.73472,0,0,0-1.4184-3.38816,1.97638,1.97638,0,0,0-2.29774.48933,1.58049,1.58049,0,0,0-.28943.568,2.48371,2.48371,0,0,1,.40855-1.50152,2.44751,2.44751,0,0,1,.66317-.66456v-.33239H74.67537v.33239a2.44759,2.44759,0,0,1,.66319.66456,2.48371,2.48371,0,0,1,.40855,1.50159,1.58068,1.58068,0,0,0-.28945-.56807,1.97637,1.97637,0,0,0-2.29774-.48933A2.73474,2.73474,0,0,0,71.7415,97.328Z"/><path d="M78.94656,108.32862l.52737.11254-.14356.97763a16.60276,16.60276,0,0,0-3.10466-.3523,2.564,2.564,0,0,0-1.88.641,2.45853,2.45853,0,0,0-.6475,1.828,2.10175,2.10175,0,0,0,.56742,1.64309,2.447,2.447,0,0,0,1.67294.505,4.96532,4.96532,0,0,0,1.15924-.15266,5.64168,5.64168,0,0,0,1.01665-.32784l.336-.16049.8477.16049-.2881,5.49883H72.84955v-1.12149h5.136l.28908-3.44765a5.22536,5.22536,0,0,1-2.4806.65762q-3.36054,0-3.36053-3.12666a3.78415,3.78415,0,0,1,.92094-2.73425,3.46265,3.46265,0,0,1,2.61538-.95316A13.89283,13.89283,0,0,1,78.94656,108.32862Z"/><path d="M33.88951,21.68361c-.61906-1.94938-2.42041-3.04039-3.8317-4.369a12.43542,12.43542,0,0,1-2.55868-3.41851,12.43542,12.43542,0,0,1-2.55868,3.41851c-1.4113,1.32864-3.2126,2.41965-3.83167,4.369a4.10208,4.10208,0,0,0,2.1276,5.08225,2.96456,2.96456,0,0,0,3.4466-.734,2.37051,2.37051,0,0,0,.43415-.852,3.72562,3.72562,0,0,1-.61283,2.25228,3.67139,3.67139,0,0,1-.99475.99684v.49858H29.4887V28.429a3.6715,3.6715,0,0,1-.99478-.99684,3.72554,3.72554,0,0,1-.61283-2.25239,2.37084,2.37084,0,0,0,.43419.85211,2.96454,2.96454,0,0,0,3.4466.734A4.10213,4.10213,0,0,0,33.88951,21.68361Z"/><path d="M21.10876,105.31639c.61906,1.94938,2.42041,3.04039,3.8317,4.369a12.43546,12.43546,0,0,1,2.55869,3.41851,12.43523,12.43523,0,0,1,2.55868-3.41851c1.41129-1.32864,3.2126-2.41965,3.83166-4.369a4.10207,4.10207,0,0,0-2.1276-5.08225,2.96455,2.96455,0,0,0-3.44659.734,2.37053,2.37053,0,0,0-.43416.852,3.72556,3.72556,0,0,1,.61284-2.25228,3.6715,3.6715,0,0,1,.99474-.99684v-.49858H25.50957V98.571a3.67168,3.67168,0,0,1,.99479.99684,3.7256,3.7256,0,0,1,.61282,2.25239,2.37066,2.37066,0,0,0-.43418-.85211,2.96454,2.96454,0,0,0-3.4466-.734A4.10214,4.10214,0,0,0,21.10876,105.31639Z"/><path d="M65.89124,21.68361c-.61906-1.94938-2.42041-3.04039-3.8317-4.369a12.43546,12.43546,0,0,1-2.55869-3.41851,12.43523,12.43523,0,0,1-2.55868,3.41851c-1.41129,1.32864-3.2126,2.41965-3.83166,4.369a4.10207,4.10207,0,0,0,2.1276,5.08225,2.96455,2.96455,0,0,0,3.44659-.734,2.37053,2.37053,0,0,0,.43416-.852,3.72556,3.72556,0,0,1-.61284,2.25228,3.6715,3.6715,0,0,1-.99474.99684v.49858h3.97915V28.429a3.67168,3.67168,0,0,1-.99479-.99684,3.7256,3.7256,0,0,1-.61282-2.25239,2.37066,2.37066,0,0,0,.43418.85211,2.96454,2.96454,0,0,0,3.4466.734A4.10214,4.10214,0,0,0,65.89124,21.68361Z"/><path d="M53.11049,105.31639c.61906,1.94938,2.42041,3.04039,3.8317,4.369a12.43542,12.43542,0,0,1,2.55868,3.41851,12.43542,12.43542,0,0,1,2.55868-3.41851c1.4113-1.32864,3.2126-2.41965,3.83167-4.369a4.10208,4.10208,0,0,0-2.1276-5.08225,2.96456,2.96456,0,0,0-3.4466.734,2.37051,2.37051,0,0,0-.43415.852,3.72562,3.72562,0,0,1,.61283-2.25228,3.67139,3.67139,0,0,1,.99475-.99684v-.49858H57.5113V98.571a3.6715,3.6715,0,0,1,.99478.99684,3.72554,3.72554,0,0,1,.61283,2.25239,2.37084,2.37084,0,0,0-.43419-.85211,2.96454,2.96454,0,0,0-3.4466-.734A4.10213,4.10213,0,0,0,53.11049,105.31639Z"/><path d="M49.89038,63.77179c-.61907-1.94938-2.42042-3.04039-3.83171-4.369A12.43538,12.43538,0,0,1,43.5,55.98426a12.43538,12.43538,0,0,1-2.55868,3.4185c-1.41129,1.32864-3.2126,2.41965-3.83167,4.369a4.10208,4.10208,0,0,0,2.1276,5.08225,2.96456,2.96456,0,0,0,3.4466-.734,2.37051,2.37051,0,0,0,.43415-.852,3.72554,3.72554,0,0,1-.61283,2.25227,3.67139,3.67139,0,0,1-.99474.99685v.49857h3.97915v-.49857a3.67144,3.67144,0,0,1-.99479-.99685,3.72558,3.72558,0,0,1-.61282-2.25239,2.37062,2.37062,0,0,0,.43418.85212,2.96453,2.96453,0,0,0,3.4466.734A4.10214,4.10214,0,0,0,49.89038,63.77179Z"/></g></svg>