<svg xmlns="http://www.w3.org/2000/svg" viewBox="0 0 115 167"><defs><style>.cls-1{fill:#fff;}.cls-2{fill:#ff3b5c;}</style></defs><title>card-hearts-9</title><g id="artwork"><rect class="cls-1" width="115" height="167" rx="8"/><path class="cls-2" d="M10.564,24.43189l-.54993-.08538.14716-1.31434a27.62015,27.62015,0,0,0,3.68044.25485q3.80887,0,3.84954-4.87442a10.79162,10.79162,0,0,1-3.63783.80593q-4.56795,0-4.56859-4.26124a4.46549,4.46549,0,0,1,1.31158-3.39062,4.90192,4.90192,0,0,1,3.532-1.25095q5.054,0,5.05527,7.4617,0,3.62283-1.37484,5.28709a5.09118,5.09118,0,0,1-4.16711,1.66362A19.4515,19.4515,0,0,1,10.564,24.43189Zm6.59922-7.22755.54994-.19017q-.0639-5.25669-3.38481-5.25734a3.08654,3.08654,0,0,0-2.31593.859,3.21063,3.21063,0,0,0-.83523,2.34148q0,2.81949,3.004,2.82013A9.34467,9.34467,0,0,0,17.16325,17.20434Z"/><path class="cls-2" d="M14.54128,45.23891a25.15144,25.15144,0,0,1,2.33443-3.11912c1.62468-1.852,3.72992-3.72808,3.80593-6.38533a3.74366,3.74366,0,0,0-1.56109-3.27759,2.77928,2.77928,0,0,0-3.30514.1667,2.84743,2.84743,0,0,0-.96287,1.69845c-.02934.17674-.07364.46786-.31126.46786s-.28193-.29112-.31125-.46786a2.84745,2.84745,0,0,0-.96288-1.69845,2.77927,2.77927,0,0,0-3.30513-.1667,3.74368,3.74368,0,0,0-1.56109,3.27759c.076,2.65725,2.18125,4.53329,3.80591,6.38533A25.15052,25.15052,0,0,1,14.54128,45.23891Z"/><path class="cls-2" d="M104.43768,142.5694l.54994.08409-.14717,1.31434A27.83748,27.83748,0,0,0,101.16,143.713q-3.80889,0-3.84955,4.87442a10.78548,10.78548,0,0,1,3.63784-.80464q4.56793,0,4.56859,4.26a4.46359,4.46359,0,0,1-1.31158,3.39062,4.90193,4.90193,0,0,1-3.532,1.25095q-5.054,0-5.05527-7.46041,0-3.62477,1.37484-5.28838a5.09509,5.09509,0,0,1,4.16711-1.66362A19.45964,19.45964,0,0,1,104.43768,142.5694Zm-6.59922,7.22626-.54993.19146q.0639,5.25669,3.38481,5.256a3.08581,3.08581,0,0,0,2.31592-.85769,3.2138,3.2138,0,0,0,.83523-2.34277q0-2.81949-3.004-2.81884A9.37533,9.37533,0,0,0,97.83846,149.79566Z"/><path class="cls-2" d="M100.45872,121.93835a25.15219,25.15219,0,0,1-2.33443,3.11912c-1.62468,1.852-3.72992,3.72808-3.80593,6.38533a3.74367,3.74367,0,0,0,1.56109,3.27759,2.7793,2.7793,0,0,0,3.30514-.1667,2.84743,2.84743,0,0,0,.96287-1.69846c.02934-.17674.07364-.46785.31126-.46785s.28193.29111.31125.46785a2.84744,2.84744,0,0,0,.96288,1.69846,2.77928,2.77928,0,0,0,3.30513.1667,3.74369,3.74369,0,0,0,1.56109-3.27759c-.076-2.65725-2.18125-4.53329-3.80591-6.38533A25.15127,25.15127,0,0,1,100.45872,121.93835Z"/><path class="cls-2" d="M36.34942,37.712a37.72884,37.72884,0,0,1,3.50165-4.67867c2.437-2.77806,5.59489-5.59212,5.70889-9.578a5.61551,5.61551,0,0,0-2.34162-4.91639,4.169,4.169,0,0,0-4.95772.25006,4.27115,4.27115,0,0,0-1.44431,2.54768c-.044.26511-.11045.70178-.46689.70178s-.42289-.43667-.46687-.70178A4.27116,4.27116,0,0,0,34.43823,18.789a4.16894,4.16894,0,0,0-4.9577-.25006,5.61554,5.61554,0,0,0-2.34163,4.91639c.114,3.98588,3.27187,6.79994,5.70887,9.578A37.72585,37.72585,0,0,1,36.34942,37.712Z"/><path class="cls-2" d="M78.65055,37.712a37.72984,37.72984,0,0,1,3.50165-4.67867c2.437-2.77806,5.59489-5.59212,5.7089-9.578a5.61554,5.61554,0,0,0-2.34163-4.91639,4.169,4.169,0,0,0-4.95772.25006,4.27108,4.27108,0,0,0-1.4443,2.54768c-.044.26511-.11046.70178-.4669.70178s-.42289-.43667-.46686-.70178A4.27118,4.27118,0,0,0,76.73936,18.789a4.16894,4.16894,0,0,0-4.9577-.25006A5.61551,5.61551,0,0,0,69.44,23.45528c.114,3.98588,3.27186,6.79994,5.70886,9.578A37.72485,37.72485,0,0,1,78.65055,37.712Z"/><path class="cls-2" d="M36.34945,129.28805a37.72984,37.72984,0,0,1-3.50165,4.67867c-2.437,2.77806-5.59489,5.59212-5.7089,9.578a5.61554,5.61554,0,0,0,2.34163,4.91639,4.169,4.169,0,0,0,4.95772-.25006,4.27108,4.27108,0,0,0,1.4443-2.54768c.044-.26511.11046-.70178.4669-.70178s.42289.43667.46686.70178a4.27118,4.27118,0,0,0,1.44433,2.54768,4.16894,4.16894,0,0,0,4.9577.25006A5.61551,5.61551,0,0,0,45.56,143.54472c-.114-3.98588-3.27186-6.79994-5.70886-9.578A37.72485,37.72485,0,0,1,36.34945,129.28805Z"/><path class="cls-2" d="M78.65058,129.28805a37.72884,37.72884,0,0,1-3.50165,4.67867c-2.437,2.77806-5.59489,5.59212-5.70889,9.578a5.61551,5.61551,0,0,0,2.34162,4.91639,4.169,4.169,0,0,0,4.95772-.25006,4.27115,4.27115,0,0,0,1.44431-2.54768c.044-.26511.11045-.70178.46689-.70178s.42289.43667.46687.70178a4.27116,4.27116,0,0,0,1.44432,2.54768,4.16894,4.16894,0,0,0,4.9577.25006,5.61554,5.61554,0,0,0,2.34163-4.91639c-.114-3.98588-3.27187-6.79994-5.70887-9.578A37.72585,37.72585,0,0,1,78.65058,129.28805Z"/><path class="cls-2" d="M36.34942,74.86074a37.72969,37.72969,0,0,1,3.50165-4.67868c2.437-2.77806,5.59489-5.59212,5.70889-9.578a5.6155,5.6155,0,0,0-2.34162-4.91638,4.16894,4.16894,0,0,0-4.95772.25006,4.27112,4.27112,0,0,0-1.44431,2.54767c-.044.26511-.11045.70179-.46689.70179s-.42289-.43668-.46687-.70179a4.27114,4.27114,0,0,0-1.44432-2.54767,4.16891,4.16891,0,0,0-4.9577-.25006,5.61554,5.61554,0,0,0-2.34163,4.91638c.114,3.98588,3.27187,6.79994,5.70887,9.578A37.7267,37.7267,0,0,1,36.34942,74.86074Z"/><path class="cls-2" d="M78.65055,74.86074a37.73069,37.73069,0,0,1,3.50165-4.67868c2.437-2.77806,5.59489-5.59212,5.7089-9.578a5.61554,5.61554,0,0,0-2.34163-4.91638,4.16894,4.16894,0,0,0-4.95772.25006,4.27106,4.27106,0,0,0-1.4443,2.54767c-.044.26511-.11046.70179-.4669.70179s-.42289-.43668-.46686-.70179a4.27115,4.27115,0,0,0-1.44433-2.54767,4.16891,4.16891,0,0,0-4.9577-.25006A5.6155,5.6155,0,0,0,69.44,60.60406c.114,3.98588,3.27186,6.79994,5.70886,9.578A37.7257,37.7257,0,0,1,78.65055,74.86074Z"/><path class="cls-2" d="M78.65058,92.13926a37.72969,37.72969,0,0,1-3.50165,4.67868c-2.437,2.77806-5.59489,5.59212-5.70889,9.578a5.6155,5.6155,0,0,0,2.34162,4.91638,4.16894,4.16894,0,0,0,4.95772-.25006,4.27112,4.27112,0,0,0,1.44431-2.54767c.044-.26511.11045-.70179.46689-.70179s.42289.43668.46687.70179a4.27114,4.27114,0,0,0,1.44432,2.54767,4.16891,4.16891,0,0,0,4.9577.25006,5.61554,5.61554,0,0,0,2.34163-4.91638c-.114-3.98588-3.27187-6.79994-5.70887-9.578A37.7267,37.7267,0,0,1,78.65058,92.13926Z"/><path class="cls-2" d="M36.34945,92.13926a37.73069,37.73069,0,0,1-3.50165,4.67868c-2.437,2.77806-5.59489,5.59212-5.7089,9.578a5.61554,5.61554,0,0,0,2.34163,4.91638,4.16894,4.16894,0,0,0,4.95772-.25006,4.27106,4.27106,0,0,0,1.4443-2.54767c.044-.26511.11046-.70179.4669-.70179s.42289.43668.46686.70179a4.27115,4.27115,0,0,0,1.44433,2.54767,4.16891,4.16891,0,0,0,4.9577.25006A5.6155,5.6155,0,0,0,45.56,106.39594c-.114-3.98588-3.27186-6.79994-5.70886-9.578A37.7257,37.7257,0,0,1,36.34945,92.13926Z"/><path class="cls-2" d="M57.5,93.43513a37.73069,37.73069,0,0,1,3.50165-4.67868c2.437-2.77805,5.59489-5.59211,5.7089-9.578a5.61552,5.61552,0,0,0-2.34163-4.91639,4.169,4.169,0,0,0-4.95772.25006,4.27111,4.27111,0,0,0-1.4443,2.54768c-.044.26511-.11045.70178-.4669.70178s-.42288-.43667-.46686-.70178a4.2711,4.2711,0,0,0-1.44433-2.54768,4.16891,4.16891,0,0,0-4.95769-.25006,5.61552,5.61552,0,0,0-2.34163,4.91639c.114,3.98588,3.27187,6.79994,5.70887,9.578A37.72662,37.72662,0,0,1,57.5,93.43513Z"/></g></svg>