<svg xmlns="http://www.w3.org/2000/svg" viewBox="0 0 87 127"><defs><style>.cls-1{fill:#fff;}</style></defs><title>card-clubs-4</title><g id="artwork"><rect class="cls-1" x="-0.00463" width="87" height="127" rx="6"/><path d="M12.26613,16.81266H7.14574v-.963l3.008-7.551h1.34382L8.44171,15.72151h3.82442V12.41869h1.23151v3.30282h1.3448v1.09115h-1.3448v2.06781H12.26613Z"/><path d="M16.20778,30.20637A2.22669,2.22669,0,0,0,14.01131,28.564a2.06817,2.06817,0,0,0-.96649.28782c-.15625.09337-.45.27536-.58477.04606-.12205-.20768.10074-.40145.23407-.52944a2.21549,2.21549,0,0,0,.63771-1.18859,2.33121,2.33121,0,0,0-1.04826-2.36158,2.43449,2.43449,0,0,0-2.59586,0,2.33119,2.33119,0,0,0-1.04826,2.36158,2.21548,2.21548,0,0,0,.6377,1.18859c.13334.128.35612.32176.23408.52944-.1348.2293-.42852.04731-.58478-.04606A2.06813,2.06813,0,0,0,7.96,28.564a2.22671,2.22671,0,0,0-2.19648,1.64233,2.40939,2.40939,0,0,0,1.12964,2.69738,2.44061,2.44061,0,0,0,3.57359-1.50665h.19877a2.68909,2.68909,0,0,1-.39757,1.98856,2.64827,2.64827,0,0,1-.7176.71913v.35966H12.421v-.35966a2.64855,2.64855,0,0,1-.7176-.71913,2.68918,2.68918,0,0,1-.39757-1.98856h.19879a2.44059,2.44059,0,0,0,3.57357,1.50665A2.40937,2.40937,0,0,0,16.20778,30.20637Z"/><path d="M74.72551,110.18794H79.8459v.963l-3.008,7.551H75.49411l3.05583-7.42277H74.72551v3.30282H73.494v-3.30282H72.15018v-1.09115H73.494v-2.06781h1.23151Z"/><path d="M70.783,96.77759a2.22669,2.22669,0,0,0,2.19647,1.64233,2.06817,2.06817,0,0,0,.96649-.28782c.15626-.09337.45-.27536.58477-.04607.12205.20769-.10074.40145-.23407.52945a2.21553,2.21553,0,0,0-.63771,1.18858,2.33122,2.33122,0,0,0,1.04826,2.36159,2.43454,2.43454,0,0,0,2.59586,0,2.33121,2.33121,0,0,0,1.04826-2.36159,2.2155,2.2155,0,0,0-.63769-1.18858c-.13335-.128-.35612-.32176-.23409-.52945.13481-.22929.42853-.0473.58479.04607a2.06806,2.06806,0,0,0,.96649.28782,2.2267,2.2267,0,0,0,2.19647-1.64233,2.40939,2.40939,0,0,0-1.12964-2.69738A2.44061,2.44061,0,0,0,76.524,95.58685h-.19878a2.68912,2.68912,0,0,1,.39757-1.98855,2.64813,2.64813,0,0,1,.7176-.71913V92.5195H74.56977v.35967a2.64859,2.64859,0,0,1,.71761.71913,2.68917,2.68917,0,0,1,.39757,1.98855h-.19879a2.4406,2.4406,0,0,0-3.57358-1.50664A2.40937,2.40937,0,0,0,70.783,96.77759Z"/><path d="M35.32773,22.61894a3.34,3.34,0,0,0-3.29471-2.4635,3.10231,3.10231,0,0,0-1.44973.43173c-.23439.14006-.675.413-.87716.0691-.18307-.31152.15111-.60217.35111-.79417a3.32323,3.32323,0,0,0,.95656-1.78288,3.49682,3.49682,0,0,0-1.57239-3.54237,3.65176,3.65176,0,0,0-3.89379,0,3.49678,3.49678,0,0,0-1.57239,3.54237,3.3232,3.3232,0,0,0,.95654,1.78288c.2.192.53418.48265.35113.79417-.20221.34395-.64279.071-.87718-.0691a3.10224,3.10224,0,0,0-1.44973-.43173,3.34,3.34,0,0,0-3.29471,2.4635A3.61407,3.61407,0,0,0,21.35573,26.665a3.66092,3.66092,0,0,0,5.36038-2.26h.29816a4.03366,4.03366,0,0,1-.59635,2.98283,3.97225,3.97225,0,0,1-1.0764,1.07869v.5395h4.306v-.5395a3.97281,3.97281,0,0,1-1.0764-1.07869,4.03375,4.03375,0,0,1-.59636-2.98283h.29819a3.66089,3.66089,0,0,0,5.36036,2.26A3.61407,3.61407,0,0,0,35.32773,22.61894Z"/><path d="M19.66128,104.38106a3.34,3.34,0,0,0,3.29471,2.4635,3.10235,3.10235,0,0,0,1.44973-.43173c.23439-.14006.675-.413.87716-.0691.18307.31152-.15112.60217-.35111.79417a3.32323,3.32323,0,0,0-.95656,1.78288,3.49682,3.49682,0,0,0,1.57239,3.54237,3.65176,3.65176,0,0,0,3.89379,0,3.49682,3.49682,0,0,0,1.57239-3.54237,3.32327,3.32327,0,0,0-.95654-1.78288c-.2-.192-.53418-.48265-.35113-.79417.20221-.34395.64279-.071.87718.0691a3.10221,3.10221,0,0,0,1.44973.43173,3.34,3.34,0,0,0,3.29471-2.4635,3.61409,3.61409,0,0,0-1.69445-4.04607,3.66092,3.66092,0,0,0-5.36038,2.26h-.29817a4.03366,4.03366,0,0,1,.59636-2.98283,3.97225,3.97225,0,0,1,1.0764-1.07869v-.5395h-4.306v.5395a3.97271,3.97271,0,0,1,1.07641,1.07869,4.03375,4.03375,0,0,1,.59635,2.98283h-.29818a3.6609,3.6609,0,0,0-5.36036-2.26A3.61406,3.61406,0,0,0,19.66128,104.38106Z"/><path d="M67.32945,22.61894a3.34,3.34,0,0,0-3.29471-2.4635,3.10235,3.10235,0,0,0-1.44973.43173c-.23438.14006-.675.413-.87716.0691-.18307-.31152.15112-.60217.35111-.79417a3.32324,3.32324,0,0,0,.95657-1.78288,3.49684,3.49684,0,0,0-1.5724-3.54237,3.65174,3.65174,0,0,0-3.89378,0A3.49678,3.49678,0,0,0,55.977,18.07922a3.32313,3.32313,0,0,0,.95654,1.78288c.2.192.53418.48265.35113.79417-.20221.34395-.64279.071-.87718-.0691a3.10228,3.10228,0,0,0-1.44974-.43173,3.34005,3.34005,0,0,0-3.29471,2.4635A3.61408,3.61408,0,0,0,53.35746,26.665a3.66092,3.66092,0,0,0,5.36038-2.26H59.016a4.03366,4.03366,0,0,1-.59635,2.98283,3.97229,3.97229,0,0,1-1.07641,1.07869v.5395h4.306v-.5395a3.97285,3.97285,0,0,1-1.07641-1.07869,4.03375,4.03375,0,0,1-.59635-2.98283h.29819a3.66089,3.66089,0,0,0,5.36036,2.26A3.61407,3.61407,0,0,0,67.32945,22.61894Z"/><path d="M51.663,104.38106a3.34,3.34,0,0,0,3.29471,2.4635,3.10235,3.10235,0,0,0,1.44973-.43173c.23438-.14006.675-.413.87716-.0691.18307.31152-.15112.60217-.35111.79417a3.32324,3.32324,0,0,0-.95657,1.78288,3.49684,3.49684,0,0,0,1.5724,3.54237,3.65174,3.65174,0,0,0,3.89378,0,3.49678,3.49678,0,0,0,1.57239-3.54237,3.32313,3.32313,0,0,0-.95654-1.78288c-.2-.192-.53418-.48265-.35113-.79417.20221-.34395.64279-.071.87718.0691a3.10228,3.10228,0,0,0,1.44974.43173,3.34005,3.34005,0,0,0,3.29471-2.4635A3.61408,3.61408,0,0,0,65.635,100.335a3.66092,3.66092,0,0,0-5.36038,2.26h-.29816a4.03366,4.03366,0,0,1,.59635-2.98283,3.97229,3.97229,0,0,1,1.07641-1.07869v-.5395h-4.306v.5395a3.97285,3.97285,0,0,1,1.07641,1.07869A4.03375,4.03375,0,0,1,59.016,102.595h-.29819a3.66089,3.66089,0,0,0-5.36036-2.26A3.61407,3.61407,0,0,0,51.663,104.38106Z"/></g></svg>