<svg xmlns="http://www.w3.org/2000/svg" viewBox="0 0 115 167"><defs><style>.cls-1{fill:#fff;}.cls-2{fill:#ff3b5c;}</style></defs><title>card-hearts-a</title><g id="artwork"><rect class="cls-1" width="115" height="167" rx="8"/><path class="cls-2" d="M57.5,93.4346a37.72885,37.72885,0,0,1,3.50165-4.67843c2.437-2.77791,5.59489-5.59182,5.7089-9.57748a5.61512,5.61512,0,0,0-2.34163-4.91613,4.16914,4.16914,0,0,0-4.95772.25005,4.27085,4.27085,0,0,0-1.4443,2.54754c-.044.26509-.11045.70174-.4669.70174s-.42288-.43665-.46686-.70174a4.27084,4.27084,0,0,0-1.44433-2.54754,4.16909,4.16909,0,0,0-4.95769-.25005,5.61512,5.61512,0,0,0-2.34163,4.91613c.114,3.98566,3.27187,6.79957,5.70887,9.57748A37.72479,37.72479,0,0,1,57.5,93.4346Z"/><path class="cls-2" d="M17.67122,20.74772H11.41086l-1.05727,3.77205H8.74574L12.7644,9.85329h3.55392L20.337,24.51977H18.72913Zm-5.90083-1.463h5.54195l-2.221-8.03177H13.99143Z"/><path class="cls-2" d="M14.54128,45.24049a25.15128,25.15128,0,0,1,2.33443-3.119c1.62468-1.85193,3.72992-3.72788,3.80593-6.385a3.74339,3.74339,0,0,0-1.56109-3.27741,2.77939,2.77939,0,0,0-3.30514.1667,2.84718,2.84718,0,0,0-.96287,1.69836c-.02934.17673-.07364.46783-.31126.46783s-.28193-.2911-.31125-.46783a2.8472,2.8472,0,0,0-.96288-1.69836,2.77938,2.77938,0,0,0-3.30513-.1667,3.74341,3.74341,0,0,0-1.56109,3.27741c.076,2.65711,2.18125,4.53306,3.80591,6.385A25.15036,25.15036,0,0,1,14.54128,45.24049Z"/><path class="cls-2" d="M97.32788,146.25228h6.261l1.05727-3.77205h1.60721l-4.01866,14.66648H98.68207l-4.01866-14.66648h1.60721Zm5.90083,1.463H97.68805l2.2204,8.03177h1.09987Z"/><path class="cls-2" d="M100.45872,121.93584a25.15128,25.15128,0,0,1-2.33443,3.119c-1.62468,1.85194-3.72992,3.72788-3.80593,6.385a3.74339,3.74339,0,0,0,1.56109,3.27741,2.77941,2.77941,0,0,0,3.30514-.16669,2.84723,2.84723,0,0,0,.96287-1.69837c.02934-.17673.07364-.46783.31126-.46783s.28193.2911.31125.46783a2.84725,2.84725,0,0,0,.96288,1.69837,2.77939,2.77939,0,0,0,3.30513.16669,3.74341,3.74341,0,0,0,1.56109-3.27741c-.076-2.65711-2.18125-4.533-3.80591-6.385A25.15036,25.15036,0,0,1,100.45872,121.93584Z"/></g></svg>