<svg xmlns="http://www.w3.org/2000/svg" viewBox="0 0 115 167"><defs><style>.cls-1{fill:#fff;}.cls-2{fill:#ff3b5c;}</style></defs><title>card-joker-2</title><g id="artwork"><rect class="cls-1" width="115" height="167" rx="8"/><path class="cls-2" d="M10.39342,25.98587a5.77173,5.77173,0,0,0,1.5646-.14812.98474.98474,0,0,0,.64546-.61513,4.71583,4.71583,0,0,0,.17944-1.54719V11.25523h1.60721l.02194,12.65371a4.79738,4.79738,0,0,1-.4544,2.37382,1.99349,1.99349,0,0,1-1.25866.96376,10.04445,10.04445,0,0,1-2.30559.20181Z"/><path class="cls-2" d="M9.64339,46.545A4.29134,4.29134,0,0,1,7.8348,44.13883a13.92986,13.92986,0,0,1-.53961-4.29164,14.03507,14.03507,0,0,1,.54994-4.313A4.50345,4.50345,0,0,1,9.664,33.0543a6.22848,6.22848,0,0,1,3.40547-.81564,6.23448,6.23448,0,0,1,3.40547.81564,4.555,4.555,0,0,1,1.82924,2.4799,13.97383,13.97383,0,0,1,.56026,4.355,13.91608,13.91608,0,0,1-.53961,4.30264,4.21334,4.21334,0,0,1-1.797,2.37382,6.61232,6.61232,0,0,1-3.43774.76325A6.52288,6.52288,0,0,1,9.64339,46.545Zm5.93181-1.251a3.20149,3.20149,0,0,0,1.238-1.87577,13.67962,13.67962,0,0,0,.35888-3.52905,13.9,13.9,0,0,0-.3705-3.58143A3.50615,3.50615,0,0,0,15.54422,34.326a4.1432,4.1432,0,0,0-2.47471-.64617,4.20037,4.20037,0,0,0-2.47471.63517,3.45119,3.45119,0,0,0-1.25865,1.9715,13.79659,13.79659,0,0,0-.3705,3.56074,13.76409,13.76409,0,0,0,.36017,3.529,3.21017,3.21017,0,0,0,1.25865,1.90747,4.459,4.459,0,0,0,2.50569.60413A4.40943,4.40943,0,0,0,15.5752,45.29405Z"/><path class="cls-2" d="M12.91073,61.82673l-2.43211.08409v6.40091H8.85076V53.64512h1.62786V60.4697l2.41145-.08408,3.74369-6.7405h1.86152l-4.18777,7.37567,4.42013,7.29094H16.80287Z"/><path class="cls-2" d="M10.64773,76.28183v5.06523h6.00668v1.41977H10.64773v5.29874H17.9234v1.44111H9.01987V74.84007H17.9234v1.44176Z"/><path class="cls-2" d="M8.35375,96.03437H13.7679a4.97137,4.97137,0,0,1,3.51132,1.09183,4.40668,4.40668,0,0,1,1.16313,3.35958q0,3.41325-2.68642,4.25994l2.81293,5.95591H16.7706l-2.64382-5.617H9.98161v5.617H8.35375Zm5.43481,7.60917q2.982,0,2.982-3.09437,0-3.07272-3.0027-3.073H9.98161v6.16741Z"/><path class="cls-2" d="M104.60658,141.01348a5.77215,5.77215,0,0,0-1.5646.14812.98476.98476,0,0,0-.64546.61513,4.71394,4.71394,0,0,0-.17944,1.54654v12.4215h-1.60721l-.02194-12.65435a4.7974,4.7974,0,0,1,.4544-2.37383,1.99349,1.99349,0,0,1,1.25866-.96376,10.04512,10.04512,0,0,1,2.30559-.2018Z"/><path class="cls-2" d="M105.35661,120.45436a4.29132,4.29132,0,0,1,1.80859,2.40616,17.26129,17.26129,0,0,1-.01033,8.60463,4.50342,4.50342,0,0,1-1.81891,2.4799,7.5171,7.5171,0,0,1-6.81094,0,4.555,4.555,0,0,1-1.82924-2.4799,17.31365,17.31365,0,0,1-.02065-8.65767,4.21337,4.21337,0,0,1,1.797-2.37382,6.61232,6.61232,0,0,1,3.43774-.76325A6.52288,6.52288,0,0,1,105.35661,120.45436ZM99.4248,121.7053a3.20149,3.20149,0,0,0-1.238,1.87578,13.67959,13.67959,0,0,0-.35888,3.529,13.8999,13.8999,0,0,0,.3705,3.58143,3.50618,3.50618,0,0,0,1.25736,1.98186,4.1432,4.1432,0,0,0,2.47471.64617,4.20037,4.20037,0,0,0,2.47471-.63518,3.45119,3.45119,0,0,0,1.25865-1.9715,17.38169,17.38169,0,0,0,.01033-7.08978,3.21017,3.21017,0,0,0-1.25865-1.90747,4.459,4.459,0,0,0-2.50569-.60413A4.40943,4.40943,0,0,0,99.4248,121.7053Z"/><path class="cls-2" d="M102.08927,105.17262l2.43211-.08408V98.68762h1.62786v14.66661h-1.62786v-6.82458l-2.41145.08409-3.74369,6.74049H96.50472l4.18777-7.37567-4.42013-7.29094h1.92477Z"/><path class="cls-2" d="M104.35227,90.71752V85.65229H98.34559V84.23252h6.00668V78.93378H97.0766V77.49267h8.90353V92.15928H97.0766V90.71752Z"/><path class="cls-2" d="M106.64625,70.965H101.2321a4.97137,4.97137,0,0,1-3.51132-1.09183,4.40665,4.40665,0,0,1-1.16313-3.35957q0-3.41327,2.68642-4.26l-2.81293-5.9559H98.2294l2.64382,5.617h4.14517v-5.617h1.62786Zm-5.43481-7.60917q-2.982,0-2.982,3.09438,0,3.0727,3.0027,3.073h3.78629V63.35581Z"/><path class="cls-2" d="M49.63282,37.88146V36.479A4.15163,4.15163,0,0,0,46.476,32.45453a4.14324,4.14324,0,0,1,7.36486,2.62131v2.80562Z"/><path class="cls-2" d="M65.37738,37.88146V36.479a4.15164,4.15164,0,0,1,3.15679-4.02448,4.14324,4.14324,0,0,0-7.36486,2.62131v2.80562Z"/><circle cx="69.91113" cy="33.00223" r="1.48006"/><circle cx="45.09908" cy="33.00223" r="1.48006"/><path class="cls-2" d="M64.86869,35.90509h.00047a3.68566,3.68566,0,0,1,3.68531,3.68578v5.3062a3.86075,3.86075,0,0,0-7.36359-.01779v.01779l-.00375-.00889-.00374.00889v-.01779a3.85946,3.85946,0,0,0-7.3561,0v.01779l-.00375-.00889-.00374.00889v-.01779a3.86107,3.86107,0,0,0-7.36406.01779v-5.3062a3.68606,3.68606,0,0,1,3.68577-3.68578H64.86869Z"/><path class="cls-2" d="M47.44457,37.1668A11.505,11.505,0,0,0,57.5051,29.19943v-.00257l.00257-.00256v.00513a11.50463,11.50463,0,0,0,10.058,7.96737Z"/><circle cx="57.5051" cy="26.59828" r="2.59097"/><rect x="57.16954" y="51.61936" width="0.66095" height="7.59582"/><rect x="39.07392" y="41.43895" width="7.37076" height="25.36613" rx="3.68538"/><rect x="68.55532" y="41.43895" width="7.37076" height="25.36613" rx="3.68538"/><path d="M63.10005,52.42979a2.10053,2.10053,0,0,1,1.8368,1.45464v.00047l.00047.00047v-.00094a2.10043,2.10043,0,0,1,1.83633-1.45464Z"/><path d="M64.93732,47.46751H63.10005v-.01639a2.10054,2.10054,0,0,0,1.8368-1.45465V45.996l.00047-.00047v.00093a2.10044,2.10044,0,0,0,1.83633,1.45465v.01639Z"/><circle cx="64.93685" cy="49.93317" r="1.48006"/><path d="M64.93657,54.5417a.81909.81909,0,1,1-.81909.81909.8198.8198,0,0,1,.81909-.81909m0-.661a1.48,1.48,0,1,0,1.48,1.48,1.48037,1.48037,0,0,0-1.48-1.48Z"/><circle cx="50.06315" cy="49.93317" r="1.48006"/><path d="M48.22635,52.42979a2.10052,2.10052,0,0,1,1.8368,1.45464v.00047l.00047.00047v-.00094a2.10044,2.10044,0,0,1,1.83633-1.45464Z"/><path d="M50.06362,47.46751H48.22635v-.01639a2.10053,2.10053,0,0,0,1.8368-1.45465V45.996l.00047-.00047v.00093a2.10045,2.10045,0,0,0,1.83633,1.45465v.01639Z"/><circle class="cls-2" cx="50.02457" cy="76.46878" r="1.48006"/><circle class="cls-2" cx="64.89827" cy="76.46878" r="1.48006"/><circle class="cls-2" cx="57.49681" cy="80.90965" r="2.59097"/><path d="M56.65412,69.76242a7.53727,7.53727,0,0,0-6.591,5.21967v.00168l-.00168.00168v-.00336a7.537,7.537,0,0,0-6.58929-5.21967Z"/><path d="M71.52782,69.76242a7.53727,7.53727,0,0,0-6.591,5.21967v.00168l-.00168.00168v-.00336a7.537,7.537,0,0,0-6.58929-5.21967Z"/><path d="M68.32066,69.76242A12.37428,12.37428,0,0,0,57.5,78.33176v.00276l-.00276.00276v-.00552a12.37385,12.37385,0,0,0-10.8179-8.56934Z"/><path class="cls-2" d="M63.33679,65.21508h-.661a1.8371,1.8371,0,0,0-.50991-1.4255,1.87157,1.87157,0,0,0-1.28109-.40019L54.659,63.391a3.139,3.139,0,0,1-2.14939-.75035,2.93759,2.93759,0,0,1-.84637-2.24557h.661a2.31146,2.31146,0,0,0,.63288,1.75889,2.4989,2.4989,0,0,0,1.68078.57672l6.21356-.00064a2.49319,2.49319,0,0,1,1.7576.5693A2.46012,2.46012,0,0,1,63.33679,65.21508Z"/><path class="cls-2" d="M65.36718,129.11854V130.521a4.15163,4.15163,0,0,0,3.15678,4.02448,4.14324,4.14324,0,0,1-7.36486-2.62131v-2.80562Z"/><path class="cls-2" d="M49.62262,129.11854V130.521a4.15164,4.15164,0,0,1-3.15679,4.02448,4.14324,4.14324,0,0,0,7.36486-2.62131v-2.80562Z"/><circle cx="45.08887" cy="133.99777" r="1.48006"/><circle cx="69.90092" cy="133.99777" r="1.48006"/><path class="cls-2" d="M50.13131,131.09491h-.00047a3.68566,3.68566,0,0,1-3.68531-3.68578v-5.3062a3.86075,3.86075,0,0,0,7.36359.01779v-.01779l.00375.00889.00374-.00889v.01779a3.85946,3.85946,0,0,0,7.3561,0v-.01779l.00375.00889.00374-.00889v.01779a3.86107,3.86107,0,0,0,7.36406-.01779v5.3062a3.68606,3.68606,0,0,1-3.68577,3.68578H50.13131Z"/><path class="cls-2" d="M67.55543,129.8332a11.505,11.505,0,0,0-10.06053,7.96737v.00257l-.00257.00256v-.00513a11.50463,11.50463,0,0,0-10.058-7.96737Z"/><circle cx="57.4949" cy="140.40172" r="2.59097"/><rect x="57.1695" y="107.78482" width="0.66095" height="7.59582"/><rect x="68.55532" y="100.19492" width="7.37076" height="25.36613" rx="3.68538"/><rect x="39.07392" y="100.19492" width="7.37076" height="25.36613" rx="3.68538"/><path d="M51.89995,114.57021a2.10053,2.10053,0,0,1-1.8368-1.45464v-.00047l-.00047-.00047v.00094a2.10043,2.10043,0,0,1-1.83633,1.45464Z"/><path d="M50.06268,119.53249h1.83727v.01639a2.10054,2.10054,0,0,0-1.8368,1.45465v.00046l-.00047.00047v-.00093a2.10044,2.10044,0,0,0-1.83633-1.45465v-.01639Z"/><circle cx="50.06315" cy="117.06683" r="1.48006"/><path d="M50.06343,112.4583a.81909.81909,0,1,1,.81909-.81909.8198.8198,0,0,1-.81909.81909m0,.661a1.48005,1.48005,0,1,0-1.48-1.48,1.48037,1.48037,0,0,0,1.48,1.48Z"/><circle cx="64.93685" cy="117.06683" r="1.48006"/><path d="M66.77365,114.57021a2.10052,2.10052,0,0,1-1.8368-1.45464v-.00047l-.00047-.00047v.00094a2.10044,2.10044,0,0,1-1.83633,1.45464Z"/><path d="M64.93638,119.53249h1.83727v.01639a2.10053,2.10053,0,0,0-1.8368,1.45465v.00046l-.00047.00047v-.00093a2.10045,2.10045,0,0,0-1.83633-1.45465v-.01639Z"/><circle class="cls-2" cx="64.97543" cy="90.53122" r="1.48006"/><circle class="cls-2" cx="50.10173" cy="90.53122" r="1.48006"/><circle class="cls-2" cx="57.50319" cy="86.09035" r="2.59097"/><path d="M58.34588,97.23758a7.53727,7.53727,0,0,0,6.591-5.21967v-.00168l.00168-.00168v.00336a7.537,7.537,0,0,0,6.58929,5.21967Z"/><path d="M43.47218,97.23758a7.53727,7.53727,0,0,0,6.591-5.21967v-.00168l.00168-.00168v.00336a7.537,7.537,0,0,0,6.58929,5.21967Z"/><path d="M46.67934,97.23758A12.37428,12.37428,0,0,0,57.5,88.66824v-.00276l.00276-.00276v.00552a12.37385,12.37385,0,0,0,10.8179,8.56934Z"/><path class="cls-2" d="M51.66321,101.78492h.661a1.8371,1.8371,0,0,0,.50991,1.4255,1.87157,1.87157,0,0,0,1.28109.40019L60.341,103.609a3.139,3.139,0,0,1,2.14939.75035,2.93759,2.93759,0,0,1,.84637,2.24557h-.661a2.31146,2.31146,0,0,0-.63288-1.75889,2.4989,2.4989,0,0,0-1.68078-.57672l-6.21356.00064a2.49319,2.49319,0,0,1-1.7576-.5693A2.46012,2.46012,0,0,1,51.66321,101.78492Z"/></g></svg>