<svg xmlns="http://www.w3.org/2000/svg" viewBox="0 0 87 127"><defs><style>.cls-1{fill:#fff;}.cls-2{fill:#ff3b5c;}</style></defs><title>card-hearts-9</title><g id="artwork"><rect class="cls-1" x="0.00232" width="86.99536" height="127" rx="6"/><path class="cls-2" d="M7.99381,18.8157l-.416-.06458.11133-.99428a20.8934,20.8934,0,0,0,2.78417.19279q2.88135,0,2.91211-3.68741a8.16382,8.16382,0,0,1-2.752.60968q-3.45556,0-3.456-3.22355a3.3781,3.3781,0,0,1,.99218-2.565,3.70826,3.70826,0,0,1,2.67188-.94631q3.82325,0,3.82422,5.64463a6.2439,6.2439,0,0,1-1.04,3.99959,3.8514,3.8514,0,0,1-3.15235,1.2585A14.71479,14.71479,0,0,1,7.99381,18.8157ZM12.986,13.3482l.416-.14386q-.04835-3.97659-2.56055-3.97708a2.33488,2.33488,0,0,0-1.75195.6498,2.42877,2.42877,0,0,0-.63184,1.77129q0,2.13288,2.27246,2.13337A7.069,7.069,0,0,0,12.986,13.3482Z"/><path class="cls-2" d="M11.00252,34.55582a19.02855,19.02855,0,0,1,1.766-2.35955c1.229-1.401,2.82162-2.82022,2.87911-4.83038a2.832,2.832,0,0,0-1.18093-2.47944,2.10249,2.10249,0,0,0-2.50028.12611,2.154,2.154,0,0,0-.72839,1.28485c-.02219.1337-.0557.35392-.23547.35392s-.21327-.22022-.23545-.35392a2.154,2.154,0,0,0-.7284-1.28485,2.10247,2.10247,0,0,0-2.50027-.12611,2.832,2.832,0,0,0-1.18093,2.47944c.05748,2.01016,1.65007,3.42935,2.8791,4.83038A19.02548,19.02548,0,0,1,11.00252,34.55582Z"/><path class="cls-2" d="M79.00748,108.18454l.416.06361-.11133.99427a21.05876,21.05876,0,0,0-2.78418-.19279q-2.88135,0-2.91211,3.68741a8.15909,8.15909,0,0,1,2.752-.60869q3.45556,0,3.45605,3.22257a3.37659,3.37659,0,0,1-.99219,2.56494,3.70822,3.70822,0,0,1-2.67187.94632q-3.82324,0-3.82422-5.64366a6.247,6.247,0,0,1,1.04-4.00057,3.85436,3.85436,0,0,1,3.15234-1.25849A14.72012,14.72012,0,0,1,79.00748,108.18454Zm-4.99218,5.46653-.416.14483q.04835,3.97659,2.56055,3.9761a2.33435,2.33435,0,0,0,1.75195-.64882,2.43116,2.43116,0,0,0,.63184-1.77226q0-2.1329-2.27246-2.1324A7.092,7.092,0,0,0,74.0153,113.65107Z"/><path class="cls-2" d="M75.99748,92.57753a19.0278,19.0278,0,0,1-1.766,2.35955c-1.229,1.401-2.82162,2.82023-2.87911,4.83039a2.832,2.832,0,0,0,1.18093,2.47943,2.10249,2.10249,0,0,0,2.50028-.12611A2.154,2.154,0,0,0,75.762,100.836c.02219-.1337.0557-.35393.23547-.35393s.21327.22023.23545.35393a2.154,2.154,0,0,0,.7284,1.28484,2.10247,2.10247,0,0,0,2.50027.12611,2.832,2.832,0,0,0,1.18093-2.47943c-.05748-2.01016-1.65007-3.42935-2.8791-4.83039A19.02474,19.02474,0,0,1,75.99748,92.57753Z"/><path class="cls-2" d="M27.5,28.86219a28.5418,28.5418,0,0,1,2.64893-3.53933c1.84357-2.10155,4.23243-4.23033,4.31868-7.24557a4.24806,4.24806,0,0,0-1.7714-3.71916,3.15373,3.15373,0,0,0-3.75042.18917,3.231,3.231,0,0,0-1.09259,1.92727c-.03329.20055-.08356.53088-.3532.53088s-.31991-.33033-.35318-.53088a3.231,3.231,0,0,0-1.0926-1.92727,3.15372,3.15372,0,0,0-3.75041-.18917,4.24806,4.24806,0,0,0-1.7714,3.71916c.08623,3.01524,2.47511,5.144,4.31866,7.24557A28.54081,28.54081,0,0,1,27.5,28.86219Z"/><path class="cls-2" d="M59.5,28.86219a28.5418,28.5418,0,0,1,2.64893-3.53933c1.84357-2.10155,4.23243-4.23033,4.31868-7.24557a4.24806,4.24806,0,0,0-1.7714-3.71916,3.15373,3.15373,0,0,0-3.75042.18917,3.231,3.231,0,0,0-1.09259,1.92727c-.03329.20055-.08356.53088-.3532.53088s-.31991-.33033-.35318-.53088a3.231,3.231,0,0,0-1.0926-1.92727,3.15372,3.15372,0,0,0-3.75041-.18917,4.24806,4.24806,0,0,0-1.7714,3.71916c.08623,3.01524,2.47511,5.144,4.31866,7.24557A28.54081,28.54081,0,0,1,59.5,28.86219Z"/><path class="cls-2" d="M27.5,98.13781a28.5418,28.5418,0,0,1-2.64893,3.53933c-1.84357,2.10155-4.23243,4.23033-4.31868,7.24557a4.24806,4.24806,0,0,0,1.7714,3.71916,3.15373,3.15373,0,0,0,3.75042-.18917,3.231,3.231,0,0,0,1.09259-1.92727c.03329-.20055.08356-.53088.3532-.53088s.31991.33033.35318.53088a3.231,3.231,0,0,0,1.0926,1.92727,3.15372,3.15372,0,0,0,3.75041.18917,4.24806,4.24806,0,0,0,1.7714-3.71916c-.08623-3.01524-2.47511-5.144-4.31866-7.24557A28.54081,28.54081,0,0,1,27.5,98.13781Z"/><path class="cls-2" d="M59.5,98.13781a28.5418,28.5418,0,0,1-2.64893,3.53933c-1.84357,2.10155-4.23243,4.23033-4.31868,7.24557a4.24806,4.24806,0,0,0,1.7714,3.71916,3.15373,3.15373,0,0,0,3.75042-.18917,3.231,3.231,0,0,0,1.09259-1.92727c.03329-.20055.08356-.53088.3532-.53088s.31991.33033.35318.53088a3.231,3.231,0,0,0,1.0926,1.92727,3.15372,3.15372,0,0,0,3.75041.18917,4.24806,4.24806,0,0,0,1.7714-3.71916c-.08623-3.01524-2.47511-5.144-4.31866-7.24557A28.54081,28.54081,0,0,1,59.5,98.13781Z"/><path class="cls-2" d="M27.5,56.96456a28.54106,28.54106,0,0,1,2.64893-3.53933c1.84357-2.10155,4.23243-4.23034,4.31868-7.24558a4.24805,4.24805,0,0,0-1.7714-3.71915,3.15372,3.15372,0,0,0-3.75042.18916,3.231,3.231,0,0,0-1.09259,1.92727c-.03329.20055-.08356.53089-.3532.53089s-.31991-.33034-.35318-.53089a3.231,3.231,0,0,0-1.0926-1.92727,3.1537,3.1537,0,0,0-3.75041-.18916,4.24805,4.24805,0,0,0-1.7714,3.71915c.08623,3.01524,2.47511,5.144,4.31866,7.24558A28.54006,28.54006,0,0,1,27.5,56.96456Z"/><path class="cls-2" d="M59.5,56.96456a28.54106,28.54106,0,0,1,2.64893-3.53933c1.84357-2.10155,4.23243-4.23034,4.31868-7.24558a4.24805,4.24805,0,0,0-1.7714-3.71915,3.15372,3.15372,0,0,0-3.75042.18916,3.231,3.231,0,0,0-1.09259,1.92727c-.03329.20055-.08356.53089-.3532.53089s-.31991-.33034-.35318-.53089a3.231,3.231,0,0,0-1.0926-1.92727,3.1537,3.1537,0,0,0-3.75041-.18916,4.24805,4.24805,0,0,0-1.7714,3.71915c.08623,3.01524,2.47511,5.144,4.31866,7.24558A28.54006,28.54006,0,0,1,59.5,56.96456Z"/><path class="cls-2" d="M59.5,70.03544a28.54106,28.54106,0,0,1-2.64893,3.53933c-1.84357,2.10155-4.23243,4.23034-4.31868,7.24558a4.24805,4.24805,0,0,0,1.7714,3.71915,3.15372,3.15372,0,0,0,3.75042-.18916,3.231,3.231,0,0,0,1.09259-1.92727c.03329-.20055.08356-.53089.3532-.53089s.31991.33034.35318.53089a3.231,3.231,0,0,0,1.0926,1.92727,3.1537,3.1537,0,0,0,3.75041.18916,4.24805,4.24805,0,0,0,1.7714-3.71915c-.08623-3.01524-2.47511-5.144-4.31866-7.24558A28.54006,28.54006,0,0,1,59.5,70.03544Z"/><path class="cls-2" d="M27.5,70.03544a28.54106,28.54106,0,0,1-2.64893,3.53933c-1.84357,2.10155-4.23243,4.23034-4.31868,7.24558a4.24805,4.24805,0,0,0,1.7714,3.71915,3.15372,3.15372,0,0,0,3.75042-.18916,3.231,3.231,0,0,0,1.09259-1.92727c.03329-.20055.08356-.53089.3532-.53089s.31991.33034.35318.53089a3.231,3.231,0,0,0,1.0926,1.92727,3.1537,3.1537,0,0,0,3.75041.18916,4.24805,4.24805,0,0,0,1.7714-3.71915c-.08623-3.01524-2.47511-5.144-4.31866-7.24558A28.54006,28.54006,0,0,1,27.5,70.03544Z"/><path class="cls-2" d="M43.5,71.01574a28.54106,28.54106,0,0,1,2.64893-3.53933c1.84357-2.10155,4.23243-4.23033,4.31868-7.24558a4.24805,4.24805,0,0,0-1.7714-3.71915,3.15373,3.15373,0,0,0-3.75042.18916,3.231,3.231,0,0,0-1.09259,1.92727c-.03329.20055-.08356.53089-.3532.53089s-.31991-.33034-.35318-.53089a3.231,3.231,0,0,0-1.0926-1.92727,3.15372,3.15372,0,0,0-3.75041-.18916,4.24805,4.24805,0,0,0-1.7714,3.71915c.08623,3.01525,2.47511,5.144,4.31866,7.24558A28.54006,28.54006,0,0,1,43.5,71.01574Z"/></g></svg>