<svg xmlns="http://www.w3.org/2000/svg" viewBox="0 0 87 127"><defs><style>.cls-1{fill:#fff;}.cls-2{fill:#ff3b5c;}</style></defs><title>card-clubs-k</title><g id="artwork"><rect class="cls-1" x="0.00232" width="86.99536" height="127" rx="6"/><path d="M10.87138,13.9739l-1.83985.06459v4.84217H7.80009V7.78515H9.03153v5.16316l1.82422-.06459,2.832-5.09857H15.096L11.928,13.3652l3.34375,5.51546H13.81571Z"/><path d="M16.21387,30.20624a2.2266,2.2266,0,0,0-2.19635-1.64233,2.068,2.068,0,0,0-.96644.28781c-.15625.09338-.45.27537-.58474.04607-.122-.20768.10074-.40145.23406-.52944a2.21556,2.21556,0,0,0,.63767-1.18859,2.33125,2.33125,0,0,0-1.0482-2.36158,2.43424,2.43424,0,0,0-2.59572,0,2.33124,2.33124,0,0,0-1.04821,2.36158,2.21562,2.21562,0,0,0,.63766,1.18859c.13334.128.3561.32176.23408.52944-.1348.2293-.42851.04731-.58476-.04607a2.068,2.068,0,0,0-.96643-.28781,2.2266,2.2266,0,0,0-2.19636,1.64233A2.40943,2.40943,0,0,0,6.8997,32.90362,2.44044,2.44044,0,0,0,10.4731,31.397h.19877a2.68923,2.68923,0,0,1-.39755,1.98855,2.648,2.648,0,0,1-.71757.71913v.35967h2.8705v-.35967a2.64844,2.64844,0,0,1-.71757-.71913,2.68927,2.68927,0,0,1-.39754-1.98855h.19878a2.44042,2.44042,0,0,0,3.57338,1.50665A2.40943,2.40943,0,0,0,16.21387,30.20624Z"/><path d="M76.13114,113.02512l1.83985-.06361v-4.84217h1.23144v11.09551H77.971v-5.16316l-1.82422.06361-2.832,5.09955H71.90653l3.168-5.58-3.34375-5.51546h1.45606Z"/><path d="M70.78613,96.77746a2.2266,2.2266,0,0,0,2.19635,1.64233,2.06805,2.06805,0,0,0,.96644-.28782c.15625-.09337.45-.27537.58474-.04607.122.20769-.10074.40145-.23406.52945a2.21554,2.21554,0,0,0-.63767,1.18858,2.33125,2.33125,0,0,0,1.0482,2.36158,2.43424,2.43424,0,0,0,2.59572,0,2.33124,2.33124,0,0,0,1.04821-2.36158,2.21559,2.21559,0,0,0-.63766-1.18858c-.13334-.128-.3561-.32176-.23408-.52945.1348-.2293.42851-.0473.58476.04607a2.068,2.068,0,0,0,.96643.28782,2.2266,2.2266,0,0,0,2.19636-1.64233,2.40943,2.40943,0,0,0-1.12957-2.69738,2.44045,2.44045,0,0,0-3.5734,1.50664h-.19877a2.68925,2.68925,0,0,1,.39755-1.98855,2.64816,2.64816,0,0,1,.71757-.71913v-.35967h-2.8705V92.879a2.64858,2.64858,0,0,1,.71757.71913,2.68929,2.68929,0,0,1,.39754,1.98855h-.19878a2.44042,2.44042,0,0,0-3.57338-1.50664A2.40943,2.40943,0,0,0,70.78613,96.77746Z"/><path d="M40.01895,59.68a1.4826,1.4826,0,0,0,1.46288,1.09158,1.37943,1.37943,0,0,0,.64369-.1913c.10407-.06206.29969-.183.38947-.03062.08128.138-.0671.26683-.1559.3519a1.47162,1.47162,0,0,0-.42472.79,1.54822,1.54822,0,0,0,.69815,1.56963,1.62422,1.62422,0,0,0,1.72887,0,1.54819,1.54819,0,0,0,.69816-1.56963,1.47167,1.47167,0,0,0-.42471-.79c-.08881-.08507-.23718-.21386-.15591-.3519.08978-.1524.28541-.03144.38948.03062a1.37939,1.37939,0,0,0,.64369.1913A1.48259,1.48259,0,0,0,46.975,59.68a1.6,1.6,0,0,0-.75235-1.79281,1.62638,1.62638,0,0,0-2.38,1.00139h-.13239a1.78435,1.78435,0,0,1,.26478-1.32169,1.76185,1.76185,0,0,1,.47794-.478v-.23906H42.541v.23906a1.762,1.762,0,0,1,.47793.478,1.7844,1.7844,0,0,1,.26479,1.32169h-.1324a1.62638,1.62638,0,0,0-2.38-1.00139A1.60006,1.60006,0,0,0,40.01895,59.68Z"/><path class="cls-2" d="M43.4969,57.18234a5.32788,5.32788,0,0,1-2.7727-.78028c-2.78321-1.6936-6.10108-4.35522-6.10108-7.41723h.5c0,2.97876,3.67212,5.6582,5.86109,6.99a4.81761,4.81761,0,0,0,5.02563,0c2.18884-1.33179,5.861-4.01123,5.861-6.99h.5c0,3.062-3.31787,5.72363-6.10107,7.41723A5.328,5.328,0,0,1,43.4969,57.18234Z"/><path d="M37.9247,36.1108a2.92833,2.92833,0,0,0-2.78614,2.04687v-6.186a2.78593,2.78593,0,0,1,2.78565-2.78614h.00049a2.78593,2.78593,0,0,1,2.78564,2.78614v6.186A2.92861,2.92861,0,0,0,37.9247,36.1108Z"/><path d="M43.497,36.1108a2.92922,2.92922,0,0,0-2.78613,2.04687v-6.186a2.78624,2.78624,0,0,1,2.78564-2.78614H43.497a2.78593,2.78593,0,0,1,2.78565,2.78614v6.186A2.92818,2.92818,0,0,0,43.497,36.1108Z"/><path d="M49.06972,36.1108a2.92879,2.92879,0,0,0-2.78614,2.04687v-6.186a2.78593,2.78593,0,0,1,2.78565-2.78614h.00049a2.78593,2.78593,0,0,1,2.78564,2.78614v6.186A2.92861,2.92861,0,0,0,49.06972,36.1108Z"/><rect x="29.56621" y="35.7312" width="5.57585" height="19.04163" rx="2.78792"/><rect x="51.85187" y="35.7312" width="5.57585" height="19.04163" rx="2.78792"/><path class="cls-2" d="M37.9247,28.23238a2.92834,2.92834,0,0,1-2.78614-2.04688v6.186a2.78593,2.78593,0,0,0,2.78565,2.78613h.00049a2.78593,2.78593,0,0,0,2.78564-2.78613v-6.186A2.92862,2.92862,0,0,1,37.9247,28.23238Z"/><path class="cls-2" d="M43.497,28.23238a2.92923,2.92923,0,0,1-2.78613-2.04688v6.186a2.78624,2.78624,0,0,0,2.78564,2.78613H43.497a2.78593,2.78593,0,0,0,2.78565-2.78613v-6.186A2.92819,2.92819,0,0,1,43.497,28.23238Z"/><path class="cls-2" d="M49.06972,28.23238a2.9288,2.9288,0,0,1-2.78614-2.04688v6.186a2.78593,2.78593,0,0,0,2.78565,2.78613h.00049a2.78593,2.78593,0,0,0,2.78564-2.78613v-6.186A2.92862,2.92862,0,0,1,49.06972,28.23238Z"/><path d="M50.70005,32.3857a.67787.67787,0,0,0-.66885-.49908.63073.63073,0,0,0-.2943.08746c-.04758.02838-.137.08368-.17807.014-.03717-.06311.03068-.122.07128-.16089a.67286.67286,0,0,0,.19419-.3612.70789.70789,0,0,0-.31921-.71766.74263.74263,0,0,0-.79047,0,.70788.70788,0,0,0-.3192.71766.67278.67278,0,0,0,.19418.3612c.04061.0389.10844.09778.07128.16089-.041.06968-.13049.01438-.17807-.014a.63073.63073,0,0,0-.2943-.08746.67787.67787,0,0,0-.66885.49908.73158.73158,0,0,0,.344.81971.74362.74362,0,0,0,1.0882-.45786h.06053a.81584.81584,0,0,1-.12107.6043.8055.8055,0,0,1-.21852.21854v.1093h.87415v-.1093a.8055.8055,0,0,1-.21852-.21854.81584.81584,0,0,1-.12107-.6043h.06054a.7436.7436,0,0,0,1.08819.45786A.73157.73157,0,0,0,50.70005,32.3857Z"/><path d="M39.47427,32.3857a.67787.67787,0,0,0-.66885-.49908.6308.6308,0,0,0-.29431.08746c-.04758.02838-.137.08368-.17806.014-.03717-.06311.03067-.122.07127-.16089a.6728.6728,0,0,0,.19419-.3612.70788.70788,0,0,0-.3192-.71766.74263.74263,0,0,0-.79047,0,.70787.70787,0,0,0-.31921.71766.67286.67286,0,0,0,.19419.3612c.0406.0389.10844.09778.07128.16089-.041.06968-.13049.01438-.17807-.014a.63076.63076,0,0,0-.29431-.08746.67787.67787,0,0,0-.66885.49908.73159.73159,0,0,0,.344.81971.74361.74361,0,0,0,1.08819-.45786h.06053a.81579.81579,0,0,1-.12106.6043.8055.8055,0,0,1-.21852.21854v.1093h.87414v-.1093a.80578.80578,0,0,1-.21852-.21854.81588.81588,0,0,1-.12106-.6043h.06053a.74361.74361,0,0,0,1.08819.45786A.73159.73159,0,0,0,39.47427,32.3857Z"/><path d="M45.08716,32.3857a.67787.67787,0,0,0-.66885-.49908.63073.63073,0,0,0-.2943.08746c-.04759.02838-.137.08368-.17807.014-.03717-.06311.03068-.122.07128-.16089a.67278.67278,0,0,0,.19418-.3612.70786.70786,0,0,0-.3192-.71766.74263.74263,0,0,0-.79047,0,.70785.70785,0,0,0-.3192.71766.67278.67278,0,0,0,.19418.3612c.04061.0389.10844.09778.07128.16089-.041.06968-.13049.01438-.17807-.014a.63073.63073,0,0,0-.29431-.08746.67785.67785,0,0,0-.66884.49908.73157.73157,0,0,0,.344.81971.7436.7436,0,0,0,1.08819-.45786h.06053a.81579.81579,0,0,1-.12106.6043.8055.8055,0,0,1-.21852.21854v.1093H43.934v-.1093a.8056.8056,0,0,1-.21851-.21854.81584.81584,0,0,1-.12107-.6043H43.655a.7436.7436,0,0,0,1.08819.45786A.7316.7316,0,0,0,45.08716,32.3857Z"/><rect x="43.2469" y="45.1506" width="0.5" height="2.74585"/><path class="cls-2" d="M43.4969,52.72921a3.00984,3.00984,0,0,1-2.59875-1.48486l.429-.25684a2.51665,2.51665,0,0,0,4.3396,0l.429.25684A3.00987,3.00987,0,0,1,43.4969,52.72921Z"/><path class="cls-2" d="M54.67777,54.403h0a.71131.71131,0,0,1,.71131.71131v3.76258a.71131.71131,0,0,1-.71131.71131h0a.7113.7113,0,0,1-.7113-.7113V55.11433a.71131.71131,0,0,1,.71131-.71131Z"/><path class="cls-2" d="M54.67777,56.5125h0a1.50329,1.50329,0,0,0,1.50329-1.50328V32.41909c0-.83024-1.50329-1.50328-1.50329-1.50328h0s-1.50328.673-1.50328,1.50328V55.00922A1.50328,1.50328,0,0,0,54.67777,56.5125Z"/><path class="cls-1" d="M56.05965,56.06686h-.25V32.41915c0-.34936-.57642-.80249-1.13208-1.09033-.55542.28711-1.13172.74-1.13172,1.09033V56.06686h-.25V32.41915c0-.64868,1.10462-1.23193,1.326-1.34228l.05579-.02783.05579.02783c.22143.11059,1.32617.69482,1.32617,1.34228Z"/><rect class="cls-1" x="54.55275" y="34.06344" width="0.25" height="22.00464"/><path d="M56.32422,58.488a.86292.86292,0,0,0,.63534-.85144.80291.80291,0,0,0-.11134-.37465c-.03612-.06058-.10653-.17443-.01782-.22669.08034-.04731.1553.03906.20481.09074a.85657.85657,0,0,0,.45981.2472.90111.90111,0,0,0,.91358-.40635.94534.94534,0,0,0,0-1.00626.90111.90111,0,0,0-.91358-.40635.85657.85657,0,0,0-.45981.2472c-.04951.05169-.12447.138-.20481.09074-.08871-.05226-.0183-.16612.01782-.22669a.80291.80291,0,0,0,.11134-.37465.86291.86291,0,0,0-.63534-.85144.93128.93128,0,0,0-1.04348.43789.94661.94661,0,0,0,.58285,1.38527v.077a1.03852,1.03852,0,0,1-.76927-.15411,1.02555,1.02555,0,0,1-.2782-.27817H54.677v1.11278h.13914a1.02555,1.02555,0,0,1,.2782-.27817,1.03857,1.03857,0,0,1,.76927-.15412v.07706a.94661.94661,0,0,0-.58285,1.38527A.93128.93128,0,0,0,56.32422,58.488Z"/><path d="M53.03132,58.488a.86292.86292,0,0,1-.63534-.85144.80291.80291,0,0,1,.11134-.37465c.03613-.06058.10653-.17443.01783-.22669-.08035-.04731-.15531.03906-.20482.09074a.85657.85657,0,0,1-.45981.2472.90109.90109,0,0,1-.91357-.40635.94534.94534,0,0,1,0-1.00626.90109.90109,0,0,1,.91357-.40635.85657.85657,0,0,1,.45981.2472c.04951.05169.12447.138.20482.09074.0887-.05226.0183-.16612-.01783-.22669a.80291.80291,0,0,1-.11134-.37465.86291.86291,0,0,1,.63534-.85144.93128.93128,0,0,1,1.04348.43789.94661.94661,0,0,1-.58285,1.38527v.077a1.03855,1.03855,0,0,0,.76928-.15411,1.02565,1.02565,0,0,0,.27819-.27817h.13914v1.11278h-.13914a1.02565,1.02565,0,0,0-.27819-.27817,1.0386,1.0386,0,0,0-.76928-.15412v.07706a.94661.94661,0,0,1,.58285,1.38527A.93128.93128,0,0,1,53.03132,58.488Z"/><rect x="37.55105" y="40.51125" width="0.50011" height="3.20313" transform="translate(-8.56747 74.55305) rotate(-83.06565)"/><circle cx="38.27013" cy="42.97922" r="0.89316"/><rect x="47.59126" y="41.86276" width="3.20313" height="0.50011" transform="translate(-4.72006 6.24049) rotate(-6.92722)"/><circle cx="48.7238" cy="42.97922" r="0.89316"/><path d="M46.98105,67.32a1.4826,1.4826,0,0,0-1.46288-1.09158,1.37943,1.37943,0,0,0-.64369.1913c-.10407.06206-.29969.183-.38947.03062-.08128-.138.0671-.26683.1559-.3519a1.47162,1.47162,0,0,0,.42472-.79,1.54822,1.54822,0,0,0-.69815-1.56963,1.62422,1.62422,0,0,0-1.72887,0,1.54819,1.54819,0,0,0-.69816,1.56963,1.47167,1.47167,0,0,0,.42471.79c.08881.08507.23718.21386.15591.3519-.08978.1524-.28541.03144-.38948-.03062a1.37939,1.37939,0,0,0-.64369-.1913A1.48259,1.48259,0,0,0,40.025,67.32a1.6,1.6,0,0,0,.75235,1.79281,1.62638,1.62638,0,0,0,2.38-1.00139h.13239a1.78435,1.78435,0,0,1-.26478,1.32169,1.76185,1.76185,0,0,1-.47794.478v.23906H44.459v-.23906a1.762,1.762,0,0,1-.47793-.478,1.7844,1.7844,0,0,1-.26479-1.32169h.1324a1.62638,1.62638,0,0,0,2.38,1.00139A1.60006,1.60006,0,0,0,46.98105,67.32Z"/><path class="cls-2" d="M43.5031,69.81766a5.32788,5.32788,0,0,1,2.7727.78028c2.78321,1.6936,6.10108,4.35522,6.10108,7.41723h-.5c0-2.97876-3.67212-5.6582-5.86109-6.99a4.81761,4.81761,0,0,0-5.02563,0c-2.18884,1.33179-5.861,4.01123-5.861,6.99h-.5c0-3.062,3.31787-5.72363,6.10107-7.41723A5.328,5.328,0,0,1,43.5031,69.81766Z"/><path d="M49.0753,90.8892a2.92833,2.92833,0,0,0,2.78614-2.04687v6.186a2.78593,2.78593,0,0,1-2.78565,2.78614H49.0753a2.78593,2.78593,0,0,1-2.78564-2.78614v-6.186A2.92861,2.92861,0,0,0,49.0753,90.8892Z"/><path d="M43.503,90.8892a2.92922,2.92922,0,0,0,2.78613-2.04687v6.186a2.78624,2.78624,0,0,1-2.78564,2.78614H43.503a2.78593,2.78593,0,0,1-2.78565-2.78614v-6.186A2.92818,2.92818,0,0,0,43.503,90.8892Z"/><path d="M37.93028,90.8892a2.92879,2.92879,0,0,0,2.78614-2.04687v6.186a2.78593,2.78593,0,0,1-2.78565,2.78614h-.00049a2.78593,2.78593,0,0,1-2.78564-2.78614v-6.186A2.92861,2.92861,0,0,0,37.93028,90.8892Z"/><rect x="51.85795" y="72.22717" width="5.57585" height="19.04163" rx="2.78792" transform="translate(109.29174 163.49597) rotate(180)"/><rect x="29.57228" y="72.22717" width="5.57585" height="19.04163" rx="2.78792" transform="translate(64.7204 163.49597) rotate(180)"/><path class="cls-2" d="M49.0753,98.76762a2.92834,2.92834,0,0,1,2.78614,2.04688v-6.186a2.78593,2.78593,0,0,0-2.78565-2.78613H49.0753a2.78593,2.78593,0,0,0-2.78564,2.78613v6.186A2.92862,2.92862,0,0,1,49.0753,98.76762Z"/><path class="cls-2" d="M43.503,98.76762a2.92923,2.92923,0,0,1,2.78613,2.04688v-6.186a2.78624,2.78624,0,0,0-2.78564-2.78613H43.503a2.78593,2.78593,0,0,0-2.78565,2.78613v6.186A2.92819,2.92819,0,0,1,43.503,98.76762Z"/><path class="cls-2" d="M37.93028,98.76762a2.9288,2.9288,0,0,1,2.78614,2.04688v-6.186a2.78593,2.78593,0,0,0-2.78565-2.78613h-.00049a2.78593,2.78593,0,0,0-2.78564,2.78613v6.186A2.92862,2.92862,0,0,1,37.93028,98.76762Z"/><path d="M36.3,94.6143a.67787.67787,0,0,0,.66885.49908.63073.63073,0,0,0,.2943-.08746c.04758-.02838.137-.08368.17807-.014.03717.06311-.03068.122-.07128.16089a.67286.67286,0,0,0-.19419.3612.70789.70789,0,0,0,.31921.71766.74263.74263,0,0,0,.79047,0,.70788.70788,0,0,0,.3192-.71766.67278.67278,0,0,0-.19418-.3612c-.04061-.0389-.10844-.09778-.07128-.16089.041-.06968.13049-.01438.17807.014a.63073.63073,0,0,0,.2943.08746.67787.67787,0,0,0,.66885-.49908.73158.73158,0,0,0-.344-.81971.74362.74362,0,0,0-1.0882.45786h-.06053a.81584.81584,0,0,1,.12107-.6043.8055.8055,0,0,1,.21852-.21854v-.1093h-.87415v.1093a.8055.8055,0,0,1,.21852.21854.81584.81584,0,0,1,.12107.6043h-.06054a.7436.7436,0,0,0-1.08819-.45786A.73157.73157,0,0,0,36.3,94.6143Z"/><path d="M47.52573,94.6143a.67787.67787,0,0,0,.66885.49908.6308.6308,0,0,0,.29431-.08746c.04758-.02838.137-.08368.17806-.014.03717.06311-.03067.122-.07127.16089a.6728.6728,0,0,0-.19419.3612.70788.70788,0,0,0,.3192.71766.74263.74263,0,0,0,.79047,0,.70787.70787,0,0,0,.31921-.71766.67286.67286,0,0,0-.19419-.3612c-.0406-.0389-.10844-.09778-.07128-.16089.041-.06968.13049-.01438.17807.014a.63076.63076,0,0,0,.29431.08746.67787.67787,0,0,0,.66885-.49908.73159.73159,0,0,0-.344-.81971.74361.74361,0,0,0-1.08819.45786h-.06053a.81579.81579,0,0,1,.12106-.6043.8055.8055,0,0,1,.21852-.21854v-.1093h-.87414v.1093a.80578.80578,0,0,1,.21852.21854.81588.81588,0,0,1,.12106.6043h-.06053a.74361.74361,0,0,0-1.08819-.45786A.73159.73159,0,0,0,47.52573,94.6143Z"/><path d="M41.91284,94.6143a.67787.67787,0,0,0,.66885.49908.63073.63073,0,0,0,.2943-.08746c.04759-.02838.137-.08368.17807-.014.03717.06311-.03068.122-.07128.16089a.67278.67278,0,0,0-.19418.3612.70786.70786,0,0,0,.3192.71766.74263.74263,0,0,0,.79047,0,.70785.70785,0,0,0,.3192-.71766.67278.67278,0,0,0-.19418-.3612c-.04061-.0389-.10844-.09778-.07128-.16089.041-.06968.13049-.01438.17807.014a.63073.63073,0,0,0,.29431.08746.67785.67785,0,0,0,.66884-.49908.73157.73157,0,0,0-.344-.81971.7436.7436,0,0,0-1.08819.45786h-.06053a.81579.81579,0,0,1,.12106-.6043.8055.8055,0,0,1,.21852-.21854v-.1093H43.066v.1093a.8056.8056,0,0,1,.21851.21854.81584.81584,0,0,1,.12107.6043H43.345a.7436.7436,0,0,0-1.08819-.45786A.7316.7316,0,0,0,41.91284,94.6143Z"/><rect x="43.2531" y="79.10355" width="0.5" height="2.74585"/><path class="cls-2" d="M43.5031,74.27079a3.00984,3.00984,0,0,1,2.59875,1.48486l-.429.25684a2.51665,2.51665,0,0,0-4.3396,0l-.429-.25684A3.00987,3.00987,0,0,1,43.5031,74.27079Z"/><path class="cls-2" d="M32.32223,67.41178h0a.71131.71131,0,0,1,.71131.71131v3.76258a.71131.71131,0,0,1-.71131.71131h0a.7113.7113,0,0,1-.7113-.7113V68.12309A.71131.71131,0,0,1,32.32223,67.41178Z" transform="translate(64.64446 140.00875) rotate(-180)"/><path class="cls-2" d="M32.32223,70.4875h0a1.50329,1.50329,0,0,0-1.50329,1.50328V94.58091c0,.83024,1.50329,1.50328,1.50329,1.50328h0s1.50328-.673,1.50328-1.50328V71.99078A1.50328,1.50328,0,0,0,32.32223,70.4875Z"/><path class="cls-1" d="M30.94035,70.93314h.25V94.58085c0,.34936.57642.80249,1.13208,1.09033.55542-.28711,1.13172-.74,1.13172-1.09033V70.93314h.25V94.58085c0,.64868-1.10462,1.23193-1.326,1.34228l-.05579.02783-.05579-.02783c-.22143-.11059-1.32617-.69482-1.32617-1.34228Z"/><rect class="cls-1" x="32.19725" y="70.93192" width="0.25" height="22.00464"/><path d="M30.67578,68.512a.86292.86292,0,0,0-.63534.85144.80291.80291,0,0,0,.11134.37465c.03612.06058.10653.17443.01782.22669-.08034.04731-.1553-.03906-.20481-.09074a.85657.85657,0,0,0-.45981-.2472.90111.90111,0,0,0-.91358.40635.94534.94534,0,0,0,0,1.00626.90111.90111,0,0,0,.91358.40635.85657.85657,0,0,0,.45981-.2472c.04951-.05169.12447-.138.20481-.09074.08871.05226.0183.16612-.01782.22669a.80291.80291,0,0,0-.11134.37465.86291.86291,0,0,0,.63534.85144.93128.93128,0,0,0,1.04348-.43789.94661.94661,0,0,0-.58285-1.38527v-.077a1.03852,1.03852,0,0,1,.76927.15411,1.02555,1.02555,0,0,1,.2782.27817H32.323V69.97993h-.13914a1.02555,1.02555,0,0,1-.2782.27817,1.03857,1.03857,0,0,1-.76927.15412v-.07706a.94661.94661,0,0,0,.58285-1.38527A.93128.93128,0,0,0,30.67578,68.512Z"/><path d="M33.96868,68.512a.86292.86292,0,0,1,.63534.85144.80291.80291,0,0,1-.11134.37465c-.03613.06058-.10653.17443-.01783.22669.08035.04731.15531-.03906.20482-.09074a.85657.85657,0,0,1,.45981-.2472.90109.90109,0,0,1,.91357.40635.94534.94534,0,0,1,0,1.00626.90109.90109,0,0,1-.91357.40635.85657.85657,0,0,1-.45981-.2472c-.04951-.05169-.12447-.138-.20482-.09074-.0887.05226-.0183.16612.01783.22669a.80291.80291,0,0,1,.11134.37465.86291.86291,0,0,1-.63534.85144.93128.93128,0,0,1-1.04348-.43789.94661.94661,0,0,1,.58285-1.38527v-.077a1.03855,1.03855,0,0,0-.76928.15411,1.02565,1.02565,0,0,0-.27819.27817h-.13914V69.97993h.13914a1.02565,1.02565,0,0,0,.27819.27817,1.0386,1.0386,0,0,0,.76928.15412v-.07706a.94661.94661,0,0,1-.58285-1.38527A.93128.93128,0,0,1,33.96868,68.512Z"/><rect x="48.94884" y="83.28561" width="0.50011" height="3.20313" transform="translate(-41.00723 123.4776) rotate(-83.06565)"/><circle cx="48.72987" cy="84.02078" r="0.89316"/><rect x="36.20561" y="84.63713" width="3.20313" height="0.50011" transform="translate(-9.96212 5.17953) rotate(-6.92722)"/><circle cx="38.2762" cy="84.02078" r="0.89316"/></g></svg>