<svg xmlns="http://www.w3.org/2000/svg" viewBox="0 0 87 127"><defs><style>.cls-1{fill:#fff;}</style></defs><title>card-spades-6</title><g id="artwork"><rect class="cls-1" width="87" height="127" rx="6"/><path d="M15.25884,29.67243c-.41271-1.29958-1.61361-2.02692-2.55447-2.91268a8.29056,8.29056,0,0,1-1.70579-2.279,8.29032,8.29032,0,0,1-1.70578,2.279c-.94087.88576-2.14174,1.6131-2.55445,2.91268a2.73472,2.73472,0,0,0,1.4184,3.38817,1.97636,1.97636,0,0,0,2.29773-.48933,1.58035,1.58035,0,0,0,.28944-.568,2.48379,2.48379,0,0,1-.40856,1.50152,2.44748,2.44748,0,0,1-.66316.66456v.33238H12.325v-.33238a2.44776,2.44776,0,0,1-.6632-.66456,2.48371,2.48371,0,0,1-.40854-1.50159,1.58052,1.58052,0,0,0,.28945.56807,1.97635,1.97635,0,0,0,2.29773.48933A2.73476,2.73476,0,0,0,15.25884,29.67243Z"/><path d="M7.31824,13.5412A6.468,6.468,0,0,1,8.38178,9.477a3.68344,3.68344,0,0,1,3.06461-1.33874,15.16557,15.16557,0,0,1,2.464.19181l.43167.08024-.11231,1.01042a21.04607,21.04607,0,0,0-2.799-.1923,2.49965,2.49965,0,0,0-2.09679.94583,4.33039,4.33039,0,0,0-.73539,2.70978l.39943-.16049a8.06061,8.06061,0,0,1,1.12018-.3205,5.33469,5.33469,0,0,1,1.12017-.14434q3.55245,0,3.552,3.28667a3.37236,3.37236,0,0,1-.96782,2.5894,3.84191,3.84191,0,0,1-2.72866.9062Q7.31873,19.041,7.31824,13.5412Zm5.55987,3.79212A2.34025,2.34025,0,0,0,13.51,15.57769a2.13279,2.13279,0,0,0-.60745-1.65973,2.50394,2.50394,0,0,0-1.74424-.55291,5.23941,5.23941,0,0,0-1.1358.14385,8.55221,8.55221,0,0,0-1.07232.30533l-.36819.16a5.91712,5.91712,0,0,0,.63187,2.926,1.98112,1.98112,0,0,0,1.81651,1.05055A2.541,2.541,0,0,0,12.87811,17.33332Z"/><path d="M71.742,97.328c.41271,1.29958,1.61361,2.02692,2.55447,2.91268a8.29016,8.29016,0,0,1,1.70579,2.279,8.29036,8.29036,0,0,1,1.70579-2.279c.94086-.88576,2.14173-1.6131,2.55444-2.91268a2.73471,2.73471,0,0,0-1.4184-3.38817,1.97636,1.97636,0,0,0-2.29773.48933,1.58017,1.58017,0,0,0-.28943.568,2.48371,2.48371,0,0,1,.40855-1.50152,2.44762,2.44762,0,0,1,.66316-.66456v-.33238H74.67585V92.831a2.44759,2.44759,0,0,1,.66319.66456,2.48378,2.48378,0,0,1,.40855,1.50159,1.58055,1.58055,0,0,0-.28946-.56807,1.97635,1.97635,0,0,0-2.29773-.48933A2.73477,2.73477,0,0,0,71.742,97.328Z"/><path d="M79.68245,113.45947a6.468,6.468,0,0,1-1.06353,4.06418,3.68471,3.68471,0,0,1-3.06462,1.33874,15.16544,15.16544,0,0,1-2.464-.19181l-.43167-.08024.11134-1.00993a21.16611,21.16611,0,0,0,2.80093.19181,2.5,2.5,0,0,0,2.09581-.94534,4.33966,4.33966,0,0,0,.73637-2.71076l-.40041.16049a8.05473,8.05473,0,0,1-1.12018.321,5.37211,5.37211,0,0,1-1.12018.14483q-3.551,0-3.55194-3.28716a3.37592,3.37592,0,0,1,.96782-2.5894,3.84189,3.84189,0,0,1,2.72866-.9062Q79.68343,107.95967,79.68245,113.45947Zm-5.55986-3.79212a2.34255,2.34255,0,0,0-.63187,1.75563,2.13279,2.13279,0,0,0,.60745,1.65973,2.50559,2.50559,0,0,0,1.74424.55291,5.25479,5.25479,0,0,0,1.13677-.14385,8.54551,8.54551,0,0,0,1.07135-.30533l.36818-.16049a5.9076,5.9076,0,0,0-.63187-2.926,1.98359,1.98359,0,0,0-1.8165-1.05A2.5415,2.5415,0,0,0,74.12259,109.66735Z"/><path d="M33.88951,21.68361c-.61906-1.94938-2.42041-3.04039-3.8317-4.369a12.43542,12.43542,0,0,1-2.55868-3.41851,12.43542,12.43542,0,0,1-2.55868,3.41851c-1.4113,1.32864-3.2126,2.41965-3.83167,4.369a4.10208,4.10208,0,0,0,2.1276,5.08225,2.96456,2.96456,0,0,0,3.4466-.734,2.37051,2.37051,0,0,0,.43415-.852,3.72562,3.72562,0,0,1-.61283,2.25228,3.67139,3.67139,0,0,1-.99475.99684v.49858H29.4887V28.429a3.6715,3.6715,0,0,1-.99478-.99684,3.72554,3.72554,0,0,1-.61283-2.25239,2.37084,2.37084,0,0,0,.43419.85211,2.96454,2.96454,0,0,0,3.4466.734A4.10213,4.10213,0,0,0,33.88951,21.68361Z"/><path d="M21.10876,105.31639c.61906,1.94938,2.42041,3.04039,3.8317,4.369a12.43546,12.43546,0,0,1,2.55869,3.41851,12.43523,12.43523,0,0,1,2.55868-3.41851c1.41129-1.32864,3.2126-2.41965,3.83166-4.369a4.10207,4.10207,0,0,0-2.1276-5.08225,2.96455,2.96455,0,0,0-3.44659.734,2.37053,2.37053,0,0,0-.43416.852,3.72556,3.72556,0,0,1,.61284-2.25228,3.6715,3.6715,0,0,1,.99474-.99684v-.49858H25.50957V98.571a3.67168,3.67168,0,0,1,.99479.99684,3.7256,3.7256,0,0,1,.61282,2.25239,2.37066,2.37066,0,0,0-.43418-.85211,2.96454,2.96454,0,0,0-3.4466-.734A4.10214,4.10214,0,0,0,21.10876,105.31639Z"/><path d="M65.89124,21.68361c-.61906-1.94938-2.42041-3.04039-3.8317-4.369a12.43546,12.43546,0,0,1-2.55869-3.41851,12.43523,12.43523,0,0,1-2.55868,3.41851c-1.41129,1.32864-3.2126,2.41965-3.83166,4.369a4.10207,4.10207,0,0,0,2.1276,5.08225,2.96455,2.96455,0,0,0,3.44659-.734,2.37053,2.37053,0,0,0,.43416-.852,3.72556,3.72556,0,0,1-.61284,2.25228,3.6715,3.6715,0,0,1-.99474.99684v.49858h3.97915V28.429a3.67168,3.67168,0,0,1-.99479-.99684,3.7256,3.7256,0,0,1-.61282-2.25239,2.37066,2.37066,0,0,0,.43418.85211,2.96454,2.96454,0,0,0,3.4466.734A4.10214,4.10214,0,0,0,65.89124,21.68361Z"/><path d="M53.11049,105.31639c.61906,1.94938,2.42041,3.04039,3.8317,4.369a12.43542,12.43542,0,0,1,2.55868,3.41851,12.43542,12.43542,0,0,1,2.55868-3.41851c1.4113-1.32864,3.2126-2.41965,3.83167-4.369a4.10208,4.10208,0,0,0-2.1276-5.08225,2.96456,2.96456,0,0,0-3.4466.734,2.37051,2.37051,0,0,0-.43415.852,3.72562,3.72562,0,0,1,.61283-2.25228,3.67139,3.67139,0,0,1,.99475-.99684v-.49858H57.5113V98.571a3.6715,3.6715,0,0,1,.99478.99684,3.72554,3.72554,0,0,1,.61283,2.25239,2.37084,2.37084,0,0,0-.43419-.85211,2.96454,2.96454,0,0,0-3.4466-.734A4.10213,4.10213,0,0,0,53.11049,105.31639Z"/><path d="M33.88951,63.77179c-.61906-1.94938-2.42041-3.04039-3.8317-4.369a12.43538,12.43538,0,0,1-2.55868-3.4185,12.43538,12.43538,0,0,1-2.55868,3.4185c-1.4113,1.32864-3.2126,2.41965-3.83167,4.369a4.10208,4.10208,0,0,0,2.1276,5.08225,2.96456,2.96456,0,0,0,3.4466-.734,2.37051,2.37051,0,0,0,.43415-.852,3.72561,3.72561,0,0,1-.61283,2.25227,3.67129,3.67129,0,0,1-.99475.99685v.49857H29.4887v-.49857a3.6714,3.6714,0,0,1-.99478-.99685,3.72552,3.72552,0,0,1-.61283-2.25239,2.3708,2.3708,0,0,0,.43419.85212,2.96453,2.96453,0,0,0,3.4466.734A4.10212,4.10212,0,0,0,33.88951,63.77179Z"/><path d="M65.89124,63.77179c-.61906-1.94938-2.42041-3.04039-3.8317-4.369a12.43541,12.43541,0,0,1-2.55869-3.4185,12.43518,12.43518,0,0,1-2.55868,3.4185c-1.41129,1.32864-3.2126,2.41965-3.83166,4.369a4.10207,4.10207,0,0,0,2.1276,5.08225,2.96455,2.96455,0,0,0,3.44659-.734,2.37053,2.37053,0,0,0,.43416-.852,3.72555,3.72555,0,0,1-.61284,2.25227,3.67139,3.67139,0,0,1-.99474.99685v.49857h3.97915v-.49857a3.67158,3.67158,0,0,1-.99479-.99685,3.72558,3.72558,0,0,1-.61282-2.25239,2.37062,2.37062,0,0,0,.43418.85212,2.96454,2.96454,0,0,0,3.4466.734A4.10214,4.10214,0,0,0,65.89124,63.77179Z"/></g></svg>