<svg xmlns="http://www.w3.org/2000/svg" viewBox="0 0 115 167"><defs><style>.cls-1{fill:#fff;}.cls-2{fill:#ff3b5c;}</style></defs><title>card-spades-k</title><g id="artwork"><rect class="cls-1" width="115" height="167" rx="8"/><path d="M20.16919,38.78226c-.54553-1.71793-2.13293-2.67941-3.37659-3.8503a10.95918,10.95918,0,0,1-2.25478-3.01264A10.95918,10.95918,0,0,1,12.283,34.932c-1.24367,1.17089-2.831,2.13237-3.37656,3.8503a3.61511,3.61511,0,0,0,1.87489,4.47885,2.61237,2.61237,0,0,0,3.03724-.64685,2.08908,2.08908,0,0,0,.38258-.75084,3.28341,3.28341,0,0,1-.54,1.98487,3.23539,3.23539,0,0,1-.8766.87849v.43938h3.50653v-.43938a3.23564,3.23564,0,0,1-.87663-.87849,3.28336,3.28336,0,0,1-.54-1.985,2.08918,2.08918,0,0,0,.38261.75094,2.61233,2.61233,0,0,0,3.03723.64685A3.61516,3.61516,0,0,0,20.16919,38.78226Z"/><path d="M14.3776,18.03033l-2.43211.08473V24.516H10.31763V9.84937h1.62786V16.674l2.41146-.08474,3.74368-6.73984h1.86152L15.77438,17.225,20.19452,24.516H18.26975Z"/><path d="M94.83081,128.21673c.54553,1.71794,2.13293,2.67941,3.37659,3.85031a10.959,10.959,0,0,1,2.25478,3.01263A10.959,10.959,0,0,1,102.717,132.067c1.24367-1.1709,2.831-2.13237,3.37656-3.85031a3.61511,3.61511,0,0,0-1.87489-4.47885,2.61237,2.61237,0,0,0-3.03724.64685,2.08916,2.08916,0,0,0-.38258.75084,3.28341,3.28341,0,0,1,.54-1.98487,3.23539,3.23539,0,0,1,.8766-.87849v-.43938H98.70892v.43938a3.23564,3.23564,0,0,1,.87663.87849,3.28336,3.28336,0,0,1,.54,1.985,2.08918,2.08918,0,0,0-.38261-.75094,2.61233,2.61233,0,0,0-3.03723-.64685A3.61516,3.61516,0,0,0,94.83081,128.21673Z"/><path d="M100.62187,148.96838l2.43211-.08409v-6.40091h1.62786v14.66725H103.054v-6.82522l-2.41145.08408-3.74369,6.74114H95.03732l4.18777-7.37631L94.805,142.48338h1.92478Z"/><rect x="39.08603" y="49.35174" width="7.37076" height="25.17131" rx="3.68538"/><rect x="68.54567" y="49.35174" width="7.37076" height="25.17131" rx="3.68538"/><rect class="cls-2" x="54.40505" y="72.19568" width="6.19242" height="0.66095"/><rect x="49.81487" y="56.27606" width="0.6612" height="5.75411" transform="translate(-18.94559 94.36794) rotate(-76.71863)"/><path d="M51.96161,59.89a1.48006,1.48006,0,0,1-2.87718-.69582S50.89611,59.63311,51.96161,59.89Z"/><rect x="61.98015" y="58.82251" width="5.75411" height="0.6612" transform="translate(-11.85115 16.47554) rotate(-13.27655)"/><path d="M63.04086,59.89a1.48006,1.48006,0,0,0,2.87718-.69582S64.10636,59.63311,63.04086,59.89Z"/><path d="M57.50118,68.75535a2.21807,2.21807,0,0,1-2.21539-2.21555h.66095a1.55452,1.55452,0,1,0,3.109,0h.66095A2.21811,2.21811,0,0,1,57.50118,68.75535Z"/><path d="M57.50118,78.43408a7.04513,7.04513,0,0,1-3.66511-1.03145c-3.6793-2.23879-8.06523-5.75721-8.06523-9.80492h.661c0,3.93766,4.85421,7.47964,7.74782,9.24014a6.36915,6.36915,0,0,0,6.64344,0c2.89345-1.7605,7.74766-5.30248,7.74766-9.24014h.66095c0,4.04771-4.38592,7.56613-8.06506,9.80492A7.04624,7.04624,0,0,1,57.50118,78.43408Z"/><path d="M59.76172,80.75446c-.219.68815-.85618,1.07329-1.3554,1.54231a4.39054,4.39054,0,0,0-.90509,1.20677,4.39054,4.39054,0,0,0-.90509-1.20677c-.49922-.469-1.1364-.85416-1.35539-1.54231a1.447,1.447,0,0,1,.75261-1.79409,1.05013,1.05013,0,0,1,1.21917.25911.8362.8362,0,0,1,.15358.30076,1.31326,1.31326,0,0,0-.21678-.79508,1.29746,1.29746,0,0,0-.35188-.35189v-.176H58.205v.176a1.29735,1.29735,0,0,0-.35189.35189,1.31315,1.31315,0,0,0-.21677.79512.836.836,0,0,1,.15358-.3008,1.05012,1.05012,0,0,1,1.21917-.25911A1.447,1.447,0,0,1,59.76172,80.75446Z"/><path class="cls-2" d="M50.1352,41.93533a3.871,3.871,0,0,1-3.683-2.70579v13.465a3.68274,3.68274,0,0,0,3.68237,3.683h.00064a3.68274,3.68274,0,0,0,3.68237-3.683v-13.465A3.87137,3.87137,0,0,1,50.1352,41.93533Z"/><path class="cls-2" d="M57.50123,41.93533a3.87219,3.87219,0,0,1-3.683-2.70579v13.465a3.68316,3.68316,0,0,0,3.68237,3.683h.00064a3.68274,3.68274,0,0,0,3.68237-3.683v-13.465A3.87077,3.87077,0,0,1,57.50123,41.93533Z"/><path class="cls-2" d="M64.86791,41.93533a3.87157,3.87157,0,0,1-3.683-2.70579v13.465a3.68274,3.68274,0,0,0,3.68237,3.683h.00064a3.68274,3.68274,0,0,0,3.68237-3.683v-13.465A3.87138,3.87138,0,0,1,64.86791,41.93533Z"/><path d="M61.12411,53.95891c-.351,1.1029-1.3722,1.72016-2.1723,2.47186a7.037,7.037,0,0,0-1.45058,1.93409,7.03688,7.03688,0,0,0-1.45059-1.93409c-.80009-.7517-1.8213-1.369-2.17227-2.47186a2.31909,2.31909,0,0,1,1.20619-2.87538,1.68305,1.68305,0,0,1,1.954.41527,1.34,1.34,0,0,1,.24613.482,2.10455,2.10455,0,0,0-.34743-1.27427,2.07935,2.07935,0,0,0-.56394-.564V49.8605h2.25588v.28208a2.07946,2.07946,0,0,0-.564.564,2.1046,2.1046,0,0,0-.34742,1.27434,1.34014,1.34014,0,0,1,.24615-.4821,1.683,1.683,0,0,1,1.954-.41527A2.31911,2.31911,0,0,1,61.12411,53.95891Z"/><path d="M63.35368,40.37445c-.567-1.78164-2.21667-2.77877-3.50916-3.99308A11.3671,11.3671,0,0,1,57.50123,33.257a11.36733,11.36733,0,0,1-2.3433,3.12435c-1.29249,1.21431-2.94216,2.21144-3.50912,3.99308a3.74628,3.74628,0,0,0,1.9485,4.64493,2.71884,2.71884,0,0,0,3.15647-.67083,2.16488,2.16488,0,0,0,.3976-.77869,3.39971,3.39971,0,0,1-.56124,2.05847,3.359,3.359,0,0,1-.911.91107v.45567h3.64419V46.5394a3.359,3.359,0,0,1-.91105-.91107,3.39982,3.39982,0,0,1-.56123-2.05857,2.16514,2.16514,0,0,0,.39763.77879,2.71882,2.71882,0,0,0,3.15647.67083A3.74634,3.74634,0,0,0,63.35368,40.37445Z"/><path class="cls-2" d="M72.28032,76.64918h0a.94028.94028,0,0,1,.94028.94028v4.97379a.94029.94029,0,0,1-.94029.94029h0a.94028.94028,0,0,1-.94028-.94028V77.58947a.94028.94028,0,0,1,.94028-.94028Z"/><path class="cls-2" d="M72.28032,79.43771h0a1.98721,1.98721,0,0,0,1.98721-1.9872V47.58841c0-1.0975-1.98721-1.9872-1.98721-1.9872h0s-1.9872.8897-1.9872,1.9872v29.8621A1.9872,1.9872,0,0,0,72.28032,79.43771Z"/><path class="cls-1" d="M74.107,78.84847h-.33048V47.58834c0-.46118-.762-1.0605-1.4965-1.44132-.73422.37986-1.496.97852-1.496,1.44132V78.84847h-.33047V47.58834c0-.8575,1.4602-1.6285,1.75291-1.77438l.07391-.03679.07374.03679c.29272.1462,1.75292.91947,1.75292,1.77438Z"/><rect class="cls-1" x="72.11512" y="49.76226" width="0.33048" height="29.08782"/><path d="M74.34428,77.10692c.57505.183.89689.71547,1.28883,1.13264a3.66911,3.66911,0,0,0,1.00843.75633,3.66915,3.66915,0,0,0-1.00843.75634c-.39194.41717-.71378.94963-1.28883,1.13263a1.20918,1.20918,0,0,1-1.49922-.62891.87755.87755,0,0,1,.21652-1.01881.69883.69883,0,0,1,.25133-.12833,1.09736,1.09736,0,0,0-.6644.18115,1.08411,1.08411,0,0,0-.29406.294h-.14708V78.40778h.14708a1.084,1.084,0,0,0,.29406.29406,1.09731,1.09731,0,0,0,.66443.18115.69869.69869,0,0,1-.25136-.12835.87752.87752,0,0,1-.21652-1.0188A1.20919,1.20919,0,0,1,74.34428,77.10692Z"/><path d="M70.21636,80.88486c-.575-.183-.89689-.71546-1.28883-1.13263a3.669,3.669,0,0,0-1.00843-.75634,3.669,3.669,0,0,0,1.00843-.75634c.39194-.41717.71378-.94963,1.28883-1.13262a1.20917,1.20917,0,0,1,1.49922.62891.87753.87753,0,0,1-.21652,1.0188.69867.69867,0,0,1-.25133.12833,1.09729,1.09729,0,0,0,.6644-.18115,1.08411,1.08411,0,0,0,.29406-.294h.14708V79.584h-.14708a1.08419,1.08419,0,0,0-.29406-.29406,1.09737,1.09737,0,0,0-.66443-.18114.69882.69882,0,0,1,.25136.12834.87753.87753,0,0,1,.21652,1.0188A1.20918,1.20918,0,0,1,70.21636,80.88486Z"/><rect x="68.5432" y="92.47695" width="7.37076" height="25.17131" rx="3.68538"/><rect x="39.08356" y="92.47695" width="7.37076" height="25.17131" rx="3.68538"/><rect class="cls-2" x="54.40253" y="94.14337" width="6.19242" height="0.66095"/><rect x="64.52393" y="104.96983" width="0.6612" height="5.75411" transform="translate(-55.00709 146.19077) rotate(-76.71863)"/><path d="M63.03839,107.11a1.48006,1.48006,0,0,1,2.87718.69582S64.10389,107.36689,63.03839,107.11Z"/><rect x="47.26574" y="107.51629" width="5.75411" height="0.6612" transform="translate(-23.42702 14.39779) rotate(-13.27655)"/><path d="M51.95914,107.11a1.48006,1.48006,0,1,0-2.87718.69582S50.89364,107.36689,51.95914,107.11Z"/><path d="M57.49882,98.24465a2.21807,2.21807,0,0,1,2.21539,2.21555h-.66095a1.55452,1.55452,0,1,0-3.109,0h-.66095A2.21811,2.21811,0,0,1,57.49882,98.24465Z"/><path d="M57.49882,88.56592a7.04513,7.04513,0,0,1,3.66511,1.03145c3.6793,2.23879,8.06523,5.75721,8.06523,9.80492h-.661c0-3.93766-4.85421-7.47964-7.74782-9.24014a6.36915,6.36915,0,0,0-6.64344,0c-2.89345,1.7605-7.74766,5.30248-7.74766,9.24014h-.66095c0-4.04771,4.38592-7.56613,8.06506-9.80492A7.04624,7.04624,0,0,1,57.49882,88.56592Z"/><path d="M55.23828,86.24554c.219-.68815.85618-1.07329,1.3554-1.54231a4.39054,4.39054,0,0,0,.90509-1.20677,4.39054,4.39054,0,0,0,.90509,1.20677c.49922.469,1.1364.85416,1.35539,1.54231a1.447,1.447,0,0,1-.75261,1.79409,1.05013,1.05013,0,0,1-1.21917-.25911.8362.8362,0,0,1-.15358-.30076,1.31326,1.31326,0,0,0,.21678.79508,1.29746,1.29746,0,0,0,.35188.35189v.176H56.795v-.176a1.29735,1.29735,0,0,0,.35189-.35189,1.31315,1.31315,0,0,0,.21677-.79512.836.836,0,0,1-.15358.3008,1.05012,1.05012,0,0,1-1.21917.25911A1.447,1.447,0,0,1,55.23828,86.24554Z"/><path class="cls-2" d="M64.8648,125.06467a3.871,3.871,0,0,1,3.683,2.70579v-13.465a3.68274,3.68274,0,0,0-3.68237-3.683H64.8648a3.68274,3.68274,0,0,0-3.68237,3.683v13.465A3.87137,3.87137,0,0,1,64.8648,125.06467Z"/><path class="cls-2" d="M57.49877,125.06467a3.87219,3.87219,0,0,1,3.683,2.70579v-13.465a3.68316,3.68316,0,0,0-3.68237-3.683h-.00064a3.68274,3.68274,0,0,0-3.68237,3.683v13.465A3.87077,3.87077,0,0,1,57.49877,125.06467Z"/><path class="cls-2" d="M50.13209,125.06467a3.87157,3.87157,0,0,1,3.683,2.70579v-13.465a3.68274,3.68274,0,0,0-3.68237-3.683h-.00064a3.68274,3.68274,0,0,0-3.68237,3.683v13.465A3.87138,3.87138,0,0,1,50.13209,125.06467Z"/><path d="M53.87589,113.04109c.351-1.1029,1.3722-1.72016,2.1723-2.47186a7.037,7.037,0,0,0,1.45058-1.93409,7.03688,7.03688,0,0,0,1.45059,1.93409c.80009.7517,1.8213,1.369,2.17227,2.47186a2.31909,2.31909,0,0,1-1.20619,2.87538,1.68305,1.68305,0,0,1-1.954-.41527,1.34,1.34,0,0,1-.24613-.482,2.10455,2.10455,0,0,0,.34743,1.27427,2.07935,2.07935,0,0,0,.56394.564v.28208H56.37083v-.28208a2.07946,2.07946,0,0,0,.564-.564,2.1046,2.1046,0,0,0,.34742-1.27434,1.34014,1.34014,0,0,1-.24615.4821,1.683,1.683,0,0,1-1.954.41527A2.31911,2.31911,0,0,1,53.87589,113.04109Z"/><path d="M51.64632,126.62555c.567,1.78164,2.21667,2.77877,3.50916,3.99308a11.3671,11.3671,0,0,1,2.34329,3.12435,11.36733,11.36733,0,0,1,2.3433-3.12435c1.29249-1.21431,2.94216-2.21144,3.50912-3.99308a3.74628,3.74628,0,0,0-1.9485-4.64493,2.71884,2.71884,0,0,0-3.15647.67083,2.16488,2.16488,0,0,0-.3976.77869,3.39971,3.39971,0,0,1,.56124-2.05847,3.359,3.359,0,0,1,.911-.91107v-.45567H55.67668v.45567a3.359,3.359,0,0,1,.91105.91107,3.39982,3.39982,0,0,1,.56123,2.05857,2.16514,2.16514,0,0,0-.39763-.77879,2.71882,2.71882,0,0,0-3.15647-.67083A3.74634,3.74634,0,0,0,51.64632,126.62555Z"/><path class="cls-2" d="M42.71968,83.49646h0a.94028.94028,0,0,1,.94028.94028v4.97379a.94029.94029,0,0,1-.94029.94029h0a.94028.94028,0,0,1-.94028-.94028V84.43674a.94028.94028,0,0,1,.94028-.94028Z"/><path class="cls-2" d="M42.71968,87.56229h0a1.98721,1.98721,0,0,0-1.98721,1.9872v29.8621c0,1.0975,1.98721,1.9872,1.98721,1.9872h0s1.9872-.8897,1.9872-1.9872V89.54949A1.9872,1.9872,0,0,0,42.71968,87.56229Z"/><path class="cls-1" d="M40.893,88.15153h.33048v31.26013c0,.46118.762,1.0605,1.4965,1.44132.73422-.37986,1.496-.97852,1.496-1.44132V88.15153h.33047v31.26013c0,.8575-1.4602,1.6285-1.75291,1.77438l-.07391.03679-.07374-.03679c-.29272-.1462-1.75292-.91947-1.75292-1.77438Z"/><rect class="cls-1" x="42.5544" y="88.14992" width="0.33048" height="29.08782"/><path d="M40.65572,89.89308c-.57505-.183-.89689-.71547-1.28883-1.13264a3.66911,3.66911,0,0,0-1.00843-.75633,3.66915,3.66915,0,0,0,1.00843-.75634c.39194-.41717.71378-.94963,1.28883-1.13263a1.20918,1.20918,0,0,1,1.49922.62891.87755.87755,0,0,1-.21652,1.01881.69883.69883,0,0,1-.25133.12833,1.09736,1.09736,0,0,0,.6644-.18115,1.08411,1.08411,0,0,0,.29406-.294h.14708v1.17622h-.14708a1.084,1.084,0,0,0-.29406-.29406,1.09731,1.09731,0,0,0-.66443-.18115.69869.69869,0,0,1,.25136.12835.87752.87752,0,0,1,.21652,1.0188A1.20919,1.20919,0,0,1,40.65572,89.89308Z"/><path d="M44.78364,86.11514c.57505.183.89689.71546,1.28883,1.13263a3.669,3.669,0,0,0,1.00843.75634,3.669,3.669,0,0,0-1.00843.75634c-.39194.41717-.71378.94963-1.28883,1.13262a1.20917,1.20917,0,0,1-1.49922-.62891.87753.87753,0,0,1,.21652-1.0188.69867.69867,0,0,1,.25133-.12833,1.09729,1.09729,0,0,0-.6644.18115,1.08411,1.08411,0,0,0-.29406.294h-.14708V87.416h.14708a1.08419,1.08419,0,0,0,.29406.29406,1.09737,1.09737,0,0,0,.66443.18114.69882.69882,0,0,1-.25136-.12834.87753.87753,0,0,1-.21652-1.0188A1.20918,1.20918,0,0,1,44.78364,86.11514Z"/></g></svg>