<svg xmlns="http://www.w3.org/2000/svg" viewBox="0 0 115 167"><defs><style>.cls-1{fill:#fff;}</style></defs><title>card-spades-2</title><g id="artwork"><rect class="cls-1" width="115" height="167" rx="8"/><path d="M20.16919,38.785c-.54553-1.71785-2.13293-2.67927-3.37659-3.85011a10.95839,10.95839,0,0,1-2.25478-3.01247A10.95839,10.95839,0,0,1,12.283,34.93492c-1.24367,1.17084-2.831,2.13226-3.37656,3.85011a3.61486,3.61486,0,0,0,1.87489,4.47861,2.61245,2.61245,0,0,0,3.03724-.64682,2.0889,2.0889,0,0,0,.38258-.7508,3.2831,3.2831,0,0,1-.54,1.98476,3.23538,3.23538,0,0,1-.8766.87845v.43935h3.50653v-.43935a3.23563,3.23563,0,0,1-.87663-.87845,3.283,3.283,0,0,1-.54-1.98486,2.08909,2.08909,0,0,0,.38261.7509,2.61241,2.61241,0,0,0,3.03723.64682A3.61491,3.61491,0,0,0,20.16919,38.785Z"/><path d="M10.07456,23.14212l4.08192-4.30241q.973-1.01675,1.51232-1.64283a6.63332,6.63332,0,0,0,.91978-1.388,3.46489,3.46489,0,0,0,.38083-1.5678,2.268,2.268,0,0,0-.719-1.897,3.80412,3.80412,0,0,0-2.32625-.56206,15.27711,15.27711,0,0,0-3.06724.36091l-.54994.10607L10.18042,10.892a14.906,14.906,0,0,1,4.14517-.57176,4.91306,4.91306,0,0,1,3.24668.91067,3.53466,3.53466,0,0,1,1.06824,2.84068,5.0018,5.0018,0,0,1-.63449,2.54315A13.38028,13.38028,0,0,1,15.72173,19.306l-3.72239,3.79339H19v1.42034H10.07456Z"/><path d="M94.83081,128.21472c.54553,1.71785,2.13293,2.67927,3.37659,3.85011a10.95839,10.95839,0,0,1,2.25478,3.01247,10.95839,10.95839,0,0,1,2.25478-3.01247c1.24367-1.17084,2.831-2.13226,3.37656-3.85011a3.61484,3.61484,0,0,0-1.87489-4.4786,2.61245,2.61245,0,0,0-3.03724.64681,2.089,2.089,0,0,0-.38258.7508,3.2831,3.2831,0,0,1,.54-1.98476,3.23538,3.23538,0,0,1,.8766-.87845v-.43935H98.70892v.43935a3.23563,3.23563,0,0,1,.87663.87845,3.283,3.283,0,0,1,.54,1.98486,2.08909,2.08909,0,0,0-.38261-.7509,2.61241,2.61241,0,0,0-3.03723-.64681A3.61489,3.61489,0,0,0,94.83081,128.21472Z"/><path d="M104.92416,143.85788l-4.08192,4.30241q-.973,1.01674-1.51232,1.64283a6.61645,6.61645,0,0,0-.91978,1.388,3.465,3.465,0,0,0-.38083,1.5678,2.26579,2.26579,0,0,0,.71905,1.89638,3.79933,3.79933,0,0,0,2.32625.5627,15.27728,15.27728,0,0,0,3.06725-.36091l.54993-.10607.12651,1.35695a14.9059,14.9059,0,0,1-4.14517.57176,4.91306,4.91306,0,0,1-3.24668-.91067,3.53466,3.53466,0,0,1-1.06824-2.84068,5.00021,5.00021,0,0,1,.63449-2.54315,13.39858,13.39858,0,0,1,2.2843-2.69192l3.72238-3.79274H95.99869v-1.42034h8.92547Z"/><path d="M65.94705,28.22546c-.8183-2.57677-3.1994-4.01891-5.0649-5.77515A16.438,16.438,0,0,1,57.5,17.93159a16.43781,16.43781,0,0,1-3.38217,4.51872c-1.8655,1.75624-4.24653,3.19838-5.06484,5.77515a5.42227,5.42227,0,0,0,2.81234,6.71791,3.91867,3.91867,0,0,0,4.55585-.97022,3.13354,3.13354,0,0,0,.57388-1.12621,4.92456,4.92456,0,0,1-.81007,2.97715,4.85288,4.85288,0,0,1-1.31489,1.31767v.659h5.2598v-.659a4.853,4.853,0,0,1-1.315-1.31767,4.92456,4.92456,0,0,1-.81-2.97729,3.13374,3.13374,0,0,0,.57391,1.12635,3.91864,3.91864,0,0,0,4.55585.97022A5.42235,5.42235,0,0,0,65.94705,28.22546Z"/><path d="M49.053,138.77454c.8183,2.57677,3.1994,4.01891,5.0649,5.77515A16.438,16.438,0,0,1,57.5,149.06841a16.43781,16.43781,0,0,1,3.38217-4.51872c1.8655-1.75624,4.24653-3.19838,5.06484-5.77515a5.42227,5.42227,0,0,0-2.81234-6.71791,3.91867,3.91867,0,0,0-4.55585.97022,3.13354,3.13354,0,0,0-.57388,1.12621,4.92456,4.92456,0,0,1,.81007-2.97715,4.85288,4.85288,0,0,1,1.31489-1.31767v-.659h-5.2598v.659a4.853,4.853,0,0,1,1.315,1.31767,4.92456,4.92456,0,0,1,.81,2.97729,3.13374,3.13374,0,0,0-.57391-1.12635,3.91864,3.91864,0,0,0-4.55585-.97022A5.42235,5.42235,0,0,0,49.053,138.77454Z"/></g></svg>