<svg xmlns="http://www.w3.org/2000/svg" viewBox="0 0 115 167"><defs><style>.cls-1{fill:#fff;}</style></defs><title>card-clubs-7</title><g id="artwork"><rect class="cls-1" width="115" height="167" rx="8"/><path d="M11.98853,24.24488l5.267-11.67833v-.55106H10.23287V10.53177h8.67245v2.14085L13.53248,24.73127Z"/><path d="M21.43021,39.4911a2.94332,2.94332,0,0,0-2.90339-2.1709,2.73385,2.73385,0,0,0-1.27754.38045c-.20655.12342-.5948.364-.773.06089-.16133-.27452.13316-.53065.3094-.69984a2.9285,2.9285,0,0,0,.84295-1.57112A3.0815,3.0815,0,0,0,16.243,32.369a3.218,3.218,0,0,0-3.43131,0,3.08148,3.08148,0,0,0-1.38563,3.12163A2.92853,2.92853,0,0,0,12.269,37.0617c.17626.16919.47073.42532.30942.69984-.17819.3031-.56644.06253-.773-.06089a2.73378,2.73378,0,0,0-1.27754-.38045,2.94333,2.94333,0,0,0-2.90339,2.1709,3.18483,3.18483,0,0,0,1.4932,3.5655,3.2261,3.2261,0,0,0,4.72371-1.99155h.26275a3.55456,3.55456,0,0,1-.52553,2.62855,3.50049,3.50049,0,0,1-.94855.95058v.47542h3.79454v-.47542a3.501,3.501,0,0,1-.94856-.95058,3.5546,3.5546,0,0,1-.52552-2.62855h.26277A3.22607,3.22607,0,0,0,19.937,43.0566,3.18482,3.18482,0,0,0,21.43021,39.4911Z"/><path d="M103.01311,142.75641l-5.2657,11.67833v.55106h7.02136v1.48243H96.09761v-2.13956l5.37155-12.05994Z"/><path d="M93.56979,127.48753a2.94332,2.94332,0,0,0,2.90339,2.1709,2.73373,2.73373,0,0,0,1.27754-.38045c.20655-.12342.5948-.364.773-.06089.16133.27452-.13316.53065-.3094.69984a2.9285,2.9285,0,0,0-.843,1.57112,3.08149,3.08149,0,0,0,1.38563,3.12163,3.218,3.218,0,0,0,3.43131,0,3.08147,3.08147,0,0,0,1.38563-3.12163,2.92853,2.92853,0,0,0-.84293-1.57112c-.17626-.16919-.47073-.42532-.30942-.69984.17819-.3031.56644-.06253.773.06089a2.73366,2.73366,0,0,0,1.27754.38045,2.94333,2.94333,0,0,0,2.90339-2.1709,3.18483,3.18483,0,0,0-1.4932-3.5655,3.2261,3.2261,0,0,0-4.72371,1.99155h-.26275a3.55456,3.55456,0,0,1,.52553-2.62855,3.50031,3.50031,0,0,1,.94855-.95057V121.859H98.57536v.47543a3.50077,3.50077,0,0,1,.94856.95057,3.5546,3.5546,0,0,1,.52552,2.62855h-.26277A3.22607,3.22607,0,0,0,95.063,123.922,3.18482,3.18482,0,0,0,93.56979,127.48753Z"/><path d="M46.70369,29.46182a4.415,4.415,0,0,0-4.35507-3.25635,4.10084,4.10084,0,0,0-1.91631.57067c-.30982.18514-.8922.546-1.15947.09134-.242-.41178.19975-.796.46411-1.04976A4.39279,4.39279,0,0,0,41.00138,23.461a4.62224,4.62224,0,0,0-2.07845-4.68244,4.827,4.827,0,0,0-5.147,0A4.62217,4.62217,0,0,0,31.69752,23.461a4.39279,4.39279,0,0,0,1.26439,2.35668c.26439.25379.7061.638.46414,1.04976-.26729.45465-.84967.0938-1.15949-.09134a4.10077,4.10077,0,0,0-1.91631-.57067,4.415,4.415,0,0,0-4.35508,3.25635A4.77723,4.77723,0,0,0,28.235,34.81007a4.83914,4.83914,0,0,0,7.08556-2.98732h.39413a5.33188,5.33188,0,0,1-.78828,3.94282,5.25068,5.25068,0,0,1-1.42284,1.42586v.71314h5.69181v-.71314a5.25124,5.25124,0,0,1-1.42284-1.42586,5.332,5.332,0,0,1-.78828-3.94282h.39415a4.83911,4.83911,0,0,0,7.08554,2.98732A4.77721,4.77721,0,0,0,46.70369,29.46182Z"/><path d="M25.99517,137.53818a4.415,4.415,0,0,0,4.35508,3.25635,4.10088,4.10088,0,0,0,1.91631-.57067c.30982-.18514.8922-.546,1.15946-.09134.242.41178-.19975.796-.46411,1.04976a4.39284,4.39284,0,0,0-1.26442,2.35668,4.62222,4.62222,0,0,0,2.07845,4.68244,4.827,4.827,0,0,0,5.147,0,4.6222,4.6222,0,0,0,2.07845-4.68244,4.39274,4.39274,0,0,0-1.2644-2.35668c-.26438-.25379-.70609-.638-.46413-1.04976.26729-.45465.84966-.0938,1.15949.09134a4.10071,4.10071,0,0,0,1.91631.57067,4.415,4.415,0,0,0,4.35508-3.25635,4.77722,4.77722,0,0,0-2.2398-5.34825,4.83914,4.83914,0,0,0-7.08556,2.98732h-.39412a5.33188,5.33188,0,0,1,.78828-3.94282,5.25068,5.25068,0,0,1,1.42284-1.42586v-.71314H33.50353v.71314a5.25139,5.25139,0,0,1,1.42284,1.42586,5.332,5.332,0,0,1,.78828,3.94282h-.39416a4.8391,4.8391,0,0,0-7.08553-2.98732A4.77722,4.77722,0,0,0,25.99517,137.53818Z"/><path d="M89.00483,29.46182a4.415,4.415,0,0,0-4.35508-3.25635,4.10088,4.10088,0,0,0-1.91631.57067c-.30982.18514-.8922.546-1.15946.09134-.242-.41178.19975-.796.46411-1.04976A4.39284,4.39284,0,0,0,83.30251,23.461a4.62222,4.62222,0,0,0-2.07845-4.68244,4.827,4.827,0,0,0-5.147,0A4.6222,4.6222,0,0,0,73.99865,23.461a4.39274,4.39274,0,0,0,1.2644,2.35668c.26438.25379.70609.638.46413,1.04976-.26729.45465-.84966.0938-1.15949-.09134a4.10071,4.10071,0,0,0-1.91631-.57067,4.415,4.415,0,0,0-4.35508,3.25635,4.77722,4.77722,0,0,0,2.2398,5.34825,4.83914,4.83914,0,0,0,7.08556-2.98732h.39412a5.33188,5.33188,0,0,1-.78828,3.94282,5.25068,5.25068,0,0,1-1.42284,1.42586v.71314h5.69181v-.71314a5.25139,5.25139,0,0,1-1.42284-1.42586,5.332,5.332,0,0,1-.78828-3.94282h.39416A4.8391,4.8391,0,0,0,86.765,34.81007,4.77722,4.77722,0,0,0,89.00483,29.46182Z"/><path d="M68.29631,137.53818a4.415,4.415,0,0,0,4.35507,3.25635,4.10084,4.10084,0,0,0,1.91631-.57067c.30982-.18514.8922-.546,1.15947-.09134.242.41178-.19975.796-.46411,1.04976a4.39279,4.39279,0,0,0-1.26443,2.35668,4.62224,4.62224,0,0,0,2.07845,4.68244,4.827,4.827,0,0,0,5.147,0,4.62217,4.62217,0,0,0,2.07845-4.68244,4.39279,4.39279,0,0,0-1.26439-2.35668c-.26439-.25379-.7061-.638-.46414-1.04976.26729-.45465.84967-.0938,1.15949.09134a4.10077,4.10077,0,0,0,1.91631.57067,4.415,4.415,0,0,0,4.35508-3.25635,4.77723,4.77723,0,0,0-2.23979-5.34825,4.83914,4.83914,0,0,0-7.08556,2.98732h-.39413a5.33188,5.33188,0,0,1,.78828-3.94282,5.25068,5.25068,0,0,1,1.42284-1.42586v-.71314H75.80466v.71314a5.25124,5.25124,0,0,1,1.42284,1.42586,5.332,5.332,0,0,1,.78828,3.94282h-.39415a4.83911,4.83911,0,0,0-7.08554-2.98732A4.77721,4.77721,0,0,0,68.29631,137.53818Z"/><path d="M46.70369,85.02625a4.415,4.415,0,0,0-4.35507-3.25635,4.10084,4.10084,0,0,0-1.91631.57067c-.30982.18514-.8922.546-1.15947.09134-.242-.41178.19975-.796.46411-1.04976a4.3928,4.3928,0,0,0,1.26443-2.35667A4.62225,4.62225,0,0,0,38.92293,74.343a4.827,4.827,0,0,0-5.147,0,4.62218,4.62218,0,0,0-2.07845,4.68245,4.3928,4.3928,0,0,0,1.26439,2.35667c.26439.25379.7061.638.46414,1.04976-.26729.45465-.84967.0938-1.15949-.09134a4.10077,4.10077,0,0,0-1.91631-.57067,4.415,4.415,0,0,0-4.35508,3.25635A4.77723,4.77723,0,0,0,28.235,90.3745a4.83914,4.83914,0,0,0,7.08556-2.98732h.39413A5.33188,5.33188,0,0,1,34.92637,91.33a5.25068,5.25068,0,0,1-1.42284,1.42586V93.469h5.69181v-.71314A5.25124,5.25124,0,0,1,37.7725,91.33a5.332,5.332,0,0,1-.78828-3.94282h.39415a4.83911,4.83911,0,0,0,7.08554,2.98732A4.77721,4.77721,0,0,0,46.70369,85.02625Z"/><path d="M89.00483,85.02625a4.415,4.415,0,0,0-4.35508-3.25635,4.10088,4.10088,0,0,0-1.91631.57067c-.30982.18514-.8922.546-1.15946.09134-.242-.41178.19975-.796.46411-1.04976a4.39285,4.39285,0,0,0,1.26442-2.35667A4.62223,4.62223,0,0,0,81.22406,74.343a4.827,4.827,0,0,0-5.147,0,4.62222,4.62222,0,0,0-2.07845,4.68245,4.39275,4.39275,0,0,0,1.2644,2.35667c.26438.25379.70609.638.46413,1.04976-.26729.45465-.84966.0938-1.15949-.09134a4.10071,4.10071,0,0,0-1.91631-.57067,4.415,4.415,0,0,0-4.35508,3.25635,4.77722,4.77722,0,0,0,2.2398,5.34825,4.83914,4.83914,0,0,0,7.08556-2.98732h.39412A5.33188,5.33188,0,0,1,77.2275,91.33a5.25068,5.25068,0,0,1-1.42284,1.42586V93.469h5.69181v-.71314A5.25139,5.25139,0,0,1,80.07363,91.33a5.332,5.332,0,0,1-.78828-3.94282h.39416A4.8391,4.8391,0,0,0,86.765,90.3745,4.77721,4.77721,0,0,0,89.00483,85.02625Z"/><path d="M67.85371,57.20934A4.41479,4.41479,0,0,0,63.49887,53.953a4.10035,4.10035,0,0,0-1.91621.57068c-.30981.18514-.89216.546-1.15941.09134-.242-.41178.19974-.796.46409-1.04976a4.3929,4.3929,0,0,0,1.26435-2.35668,4.62233,4.62233,0,0,0-2.07833-4.68245,4.82656,4.82656,0,0,0-5.14669,0,4.62232,4.62232,0,0,0-2.07834,4.68245,4.39287,4.39287,0,0,0,1.26433,2.35668c.26438.25378.70606.638.46411,1.04976-.26727.45464-.84962.0938-1.15942-.09134a4.10032,4.10032,0,0,0-1.91622-.57068,4.41479,4.41479,0,0,0-4.35484,3.25635A4.77735,4.77735,0,0,0,49.386,62.5576a4.83882,4.83882,0,0,0,7.08518-2.98732h.39411A5.33211,5.33211,0,0,1,56.077,63.5131,5.25081,5.25081,0,0,1,54.65425,64.939v.71313h5.6915V64.939A5.25151,5.25151,0,0,1,58.923,63.5131a5.3322,5.3322,0,0,1-.78824-3.94282h.39413A4.83879,4.83879,0,0,0,65.614,62.5576,4.77732,4.77732,0,0,0,67.85371,57.20934Z"/></g></svg>