<svg xmlns="http://www.w3.org/2000/svg" viewBox="0 0 87 127"><defs><style>.cls-1{fill:#fff;}</style></defs><title>card-clubs-9</title><g id="artwork"><rect class="cls-1" x="0.00232" width="86.99536" height="127" rx="6"/><path d="M7.98309,18.81631l-.416-.06361.1123-.99427a21.031,21.031,0,0,0,2.78418.19181q2.87988,0,2.91211-3.68741a8.16871,8.16871,0,0,1-2.75195.6087q-3.45557,0-3.45606-3.22257a3.37305,3.37305,0,0,1,.99219-2.565,3.71245,3.71245,0,0,1,2.67188-.94632q3.82323,0,3.82421,5.64366a6.24481,6.24481,0,0,1-1.041,4.00057,3.84933,3.84933,0,0,1-3.15137,1.25849A14.7347,14.7347,0,0,1,7.98309,18.81631Zm4.99219-5.4675.416-.14484q-.04834-3.97512-2.55957-3.9761a2.32817,2.32817,0,0,0-1.752.6498A2.4293,2.4293,0,0,0,8.447,11.649q0,2.13288,2.27246,2.13239A7.06038,7.06038,0,0,0,12.97528,13.34881Z"/><path d="M16.21387,30.20638A2.22659,2.22659,0,0,0,14.01752,28.564a2.06817,2.06817,0,0,0-.96644.28782c-.15625.09338-.45.27537-.58474.04607-.122-.20768.10074-.40145.23406-.52944a2.21556,2.21556,0,0,0,.63767-1.18859,2.33125,2.33125,0,0,0-1.0482-2.36158,2.43424,2.43424,0,0,0-2.59572,0A2.33124,2.33124,0,0,0,8.64594,27.1799a2.21562,2.21562,0,0,0,.63766,1.18859c.13334.128.3561.32176.23408.52944-.1348.2293-.42851.04731-.58476-.04607a2.0681,2.0681,0,0,0-.96643-.28782,2.2266,2.2266,0,0,0-2.19636,1.64234A2.40943,2.40943,0,0,0,6.8997,32.90376a2.44044,2.44044,0,0,0,3.5734-1.50665h.19877a2.68923,2.68923,0,0,1-.39755,1.98855,2.64816,2.64816,0,0,1-.71757.71913v.35967h2.8705v-.35967a2.64858,2.64858,0,0,1-.71757-.71913,2.68927,2.68927,0,0,1-.39754-1.98855h.19878a2.44042,2.44042,0,0,0,3.57338,1.50665A2.40943,2.40943,0,0,0,16.21387,30.20638Z"/><path d="M79.01923,108.18417l.416.06361-.11133.99427a21.05865,21.05865,0,0,0-2.78418-.19279q-2.88135,0-2.91211,3.68741a8.15909,8.15909,0,0,1,2.752-.60869q3.45556,0,3.456,3.22257a3.37658,3.37658,0,0,1-.99219,2.56494,3.70822,3.70822,0,0,1-2.67187.94632q-3.82325,0-3.82422-5.64366a6.247,6.247,0,0,1,1.04-4.00057,3.85436,3.85436,0,0,1,3.15234-1.25849A14.72033,14.72033,0,0,1,79.01923,108.18417ZM74.027,113.6507l-.416.14483q.04834,3.97659,2.56055,3.9761a2.33435,2.33435,0,0,0,1.75195-.64882,2.43116,2.43116,0,0,0,.63184-1.77226q0-2.1329-2.27246-2.1324A7.092,7.092,0,0,0,74.027,113.6507Z"/><path d="M70.78613,96.77759a2.22659,2.22659,0,0,0,2.19635,1.64234,2.06817,2.06817,0,0,0,.96644-.28782c.15625-.09338.45-.27537.58474-.04607.122.20768-.10074.40145-.23406.52945a2.21554,2.21554,0,0,0-.63767,1.18858,2.33125,2.33125,0,0,0,1.0482,2.36158,2.43424,2.43424,0,0,0,2.59572,0,2.33124,2.33124,0,0,0,1.04821-2.36158,2.21559,2.21559,0,0,0-.63766-1.18858c-.13334-.128-.3561-.32177-.23408-.52945.1348-.2293.42851-.04731.58476.04607a2.0681,2.0681,0,0,0,.96643.28782,2.2266,2.2266,0,0,0,2.19636-1.64234,2.40943,2.40943,0,0,0-1.12957-2.69738,2.44046,2.44046,0,0,0-3.5734,1.50665h-.19877a2.68924,2.68924,0,0,1,.39755-1.98855,2.64816,2.64816,0,0,1,.71757-.71913v-.35967h-2.8705v.35967a2.64858,2.64858,0,0,1,.71757.71913,2.68928,2.68928,0,0,1,.39754,1.98855h-.19878a2.44043,2.44043,0,0,0-3.57338-1.50665A2.40943,2.40943,0,0,0,70.78613,96.77759Z"/><path d="M35.3328,22.61894a3.3399,3.3399,0,0,0-3.29454-2.4635,3.102,3.102,0,0,0-1.44965.43173c-.23438.14006-.67493.413-.87712.0691-.18306-.31152.15111-.60217.3511-.79417a3.32335,3.32335,0,0,0,.95651-1.78288,3.4969,3.4969,0,0,0-1.57231-3.54237,3.65139,3.65139,0,0,0-3.89358,0,3.49688,3.49688,0,0,0-1.57231,3.54237,3.32326,3.32326,0,0,0,.95649,1.78288c.2.192.53415.48265.35111.79417-.2022.34395-.64275.071-.87713-.0691a3.102,3.102,0,0,0-1.44965-.43173,3.33989,3.33989,0,0,0-3.29454,2.4635A3.61415,3.61415,0,0,0,21.36154,26.665a3.66068,3.66068,0,0,0,5.3601-2.26h.29815a4.03387,4.03387,0,0,1-.59632,2.98283,3.97221,3.97221,0,0,1-1.07635,1.07869v.5395h4.30575v-.5395a3.97267,3.97267,0,0,1-1.07636-1.07869,4.034,4.034,0,0,1-.59632-2.98283h.29817a3.66065,3.66065,0,0,0,5.36008,2.26A3.61415,3.61415,0,0,0,35.3328,22.61894Z"/><path d="M67.33282,22.61894a3.3399,3.3399,0,0,0-3.29454-2.4635,3.102,3.102,0,0,0-1.44965.43173c-.23438.14006-.67493.413-.87712.0691-.18306-.31152.15111-.60217.3511-.79417a3.32335,3.32335,0,0,0,.95651-1.78288,3.4969,3.4969,0,0,0-1.57231-3.54237,3.65139,3.65139,0,0,0-3.89358,0,3.49688,3.49688,0,0,0-1.57231,3.54237,3.32332,3.32332,0,0,0,.95649,1.78288c.2.192.53415.48265.35111.79417-.2022.34395-.64275.071-.87713-.0691a3.102,3.102,0,0,0-1.44965-.43173,3.33989,3.33989,0,0,0-3.29454,2.4635A3.61415,3.61415,0,0,0,53.36156,26.665a3.66068,3.66068,0,0,0,5.3601-2.26h.29815a4.03387,4.03387,0,0,1-.59632,2.98283,3.97221,3.97221,0,0,1-1.07635,1.07869v.5395h4.30575v-.5395a3.97267,3.97267,0,0,1-1.07636-1.07869,4.034,4.034,0,0,1-.59632-2.98283h.29817a3.66065,3.66065,0,0,0,5.36008,2.26A3.61415,3.61415,0,0,0,67.33282,22.61894Z"/><path d="M19.66718,104.38106a3.3399,3.3399,0,0,0,3.29454,2.4635,3.102,3.102,0,0,0,1.44965-.43173c.23438-.14006.67493-.413.87712-.0691.18306.31152-.15111.60217-.3511.79417a3.32335,3.32335,0,0,0-.95651,1.78288,3.4969,3.4969,0,0,0,1.57231,3.54237,3.65139,3.65139,0,0,0,3.89358,0,3.49688,3.49688,0,0,0,1.57231-3.54237,3.32332,3.32332,0,0,0-.95649-1.78288c-.2-.192-.53415-.48265-.35111-.79417.2022-.34395.64275-.071.87713.0691a3.102,3.102,0,0,0,1.44965.43173,3.33989,3.33989,0,0,0,3.29454-2.4635,3.61415,3.61415,0,0,0-1.69436-4.04607,3.66068,3.66068,0,0,0-5.3601,2.26h-.29815a4.03387,4.03387,0,0,1,.59632-2.98283,3.97221,3.97221,0,0,1,1.07635-1.07869v-.5395H25.34711v.5395a3.97267,3.97267,0,0,1,1.07636,1.07869,4.034,4.034,0,0,1,.59632,2.98283h-.29817a3.66065,3.66065,0,0,0-5.36008-2.26A3.61415,3.61415,0,0,0,19.66718,104.38106Z"/><path d="M51.6672,104.38106a3.3399,3.3399,0,0,0,3.29454,2.4635,3.102,3.102,0,0,0,1.44965-.43173c.23438-.14006.67493-.413.87712-.0691.18306.31152-.15111.60217-.3511.79417a3.32335,3.32335,0,0,0-.95651,1.78288,3.4969,3.4969,0,0,0,1.57231,3.54237,3.65139,3.65139,0,0,0,3.89358,0,3.49688,3.49688,0,0,0,1.57231-3.54237,3.32326,3.32326,0,0,0-.95649-1.78288c-.2-.192-.53415-.48265-.35111-.79417.2022-.34395.64275-.071.87713.0691a3.102,3.102,0,0,0,1.44965.43173,3.33989,3.33989,0,0,0,3.29454-2.4635,3.61415,3.61415,0,0,0-1.69436-4.04607,3.66068,3.66068,0,0,0-5.3601,2.26h-.29815a4.03387,4.03387,0,0,1,.59632-2.98283,3.97221,3.97221,0,0,1,1.07635-1.07869v-.5395H57.34713v.5395a3.97267,3.97267,0,0,1,1.07636,1.07869,4.034,4.034,0,0,1,.59632,2.98283h-.29817a3.66065,3.66065,0,0,0-5.36008-2.26A3.61415,3.61415,0,0,0,51.6672,104.38106Z"/><path d="M35.3328,50.62539a3.33991,3.33991,0,0,0-3.29454-2.4635,3.102,3.102,0,0,0-1.44965.43173c-.23438.14006-.67493.413-.87712.0691-.18306-.31152.15111-.60217.3511-.79417a3.32336,3.32336,0,0,0,.95651-1.78287,3.49691,3.49691,0,0,0-1.57231-3.54238,3.65139,3.65139,0,0,0-3.89358,0,3.49689,3.49689,0,0,0-1.57231,3.54238,3.32326,3.32326,0,0,0,.95649,1.78287c.2.192.53415.48265.35111.79417-.2022.34395-.64275.071-.87713-.0691a3.102,3.102,0,0,0-1.44965-.43173,3.3399,3.3399,0,0,0-3.29454,2.4635,3.61415,3.61415,0,0,0,1.69436,4.04607,3.66068,3.66068,0,0,0,5.3601-2.26h.29815a4.03387,4.03387,0,0,1-.59632,2.98283A3.97207,3.97207,0,0,1,25.34712,56.473v.53951h4.30575V56.473a3.97253,3.97253,0,0,1-1.07636-1.07869,4.034,4.034,0,0,1-.59632-2.98283h.29817a3.66065,3.66065,0,0,0,5.36008,2.26A3.61415,3.61415,0,0,0,35.3328,50.62539Z"/><path d="M67.33282,50.62539a3.33991,3.33991,0,0,0-3.29454-2.4635,3.102,3.102,0,0,0-1.44965.43173c-.23438.14006-.67493.413-.87712.0691-.18306-.31152.15111-.60217.3511-.79417a3.32336,3.32336,0,0,0,.95651-1.78287,3.49691,3.49691,0,0,0-1.57231-3.54238,3.65139,3.65139,0,0,0-3.89358,0,3.49689,3.49689,0,0,0-1.57231,3.54238,3.32333,3.32333,0,0,0,.95649,1.78287c.2.192.53415.48265.35111.79417-.2022.34395-.64275.071-.87713-.0691a3.102,3.102,0,0,0-1.44965-.43173,3.3399,3.3399,0,0,0-3.29454,2.4635,3.61415,3.61415,0,0,0,1.69436,4.04607,3.66068,3.66068,0,0,0,5.3601-2.26h.29815a4.03387,4.03387,0,0,1-.59632,2.98283A3.97207,3.97207,0,0,1,57.34714,56.473v.53951h4.30575V56.473a3.97253,3.97253,0,0,1-1.07636-1.07869,4.034,4.034,0,0,1-.59632-2.98283h.29817a3.66065,3.66065,0,0,0,5.36008,2.26A3.61415,3.61415,0,0,0,67.33282,50.62539Z"/><path d="M51.6672,76.37461a3.33991,3.33991,0,0,0,3.29454,2.4635,3.102,3.102,0,0,0,1.44965-.43173c.23438-.14006.67493-.413.87712-.0691.18306.31152-.15111.60217-.3511.79417a3.32336,3.32336,0,0,0-.95651,1.78287,3.49691,3.49691,0,0,0,1.57231,3.54238,3.65139,3.65139,0,0,0,3.89358,0,3.49689,3.49689,0,0,0,1.57231-3.54238,3.32326,3.32326,0,0,0-.95649-1.78287c-.2-.192-.53415-.48265-.35111-.79417.2022-.344.64275-.071.87713.0691a3.102,3.102,0,0,0,1.44965.43173,3.3399,3.3399,0,0,0,3.29454-2.4635,3.61415,3.61415,0,0,0-1.69436-4.04607,3.66068,3.66068,0,0,0-5.3601,2.26h-.29815a4.03387,4.03387,0,0,1,.59632-2.98283A3.97207,3.97207,0,0,1,61.65288,70.527v-.53951H57.34713V70.527a3.97253,3.97253,0,0,1,1.07636,1.07869,4.034,4.034,0,0,1,.59632,2.98283h-.29817a3.66065,3.66065,0,0,0-5.36008-2.26A3.61415,3.61415,0,0,0,51.6672,76.37461Z"/><path d="M19.66718,76.37461a3.33991,3.33991,0,0,0,3.29454,2.4635,3.102,3.102,0,0,0,1.44965-.43173c.23438-.14006.67493-.413.87712-.0691.18306.31152-.15111.60217-.3511.79417a3.32336,3.32336,0,0,0-.95651,1.78287,3.49691,3.49691,0,0,0,1.57231,3.54238,3.65139,3.65139,0,0,0,3.89358,0,3.49689,3.49689,0,0,0,1.57231-3.54238,3.32333,3.32333,0,0,0-.95649-1.78287c-.2-.192-.53415-.48265-.35111-.79417.2022-.344.64275-.071.87713.0691a3.102,3.102,0,0,0,1.44965.43173,3.3399,3.3399,0,0,0,3.29454-2.4635,3.61415,3.61415,0,0,0-1.69436-4.04607,3.66068,3.66068,0,0,0-5.3601,2.26h-.29815a4.03387,4.03387,0,0,1,.59632-2.98283A3.97207,3.97207,0,0,1,29.65286,70.527v-.53951H25.34711V70.527a3.97253,3.97253,0,0,1,1.07636,1.07869,4.034,4.034,0,0,1,.59632,2.98283h-.29817a3.66065,3.66065,0,0,0-5.36008-2.26A3.61415,3.61415,0,0,0,19.66718,76.37461Z"/><path d="M51.33281,64.62862a3.3399,3.3399,0,0,0-3.29454-2.4635,3.102,3.102,0,0,0-1.44965.43173c-.23438.14006-.67493.413-.87712.0691-.18306-.31153.15111-.60218.3511-.79417a3.32342,3.32342,0,0,0,.95651-1.78288,3.49688,3.49688,0,0,0-1.57231-3.54237,3.65139,3.65139,0,0,0-3.89358,0,3.49687,3.49687,0,0,0-1.57231,3.54237,3.32333,3.32333,0,0,0,.95649,1.78288c.2.192.53415.48264.35111.79417-.2022.34395-.64275.071-.87713-.0691a3.102,3.102,0,0,0-1.44965-.43173,3.33989,3.33989,0,0,0-3.29454,2.4635,3.61415,3.61415,0,0,0,1.69436,4.04607,3.66068,3.66068,0,0,0,5.3601-2.26h.29815a4.03384,4.03384,0,0,1-.59632,2.98282,3.97224,3.97224,0,0,1-1.07635,1.0787v.5395h4.30575v-.5395a3.9727,3.9727,0,0,1-1.07636-1.0787,4.03393,4.03393,0,0,1-.59632-2.98282h.29817a3.66065,3.66065,0,0,0,5.36008,2.26A3.61415,3.61415,0,0,0,51.33281,64.62862Z"/></g></svg>