<svg xmlns="http://www.w3.org/2000/svg" viewBox="0 0 115 167"><defs><style>.cls-1{fill:#fff;}.cls-2{fill:#ff3b5c;}</style></defs><title>card-hearts-q</title><g id="artwork"><rect class="cls-1" width="115" height="167" rx="8"/><path class="cls-2" d="M16.31825,24.53732a6.924,6.924,0,0,1-1.7776.19016,6.46458,6.46458,0,0,1-3.43645-.78394,4.31628,4.31628,0,0,1-1.79826-2.40616,13.97118,13.97118,0,0,1-.53961-4.29229,14.04107,14.04107,0,0,1,.54993-4.313,4.50384,4.50384,0,0,1,1.82021-2.4799,6.23244,6.23244,0,0,1,3.40418-.815,6.23717,6.23717,0,0,1,3.40546.815,4.55348,4.55348,0,0,1,1.82925,2.4799,13.77361,13.77361,0,0,1,.56026,4.313,13.59571,13.59571,0,0,1-.56026,4.34533,4.2279,4.2279,0,0,1-1.87185,2.37382l1.79826,2.90421-1.52329.72056Zm.72938-1.84473a3.202,3.202,0,0,0,1.2367-1.87577,13.61656,13.61656,0,0,0,.36017-3.529A13.89909,13.89909,0,0,0,18.274,13.7057a3.501,3.501,0,0,0-1.25866-1.98185,4.14045,4.14045,0,0,0-2.4747-.64553,4.20034,4.20034,0,0,0-2.47471.63518,3.44975,3.44975,0,0,0-1.25737,1.9715,13.73124,13.73124,0,0,0-.37049,3.56009,13.827,13.827,0,0,0,.35888,3.529,3.22522,3.22522,0,0,0,1.25865,1.90811,4.46357,4.46357,0,0,0,2.507.60413A4.41223,4.41223,0,0,0,17.04763,22.69259Z"/><path class="cls-2" d="M14.54128,45.23736a25.15219,25.15219,0,0,1,2.33443-3.11912c1.62468-1.852,3.72992-3.72808,3.80593-6.38533a3.74366,3.74366,0,0,0-1.56109-3.27759,2.7793,2.7793,0,0,0-3.30514.1667,2.84743,2.84743,0,0,0-.96287,1.69845c-.02934.17674-.07364.46786-.31126.46786s-.28193-.29112-.31125-.46786a2.84745,2.84745,0,0,0-.96288-1.69845,2.77928,2.77928,0,0,0-3.30513-.1667,3.74368,3.74368,0,0,0-1.56109,3.27759c.076,2.65725,2.18125,4.53329,3.80591,6.38533A25.15127,25.15127,0,0,1,14.54128,45.23736Z"/><path class="cls-2" d="M98.68458,142.46268a6.8605,6.8605,0,0,1,1.7776-.19146,6.46458,6.46458,0,0,1,3.43645.784,4.3163,4.3163,0,0,1,1.79827,2.40616,17.26412,17.26412,0,0,1-.01033,8.60527,4.50387,4.50387,0,0,1-1.82021,2.47991,7.50913,7.50913,0,0,1-6.80964,0,4.55351,4.55351,0,0,1-1.82925-2.47991,13.77358,13.77358,0,0,1-.56026-4.313,13.59567,13.59567,0,0,1,.56026-4.34533,4.22786,4.22786,0,0,1,1.87185-2.37382l-1.79826-2.90292,1.52329-.72185Zm-.72938,1.84343a3.202,3.202,0,0,0-1.2367,1.87578,13.61656,13.61656,0,0,0-.36017,3.529,13.90593,13.90593,0,0,0,.37049,3.58208,3.50537,3.50537,0,0,0,1.25866,1.98185,4.14041,4.14041,0,0,0,2.4747.64682,4.19075,4.19075,0,0,0,2.47471-.63647,3.44975,3.44975,0,0,0,1.25737-1.9715,17.409,17.409,0,0,0,.01161-7.08913,3.22124,3.22124,0,0,0-1.25865-1.90812,4.46365,4.46365,0,0,0-2.507-.60413A4.41234,4.41234,0,0,0,97.9552,144.30611Z"/><path class="cls-2" d="M100.45872,121.9368a25.15219,25.15219,0,0,1-2.33443,3.11912c-1.62468,1.852-3.72992,3.72808-3.80593,6.38533a3.74366,3.74366,0,0,0,1.56109,3.27759,2.7793,2.7793,0,0,0,3.30514-.1667,2.84743,2.84743,0,0,0,.96287-1.69845c.02934-.17674.07364-.46786.31126-.46786s.28193.29112.31125.46786a2.84745,2.84745,0,0,0,.96288,1.69845,2.77928,2.77928,0,0,0,3.30513.1667,3.74368,3.74368,0,0,0,1.56109-3.27759c-.076-2.65725-2.18125-4.53329-3.80591-6.38533A25.15127,25.15127,0,0,1,100.45872,121.9368Z"/><path class="cls-2" d="M57.50051,83.51021a10.82342,10.82342,0,0,1,1.00643-1.3419c.70044-.79678,1.608-1.60389,1.64082-2.74709a1.60937,1.60937,0,0,0-.673-1.41008,1.2002,1.2002,0,0,0-1.42492.07172,1.22437,1.22437,0,0,0-.41511.7307c-.01265.076-.03175.20128-.1342.20128s-.12154-.12524-.13418-.20128a1.22439,1.22439,0,0,0-.41512-.7307,1.20019,1.20019,0,0,0-1.42491-.07172,1.60933,1.60933,0,0,0-.673,1.41008c.03276,1.1432.94038,1.95031,1.64081,2.74709A10.82135,10.82135,0,0,1,57.50051,83.51021Z"/><path class="cls-2" d="M62.06465,79.10675a4.26527,4.26527,0,0,1,.3967-.52893A1.847,1.847,0,0,0,63.1081,77.495a.63435.63435,0,0,0-.26528-.55581.47309.47309,0,0,0-.56166.02827.4826.4826,0,0,0-.16362.288c-.005.03-.01251.07934-.05289.07934s-.04791-.04937-.05289-.07934a.48262.48262,0,0,0-.16363-.288.47307.47307,0,0,0-.56165-.02827.63436.63436,0,0,0-.26529.55581,1.847,1.847,0,0,0,.64676,1.08281A4.26627,4.26627,0,0,1,62.06465,79.10675Z"/><path class="cls-2" d="M52.94568,79.10675a4.26627,4.26627,0,0,1,.3967-.52893,1.847,1.847,0,0,0,.64676-1.08281.63437.63437,0,0,0-.26528-.55581.47309.47309,0,0,0-.56166.02827.4826.4826,0,0,0-.16362.288c-.005.03-.01252.07934-.0529.07934s-.04791-.04937-.05289-.07934a.4826.4826,0,0,0-.16362-.288.47309.47309,0,0,0-.56166-.02827.63437.63437,0,0,0-.26528.55581,1.847,1.847,0,0,0,.64675,1.08281A4.26527,4.26527,0,0,1,52.94568,79.10675Z"/><path class="cls-2" d="M64.99586,78.01917a4.26637,4.26637,0,0,1,.3967-.52894,1.84692,1.84692,0,0,0,.64675-1.08281.63432.63432,0,0,0-.26528-.5558.47306.47306,0,0,0-.56165.02827.48257.48257,0,0,0-.16363.288c-.005.03-.01251.07933-.05289.07933s-.04791-.04936-.05289-.07933a.48262.48262,0,0,0-.16363-.288.47306.47306,0,0,0-.56165-.02827.63434.63434,0,0,0-.26528.5558,1.84692,1.84692,0,0,0,.64675,1.08281A4.26637,4.26637,0,0,1,64.99586,78.01917Z"/><path class="cls-2" d="M49.99588,78.01917a4.26637,4.26637,0,0,1,.3967-.52894,1.847,1.847,0,0,0,.64676-1.08281.63435.63435,0,0,0-.26529-.5558.47306.47306,0,0,0-.56165.02827.48257.48257,0,0,0-.16363.288c-.005.03-.01251.07933-.05289.07933s-.04791-.04936-.05289-.07933a.48257.48257,0,0,0-.16363-.288.47306.47306,0,0,0-.56165-.02827.63434.63434,0,0,0-.26528.5558,1.84692,1.84692,0,0,0,.64675,1.08281A4.26538,4.26538,0,0,1,49.99588,78.01917Z"/><path class="cls-2" d="M67.93637,76.15076a4.26637,4.26637,0,0,1,.3967-.52894,1.84692,1.84692,0,0,0,.64675-1.08281.63437.63437,0,0,0-.26528-.55581.47309.47309,0,0,0-.56165.02827.48263.48263,0,0,0-.16363.288c-.005.03-.01251.07934-.05289.07934s-.04791-.04936-.05289-.07934a.48268.48268,0,0,0-.16363-.288.47309.47309,0,0,0-.56165-.02827.63435.63435,0,0,0-.26528.55581,1.84692,1.84692,0,0,0,.64675,1.08281A4.26637,4.26637,0,0,1,67.93637,76.15076Z"/><path class="cls-2" d="M47.08326,76.15076a4.26637,4.26637,0,0,1,.3967-.52894,1.84692,1.84692,0,0,0,.64675-1.08281.63435.63435,0,0,0-.26528-.55581.47309.47309,0,0,0-.56165.02827.48263.48263,0,0,0-.16363.288c-.005.03-.01251.07934-.05289.07934s-.04791-.04936-.05289-.07934a.48268.48268,0,0,0-.16363-.288.47309.47309,0,0,0-.56165-.02827.63435.63435,0,0,0-.26528.55581,1.84692,1.84692,0,0,0,.64675,1.08281A4.26637,4.26637,0,0,1,47.08326,76.15076Z"/><path class="cls-2" d="M57.50984,66.68182a1.92994,1.92994,0,1,1-1.92994,1.92994,1.93187,1.93187,0,0,1,1.92994-1.92994m0-.66095a2.59089,2.59089,0,1,0,2.59089,2.59089,2.5912,2.5912,0,0,0-2.59089-2.59089Z"/><path d="M57.50984,74.44836A11.74367,11.74367,0,0,1,45.77935,62.718h.66095a11.06946,11.06946,0,0,0,22.13892,0h.66095A11.74353,11.74353,0,0,1,57.50984,74.44836Z"/><rect x="57.17936" y="58.94078" width="0.66095" height="3.68624"/><rect class="cls-2" x="39.10745" y="45.14805" width="7.37076" height="27.99762" rx="3.68538"/><rect class="cls-2" x="68.54142" y="45.14805" width="7.37076" height="27.99762" rx="3.68538"/><path d="M50.14378,40.12807a3.871,3.871,0,0,1-3.683-2.70578v10.8212a3.68274,3.68274,0,0,0,3.68237,3.683h.00064a3.68274,3.68274,0,0,0,3.68237-3.683V37.42229A3.87136,3.87136,0,0,1,50.14378,40.12807Z"/><path d="M57.50981,40.12807a3.87218,3.87218,0,0,1-3.683-2.70578v10.8212a3.68316,3.68316,0,0,0,3.68237,3.683h.00064a3.68274,3.68274,0,0,0,3.68237-3.683V37.42229A3.87076,3.87076,0,0,1,57.50981,40.12807Z"/><path d="M64.87649,40.12807a3.87156,3.87156,0,0,1-3.683-2.70578v10.8212a3.68274,3.68274,0,0,0,3.68237,3.683h.00064a3.68274,3.68274,0,0,0,3.68237-3.683V37.42229A3.87137,3.87137,0,0,1,64.87649,40.12807Z"/><path d="M74.10821,45.03526a2.08188,2.08188,0,0,0,1.82049-1.44173v-.00046l.00047-.00047v.00093a2.0818,2.0818,0,0,0,1.82,1.44173Z"/><path d="M79.14834,46.05523a2.08186,2.08186,0,0,0,1.93453,1.28467l.00088-.00028-.00044.00014.00058.0003-.00088.00029a2.0818,2.0818,0,0,0-.80739,2.177Z"/><path d="M75.02306,53.33762a2.08187,2.08187,0,0,0-2.32075.083l-.00055.00075L72.702,53.421l-.00065.0001.00055-.00075a2.0818,2.0818,0,0,0-.61219-2.23971Z"/><path d="M72.72862,45.99811a2.08189,2.08189,0,0,1-1.94178,1.2737l-.00088-.0003.00044.00015-.00059.0003.00088.00029a2.08181,2.08181,0,0,1,.79505,2.18151Z"/><path d="M76.7852,53.35467a2.08189,2.08189,0,0,1,2.32021.0971l.00054.00075-.00027-.00037.00065.0001-.00055-.00075a2.08183,2.08183,0,0,1,.62576-2.236Z"/><path class="cls-1" d="M74.35031,52.412l-.345-.70147L73.2337,51.598a1.77443,1.77443,0,0,1-.9793-3.024l.5583-.546-.13179-.771a1.76824,1.76824,0,0,1,2.56384-1.86893l.6901.364.6901-.364A1.76824,1.76824,0,0,1,79.1888,47.257l-.1318.771.5583.546a1.77443,1.77443,0,0,1-.9793,3.024l-.77155.11249-.34505.70147A1.76443,1.76443,0,0,1,74.35031,52.412Z"/><path d="M75.93492,53.56535a1.92,1.92,0,0,1-1.73291-1.0805l-.30659-.6232-.68564-.1a1.93981,1.93981,0,0,1-1.071-3.30575l.49636-.48538-.117-.68581a1.93342,1.93342,0,0,1,2.80373-2.04289l.613.32338.61287-.32338a1.93363,1.93363,0,0,1,2.80389,2.04289l-.11715.68581.49636.48538a1.93981,1.93981,0,0,1-1.071,3.30575l-.68564.1-.3066.6232A1.91993,1.91993,0,0,1,75.93492,53.56535Zm-1.51716-8.22094a1.61457,1.61457,0,0,0-1.574,1.88475l.14636.85621-.62029.60673a1.60908,1.60908,0,0,0,.88767,2.74226l.85766.12522.38341.77939a1.59917,1.59917,0,0,0,2.87247,0l.38341-.77939.85765-.12522a1.60909,1.60909,0,0,0,.88768-2.74226l-.62029-.60673.14652-.85621a1.60318,1.60318,0,0,0-2.324-1.695l-.76714.40471-.76729-.40471A1.60351,1.60351,0,0,0,74.41776,45.34441Z"/><path class="cls-2" d="M75.9346,47.51478a1.5078,1.5078,0,1,1-1.50716,1.5078,1.50956,1.50956,0,0,1,1.50716-1.5078m0-.33048a1.83828,1.83828,0,1,0,1.83828,1.83828A1.83806,1.83806,0,0,0,75.9346,47.1843Z"/><path d="M66.64928,57.119h-.66095a2.26042,2.26042,0,0,0-4.52083,0h-.66095a2.92137,2.92137,0,0,1,5.84273,0Z"/><circle cx="63.72795" cy="55.17806" r="0.85668"/><path d="M54.213,57.119H53.552a2.26042,2.26042,0,0,0-4.52083,0h-.66095a2.92137,2.92137,0,0,1,5.84273,0Z"/><circle cx="51.29167" cy="55.17806" r="0.85668"/><path class="cls-2" d="M57.50981,43.742a18.99639,18.99639,0,0,1,1.76641-2.35523c1.22937-1.39846,2.82236-2.815,2.87987-4.82153a2.82464,2.82464,0,0,0-1.18124-2.47488,2.10653,2.10653,0,0,0-2.50093.12587,2.149,2.149,0,0,0-.72859,1.28249c-.0222.13346-.05571.35328-.23552.35328s-.21333-.21982-.23551-.35328a2.149,2.149,0,0,0-.7286-1.28249,2.10652,2.10652,0,0,0-2.50092-.12587,2.82464,2.82464,0,0,0-1.18124,2.47488c.05749,2.00648,1.6505,3.42307,2.87985,4.82153A18.99448,18.99448,0,0,1,57.50981,43.742Z"/><path class="cls-2" d="M57.50981,33.87757a4.26637,4.26637,0,0,1,.3967-.52894,1.847,1.847,0,0,0,.64676-1.08281A.63439.63439,0,0,0,58.288,31.71a.4731.4731,0,0,0-.56166.02827.48266.48266,0,0,0-.16362.288c-.005.03-.01252.07934-.0529.07934s-.04791-.04937-.05289-.07934a.48266.48266,0,0,0-.16362-.288.4731.4731,0,0,0-.56166-.02827.63439.63439,0,0,0-.26528.55581,1.847,1.847,0,0,0,.64675,1.08281A4.26538,4.26538,0,0,1,57.50981,33.87757Z"/><path class="cls-2" d="M57.49949,83.48979a10.82342,10.82342,0,0,1-1.00643,1.3419c-.70044.79678-1.608,1.60389-1.64082,2.74709a1.60937,1.60937,0,0,0,.673,1.41008,1.2002,1.2002,0,0,0,1.42492-.07172,1.22437,1.22437,0,0,0,.41511-.7307c.01265-.076.03175-.20128.1342-.20128s.12154.12524.13418.20128a1.22439,1.22439,0,0,0,.41512.7307,1.20019,1.20019,0,0,0,1.42491.07172,1.60933,1.60933,0,0,0,.673-1.41008c-.03276-1.1432-.94038-1.95031-1.64081-2.74709A10.82135,10.82135,0,0,1,57.49949,83.48979Z"/><path class="cls-2" d="M52.93535,87.89325a4.26527,4.26527,0,0,1-.3967.52893A1.847,1.847,0,0,0,51.8919,89.505a.63435.63435,0,0,0,.26528.55581.47309.47309,0,0,0,.56166-.02827.4826.4826,0,0,0,.16362-.288c.005-.03.01251-.07934.05289-.07934s.04791.04937.05289.07934a.48262.48262,0,0,0,.16363.288.47307.47307,0,0,0,.56165.02827.63436.63436,0,0,0,.26529-.55581,1.847,1.847,0,0,0-.64676-1.08281A4.26627,4.26627,0,0,1,52.93535,87.89325Z"/><path class="cls-2" d="M62.05432,87.89325a4.26627,4.26627,0,0,1-.3967.52893,1.847,1.847,0,0,0-.64676,1.08281.63437.63437,0,0,0,.26528.55581.47309.47309,0,0,0,.56166-.02827.4826.4826,0,0,0,.16362-.288c.005-.03.01252-.07934.0529-.07934s.04791.04937.05289.07934a.4826.4826,0,0,0,.16362.288.47309.47309,0,0,0,.56166.02827.63437.63437,0,0,0,.26528-.55581,1.847,1.847,0,0,0-.64675-1.08281A4.26527,4.26527,0,0,1,62.05432,87.89325Z"/><path class="cls-2" d="M50.00414,88.98083a4.26637,4.26637,0,0,1-.3967.52894,1.84692,1.84692,0,0,0-.64675,1.08281.63432.63432,0,0,0,.26528.5558.47306.47306,0,0,0,.56165-.02827.48257.48257,0,0,0,.16363-.288c.005-.03.01251-.07933.05289-.07933s.04791.04936.05289.07933a.48262.48262,0,0,0,.16363.288.47306.47306,0,0,0,.56165.02827.63434.63434,0,0,0,.26528-.5558,1.84692,1.84692,0,0,0-.64675-1.08281A4.26637,4.26637,0,0,1,50.00414,88.98083Z"/><path class="cls-2" d="M65.00412,88.98083a4.26637,4.26637,0,0,1-.3967.52894,1.847,1.847,0,0,0-.64676,1.08281.63435.63435,0,0,0,.26529.5558.47306.47306,0,0,0,.56165-.02827.48257.48257,0,0,0,.16363-.288c.005-.03.01251-.07933.05289-.07933s.04791.04936.05289.07933a.48257.48257,0,0,0,.16363.288.47306.47306,0,0,0,.56165.02827.63434.63434,0,0,0,.26528-.5558,1.84692,1.84692,0,0,0-.64675-1.08281A4.26538,4.26538,0,0,1,65.00412,88.98083Z"/><path class="cls-2" d="M47.06363,90.84924a4.26637,4.26637,0,0,1-.3967.52894,1.84692,1.84692,0,0,0-.64675,1.08281.63437.63437,0,0,0,.26528.55581.47309.47309,0,0,0,.56165-.02827.48263.48263,0,0,0,.16363-.288c.005-.03.01251-.07934.05289-.07934s.04791.04936.05289.07934a.48268.48268,0,0,0,.16363.288.47309.47309,0,0,0,.56165.02827.63435.63435,0,0,0,.26528-.55581,1.84692,1.84692,0,0,0-.64675-1.08281A4.26637,4.26637,0,0,1,47.06363,90.84924Z"/><path class="cls-2" d="M67.91674,90.84924a4.26637,4.26637,0,0,1-.3967.52894,1.84692,1.84692,0,0,0-.64675,1.08281.63435.63435,0,0,0,.26528.55581.47309.47309,0,0,0,.56165-.02827.48263.48263,0,0,0,.16363-.288c.005-.03.01251-.07934.05289-.07934s.04791.04936.05289.07934a.48268.48268,0,0,0,.16363.288.47309.47309,0,0,0,.56165.02827.63435.63435,0,0,0,.26528-.55581,1.84692,1.84692,0,0,0-.64675-1.08281A4.26637,4.26637,0,0,1,67.91674,90.84924Z"/><path class="cls-2" d="M57.49016,100.31818a1.92994,1.92994,0,1,1,1.92994-1.92994,1.93187,1.93187,0,0,1-1.92994,1.92994m0,.66095a2.59089,2.59089,0,1,0-2.59089-2.59089,2.5912,2.5912,0,0,0,2.59089,2.59089Z"/><path d="M57.49016,92.55164A11.74367,11.74367,0,0,1,69.22065,104.282H68.5597a11.06946,11.06946,0,0,0-22.13892,0h-.66095A11.74353,11.74353,0,0,1,57.49016,92.55164Z"/><rect x="57.15968" y="104.37298" width="0.66095" height="3.68624"/><rect class="cls-2" x="68.52179" y="93.85433" width="7.37076" height="27.99762" rx="3.68538"/><rect class="cls-2" x="39.08782" y="93.85433" width="7.37076" height="27.99762" rx="3.68538"/><path d="M64.85622,126.87193a3.871,3.871,0,0,1,3.683,2.70578v-10.8212a3.68274,3.68274,0,0,0-3.68237-3.683h-.00064a3.68274,3.68274,0,0,0-3.68237,3.683v10.8212A3.87136,3.87136,0,0,1,64.85622,126.87193Z"/><path d="M57.49019,126.87193a3.87218,3.87218,0,0,1,3.683,2.70578v-10.8212a3.68316,3.68316,0,0,0-3.68237-3.683h-.00064a3.68274,3.68274,0,0,0-3.68237,3.683v10.8212A3.87076,3.87076,0,0,1,57.49019,126.87193Z"/><path d="M50.12351,126.87193a3.87156,3.87156,0,0,1,3.683,2.70578v-10.8212a3.68274,3.68274,0,0,0-3.68237-3.683h-.00064a3.68274,3.68274,0,0,0-3.68237,3.683v10.8212A3.87137,3.87137,0,0,1,50.12351,126.87193Z"/><path d="M40.89179,121.96474a2.08188,2.08188,0,0,0-1.82049,1.44173v.00046l-.00047.00047v-.00093a2.0818,2.0818,0,0,0-1.82-1.44173Z"/><path d="M35.85166,120.94477a2.08186,2.08186,0,0,0-1.93453-1.28467l-.00088.00028.00044-.00014-.00058-.0003.00088-.00029a2.0818,2.0818,0,0,0,.80739-2.177Z"/><path d="M39.97694,113.66238a2.08187,2.08187,0,0,0,2.32075-.083l.00055-.00075-.00027.00037.00065-.0001-.00055.00075a2.0818,2.0818,0,0,0,.61219,2.23971Z"/><path d="M42.27138,121.00189a2.08189,2.08189,0,0,1,1.94178-1.2737l.00088.0003-.00044-.00015.00059-.0003-.00088-.00029a2.08181,2.08181,0,0,1-.79505-2.18151Z"/><path d="M38.2148,113.64533a2.08189,2.08189,0,0,1-2.32021-.0971l-.00054-.00075.00027.00037-.00065-.0001.00055.00075a2.08183,2.08183,0,0,1-.62576,2.236Z"/><path class="cls-1" d="M40.64969,114.588l.34505.70147.77156.11249a1.77443,1.77443,0,0,1,.9793,3.024l-.5583.546.13179.771a1.76824,1.76824,0,0,1-2.56384,1.86893l-.6901-.364-.6901.364A1.76824,1.76824,0,0,1,35.8112,119.743l.1318-.771-.5583-.546a1.77443,1.77443,0,0,1,.9793-3.024l.77155-.11249.34505-.70147A1.76443,1.76443,0,0,1,40.64969,114.588Z"/><path d="M39.06508,113.43465a1.92,1.92,0,0,1,1.73291,1.0805l.30659.6232.68564.1a1.93981,1.93981,0,0,1,1.071,3.30575l-.49636.48538.117.68581a1.93342,1.93342,0,0,1-2.80373,2.04289l-.613-.32338-.61287.32338a1.93363,1.93363,0,0,1-2.80389-2.04289l.11715-.68581-.49636-.48538a1.93981,1.93981,0,0,1,1.071-3.30575l.68564-.1.3066-.6232A1.91993,1.91993,0,0,1,39.06508,113.43465Zm1.51716,8.22094a1.61457,1.61457,0,0,0,1.574-1.88475l-.14636-.85621.62029-.60673a1.60908,1.60908,0,0,0-.88767-2.74226l-.85766-.12522-.38341-.77939a1.59917,1.59917,0,0,0-2.87247,0l-.38341.77939-.85765.12522a1.60909,1.60909,0,0,0-.88768,2.74226l.62029.60673-.14652.85621a1.60318,1.60318,0,0,0,2.324,1.695l.76714-.40471.76729.40471A1.60351,1.60351,0,0,0,40.58224,121.65559Z"/><path class="cls-2" d="M39.0654,119.48522a1.5078,1.5078,0,1,1,1.50716-1.5078,1.50956,1.50956,0,0,1-1.50716,1.5078m0,.33048a1.83828,1.83828,0,1,0-1.83828-1.83828,1.83806,1.83806,0,0,0,1.83828,1.83828Z"/><path d="M48.35072,109.88105h.66095a2.26042,2.26042,0,0,0,4.52083,0h.66095a2.92137,2.92137,0,0,1-5.84273,0Z"/><circle cx="51.27205" cy="111.82194" r="0.85668"/><path d="M60.787,109.88105H61.448a2.26042,2.26042,0,0,0,4.52083,0h.66095a2.92137,2.92137,0,0,1-5.84273,0Z"/><circle cx="63.70833" cy="111.82194" r="0.85668"/><path class="cls-2" d="M57.49019,123.258a18.99639,18.99639,0,0,1-1.76641,2.35523c-1.22937,1.39846-2.82236,2.815-2.87987,4.82153a2.82464,2.82464,0,0,0,1.18124,2.47488,2.10653,2.10653,0,0,0,2.50093-.12587,2.149,2.149,0,0,0,.72859-1.28249c.0222-.13346.05571-.35328.23552-.35328s.21333.21982.23551.35328a2.149,2.149,0,0,0,.7286,1.28249,2.10652,2.10652,0,0,0,2.50092.12587,2.82464,2.82464,0,0,0,1.18124-2.47488c-.05749-2.00648-1.6505-3.42307-2.87985-4.82153A18.99448,18.99448,0,0,1,57.49019,123.258Z"/><path class="cls-2" d="M57.49019,133.12243a4.26637,4.26637,0,0,1-.3967.52894,1.847,1.847,0,0,0-.64676,1.08281.63439.63439,0,0,0,.26528.55581.4731.4731,0,0,0,.56166-.02827.48266.48266,0,0,0,.16362-.288c.005-.03.01252-.07934.0529-.07934s.04791.04937.05289.07934a.48266.48266,0,0,0,.16362.288.4731.4731,0,0,0,.56166.02827.63439.63439,0,0,0,.26528-.55581,1.847,1.847,0,0,0-.64675-1.08281A4.26538,4.26538,0,0,1,57.49019,133.12243Z"/></g></svg>