<svg xmlns="http://www.w3.org/2000/svg" viewBox="0 0 115 167"><defs><style>.cls-1{fill:#fff;}</style></defs><title>card-clubs-9</title><g id="artwork"><rect class="cls-1" width="115" height="167" rx="8"/><path d="M10.54986,24.43254l-.54993-.08409.14845-1.31434a27.80078,27.80078,0,0,0,3.68044.25356q3.80694,0,3.84954-4.87443a10.79805,10.79805,0,0,1-3.63783.80464q-4.568,0-4.56859-4.25994a4.45883,4.45883,0,0,1,1.31158-3.39062,4.90745,4.90745,0,0,1,3.532-1.251q5.054,0,5.05527,7.4604,0,3.62478-1.37613,5.28839a5.08847,5.08847,0,0,1-4.16582,1.66362A19.479,19.479,0,0,1,10.54986,24.43254ZM17.14908,17.205l.54994-.19146q-.0639-5.25475-3.38352-5.256a3.07763,3.07763,0,0,0-2.31593.859,3.21128,3.21128,0,0,0-.83652,2.34148q0,2.81947,3.004,2.81883A9.33322,9.33322,0,0,0,17.14908,17.205Z"/><path d="M21.43021,39.48917a2.94335,2.94335,0,0,0-2.90339-2.171,2.73364,2.73364,0,0,0-1.27754.38047c-.20655.12343-.5948.364-.773.06089-.16133-.27453.13316-.53068.3094-.69987a2.92875,2.92875,0,0,0,.84295-1.57121A3.0817,3.0817,0,0,0,16.243,32.36665a3.21784,3.21784,0,0,0-3.43131,0,3.08168,3.08168,0,0,0-1.38563,3.12179,2.92879,2.92879,0,0,0,.84293,1.57121c.17626.16919.47073.42534.30942.69987-.17819.30312-.56644.06254-.773-.06089a2.73357,2.73357,0,0,0-1.27754-.38047,2.94336,2.94336,0,0,0-2.90339,2.171,3.18506,3.18506,0,0,0,1.4932,3.56569,3.226,3.226,0,0,0,4.72371-1.99165h.26275a3.5549,3.5549,0,0,1-.52553,2.62869,3.50036,3.50036,0,0,1-.94855.95062V45.118h3.79454v-.47545a3.50081,3.50081,0,0,1-.94856-.95062,3.55494,3.55494,0,0,1-.52552-2.62869h.26277A3.226,3.226,0,0,0,19.937,43.05486,3.18506,3.18506,0,0,0,21.43021,39.48917Z"/><path d="M104.4532,142.56876l.54994.08408-.14717,1.31434a27.83748,27.83748,0,0,0-3.68043-.25485q-3.80889,0-3.84955,4.87443a10.78548,10.78548,0,0,1,3.63784-.80464q4.56793,0,4.56859,4.25994a4.46359,4.46359,0,0,1-1.31158,3.39062,4.90193,4.90193,0,0,1-3.532,1.25095q-5.054,0-5.05527-7.4604,0-3.62478,1.37484-5.28839a5.09509,5.09509,0,0,1,4.16711-1.66362A19.45866,19.45866,0,0,1,104.4532,142.56876ZM97.854,149.795l-.54993.19146q.0639,5.25669,3.38481,5.25605a3.08581,3.08581,0,0,0,2.31592-.85768,3.21383,3.21383,0,0,0,.83523-2.34278q0-2.81948-3.004-2.81883A9.37529,9.37529,0,0,0,97.854,149.795Z"/><path d="M93.56979,127.4903a2.94337,2.94337,0,0,0,2.90339,2.171,2.73387,2.73387,0,0,0,1.27754-.38047c.20655-.12344.5948-.364.773-.0609.16133.27453-.13316.53068-.3094.69987a2.92875,2.92875,0,0,0-.843,1.57121,3.0817,3.0817,0,0,0,1.38563,3.12179,3.21784,3.21784,0,0,0,3.43131,0,3.08168,3.08168,0,0,0,1.38563-3.12179,2.92879,2.92879,0,0,0-.84293-1.57121c-.17626-.16919-.47073-.42534-.30942-.69987.17819-.30311.56644-.06254.773.0609a2.7338,2.7338,0,0,0,1.27754.38047,2.94338,2.94338,0,0,0,2.90339-2.171,3.18506,3.18506,0,0,0-1.4932-3.56569,3.226,3.226,0,0,0-4.72371,1.99165h-.26275a3.5549,3.5549,0,0,1,.52553-2.62869,3.50036,3.50036,0,0,1,.94855-.95062v-.47545H98.57536v.47545a3.50081,3.50081,0,0,1,.94856.95062,3.55494,3.55494,0,0,1,.52552,2.62869h-.26277a3.226,3.226,0,0,0-4.72369-1.99165A3.18506,3.18506,0,0,0,93.56979,127.4903Z"/><path d="M46.70369,29.45894a4.415,4.415,0,0,0-4.35507-3.25653,4.10054,4.10054,0,0,0-1.91631.57071c-.30982.18514-.8922.546-1.15947.09134-.242-.4118.19975-.796.46411-1.04981a4.39316,4.39316,0,0,0,1.26443-2.35681,4.62258,4.62258,0,0,0-2.07845-4.68269,4.82676,4.82676,0,0,0-5.147,0,4.62251,4.62251,0,0,0-2.07845,4.68269,4.39316,4.39316,0,0,0,1.26439,2.35681c.26439.25379.7061.638.46414,1.04981-.26729.45467-.84967.0938-1.15949-.09134a4.10047,4.10047,0,0,0-1.91631-.57071,4.415,4.415,0,0,0-4.35508,3.25653A4.77758,4.77758,0,0,0,28.235,34.80747,4.83908,4.83908,0,0,0,35.32052,31.82h.39413a5.33241,5.33241,0,0,1-.78828,3.943A5.25094,5.25094,0,0,1,33.50353,37.189v.71318h5.69181V37.189A5.2515,5.2515,0,0,1,37.7725,35.763a5.33251,5.33251,0,0,1-.78828-3.943h.39415a4.839,4.839,0,0,0,7.08554,2.98747A4.77756,4.77756,0,0,0,46.70369,29.45894Z"/><path d="M89.00483,29.45894a4.415,4.415,0,0,0-4.35508-3.25653,4.10058,4.10058,0,0,0-1.91631.57071c-.30982.18514-.8922.546-1.15946.09134-.242-.4118.19975-.796.46411-1.04981a4.39321,4.39321,0,0,0,1.26442-2.35681,4.62257,4.62257,0,0,0-2.07845-4.68269,4.82676,4.82676,0,0,0-5.147,0,4.62255,4.62255,0,0,0-2.07845,4.68269,4.39311,4.39311,0,0,0,1.2644,2.35681c.26438.25379.70609.638.46413,1.04981-.26729.45467-.84966.0938-1.15949-.09134a4.1004,4.1004,0,0,0-1.91631-.57071,4.415,4.415,0,0,0-4.35508,3.25653,4.77757,4.77757,0,0,0,2.2398,5.34853A4.83908,4.83908,0,0,0,77.62166,31.82h.39412a5.33241,5.33241,0,0,1-.78828,3.943A5.25094,5.25094,0,0,1,75.80466,37.189v.71318h5.69181V37.189A5.25164,5.25164,0,0,1,80.07363,35.763a5.33255,5.33255,0,0,1-.78828-3.943h.39416A4.839,4.839,0,0,0,86.765,34.80747,4.77757,4.77757,0,0,0,89.00483,29.45894Z"/><path d="M25.99517,137.54106a4.415,4.415,0,0,0,4.35508,3.25653,4.10058,4.10058,0,0,0,1.91631-.57071c.30982-.18514.8922-.546,1.15946-.09134.242.4118-.19975.796-.46411,1.04981a4.39321,4.39321,0,0,0-1.26442,2.35681,4.62257,4.62257,0,0,0,2.07845,4.68269,4.82676,4.82676,0,0,0,5.147,0,4.62255,4.62255,0,0,0,2.07845-4.68269,4.39311,4.39311,0,0,0-1.2644-2.35681c-.26438-.25379-.70609-.638-.46413-1.04981.26729-.45467.84966-.0938,1.15949.09134a4.1004,4.1004,0,0,0,1.91631.57071,4.415,4.415,0,0,0,4.35508-3.25653,4.77757,4.77757,0,0,0-2.2398-5.34853A4.83908,4.83908,0,0,0,37.37834,135.18h-.39412a5.33241,5.33241,0,0,1,.78828-3.943,5.25094,5.25094,0,0,1,1.42284-1.42593v-.71318H33.50353v.71318a5.25164,5.25164,0,0,1,1.42284,1.42593,5.33255,5.33255,0,0,1,.78828,3.943h-.39416a4.839,4.839,0,0,0-7.08553-2.98747A4.77757,4.77757,0,0,0,25.99517,137.54106Z"/><path d="M68.29631,137.54106a4.415,4.415,0,0,0,4.35507,3.25653,4.10054,4.10054,0,0,0,1.91631-.57071c.30982-.18514.8922-.546,1.15947-.09134.242.4118-.19975.796-.46411,1.04981a4.39316,4.39316,0,0,0-1.26443,2.35681,4.62258,4.62258,0,0,0,2.07845,4.68269,4.82676,4.82676,0,0,0,5.147,0,4.62251,4.62251,0,0,0,2.07845-4.68269,4.39316,4.39316,0,0,0-1.26439-2.35681c-.26439-.25379-.7061-.638-.46414-1.04981.26729-.45467.84967-.0938,1.15949.09134a4.10047,4.10047,0,0,0,1.91631.57071,4.415,4.415,0,0,0,4.35508-3.25653,4.77758,4.77758,0,0,0-2.23979-5.34853A4.83908,4.83908,0,0,0,79.67948,135.18h-.39413a5.33241,5.33241,0,0,1,.78828-3.943,5.25094,5.25094,0,0,1,1.42284-1.42593v-.71318H75.80466v.71318A5.2515,5.2515,0,0,1,77.2275,131.237a5.33251,5.33251,0,0,1,.78828,3.943h-.39415a4.839,4.839,0,0,0-7.08554-2.98747A4.77756,4.77756,0,0,0,68.29631,137.54106Z"/><path d="M46.70369,66.48093a4.415,4.415,0,0,0-4.35507-3.25652,4.10065,4.10065,0,0,0-1.91631.5707c-.30982.18515-.8922.546-1.15947.09135-.242-.41181.19975-.796.46411-1.04982a4.39309,4.39309,0,0,0,1.26443-2.3568,4.6226,4.6226,0,0,0-2.07845-4.6827,4.82681,4.82681,0,0,0-5.147,0,4.62253,4.62253,0,0,0-2.07845,4.6827,4.3931,4.3931,0,0,0,1.26439,2.3568c.26439.2538.7061.638.46414,1.04982-.26729.45467-.84967.0938-1.15949-.09135a4.10058,4.10058,0,0,0-1.91631-.5707,4.415,4.415,0,0,0-4.35508,3.25652A4.77759,4.77759,0,0,0,28.235,71.82947,4.83908,4.83908,0,0,0,35.32052,68.842h.39413a5.3324,5.3324,0,0,1-.78828,3.943A5.251,5.251,0,0,1,33.50353,74.211v.71317h5.69181V74.211A5.25154,5.25154,0,0,1,37.7725,72.785a5.33249,5.33249,0,0,1-.78828-3.943h.39415a4.839,4.839,0,0,0,7.08554,2.98748A4.77757,4.77757,0,0,0,46.70369,66.48093Z"/><path d="M89.00483,66.48093a4.415,4.415,0,0,0-4.35508-3.25652,4.10068,4.10068,0,0,0-1.91631.5707c-.30982.18515-.8922.546-1.15946.09135-.242-.41181.19975-.796.46411-1.04982a4.39314,4.39314,0,0,0,1.26442-2.3568,4.62258,4.62258,0,0,0-2.07845-4.6827,4.82681,4.82681,0,0,0-5.147,0,4.62256,4.62256,0,0,0-2.07845,4.6827,4.393,4.393,0,0,0,1.2644,2.3568c.26438.2538.70609.638.46413,1.04982-.26729.45467-.84966.0938-1.15949-.09135a4.10051,4.10051,0,0,0-1.91631-.5707,4.415,4.415,0,0,0-4.35508,3.25652,4.77758,4.77758,0,0,0,2.2398,5.34854A4.83908,4.83908,0,0,0,77.62166,68.842h.39412a5.3324,5.3324,0,0,1-.78828,3.943A5.251,5.251,0,0,1,75.80466,74.211v.71317h5.69181V74.211A5.25168,5.25168,0,0,1,80.07363,72.785a5.33253,5.33253,0,0,1-.78828-3.943h.39416A4.839,4.839,0,0,0,86.765,71.82947,4.77758,4.77758,0,0,0,89.00483,66.48093Z"/><path d="M68.29631,100.51907a4.415,4.415,0,0,0,4.35507,3.25652,4.10065,4.10065,0,0,0,1.91631-.5707c.30982-.18515.8922-.546,1.15947-.09135.242.41181-.19975.796-.46411,1.04982a4.39309,4.39309,0,0,0-1.26443,2.3568,4.6226,4.6226,0,0,0,2.07845,4.6827,4.82681,4.82681,0,0,0,5.147,0,4.62253,4.62253,0,0,0,2.07845-4.6827,4.3931,4.3931,0,0,0-1.26439-2.3568c-.26439-.2538-.7061-.638-.46414-1.04982.26729-.45467.84967-.0938,1.15949.09135a4.10058,4.10058,0,0,0,1.91631.5707,4.415,4.415,0,0,0,4.35508-3.25652A4.77759,4.77759,0,0,0,86.765,95.17053,4.83908,4.83908,0,0,0,79.67948,98.158h-.39413a5.3324,5.3324,0,0,1,.78828-3.943A5.251,5.251,0,0,1,81.49647,92.789v-.71317H75.80466V92.789A5.25154,5.25154,0,0,1,77.2275,94.215a5.33249,5.33249,0,0,1,.78828,3.943h-.39415a4.839,4.839,0,0,0-7.08554-2.98748A4.77757,4.77757,0,0,0,68.29631,100.51907Z"/><path d="M25.99517,100.51907a4.415,4.415,0,0,0,4.35508,3.25652,4.10068,4.10068,0,0,0,1.91631-.5707c.30982-.18515.8922-.546,1.15946-.09135.242.41181-.19975.796-.46411,1.04982a4.39314,4.39314,0,0,0-1.26442,2.3568,4.62258,4.62258,0,0,0,2.07845,4.6827,4.82681,4.82681,0,0,0,5.147,0,4.62256,4.62256,0,0,0,2.07845-4.6827,4.393,4.393,0,0,0-1.2644-2.3568c-.26438-.2538-.70609-.638-.46413-1.04982.26729-.45467.84966-.0938,1.15949.09135a4.10051,4.10051,0,0,0,1.91631.5707,4.415,4.415,0,0,0,4.35508-3.25652,4.77758,4.77758,0,0,0-2.2398-5.34854A4.83908,4.83908,0,0,0,37.37834,98.158h-.39412a5.3324,5.3324,0,0,1,.78828-3.943A5.251,5.251,0,0,1,39.19534,92.789v-.71317H33.50353V92.789A5.25168,5.25168,0,0,1,34.92637,94.215a5.33253,5.33253,0,0,1,.78828,3.943h-.39416A4.839,4.839,0,0,0,28.235,95.17053,4.77758,4.77758,0,0,0,25.99517,100.51907Z"/><path d="M67.85426,84.99193a4.415,4.415,0,0,0-4.35508-3.25652,4.10068,4.10068,0,0,0-1.91631.5707c-.30982.18515-.8922.546-1.15946.09135-.242-.41181.19975-.796.46411-1.04982a4.39314,4.39314,0,0,0,1.26442-2.3568,4.62258,4.62258,0,0,0-2.07845-4.6827,4.82681,4.82681,0,0,0-5.147,0,4.62254,4.62254,0,0,0-2.07844,4.6827,4.393,4.393,0,0,0,1.26439,2.3568c.26439.2538.7061.638.46414,1.04982-.26729.45467-.84967.0938-1.15949-.09135a4.10058,4.10058,0,0,0-1.91632-.5707,4.415,4.415,0,0,0-4.35507,3.25652,4.77758,4.77758,0,0,0,2.23979,5.34854A4.83908,4.83908,0,0,0,56.47109,87.353h.39412a5.3323,5.3323,0,0,1-.78828,3.943A5.2508,5.2508,0,0,1,54.6541,92.722v.71317h5.69181V92.722A5.25154,5.25154,0,0,1,58.92307,91.296a5.33244,5.33244,0,0,1-.78828-3.943h.39415a4.839,4.839,0,0,0,7.08553,2.98748A4.77756,4.77756,0,0,0,67.85426,84.99193Z"/></g></svg>