<svg xmlns="http://www.w3.org/2000/svg" viewBox="0 0 115 167"><defs><style>.cls-1{fill:#fff;}.cls-2{fill:#ff3b5c;}</style></defs><title>card-diamonds-2</title><g id="artwork"><rect class="cls-1" width="115" height="167" rx="8"/><path class="cls-2" d="M10.06769,23.14147l4.08191-4.30241q.973-1.01675,1.51232-1.64153a6.7041,6.7041,0,0,0,.92043-1.388,3.48262,3.48262,0,0,0,.38082-1.5691,2.26407,2.26407,0,0,0-.71969-1.89637,3.81161,3.81161,0,0,0-2.32625-.56141,15.3403,15.3403,0,0,0-3.0666.35961l-.54993.10607-.12716-1.35695a14.95527,14.95527,0,0,1,4.14582-.57176,4.9049,4.9049,0,0,1,3.246.912A3.53,3.53,0,0,1,18.63363,14.071a5.0067,5.0067,0,0,1-.63449,2.54316A13.34124,13.34124,0,0,1,15.71485,19.306l-3.72239,3.794h7.0007v1.42033H10.06769Z"/><path class="cls-2" d="M104.85338,143.85853l-4.08191,4.30241q-.973,1.01674-1.51233,1.64283a6.61645,6.61645,0,0,0-.91978,1.388,3.465,3.465,0,0,0-.38082,1.5678,2.26575,2.26575,0,0,0,.719,1.89637,3.79929,3.79929,0,0,0,2.32625.5627,15.27785,15.27785,0,0,0,3.06725-.3609l.54993-.10607.12651,1.357a14.90585,14.90585,0,0,1-4.14517.57176,4.913,4.913,0,0,1-3.24668-.91068,3.53466,3.53466,0,0,1-1.06824-2.84067,5.00027,5.00027,0,0,1,.63449-2.54316,13.39857,13.39857,0,0,1,2.2843-2.69191l3.72239-3.79274h-7.0007v-1.42034h8.92547Z"/><path class="cls-2" d="M14.53018,45.15614Q13.0483,43.34048,11.39066,41.679,9.7354,40.02056,7.92061,38.53306q1.81194-1.48485,3.47005-3.1459,1.65522-1.65867,3.13952-3.47716,1.48181,1.81566,3.13947,3.47716,1.65527,1.65859,3.47006,3.1459-1.812,1.4849-3.47006,3.14593Q16.01466,43.33759,14.53018,45.15614Z"/><path class="cls-2" d="M100.46986,135.01577q-1.48188-1.81566-3.13951-3.47715-1.65528-1.65843-3.47006-3.14593,1.812-1.48485,3.47006-3.1459,1.65521-1.65866,3.13951-3.47715,1.48182,1.81566,3.13948,3.47715,1.65527,1.65859,3.47005,3.1459-1.812,1.4849-3.47005,3.14593Q101.95433,133.19723,100.46986,135.01577Z"/><path class="cls-2" d="M57.5,38.00805q-2.22282-2.72347-4.70927-5.21572-2.48291-2.48766-5.20508-4.7189,2.71791-2.22727,5.20508-4.71885,2.48282-2.488,4.70927-5.21573,2.22271,2.72349,4.70921,5.21573,2.48291,2.4879,5.20508,4.71885-2.71793,2.22735-5.20508,4.7189Q59.72674,35.28023,57.5,38.00805Z"/><path class="cls-2" d="M57.5,148.86115q-2.22282-2.72349-4.70927-5.21573-2.48291-2.48765-5.20508-4.7189,2.71791-2.22728,5.20508-4.71885,2.48282-2.488,4.70927-5.21572,2.22271,2.72348,4.70921,5.21572,2.48291,2.4879,5.20508,4.71885-2.71793,2.22735-5.20508,4.7189Q59.72674,146.13332,57.5,148.86115Z"/></g></svg>