<svg xmlns="http://www.w3.org/2000/svg" viewBox="0 0 115 167"><defs><style>.cls-1{fill:#fff;}.cls-2{fill:#ff3b5c;}</style></defs><title>card-hearts-5</title><g id="artwork"><rect class="cls-1" width="115" height="167" rx="8"/><path class="cls-2" d="M10.64878,24.24424l-.69839-.14876.19106-1.29228a21.93386,21.93386,0,0,0,4.10257.46569,3.38511,3.38511,0,0,0,2.485-.84729,3.24527,3.24527,0,0,0,.85718-2.41639,2.77386,2.77386,0,0,0-.75132-2.1719,3.23089,3.23089,0,0,0-2.21007-.66748,6.64529,6.64529,0,0,0-1.53362.20051,7.53471,7.53471,0,0,0-1.34257.43463l-.44408.21215L10.184,17.801l.37953-7.26985h8.14317v1.485h-6.789l-.38082,4.55594a6.90324,6.90324,0,0,1,3.279-.86927q4.44014,0,4.44079,4.133a4.99406,4.99406,0,0,1-1.21606,3.61293,4.58129,4.58129,0,0,1-3.45839,1.26252A18.36911,18.36911,0,0,1,10.64878,24.24424Z"/><path class="cls-2" d="M14.54128,45.24088a25.15043,25.15043,0,0,1,2.33443-3.11895c1.62468-1.85194,3.72992-3.72788,3.80593-6.385a3.74339,3.74339,0,0,0-1.56109-3.27742,2.77942,2.77942,0,0,0-3.30514.1667,2.84721,2.84721,0,0,0-.96287,1.69836c-.02934.17673-.07364.46783-.31126.46783s-.28193-.2911-.31125-.46783a2.84722,2.84722,0,0,0-.96288-1.69836,2.77941,2.77941,0,0,0-3.30513-.1667,3.74342,3.74342,0,0,0-1.56109,3.27742c.076,2.65711,2.18125,4.53305,3.80591,6.385A25.14951,25.14951,0,0,1,14.54128,45.24088Z"/><path class="cls-2" d="M104.352,142.75706l.6971.14876-.18976,1.29227a21.947,21.947,0,0,0-4.10386-.46568,3.3892,3.3892,0,0,0-2.485.84728,3.24983,3.24983,0,0,0-.85588,2.41639,2.77818,2.77818,0,0,0,.75,2.1719,3.23448,3.23448,0,0,0,2.21136.66748,6.56255,6.56255,0,0,0,1.53233-.2018,7.45728,7.45728,0,0,0,1.34385-.43334l.44408-.21215,1.12053.21215-.38083,7.26856H96.29277v-1.48243h6.789l.38211-4.55724a6.90691,6.90691,0,0,1-3.27895.86928q-4.44209,0-4.44208-4.13295a5.002,5.002,0,0,1,1.21734-3.61423,4.577,4.577,0,0,1,3.45711-1.25994A18.36414,18.36414,0,0,1,104.352,142.75706Z"/><path class="cls-2" d="M100.45872,121.93624a25.15192,25.15192,0,0,1-2.33443,3.11895c-1.62468,1.85194-3.72992,3.72788-3.80593,6.385a3.74337,3.74337,0,0,0,1.56109,3.27741,2.77941,2.77941,0,0,0,3.30514-.16669,2.84721,2.84721,0,0,0,.96287-1.69836c.02934-.17673.07364-.46783.31126-.46783s.28193.2911.31125.46783a2.84722,2.84722,0,0,0,.96288,1.69836,2.77939,2.77939,0,0,0,3.30513.16669,3.7434,3.7434,0,0,0,1.56109-3.27741c-.076-2.65711-2.18125-4.53305-3.80591-6.385A25.151,25.151,0,0,1,100.45872,121.93624Z"/><path class="cls-2" d="M57.5,93.4346a37.72885,37.72885,0,0,1,3.50165-4.67843c2.437-2.77791,5.59489-5.59182,5.7089-9.57748a5.61512,5.61512,0,0,0-2.34163-4.91613,4.16914,4.16914,0,0,0-4.95772.25005,4.27085,4.27085,0,0,0-1.4443,2.54754c-.044.26509-.11045.70174-.4669.70174s-.42288-.43665-.46686-.70174a4.27084,4.27084,0,0,0-1.44433-2.54754,4.16909,4.16909,0,0,0-4.95769-.25005,5.61512,5.61512,0,0,0-2.34163,4.91613c.114,3.98566,3.27187,6.79957,5.70887,9.57748A37.72479,37.72479,0,0,1,57.5,93.4346Z"/><path class="cls-2" d="M36.34942,37.7144A37.72636,37.72636,0,0,1,39.85107,33.036c2.437-2.77791,5.59489-5.59182,5.70889-9.57749a5.61509,5.61509,0,0,0-2.34162-4.91612,4.16912,4.16912,0,0,0-4.95772.25,4.27086,4.27086,0,0,0-1.44431,2.54754c-.044.2651-.11045.70175-.46689.70175s-.42289-.43665-.46687-.70175a4.27088,4.27088,0,0,0-1.44432-2.54754,4.16909,4.16909,0,0,0-4.9577-.25,5.61513,5.61513,0,0,0-2.34163,4.91612c.114,3.98567,3.27187,6.79958,5.70887,9.57749A37.72337,37.72337,0,0,1,36.34942,37.7144Z"/><path class="cls-2" d="M36.34945,129.2856A37.72736,37.72736,0,0,1,32.8478,133.964c-2.437,2.77791-5.59489,5.59182-5.7089,9.57749a5.61513,5.61513,0,0,0,2.34163,4.91612,4.16912,4.16912,0,0,0,4.95772-.25,4.2708,4.2708,0,0,0,1.4443-2.54754c.044-.2651.11046-.70175.4669-.70175s.42289.43665.46686.70175a4.27089,4.27089,0,0,0,1.44433,2.54754,4.16909,4.16909,0,0,0,4.9577.25A5.61509,5.61509,0,0,0,45.56,143.54152c-.114-3.98567-3.27186-6.79958-5.70886-9.57749A37.72238,37.72238,0,0,1,36.34945,129.2856Z"/><path class="cls-2" d="M78.65055,37.7144A37.72736,37.72736,0,0,1,82.1522,33.036c2.437-2.77791,5.59489-5.59182,5.7089-9.57749a5.61513,5.61513,0,0,0-2.34163-4.91612,4.16912,4.16912,0,0,0-4.95772.25,4.2708,4.2708,0,0,0-1.4443,2.54754c-.044.2651-.11046.70175-.4669.70175s-.42289-.43665-.46686-.70175a4.27089,4.27089,0,0,0-1.44433-2.54754,4.16909,4.16909,0,0,0-4.9577-.25A5.61509,5.61509,0,0,0,69.44,23.45848c.114,3.98567,3.27186,6.79958,5.70886,9.57749A37.72238,37.72238,0,0,1,78.65055,37.7144Z"/><path class="cls-2" d="M78.65058,129.2856a37.72636,37.72636,0,0,1-3.50165,4.67843c-2.437,2.77791-5.59489,5.59182-5.70889,9.57749a5.61509,5.61509,0,0,0,2.34162,4.91612,4.16912,4.16912,0,0,0,4.95772-.25,4.27086,4.27086,0,0,0,1.44431-2.54754c.044-.2651.11045-.70175.46689-.70175s.42289.43665.46687.70175a4.27088,4.27088,0,0,0,1.44432,2.54754,4.16909,4.16909,0,0,0,4.9577.25,5.61513,5.61513,0,0,0,2.34163-4.91612c-.114-3.98567-3.27187-6.79958-5.70887-9.57749A37.72337,37.72337,0,0,1,78.65058,129.2856Z"/></g></svg>