<svg xmlns="http://www.w3.org/2000/svg" viewBox="0 0 87 127"><defs><style>.cls-1{fill:#fff;}.cls-2{fill:#ff3b5c;}</style></defs><title>card-diamonds-9</title><g id="artwork"><rect class="cls-1" x="0.00232" width="86.99536" height="127" rx="6"/><path class="cls-2" d="M7.985,18.81673l-.416-.06459.1123-.99427a21.03628,21.03628,0,0,0,2.78418.19279q2.87988,0,2.91211-3.68839a8.14475,8.14475,0,0,1-2.752.60968q-3.457,0-3.45606-3.22257a3.37973,3.37973,0,0,1,.99121-2.56593,3.716,3.716,0,0,1,2.67285-.94533q3.82325,0,3.82325,5.64365a6.24736,6.24736,0,0,1-1.03907,4.00057,3.85566,3.85566,0,0,1-3.15234,1.2585A14.82849,14.82849,0,0,1,7.985,18.81673Zm4.99219-5.46848.416-.14386q-.04833-3.97659-2.55957-3.9761a2.32816,2.32816,0,0,0-1.75195.6498,2.4288,2.4288,0,0,0-.63184,1.77129q0,2.13141,2.27149,2.13239A7.03738,7.03738,0,0,0,12.97714,13.34825Z"/><path class="cls-2" d="M78.95565,108.18361l.416.06459-.11133.99427a21.05876,21.05876,0,0,0-2.78418-.19279q-2.88135,0-2.91211,3.68839a8.14,8.14,0,0,1,2.752-.60967q3.45556,0,3.456,3.22257a3.38029,3.38029,0,0,1-.99219,2.56592,3.71192,3.71192,0,0,1-2.67187.94534q-3.82325,0-3.82422-5.64366a6.247,6.247,0,0,1,1.04-4.00057,3.85436,3.85436,0,0,1,3.15234-1.25849A14.81723,14.81723,0,0,1,78.95565,108.18361Zm-4.99218,5.46849-.416.14385q.04834,3.97659,2.56055,3.9761a2.33113,2.33113,0,0,0,1.75195-.6498,2.42873,2.42873,0,0,0,.63184-1.77128q0-2.13143-2.27246-2.1324A7.04212,7.04212,0,0,0,73.96347,113.6521Z"/><path class="cls-2" d="M10.99413,34.49224q-1.121-1.37358-2.375-2.63054-1.25217-1.25464-2.625-2.38,1.37071-1.12332,2.625-2.37994,1.25214-1.25481,2.375-2.63054,1.121,1.37358,2.375,2.63054,1.25219,1.25476,2.625,2.37994-1.3707,1.12337-2.625,2.38Q12.11711,33.11647,10.99413,34.49224Z"/><path class="cls-2" d="M76.0059,102.473q-1.121-1.37358-2.375-2.63054-1.25218-1.25463-2.625-2.38,1.3707-1.12333,2.625-2.38,1.25214-1.25481,2.375-2.63054,1.121,1.37359,2.375,2.63054,1.25217,1.25477,2.625,2.38-1.37071,1.12335-2.625,2.38Q77.12889,101.09723,76.0059,102.473Z"/><path class="cls-2" d="M27.5,29.08435Q25.8185,27.024,23.93754,25.13854,22.05926,23.25658,20,21.56859q2.056-1.685,3.93755-3.56991,1.8782-1.88221,3.56247-3.94581,1.68145,2.06037,3.56243,3.94581Q32.94071,19.88084,35,21.56859q-2.05606,1.685-3.93755,3.56995Q29.18449,27.0207,27.5,29.08435Z"/><path class="cls-2" d="M59.5,29.08435q-1.68152-2.06037-3.56247-3.94581Q54.05928,23.25658,52,21.56859q2.056-1.685,3.93755-3.56991Q57.81576,16.11647,59.5,14.05287q1.68145,2.06037,3.56243,3.94581Q64.94073,19.88084,67,21.56859q-2.05607,1.685-3.93755,3.56995Q61.18451,27.0207,59.5,29.08435Z"/><path class="cls-2" d="M27.5,112.94713q-1.68151-2.06037-3.56247-3.94581-1.87828-1.882-3.93755-3.57,2.056-1.685,3.93755-3.56991,1.8782-1.88221,3.56247-3.94581,1.68145,2.06037,3.56243,3.94581Q32.94071,103.7436,35,105.43137q-2.05606,1.685-3.93755,3.57Q29.18449,110.88348,27.5,112.94713Z"/><path class="cls-2" d="M59.5,112.94713q-1.68152-2.06037-3.56247-3.94581-1.87828-1.882-3.93755-3.57,2.056-1.685,3.93755-3.56991Q57.81576,99.97925,59.5,97.91565q1.68145,2.06037,3.56243,3.94581Q64.94073,103.7436,67,105.43137q-2.05607,1.685-3.93755,3.57Q61.18451,110.88348,59.5,112.94713Z"/><path class="cls-2" d="M27.5,57.03861q-1.68151-2.06037-3.56247-3.94581Q22.05926,51.21084,20,49.52285q2.056-1.685,3.93755-3.56991,1.8782-1.88222,3.56247-3.94581,1.68145,2.06037,3.56243,3.94581Q32.94071,47.8351,35,49.52285q-2.05606,1.685-3.93755,3.56995Q29.18449,54.975,27.5,57.03861Z"/><path class="cls-2" d="M59.5,57.03861q-1.68152-2.06037-3.56247-3.94581Q54.05928,51.21084,52,49.52285q2.056-1.685,3.93755-3.56991Q57.81576,44.07073,59.5,42.00713q1.68145,2.06037,3.56243,3.94581Q64.94073,47.8351,67,49.52285q-2.05607,1.685-3.93755,3.56995Q61.18451,54.975,59.5,57.03861Z"/><path class="cls-2" d="M27.5,84.99287q-1.68151-2.06037-3.56247-3.94581-1.87828-1.882-3.93755-3.57,2.056-1.685,3.93755-3.56991Q25.81574,72.025,27.5,69.96139q1.68145,2.06037,3.56243,3.94581Q32.94071,75.78934,35,77.47711q-2.05606,1.685-3.93755,3.57Q29.18449,82.92922,27.5,84.99287Z"/><path class="cls-2" d="M59.5,84.99287q-1.68152-2.06037-3.56247-3.94581-1.87828-1.882-3.93755-3.57,2.056-1.685,3.93755-3.56991Q57.81576,72.025,59.5,69.96139q1.68145,2.06037,3.56243,3.94581Q64.94073,75.78934,67,77.47711q-2.05607,1.685-3.93755,3.57Q61.18451,82.92922,59.5,84.99287Z"/><path class="cls-2" d="M43.5,71.01574q-1.68151-2.06037-3.56247-3.94581Q38.05927,65.188,36,63.5q2.056-1.685,3.93755-3.56991,1.8782-1.88222,3.56247-3.94581,1.68145,2.06037,3.56243,3.94581Q48.94072,61.81221,51,63.5q-2.05607,1.685-3.93755,3.56995Q45.1845,68.95209,43.5,71.01574Z"/></g></svg>