<svg xmlns="http://www.w3.org/2000/svg" viewBox="0 0 87 127"><defs><style>.cls-1{fill:#fff;}.cls-2{fill:#ff3b5c;}</style></defs><title>card-diamonds-j</title><g id="artwork"><rect class="cls-1" x="0.00232" width="86.99536" height="127" rx="6"/><path class="cls-2" d="M8.97,18.92861a4.37447,4.37447,0,0,0,1.18457-.11254.74069.74069,0,0,0,.4873-.46484,3.56151,3.56151,0,0,0,.13672-1.17042V7.78515h1.21582L12.01,17.357a3.61685,3.61685,0,0,1-.34375,1.79575,1.508,1.508,0,0,1-.95215.72907A7.59258,7.59258,0,0,1,8.97,20.03444Z"/><path class="cls-2" d="M77.97191,108.07139a4.32608,4.32608,0,0,0-1.18359.11254.74406.74406,0,0,0-.48828.46484,3.59451,3.59451,0,0,0-.13575,1.17042v9.39566H74.94847l-.01562-9.57279a3.6126,3.6126,0,0,1,.34375-1.79477,1.50627,1.50627,0,0,1,.95215-.73005,7.58883,7.58883,0,0,1,1.74316-.15266Z"/><path class="cls-2" d="M10.99413,34.49163q-1.121-1.3736-2.375-2.63054-1.25217-1.25464-2.625-2.38,1.37071-1.12332,2.625-2.37994,1.25214-1.25481,2.375-2.63054,1.121,1.37358,2.375,2.63054,1.25219,1.25476,2.625,2.37994-1.3707,1.12335-2.625,2.38Q12.11711,33.11586,10.99413,34.49163Z"/><path class="cls-2" d="M76.0059,102.47239q-1.121-1.37358-2.375-2.63054-1.25218-1.25464-2.625-2.38,1.3707-1.12332,2.625-2.37994,1.25214-1.25481,2.375-2.63054,1.121,1.37358,2.375,2.63054,1.25217,1.25477,2.625,2.37994-1.37071,1.12337-2.625,2.38Q77.12889,101.09662,76.0059,102.47239Z"/><path class="cls-2" d="M37.937,29.67761a2.92833,2.92833,0,0,1-2.78614-2.04687v6.186a2.78593,2.78593,0,0,0,2.78565,2.78613H37.937a2.78593,2.78593,0,0,0,2.78564-2.78613v-6.186A2.92861,2.92861,0,0,1,37.937,29.67761Z"/><path class="cls-2" d="M43.50924,29.67761a2.92922,2.92922,0,0,1-2.78613-2.04687v6.186a2.78624,2.78624,0,0,0,2.78564,2.78613h.00049a2.78593,2.78593,0,0,0,2.78565-2.78613v-6.186A2.92818,2.92818,0,0,1,43.50924,29.67761Z"/><path class="cls-2" d="M49.082,29.67761a2.92879,2.92879,0,0,1-2.78614-2.04687v6.186a2.78593,2.78593,0,0,0,2.78565,2.78613H49.082a2.78593,2.78593,0,0,0,2.78564-2.78613v-6.186A2.92861,2.92861,0,0,1,49.082,29.67761Z"/><path class="cls-2" d="M43.50066,55.02692a3.04132,3.04132,0,0,1-3.03784-3.03785h.5a2.53778,2.53778,0,1,0,5.07556,0h.5A3.04121,3.04121,0,0,1,43.50066,55.02692Z"/><rect x="43.25066" y="44.76154" width="0.5" height="5.74585"/><path d="M28.78472,55.12262a1.46,1.46,0,1,1-1.46,1.46,1.46142,1.46142,0,0,1,1.46-1.46m0-.5a1.96,1.96,0,1,0,1.96,1.96,1.96019,1.96019,0,0,0-1.96-1.96Z"/><path d="M32.35405,56.73883a1.46,1.46,0,1,1-1.46,1.46,1.46142,1.46142,0,0,1,1.46-1.46m0-.5a1.96,1.96,0,1,0,1.96,1.96,1.95988,1.95988,0,0,0-1.96-1.96Z"/><rect x="29.55181" y="37.06015" width="5.57585" height="19.18901" rx="2.78792"/><rect x="51.85988" y="37.06015" width="5.57585" height="19.18901" rx="2.78792"/><circle cx="49.12646" cy="43.47973" r="1.11964"/><circle cx="37.87478" cy="43.47973" r="1.11964"/><path d="M49.08111,37.89237A2.92879,2.92879,0,0,0,46.295,39.93925v-6.186a2.78593,2.78593,0,0,1,2.78565-2.78613h.00048a2.78593,2.78593,0,0,1,2.78565,2.78613v6.186A2.92865,2.92865,0,0,0,49.08111,37.89237Z"/><path d="M43.5096,37.89237a2.92923,2.92923,0,0,0-2.78613,2.04688v-6.186a2.78623,2.78623,0,0,1,2.78564-2.78613h.00049a2.78593,2.78593,0,0,1,2.78564,2.78613v6.186A2.92816,2.92816,0,0,0,43.5096,37.89237Z"/><path d="M37.93786,37.89237a2.92831,2.92831,0,0,0-2.78613,2.04688v-6.186a2.78593,2.78593,0,0,1,2.78564-2.78613h.00049a2.78593,2.78593,0,0,1,2.78564,2.78613v6.186A2.92862,2.92862,0,0,0,37.93786,37.89237Z"/><path d="M43.50066,60.19879l-.10217-.04565c-.35816-.1604-8.77173-3.9834-8.77173-8.852h.5c0,4.272,7.41064,7.89575,8.3739,8.34838.96326-.45263,8.37378-4.07641,8.37378-8.34838h.5c0,4.86865-8.41345,8.69165-8.77161,8.852Z"/><path class="cls-2" d="M49.08066,35.21621q-.33145-.40528-.70224-.77617-.37024-.3702-.77617-.70224.40528-.33145.77617-.70224.37025-.37024.70224-.77617.33145.40528.70224.77617.37025.37025.77617.70224-.4053.33145-.77617.70224Q49.4127,34.81027,49.08066,35.21621Z"/><path class="cls-2" d="M43.50925,35.21621q-.33147-.40528-.70224-.77617-.37026-.3702-.77618-.70224.4053-.33145.77618-.70224.37023-.37024.70224-.77617.33144.40528.70223.77617.37024.37025.77617.70224-.40528.33145-.77617.70224Q43.84129,34.81027,43.50925,35.21621Z"/><path class="cls-2" d="M37.93783,35.21621q-.33147-.40528-.70224-.77617-.37025-.3702-.77618-.70224.4053-.33145.77618-.70224.37023-.37024.70224-.77617.33145.40528.70223.77617.37025.37025.77618.70224-.4053.33145-.77618.70224Q38.26988,34.81027,37.93783,35.21621Z"/><path class="cls-2" d="M43.50063,63.50272q-.62311-.76191-1.32013-1.45912-.696-.69592-1.45911-1.32013.7619-.62309,1.45911-1.32011.696-.696,1.32013-1.45912.62309.76191,1.32011,1.45912.696.696,1.45912,1.32011-.76191.62312-1.45912,1.32013Q44.12483,62.7396,43.50063,63.50272Z"/><rect class="cls-2" x="53.1443" y="34.65602" width="3.007" height="25.59921" rx="1.5035" transform="translate(109.2956 94.91125) rotate(-180)"/><rect class="cls-1" x="54.52275" y="34.99982" width="0.25" height="24.98218"/><path class="cls-1" d="M54.64775,60.13019a1.38008,1.38008,0,0,1-1.37854-1.37842v-22.592a1.37854,1.37854,0,1,1,2.75708,0v22.592A1.38007,1.38007,0,0,1,54.64775,60.13019Zm0-25.09912a1.12987,1.12987,0,0,0-1.12854,1.12866v22.592a1.12854,1.12854,0,0,0,2.25708,0v-22.592A1.12987,1.12987,0,0,0,54.64775,35.03107Z"/><circle class="cls-1" cx="54.6478" cy="33.79027" r="2.788"/><path d="M54.648,31.5025a2.28785,2.28785,0,1,1-2.28809,2.2876A2.29039,2.29039,0,0,1,54.648,31.5025m0-.5a2.78785,2.78785,0,1,0,2.7876,2.7876,2.7877,2.7877,0,0,0-2.7876-2.7876Z"/><path class="cls-2" d="M54.6478,35.26868q-.33145-.4053-.70224-.77618-.37025-.37018-.77617-.70224.40528-.33144.77617-.70223.37025-.37025.70224-.77617.33145.40528.70224.77617.37025.37023.77617.70223-.40528.33147-.77617.70224Q54.97984,34.86275,54.6478,35.26868Z"/><path class="cls-2" d="M49.063,97.32239a2.92833,2.92833,0,0,1,2.78614,2.04687v-6.186a2.78593,2.78593,0,0,0-2.78565-2.78613H49.063a2.78593,2.78593,0,0,0-2.78564,2.78613v6.186A2.92861,2.92861,0,0,1,49.063,97.32239Z"/><path class="cls-2" d="M43.49076,97.32239a2.92922,2.92922,0,0,1,2.78613,2.04687v-6.186a2.78624,2.78624,0,0,0-2.78564-2.78613h-.00049a2.78593,2.78593,0,0,0-2.78565,2.78613v6.186A2.92818,2.92818,0,0,1,43.49076,97.32239Z"/><path class="cls-2" d="M37.918,97.32239a2.92879,2.92879,0,0,1,2.78614,2.04687v-6.186a2.78593,2.78593,0,0,0-2.78565-2.78613H37.918a2.78593,2.78593,0,0,0-2.78564,2.78613v6.186A2.92861,2.92861,0,0,1,37.918,97.32239Z"/><path class="cls-2" d="M43.49934,71.97308a3.04132,3.04132,0,0,1,3.03784,3.03785h-.5a2.53778,2.53778,0,1,0-5.07556,0h-.5A3.04121,3.04121,0,0,1,43.49934,71.97308Z"/><rect x="43.24934" y="76.49261" width="0.5" height="5.74585"/><path d="M58.21528,71.87738a1.46,1.46,0,1,1,1.46-1.46,1.46142,1.46142,0,0,1-1.46,1.46m0,.5a1.96,1.96,0,1,0-1.96-1.96,1.96019,1.96019,0,0,0,1.96,1.96Z"/><path d="M54.646,70.26117a1.46,1.46,0,1,1,1.46-1.46,1.46142,1.46142,0,0,1-1.46,1.46m0,.5a1.96,1.96,0,1,0-1.96-1.96,1.95988,1.95988,0,0,0,1.96,1.96Z"/><rect x="51.87235" y="70.75084" width="5.57585" height="19.18901" rx="2.78792" transform="translate(109.32054 160.69069) rotate(180)"/><rect x="29.56428" y="70.75084" width="5.57585" height="19.18901" rx="2.78792" transform="translate(64.7044 160.69069) rotate(180)"/><circle cx="37.87354" cy="83.52027" r="1.11964"/><circle cx="49.12522" cy="83.52027" r="1.11964"/><path d="M37.91889,89.10763A2.92879,2.92879,0,0,0,40.705,87.06075v6.186a2.78593,2.78593,0,0,1-2.78565,2.78613h-.00048a2.78593,2.78593,0,0,1-2.78565-2.78613v-6.186A2.92865,2.92865,0,0,0,37.91889,89.10763Z"/><path d="M43.4904,89.10763a2.92923,2.92923,0,0,0,2.78613-2.04688v6.186a2.78623,2.78623,0,0,1-2.78564,2.78613H43.4904a2.78593,2.78593,0,0,1-2.78564-2.78613v-6.186A2.92816,2.92816,0,0,0,43.4904,89.10763Z"/><path d="M49.06214,89.10763a2.92831,2.92831,0,0,0,2.78613-2.04688v6.186a2.78593,2.78593,0,0,1-2.78564,2.78613h-.00049a2.78593,2.78593,0,0,1-2.78564-2.78613v-6.186A2.92862,2.92862,0,0,0,49.06214,89.10763Z"/><path d="M43.49934,66.80121l.10217.04565c.35816.1604,8.77173,3.9834,8.77173,8.852h-.5c0-4.272-7.41064-7.89575-8.3739-8.34838-.96326.45263-8.37378,4.07641-8.37378,8.34838h-.5c0-4.86865,8.41345-8.69165,8.77161-8.852Z"/><path class="cls-2" d="M37.91934,91.78379q.33145.40529.70224.77617.37024.3702.77617.70224-.40528.33145-.77617.70224-.37025.37025-.70224.77617-.33145-.40528-.70224-.77617-.37025-.37025-.77617-.70224.4053-.33146.77617-.70224Q37.5873,92.18973,37.91934,91.78379Z"/><path class="cls-2" d="M43.49075,91.78379q.33147.40529.70224.77617.37026.3702.77618.70224-.4053.33145-.77618.70224-.37023.37025-.70224.77617-.33144-.40528-.70223-.77617-.37024-.37025-.77617-.70224.40528-.33146.77617-.70224Q43.15871,92.18973,43.49075,91.78379Z"/><path class="cls-2" d="M49.06217,91.78379q.33147.40529.70224.77617.37025.3702.77618.70224-.4053.33145-.77618.70224-.37023.37025-.70224.77617-.33145-.40528-.70223-.77617-.37025-.37025-.77618-.70224.4053-.33146.77618-.70224Q48.73013,92.18973,49.06217,91.78379Z"/><path class="cls-2" d="M43.49937,63.49728q.62311.76191,1.32013,1.45912.696.69592,1.45911,1.32013-.7619.62309-1.45911,1.32011-.696.696-1.32013,1.45912-.62309-.76191-1.32011-1.45912-.696-.696-1.45912-1.32011.76191-.62311,1.45912-1.32013Q42.87517,64.2604,43.49937,63.49728Z"/><rect class="cls-2" x="30.8487" y="66.74477" width="3.007" height="25.59921" rx="1.5035"/><rect class="cls-1" x="32.22725" y="67.01801" width="0.25" height="24.98218"/><path class="cls-1" d="M32.35225,66.86981a1.38008,1.38008,0,0,1,1.37854,1.37842v22.592a1.37854,1.37854,0,1,1-2.75708,0v-22.592A1.38007,1.38007,0,0,1,32.35225,66.86981Zm0,25.09912a1.12987,1.12987,0,0,0,1.12854-1.12866v-22.592a1.12854,1.12854,0,0,0-2.25708,0v22.592A1.12987,1.12987,0,0,0,32.35225,91.96893Z"/><circle class="cls-1" cx="32.3522" cy="93.20973" r="2.788"/><path d="M32.352,95.4975a2.28785,2.28785,0,1,1,2.28809-2.2876A2.29039,2.29039,0,0,1,32.352,95.4975m0,.5a2.78785,2.78785,0,1,0-2.7876-2.7876,2.7877,2.7877,0,0,0,2.7876,2.7876Z"/><path class="cls-2" d="M32.3522,91.73132q.33145.4053.70224.77618.37025.37019.77617.70224-.40528.33144-.77617.70223-.37025.37025-.70224.77617-.33145-.40528-.70224-.77617-.37024-.37023-.77617-.70223.40528-.33147.77617-.70224Q32.02016,92.13726,32.3522,91.73132Z"/></g></svg>