<svg xmlns="http://www.w3.org/2000/svg" viewBox="0 0 115 167"><defs><style>.cls-1{fill:#fff;}</style></defs><title>card-clubs-4</title><g id="artwork"><rect class="cls-1" width="115" height="167" rx="8"/><path d="M16.22,21.78646H9.45164V20.51359l3.97606-9.98117H15.204L11.1647,20.34413H16.22V15.97834h1.62786v4.36579h1.77761v1.44233H17.84783v2.73331H16.22Z"/><path d="M21.43021,39.49078a2.94335,2.94335,0,0,0-2.90339-2.1709,2.734,2.734,0,0,0-1.27754.38045c-.20655.12343-.5948.364-.773.0609-.16133-.27453.13316-.53066.3094-.69984a2.92853,2.92853,0,0,0,.84295-1.57112A3.08148,3.08148,0,0,0,16.243,32.36864a3.218,3.218,0,0,0-3.43131,0,3.08147,3.08147,0,0,0-1.38563,3.12163,2.92857,2.92857,0,0,0,.84293,1.57112c.17626.16918.47073.42531.30942.69984-.17819.30309-.56644.06253-.773-.0609a2.73389,2.73389,0,0,0-1.27754-.38045,2.94336,2.94336,0,0,0-2.90339,2.1709,3.18482,3.18482,0,0,0,1.4932,3.5655,3.22609,3.22609,0,0,0,4.72371-1.99154h.26275a3.55453,3.55453,0,0,1-.52553,2.62854,3.50035,3.50035,0,0,1-.94855.95058v.47542h3.79454v-.47542a3.50081,3.50081,0,0,1-.94856-.95058,3.55457,3.55457,0,0,1-.52552-2.62854h.26277A3.22606,3.22606,0,0,0,19.937,43.05628,3.18481,3.18481,0,0,0,21.43021,39.49078Z"/><path d="M98.78123,145.21354h6.76833v1.27287l-3.97606,9.98117H99.79719l4.03931-9.81171H98.78123v4.36579H97.15337v-4.36579H95.37705v-1.44233h1.77632v-2.73331h1.62786Z"/><path d="M93.56979,127.48722a2.94335,2.94335,0,0,0,2.90339,2.1709,2.734,2.734,0,0,0,1.27754-.38045c.20655-.12343.5948-.364.773-.0609.16133.27453-.13316.53066-.3094.69984a2.92853,2.92853,0,0,0-.843,1.57112,3.08148,3.08148,0,0,0,1.38563,3.12163,3.218,3.218,0,0,0,3.43131,0,3.08147,3.08147,0,0,0,1.38563-3.12163,2.92857,2.92857,0,0,0-.84293-1.57112c-.17626-.16918-.47073-.42531-.30942-.69984.17819-.30309.56644-.06253.773.0609a2.73389,2.73389,0,0,0,1.27754.38045,2.94336,2.94336,0,0,0,2.90339-2.1709,3.18482,3.18482,0,0,0-1.4932-3.5655,3.22609,3.22609,0,0,0-4.72371,1.99154h-.26275a3.55456,3.55456,0,0,1,.52553-2.62855,3.50045,3.50045,0,0,1,.94855-.95057v-.47542H98.57536v.47542a3.50091,3.50091,0,0,1,.94856.95057,3.5546,3.5546,0,0,1,.52552,2.62855h-.26277a3.22606,3.22606,0,0,0-4.72369-1.99154A3.18481,3.18481,0,0,0,93.56979,127.48722Z"/><path d="M46.70369,29.46182a4.415,4.415,0,0,0-4.35507-3.25635,4.10084,4.10084,0,0,0-1.91631.57067c-.30982.18514-.8922.546-1.15947.09134-.242-.41178.19975-.796.46411-1.04976A4.39279,4.39279,0,0,0,41.00138,23.461a4.62224,4.62224,0,0,0-2.07845-4.68244,4.827,4.827,0,0,0-5.147,0A4.62217,4.62217,0,0,0,31.69752,23.461a4.39279,4.39279,0,0,0,1.26439,2.35668c.26439.25379.7061.638.46414,1.04976-.26729.45465-.84967.0938-1.15949-.09134a4.10077,4.10077,0,0,0-1.91631-.57067,4.415,4.415,0,0,0-4.35508,3.25635A4.77723,4.77723,0,0,0,28.235,34.81007a4.83914,4.83914,0,0,0,7.08556-2.98732h.39413a5.33188,5.33188,0,0,1-.78828,3.94282,5.25068,5.25068,0,0,1-1.42284,1.42586v.71314h5.69181v-.71314a5.25124,5.25124,0,0,1-1.42284-1.42586,5.332,5.332,0,0,1-.78828-3.94282h.39415a4.83911,4.83911,0,0,0,7.08554,2.98732A4.77721,4.77721,0,0,0,46.70369,29.46182Z"/><path d="M25.99517,137.53818a4.415,4.415,0,0,0,4.35508,3.25635,4.10088,4.10088,0,0,0,1.91631-.57067c.30982-.18514.8922-.546,1.15946-.09134.242.41178-.19975.796-.46411,1.04976a4.39284,4.39284,0,0,0-1.26442,2.35668,4.62222,4.62222,0,0,0,2.07845,4.68244,4.827,4.827,0,0,0,5.147,0,4.6222,4.6222,0,0,0,2.07845-4.68244,4.39274,4.39274,0,0,0-1.2644-2.35668c-.26438-.25379-.70609-.638-.46413-1.04976.26729-.45465.84966-.0938,1.15949.09134a4.10071,4.10071,0,0,0,1.91631.57067,4.415,4.415,0,0,0,4.35508-3.25635,4.77722,4.77722,0,0,0-2.2398-5.34825,4.83914,4.83914,0,0,0-7.08556,2.98732h-.39412a5.33188,5.33188,0,0,1,.78828-3.94282,5.25068,5.25068,0,0,1,1.42284-1.42586v-.71314H33.50353v.71314a5.25139,5.25139,0,0,1,1.42284,1.42586,5.332,5.332,0,0,1,.78828,3.94282h-.39416a4.8391,4.8391,0,0,0-7.08553-2.98732A4.77722,4.77722,0,0,0,25.99517,137.53818Z"/><path d="M89.00483,29.46182a4.415,4.415,0,0,0-4.35508-3.25635,4.10088,4.10088,0,0,0-1.91631.57067c-.30982.18514-.8922.546-1.15946.09134-.242-.41178.19975-.796.46411-1.04976A4.39284,4.39284,0,0,0,83.30251,23.461a4.62222,4.62222,0,0,0-2.07845-4.68244,4.827,4.827,0,0,0-5.147,0A4.6222,4.6222,0,0,0,73.99865,23.461a4.39274,4.39274,0,0,0,1.2644,2.35668c.26438.25379.70609.638.46413,1.04976-.26729.45465-.84966.0938-1.15949-.09134a4.10071,4.10071,0,0,0-1.91631-.57067,4.415,4.415,0,0,0-4.35508,3.25635,4.77722,4.77722,0,0,0,2.2398,5.34825,4.83914,4.83914,0,0,0,7.08556-2.98732h.39412a5.33188,5.33188,0,0,1-.78828,3.94282,5.25068,5.25068,0,0,1-1.42284,1.42586v.71314h5.69181v-.71314a5.25139,5.25139,0,0,1-1.42284-1.42586,5.332,5.332,0,0,1-.78828-3.94282h.39416A4.8391,4.8391,0,0,0,86.765,34.81007,4.77722,4.77722,0,0,0,89.00483,29.46182Z"/><path d="M68.29631,137.53818a4.415,4.415,0,0,0,4.35507,3.25635,4.10084,4.10084,0,0,0,1.91631-.57067c.30982-.18514.8922-.546,1.15947-.09134.242.41178-.19975.796-.46411,1.04976a4.39279,4.39279,0,0,0-1.26443,2.35668,4.62224,4.62224,0,0,0,2.07845,4.68244,4.827,4.827,0,0,0,5.147,0,4.62217,4.62217,0,0,0,2.07845-4.68244,4.39279,4.39279,0,0,0-1.26439-2.35668c-.26439-.25379-.7061-.638-.46414-1.04976.26729-.45465.84967-.0938,1.15949.09134a4.10077,4.10077,0,0,0,1.91631.57067,4.415,4.415,0,0,0,4.35508-3.25635,4.77723,4.77723,0,0,0-2.23979-5.34825,4.83914,4.83914,0,0,0-7.08556,2.98732h-.39413a5.33188,5.33188,0,0,1,.78828-3.94282,5.25068,5.25068,0,0,1,1.42284-1.42586v-.71314H75.80466v.71314a5.25124,5.25124,0,0,1,1.42284,1.42586,5.332,5.332,0,0,1,.78828,3.94282h-.39415a4.83911,4.83911,0,0,0-7.08554-2.98732A4.77721,4.77721,0,0,0,68.29631,137.53818Z"/></g></svg>