<svg xmlns="http://www.w3.org/2000/svg" viewBox="0 0 115 167"><defs><style>.cls-1{fill:#fff;}.cls-2{fill:#ff3b5c;}</style></defs><title>card-diamonds-q</title><g id="artwork"><rect class="cls-1" width="115" height="167" rx="8"/><path class="cls-2" d="M16.3062,24.538a6.90671,6.90671,0,0,1-1.77631.19016,6.4677,6.4677,0,0,1-3.43645-.78394A4.31639,4.31639,0,0,1,9.29518,21.538a13.97261,13.97261,0,0,1-.53832-4.291,14.03943,14.03943,0,0,1,.54865-4.313,4.49881,4.49881,0,0,1,1.81891-2.4799,6.22868,6.22868,0,0,1,3.40547-.81628,6.22562,6.22562,0,0,1,3.40546.81628A4.538,4.538,0,0,1,19.7646,12.934a13.8017,13.8017,0,0,1,.56155,4.313,13.62743,13.62743,0,0,1-.56155,4.34533,4.23031,4.23031,0,0,1-1.87185,2.37253L19.691,26.8691l-1.5233.72056Zm.73067-1.84344a3.20611,3.20611,0,0,0,1.23671-1.87577,13.617,13.617,0,0,0,.36017-3.529,13.89858,13.89858,0,0,0-.3705-3.58208,3.49661,3.49661,0,0,0-1.25865-1.98185,4.14045,4.14045,0,0,0-2.47471-.64682,4.20037,4.20037,0,0,0-2.47471.63517,3.45765,3.45765,0,0,0-1.25865,1.97151,13.80644,13.80644,0,0,0-.36921,3.56138,13.776,13.776,0,0,0,.35888,3.529,3.222,3.222,0,0,0,1.25865,1.90682,4.459,4.459,0,0,0,2.50569.60413A4.41738,4.41738,0,0,0,17.03687,22.69453Z"/><path class="cls-2" d="M98.61573,142.462a6.86053,6.86053,0,0,1,1.77761-.19146,6.46456,6.46456,0,0,1,3.43644.784,4.31634,4.31634,0,0,1,1.79827,2.40616,17.26416,17.26416,0,0,1-.01033,8.60528,4.5038,4.5038,0,0,1-1.82021,2.4799,7.50913,7.50913,0,0,1-6.80964,0,4.55342,4.55342,0,0,1-1.82924-2.4799,13.77328,13.77328,0,0,1-.56027-4.313,13.59539,13.59539,0,0,1,.56027-4.34533,4.22784,4.22784,0,0,1,1.87184-2.37382l-1.79826-2.90292,1.52329-.72185Zm-.72937,1.84344a3.202,3.202,0,0,0-1.23671,1.87577,13.61656,13.61656,0,0,0-.36017,3.529,13.90593,13.90593,0,0,0,.37049,3.58208,3.50537,3.50537,0,0,0,1.25866,1.98185,4.14043,4.14043,0,0,0,2.47471.64682,4.19064,4.19064,0,0,0,2.4747-.63647,3.44975,3.44975,0,0,0,1.25737-1.9715,17.40923,17.40923,0,0,0,.01162-7.08913,3.22136,3.22136,0,0,0-1.25866-1.90812,4.46366,4.46366,0,0,0-2.507-.60412A4.4122,4.4122,0,0,0,97.88636,144.30547Z"/><path class="cls-2" d="M14.53018,45.15355q-1.48188-1.81575-3.13952-3.47733Q9.7354,40.01769,7.92061,38.53011q1.81194-1.48492,3.47005-3.14606,1.65522-1.65875,3.13952-3.47734,1.48181,1.81575,3.13947,3.47734,1.65527,1.65868,3.47006,3.14606-1.812,1.485-3.47006,3.14611Q16.01466,43.33491,14.53018,45.15355Z"/><path class="cls-2" d="M100.46986,135.018q-1.48188-1.81576-3.13951-3.47734-1.65528-1.65852-3.47006-3.1461,1.812-1.48493,3.47006-3.14607,1.65521-1.65874,3.13951-3.47734,1.48182,1.81576,3.13948,3.47734,1.65527,1.65868,3.47005,3.14607-1.812,1.485-3.47005,3.1461Q101.95433,133.19933,100.46986,135.018Z"/><path d="M57.50006,79.06831l-.13507-.06036c-.47344-.212-11.59543-5.26537-11.59543-11.70161h.661c0,5.65039,9.7962,10.4378,11.06954,11.03582,1.27318-.59835,11.06938-5.38833,11.06938-11.03582h.66095c0,6.43624-11.12182,11.48958-11.59527,11.70161Z"/><path d="M64.93564,60.34857A2.891,2.891,0,0,1,62.048,57.46109h.661a2.22669,2.22669,0,0,0,4.45338,0h.66095A2.891,2.891,0,0,1,64.93564,60.34857Z"/><path d="M50.06432,60.34857a2.891,2.891,0,0,1-2.88765-2.88748h.661a2.22669,2.22669,0,0,0,4.45337,0h.661A2.891,2.891,0,0,1,50.06432,60.34857Z"/><rect x="57.16958" y="61.95158" width="0.66095" height="4.95167"/><path d="M64.866,42.46462a3.871,3.871,0,0,0,3.683-2.70578V50.58a3.68275,3.68275,0,0,1-3.68237,3.683H64.866a3.68275,3.68275,0,0,1-3.68237-3.683V39.75884A3.87138,3.87138,0,0,0,64.866,42.46462Z"/><path d="M57.5,42.46462a3.87219,3.87219,0,0,0,3.683-2.70578V50.58a3.68316,3.68316,0,0,1-3.68237,3.683H57.5a3.68274,3.68274,0,0,1-3.68237-3.683V39.75884A3.87077,3.87077,0,0,0,57.5,42.46462Z"/><path d="M50.13332,42.46462a3.87158,3.87158,0,0,0,3.683-2.70578V50.58a3.68275,3.68275,0,0,1-3.68237,3.683h-.00065A3.68275,3.68275,0,0,1,46.451,50.58V39.75884A3.87138,3.87138,0,0,0,50.13332,42.46462Z"/><path class="cls-2" d="M55.6665,35.65229a2.0819,2.0819,0,0,0,1.8205-1.44173v-.00047l.00046-.00046v.00093a2.08181,2.08181,0,0,0,1.82,1.44173Z"/><path class="cls-2" d="M60.70663,36.67226a2.08188,2.08188,0,0,0,1.93453,1.28467l.00088-.00029-.00044.00015.00059.0003-.00089.00028a2.08183,2.08183,0,0,0-.80739,2.177Z"/><path class="cls-2" d="M56.58135,43.95465a2.08187,2.08187,0,0,0-2.32075.083l-.00055.00075.00027-.00037-.00064.0001.00055-.00075a2.08182,2.08182,0,0,0-.6122-2.23972Z"/><path class="cls-2" d="M54.30062,36.64256a2.0819,2.0819,0,0,1-1.94178,1.27369L52.358,37.916l.00044.00014-.00059.0003.00088.00029a2.08181,2.08181,0,0,1,.795,2.18151Z"/><path class="cls-2" d="M58.34349,43.9717a2.08189,2.08189,0,0,1,2.32021.0971l.00055.00075-.00028-.00037.00065.0001-.00054-.00075a2.08179,2.08179,0,0,1,.62576-2.236Z"/><path class="cls-1" d="M55.9086,43.029l-.34505-.70147L54.792,42.215a1.77443,1.77443,0,0,1-.9793-3.024l.5583-.546-.1318-.771a1.76824,1.76824,0,0,1,2.56385-1.86892l.6901.364.6901-.364A1.76823,1.76823,0,0,1,60.74709,37.874l-.13179.771.5583.546a1.77443,1.77443,0,0,1-.9793,3.024l-.77156.11249-.34505.70147A1.76443,1.76443,0,0,1,55.9086,43.029Z"/><path d="M57.49312,44.18229h0a1.91959,1.91959,0,0,1-1.73275-1.08051l-.30675-.6232-.68549-.1a1.93972,1.93972,0,0,1-1.071-3.30574l.49636-.48507-.11715-.68581A1.93351,1.93351,0,0,1,56.88025,35.859l.61287.32338.613-.32338a1.93345,1.93345,0,0,1,2.80373,2.04289l-.11715.68581.49636.48507a1.93972,1.93972,0,0,1-1.071,3.30574l-.68549.1-.30659.6232A1.92,1.92,0,0,1,57.49312,44.18229ZM55.976,35.96166a1.61444,1.61444,0,0,0-1.574,1.88475l.14652.85621-.62029.60642a1.60912,1.60912,0,0,0,.88768,2.74225l.8575.12522.38356.77939a1.59918,1.59918,0,0,0,2.87248,0l.3834-.77939.8575-.12522A1.609,1.609,0,0,0,61.058,39.309l-.62029-.60642.14652-.85621a1.603,1.603,0,0,0-2.32383-1.695l-.76729.4047-.76713-.4047A1.60454,1.60454,0,0,0,55.976,35.96166Z"/><path class="cls-2" d="M57.49344,38.132a1.50748,1.50748,0,1,1-1.5078,1.50716,1.50847,1.50847,0,0,1,1.5078-1.50716m0-.33048a1.838,1.838,0,1,0,1.83764,1.83764,1.83807,1.83807,0,0,0-1.83764-1.83764Z"/><path class="cls-2" d="M57.5,73.86591q-.43816-.53577-.9283-1.026-.48944-.48937-1.026-.9283.53577-.43815,1.026-.92829.48942-.48944.9283-1.026.43813.53575.92828,1.026.48944.48942,1.026.92829-.53577.43816-1.026.9283Q57.93895,73.32929,57.5,73.86591Z"/><path class="cls-2" d="M64.86491,52.28176q-.43815-.53575-.92829-1.026-.48944-.48938-1.026-.9283.53577-.43815,1.026-.92829.48942-.48944.92829-1.026.43815.53577.92829,1.026.48944.48942,1.026.92829-.53577.43817-1.026.9283Q65.30386,51.74515,64.86491,52.28176Z"/><path class="cls-2" d="M50.1351,52.28176q-.43817-.53575-.9283-1.026-.48944-.48938-1.026-.9283.53577-.43815,1.026-.92829.48942-.48944.9283-1.026.43814.53577.92828,1.026.48944.48942,1.026.92829-.53577.43817-1.026.9283Q50.574,51.74515,50.1351,52.28176Z"/><rect class="cls-2" x="68.52571" y="46.48345" width="7.37076" height="25.36613" rx="3.68538"/><path class="cls-2" d="M72.21111,79.61994q-.87443-1.06918-1.85256-2.0476-.97674-.9766-2.04761-1.85256,1.0692-.8744,2.04761-1.85254.9767-.97674,1.85256-2.0476.87438,1.06918,1.85253,2.0476.97674.97671,2.04761,1.85254-1.0692.87442-2.04761,1.85256Q73.08707,78.549,72.21111,79.61994Z"/><path class="cls-2" d="M72.2111,83.50809q-.43817-.53577-.9283-1.026-.48944-.48936-1.026-.92829.53575-.43815,1.026-.92829.48942-.48944.9283-1.026.43815.53577.92829,1.026.48944.48942,1.026.92829-.53575.43815-1.026.92829Q72.65,82.97147,72.2111,83.50809Z"/><rect class="cls-2" x="39.10352" y="46.48345" width="7.37076" height="25.36613" rx="3.68538"/><path class="cls-2" d="M42.78891,79.61994q-.87441-1.06918-1.85255-2.0476-.97674-.9766-2.04761-1.85256,1.0692-.8744,2.04761-1.85254.97669-.97674,1.85255-2.0476.87439,1.06918,1.85254,2.0476.97674.97671,2.04761,1.85254-1.0692.87442-2.04761,1.85256Q43.66488,78.549,42.78891,79.61994Z"/><path class="cls-2" d="M42.78891,83.50809q-.43816-.53577-.9283-1.026-.48944-.48936-1.026-.92829.53575-.43815,1.026-.92829.48942-.48944.9283-1.026.43815.53577.92829,1.026.48944.48942,1.026.92829-.53575.43815-1.026.92829Q43.22784,82.97147,42.78891,83.50809Z"/><path d="M57.49994,87.93169l.13507.06036c.47344.212,11.59543,5.26537,11.59543,11.70161h-.661c0-5.65039-9.7962-10.4378-11.06954-11.03582-1.27318.59835-11.06938,5.38833-11.06938,11.03582h-.66095c0-6.43624,11.12182-11.48958,11.59527-11.70161Z"/><path d="M50.06436,106.65143a2.891,2.891,0,0,1,2.88765,2.88748h-.661a2.22669,2.22669,0,0,0-4.45338,0h-.66095A2.891,2.891,0,0,1,50.06436,106.65143Z"/><path d="M64.93568,106.65143a2.891,2.891,0,0,1,2.88765,2.88748h-.661a2.22669,2.22669,0,0,0-4.45337,0h-.661A2.891,2.891,0,0,1,64.93568,106.65143Z"/><rect x="57.16946" y="100.09675" width="0.66095" height="4.95167"/><path d="M50.134,124.53538a3.871,3.871,0,0,0-3.683,2.70578V116.42a3.68275,3.68275,0,0,1,3.68237-3.683H50.134a3.68275,3.68275,0,0,1,3.68237,3.683v10.8212A3.87138,3.87138,0,0,0,50.134,124.53538Z"/><path d="M57.5,124.53538a3.87219,3.87219,0,0,0-3.683,2.70578V116.42a3.68316,3.68316,0,0,1,3.68237-3.683H57.5a3.68274,3.68274,0,0,1,3.68237,3.683v10.8212A3.87077,3.87077,0,0,0,57.5,124.53538Z"/><path d="M64.86668,124.53538a3.87158,3.87158,0,0,0-3.683,2.70578V116.42a3.68275,3.68275,0,0,1,3.68237-3.683h.00065A3.68275,3.68275,0,0,1,68.549,116.42v10.8212A3.87138,3.87138,0,0,0,64.86668,124.53538Z"/><path class="cls-2" d="M59.3335,131.34771a2.0819,2.0819,0,0,0-1.8205,1.44173v.00047l-.00046.00046v-.00093a2.08181,2.08181,0,0,0-1.82-1.44173Z"/><path class="cls-2" d="M54.29337,130.32774a2.08188,2.08188,0,0,0-1.93453-1.28467l-.00088.00029.00044-.00015-.00059-.0003.00089-.00028a2.08183,2.08183,0,0,0,.80739-2.177Z"/><path class="cls-2" d="M58.41865,123.04535a2.08187,2.08187,0,0,0,2.32075-.083l.00055-.00075-.00027.00037.00064-.0001-.00055.00075a2.08182,2.08182,0,0,0,.6122,2.23972Z"/><path class="cls-2" d="M60.69938,130.35744a2.0819,2.0819,0,0,1,1.94178-1.27369l.00088.00029-.00044-.00014.00059-.0003-.00088-.00029a2.08181,2.08181,0,0,1-.795-2.18151Z"/><path class="cls-2" d="M56.65651,123.0283a2.08189,2.08189,0,0,1-2.32021-.0971l-.00055-.00075.00028.00037-.00065-.0001.00054.00075a2.08179,2.08179,0,0,1-.62576,2.236Z"/><path class="cls-1" d="M59.0914,123.971l.34505.70147.77155.11249a1.77443,1.77443,0,0,1,.9793,3.024l-.5583.546.1318.771a1.76824,1.76824,0,0,1-2.56385,1.86892l-.6901-.364-.6901.364a1.76823,1.76823,0,0,1-2.56384-1.86892l.13179-.771-.5583-.546a1.77443,1.77443,0,0,1,.9793-3.024l.77156-.11249.34505-.70147A1.76443,1.76443,0,0,1,59.0914,123.971Z"/><path d="M57.50688,122.81771h0a1.91959,1.91959,0,0,1,1.73275,1.08051l.30675.6232.68549.1a1.93972,1.93972,0,0,1,1.071,3.30574l-.49636.48507.11715.68581a1.93351,1.93351,0,0,1-2.80389,2.04289l-.61287-.32338-.613.32338a1.93345,1.93345,0,0,1-2.80373-2.04289l.11715-.68581-.49636-.48507a1.93972,1.93972,0,0,1,1.071-3.30574l.68549-.1.30659-.6232A1.92,1.92,0,0,1,57.50688,122.81771Zm1.51716,8.22063a1.61444,1.61444,0,0,0,1.574-1.88475l-.14652-.85621.62029-.60642a1.60912,1.60912,0,0,0-.88768-2.74225l-.8575-.12522-.38356-.77939a1.59918,1.59918,0,0,0-2.87248,0l-.3834.77939-.8575.12522A1.609,1.609,0,0,0,53.942,127.691l.62029.60642-.14652.85621a1.603,1.603,0,0,0,2.32383,1.695l.76729-.4047.76713.4047A1.60454,1.60454,0,0,0,59.024,131.03834Z"/><path class="cls-2" d="M57.50656,128.868a1.50748,1.50748,0,1,1,1.5078-1.50716,1.50847,1.50847,0,0,1-1.5078,1.50716m0,.33048a1.838,1.838,0,1,0-1.83764-1.83764,1.83807,1.83807,0,0,0,1.83764,1.83764Z"/><path class="cls-2" d="M57.5,93.13409q.43816.53577.9283,1.026.48944.48937,1.026.9283-.53577.43815-1.026.92829-.48942.48944-.9283,1.026-.43813-.53575-.92828-1.026-.48944-.48942-1.026-.92829.53577-.43816,1.026-.9283Q57.06106,93.67072,57.5,93.13409Z"/><path class="cls-2" d="M50.13509,114.71824q.43815.53576.92829,1.026.48944.48937,1.026.9283-.53577.43815-1.026.92829-.48942.48944-.92829,1.026-.43815-.53577-.92829-1.026-.48944-.48942-1.026-.92829.53577-.43816,1.026-.9283Q49.69614,115.25485,50.13509,114.71824Z"/><path class="cls-2" d="M64.8649,114.71824q.43816.53576.9283,1.026.48944.48937,1.026.9283-.53577.43815-1.026.92829-.48942.48944-.9283,1.026-.43814-.53577-.92828-1.026-.48944-.48942-1.026-.92829.53577-.43816,1.026-.9283Q64.426,115.25485,64.8649,114.71824Z"/><rect class="cls-2" x="39.10352" y="95.15042" width="7.37076" height="25.36613" rx="3.68538"/><path class="cls-2" d="M42.78889,87.38006q.87442,1.06918,1.85256,2.0476.97674.9766,2.04761,1.85256-1.0692.8744-2.04761,1.85254-.97669.97674-1.85256,2.0476-.87438-1.06918-1.85253-2.0476-.97674-.97671-2.04761-1.85254,1.0692-.87442,2.04761-1.85256Q41.91293,88.451,42.78889,87.38006Z"/><path class="cls-2" d="M42.7889,83.49191q.43816.53577.9283,1.026.48944.48936,1.026.92829-.53575.43815-1.026.92829-.48942.48944-.9283,1.026-.43815-.53577-.92829-1.026-.48944-.48942-1.026-.92829.53575-.43815,1.026-.92829Q42.35,84.02853,42.7889,83.49191Z"/><rect class="cls-2" x="68.52571" y="95.15042" width="7.37076" height="25.36613" rx="3.68538"/><path class="cls-2" d="M72.21109,87.38006q.87441,1.06918,1.85255,2.0476.97674.9766,2.04761,1.85256-1.0692.8744-2.04761,1.85254-.9767.97674-1.85255,2.0476-.8744-1.06918-1.85254-2.0476-.97674-.97671-2.04761-1.85254,1.0692-.87442,2.04761-1.85256Q71.33513,88.451,72.21109,87.38006Z"/><path class="cls-2" d="M72.21109,83.49191q.43817.53577.9283,1.026.48944.48936,1.026.92829-.53575.43815-1.026.92829-.48942.48944-.9283,1.026-.43815-.53577-.92829-1.026-.48944-.48942-1.026-.92829.53575-.43815,1.026-.92829Q71.77216,84.02853,72.21109,83.49191Z"/></g></svg>