<svg xmlns="http://www.w3.org/2000/svg" viewBox="0 0 115 167"><defs><style>.cls-1{fill:#fff;}</style></defs><title>card-spades-4</title><g id="artwork"><rect class="cls-1" width="115" height="167" rx="8"/><path d="M20.16919,38.7847c-.54553-1.71784-2.13293-2.67927-3.37659-3.8501a10.95844,10.95844,0,0,1-2.25478-3.01248A10.95844,10.95844,0,0,1,12.283,34.9346c-1.24367,1.17083-2.831,2.13226-3.37656,3.8501a3.61485,3.61485,0,0,0,1.87489,4.47861,2.61246,2.61246,0,0,0,3.03724-.64681,2.089,2.089,0,0,0,.38258-.75081,3.28311,3.28311,0,0,1-.54,1.98477,3.2352,3.2352,0,0,1-.8766.87844v.43936h3.50653V44.7289a3.23545,3.23545,0,0,1-.87663-.87844,3.28306,3.28306,0,0,1-.54-1.98487,2.08905,2.08905,0,0,0,.38261.75091,2.61243,2.61243,0,0,0,3.03723.64681A3.6149,3.6149,0,0,0,20.16919,38.7847Z"/><path d="M16.229,21.78549H9.46065V20.51391l3.97606-9.98246h1.77761L11.175,20.34381h5.054V15.978h1.62916v4.3658h1.77631v1.44168H17.85814v2.734H16.229Z"/><path d="M94.83081,128.2144c.54553,1.71785,2.13293,2.67927,3.37659,3.8501a10.95844,10.95844,0,0,1,2.25478,3.01248,10.95844,10.95844,0,0,1,2.25478-3.01248c1.24367-1.17083,2.831-2.13225,3.37656-3.8501a3.61486,3.61486,0,0,0-1.87489-4.47861,2.61245,2.61245,0,0,0-3.03724.64682,2.0889,2.0889,0,0,0-.38258.7508,3.2831,3.2831,0,0,1,.54-1.98476,3.23524,3.23524,0,0,1,.8766-.87845v-.43936H98.70892v.43936a3.23549,3.23549,0,0,1,.87663.87845,3.283,3.283,0,0,1,.54,1.98486,2.089,2.089,0,0,0-.38261-.7509,2.61241,2.61241,0,0,0-3.03723-.64682A3.61491,3.61491,0,0,0,94.83081,128.2144Z"/><path d="M98.76959,145.21451h6.76833v1.27029l-3.97606,9.98375H99.78555l4.03931-9.813H98.76959v4.36579H97.14173v-4.36579H95.36412v-1.441h1.77761v-2.7346h1.62786Z"/><path d="M44.79648,28.22546c-.8183-2.57677-3.19939-4.01891-5.06489-5.77515a16.438,16.438,0,0,1-3.38217-4.51872,16.43777,16.43777,0,0,1-3.38216,4.51872c-1.8655,1.75624-4.24654,3.19838-5.06485,5.77515a5.42228,5.42228,0,0,0,2.81234,6.71791,3.91867,3.91867,0,0,0,4.55585-.97022,3.13338,3.13338,0,0,0,.57388-1.12621,4.92462,4.92462,0,0,1-.81006,2.97715,4.85291,4.85291,0,0,1-1.3149,1.31767v.659h5.2598v-.659a4.8531,4.8531,0,0,1-1.315-1.31767,4.92462,4.92462,0,0,1-.81-2.97729,3.13376,3.13376,0,0,0,.57392,1.12635,3.91863,3.91863,0,0,0,4.55585.97022A5.42235,5.42235,0,0,0,44.79648,28.22546Z"/><path d="M27.90238,138.77454c.81831,2.57677,3.1994,4.01891,5.0649,5.77515a16.43777,16.43777,0,0,1,3.38216,4.51872,16.438,16.438,0,0,1,3.38217-4.51872c1.8655-1.75624,4.24654-3.19838,5.06485-5.77515a5.42228,5.42228,0,0,0-2.81235-6.71791,3.91867,3.91867,0,0,0-4.55585.97022,3.13336,3.13336,0,0,0-.57387,1.12621,4.92455,4.92455,0,0,1,.81006-2.97715,4.853,4.853,0,0,1,1.31489-1.31767v-.659H33.71955v.659a4.85324,4.85324,0,0,1,1.315,1.31767,4.92462,4.92462,0,0,1,.81,2.97729,3.13376,3.13376,0,0,0-.57392-1.12635,3.91864,3.91864,0,0,0-4.55585-.97022A5.42235,5.42235,0,0,0,27.90238,138.77454Z"/><path d="M87.09762,28.22546c-.81831-2.57677-3.1994-4.01891-5.0649-5.77515a16.43777,16.43777,0,0,1-3.38216-4.51872,16.438,16.438,0,0,1-3.38217,4.51872c-1.8655,1.75624-4.24654,3.19838-5.06485,5.77515a5.42228,5.42228,0,0,0,2.81235,6.71791,3.91867,3.91867,0,0,0,4.55585-.97022,3.13336,3.13336,0,0,0,.57387-1.12621,4.92455,4.92455,0,0,1-.81006,2.97715,4.853,4.853,0,0,1-1.31489,1.31767v.659h5.25979v-.659a4.85324,4.85324,0,0,1-1.31495-1.31767,4.92462,4.92462,0,0,1-.81005-2.97729,3.13376,3.13376,0,0,0,.57392,1.12635,3.91864,3.91864,0,0,0,4.55585.97022A5.42235,5.42235,0,0,0,87.09762,28.22546Z"/><path d="M70.20352,138.77454c.8183,2.57677,3.19939,4.01891,5.06489,5.77515a16.438,16.438,0,0,1,3.38217,4.51872,16.43777,16.43777,0,0,1,3.38216-4.51872c1.8655-1.75624,4.24654-3.19838,5.06485-5.77515a5.42228,5.42228,0,0,0-2.81234-6.71791,3.91867,3.91867,0,0,0-4.55585.97022,3.13338,3.13338,0,0,0-.57388,1.12621,4.92462,4.92462,0,0,1,.81006-2.97715,4.85291,4.85291,0,0,1,1.3149-1.31767v-.659h-5.2598v.659a4.8531,4.8531,0,0,1,1.31495,1.31767,4.92462,4.92462,0,0,1,.81005,2.97729,3.13376,3.13376,0,0,0-.57392-1.12635,3.91863,3.91863,0,0,0-4.55585-.97022A5.42235,5.42235,0,0,0,70.20352,138.77454Z"/></g></svg>