<svg xmlns="http://www.w3.org/2000/svg" viewBox="0 0 115 167"><defs><style>.cls-1{fill:#fff;}</style></defs><title>card-clubs-3</title><g id="artwork"><rect class="cls-1" width="115" height="167" rx="8"/><path d="M10.57259,24.30762l-.65579-.14876.14781-1.335a19.64776,19.64776,0,0,0,3.807.50966,4.60226,4.60226,0,0,0,2.55926-.61573,2.36944,2.36944,0,0,0,.93076-2.13956q0-2.5438-2.87619-2.62854H11.67246V16.55009h2.81293a2.40417,2.40417,0,0,0,1.19475-.32727,2.728,2.728,0,0,0,.96239-.92231,2.4216,2.4216,0,0,0,.38082-1.335A2.00705,2.00705,0,0,0,16.35724,12.28a3.60879,3.60879,0,0,0-2.18942-.51872,17.60721,17.60721,0,0,0-3.34221.31821l-.54993.10608L10.12851,10.892a14.7182,14.7182,0,0,1,4.27168-.59375,5.00658,5.00658,0,0,1,3.279.86928,3.46672,3.46672,0,0,1,1.01466,2.77729,3.4952,3.4952,0,0,1-.54993,1.90672,3.20124,3.20124,0,0,1-1.52265,1.27157,5.39946,5.39946,0,0,1,1.37484.69983,2.36954,2.36954,0,0,1,.772,1.02709,4.44885,4.44885,0,0,1,.264,1.66353,4.17471,4.17471,0,0,1-1.09987,3.18994,4.88294,4.88294,0,0,1-3.42612,1.02838A20.03718,20.03718,0,0,1,10.57259,24.30762Z"/><path d="M21.43021,39.49078a2.94335,2.94335,0,0,0-2.90339-2.1709,2.734,2.734,0,0,0-1.27754.38045c-.20655.12343-.5948.364-.773.0609-.16133-.27453.13316-.53066.3094-.69984a2.92853,2.92853,0,0,0,.84295-1.57112A3.08148,3.08148,0,0,0,16.243,32.36864a3.218,3.218,0,0,0-3.43131,0,3.08147,3.08147,0,0,0-1.38563,3.12163,2.92857,2.92857,0,0,0,.84293,1.57112c.17626.16918.47073.42531.30942.69984-.17819.30309-.56644.06253-.773-.0609a2.73389,2.73389,0,0,0-1.27754-.38045,2.94336,2.94336,0,0,0-2.90339,2.1709,3.18482,3.18482,0,0,0,1.4932,3.5655,3.22609,3.22609,0,0,0,4.72371-1.99154h.26275a3.55453,3.55453,0,0,1-.52553,2.62854,3.50035,3.50035,0,0,1-.94855.95058v.47542h3.79454v-.47542a3.50081,3.50081,0,0,1-.94856-.95058,3.55457,3.55457,0,0,1-.52552-2.62854h.26277A3.22606,3.22606,0,0,0,19.937,43.05628,3.18481,3.18481,0,0,0,21.43021,39.49078Z"/><path d="M104.42817,142.69238l.65579.14876-.14846,1.335a19.63547,19.63547,0,0,0-3.80694-.50966,4.597,4.597,0,0,0-2.55862.61573,2.36862,2.36862,0,0,0-.93205,2.13956q0,2.54381,2.87748,2.62854h2.81293v1.39964h-2.81293a2.40651,2.40651,0,0,0-1.1954.32727,2.721,2.721,0,0,0-.96174.92231,2.41635,2.41635,0,0,0-.38082,1.335,2.00705,2.00705,0,0,0,.66611,1.68552,3.60566,3.60566,0,0,0,2.18813.51872,17.60721,17.60721,0,0,0,3.34221-.31821l.54993-.10608.14846,1.29357a14.72712,14.72712,0,0,1-4.273.59375,5.00375,5.00375,0,0,1-3.27767-.86928,3.98674,3.98674,0,0,1-.466-4.684,3.20584,3.20584,0,0,1,1.52329-1.27157,5.37754,5.37754,0,0,1-1.37483-.69983,2.3795,2.3795,0,0,1-.772-1.02709,4.43465,4.43465,0,0,1-.26464-1.66353,4.17471,4.17471,0,0,1,1.09987-3.18994,4.884,4.884,0,0,1,3.42612-1.02838A20.04451,20.04451,0,0,1,104.42817,142.69238Z"/><path d="M93.56979,127.48722a2.94335,2.94335,0,0,0,2.90339,2.1709,2.734,2.734,0,0,0,1.27754-.38045c.20655-.12343.5948-.364.773-.0609.16133.27453-.13316.53066-.3094.69984a2.92853,2.92853,0,0,0-.843,1.57112,3.08148,3.08148,0,0,0,1.38563,3.12163,3.218,3.218,0,0,0,3.43131,0,3.08147,3.08147,0,0,0,1.38563-3.12163,2.92857,2.92857,0,0,0-.84293-1.57112c-.17626-.16918-.47073-.42531-.30942-.69984.17819-.30309.56644-.06253.773.0609a2.73389,2.73389,0,0,0,1.27754.38045,2.94336,2.94336,0,0,0,2.90339-2.1709,3.18482,3.18482,0,0,0-1.4932-3.5655,3.22609,3.22609,0,0,0-4.72371,1.99154h-.26275a3.55456,3.55456,0,0,1,.52553-2.62855,3.50045,3.50045,0,0,1,.94855-.95057v-.47542H98.57536v.47542a3.50091,3.50091,0,0,1,.94856.95057,3.5546,3.5546,0,0,1,.52552,2.62855h-.26277a3.22606,3.22606,0,0,0-4.72369-1.99154A3.18481,3.18481,0,0,0,93.56979,127.48722Z"/><path d="M67.85426,29.46182a4.415,4.415,0,0,0-4.35508-3.25635,4.10088,4.10088,0,0,0-1.91631.57067c-.30982.18514-.8922.546-1.15946.09134-.242-.41178.19975-.796.46411-1.04976A4.39284,4.39284,0,0,0,62.15194,23.461a4.62222,4.62222,0,0,0-2.07845-4.68244,4.827,4.827,0,0,0-5.147,0A4.62218,4.62218,0,0,0,52.84809,23.461a4.39273,4.39273,0,0,0,1.26439,2.35668c.26439.25379.7061.638.46414,1.04976-.26729.45465-.84967.0938-1.15949-.09134a4.10078,4.10078,0,0,0-1.91632-.57067,4.415,4.415,0,0,0-4.35507,3.25635,4.77722,4.77722,0,0,0,2.23979,5.34825,4.83914,4.83914,0,0,0,7.08556-2.98732h.39412a5.33179,5.33179,0,0,1-.78828,3.94282,5.25051,5.25051,0,0,1-1.42283,1.42586v.71314h5.69181v-.71314a5.25124,5.25124,0,0,1-1.42284-1.42586,5.33193,5.33193,0,0,1-.78828-3.94282h.39415a4.8391,4.8391,0,0,0,7.08553,2.98732A4.77721,4.77721,0,0,0,67.85426,29.46182Z"/><path d="M47.14574,137.53818a4.415,4.415,0,0,0,4.35508,3.25635,4.10088,4.10088,0,0,0,1.91631-.57067c.30982-.18514.8922-.546,1.15946-.09134.242.41178-.19975.796-.46411,1.04976a4.39284,4.39284,0,0,0-1.26442,2.35668,4.62222,4.62222,0,0,0,2.07845,4.68244,4.827,4.827,0,0,0,5.147,0,4.62218,4.62218,0,0,0,2.07844-4.68244,4.39273,4.39273,0,0,0-1.26439-2.35668c-.26439-.25379-.7061-.638-.46414-1.04976.26729-.45465.84967-.0938,1.15949.09134a4.10078,4.10078,0,0,0,1.91632.57067,4.415,4.415,0,0,0,4.35507-3.25635,4.77722,4.77722,0,0,0-2.23979-5.34825,4.83914,4.83914,0,0,0-7.08556,2.98732h-.39412a5.33179,5.33179,0,0,1,.78828-3.94282,5.25051,5.25051,0,0,1,1.42283-1.42586v-.71314H54.65409v.71314a5.25124,5.25124,0,0,1,1.42284,1.42586,5.33193,5.33193,0,0,1,.78828,3.94282h-.39415a4.8391,4.8391,0,0,0-7.08553-2.98732A4.77721,4.77721,0,0,0,47.14574,137.53818Z"/><path d="M67.85426,84.99185a4.415,4.415,0,0,0-4.35508-3.25635,4.10088,4.10088,0,0,0-1.91631.57067c-.30982.18514-.8922.546-1.15946.09135-.242-.41179.19975-.796.46411-1.04976a4.39288,4.39288,0,0,0,1.26442-2.35668,4.62223,4.62223,0,0,0-2.07845-4.68245,4.827,4.827,0,0,0-5.147,0,4.62219,4.62219,0,0,0-2.07844,4.68245,4.39276,4.39276,0,0,0,1.26439,2.35668c.26439.25378.7061.638.46414,1.04976-.26729.45464-.84967.09379-1.15949-.09135a4.10078,4.10078,0,0,0-1.91632-.57067,4.415,4.415,0,0,0-4.35507,3.25635,4.77723,4.77723,0,0,0,2.23979,5.34826,4.83916,4.83916,0,0,0,7.08556-2.98732h.39412a5.33181,5.33181,0,0,1-.78828,3.94282,5.25079,5.25079,0,0,1-1.42283,1.42586v.71313h5.69181v-.71313a5.25152,5.25152,0,0,1-1.42284-1.42586,5.33194,5.33194,0,0,1-.78828-3.94282h.39415a4.83912,4.83912,0,0,0,7.08553,2.98732A4.77721,4.77721,0,0,0,67.85426,84.99185Z"/></g></svg>