<svg xmlns="http://www.w3.org/2000/svg" viewBox="0 0 87 127"><defs><style>.cls-1{fill:#fff;}.cls-2{fill:#ff3b5c;}</style></defs><title>card-hearts-8</title><g id="artwork"><rect class="cls-1" x="0.00232" width="86.99536" height="127" rx="6"/><path class="cls-2" d="M7.034,16.18621a2.94049,2.94049,0,0,1,.416-1.692,4.04876,4.04876,0,0,1,1.40723-1.146,3.35668,3.35668,0,0,1-1.26367-1.0021,2.55787,2.55787,0,0,1-.38379-1.48259A2.32458,2.32458,0,0,1,8.21758,8.81041a4.72422,4.72422,0,0,1,2.752-.68894,4.82464,4.82464,0,0,1,2.80859.7134,2.34853,2.34853,0,0,1,1.01562,2.04432A2.50016,2.50016,0,0,1,14.41,12.37843a3.45383,3.45383,0,0,1-1.376.9698,3.70819,3.70819,0,0,1,1.46387,1.04223,2.59765,2.59765,0,0,1,.45605,1.6196q0,3.02978-3.95215,3.02978Q7.03349,19.03984,7.034,16.18621Zm6.6084-.30435a1.62467,1.62467,0,0,0-.44043-1.235,3.53565,3.53565,0,0,0-1.43262-.70558H10.08965a2.625,2.625,0,0,0-1.32031.72124,1.92265,1.92265,0,0,0-.42383,1.31525q0,1.94059,2.65625,1.93961Q13.64142,17.91737,13.64239,15.88186Zm-1.87305-3.01413a3.13848,3.13848,0,0,0,1.29688-.72221,1.55241,1.55241,0,0,0,.416-1.12247q0-1.77912-2.48047-1.77912-2.48,0-2.48047,1.76346a1.67174,1.67174,0,0,0,.377,1.13813,2.77284,2.77284,0,0,0,1.1914.72221Z"/><path class="cls-2" d="M11.00252,34.55582a19.02855,19.02855,0,0,1,1.766-2.35955c1.229-1.401,2.82162-2.82022,2.87911-4.83038a2.832,2.832,0,0,0-1.18093-2.47944,2.10249,2.10249,0,0,0-2.50028.12611,2.154,2.154,0,0,0-.72839,1.28485c-.02219.1337-.0557.35392-.23547.35392s-.21327-.22022-.23545-.35392a2.154,2.154,0,0,0-.7284-1.28485,2.10247,2.10247,0,0,0-2.50027-.12611,2.832,2.832,0,0,0-1.18093,2.47944c.05748,2.01016,1.65007,3.42935,2.8791,4.83038A19.02548,19.02548,0,0,1,11.00252,34.55582Z"/><path class="cls-2" d="M79.96661,110.81313a2.946,2.946,0,0,1-.416,1.692,4.04394,4.04394,0,0,1-1.4082,1.14595,3.36262,3.36262,0,0,1,1.26465,1.0021,2.55922,2.55922,0,0,1,.38378,1.48358,2.32284,2.32284,0,0,1-1.00781,2.05215,4.7166,4.7166,0,0,1-2.752.68992,4.82229,4.82229,0,0,1-2.80859-.71439,2.34681,2.34681,0,0,1-1.01563-2.04334,2.496,2.496,0,0,1,.38379-1.49923,3.45447,3.45447,0,0,1,1.376-.97079,3.7069,3.7069,0,0,1-1.46387-1.04124,2.59959,2.59959,0,0,1-.45606-1.6196q0-3.03126,3.95215-3.03077Q79.9671,107.95949,79.96661,110.81313Zm-6.60743.30532a1.62574,1.62574,0,0,0,.43946,1.235,3.54385,3.54385,0,0,0,1.43164.7046h1.68066a2.61,2.61,0,0,0,1.31934-.72123,1.9173,1.9173,0,0,0,.4248-1.31428q0-1.9406-2.65625-1.94059Q73.35919,109.082,73.35918,111.11845Zm1.8711,3.01413a3.1246,3.1246,0,0,0-1.29492.72124,1.55237,1.55237,0,0,0-.416,1.12247q0,1.77911,2.47949,1.78009,2.48,0,2.47949-1.76444a1.67742,1.67742,0,0,0-.375-1.13812,2.77291,2.77291,0,0,0-1.19238-.72124Z"/><path class="cls-2" d="M75.99748,92.57753a19.0278,19.0278,0,0,1-1.766,2.35955c-1.229,1.401-2.82162,2.82023-2.87911,4.83039a2.832,2.832,0,0,0,1.18093,2.47943,2.10249,2.10249,0,0,0,2.50028-.12611A2.154,2.154,0,0,0,75.762,100.836c.02219-.1337.0557-.35393.23547-.35393s.21327.22023.23545.35393a2.154,2.154,0,0,0,.7284,1.28484,2.10247,2.10247,0,0,0,2.50027.12611,2.832,2.832,0,0,0,1.18093-2.47943c-.05748-2.01016-1.65007-3.42935-2.8791-4.83039A19.02474,19.02474,0,0,1,75.99748,92.57753Z"/><path class="cls-2" d="M27.5,28.86219a28.5418,28.5418,0,0,1,2.64893-3.53933c1.84357-2.10155,4.23243-4.23033,4.31868-7.24557a4.24806,4.24806,0,0,0-1.7714-3.71916,3.15373,3.15373,0,0,0-3.75042.18917,3.231,3.231,0,0,0-1.09259,1.92727c-.03329.20055-.08356.53088-.3532.53088s-.31991-.33033-.35318-.53088a3.231,3.231,0,0,0-1.0926-1.92727,3.15372,3.15372,0,0,0-3.75041-.18917,4.24806,4.24806,0,0,0-1.7714,3.71916c.08623,3.01524,2.47511,5.144,4.31866,7.24557A28.54081,28.54081,0,0,1,27.5,28.86219Z"/><path class="cls-2" d="M27.5,98.13781a28.5418,28.5418,0,0,1-2.64893,3.53933c-1.84357,2.10155-4.23243,4.23033-4.31868,7.24557a4.24806,4.24806,0,0,0,1.7714,3.71916,3.15373,3.15373,0,0,0,3.75042-.18917,3.231,3.231,0,0,0,1.09259-1.92727c.03329-.20055.08356-.53088.3532-.53088s.31991.33033.35318.53088a3.231,3.231,0,0,0,1.0926,1.92727,3.15372,3.15372,0,0,0,3.75041.18917,4.24806,4.24806,0,0,0,1.7714-3.71916c-.08623-3.01524-2.47511-5.144-4.31866-7.24557A28.54081,28.54081,0,0,1,27.5,98.13781Z"/><path class="cls-2" d="M59.5,28.86219a28.5418,28.5418,0,0,1,2.64893-3.53933c1.84357-2.10155,4.23243-4.23033,4.31868-7.24557a4.24806,4.24806,0,0,0-1.7714-3.71916,3.15373,3.15373,0,0,0-3.75042.18917,3.231,3.231,0,0,0-1.09259,1.92727c-.03329.20055-.08356.53088-.3532.53088s-.31991-.33033-.35318-.53088a3.231,3.231,0,0,0-1.0926-1.92727,3.15372,3.15372,0,0,0-3.75041-.18917,4.24806,4.24806,0,0,0-1.7714,3.71916c.08623,3.01524,2.47511,5.144,4.31866,7.24557A28.54081,28.54081,0,0,1,59.5,28.86219Z"/><path class="cls-2" d="M59.5,98.13781a28.5418,28.5418,0,0,1-2.64893,3.53933c-1.84357,2.10155-4.23243,4.23033-4.31868,7.24557a4.24806,4.24806,0,0,0,1.7714,3.71916,3.15373,3.15373,0,0,0,3.75042-.18917,3.231,3.231,0,0,0,1.09259-1.92727c.03329-.20055.08356-.53088.3532-.53088s.31991.33033.35318.53088a3.231,3.231,0,0,0,1.0926,1.92727,3.15372,3.15372,0,0,0,3.75041.18917,4.24806,4.24806,0,0,0,1.7714-3.71916c-.08623-3.01524-2.47511-5.144-4.31866-7.24557A28.54081,28.54081,0,0,1,59.5,98.13781Z"/><path class="cls-2" d="M27.5,71.01574a28.54106,28.54106,0,0,1,2.64893-3.53933c1.84357-2.10155,4.23243-4.23033,4.31868-7.24558a4.24805,4.24805,0,0,0-1.7714-3.71915,3.15373,3.15373,0,0,0-3.75042.18916,3.231,3.231,0,0,0-1.09259,1.92727c-.03329.20055-.08356.53089-.3532.53089s-.31991-.33034-.35318-.53089a3.231,3.231,0,0,0-1.0926-1.92727,3.15372,3.15372,0,0,0-3.75041-.18916,4.24805,4.24805,0,0,0-1.7714,3.71915c.08623,3.01525,2.47511,5.144,4.31866,7.24558A28.54006,28.54006,0,0,1,27.5,71.01574Z"/><path class="cls-2" d="M59.5,71.01574a28.54106,28.54106,0,0,1,2.64893-3.53933c1.84357-2.10155,4.23243-4.23033,4.31868-7.24558a4.24805,4.24805,0,0,0-1.7714-3.71915,3.15373,3.15373,0,0,0-3.75042.18916,3.231,3.231,0,0,0-1.09259,1.92727c-.03329.20055-.08356.53089-.3532.53089s-.31991-.33034-.35318-.53089a3.231,3.231,0,0,0-1.0926-1.92727,3.15372,3.15372,0,0,0-3.75041-.18916,4.24805,4.24805,0,0,0-1.7714,3.71915c.08623,3.01525,2.47511,5.144,4.31866,7.24558A28.54006,28.54006,0,0,1,59.5,71.01574Z"/><path class="cls-2" d="M43.5,49.97165a28.54106,28.54106,0,0,1,2.64893-3.53933c1.84357-2.10155,4.23243-4.23034,4.31868-7.24558a4.24805,4.24805,0,0,0-1.7714-3.71915,3.15372,3.15372,0,0,0-3.75042.18916A3.231,3.231,0,0,0,43.85319,37.584c-.03329.20055-.08356.53089-.3532.53089s-.31991-.33034-.35318-.53089a3.231,3.231,0,0,0-1.0926-1.92727,3.1537,3.1537,0,0,0-3.75041-.18916,4.24805,4.24805,0,0,0-1.7714,3.71915c.08623,3.01524,2.47511,5.144,4.31866,7.24558A28.54006,28.54006,0,0,1,43.5,49.97165Z"/><path class="cls-2" d="M43.5,77.02835a28.54106,28.54106,0,0,1-2.64893,3.53933c-1.84357,2.10155-4.23243,4.23034-4.31868,7.24558a4.24805,4.24805,0,0,0,1.7714,3.71915,3.15372,3.15372,0,0,0,3.75042-.18916A3.231,3.231,0,0,0,43.14681,89.416c.03329-.20055.08356-.53089.3532-.53089s.31991.33034.35318.53089a3.231,3.231,0,0,0,1.0926,1.92727,3.1537,3.1537,0,0,0,3.75041.18916,4.24805,4.24805,0,0,0,1.7714-3.71915c-.08623-3.01524-2.47511-5.144-4.31866-7.24558A28.54006,28.54006,0,0,1,43.5,77.02835Z"/></g></svg>