<svg xmlns="http://www.w3.org/2000/svg" viewBox="0 0 87 127"><defs><style>.cls-1{fill:#fff;}.cls-2{fill:#ff3b5c;}</style></defs><title>card-hearts-5</title><g id="artwork"><rect class="cls-1" width="87" height="127" rx="6"/><path class="cls-2" d="M8.056,18.67173l-.52835-.11254.14454-.97764a16.59335,16.59335,0,0,0,3.10368.3523,2.56088,2.56088,0,0,0,1.88-.641,2.4551,2.4551,0,0,0,.64847-1.82805,2.09849,2.09849,0,0,0-.56839-1.64309,2.44419,2.44419,0,0,0-1.672-.505,5.02728,5.02728,0,0,0-1.16022.15169,5.69917,5.69917,0,0,0-1.01568.32881l-.33595.16049-.84771-.16049.28713-5.4998h6.16048V9.4209h-5.136L8.728,12.86758a5.22233,5.22233,0,0,1,2.4806-.65763q3.35905,0,3.35955,3.12667a3.77813,3.77813,0,0,1-.92,2.73326,3.46584,3.46584,0,0,1-2.61635.95513A13.89667,13.89667,0,0,1,8.056,18.67173Z"/><path class="cls-2" d="M11.00079,34.55614a19.0275,19.0275,0,0,1,1.76605-2.35955c1.22911-1.401,2.82177-2.82022,2.87927-4.83039a2.83194,2.83194,0,0,0-1.181-2.47943,2.10268,2.10268,0,0,0-2.50041.12611,2.154,2.154,0,0,0-.72843,1.28484c-.0222.1337-.05571.35393-.23548.35393s-.21328-.22023-.23546-.35393a2.154,2.154,0,0,0-.72845-1.28484,2.10267,2.10267,0,0,0-2.5004-.12611,2.832,2.832,0,0,0-1.181,2.47943c.05748,2.01017,1.65016,3.42936,2.87925,4.83039A19.02551,19.02551,0,0,1,11.00079,34.55614Z"/><path class="cls-2" d="M78.94458,108.32925l.52737.11254-.14356.97764a16.60267,16.60267,0,0,0-3.10466-.3523,2.564,2.564,0,0,0-1.88.641,2.45857,2.45857,0,0,0-.6475,1.828,2.10174,2.10174,0,0,0,.56742,1.64309,2.44691,2.44691,0,0,0,1.67294.505,4.96483,4.96483,0,0,0,1.15924-.15267,5.64216,5.64216,0,0,0,1.01666-.32783l.33595-.16049.8477.16049-.2881,5.49882H72.84758v-1.12149h5.136l.28908-3.44765a5.22526,5.22526,0,0,1-2.4806.65763q-3.36052,0-3.36053-3.12667a3.78409,3.78409,0,0,1,.921-2.73424,3.46258,3.46258,0,0,1,2.61537-.95317A13.89283,13.89283,0,0,1,78.94458,108.32925Z"/><path class="cls-2" d="M75.99921,92.57785a19.0275,19.0275,0,0,1-1.76605,2.35955c-1.22911,1.401-2.82177,2.82023-2.87927,4.83039a2.83194,2.83194,0,0,0,1.181,2.47943,2.10268,2.10268,0,0,0,2.50041-.12611,2.15394,2.15394,0,0,0,.72843-1.28484c.0222-.1337.05571-.35393.23548-.35393s.21328.22023.23546.35393a2.154,2.154,0,0,0,.72845,1.28484,2.10267,2.10267,0,0,0,2.5004.12611,2.832,2.832,0,0,0,1.181-2.47943c-.05748-2.01016-1.65016-3.42935-2.87925-4.83039A19.02551,19.02551,0,0,1,75.99921,92.57785Z"/><path class="cls-2" d="M43.5,71.01574a28.54114,28.54114,0,0,1,2.64907-3.53933c1.84367-2.10155,4.23266-4.23033,4.31891-7.24558a4.248,4.248,0,0,0-1.7715-3.71915,3.154,3.154,0,0,0-3.75062.18916,3.231,3.231,0,0,0-1.09265,1.92727c-.03329.20055-.08355.53089-.35321.53089s-.31993-.33034-.35319-.53089a3.23109,3.23109,0,0,0-1.09267-1.92727,3.154,3.154,0,0,0-3.7506-.18916,4.248,4.248,0,0,0-1.7715,3.71915c.08623,3.01525,2.47524,5.144,4.31889,7.24558A28.54014,28.54014,0,0,1,43.5,71.01574Z"/><path class="cls-2" d="M27.49913,28.86219a28.54189,28.54189,0,0,1,2.64907-3.53933c1.84366-2.10155,4.23265-4.23033,4.3189-7.24557a4.24792,4.24792,0,0,0-1.77149-3.71916,3.154,3.154,0,0,0-3.75062.18917,3.231,3.231,0,0,0-1.09265,1.92727c-.03329.20055-.08356.53088-.35321.53088s-.31993-.33033-.3532-.53088a3.231,3.231,0,0,0-1.09266-1.92727,3.154,3.154,0,0,0-3.75061-.18917,4.248,4.248,0,0,0-1.77149,3.71916c.08623,3.01524,2.47524,5.144,4.31888,7.24557A28.54,28.54,0,0,1,27.49913,28.86219Z"/><path class="cls-2" d="M27.49915,98.13781a28.54388,28.54388,0,0,1-2.64907,3.53933c-1.84367,2.10155-4.23266,4.23033-4.31891,7.24557a4.248,4.248,0,0,0,1.77149,3.71916,3.154,3.154,0,0,0,3.75062-.18917,3.231,3.231,0,0,0,1.09265-1.92727c.03329-.20055.08356-.53088.35322-.53088s.31992.33033.35319.53088A3.231,3.231,0,0,0,28.945,112.4527a3.154,3.154,0,0,0,3.7506.18917,4.24792,4.24792,0,0,0,1.77149-3.71916c-.08622-3.01524-2.47524-5.144-4.31888-7.24557A28.53989,28.53989,0,0,1,27.49915,98.13781Z"/><path class="cls-2" d="M59.50085,28.86219a28.54388,28.54388,0,0,1,2.64907-3.53933c1.84367-2.10155,4.23266-4.23033,4.31891-7.24557a4.248,4.248,0,0,0-1.77149-3.71916,3.154,3.154,0,0,0-3.75062.18917,3.231,3.231,0,0,0-1.09265,1.92727c-.03329.20055-.08356.53088-.35322.53088s-.31992-.33033-.35319-.53088A3.231,3.231,0,0,0,58.055,14.5473a3.154,3.154,0,0,0-3.7506-.18917,4.24792,4.24792,0,0,0-1.77149,3.71916c.08622,3.01524,2.47524,5.144,4.31888,7.24557A28.53989,28.53989,0,0,1,59.50085,28.86219Z"/><path class="cls-2" d="M59.50087,98.13781a28.54189,28.54189,0,0,1-2.64907,3.53933c-1.84366,2.10155-4.23265,4.23033-4.3189,7.24557a4.24792,4.24792,0,0,0,1.77149,3.71916,3.154,3.154,0,0,0,3.75062-.18917,3.231,3.231,0,0,0,1.09265-1.92727c.03329-.20055.08356-.53088.35321-.53088s.31993.33033.3532.53088a3.231,3.231,0,0,0,1.09266,1.92727,3.154,3.154,0,0,0,3.75061.18917,4.248,4.248,0,0,0,1.77149-3.71916c-.08623-3.01524-2.47524-5.144-4.31888-7.24557A28.54,28.54,0,0,1,59.50087,98.13781Z"/></g></svg>