<svg xmlns="http://www.w3.org/2000/svg" viewBox="0 0 115 167"><defs><style>.cls-1{fill:#fff;}.cls-2{fill:#ff3b5c;}</style></defs><title>card-clubs-j</title><g id="artwork"><rect class="cls-1" width="115" height="167" rx="8"/><path d="M11.85183,24.58066a5.78279,5.78279,0,0,0,1.56589-.14877.97917.97917,0,0,0,.64417-.61448,4.70786,4.70786,0,0,0,.18073-1.54719V9.85h1.60721l.02065,12.65307a4.78126,4.78126,0,0,1-.4544,2.37382,1.99549,1.99549,0,0,1-1.25866.96505,10.124,10.124,0,0,1-2.30559.20052Z"/><path d="M21.43021,39.48866a2.94337,2.94337,0,0,0-2.90339-2.171,2.73387,2.73387,0,0,0-1.27754.38047c-.20655.12344-.5948.364-.773.0609-.16133-.27454.13316-.53068.3094-.69988a2.92869,2.92869,0,0,0,.84295-1.5712,3.08172,3.08172,0,0,0-1.38563-3.1218,3.2179,3.2179,0,0,0-3.43131,0,3.08171,3.08171,0,0,0-1.38563,3.1218,2.92873,2.92873,0,0,0,.84293,1.5712c.17626.1692.47073.42534.30942.69988-.17819.30311-.56644.06254-.773-.0609a2.7338,2.7338,0,0,0-1.27754-.38047,2.94338,2.94338,0,0,0-2.90339,2.171,3.18506,3.18506,0,0,0,1.4932,3.56569,3.226,3.226,0,0,0,4.72371-1.99165h.26275a3.5549,3.5549,0,0,1-.52553,2.62869,3.5005,3.5005,0,0,1-.94855.95062v.47545h3.79454V44.642a3.501,3.501,0,0,1-.94856-.95062,3.55494,3.55494,0,0,1-.52552-2.62869h.26277A3.226,3.226,0,0,0,19.937,43.05435,3.18506,3.18506,0,0,0,21.43021,39.48866Z"/><path d="M103.154,142.41934a5.79567,5.79567,0,0,0-1.56589.14748.981.981,0,0,0-.64418.61577,4.70813,4.70813,0,0,0-.18073,1.54719V157.15H99.156l-.02066-12.65307a4.78671,4.78671,0,0,1,.45441-2.37511,1.9935,1.9935,0,0,1,1.25865-.96376,10.03694,10.03694,0,0,1,2.3056-.20181Z"/><path d="M93.56979,127.48979a2.94335,2.94335,0,0,0,2.90339,2.171,2.73375,2.73375,0,0,0,1.27754-.38047c.20655-.12343.5948-.364.773-.0609.16133.27454-.13316.53069-.3094.69988a2.92875,2.92875,0,0,0-.843,1.57121,3.08171,3.08171,0,0,0,1.38563,3.12179,3.21784,3.21784,0,0,0,3.43131,0,3.08169,3.08169,0,0,0,1.38563-3.12179,2.92879,2.92879,0,0,0-.84293-1.57121c-.17626-.16919-.47073-.42534-.30942-.69988.17819-.30311.56644-.06253.773.0609a2.73368,2.73368,0,0,0,1.27754.38047,2.94336,2.94336,0,0,0,2.90339-2.171,3.18508,3.18508,0,0,0-1.4932-3.5657,3.22606,3.22606,0,0,0-4.72371,1.99166h-.26275a3.5549,3.5549,0,0,1,.52553-2.62869,3.50053,3.50053,0,0,1,.94855-.95063V121.861H98.57536v.47544a3.501,3.501,0,0,1,.94856.95063,3.55494,3.55494,0,0,1,.52552,2.62869h-.26277a3.226,3.226,0,0,0-4.72369-1.99166A3.18507,3.18507,0,0,0,93.56979,127.48979Z"/><rect x="57.17101" y="64.50455" width="0.66095" height="7.59582"/><path d="M57.50149,83.5028A11.74368,11.74368,0,0,1,45.771,71.77247h.661a11.06946,11.06946,0,0,0,22.13892,0h.66095A11.74353,11.74353,0,0,1,57.50149,83.5028Z"/><path d="M66.64093,64.85148H65.98a2.26041,2.26041,0,0,0-4.52082,0h-.661a2.92137,2.92137,0,0,1,5.84274,0Z"/><circle cx="64.56022" cy="63.45899" r="0.85668"/><path d="M54.20462,64.85148h-.66095a2.26042,2.26042,0,0,0-4.52083,0h-.661a2.92137,2.92137,0,1,1,5.84274,0Z"/><circle cx="52.12394" cy="63.45899" r="0.85668"/><rect class="cls-2" x="53.08329" y="75.34737" width="8.83624" height="0.66095"/><path class="cls-2" d="M53.08329,75.97765a1.48007,1.48007,0,1,0,2.96013,0Z"/><path d="M50.12481,55.58276a3.871,3.871,0,0,0-3.683,2.70578V50.11117a3.68275,3.68275,0,0,1,3.68237-3.683h.00065a3.68274,3.68274,0,0,1,3.68237,3.683v8.17737A3.87137,3.87137,0,0,0,50.12481,55.58276Z"/><path d="M57.49084,55.58276a3.87217,3.87217,0,0,0-3.683,2.70578V50.11117a3.68316,3.68316,0,0,1,3.68237-3.683h.00064a3.68274,3.68274,0,0,1,3.68237,3.683v8.17737A3.87076,3.87076,0,0,0,57.49084,55.58276Z"/><path d="M64.85752,55.58276a3.87158,3.87158,0,0,0-3.683,2.70578V50.11117a3.68275,3.68275,0,0,1,3.68237-3.683h.00065a3.68275,3.68275,0,0,1,3.68237,3.683v8.17737A3.87138,3.87138,0,0,0,64.85752,55.58276Z"/><path class="cls-2" d="M50.12481,44.5042a3.871,3.871,0,0,1-3.683-2.70578v8.17737a3.68275,3.68275,0,0,0,3.68237,3.683h.00065a3.68274,3.68274,0,0,0,3.68237-3.683V41.79842A3.87137,3.87137,0,0,1,50.12481,44.5042Z"/><path class="cls-2" d="M57.49084,44.5042a3.87217,3.87217,0,0,1-3.683-2.70578v8.17737a3.68316,3.68316,0,0,0,3.68237,3.683h.00064a3.68274,3.68274,0,0,0,3.68237-3.683V41.79842A3.87076,3.87076,0,0,1,57.49084,44.5042Z"/><path class="cls-2" d="M64.85752,44.5042a3.87158,3.87158,0,0,1-3.683-2.70578v8.17737a3.68275,3.68275,0,0,0,3.68237,3.683h.00065a3.68275,3.68275,0,0,0,3.68237-3.683V41.79842A3.87138,3.87138,0,0,1,64.85752,44.5042Z"/><path d="M59.07022,48.318a.67325.67325,0,0,0-.6643-.49569.62646.62646,0,0,0-.2923.08687c-.04726.02818-.13609.08311-.17686.0139-.03691-.06268.03047-.12116.07079-.15979a.66825.66825,0,0,0,.19287-.35875.703.703,0,0,0-.317-.71277.73755.73755,0,0,0-.78509,0,.703.703,0,0,0-.317.71277.66824.66824,0,0,0,.19286.35875c.04033.03863.1077.09711.0708.15979-.04078.06921-.12961.01428-.17687-.0139a.62642.62642,0,0,0-.2923-.08687.67325.67325,0,0,0-.6643.49569.72661.72661,0,0,0,.34165.81413.73856.73856,0,0,0,1.08079-.45474H57.394a.81028.81028,0,0,1-.12024.60019.79976.79976,0,0,1-.217.217v.10856h.8682v-.10856a.8.8,0,0,1-.217-.217.81028.81028,0,0,1-.12024-.60019h.06012a.73855.73855,0,0,0,1.08079.45474A.7266.7266,0,0,0,59.07022,48.318Z"/><path d="M63.557,39.84723a1.02,1.02,0,0,0-1.00643-.751.94921.94921,0,0,0-.44284.13161c-.0716.0427-.20618.12592-.26794.02107-.05593-.095.04616-.18357.10725-.2421a1.01243,1.01243,0,0,0,.2922-.5435,1.0651,1.0651,0,0,0-.48032-1.07986,1.11738,1.11738,0,0,0-1.18942,0,1.0651,1.0651,0,0,0-.48031,1.07986,1.01241,1.01241,0,0,0,.29219.5435c.0611.05853.16317.14713.10726.2421-.06177.10485-.19635.02163-.26795-.02107a.94921.94921,0,0,0-.44285-.13161,1.02,1.02,0,0,0-1.00642.751,1.1008,1.1008,0,0,0,.5176,1.23341,1.11892,1.11892,0,0,0,1.63742-.68893h.09107a1.22756,1.22756,0,0,1-.18216.90929,1.21227,1.21227,0,0,1-.32881.32884v.16446h1.31534v-.16446A1.21227,1.21227,0,0,1,61.493,41.301a1.22761,1.22761,0,0,1-.18217-.90929h.09109a1.11891,1.11891,0,0,0,1.63741.68893A1.1008,1.1008,0,0,0,63.557,39.84723Z"/><path d="M56.21031,39.84723a1.02,1.02,0,0,0-1.00642-.751.94917.94917,0,0,0-.44284.13161c-.0716.0427-.20619.12592-.26795.02107-.05592-.095.04616-.18357.10725-.2421a1.01243,1.01243,0,0,0,.2922-.5435,1.06511,1.06511,0,0,0-.48031-1.07986,1.11738,1.11738,0,0,0-1.18942,0,1.0651,1.0651,0,0,0-.48032,1.07986,1.01248,1.01248,0,0,0,.29219.5435c.0611.05853.16318.14713.10726.2421-.06177.10485-.19635.02163-.26795-.02107a.94917.94917,0,0,0-.44284-.13161,1.02,1.02,0,0,0-1.00643.751,1.1008,1.1008,0,0,0,.5176,1.23341,1.11891,1.11891,0,0,0,1.63742-.68893h.09108a1.22757,1.22757,0,0,1-.18217.90929,1.21209,1.21209,0,0,1-.3288.32884v.16446h1.31533v-.16446a1.21255,1.21255,0,0,1-.32881-.32884,1.22761,1.22761,0,0,1-.18216-.90929h.09108a1.11891,1.11891,0,0,0,1.63742.68893A1.10078,1.10078,0,0,0,56.21031,39.84723Z"/><rect x="68.50976" y="53.98332" width="7.37076" height="26.57825" rx="3.68538"/><rect x="39.06794" y="53.98332" width="7.37076" height="26.57825" rx="3.68538"/><rect class="cls-2" x="70.2545" y="49.33264" width="3.97498" height="33.83984" rx="1.98749"/><rect class="cls-1" x="72.0767" y="49.78701" width="0.33048" height="33.02418"/><path class="cls-1" d="M72.24194,83.00708a1.82432,1.82432,0,0,1-1.8223-1.82214V51.32031a1.82231,1.82231,0,1,1,3.64461,0V81.18494A1.82433,1.82433,0,0,1,72.24194,83.00708Zm0-33.17876a1.4936,1.4936,0,0,0-1.49183,1.492V81.18494a1.49183,1.49183,0,0,0,2.98366,0V51.32031A1.4936,1.4936,0,0,0,72.24194,49.82832Z"/><circle class="cls-1" cx="72.24658" cy="48.18819" r="3.68548"/><path d="M72.2463,45.16355a3.02465,3.02465,0,1,1-3.024,3.02464,3.028,3.028,0,0,1,3.024-3.02464m0-.66095a3.6856,3.6856,0,1,0,3.68559,3.68559A3.68549,3.68549,0,0,0,72.2463,44.5026Z"/><path d="M73.826,48.318a.67326.67326,0,0,0-.6643-.49569.62653.62653,0,0,0-.29231.08687c-.04725.02818-.13609.08311-.17685.0139-.03691-.06268.03047-.12116.07079-.15979a.66832.66832,0,0,0,.19287-.35875.703.703,0,0,0-.317-.71277.73755.73755,0,0,0-.78509,0,.703.703,0,0,0-.317.71277.6683.6683,0,0,0,.19286.35875c.04033.03863.10771.09711.0708.15979-.04077.06921-.1296.01428-.17686-.0139a.62646.62646,0,0,0-.29231-.08687.67325.67325,0,0,0-.66429.49569.7266.7266,0,0,0,.34164.81413.73855.73855,0,0,0,1.08079-.45474h.06012a.81028.81028,0,0,1-.12024.60019.8.8,0,0,1-.217.217v.10856h.8682v-.10856a.80008.80008,0,0,1-.217-.217.81032.81032,0,0,1-.12024-.60019h.06013a.73854.73854,0,0,0,1.08078.45474A.72661.72661,0,0,0,73.826,48.318Z"/><rect x="57.16804" y="94.89964" width="0.66095" height="7.59582"/><path d="M57.49851,83.4972A11.74368,11.74368,0,0,1,69.229,95.22753h-.661a11.06946,11.06946,0,0,0-22.13892,0h-.66095A11.74353,11.74353,0,0,1,57.49851,83.4972Z"/><path d="M48.35907,102.14852h.661a2.26041,2.26041,0,0,0,4.52082,0h.661a2.92137,2.92137,0,0,1-5.84274,0Z"/><circle cx="50.43978" cy="103.54101" r="0.85668"/><path d="M60.79538,102.14852h.66095a2.26042,2.26042,0,0,0,4.52083,0h.661a2.92137,2.92137,0,0,1-5.84274,0Z"/><circle cx="62.87606" cy="103.54101" r="0.85668"/><rect class="cls-2" x="53.08048" y="90.99168" width="8.83624" height="0.66095"/><path class="cls-2" d="M61.91671,91.02235a1.48007,1.48007,0,1,0-2.96013,0Z"/><path d="M64.87519,111.41724a3.871,3.871,0,0,0,3.683-2.70578v8.17737a3.68275,3.68275,0,0,1-3.68237,3.683h-.00065a3.68274,3.68274,0,0,1-3.68237-3.683v-8.17737A3.87137,3.87137,0,0,0,64.87519,111.41724Z"/><path d="M57.50916,111.41724a3.87217,3.87217,0,0,0,3.683-2.70578v8.17737a3.68316,3.68316,0,0,1-3.68237,3.683h-.00064a3.68274,3.68274,0,0,1-3.68237-3.683v-8.17737A3.87076,3.87076,0,0,0,57.50916,111.41724Z"/><path d="M50.14248,111.41724a3.87158,3.87158,0,0,0,3.683-2.70578v8.17737a3.68275,3.68275,0,0,1-3.68237,3.683h-.00065a3.68275,3.68275,0,0,1-3.68237-3.683v-8.17737A3.87138,3.87138,0,0,0,50.14248,111.41724Z"/><path class="cls-2" d="M64.87519,122.4958a3.871,3.871,0,0,1,3.683,2.70578v-8.17737a3.68275,3.68275,0,0,0-3.68237-3.683h-.00065a3.68274,3.68274,0,0,0-3.68237,3.683v8.17737A3.87137,3.87137,0,0,1,64.87519,122.4958Z"/><path class="cls-2" d="M57.50916,122.4958a3.87217,3.87217,0,0,1,3.683,2.70578v-8.17737a3.68316,3.68316,0,0,0-3.68237-3.683h-.00064a3.68274,3.68274,0,0,0-3.68237,3.683v8.17737A3.87076,3.87076,0,0,1,57.50916,122.4958Z"/><path class="cls-2" d="M50.14248,122.4958a3.87158,3.87158,0,0,1,3.683,2.70578v-8.17737a3.68275,3.68275,0,0,0-3.68237-3.683h-.00065a3.68275,3.68275,0,0,0-3.68237,3.683v8.17737A3.87138,3.87138,0,0,1,50.14248,122.4958Z"/><path d="M55.92978,118.682a.67325.67325,0,0,0,.6643.49569.62646.62646,0,0,0,.2923-.08687c.04726-.02818.13609-.08311.17686-.0139.03691.06268-.03047.12116-.07079.15979a.66825.66825,0,0,0-.19287.35875.703.703,0,0,0,.317.71277.73755.73755,0,0,0,.78509,0,.703.703,0,0,0,.317-.71277.66824.66824,0,0,0-.19286-.35875c-.04033-.03863-.1077-.09711-.0708-.15979.04078-.06921.12961-.01428.17687.0139a.62642.62642,0,0,0,.2923.08687.67325.67325,0,0,0,.6643-.49569.72661.72661,0,0,0-.34165-.81413.73856.73856,0,0,0-1.08079.45474H57.606a.81028.81028,0,0,1,.12024-.60019.79976.79976,0,0,1,.217-.217v-.10856h-.8682v.10856a.8.8,0,0,1,.217.217.81028.81028,0,0,1,.12024.60019h-.06012a.73855.73855,0,0,0-1.08079-.45474A.7266.7266,0,0,0,55.92978,118.682Z"/><path d="M51.44305,127.15277a1.02,1.02,0,0,0,1.00643.751.94921.94921,0,0,0,.44284-.13161c.0716-.0427.20618-.12592.26794-.02107.05593.095-.04616.18357-.10725.2421a1.01243,1.01243,0,0,0-.2922.5435,1.0651,1.0651,0,0,0,.48032,1.07986,1.11738,1.11738,0,0,0,1.18942,0,1.0651,1.0651,0,0,0,.48031-1.07986,1.01241,1.01241,0,0,0-.29219-.5435c-.0611-.05853-.16317-.14713-.10726-.2421.06177-.10485.19635-.02163.26795.02107a.94921.94921,0,0,0,.44285.13161,1.02,1.02,0,0,0,1.00642-.751,1.1008,1.1008,0,0,0-.5176-1.23341,1.11892,1.11892,0,0,0-1.63742.68893h-.09107a1.22756,1.22756,0,0,1,.18216-.90929,1.21227,1.21227,0,0,1,.32881-.32884v-.16446H53.17817v.16446a1.21227,1.21227,0,0,1,.32881.32884,1.22761,1.22761,0,0,1,.18217.90929h-.09109a1.11891,1.11891,0,0,0-1.63741-.68893A1.1008,1.1008,0,0,0,51.44305,127.15277Z"/><path d="M58.78969,127.15277a1.02,1.02,0,0,0,1.00642.751.94917.94917,0,0,0,.44284-.13161c.0716-.0427.20619-.12592.26795-.02107.05592.095-.04616.18357-.10725.2421a1.01243,1.01243,0,0,0-.2922.5435,1.06511,1.06511,0,0,0,.48031,1.07986,1.11738,1.11738,0,0,0,1.18942,0,1.0651,1.0651,0,0,0,.48032-1.07986,1.01248,1.01248,0,0,0-.29219-.5435c-.0611-.05853-.16318-.14713-.10726-.2421.06177-.10485.19635-.02163.26795.02107a.94917.94917,0,0,0,.44284.13161,1.02,1.02,0,0,0,1.00643-.751,1.1008,1.1008,0,0,0-.5176-1.23341,1.11891,1.11891,0,0,0-1.63742.68893h-.09108a1.22757,1.22757,0,0,1,.18217-.90929,1.21209,1.21209,0,0,1,.3288-.32884v-.16446H60.52481v.16446a1.21255,1.21255,0,0,1,.32881.32884,1.22761,1.22761,0,0,1,.18216.90929H60.9447a1.11891,1.11891,0,0,0-1.63742-.68893A1.10078,1.10078,0,0,0,58.78969,127.15277Z"/><rect x="39.11948" y="86.43842" width="7.37076" height="26.57825" rx="3.68538"/><rect x="68.5613" y="86.43842" width="7.37076" height="26.57825" rx="3.68538"/><rect class="cls-2" x="40.77051" y="83.82752" width="3.97498" height="33.83984" rx="1.98749"/><rect class="cls-1" x="42.59282" y="84.18881" width="0.33048" height="33.02418"/><path class="cls-1" d="M42.75806,83.99292a1.82432,1.82432,0,0,1,1.8223,1.82214v29.86463a1.82231,1.82231,0,1,1-3.64461,0V85.81506A1.82433,1.82433,0,0,1,42.75806,83.99292Zm0,33.17876a1.4936,1.4936,0,0,0,1.49183-1.492V85.81506a1.49183,1.49183,0,0,0-2.98366,0v29.86463A1.4936,1.4936,0,0,0,42.75806,117.17168Z"/><circle class="cls-1" cx="42.75342" cy="118.81181" r="3.68548"/><path d="M42.7537,121.83645a3.02465,3.02465,0,1,1,3.024-3.02464,3.028,3.028,0,0,1-3.024,3.02464m0,.66095a3.6856,3.6856,0,1,0-3.68559-3.68559,3.68549,3.68549,0,0,0,3.68559,3.68559Z"/><path d="M41.174,118.682a.67326.67326,0,0,0,.6643.49569.62653.62653,0,0,0,.29231-.08687c.04725-.02818.13609-.08311.17685-.0139.03691.06268-.03047.12116-.07079.15979a.66832.66832,0,0,0-.19287.35875.703.703,0,0,0,.317.71277.73755.73755,0,0,0,.78509,0,.703.703,0,0,0,.317-.71277.6683.6683,0,0,0-.19286-.35875c-.04033-.03863-.10771-.09711-.0708-.15979.04077-.06921.1296-.01428.17686.0139a.62646.62646,0,0,0,.29231.08687.67325.67325,0,0,0,.66429-.49569.7266.7266,0,0,0-.34164-.81413.73855.73855,0,0,0-1.08079.45474h-.06012a.81028.81028,0,0,1,.12024-.60019.8.8,0,0,1,.217-.217v-.10856h-.8682v.10856a.80008.80008,0,0,1,.217.217.81032.81032,0,0,1,.12024.60019h-.06013a.73854.73854,0,0,0-1.08078-.45474A.72661.72661,0,0,0,41.174,118.682Z"/></g></svg>