<svg xmlns="http://www.w3.org/2000/svg" viewBox="0 0 87 127"><defs><style>.cls-1{fill:#7376ff;}.cls-2{fill:#3a3799;}.cls-3{fill:#ff3b5c;}.cls-4{fill:none;}</style></defs><title>card-back</title><g id="artwork"><rect class="cls-1" y="0.00018" width="86.93404" height="126.98041" rx="6"/><path d="M81.00421,1.99969a4.00286,4.00286,0,0,1,3.99718,3.99938V120.98133a4.00286,4.00286,0,0,1-3.99718,3.99939H6.062a4.00286,4.00286,0,0,1-3.99718-3.99939V5.99907A4.00286,4.00286,0,0,1,6.062,1.99969H81.00421m0-1.99969H6.062A6.015,6.015,0,0,0,.06618,5.99907V120.98133A6.01468,6.01468,0,0,0,6.062,126.98041H81.00421A6.015,6.015,0,0,0,87,120.98133V5.99907A6.01531,6.01531,0,0,0,81.00421,0Z"/><path class="cls-2" d="M81.00421,4.99923a1.00088,1.00088,0,0,1,.9993.99984V120.98133a1.00088,1.00088,0,0,1-.9993.99985H6.06147a1.00088,1.00088,0,0,1-.9993-.99985V5.99907a1.00088,1.00088,0,0,1,.9993-.99984H81.00421m0-1.99969H6.06147A3.0023,3.0023,0,0,0,3.06358,5.99907V120.98133a3.00231,3.00231,0,0,0,2.99789,2.99954H81.00421a3.002,3.002,0,0,0,2.99789-2.99954V5.99907a3.002,3.002,0,0,0-2.99789-2.99953Z"/><rect class="cls-3" x="24.39204" y="115.4978" width="0.53429" height="5.13495"/><rect class="cls-3" x="62.27316" y="115.63597" width="0.53429" height="5.07514"/><path class="cls-3" d="M57.06163,107.67967a1.41824,1.41824,0,1,1-1.41746,1.41824,1.41924,1.41924,0,0,1,1.41746-1.41824m0-.59024a2.00848,2.00848,0,1,0,2.00688,2.00848,2.008,2.008,0,0,0-2.00688-2.00848Z"/><path class="cls-3" d="M57.06137,105.11164a2.11024,2.11024,0,0,1,2.00743,1.47565v-12.659a2.00792,2.00792,0,0,0-2.00717-2.00853h-.00026a2.00791,2.00791,0,0,0-2.00717,2.00853v12.659A2.11016,2.11016,0,0,1,57.06137,105.11164Z"/><path d="M59.32578,114.23823h-.514a1.75023,1.75023,0,1,0-3.50046,0h-.514a2.26428,2.26428,0,1,1,4.52855,0Z"/><rect class="cls-3" x="56.80449" y="66.03083" width="0.51404" height="18.6934"/><path class="cls-3" d="M57.06149,120.48865a8.66962,8.66962,0,0,1,.80568-1.07483,3.75357,3.75357,0,0,0,1.31354-2.20036,1.28931,1.28931,0,0,0-.53878-1.12944.96041.96041,0,0,0-1.1407.05744.98085.98085,0,0,0-.33231.58528c-.01012.0609-.02541.16122-.10743.16122s-.0973-.10032-.10741-.16122a.98091.98091,0,0,0-.33232-.58528.96041.96041,0,0,0-1.1407-.05744,1.28933,1.28933,0,0,0-.53877,1.12944,3.75356,3.75356,0,0,0,1.31353,2.20036A8.66855,8.66855,0,0,1,57.06149,120.48865Z"/><path d="M59.005,88.3216c-.18828-.592-.73613-.92332-1.16536-1.3268a3.77707,3.77707,0,0,1-.77818-1.03814,3.77711,3.77711,0,0,1-.77819,1.03814c-.42923.40348-.97707.73481-1.16535,1.3268A1.245,1.245,0,0,0,55.765,89.865a.90255.90255,0,0,0,1.04823-.2229.71953.71953,0,0,0,.132-.25874,1.13017,1.13017,0,0,1-.18639.684,1.11553,1.11553,0,0,1-.30254.30272v.15141H57.6666v-.15141a1.11557,1.11557,0,0,1-.30255-.30272,1.13,1.13,0,0,1-.18638-.684.71951.71951,0,0,0,.132.25877.90254.90254,0,0,0,1.04823.2229A1.24506,1.24506,0,0,0,59.005,88.3216Z"/><path d="M53.65739,111.02247a2.29575,2.29575,0,0,0-2.0073,1.59054v.00051l-.00051.00051v-.001a2.29568,2.29568,0,0,0-2.00679-1.59054Z"/><rect x="51.39302" y="114.06907" width="0.51404" height="6.58663"/><rect class="cls-3" x="51.39302" y="102.25082" width="0.51404" height="7.22252"/><rect class="cls-3" x="49.64279" y="74.97207" width="4.01462" height="0.51408"/><path class="cls-3" d="M51.6501,100.60248q-.51144-.62571-1.08354-1.19828-.57128-.57152-1.19761-1.08413.62535-.5117,1.19761-1.08412.57126-.57159,1.08354-1.19827.51141.6257,1.08352,1.19827.57127.57157,1.19761,1.08412-.62535.51171-1.19761,1.08413Q52.16243,99.97578,51.6501,100.60248Z"/><path d="M54.03246,71.673a1.01563,1.01563,0,0,0-1.002-.74812.94447.94447,0,0,0-.44092.13111c-.07128.04253-.20528.12543-.26678.021-.05567-.0946.046-.18287.10679-.24117a1.00879,1.00879,0,0,0,.29093-.54143,1.06131,1.06131,0,0,0-.47823-1.07576,1.112,1.112,0,0,0-1.18424,0,1.06128,1.06128,0,0,0-.47822,1.07576,1.00877,1.00877,0,0,0,.29092.54143c.06083.0583.16246.14657.10679.24117-.0615.10445-.19549.02155-.26678-.021a.94447.94447,0,0,0-.44092-.13111,1.01563,1.01563,0,0,0-1.002.74812,1.09686,1.09686,0,0,0,.51535,1.22872,1.11387,1.11387,0,0,0,1.63028-.68631H51.504a1.22342,1.22342,0,0,1-.18137.90583,1.20717,1.20717,0,0,1-.32737.32758v.16384h1.3096v-.16384a1.20717,1.20717,0,0,1-.32737-.32758,1.22342,1.22342,0,0,1-.18137-.90583h.09068a1.11387,1.11387,0,0,0,1.63028.68631A1.09685,1.09685,0,0,0,54.03246,71.673Z"/><rect x="49.64279" y="76.65513" width="4.01459" height="12.92473" rx="1.97299"/><circle cx="51.65009" cy="92.89617" r="2.00775"/><rect x="49.64279" y="47.65275" width="4.01459" height="20.28863" rx="1.97299" transform="translate(103.30018 115.59414) rotate(180)"/><circle cx="51.65009" cy="31.69314" r="2.00775"/><path d="M51.64992,12.89157a1.418,1.418,0,1,1-1.417,1.41775,1.41924,1.41924,0,0,1,1.417-1.41775m0-.59025a2.00824,2.00824,0,1,0,2.00737,2.008,2.00717,2.00717,0,0,0-2.00737-2.008Z"/><path class="cls-3" d="M51.65022,35.94361A2.11024,2.11024,0,0,1,49.64279,34.468v4.4596A2.00792,2.00792,0,0,0,51.65,40.93609h.00026a2.00792,2.00792,0,0,0,2.00717-2.00853V34.468A2.11016,2.11016,0,0,1,51.65022,35.94361Z"/><path d="M51.65,28.564a2.26735,2.26735,0,0,1-2.26427-2.26527h.514a1.75029,1.75029,0,1,0,3.50058,0h.514A2.26737,2.26737,0,0,1,51.65,28.564Z"/><rect x="51.10892" y="19.6913" width="0.51404" height="5.29435"/><rect class="cls-3" x="49.64279" y="17.53977" width="4.01462" height="0.51408"/><path class="cls-3" d="M51.65008,6.37889q.51144.6257,1.08354,1.19827.57127.57152,1.19761,1.08413-.62535.51171-1.19761,1.08412-.57126.57161-1.08354,1.19828-.51141-.62571-1.08352-1.19828-.57128-.57157-1.19761-1.08412.62535-.51171,1.19761-1.08413Q51.13775,7.00559,51.65008,6.37889Z"/><path d="M49.26772,44.12078a1.01563,1.01563,0,0,0,1.002.74812.94447.94447,0,0,0,.44092-.13111c.07128-.04253.20528-.12543.26678-.021.05567.0946-.046.18287-.10679.24117a1.00879,1.00879,0,0,0-.29093.54143,1.06131,1.06131,0,0,0,.47823,1.07576,1.112,1.112,0,0,0,1.18424,0,1.06128,1.06128,0,0,0,.47822-1.07576,1.00877,1.00877,0,0,0-.29092-.54143c-.06083-.0583-.16246-.14657-.10679-.24117.0615-.10445.19549-.02155.26678.021a.94447.94447,0,0,0,.44092.13111,1.01563,1.01563,0,0,0,1.002-.74812,1.09686,1.09686,0,0,0-.51535-1.22872,1.11387,1.11387,0,0,0-1.63028.68631h-.09068a1.22342,1.22342,0,0,1,.18137-.90583,1.20717,1.20717,0,0,1,.32737-.32758v-.16384h-1.3096V42.345a1.20717,1.20717,0,0,1,.32737.32758,1.22342,1.22342,0,0,1,.18137.90583h-.09068a1.11387,1.11387,0,0,0-1.63028-.68631A1.09685,1.09685,0,0,0,49.26772,44.12078Z"/><path d="M46.23879,95.5801h0a2.0073,2.0073,0,0,1,2.0073,2.0073v10.14422a2.0073,2.0073,0,0,1-2.0073,2.0073h0a2.00729,2.00729,0,0,1-2.00729-2.00729V97.5874a2.0073,2.0073,0,0,1,2.0073-2.0073Z"/><rect class="cls-3" x="44.23138" y="59.65627" width="4.01459" height="20.28863" rx="1.97299"/><path class="cls-3" d="M46.2387,117.21336a1.418,1.418,0,1,1-1.41746,1.41824,1.41934,1.41934,0,0,1,1.41746-1.41824m0-.59024a2.00824,2.00824,0,1,0,2.00737,2.00848,2.008,2.008,0,0,0-2.00737-2.00848Z"/><path d="M46.23881,87.60821a2.11024,2.11024,0,0,1-2.00743-1.47564v4.45959a2.00792,2.00792,0,0,0,2.00717,2.00853h.00026A2.00791,2.00791,0,0,0,48.246,90.59216V86.13257A2.11016,2.11016,0,0,1,46.23881,87.60821Z"/><rect x="44.23144" y="93.82512" width="4.0145" height="0.51408"/><path class="cls-3" d="M46.23868,85.64534a8.66862,8.66862,0,0,1,.80568-1.07483,3.75361,3.75361,0,0,0,1.31353-2.20036,1.28934,1.28934,0,0,0-.53877-1.12944.96039.96039,0,0,0-1.1407.05745.98089.98089,0,0,0-.33232.58527c-.01012.06091-.02541.16123-.10742.16123s-.0973-.10032-.10742-.16123a.98084.98084,0,0,0-.33232-.58527.96038.96038,0,0,0-1.14069-.05745,1.28932,1.28932,0,0,0-.53878,1.12944A3.75356,3.75356,0,0,0,45.433,84.57051,8.66763,8.66763,0,0,1,46.23868,85.64534Z"/><path d="M48.18223,113.26047c-.18828-.592-.73614-.92332-1.16536-1.3268a3.77691,3.77691,0,0,1-.77819-1.03814,3.77691,3.77691,0,0,1-.77819,1.03814c-.42922.40348-.97707.7348-1.16535,1.3268a1.245,1.245,0,0,0,.64708,1.54339.90256.90256,0,0,0,1.04824-.2229.71951.71951,0,0,0,.132-.25874,1.13016,1.13016,0,0,1-.18638.684,1.116,1.116,0,0,1-.30254.30272v.15141h1.2102v-.15141a1.11585,1.11585,0,0,1-.30255-.30272,1.13019,1.13019,0,0,1-.18638-.684.71963.71963,0,0,0,.132.25878.90256.90256,0,0,0,1.04824.2229A1.24506,1.24506,0,0,0,48.18223,113.26047Z"/><rect x="44.23138" y="0.10437" width="4.01459" height="24.86625" rx="1.97299" transform="translate(92.47736 25.07499) rotate(-180)"/><circle cx="46.23868" cy="43.0159" r="2.00775"/><path class="cls-3" d="M46.23881,52.88168A2.11024,2.11024,0,0,1,44.23138,51.406v4.91512a2.00792,2.00792,0,0,0,2.00717,2.00853h.00026A2.00791,2.00791,0,0,0,48.246,56.32116V51.406A2.11016,2.11016,0,0,1,46.23881,52.88168Z"/><path d="M44.23138,33.66a2.29575,2.29575,0,0,0,2.0073-1.59054v-.00051l.00051-.00051v.001A2.29568,2.29568,0,0,0,48.246,33.66Z"/><rect x="45.98167" y="34.64138" width="0.51404" height="5.29435"/><path class="cls-3" d="M46.23869,26.14734a8.66962,8.66962,0,0,1-.80568,1.07483,3.75354,3.75354,0,0,0-1.31354,2.20036,1.28932,1.28932,0,0,0,.53878,1.12944.96039.96039,0,0,0,1.1407-.05745.98082.98082,0,0,0,.33231-.58528c.01012-.0609.02541-.16122.10743-.16122s.0973.10032.10741.16122a.98089.98089,0,0,0,.33232.58528.96039.96039,0,0,0,1.1407.05745,1.28934,1.28934,0,0,0,.53877-1.12944,3.75353,3.75353,0,0,0-1.31353-2.20036A8.66855,8.66855,0,0,1,46.23869,26.14734Z"/><path d="M44.29514,48.449c.18828.592.73613.92331,1.16536,1.3268a3.77707,3.77707,0,0,1,.77818,1.03814,3.77711,3.77711,0,0,1,.77819-1.03814c.42923-.40349.97707-.73481,1.16535-1.3268a1.245,1.245,0,0,0-.64708-1.54339.90255.90255,0,0,0-1.04823.2229.71945.71945,0,0,0-.132.25874,1.13015,1.13015,0,0,1,.18639-.684,1.11553,1.11553,0,0,1,.30254-.30272v-.15141H45.63358v.15141a1.11557,1.11557,0,0,1,.30255.30272,1.13,1.13,0,0,1,.18638.684.71942.71942,0,0,0-.132-.25877.90254.90254,0,0,0-1.04823-.2229A1.24506,1.24506,0,0,0,44.29514,48.449Z"/><rect x="60.46561" y="85.90127" width="4.01459" height="20.28863" rx="1.97299"/><path d="M62.47285,77.471a2.26735,2.26735,0,0,1-2.26427-2.26528h.514a1.75029,1.75029,0,1,0,3.50058,0h.514A2.26737,2.26737,0,0,1,62.47285,77.471Z"/><rect x="60.4656" y="78.58187" width="4.01462" height="0.51408"/><path class="cls-3" d="M62.47291,84.89133q-.51144-.62569-1.08353-1.19827-.57129-.57153-1.19762-1.08414.62535-.51169,1.19762-1.08412.57126-.57159,1.08353-1.19827.51143.62569,1.08353,1.19827.57127.57157,1.19761,1.08412-.62535.51172-1.19761,1.08414Q62.98524,84.26464,62.47291,84.89133Z"/><path d="M64.85527,109.79744a1.01562,1.01562,0,0,0-1.002-.74812.94447.94447,0,0,0-.44091.13111c-.07129.04253-.20529.12543-.26678.021-.05568-.0946.046-.18287.10679-.24117a1.0087,1.0087,0,0,0,.29092-.54143,1.0613,1.0613,0,0,0-.47822-1.07576,1.112,1.112,0,0,0-1.18424,0,1.06128,1.06128,0,0,0-.47822,1.07576,1.0087,1.0087,0,0,0,.29092.54143c.06083.0583.16246.14657.10679.24117-.0615.10445-.1955.02155-.26678-.021a.94451.94451,0,0,0-.44092-.13111,1.01562,1.01562,0,0,0-1.002.74812,1.09686,1.09686,0,0,0,.51534,1.22872,1.11388,1.11388,0,0,0,1.63029-.68631h.09068a1.22346,1.22346,0,0,1-.18137.90583,1.20707,1.20707,0,0,1-.32738.32758v.16384h1.30961v-.16384a1.20735,1.20735,0,0,1-.32738-.32758,1.22351,1.22351,0,0,1-.18137-.90583h.09069a1.11387,1.11387,0,0,0,1.63028.68631A1.09684,1.09684,0,0,0,64.85527,109.79744Z"/><rect class="cls-3" x="60.46561" y="61.22528" width="4.01459" height="12.92473" rx="1.97299"/><path d="M64.4802,112.83949A2.29573,2.29573,0,0,0,62.47291,114.43v.00051l-.00052.00052v-.001a2.29565,2.29565,0,0,0-2.00678-1.59054Z"/><rect x="60.46561" y="14.62005" width="4.01459" height="20.28863" rx="1.97299" transform="matrix(-1, 0, 0, -1, 124.94581, 49.52872)"/><path d="M64.73724,45.60429h-.514a1.75029,1.75029,0,1,0-3.50058,0h-.514a2.26433,2.26433,0,1,1,4.52866,0Z"/><rect x="60.4656" y="41.71402" width="4.01462" height="0.51408"/><path class="cls-3" d="M62.4729,35.91861q.51144.62571,1.08354,1.19828.57127.57152,1.19761,1.08413-.62535.5117-1.19761,1.08412-.57128.57159-1.08354,1.19827-.51142-.6257-1.08352-1.19827-.57129-.57158-1.19762-1.08412.62536-.51172,1.19762-1.08413Q61.96057,36.54532,62.4729,35.91861Z"/><path d="M60.09054,11.0125a1.01561,1.01561,0,0,0,1.002.74812.94465.94465,0,0,0,.44092-.1311c.07128-.04254.20528-.12544.26677-.021.05568.0946-.046.18287-.10678.24117a1.00886,1.00886,0,0,0-.29093.54143,1.0613,1.0613,0,0,0,.47822,1.07576,1.112,1.112,0,0,0,1.18424,0,1.06128,1.06128,0,0,0,.47822-1.07576,1.00876,1.00876,0,0,0-.29091-.54143c-.06084-.0583-.16247-.14657-.1068-.24117.0615-.10445.1955-.02155.26679.021a.94454.94454,0,0,0,.44091.1311,1.01561,1.01561,0,0,0,1.002-.74812,1.09685,1.09685,0,0,0-.51534-1.22872,1.11388,1.11388,0,0,0-1.63029.68631H62.619a1.22346,1.22346,0,0,1,.18137-.90583,1.20721,1.20721,0,0,1,.32738-.32758V9.07284H61.8181v.16384a1.20749,1.20749,0,0,1,.32738.32758,1.22351,1.22351,0,0,1,.18137.90583h-.09069a1.11387,1.11387,0,0,0-1.63028-.68631A1.09685,1.09685,0,0,0,60.09054,11.0125Z"/><rect class="cls-3" x="60.46561" y="46.65993" width="4.01459" height="12.92473" rx="1.97299" transform="translate(124.94579 106.24463) rotate(-179.99998)"/><path d="M60.46561,7.97045a2.29575,2.29575,0,0,0,2.0073-1.59054V6.3794l.00051-.00051v.001A2.29568,2.29568,0,0,0,64.4802,7.97045Z"/><rect x="71.36144" y="62.37623" width="4.01459" height="20.28863" rx="1.97299"/><circle cx="73.36874" cy="98.62448" r="2.00775"/><path d="M73.369,111.31388a1.41824,1.41824,0,1,1-1.41745,1.41824,1.41924,1.41924,0,0,1,1.41745-1.41824m0-.59024a2.00848,2.00848,0,1,0,2.00689,2.00848,2.008,2.008,0,0,0-2.00689-2.00848Z"/><path class="cls-3" d="M73.36861,94.374A2.11021,2.11021,0,0,1,75.376,95.84965V91.39006a2.00791,2.00791,0,0,0-2.00717-2.00853h-.00025a2.00791,2.00791,0,0,0-2.00717,2.00853v4.45959A2.11016,2.11016,0,0,1,73.36861,94.374Z"/><path d="M75.633,104.01911h-.514a1.75023,1.75023,0,1,0-3.50046,0h-.514a2.26427,2.26427,0,1,1,4.52854,0Z"/><rect x="73.11171" y="105.33189" width="0.51404" height="2.24355"/><rect class="cls-3" x="71.36148" y="108.98758" width="4.0145" height="0.51408"/><path class="cls-3" d="M73.36874,120.66274q-.51144-.62569-1.08353-1.19827-.57129-.57152-1.19762-1.08413.62536-.51171,1.19762-1.08412.57126-.57161,1.08353-1.19828.51142.62571,1.08353,1.19828.57127.57157,1.19761,1.08412-.62535.51171-1.19761,1.08413Q73.88108,120.036,73.36874,120.66274Z"/><path d="M75.7511,86.19684a1.01561,1.01561,0,0,0-1.002-.74812.94457.94457,0,0,0-.44091.1311c-.07129.04254-.20528.12544-.26678.021-.05568-.09461.046-.18287.10679-.24118a1.00871,1.00871,0,0,0,.29092-.54142,1.0613,1.0613,0,0,0-.47822-1.07576,1.112,1.112,0,0,0-1.18424,0,1.06128,1.06128,0,0,0-.47822,1.07576,1.00878,1.00878,0,0,0,.29092.54142c.06083.05831.16246.14657.10679.24118-.0615.10445-.1955.02155-.26678-.021a.94461.94461,0,0,0-.44092-.1311,1.01561,1.01561,0,0,0-1.002.74812,1.09687,1.09687,0,0,0,.51534,1.22872,1.11388,1.11388,0,0,0,1.63029-.68631h.09068a1.22346,1.22346,0,0,1-.18137.90583,1.20731,1.20731,0,0,1-.32737.32758v.16384h1.3096v-.16384a1.20749,1.20749,0,0,1-.32738-.32758,1.22351,1.22351,0,0,1-.18137-.90583h.09069a1.11387,1.11387,0,0,0,1.63028.68631A1.09686,1.09686,0,0,0,75.7511,86.19684Z"/><path d="M71.28842,19.073a2.29575,2.29575,0,0,0,2.0073-1.59054V17.482l.00051-.00051v.001A2.29568,2.29568,0,0,0,75.303,19.073Z"/><rect x="73.03864" y="9.24955" width="0.51404" height="6.77679"/><rect class="cls-3" x="73.03864" y="20.62231" width="0.51404" height="7.22252"/><rect class="cls-3" x="71.28841" y="54.60949" width="4.01462" height="0.51408"/><path class="cls-3" d="M73.29572,29.493q.51142.62571,1.08353,1.19828.57129.57152,1.19762,1.08413-.62537.51169-1.19762,1.08412-.57126.57159-1.08353,1.19827-.51143-.6257-1.08353-1.19827-.57128-.57158-1.19761-1.08412.62535-.51172,1.19761-1.08413Q72.78337,30.11972,73.29572,29.493Z"/><path d="M70.91335,58.42254a1.01564,1.01564,0,0,0,1.00205.74812.94447.94447,0,0,0,.44091-.13111c.07129-.04253.20528-.12543.26678-.021.05568.0946-.046.18287-.10679.24117a1.0087,1.0087,0,0,0-.29092.54143,1.06128,1.06128,0,0,0,.47822,1.07576,1.112,1.112,0,0,0,1.18424,0,1.06128,1.06128,0,0,0,.47822-1.07576,1.00877,1.00877,0,0,0-.29092-.54143c-.06083-.0583-.16246-.14657-.10679-.24117.0615-.10445.1955-.02155.26678.021a.94447.94447,0,0,0,.44092.13111,1.01563,1.01563,0,0,0,1.002-.74812,1.09686,1.09686,0,0,0-.51534-1.22872,1.11388,1.11388,0,0,0-1.63029.68631h-.09068a1.22346,1.22346,0,0,1,.18137-.90583,1.20717,1.20717,0,0,1,.32737-.32758v-.16384h-1.3096v.16384a1.20717,1.20717,0,0,1,.32737.32758,1.22347,1.22347,0,0,1,.18138.90583H73.059a1.11387,1.11387,0,0,0-1.63028-.68631A1.09686,1.09686,0,0,0,70.91335,58.42254Z"/><rect x="71.28842" y="40.51563" width="4.01459" height="12.92473" rx="1.97299" transform="translate(146.59142 93.95602) rotate(-179.99997)"/><circle cx="73.29572" cy="37.19932" r="2.00775"/><path class="cls-3" d="M75.303,6.37889a2.29575,2.29575,0,0,0-2.0073,1.59054v.00051l-.00051.00051v-.001a2.29568,2.29568,0,0,0-2.00679-1.59054Z"/><rect class="cls-3" x="56.80449" y="33.86977" width="0.51404" height="13.24503"/><rect class="cls-3" x="55.0542" y="14.04499" width="4.01459" height="12.92473" rx="1.97299" transform="translate(114.123 41.01471) rotate(179.99999)"/><circle cx="57.0615" cy="50.73491" r="2.00775"/><path d="M57.06163,7.85453A2.11024,2.11024,0,0,1,55.0542,6.37889v4.45959A2.00792,2.00792,0,0,0,57.06137,12.847h.00026a2.00793,2.00793,0,0,0,2.00717-2.00854V6.37889A2.11016,2.11016,0,0,1,57.06163,7.85453Z"/><path d="M55.0542,60.9029a2.29577,2.29577,0,0,0,2.0073-1.59054v-.00052l.00051-.00051v.001A2.29569,2.29569,0,0,0,59.0688,60.9029Z"/><path class="cls-3" d="M57.0615,53.817a8.66862,8.66862,0,0,1-.80568,1.07483,3.75358,3.75358,0,0,0-1.31353,2.20035,1.28935,1.28935,0,0,0,.53877,1.12945.96039.96039,0,0,0,1.1407-.05745.98089.98089,0,0,0,.33232-.58528c.01012-.0609.02541-.16122.10742-.16122s.0973.10032.10742.16122a.98084.98084,0,0,0,.33232.58528.96038.96038,0,0,0,1.14069.05745,1.28933,1.28933,0,0,0,.53878-1.12945,3.75358,3.75358,0,0,0-1.31353-2.20035A8.66763,8.66763,0,0,1,57.0615,53.817Z"/><path d="M55.118,30.4236c.18828.592.73614.92332,1.16536,1.3268a3.77691,3.77691,0,0,1,.77819,1.03814,3.77691,3.77691,0,0,1,.77819-1.03814c.42922-.40348.97707-.7348,1.16535-1.3268a1.245,1.245,0,0,0-.64708-1.54339.90258.90258,0,0,0-1.04824.2229.71951.71951,0,0,0-.132.25874,1.13016,1.13016,0,0,1,.18638-.684,1.116,1.116,0,0,1,.30254-.30272v-.15141H56.4564v.15141a1.11585,1.11585,0,0,1,.30255.30272,1.13019,1.13019,0,0,1,.18638.684.71963.71963,0,0,0-.132-.25878.90257.90257,0,0,0-1.04824-.2229A1.24506,1.24506,0,0,0,55.118,30.4236Z"/><rect class="cls-3" x="67.6273" y="79.8058" width="0.51404" height="13.24503"/><rect class="cls-3" x="65.87702" y="99.95105" width="4.01459" height="12.92473" rx="1.97299"/><circle cx="67.88431" cy="76.18586" r="2.00775"/><path d="M67.88419,119.06624a2.11024,2.11024,0,0,1,2.00742,1.47565v-4.4596a2.00791,2.00791,0,0,0-2.00717-2.00853h-.00025a2.00791,2.00791,0,0,0-2.00717,2.00853v4.4596A2.11016,2.11016,0,0,1,67.88419,119.06624Z"/><path d="M69.89161,66.01788a2.29575,2.29575,0,0,0-2.0073,1.59054v.00051l-.00051.00051v-.001A2.29568,2.29568,0,0,0,65.877,66.01788Z"/><path class="cls-3" d="M67.88431,73.1038A8.66947,8.66947,0,0,1,68.69,72.029a3.75357,3.75357,0,0,0,1.31354-2.20035,1.28934,1.28934,0,0,0-.53878-1.12944.96041.96041,0,0,0-1.1407.05744.98082.98082,0,0,0-.33231.58528c-.01013.0609-.02542.16122-.10743.16122s-.0973-.10032-.10742-.16122a.98084.98084,0,0,0-.33232-.58528.96039.96039,0,0,0-1.14069-.05744,1.28931,1.28931,0,0,0-.53878,1.12944A3.75355,3.75355,0,0,0,67.07863,72.029,8.66848,8.66848,0,0,1,67.88431,73.1038Z"/><path d="M69.82786,96.49717c-.18828-.592-.73614-.92331-1.16536-1.3268a3.77691,3.77691,0,0,1-.77819-1.03814,3.77691,3.77691,0,0,1-.77819,1.03814c-.42922.40349-.97706.73481-1.16535,1.3268a1.24505,1.24505,0,0,0,.64708,1.54339.90256.90256,0,0,0,1.04824-.2229.71943.71943,0,0,0,.132-.25874,1.13007,1.13007,0,0,1-.18638.684,1.11581,1.11581,0,0,1-.30254.30272V98.697h1.2102v-.15141a1.11585,1.11585,0,0,1-.30255-.30272,1.13018,1.13018,0,0,1-.18638-.684.71958.71958,0,0,0,.13205.25877.90256.90256,0,0,0,1.04824.2229A1.24506,1.24506,0,0,0,69.82786,96.49717Z"/><path class="cls-3" d="M67.88407,19.19235a1.41824,1.41824,0,1,1-1.417,1.41824,1.41934,1.41934,0,0,1,1.417-1.41824m0-.59024a2.00848,2.00848,0,1,0,2.00738,2.00848,2.00789,2.00789,0,0,0-2.00738-2.00848Z"/><path class="cls-3" d="M67.88444,24.59692A2.11023,2.11023,0,0,1,65.877,23.12127v12.659a2.00791,2.00791,0,0,0,2.00717,2.00853h.00025a2.00791,2.00791,0,0,0,2.00717-2.00853v-12.659A2.11016,2.11016,0,0,1,67.88444,24.59692Z"/><path d="M67.88432,17.73579A2.26736,2.26736,0,0,1,65.62,15.47051h.514a1.75023,1.75023,0,1,0,3.50046,0h.514A2.26735,2.26735,0,0,1,67.88432,17.73579Z"/><path d="M70.14859,8.38738h-.514a1.75023,1.75023,0,1,0-3.50046,0H65.62a2.26428,2.26428,0,1,1,4.52855,0Z"/><rect class="cls-3" x="67.6273" y="44.98427" width="0.51404" height="19.30781"/><path class="cls-3" d="M67.88432,9.21991a8.66947,8.66947,0,0,1-.80568,1.07484A3.75352,3.75352,0,0,0,65.7651,12.4951a1.28931,1.28931,0,0,0,.53878,1.12944.96041.96041,0,0,0,1.1407-.05744.98082.98082,0,0,0,.33231-.58528c.01013-.0609.02541-.16122.10743-.16122s.0973.10032.10742.16122a.98084.98084,0,0,0,.33232.58528.96039.96039,0,0,0,1.14069.05744,1.28934,1.28934,0,0,0,.53878-1.12944A3.75355,3.75355,0,0,0,68.69,10.29475,8.66848,8.66848,0,0,1,67.88432,9.21991Z"/><path d="M65.94077,41.387c.18828.592.73613.92332,1.16536,1.3268a3.77691,3.77691,0,0,1,.77819,1.03814,3.77707,3.77707,0,0,1,.77818-1.03814c.42923-.40348.97707-.7348,1.16535-1.3268a1.245,1.245,0,0,0-.64708-1.54339.90255.90255,0,0,0-1.04823.2229.71951.71951,0,0,0-.132.25874,1.13009,1.13009,0,0,1,.18638-.684,1.11581,1.11581,0,0,1,.30254-.30272V39.1871H67.27921v.15141a1.11588,1.11588,0,0,1,.30256.30272,1.13018,1.13018,0,0,1,.18638.684.71966.71966,0,0,0-.13205-.25877.90256.90256,0,0,0-1.04824-.2229A1.24506,1.24506,0,0,0,65.94077,41.387Z"/><rect x="76.69996" y="103.23591" width="4.01459" height="23.7408" rx="1.97299"/><circle cx="78.70713" cy="85.19048" r="2.00775"/><path class="cls-3" d="M78.707,75.3247a2.11024,2.11024,0,0,1,2.00743,1.47564V71.88522a2.00792,2.00792,0,0,0-2.00717-2.00853H78.707a2.00791,2.00791,0,0,0-2.00717,2.00853v4.91512A2.11016,2.11016,0,0,1,78.707,75.3247Z"/><path d="M80.71443,94.54639a2.29575,2.29575,0,0,0-2.0073,1.59054v.00051l-.00051.00051v-.001a2.29568,2.29568,0,0,0-2.00679-1.59054Z"/><rect x="78.45011" y="88.27056" width="0.51404" height="5.29435"/><path class="cls-3" d="M78.70713,102.059a8.66862,8.66862,0,0,1,.80568-1.07483,3.75358,3.75358,0,0,0,1.31353-2.20036,1.28934,1.28934,0,0,0-.53877-1.12944.96039.96039,0,0,0-1.1407.05745.98084.98084,0,0,0-.33232.58528c-.01012.0609-.02541.16122-.10742.16122s-.0973-.10032-.10742-.16122a.98084.98084,0,0,0-.33232-.58528.96039.96039,0,0,0-1.1407-.05745,1.28934,1.28934,0,0,0-.53877,1.12944,3.75353,3.75353,0,0,0,1.31353,2.20036A8.66763,8.66763,0,0,1,78.70713,102.059Z"/><path d="M80.65068,79.75741c-.18828-.592-.73614-.92331-1.16536-1.3268a3.77691,3.77691,0,0,1-.77819-1.03814,3.77691,3.77691,0,0,1-.77819,1.03814c-.42923.40349-.97707.73481-1.16535,1.3268a1.245,1.245,0,0,0,.64708,1.54339.90256.90256,0,0,0,1.04824-.2229.71967.71967,0,0,0,.132-.25874,1.13017,1.13017,0,0,1-.18639.684,1.11563,1.11563,0,0,1-.30253.30272v.15141h1.2102v-.15141a1.11571,1.11571,0,0,1-.30255-.30272,1.13011,1.13011,0,0,1-.18638-.684.71942.71942,0,0,0,.132.25877.90254.90254,0,0,0,1.04823.2229A1.24507,1.24507,0,0,0,80.65068,79.75741Z"/><rect x="76.69983" y="19.85072" width="4.01459" height="12.78412" rx="1.97299" transform="translate(157.41426 52.48556) rotate(180)"/><rect class="cls-3" x="76.69983" y="48.31774" width="4.01459" height="20.28863" rx="1.97299" transform="translate(157.41426 116.9241) rotate(180)"/><path class="cls-3" d="M78.707,6.96914A1.418,1.418,0,1,1,77.29,8.38738a1.41934,1.41934,0,0,1,1.417-1.41824m0-.59024a2.00824,2.00824,0,1,0,2.00737,2.00848A2.00757,2.00757,0,0,0,78.707,6.3789Z"/><path d="M78.707,40.65442a2.11024,2.11024,0,0,1,2.00743,1.47565v-4.4596a2.00792,2.00792,0,0,0-2.00717-2.00853H78.707a2.00791,2.00791,0,0,0-2.00717,2.00853v4.4596A2.11016,2.11016,0,0,1,78.707,40.65442Z"/><rect x="76.69988" y="33.92348" width="4.0145" height="0.51408"/><rect class="cls-3" x="76.69988" y="12.0311" width="4.0145" height="0.51408"/><path class="cls-3" d="M78.70713,42.61729a8.66862,8.66862,0,0,1-.80568,1.07483,3.75361,3.75361,0,0,0-1.31353,2.20036,1.28933,1.28933,0,0,0,.53877,1.12944.96041.96041,0,0,0,1.1407-.05744.98086.98086,0,0,0,.33232-.58528c.01012-.06091.02541-.16122.10742-.16122s.0973.10031.10742.16122a.98086.98086,0,0,0,.33232.58528.96041.96041,0,0,0,1.1407.05744,1.28933,1.28933,0,0,0,.53877-1.12944,3.75356,3.75356,0,0,0-1.31353-2.20036A8.66763,8.66763,0,0,1,78.70713,42.61729Z"/><path d="M76.76358,16.32915c.18828.592.73614.92331,1.16536,1.3268a3.77661,3.77661,0,0,1,.77819,1.03814,3.77661,3.77661,0,0,1,.77819-1.03814c.42923-.40349.97707-.73481,1.16535-1.3268a1.245,1.245,0,0,0-.64708-1.54339.90256.90256,0,0,0-1.04824.2229.71959.71959,0,0,0-.132.25874,1.13015,1.13015,0,0,1,.18639-.684,1.11581,1.11581,0,0,1,.30253-.30273v-.1514H78.102v.1514a1.11588,1.11588,0,0,1,.30255.30273,1.13011,1.13011,0,0,1,.18638.684.71942.71942,0,0,0-.132-.25877.90254.90254,0,0,0-1.04823-.2229A1.24506,1.24506,0,0,0,76.76358,16.32915Z"/><path d="M15.77753,111.02247a2.29575,2.29575,0,0,0-2.0073,1.59054v.00051l-.00051.00051v-.001a2.29568,2.29568,0,0,0-2.00678-1.59054Z"/><rect x="13.51324" y="114.06907" width="0.51404" height="6.52219"/><rect class="cls-3" x="13.51324" y="102.25082" width="0.51404" height="7.22252"/><rect class="cls-3" x="11.76289" y="74.97207" width="4.01462" height="0.51408"/><path class="cls-3" d="M13.77024,100.60248q-.51144-.62571-1.08354-1.19828-.57128-.57152-1.19761-1.08413.62535-.5117,1.19761-1.08412.57128-.57159,1.08354-1.19827.51143.6257,1.08352,1.19827.57129.57157,1.19762,1.08412-.62537.51171-1.19762,1.08413Q14.28258,99.97578,13.77024,100.60248Z"/><path d="M16.1526,71.673a1.01562,1.01562,0,0,0-1.002-.74812.94454.94454,0,0,0-.44092.13111c-.07128.04253-.20528.12543-.26677.021-.05568-.0946.046-.18287.10678-.24117a1.00879,1.00879,0,0,0,.29093-.54143,1.0613,1.0613,0,0,0-.47822-1.07576,1.112,1.112,0,0,0-1.18424,0,1.06128,1.06128,0,0,0-.47822,1.07576,1.00869,1.00869,0,0,0,.29091.54143c.06084.0583.16247.14657.1068.24117-.0615.10445-.1955.02155-.26679-.021a.94443.94443,0,0,0-.44091-.13111,1.01562,1.01562,0,0,0-1.002.74812,1.09684,1.09684,0,0,0,.51534,1.22872,1.11388,1.11388,0,0,0,1.63029-.68631h.09068a1.22346,1.22346,0,0,1-.18137.90583,1.20707,1.20707,0,0,1-.32738.32758v.16384H14.425v-.16384a1.20735,1.20735,0,0,1-.32738-.32758,1.22351,1.22351,0,0,1-.18137-.90583H14.007a1.11387,1.11387,0,0,0,1.63028.68631A1.09684,1.09684,0,0,0,16.1526,71.673Z"/><rect x="11.76294" y="76.65513" width="4.01459" height="12.92473" rx="1.97299"/><circle cx="13.77023" cy="92.89617" r="2.00775"/><rect x="11.76294" y="47.65275" width="4.01459" height="20.28863" rx="1.97299" transform="translate(27.54047 115.59414) rotate(180)"/><circle cx="13.77023" cy="31.69314" r="2.00775"/><path d="M13.77039,12.89157a1.418,1.418,0,1,1-1.41746,1.41775,1.41914,1.41914,0,0,1,1.41746-1.41775m0-.59025a2.00824,2.00824,0,1,0,2.00688,2.008,2.00758,2.00758,0,0,0-2.00688-2.008Z"/><path class="cls-3" d="M13.77036,35.94361A2.11024,2.11024,0,0,1,11.76294,34.468v4.4596a2.00791,2.00791,0,0,0,2.00717,2.00853h.00025a2.00791,2.00791,0,0,0,2.00717-2.00853V34.468A2.11016,2.11016,0,0,1,13.77036,35.94361Z"/><path d="M13.77026,28.564a2.26737,2.26737,0,0,1-2.26439-2.26527h.514a1.75029,1.75029,0,1,0,3.50058,0h.514A2.26735,2.26735,0,0,1,13.77026,28.564Z"/><rect x="13.22914" y="19.6913" width="0.51404" height="5.29435"/><rect class="cls-3" x="11.76289" y="17.53977" width="4.01462" height="0.51408"/><path class="cls-3" d="M13.77023,6.37889q.51144.6257,1.08353,1.19827.57129.57152,1.19762,1.08413Q15.426,9.173,14.85376,9.74541q-.57126.57161-1.08353,1.19828-.51142-.62571-1.08353-1.19828-.57128-.57157-1.19761-1.08412.62535-.51171,1.19761-1.08413Q13.2579,7.00559,13.77023,6.37889Z"/><path d="M11.38787,44.12078a1.01562,1.01562,0,0,0,1.002.74812.94447.94447,0,0,0,.44091-.13111c.07129-.04253.20529-.12543.26678-.021.05568.0946-.046.18287-.10679.24117a1.0087,1.0087,0,0,0-.29092.54143,1.0613,1.0613,0,0,0,.47822,1.07576,1.112,1.112,0,0,0,1.18424,0,1.06128,1.06128,0,0,0,.47822-1.07576,1.0087,1.0087,0,0,0-.29092-.54143c-.06083-.0583-.16246-.14657-.10679-.24117.0615-.10445.1955-.02155.26678.021a.94451.94451,0,0,0,.44092.13111,1.01562,1.01562,0,0,0,1.002-.74812,1.09686,1.09686,0,0,0-.51534-1.22872,1.11388,1.11388,0,0,0-1.63029.68631h-.09068a1.22346,1.22346,0,0,1,.18137-.90583A1.20707,1.20707,0,0,1,14.425,42.345v-.16384H13.11543V42.345a1.20735,1.20735,0,0,1,.32738.32758,1.22351,1.22351,0,0,1,.18137.90583h-.09069a1.11387,1.11387,0,0,0-1.63028-.68631A1.09684,1.09684,0,0,0,11.38787,44.12078Z"/><rect x="6.35153" y="95.79366" width="4.01459" height="13.66821" rx="1.97299"/><rect class="cls-3" x="6.35153" y="59.82214" width="4.01459" height="20.28863" rx="1.97299"/><path class="cls-3" d="M8.35868,117.18553a1.41824,1.41824,0,1,1-1.417,1.41824,1.41934,1.41934,0,0,1,1.417-1.41824m0-.59024a2.00848,2.00848,0,1,0,2.00737,2.00848,2.00758,2.00758,0,0,0-2.00737-2.00848Z"/><path d="M8.359,87.77408a2.11023,2.11023,0,0,1-2.00742-1.47564V90.758A2.00792,2.00792,0,0,0,8.3587,92.76657H8.359A2.00792,2.00792,0,0,0,10.36612,90.758v-4.4596A2.11015,2.11015,0,0,1,8.359,87.77408Z"/><rect x="6.35155" y="93.99087" width="4.01462" height="0.51408"/><path class="cls-3" d="M8.35882,85.81122a8.668,8.668,0,0,1,.80568-1.07484A3.75355,3.75355,0,0,0,10.478,82.536a1.28933,1.28933,0,0,0-.53878-1.12945.96039.96039,0,0,0-1.1407.05745.98082.98082,0,0,0-.33231.58528c-.01013.0609-.02541.16122-.10743.16122s-.0973-.10032-.10742-.16122a.98084.98084,0,0,0-.33232-.58528.96038.96038,0,0,0-1.14069-.05745A1.28935,1.28935,0,0,0,6.23961,82.536a3.75363,3.75363,0,0,0,1.31353,2.20035A8.667,8.667,0,0,1,8.35882,85.81122Z"/><path d="M10.30237,113.09459c-.18828-.592-.73613-.92331-1.16536-1.32679a3.77691,3.77691,0,0,1-.77819-1.03814,3.77707,3.77707,0,0,1-.77818,1.03814c-.42923.40348-.97707.7348-1.16535,1.32679a1.245,1.245,0,0,0,.64708,1.54339.90253.90253,0,0,0,1.04823-.2229.71939.71939,0,0,0,.132-.25873,1.13006,1.13006,0,0,1-.18638.684,1.11585,1.11585,0,0,1-.30254.30273v.15141H8.96393v-.15141a1.11592,1.11592,0,0,1-.30256-.30273,1.13014,1.13014,0,0,1-.18638-.684.7195.7195,0,0,0,.132.25877.90254.90254,0,0,0,1.04824.2229A1.24506,1.24506,0,0,0,10.30237,113.09459Z"/><rect x="6.35153" y="0.10437" width="4.0146" height="24.86625" rx="1.97299" transform="translate(16.71765 25.07499) rotate(-179.99997)"/><circle cx="8.35883" cy="43.0159" r="2.00775"/><path class="cls-3" d="M8.359,52.88168A2.11023,2.11023,0,0,1,6.35153,51.406v4.91512A2.00791,2.00791,0,0,0,8.3587,58.32969H8.359a2.00791,2.00791,0,0,0,2.00717-2.00853V51.406A2.11015,2.11015,0,0,1,8.359,52.88168Z"/><path d="M6.35153,33.66a2.29575,2.29575,0,0,0,2.0073-1.59054v-.00051l.00051-.00051v.001A2.29568,2.29568,0,0,0,10.36612,33.66Z"/><rect x="8.10178" y="34.64138" width="0.51404" height="5.29435"/><path class="cls-3" d="M8.35883,26.14734a8.66862,8.66862,0,0,1-.80568,1.07483,3.75359,3.75359,0,0,0-1.31354,2.20036A1.28935,1.28935,0,0,0,6.77839,30.552a.96039.96039,0,0,0,1.1407-.05745.98082.98082,0,0,0,.33231-.58528c.01013-.0609.02542-.16122.10743-.16122s.0973.10032.10742.16122a.98084.98084,0,0,0,.33232.58528.96038.96038,0,0,0,1.14069.05745,1.28932,1.28932,0,0,0,.53878-1.12944,3.75358,3.75358,0,0,0-1.31353-2.20036A8.66763,8.66763,0,0,1,8.35883,26.14734Z"/><path d="M6.41528,48.449c.18828.592.73614.92331,1.16536,1.3268a3.77691,3.77691,0,0,1,.77819,1.03814A3.77691,3.77691,0,0,1,9.137,49.77577c.42922-.40349.97706-.73481,1.16535-1.3268a1.24505,1.24505,0,0,0-.64708-1.54339.90256.90256,0,0,0-1.04824.2229.71943.71943,0,0,0-.132.25874,1.13007,1.13007,0,0,1,.18638-.684,1.11581,1.11581,0,0,1,.30254-.30272v-.15141H7.75373v.15141a1.11585,1.11585,0,0,1,.30255.30272,1.13018,1.13018,0,0,1,.18638.684.71958.71958,0,0,0-.13205-.25877.90256.90256,0,0,0-1.04824-.2229A1.24506,1.24506,0,0,0,6.41528,48.449Z"/><rect x="22.65192" y="85.90127" width="4.01459" height="20.28863" rx="1.97299"/><path d="M24.65919,77.471a2.26735,2.26735,0,0,1-2.26427-2.26528h.514a1.75029,1.75029,0,1,0,3.50058,0h.514A2.26737,2.26737,0,0,1,24.65919,77.471Z"/><rect x="22.65194" y="78.58187" width="4.01462" height="0.51408"/><path class="cls-3" d="M24.65922,84.89133q-.51143-.62569-1.08353-1.19827-.57129-.57153-1.19762-1.08414.62536-.51169,1.19762-1.08412.57126-.57159,1.08353-1.19827.51142.62569,1.08353,1.19827.57128.57157,1.19761,1.08412-.62535.51172-1.19761,1.08414Q25.17157,84.26464,24.65922,84.89133Z"/><path d="M27.04159,109.79744a1.01563,1.01563,0,0,0-1.002-.74812.94447.94447,0,0,0-.44092.13111c-.07129.04253-.20528.12543-.26678.021-.05568-.0946.046-.18287.10679-.24117a1.0087,1.0087,0,0,0,.29092-.54143,1.06128,1.06128,0,0,0-.47822-1.07576,1.112,1.112,0,0,0-1.18424,0,1.06128,1.06128,0,0,0-.47822,1.07576,1.00877,1.00877,0,0,0,.29092.54143c.06083.0583.16246.14657.10679.24117-.0615.10445-.1955.02155-.26678-.021a.94447.94447,0,0,0-.44092-.13111,1.01563,1.01563,0,0,0-1.002.74812,1.09686,1.09686,0,0,0,.51534,1.22872,1.11388,1.11388,0,0,0,1.63029-.68631h.09068a1.22342,1.22342,0,0,1-.18137.90583,1.20717,1.20717,0,0,1-.32737.32758v.16384H25.314v-.16384a1.20717,1.20717,0,0,1-.32737-.32758,1.22347,1.22347,0,0,1-.18138-.90583H24.896a1.11387,1.11387,0,0,0,1.63028.68631A1.09686,1.09686,0,0,0,27.04159,109.79744Z"/><rect class="cls-3" x="22.65192" y="61.22528" width="4.01459" height="12.92473" rx="1.97299"/><path d="M26.66652,112.83949a2.29575,2.29575,0,0,0-2.0073,1.59054v.00051l-.00051.00052v-.001a2.29568,2.29568,0,0,0-2.00679-1.59054Z"/><rect x="22.65192" y="14.62005" width="4.01459" height="20.28863" rx="1.97299" transform="translate(49.31843 49.52873) rotate(-179.99998)"/><path d="M26.92358,45.60429h-.514a1.75029,1.75029,0,1,0-3.50058,0h-.514a2.26433,2.26433,0,1,1,4.52866,0Z"/><rect x="22.65194" y="41.71402" width="4.01462" height="0.51408"/><path class="cls-3" d="M24.65921,35.91861q.51144.62571,1.08354,1.19828.57128.57152,1.19761,1.08413-.62535.5117-1.19761,1.08412-.57126.57159-1.08354,1.19827-.51141-.6257-1.08352-1.19827-.57128-.57158-1.19762-1.08412.62536-.51172,1.19762-1.08413Q24.14688,36.54532,24.65921,35.91861Z"/><path d="M22.27685,11.0125a1.01561,1.01561,0,0,0,1.002.74812.94465.94465,0,0,0,.44092-.1311c.07128-.04254.20528-.12544.26677-.021.05568.0946-.046.18287-.10678.24117a1.00886,1.00886,0,0,0-.29093.54143,1.06132,1.06132,0,0,0,.47822,1.07576,1.11206,1.11206,0,0,0,1.18425,0,1.06132,1.06132,0,0,0,.47822-1.07576,1.00884,1.00884,0,0,0-.29092-.54143c-.06083-.0583-.16246-.14657-.10679-.24117.0615-.10445.19549-.02155.26678.021a.94458.94458,0,0,0,.44092.1311,1.01562,1.01562,0,0,0,1.002-.74812,1.09687,1.09687,0,0,0-.51535-1.22872,1.11387,1.11387,0,0,0-1.63028.68631h-.09069a1.22347,1.22347,0,0,1,.18138-.90583,1.20717,1.20717,0,0,1,.32737-.32758V9.07284h-1.3096v.16384a1.20745,1.20745,0,0,1,.32737.32758,1.22346,1.22346,0,0,1,.18137.90583h-.09069a1.11387,1.11387,0,0,0-1.63028-.68631A1.09686,1.09686,0,0,0,22.27685,11.0125Z"/><rect class="cls-3" x="22.65192" y="46.65993" width="4.01459" height="12.92473" rx="1.97299" transform="translate(49.31841 106.24461) rotate(-179.99998)"/><path d="M22.65192,7.97045a2.29575,2.29575,0,0,0,2.0073-1.59054V6.3794l.00051-.00051v.001a2.29568,2.29568,0,0,0,2.00679,1.59054Z"/><rect x="33.44014" y="62.1541" width="4.01459" height="20.28863" rx="1.97299"/><circle cx="35.44744" cy="98.40235" r="2.00775"/><path d="M35.44748,111.71421A1.418,1.418,0,1,1,34.03,113.132a1.41924,1.41924,0,0,1,1.41746-1.41775m0-.59024a2.00824,2.00824,0,1,0,2.00737,2.008,2.00757,2.00757,0,0,0-2.00737-2.008Z"/><path class="cls-3" d="M35.44731,94.15188a2.11023,2.11023,0,0,1,2.00742,1.47565v-4.4596a2.00791,2.00791,0,0,0-2.00717-2.00853h-.00025a2.00791,2.00791,0,0,0-2.00717,2.00853v4.4596A2.11016,2.11016,0,0,1,35.44731,94.15188Z"/><path d="M37.71175,103.797h-.514a1.75029,1.75029,0,1,0-3.50058,0h-.514a2.26433,2.26433,0,1,1,4.52866,0Z"/><rect x="35.19046" y="105.10976" width="0.51404" height="2.74958"/><rect class="cls-3" x="33.44011" y="109.38766" width="4.01462" height="0.51408"/><path class="cls-3" d="M35.44744,120.68943q-.51144-.62571-1.08353-1.19828-.57129-.57152-1.19762-1.08413.62537-.5117,1.19762-1.08412.57126-.57161,1.08353-1.19828.51143.62571,1.08353,1.19828.57127.57157,1.19761,1.08412-.62535.51171-1.19761,1.08413Q35.95977,120.06273,35.44744,120.68943Z"/><path d="M37.8298,85.97471a1.01562,1.01562,0,0,0-1.002-.74812.94447.94447,0,0,0-.44091.13111c-.07129.04253-.20529.12543-.26678.021-.05568-.0946.046-.18287.10679-.24117a1.0087,1.0087,0,0,0,.29092-.54143,1.0613,1.0613,0,0,0-.47822-1.07576,1.112,1.112,0,0,0-1.18424,0,1.06128,1.06128,0,0,0-.47822,1.07576,1.0087,1.0087,0,0,0,.29092.54143c.06083.0583.16246.14657.10679.24117-.0615.10445-.1955.02155-.26678-.021a.94451.94451,0,0,0-.44092-.13111,1.01562,1.01562,0,0,0-1.002.74812,1.09686,1.09686,0,0,0,.51534,1.22872,1.11388,1.11388,0,0,0,1.63029-.68631h.09068A1.22346,1.22346,0,0,1,35.12,87.423a1.20707,1.20707,0,0,1-.32738.32758v.16384h1.30961v-.16384a1.20735,1.20735,0,0,1-.32738-.32758,1.22351,1.22351,0,0,1-.18137-.90583h.09069a1.11387,1.11387,0,0,0,1.63028.68631A1.09685,1.09685,0,0,0,37.8298,85.97471Z"/><path d="M33.40857,19.073a2.29575,2.29575,0,0,0,2.0073-1.59054V17.482l.00051-.00051v.001A2.29568,2.29568,0,0,0,37.42316,19.073Z"/><rect x="35.15886" y="9.24955" width="0.51404" height="6.77679"/><rect class="cls-3" x="35.15886" y="20.62231" width="0.51404" height="7.22252"/><rect class="cls-3" x="33.40851" y="54.60949" width="4.01462" height="0.51408"/><path class="cls-3" d="M35.41586,29.493q.51144.62571,1.08354,1.19828.57127.57152,1.19761,1.08413-.62535.51169-1.19761,1.08412-.57128.57159-1.08354,1.19827-.51142-.6257-1.08352-1.19827-.57129-.57158-1.19762-1.08412.62537-.51172,1.19762-1.08413Q34.90353,30.11972,35.41586,29.493Z"/><path d="M33.0335,58.42254a1.01562,1.01562,0,0,0,1.002.74812.94454.94454,0,0,0,.44092-.13111c.07128-.04253.20528-.12543.26677-.021.05568.0946-.046.18287-.10678.24117a1.00879,1.00879,0,0,0-.29093.54143,1.0613,1.0613,0,0,0,.47822,1.07576,1.112,1.112,0,0,0,1.18424,0,1.06128,1.06128,0,0,0,.47822-1.07576,1.00869,1.00869,0,0,0-.29091-.54143c-.06084-.0583-.16247-.14657-.1068-.24117.0615-.10445.1955-.02155.26679.021a.94443.94443,0,0,0,.44091.13111,1.01562,1.01562,0,0,0,1.002-.74812,1.09684,1.09684,0,0,0-.51534-1.22872,1.11388,1.11388,0,0,0-1.63029.68631h-.09068a1.22346,1.22346,0,0,1,.18137-.90583,1.20707,1.20707,0,0,1,.32738-.32758v-.16384H34.76106v.16384a1.20735,1.20735,0,0,1,.32738.32758,1.22351,1.22351,0,0,1,.18137.90583h-.09069a1.11387,1.11387,0,0,0-1.63028-.68631A1.09684,1.09684,0,0,0,33.0335,58.42254Z"/><rect x="33.40857" y="40.51563" width="4.01459" height="12.92473" rx="1.97299" transform="translate(70.83171 93.956) rotate(-179.99997)"/><circle cx="35.41587" cy="37.19932" r="2.00775"/><path class="cls-3" d="M37.42316,6.37889a2.29574,2.29574,0,0,0-2.00729,1.59054v.00051l-.00052.00051v-.001a2.29565,2.29565,0,0,0-2.00678-1.59054Z"/><path class="cls-3" d="M19.18161,104.809a1.41824,1.41824,0,1,1-1.41746,1.41824,1.41935,1.41935,0,0,1,1.41746-1.41824m0-.59024a2.00848,2.00848,0,1,0,2.00737,2.00848,2.008,2.008,0,0,0-2.00737-2.00848Z"/><path class="cls-3" d="M19.18151,102.24092a2.11024,2.11024,0,0,1,2.00743,1.47564v-12.659A2.00791,2.00791,0,0,0,19.18177,89.049h-.00026a2.00792,2.00792,0,0,0-2.00717,2.00853v12.659A2.11016,2.11016,0,0,1,19.18151,102.24092Z"/><path d="M21.446,111.36734h-.514a1.75029,1.75029,0,1,0-3.50058,0h-.514a2.26433,2.26433,0,1,1,4.52866,0Z"/><path d="M19.18161,120.716a2.2674,2.2674,0,0,1-2.26427-2.26552h.514a1.75029,1.75029,0,1,0,3.50058,0h.514A2.26742,2.26742,0,0,1,19.18161,120.716Z"/><rect class="cls-3" x="18.92459" y="63.16018" width="0.51404" height="18.6934"/><path class="cls-3" d="M19.18164,117.61793a8.668,8.668,0,0,1,.80568-1.07484,3.75358,3.75358,0,0,0,1.31353-2.20035,1.28932,1.28932,0,0,0-.53877-1.12945.96039.96039,0,0,0-1.1407.05745.98089.98089,0,0,0-.33232.58528c-.01012.0609-.02541.16122-.10742.16122s-.0973-.10032-.10742-.16122a.98084.98084,0,0,0-.33232-.58528.96038.96038,0,0,0-1.14069-.05745,1.28933,1.28933,0,0,0-.53878,1.12945,3.75358,3.75358,0,0,0,1.31353,2.20035A8.667,8.667,0,0,1,19.18164,117.61793Z"/><path d="M21.12519,85.45087c-.18828-.592-.73614-.92331-1.16536-1.32679a3.77691,3.77691,0,0,1-.77819-1.03814,3.77691,3.77691,0,0,1-.77819,1.03814c-.42922.40348-.97707.7348-1.16535,1.32679a1.245,1.245,0,0,0,.64708,1.54339.90255.90255,0,0,0,1.04824-.2229.71939.71939,0,0,0,.132-.25873,1.13013,1.13013,0,0,1-.18638.684,1.116,1.116,0,0,1-.30254.30273v.15141h1.2102v-.15141a1.11588,1.11588,0,0,1-.30255-.30273,1.13014,1.13014,0,0,1-.18638-.684.7195.7195,0,0,0,.13205.25877.90254.90254,0,0,0,1.04824.2229A1.24506,1.24506,0,0,0,21.12519,85.45087Z"/><rect class="cls-3" x="18.92459" y="33.86977" width="0.51404" height="13.24503"/><rect class="cls-3" x="17.17435" y="14.04499" width="4.01459" height="12.92473" rx="1.97299" transform="translate(38.36328 41.01472) rotate(-180)"/><circle cx="19.18164" cy="50.73491" r="2.00775"/><path d="M19.18177,7.85453a2.11024,2.11024,0,0,1-2.00743-1.47564v4.45959A2.00793,2.00793,0,0,0,19.18151,12.847h.00026a2.00792,2.00792,0,0,0,2.00717-2.00854V6.37889A2.11016,2.11016,0,0,1,19.18177,7.85453Z"/><path d="M17.17434,60.9029a2.29577,2.29577,0,0,0,2.0073-1.59054v-.00052l.00051-.00051v.001a2.29569,2.29569,0,0,0,2.00679,1.59054Z"/><path class="cls-3" d="M19.18165,53.817a8.66962,8.66962,0,0,1-.80568,1.07483,3.75355,3.75355,0,0,0-1.31354,2.20035,1.28933,1.28933,0,0,0,.53878,1.12945.96039.96039,0,0,0,1.1407-.05745.98082.98082,0,0,0,.33231-.58528c.01012-.0609.02541-.16122.10743-.16122s.0973.10032.10741.16122a.98089.98089,0,0,0,.33232.58528.96039.96039,0,0,0,1.1407.05745,1.28932,1.28932,0,0,0,.53877-1.12945,3.75353,3.75353,0,0,0-1.31353-2.20035A8.66855,8.66855,0,0,1,19.18165,53.817Z"/><path d="M17.2381,30.4236c.18828.592.73613.92332,1.16536,1.3268a3.77707,3.77707,0,0,1,.77818,1.03814,3.77711,3.77711,0,0,1,.77819-1.03814c.42923-.40348.97707-.7348,1.16535-1.3268a1.245,1.245,0,0,0-.64708-1.54339.90256.90256,0,0,0-1.04823.2229.71953.71953,0,0,0-.132.25874,1.13017,1.13017,0,0,1,.18639-.684,1.11567,1.11567,0,0,1,.30254-.30272v-.15141H18.57654v.15141a1.11571,1.11571,0,0,1,.30255.30272,1.13006,1.13006,0,0,1,.18638.684.71947.71947,0,0,0-.132-.25878.90255.90255,0,0,0-1.04823-.2229A1.24506,1.24506,0,0,0,17.2381,30.4236Z"/><rect class="cls-3" x="29.7474" y="78.83745" width="0.51404" height="13.24503"/><rect class="cls-3" x="27.99714" y="98.98247" width="4.01459" height="14.21303" rx="1.97299"/><circle cx="30.00446" cy="75.21731" r="2.00775"/><path d="M30.00433,119.14821a2.11024,2.11024,0,0,1,2.00743,1.47565v-4.4596a2.00792,2.00792,0,0,0-2.00717-2.00853h-.00026a2.00791,2.00791,0,0,0-2.00717,2.00853v4.4596A2.11016,2.11016,0,0,1,30.00433,119.14821Z"/><path d="M32.01176,65.04932a2.29575,2.29575,0,0,0-2.0073,1.59054v.00052l-.00051.00051v-.001a2.29568,2.29568,0,0,0-2.00679-1.59054Z"/><path class="cls-3" d="M30.00445,72.13524a8.66962,8.66962,0,0,1,.80568-1.07483,3.75354,3.75354,0,0,0,1.31354-2.20036,1.28932,1.28932,0,0,0-.53878-1.12944.96039.96039,0,0,0-1.1407.05745.98082.98082,0,0,0-.33231.58528c-.01012.0609-.02541.16122-.10743.16122s-.0973-.10032-.10741-.16122a.98089.98089,0,0,0-.33232-.58528.96039.96039,0,0,0-1.1407-.05745,1.28934,1.28934,0,0,0-.53877,1.12944,3.75353,3.75353,0,0,0,1.31353,2.20036A8.66855,8.66855,0,0,1,30.00445,72.13524Z"/><path d="M31.948,95.52862c-.18828-.592-.73613-.92332-1.16536-1.3268a3.77707,3.77707,0,0,1-.77818-1.03814,3.77711,3.77711,0,0,1-.77819,1.03814c-.42923.40348-.97707.7348-1.16535,1.3268A1.24505,1.24505,0,0,0,28.708,97.072a.90256.90256,0,0,0,1.04823-.2229.71953.71953,0,0,0,.13205-.25874,1.13012,1.13012,0,0,1-.18639.684,1.11571,1.11571,0,0,1-.30254.30273v.15141h1.21021v-.15141a1.11574,1.11574,0,0,1-.30255-.30273,1.13,1.13,0,0,1-.18638-.684.71947.71947,0,0,0,.13205.25878.90255.90255,0,0,0,1.04823.2229A1.24507,1.24507,0,0,0,31.948,95.52862Z"/><path class="cls-3" d="M30.00454,19.19235a1.41824,1.41824,0,1,1-1.41746,1.41824,1.41924,1.41924,0,0,1,1.41746-1.41824m0-.59024a2.00848,2.00848,0,1,0,2.00689,2.00848,2.008,2.008,0,0,0-2.00689-2.00848Z"/><path class="cls-3" d="M30.00459,24.59692a2.11024,2.11024,0,0,1-2.00743-1.47565v12.659a2.00791,2.00791,0,0,0,2.00717,2.00853h.00026a2.00792,2.00792,0,0,0,2.00717-2.00853v-12.659A2.11016,2.11016,0,0,1,30.00459,24.59692Z"/><path d="M30.00442,17.73579a2.26735,2.26735,0,0,1-2.26427-2.26528h.514a1.75029,1.75029,0,1,0,3.50058,0h.514A2.26737,2.26737,0,0,1,30.00442,17.73579Z"/><path d="M32.26881,8.38738h-.514a1.75029,1.75029,0,1,0-3.50058,0h-.514a2.26433,2.26433,0,1,1,4.52866,0Z"/><rect class="cls-3" x="29.7474" y="44.98427" width="0.51404" height="18.6934"/><path class="cls-3" d="M30.00446,9.21991a8.66947,8.66947,0,0,1-.80568,1.07484,3.75355,3.75355,0,0,0-1.31353,2.20035,1.28933,1.28933,0,0,0,.53877,1.12944.96041.96041,0,0,0,1.1407-.05744.98089.98089,0,0,0,.33232-.58528c.01012-.0609.02541-.16122.10742-.16122s.0973.10032.10742.16122a.98084.98084,0,0,0,.33232.58528.96039.96039,0,0,0,1.14069.05744,1.28931,1.28931,0,0,0,.53878-1.12944,3.7535,3.7535,0,0,0-1.31353-2.20035A8.66848,8.66848,0,0,1,30.00446,9.21991Z"/><path d="M28.06091,41.387c.18828.592.73614.92332,1.16536,1.3268a3.77691,3.77691,0,0,1,.77819,1.03814,3.77691,3.77691,0,0,1,.77819-1.03814c.42922-.40348.97707-.7348,1.16535-1.3268a1.245,1.245,0,0,0-.64708-1.54339.90256.90256,0,0,0-1.04824.2229.71951.71951,0,0,0-.132.25874,1.13016,1.13016,0,0,1,.18638-.684,1.116,1.116,0,0,1,.30254-.30272V39.1871h-1.2102v.15141a1.11585,1.11585,0,0,1,.30255.30272,1.13018,1.13018,0,0,1,.18638.684.71966.71966,0,0,0-.13205-.25877.90256.90256,0,0,0-1.04824-.2229A1.24506,1.24506,0,0,0,28.06091,41.387Z"/><rect x="38.82007" y="103.23587" width="4.01459" height="23.76413" rx="1.97299"/><circle cx="40.82727" cy="85.19048" r="2.00775"/><path class="cls-3" d="M40.82715,75.3247a2.11023,2.11023,0,0,1,2.00742,1.47564V71.88522a2.00791,2.00791,0,0,0-2.00717-2.00853h-.00025A2.00791,2.00791,0,0,0,38.82,71.88522v4.91512A2.11016,2.11016,0,0,1,40.82715,75.3247Z"/><path d="M42.83457,94.54639a2.29575,2.29575,0,0,0-2.0073,1.59054v.00051l-.00051.00051v-.001A2.29568,2.29568,0,0,0,38.82,94.54639Z"/><rect x="40.57021" y="88.27056" width="0.51404" height="5.29435"/><path class="cls-3" d="M40.82727,102.059a8.66862,8.66862,0,0,1,.80568-1.07483,3.75359,3.75359,0,0,0,1.31354-2.20036,1.28935,1.28935,0,0,0-.53878-1.12944.96039.96039,0,0,0-1.1407.05745.98082.98082,0,0,0-.33231.58528c-.01013.0609-.02542.16122-.10743.16122s-.0973-.10032-.10742-.16122a.98084.98084,0,0,0-.33232-.58528.96038.96038,0,0,0-1.14069-.05745,1.28932,1.28932,0,0,0-.53878,1.12944,3.75358,3.75358,0,0,0,1.31353,2.20036A8.66763,8.66763,0,0,1,40.82727,102.059Z"/><path d="M42.77082,79.75741c-.18828-.592-.73614-.92331-1.16536-1.3268a3.77691,3.77691,0,0,1-.77819-1.03814,3.77691,3.77691,0,0,1-.77819,1.03814c-.42922.40349-.97706.73481-1.16535,1.3268a1.24505,1.24505,0,0,0,.64708,1.54339.90256.90256,0,0,0,1.04824-.2229.71951.71951,0,0,0,.132-.25874,1.13009,1.13009,0,0,1-.18638.684,1.11581,1.11581,0,0,1-.30254.30272v.15141h1.2102v-.15141a1.11585,1.11585,0,0,1-.30255-.30272,1.13018,1.13018,0,0,1-.18638-.684.71958.71958,0,0,0,.132.25877.90256.90256,0,0,0,1.04824.2229A1.24506,1.24506,0,0,0,42.77082,79.75741Z"/><rect x="38.81998" y="19.85072" width="4.01459" height="12.78412" rx="1.97299" transform="matrix(-1, 0, 0, -1, 81.65456, 52.48554)"/><rect class="cls-3" x="38.81998" y="48.31774" width="4.01459" height="20.28863" rx="1.97299" transform="translate(81.65454 116.92411) rotate(-179.99999)"/><path class="cls-3" d="M40.82747,6.96914A1.418,1.418,0,1,1,39.41,8.38738a1.41924,1.41924,0,0,1,1.41745-1.41824m0-.59024a2.00824,2.00824,0,1,0,2.00689,2.00848A2.008,2.008,0,0,0,40.82747,6.3789Z"/><path d="M40.82715,40.65442a2.11024,2.11024,0,0,1,2.00742,1.47565v-4.4596a2.00791,2.00791,0,0,0-2.00717-2.00853h-.00025A2.00791,2.00791,0,0,0,38.82,37.67047v4.4596A2.11016,2.11016,0,0,1,40.82715,40.65442Z"/><rect x="38.81998" y="33.92348" width="4.01462" height="0.51408"/><rect class="cls-3" x="38.81998" y="12.0311" width="4.01462" height="0.51408"/><path class="cls-3" d="M40.82728,42.61729a8.66862,8.66862,0,0,1-.80568,1.07483,3.75357,3.75357,0,0,0-1.31354,2.20036,1.28931,1.28931,0,0,0,.53878,1.12944.96041.96041,0,0,0,1.1407-.05744.98085.98085,0,0,0,.33231-.58528c.01013-.06091.02542-.16122.10743-.16122s.0973.10031.10742.16122a.98086.98086,0,0,0,.33232.58528.96039.96039,0,0,0,1.14069.05744,1.28934,1.28934,0,0,0,.53878-1.12944A3.75361,3.75361,0,0,0,41.633,43.69212,8.66763,8.66763,0,0,1,40.82728,42.61729Z"/><path d="M38.88373,16.32915c.18828.592.73613.92331,1.16536,1.3268a3.77661,3.77661,0,0,1,.77819,1.03814,3.77678,3.77678,0,0,1,.77818-1.03814c.42923-.40349.97707-.73481,1.16535-1.3268a1.245,1.245,0,0,0-.64708-1.54339.90255.90255,0,0,0-1.04823.2229.71943.71943,0,0,0-.132.25874,1.13007,1.13007,0,0,1,.18638-.684,1.11585,1.11585,0,0,1,.30254-.30273v-.1514H40.22217v.1514a1.11592,1.11592,0,0,1,.30256.30273,1.13018,1.13018,0,0,1,.18638.684.71958.71958,0,0,0-.132-.25877.90256.90256,0,0,0-1.04824-.2229A1.24506,1.24506,0,0,0,38.88373,16.32915Z"/><rect class="cls-4" x="0.06596" y="0.00018" width="86.93404" height="126.98041" rx="6"/></g></svg>