<svg xmlns="http://www.w3.org/2000/svg" viewBox="0 0 87 127"><defs><style>.cls-1{fill:#fff;}</style></defs><title>card-spades-7</title><g id="artwork"><rect class="cls-1" width="87" height="127" rx="6"/><path d="M15.25884,29.67243c-.41271-1.29958-1.61361-2.02692-2.55447-2.91268a8.29056,8.29056,0,0,1-1.70579-2.279,8.29032,8.29032,0,0,1-1.70578,2.279c-.94087.88576-2.14174,1.6131-2.55445,2.91268a2.73472,2.73472,0,0,0,1.4184,3.38817,1.97636,1.97636,0,0,0,2.29773-.48933,1.58035,1.58035,0,0,0,.28944-.568,2.48379,2.48379,0,0,1-.40856,1.50152,2.44748,2.44748,0,0,1-.66316.66456v.33238H12.325v-.33238a2.44776,2.44776,0,0,1-.6632-.66456,2.48371,2.48371,0,0,1-.40854-1.50159,1.58052,1.58052,0,0,0,.28945.56807,1.97635,1.97635,0,0,0,2.29773.48933A2.73476,2.73476,0,0,0,15.25884,29.67243Z"/><path d="M9.07849,18.67206,13.0621,9.83764V9.42075H7.75029V8.29828h6.55992V9.9174L10.24652,19.041Z"/><path d="M71.742,97.328c.41271,1.29958,1.61361,2.02692,2.55447,2.91268a8.29016,8.29016,0,0,1,1.70579,2.279,8.29036,8.29036,0,0,1,1.70579-2.279c.94086-.88576,2.14173-1.6131,2.55444-2.91268a2.73471,2.73471,0,0,0-1.4184-3.38817,1.97636,1.97636,0,0,0-2.29773.48933,1.58017,1.58017,0,0,0-.28943.568,2.48371,2.48371,0,0,1,.40855-1.50152,2.44762,2.44762,0,0,1,.66316-.66456v-.33238H74.67585V92.831a2.44759,2.44759,0,0,1,.66319.66456,2.48378,2.48378,0,0,1,.40855,1.50159,1.58055,1.58055,0,0,0-.28946-.56807,1.97635,1.97635,0,0,0-2.29773-.48933A2.73477,2.73477,0,0,0,71.742,97.328Z"/><path d="M77.923,108.32861l-3.98361,8.83491v.41689h5.3118v1.12149H72.69125v-1.61863l4.0637-9.1236Z"/><path d="M33.88951,21.68361c-.61906-1.94938-2.42041-3.04039-3.8317-4.369a12.43542,12.43542,0,0,1-2.55868-3.41851,12.43542,12.43542,0,0,1-2.55868,3.41851c-1.4113,1.32864-3.2126,2.41965-3.83167,4.369a4.10208,4.10208,0,0,0,2.1276,5.08225,2.96456,2.96456,0,0,0,3.4466-.734,2.37051,2.37051,0,0,0,.43415-.852,3.72562,3.72562,0,0,1-.61283,2.25228,3.67139,3.67139,0,0,1-.99475.99684v.49858H29.4887V28.429a3.6715,3.6715,0,0,1-.99478-.99684,3.72554,3.72554,0,0,1-.61283-2.25239,2.37084,2.37084,0,0,0,.43419.85211,2.96454,2.96454,0,0,0,3.4466.734A4.10213,4.10213,0,0,0,33.88951,21.68361Z"/><path d="M21.10876,105.31639c.61906,1.94938,2.42041,3.04039,3.8317,4.369a12.43546,12.43546,0,0,1,2.55869,3.41851,12.43523,12.43523,0,0,1,2.55868-3.41851c1.41129-1.32864,3.2126-2.41965,3.83166-4.369a4.10207,4.10207,0,0,0-2.1276-5.08225,2.96455,2.96455,0,0,0-3.44659.734,2.37053,2.37053,0,0,0-.43416.852,3.72556,3.72556,0,0,1,.61284-2.25228,3.6715,3.6715,0,0,1,.99474-.99684v-.49858H25.50957V98.571a3.67168,3.67168,0,0,1,.99479.99684,3.7256,3.7256,0,0,1,.61282,2.25239,2.37066,2.37066,0,0,0-.43418-.85211,2.96454,2.96454,0,0,0-3.4466-.734A4.10214,4.10214,0,0,0,21.10876,105.31639Z"/><path d="M65.89124,21.68361c-.61906-1.94938-2.42041-3.04039-3.8317-4.369a12.43546,12.43546,0,0,1-2.55869-3.41851,12.43523,12.43523,0,0,1-2.55868,3.41851c-1.41129,1.32864-3.2126,2.41965-3.83166,4.369a4.10207,4.10207,0,0,0,2.1276,5.08225,2.96455,2.96455,0,0,0,3.44659-.734,2.37053,2.37053,0,0,0,.43416-.852,3.72556,3.72556,0,0,1-.61284,2.25228,3.6715,3.6715,0,0,1-.99474.99684v.49858h3.97915V28.429a3.67168,3.67168,0,0,1-.99479-.99684,3.7256,3.7256,0,0,1-.61282-2.25239,2.37066,2.37066,0,0,0,.43418.85211,2.96454,2.96454,0,0,0,3.4466.734A4.10214,4.10214,0,0,0,65.89124,21.68361Z"/><path d="M53.11049,105.31639c.61906,1.94938,2.42041,3.04039,3.8317,4.369a12.43542,12.43542,0,0,1,2.55868,3.41851,12.43542,12.43542,0,0,1,2.55868-3.41851c1.4113-1.32864,3.2126-2.41965,3.83167-4.369a4.10208,4.10208,0,0,0-2.1276-5.08225,2.96456,2.96456,0,0,0-3.4466.734,2.37051,2.37051,0,0,0-.43415.852,3.72562,3.72562,0,0,1,.61283-2.25228,3.67139,3.67139,0,0,1,.99475-.99684v-.49858H57.5113V98.571a3.6715,3.6715,0,0,1,.99478.99684,3.72554,3.72554,0,0,1,.61283,2.25239,2.37084,2.37084,0,0,0-.43419-.85211,2.96454,2.96454,0,0,0-3.4466-.734A4.10213,4.10213,0,0,0,53.11049,105.31639Z"/><path d="M33.88951,63.77179c-.61906-1.94938-2.42041-3.04039-3.8317-4.369a12.43538,12.43538,0,0,1-2.55868-3.4185,12.43538,12.43538,0,0,1-2.55868,3.4185c-1.4113,1.32864-3.2126,2.41965-3.83167,4.369a4.10208,4.10208,0,0,0,2.1276,5.08225,2.96456,2.96456,0,0,0,3.4466-.734,2.37051,2.37051,0,0,0,.43415-.852,3.72561,3.72561,0,0,1-.61283,2.25227,3.67129,3.67129,0,0,1-.99475.99685v.49857H29.4887v-.49857a3.6714,3.6714,0,0,1-.99478-.99685,3.72552,3.72552,0,0,1-.61283-2.25239,2.3708,2.3708,0,0,0,.43419.85212,2.96453,2.96453,0,0,0,3.4466.734A4.10212,4.10212,0,0,0,33.88951,63.77179Z"/><path d="M65.89124,63.77179c-.61906-1.94938-2.42041-3.04039-3.8317-4.369a12.43541,12.43541,0,0,1-2.55869-3.4185,12.43518,12.43518,0,0,1-2.55868,3.4185c-1.41129,1.32864-3.2126,2.41965-3.83166,4.369a4.10207,4.10207,0,0,0,2.1276,5.08225,2.96455,2.96455,0,0,0,3.44659-.734,2.37053,2.37053,0,0,0,.43416-.852,3.72555,3.72555,0,0,1-.61284,2.25227,3.67139,3.67139,0,0,1-.99474.99685v.49857h3.97915v-.49857a3.67158,3.67158,0,0,1-.99479-.99685,3.72558,3.72558,0,0,1-.61282-2.25239,2.37062,2.37062,0,0,0,.43418.85212,2.96454,2.96454,0,0,0,3.4466.734A4.10214,4.10214,0,0,0,65.89124,63.77179Z"/><path d="M49.89,42.7277c-.619-1.94938-2.42029-3.04039-3.8315-4.369A12.43537,12.43537,0,0,1,43.5,34.94016a12.43554,12.43554,0,0,1-2.55854,3.41851c-1.41122,1.32864-3.21243,2.41965-3.83147,4.369A4.10218,4.10218,0,0,0,39.23747,47.81a2.96432,2.96432,0,0,0,3.44642-.734,2.37056,2.37056,0,0,0,.43412-.852,3.72566,3.72566,0,0,1-.6128,2.25228,3.67107,3.67107,0,0,1-.99469.99685v.49857h3.97894v-.49857a3.67136,3.67136,0,0,1-.99473-.99685,3.72571,3.72571,0,0,1-.61279-2.25239,2.3709,2.3709,0,0,0,.43416.85212,2.96427,2.96427,0,0,0,3.44641.734A4.10222,4.10222,0,0,0,49.89,42.7277Z"/></g></svg>