<svg xmlns="http://www.w3.org/2000/svg" viewBox="0 0 115 167"><defs><style>.cls-1{fill:#fff;}.cls-2{fill:#ff3b5c;}</style></defs><title>card-hearts-2</title><g id="artwork"><rect class="cls-1" width="115" height="167" rx="8"/><path class="cls-2" d="M10.07809,23.14147,14.16,18.83906q.973-1.01675,1.51232-1.64283a6.6697,6.6697,0,0,0,.92043-1.388,3.47329,3.47329,0,0,0,.38082-1.5678,2.26407,2.26407,0,0,0-.71969-1.89637,3.80187,3.80187,0,0,0-2.32625-.5627,15.25649,15.25649,0,0,0-3.0666.3609l-.54993.10607-.12716-1.35695a14.90719,14.90719,0,0,1,4.14582-.57176,4.91222,4.91222,0,0,1,3.246.91068A3.53463,3.53463,0,0,1,18.644,14.071a5.0067,5.0067,0,0,1-.63449,2.54316A13.37656,13.37656,0,0,1,15.72525,19.306l-3.72239,3.79274h7.0007v1.42034H10.07809Z"/><path class="cls-2" d="M14.54128,45.24023a25.15118,25.15118,0,0,1,2.33443-3.11895c1.62468-1.85194,3.72992-3.72788,3.80593-6.385a3.7434,3.7434,0,0,0-1.56109-3.27742,2.77942,2.77942,0,0,0-3.30514.1667,2.84721,2.84721,0,0,0-.96287,1.69836c-.02934.17673-.07364.46783-.31126.46783s-.28193-.2911-.31125-.46783a2.84722,2.84722,0,0,0-.96288-1.69836,2.77941,2.77941,0,0,0-3.30513-.1667,3.74343,3.74343,0,0,0-1.56109,3.27742c.076,2.65711,2.18125,4.53305,3.80591,6.385A25.15026,25.15026,0,0,1,14.54128,45.24023Z"/><path class="cls-2" d="M104.92187,143.85853,100.84,148.16094q-.973,1.01674-1.51232,1.64283a6.64967,6.64967,0,0,0-.91979,1.388,3.465,3.465,0,0,0-.38082,1.5678,2.27024,2.27024,0,0,0,.719,1.89767,3.809,3.809,0,0,0,2.32625.5614,15.27785,15.27785,0,0,0,3.06725-.3609l.54993-.10607.12651,1.357a14.90583,14.90583,0,0,1-4.14516.57176,4.913,4.913,0,0,1-3.24669-.91068,3.53466,3.53466,0,0,1-1.06824-2.84067,5.00362,5.00362,0,0,1,.63449-2.54316,13.36286,13.36286,0,0,1,2.2843-2.69062l3.72239-3.794H95.9964v-1.42034h8.92547Z"/><path class="cls-2" d="M100.45872,121.93559a25.15043,25.15043,0,0,1-2.33443,3.11895c-1.62468,1.85194-3.72992,3.72788-3.80593,6.385a3.7434,3.7434,0,0,0,1.56109,3.27742,2.77942,2.77942,0,0,0,3.30514-.1667,2.84721,2.84721,0,0,0,.96287-1.69836c.02934-.17673.07364-.46783.31126-.46783s.28193.2911.31125.46783a2.84722,2.84722,0,0,0,.96288,1.69836,2.77941,2.77941,0,0,0,3.30513.1667,3.74343,3.74343,0,0,0,1.56109-3.27742c-.076-2.65711-2.18125-4.533-3.80591-6.385A25.14951,25.14951,0,0,1,100.45872,121.93559Z"/><path class="cls-2" d="M57.5,37.7144A37.72736,37.72736,0,0,1,61.00163,33.036c2.437-2.77791,5.59489-5.59182,5.7089-9.57749a5.6151,5.6151,0,0,0-2.34163-4.91612,4.16912,4.16912,0,0,0-4.95772.25,4.27085,4.27085,0,0,0-1.4443,2.54754c-.044.2651-.11045.70175-.4669.70175s-.42288-.43665-.46686-.70175a4.27084,4.27084,0,0,0-1.44433-2.54754,4.16908,4.16908,0,0,0-4.95769-.25,5.6151,5.6151,0,0,0-2.34163,4.91612c.114,3.98567,3.27187,6.79958,5.70887,9.57749A37.72329,37.72329,0,0,1,57.5,37.7144Z"/><path class="cls-2" d="M57.5,129.2856a37.72736,37.72736,0,0,1-3.50165,4.67843c-2.437,2.77791-5.59489,5.59182-5.7089,9.57749a5.6151,5.6151,0,0,0,2.34163,4.91612,4.16912,4.16912,0,0,0,4.95772-.25,4.27085,4.27085,0,0,0,1.4443-2.54754c.044-.2651.11045-.70175.4669-.70175s.42288.43665.46686.70175a4.27084,4.27084,0,0,0,1.44433,2.54754,4.16908,4.16908,0,0,0,4.95769.25,5.6151,5.6151,0,0,0,2.34163-4.91612c-.114-3.98567-3.27187-6.79958-5.70887-9.57749A37.72329,37.72329,0,0,1,57.5,129.2856Z"/></g></svg>