<svg xmlns="http://www.w3.org/2000/svg" viewBox="0 0 115 167"><defs><style>.cls-1{fill:#fff;}.cls-2{fill:#ff3b5c;}</style></defs><title>card-hearts-k</title><g id="artwork"><rect class="cls-1" width="115" height="167" rx="8"/><path class="cls-2" d="M14.38082,18.031l-2.43211.08409V24.516H10.32085V9.84872h1.62786V16.674l2.41145-.08409,3.74369-6.74114h1.86152L15.7776,17.225,20.19774,24.516H18.273Z"/><path class="cls-2" d="M14.54128,45.23831a25.15219,25.15219,0,0,1,2.33443-3.11912c1.62468-1.852,3.72992-3.72808,3.80593-6.38533a3.74367,3.74367,0,0,0-1.56109-3.27759,2.77928,2.77928,0,0,0-3.30514.16671,2.84737,2.84737,0,0,0-.96287,1.69845c-.02934.17674-.07364.46785-.31126.46785s-.28193-.29111-.31125-.46785a2.84739,2.84739,0,0,0-.96288-1.69845A2.77927,2.77927,0,0,0,9.962,32.45627a3.74369,3.74369,0,0,0-1.56109,3.27759c.076,2.65725,2.18125,4.53329,3.80591,6.38533A25.15127,25.15127,0,0,1,14.54128,45.23831Z"/><path class="cls-2" d="M100.61993,148.97032l2.4321-.08538V142.484h1.62786v14.66726H103.052v-6.82523l-2.41145.08538-3.74369,6.73985H95.03538l4.18776-7.37632L94.803,142.484h1.92477Z"/><path class="cls-2" d="M100.45872,121.93775a25.15144,25.15144,0,0,1-2.33443,3.11912c-1.62468,1.852-3.72992,3.72808-3.80593,6.38533a3.74364,3.74364,0,0,0,1.56109,3.27759,2.77928,2.77928,0,0,0,3.30514-.1667,2.84743,2.84743,0,0,0,.96287-1.69845c.02934-.17674.07364-.46786.31126-.46786s.28193.29112.31125.46786a2.84745,2.84745,0,0,0,.96288,1.69845,2.77927,2.77927,0,0,0,3.30513.1667,3.74367,3.74367,0,0,0,1.56109-3.27759c-.076-2.65725-2.18125-4.53329-3.80591-6.38533A25.15052,25.15052,0,0,1,100.45872,121.93775Z"/><path d="M72.42681,42.47129h2.55548a.94028.94028,0,0,1,.94028.94028v0a.94029.94029,0,0,1-.94029.94029H72.42681a.94028.94028,0,0,1-.94028-.94028v0a.94028.94028,0,0,1,.94028-.94028Z"/><path d="M72.8978,43.41158h0a1.9872,1.9872,0,0,0-1.98721-1.9872H41.04849c-1.0975,0-1.9872,1.9872-1.9872,1.9872h0s.8897,1.9872,1.9872,1.9872h29.8621A1.9872,1.9872,0,0,0,72.8978,43.41158Z"/><path class="cls-1" d="M72.30862,45.23832H41.0485c-.85766,0-1.62867-1.46036-1.77455-1.75308l-.03663-.07359.0368-.0739c.14619-.29272.91914-1.75276,1.77438-1.75276H72.30862v.33048H41.0485c-.46151,0-1.0605.762-1.44116,1.49618.37953.73454.9782,1.49619,1.44116,1.49619H72.30862Z"/><path class="cls-2" d="M72.31161,43.412a9.79936,9.79936,0,0,1,.9111-1.21481,4.24188,4.24188,0,0,0,1.48541-2.48689,1.45692,1.45692,0,0,0-.60927-1.27652,1.08654,1.08654,0,0,0-1.29.06492,1.10841,1.10841,0,0,0-.37579.6615c-.01145.06883-.02874.18221-.12149.18221s-.11-.11338-.12147-.18221a1.10843,1.10843,0,0,0-.3758-.6615,1.08653,1.08653,0,0,0-1.29-.06492,1.45693,1.45693,0,0,0-.60928,1.27652,4.242,4.242,0,0,0,1.4854,2.48689A9.79638,9.79638,0,0,1,72.31161,43.412Z"/><path class="cls-2" d="M72.31162,43.41117a9.79663,9.79663,0,0,1-.9111,1.21481,4.242,4.242,0,0,0-1.48541,2.48689,1.457,1.457,0,0,0,.60928,1.27653,1.08653,1.08653,0,0,0,1.29-.06493,1.10838,1.10838,0,0,0,.3758-.6615c.01145-.06883.02874-.18221.12148-.18221s.11.11338.12148.18221a1.10843,1.10843,0,0,0,.3758.6615,1.08653,1.08653,0,0,0,1.29.06493,1.457,1.457,0,0,0,.60927-1.27653,4.24187,4.24187,0,0,0-1.4854-2.48689A9.79762,9.79762,0,0,1,72.31162,43.41117Z"/><path class="cls-1" d="M72.31162,43.41082a5.45481,5.45481,0,0,1,.50717-.67623,2.36136,2.36136,0,0,0,.82687-1.38435.811.811,0,0,0-.33916-.71059.60483.60483,0,0,0-.71807.03614.61706.61706,0,0,0-.20919.36823c-.00637.03832-.016.10143-.06762.10143s-.06125-.06311-.06762-.10143a.617.617,0,0,0-.2092-.36823.60482.60482,0,0,0-.71806-.03614.811.811,0,0,0-.33916.71059,2.36129,2.36129,0,0,0,.82686,1.38435A5.45489,5.45489,0,0,1,72.31162,43.41082Z"/><path class="cls-1" d="M72.31162,43.41233a5.45481,5.45481,0,0,1-.50717.67623,2.36131,2.36131,0,0,0-.82687,1.38436.811.811,0,0,0,.33916.71058.60483.60483,0,0,0,.71807-.03614.617.617,0,0,0,.20919-.36823c.00637-.03831.016-.10143.06762-.10143s.06125.06312.06762.10143a.617.617,0,0,0,.20919.36823.60483.60483,0,0,0,.71807.03614.811.811,0,0,0,.33916-.71058,2.36136,2.36136,0,0,0-.82687-1.38436A5.45382,5.45382,0,0,1,72.31162,43.41233Z"/><rect class="cls-1" x="43.22226" y="43.24625" width="29.08798" height="0.33048"/><path d="M57.52331,80.1253c-6.6933,0-11.7305-9.52188-11.7305-15.69606h.661c0,5.9373,4.9591,15.03511,11.06954,15.03511,6.11028,0,11.06938-9.09781,11.06938-15.03511h.66095C69.25364,70.60342,64.21645,80.1253,57.52331,80.1253Z"/><rect x="57.19283" y="61.31585" width="0.66095" height="7.59582"/><rect class="cls-2" x="54.42702" y="72.42654" width="6.19242" height="0.66095"/><circle cx="64.96012" cy="59.13416" r="1.48006"/><circle cx="50.08642" cy="59.13416" r="1.48006"/><rect x="68.56771" y="50.36793" width="7.37076" height="25.75608" rx="3.68538"/><path d="M72.25311,76.79342a3.02465,3.02465,0,1,1-3.02464,3.02464,3.028,3.028,0,0,1,3.02464-3.02464m0-.66095a3.6856,3.6856,0,1,0,3.6856,3.68559,3.686,3.686,0,0,0-3.6856-3.68559Z"/><path class="cls-2" d="M72.25309,81.6625a6.06646,6.06646,0,0,1,.5643-.7524,2.62725,2.62725,0,0,0,.92-1.54028A.90234.90234,0,0,0,73.36,78.5792a.673.673,0,0,0-.79895.04021.68652.68652,0,0,0-.23275.4097c-.00709.04264-.0178.11286-.07524.11286s-.06815-.07022-.07524-.11286a.68647.68647,0,0,0-.23275-.4097.67294.67294,0,0,0-.79894-.04021.90233.90233,0,0,0-.37736.79062,2.6273,2.6273,0,0,0,.92,1.54028A6.06646,6.06646,0,0,1,72.25309,81.6625Z"/><rect x="39.10807" y="50.36793" width="7.37076" height="25.75608" rx="3.68538"/><path d="M42.79351,76.79342a3.02465,3.02465,0,1,1-3.02465,3.02464,3.028,3.028,0,0,1,3.02465-3.02464m0-.66095a3.6856,3.6856,0,1,0,3.68559,3.68559,3.68563,3.68563,0,0,0-3.68559-3.68559Z"/><path class="cls-2" d="M42.79345,81.6625a6.06646,6.06646,0,0,1,.5643-.7524,2.62725,2.62725,0,0,0,.92-1.54028.90234.90234,0,0,0-.37735-.79062.673.673,0,0,0-.799.04021.68652.68652,0,0,0-.23275.4097c-.00709.04264-.0178.11286-.07524.11286s-.06815-.07022-.07524-.11286a.68647.68647,0,0,0-.23275-.4097.67294.67294,0,0,0-.79894-.04021.90235.90235,0,0,0-.37736.79062,2.6273,2.6273,0,0,0,.92,1.54028A6.06646,6.06646,0,0,1,42.79345,81.6625Z"/><path class="cls-2" d="M50.15954,50.932a3.871,3.871,0,0,0-3.683,2.70578V45.46039a3.68275,3.68275,0,0,1,3.68237-3.683h.00065a3.68275,3.68275,0,0,1,3.68237,3.683v8.17738A3.87138,3.87138,0,0,0,50.15954,50.932Z"/><path class="cls-2" d="M57.52557,50.932a3.87218,3.87218,0,0,0-3.683,2.70578V45.46039a3.68316,3.68316,0,0,1,3.68237-3.683h.00065a3.68275,3.68275,0,0,1,3.68237,3.683v8.17738A3.87077,3.87077,0,0,0,57.52557,50.932Z"/><path class="cls-2" d="M64.89224,50.932a3.87157,3.87157,0,0,0-3.683,2.70578V45.46039a3.68274,3.68274,0,0,1,3.68237-3.683h.00064a3.68274,3.68274,0,0,1,3.68237,3.683v8.17738A3.87136,3.87136,0,0,0,64.89224,50.932Z"/><path d="M50.15954,40.51743a3.871,3.871,0,0,1-3.683-2.70578V45.989a3.68275,3.68275,0,0,0,3.68237,3.683h.00065a3.68275,3.68275,0,0,0,3.68237-3.683V37.81165A3.87138,3.87138,0,0,1,50.15954,40.51743Z"/><path d="M57.52557,40.51743a3.87218,3.87218,0,0,1-3.683-2.70578V45.989a3.68316,3.68316,0,0,0,3.68237,3.683h.00065a3.68275,3.68275,0,0,0,3.68237-3.683V37.81165A3.87077,3.87077,0,0,1,57.52557,40.51743Z"/><path d="M64.89224,40.51743a3.87157,3.87157,0,0,1-3.683-2.70578V45.989a3.68274,3.68274,0,0,0,3.68237,3.683h.00064a3.68274,3.68274,0,0,0,3.68237-3.683V37.81165A3.87136,3.87136,0,0,1,64.89224,40.51743Z"/><path class="cls-2" d="M57.59637,44.13138a18.9954,18.9954,0,0,1,1.76641-2.35523c1.22937-1.39847,2.82236-2.815,2.87987-4.82153a2.82469,2.82469,0,0,0-1.18124-2.47489,2.10657,2.10657,0,0,0-2.50094.12588,2.149,2.149,0,0,0-.72858,1.28249c-.0222.13346-.05572.35328-.23552.35328s-.21333-.21982-.23552-.35328a2.14894,2.14894,0,0,0-.72859-1.28249,2.10654,2.10654,0,0,0-2.50092-.12588,2.82464,2.82464,0,0,0-1.18124,2.47489c.05749,2.00648,1.6505,3.42306,2.87985,4.82153A18.99448,18.99448,0,0,1,57.59637,44.13138Z"/><path class="cls-2" d="M68.57182,37.82263a4.267,4.267,0,0,1,.3967-.52893,1.84692,1.84692,0,0,0,.64675-1.08281.63436.63436,0,0,0-.26528-.55581.47309.47309,0,0,0-.56165.02827.48263.48263,0,0,0-.16363.288c-.005.03-.01251.07934-.05289.07934s-.04791-.04937-.05289-.07934a.48268.48268,0,0,0-.16363-.288.47309.47309,0,0,0-.56165-.02827.63433.63433,0,0,0-.26528.55581,1.84692,1.84692,0,0,0,.64675,1.08281A4.267,4.267,0,0,1,68.57182,37.82263Z"/><path class="cls-2" d="M46.47472,37.82263a4.267,4.267,0,0,1,.3967-.52893,1.847,1.847,0,0,0,.64676-1.08281.63438.63438,0,0,0-.26528-.55581.4731.4731,0,0,0-.56166.02827.48266.48266,0,0,0-.16362.288c-.005.03-.01252.07934-.0529.07934s-.04791-.04937-.05289-.07934a.48266.48266,0,0,0-.16362-.288.4731.4731,0,0,0-.56166-.02827.63438.63438,0,0,0-.26528.55581A1.847,1.847,0,0,0,46.078,37.2937,4.266,4.266,0,0,1,46.47472,37.82263Z"/><path d="M40.01771,122.64814h2.55548a.94028.94028,0,0,1,.94028.94028v0a.94029.94029,0,0,1-.94029.94029H40.0177a.94028.94028,0,0,1-.94028-.94028v0a.94028.94028,0,0,1,.94028-.94028Z"/><path d="M42.1022,123.58842h0a1.9872,1.9872,0,0,0,1.98721,1.9872h29.8621c1.0975,0,1.9872-1.9872,1.9872-1.9872h0s-.8897-1.9872-1.9872-1.9872H44.08941A1.9872,1.9872,0,0,0,42.1022,123.58842Z"/><path class="cls-1" d="M42.69138,121.76168H73.9515c.85766,0,1.62867,1.46036,1.77455,1.75308l.03663.07359-.0368.0739c-.14619.29272-.91914,1.75276-1.77438,1.75276H42.69138v-.33048H73.9515c.46151,0,1.0605-.762,1.44116-1.49618-.37953-.73454-.9782-1.49619-1.44116-1.49619H42.69138Z"/><path class="cls-2" d="M42.68839,123.588a9.79936,9.79936,0,0,1-.9111,1.21481,4.24188,4.24188,0,0,0-1.48541,2.48689,1.45692,1.45692,0,0,0,.60927,1.27652,1.08654,1.08654,0,0,0,1.29-.06492,1.10841,1.10841,0,0,0,.37579-.6615c.01145-.06883.02874-.18221.12149-.18221s.11.11338.12147.18221a1.10843,1.10843,0,0,0,.3758.6615,1.08653,1.08653,0,0,0,1.29.06492,1.45693,1.45693,0,0,0,.60928-1.27652,4.242,4.242,0,0,0-1.4854-2.48689A9.79638,9.79638,0,0,1,42.68839,123.588Z"/><path class="cls-2" d="M42.68838,123.58883a9.79663,9.79663,0,0,1,.9111-1.21481,4.242,4.242,0,0,0,1.48541-2.48689,1.457,1.457,0,0,0-.60928-1.27653,1.08653,1.08653,0,0,0-1.29.06493,1.10838,1.10838,0,0,0-.3758.6615c-.01145.06883-.02874.18221-.12148.18221s-.11-.11338-.12148-.18221a1.10843,1.10843,0,0,0-.3758-.6615,1.08653,1.08653,0,0,0-1.28995-.06493,1.457,1.457,0,0,0-.60927,1.27653,4.24187,4.24187,0,0,0,1.4854,2.48689A9.79762,9.79762,0,0,1,42.68838,123.58883Z"/><path class="cls-1" d="M42.68838,123.58918a5.45481,5.45481,0,0,1-.50717.67623,2.36136,2.36136,0,0,0-.82687,1.38435.811.811,0,0,0,.33916.71059.60483.60483,0,0,0,.71807-.03614.61706.61706,0,0,0,.20919-.36823c.00637-.03832.016-.10143.06762-.10143s.06125.06311.06762.10143a.617.617,0,0,0,.2092.36823.60482.60482,0,0,0,.71806.03614.811.811,0,0,0,.33916-.71059,2.36129,2.36129,0,0,0-.82686-1.38435A5.45489,5.45489,0,0,1,42.68838,123.58918Z"/><path class="cls-1" d="M42.68838,123.58767a5.45481,5.45481,0,0,1,.50717-.67623,2.36131,2.36131,0,0,0,.82687-1.38436.811.811,0,0,0-.33916-.71058.60483.60483,0,0,0-.71807.03614.617.617,0,0,0-.20919.36823c-.00637.03831-.016.10143-.06762.10143s-.06125-.06312-.06762-.10143a.617.617,0,0,0-.20919-.36823.60483.60483,0,0,0-.71807-.03614.811.811,0,0,0-.33916.71058,2.36136,2.36136,0,0,0,.82687,1.38436A5.45382,5.45382,0,0,1,42.68838,123.58767Z"/><rect class="cls-1" x="42.68976" y="123.42327" width="29.08798" height="0.33048"/><path d="M57.47669,86.8747c6.6933,0,11.7305,9.52188,11.7305,15.69606h-.661c0-5.9373-4.9591-15.03511-11.06954-15.03511-6.11028,0-11.06938,9.09781-11.06938,15.03511h-.66095C45.74636,96.39658,50.78355,86.8747,57.47669,86.8747Z"/><rect x="57.14621" y="98.08834" width="0.66095" height="7.59582"/><rect class="cls-2" x="54.38056" y="93.91251" width="6.19242" height="0.66095"/><circle cx="50.03988" cy="107.86584" r="1.48006"/><circle cx="64.91358" cy="107.86584" r="1.48006"/><rect x="39.06153" y="90.87599" width="7.37076" height="25.75608" rx="3.68538"/><path d="M42.74689,90.20658a3.02465,3.02465,0,1,1,3.02464-3.02464,3.028,3.028,0,0,1-3.02464,3.02464m0,.66095a3.6856,3.6856,0,1,0-3.6856-3.68559,3.686,3.686,0,0,0,3.6856,3.68559Z"/><path class="cls-2" d="M42.74691,85.3375a6.06646,6.06646,0,0,1-.5643.7524,2.62725,2.62725,0,0,0-.92,1.54028.90234.90234,0,0,0,.37735.79062.673.673,0,0,0,.799-.04021.68652.68652,0,0,0,.23275-.4097c.00709-.04264.0178-.11286.07524-.11286s.06815.07022.07524.11286a.68647.68647,0,0,0,.23275.4097.67294.67294,0,0,0,.79894.04021.90233.90233,0,0,0,.37736-.79062,2.6273,2.6273,0,0,0-.92-1.54028A6.06646,6.06646,0,0,1,42.74691,85.3375Z"/><rect x="68.52117" y="90.87599" width="7.37076" height="25.75608" rx="3.68538"/><path d="M72.20649,90.20658a3.02465,3.02465,0,1,1,3.02465-3.02464,3.028,3.028,0,0,1-3.02465,3.02464m0,.66095a3.6856,3.6856,0,1,0-3.68559-3.68559,3.68563,3.68563,0,0,0,3.68559,3.68559Z"/><path class="cls-2" d="M72.20655,85.3375a6.06646,6.06646,0,0,1-.5643.7524,2.62725,2.62725,0,0,0-.92,1.54028.90234.90234,0,0,0,.37735.79062.673.673,0,0,0,.799-.04021.68652.68652,0,0,0,.23275-.4097c.00709-.04264.0178-.11286.07524-.11286s.06815.07022.07524.11286a.68647.68647,0,0,0,.23275.4097.67294.67294,0,0,0,.79894.04021.90235.90235,0,0,0,.37736-.79062,2.6273,2.6273,0,0,0-.92-1.54028A6.06646,6.06646,0,0,1,72.20655,85.3375Z"/><path class="cls-2" d="M64.84046,116.068a3.871,3.871,0,0,0,3.683-2.70578v8.17738a3.68275,3.68275,0,0,1-3.68237,3.683h-.00065a3.68275,3.68275,0,0,1-3.68237-3.683v-8.17738A3.87138,3.87138,0,0,0,64.84046,116.068Z"/><path class="cls-2" d="M57.47443,116.068a3.87218,3.87218,0,0,0,3.683-2.70578v8.17738a3.68316,3.68316,0,0,1-3.68237,3.683h-.00065a3.68275,3.68275,0,0,1-3.68237-3.683v-8.17738A3.87077,3.87077,0,0,0,57.47443,116.068Z"/><path class="cls-2" d="M50.10776,116.068a3.87157,3.87157,0,0,0,3.683-2.70578v8.17738a3.68274,3.68274,0,0,1-3.68237,3.683h-.00064a3.68274,3.68274,0,0,1-3.68237-3.683v-8.17738A3.87136,3.87136,0,0,0,50.10776,116.068Z"/><path d="M64.84046,126.48257a3.871,3.871,0,0,1,3.683,2.70578V121.011a3.68275,3.68275,0,0,0-3.68237-3.683h-.00065a3.68275,3.68275,0,0,0-3.68237,3.683v8.17738A3.87138,3.87138,0,0,1,64.84046,126.48257Z"/><path d="M57.47443,126.48257a3.87218,3.87218,0,0,1,3.683,2.70578V121.011a3.68316,3.68316,0,0,0-3.68237-3.683h-.00065a3.68275,3.68275,0,0,0-3.68237,3.683v8.17738A3.87077,3.87077,0,0,1,57.47443,126.48257Z"/><path d="M50.10776,126.48257a3.87157,3.87157,0,0,1,3.683,2.70578V121.011a3.68274,3.68274,0,0,0-3.68237-3.683h-.00064a3.68274,3.68274,0,0,0-3.68237,3.683v8.17738A3.87136,3.87136,0,0,1,50.10776,126.48257Z"/><path class="cls-2" d="M57.40363,122.86862a18.9954,18.9954,0,0,1-1.76641,2.35523c-1.22937,1.39847-2.82236,2.81505-2.87987,4.82153a2.82469,2.82469,0,0,0,1.18124,2.47489,2.10657,2.10657,0,0,0,2.50094-.12588,2.149,2.149,0,0,0,.72858-1.28249c.0222-.13346.05572-.35328.23552-.35328s.21333.21982.23552.35328a2.14894,2.14894,0,0,0,.72859,1.28249,2.10654,2.10654,0,0,0,2.50092.12588,2.82464,2.82464,0,0,0,1.18124-2.47489c-.05749-2.00648-1.6505-3.42306-2.87985-4.82153A18.99448,18.99448,0,0,1,57.40363,122.86862Z"/><path class="cls-2" d="M46.42818,129.17737a4.267,4.267,0,0,1-.3967.52893,1.84692,1.84692,0,0,0-.64675,1.08281.63436.63436,0,0,0,.26528.55581.47309.47309,0,0,0,.56165-.02827.48263.48263,0,0,0,.16363-.288c.005-.03.01251-.07934.05289-.07934s.04791.04937.05289.07934a.48268.48268,0,0,0,.16363.288.47309.47309,0,0,0,.56165.02827.63433.63433,0,0,0,.26528-.55581,1.84692,1.84692,0,0,0-.64675-1.08281A4.267,4.267,0,0,1,46.42818,129.17737Z"/><path class="cls-2" d="M68.52528,129.17737a4.267,4.267,0,0,1-.3967.52893,1.847,1.847,0,0,0-.64676,1.08281.63438.63438,0,0,0,.26528.55581.4731.4731,0,0,0,.56166-.02827.48266.48266,0,0,0,.16362-.288c.005-.03.01252-.07934.0529-.07934s.04791.04937.05289.07934a.48266.48266,0,0,0,.16362.288.4731.4731,0,0,0,.56166.02827.63438.63438,0,0,0,.26528-.55581,1.847,1.847,0,0,0-.64675-1.08281A4.266,4.266,0,0,1,68.52528,129.17737Z"/></g></svg>