<svg xmlns="http://www.w3.org/2000/svg" viewBox="0 0 87 127"><defs><style>.cls-1{fill:#fff;}</style></defs><title>card-clubs-5</title><g id="artwork"><rect class="cls-1" x="-0.00463" width="87" height="127" rx="6"/><path d="M8.04167,18.67086l-.52835-.11156.14454-.97861a16.5305,16.5305,0,0,0,3.10368.35328,2.565,2.565,0,0,0,1.88-.641,2.45663,2.45663,0,0,0,.64847-1.828,2.0994,2.0994,0,0,0-.56839-1.64407,2.44419,2.44419,0,0,0-1.672-.505,4.96654,4.96654,0,0,0-1.16022.15266,5.72713,5.72713,0,0,0-1.01568.32881l-.336.1605-.84868-.1605.2881-5.4998h6.16048V9.42h-5.136l-.2881,3.44765a5.21866,5.21866,0,0,1,2.47962-.65762q3.36054,0,3.36053,3.12666a3.78126,3.78126,0,0,1-.92,2.73327,3.46541,3.46541,0,0,1-2.61635.95414A13.83393,13.83393,0,0,1,8.04167,18.67086Z"/><path d="M16.20778,30.20589a2.22669,2.22669,0,0,0-2.19647-1.64233,2.06828,2.06828,0,0,0-.96649.28782c-.15625.09337-.45.27537-.58477.04607-.12205-.20769.10074-.40145.23407-.52945a2.21546,2.21546,0,0,0,.63771-1.18858,2.33121,2.33121,0,0,0-1.04826-2.36158,2.43449,2.43449,0,0,0-2.59586,0,2.33119,2.33119,0,0,0-1.04826,2.36158,2.21545,2.21545,0,0,0,.6377,1.18858c.13334.128.35612.32176.23408.52945-.1348.2293-.42852.0473-.58478-.04607A2.06825,2.06825,0,0,0,7.96,28.56356a2.22671,2.22671,0,0,0-2.19648,1.64233,2.40939,2.40939,0,0,0,1.12964,2.69738,2.44062,2.44062,0,0,0,3.57359-1.50664h.19877a2.68908,2.68908,0,0,1-.39757,1.98855,2.64813,2.64813,0,0,1-.7176.71913V34.464H12.421v-.35967a2.64841,2.64841,0,0,1-.7176-.71913,2.68917,2.68917,0,0,1-.39757-1.98855h.19879a2.44059,2.44059,0,0,0,3.57357,1.50664A2.40937,2.40937,0,0,0,16.20778,30.20589Z"/><path d="M78.95072,108.32839l.52737.11254-.14356.97763a16.60351,16.60351,0,0,0-3.10466-.3523,2.564,2.564,0,0,0-1.88.641,2.45859,2.45859,0,0,0-.6475,1.82805,2.10174,2.10174,0,0,0,.56742,1.64309,2.447,2.447,0,0,0,1.67294.505,5.01279,5.01279,0,0,0,1.15924-.15169,5.71361,5.71361,0,0,0,1.01665-.32881l.336-.1605.8477.1605-.2881,5.4998H72.85372v-1.12345h5.136l.28908-3.44667a5.22526,5.22526,0,0,1-2.4806.65763q-3.36054,0-3.36053-3.12667a3.7784,3.7784,0,0,1,.921-2.73326,3.46352,3.46352,0,0,1,2.61537-.95513A13.89752,13.89752,0,0,1,78.95072,108.32839Z"/><path d="M70.783,96.77711a2.22669,2.22669,0,0,0,2.19647,1.64233,2.06827,2.06827,0,0,0,.96649-.28781c.15626-.09338.45-.27537.58477-.04607.12205.20768-.10074.40145-.23407.52944a2.21556,2.21556,0,0,0-.63771,1.18859,2.33121,2.33121,0,0,0,1.04826,2.36158,2.43449,2.43449,0,0,0,2.59586,0,2.33119,2.33119,0,0,0,1.04826-2.36158,2.21553,2.21553,0,0,0-.63769-1.18859c-.13335-.128-.35612-.32176-.23409-.52944.13481-.2293.42853-.04731.58479.04607a2.06817,2.06817,0,0,0,.96649.28781,2.2267,2.2267,0,0,0,2.19647-1.64233,2.40939,2.40939,0,0,0-1.12964-2.69738A2.44061,2.44061,0,0,0,76.524,95.58638h-.19878a2.6891,2.6891,0,0,1,.39757-1.98855,2.648,2.648,0,0,1,.7176-.71913V92.519H74.56977v.35967a2.64845,2.64845,0,0,1,.71761.71913,2.68915,2.68915,0,0,1,.39757,1.98855h-.19879a2.4406,2.4406,0,0,0-3.57358-1.50665A2.40937,2.40937,0,0,0,70.783,96.77711Z"/><path d="M51.32859,64.62862a3.34,3.34,0,0,0-3.29471-2.4635,3.10235,3.10235,0,0,0-1.44973.43173c-.23439.14006-.675.413-.87716.0691-.18307-.31153.15112-.60218.35111-.79417a3.3233,3.3233,0,0,0,.95656-1.78288,3.4968,3.4968,0,0,0-1.57239-3.54237,3.65176,3.65176,0,0,0-3.89379,0,3.4968,3.4968,0,0,0-1.57239,3.54237,3.32334,3.32334,0,0,0,.95654,1.78288c.2.192.53418.48264.35113.79417-.20221.34395-.64279.071-.87718-.0691a3.10221,3.10221,0,0,0-1.44973-.43173,3.34,3.34,0,0,0-3.29471,2.4635,3.61409,3.61409,0,0,0,1.69445,4.04607,3.66092,3.66092,0,0,0,5.36038-2.26h.29817a4.03367,4.03367,0,0,1-.59635,2.98282,3.97246,3.97246,0,0,1-1.07641,1.0787v.5395h4.306v-.5395a3.97274,3.97274,0,0,1-1.07641-1.0787,4.03371,4.03371,0,0,1-.59635-2.98282h.29818a3.6609,3.6609,0,0,0,5.36036,2.26A3.61406,3.61406,0,0,0,51.32859,64.62862Z"/><path d="M35.32773,22.61894a3.34,3.34,0,0,0-3.29471-2.4635,3.10231,3.10231,0,0,0-1.44973.43173c-.23439.14006-.675.413-.87716.0691-.18307-.31152.15111-.60217.35111-.79417a3.32323,3.32323,0,0,0,.95656-1.78288,3.49682,3.49682,0,0,0-1.57239-3.54237,3.65176,3.65176,0,0,0-3.89379,0,3.49678,3.49678,0,0,0-1.57239,3.54237,3.3232,3.3232,0,0,0,.95654,1.78288c.2.192.53418.48265.35113.79417-.20221.34395-.64279.071-.87718-.0691a3.10224,3.10224,0,0,0-1.44973-.43173,3.34,3.34,0,0,0-3.29471,2.4635A3.61407,3.61407,0,0,0,21.35573,26.665a3.66092,3.66092,0,0,0,5.36038-2.26h.29816a4.03366,4.03366,0,0,1-.59635,2.98283,3.97225,3.97225,0,0,1-1.0764,1.07869v.5395h4.306v-.5395a3.97281,3.97281,0,0,1-1.0764-1.07869,4.03375,4.03375,0,0,1-.59636-2.98283h.29819a3.66089,3.66089,0,0,0,5.36036,2.26A3.61407,3.61407,0,0,0,35.32773,22.61894Z"/><path d="M19.66128,104.38106a3.34,3.34,0,0,0,3.29471,2.4635,3.10235,3.10235,0,0,0,1.44973-.43173c.23439-.14006.675-.413.87716-.0691.18307.31152-.15112.60217-.35111.79417a3.32323,3.32323,0,0,0-.95656,1.78288,3.49682,3.49682,0,0,0,1.57239,3.54237,3.65176,3.65176,0,0,0,3.89379,0,3.49682,3.49682,0,0,0,1.57239-3.54237,3.32327,3.32327,0,0,0-.95654-1.78288c-.2-.192-.53418-.48265-.35113-.79417.20221-.34395.64279-.071.87718.0691a3.10221,3.10221,0,0,0,1.44973.43173,3.34,3.34,0,0,0,3.29471-2.4635,3.61409,3.61409,0,0,0-1.69445-4.04607,3.66092,3.66092,0,0,0-5.36038,2.26h-.29817a4.03366,4.03366,0,0,1,.59636-2.98283,3.97225,3.97225,0,0,1,1.0764-1.07869v-.5395h-4.306v.5395a3.97271,3.97271,0,0,1,1.07641,1.07869,4.03375,4.03375,0,0,1,.59635,2.98283h-.29818a3.6609,3.6609,0,0,0-5.36036-2.26A3.61406,3.61406,0,0,0,19.66128,104.38106Z"/><path d="M67.32945,22.61894a3.34,3.34,0,0,0-3.29471-2.4635,3.10235,3.10235,0,0,0-1.44973.43173c-.23438.14006-.675.413-.87716.0691-.18307-.31152.15112-.60217.35111-.79417a3.32324,3.32324,0,0,0,.95657-1.78288,3.49684,3.49684,0,0,0-1.5724-3.54237,3.65174,3.65174,0,0,0-3.89378,0A3.49678,3.49678,0,0,0,55.977,18.07922a3.32313,3.32313,0,0,0,.95654,1.78288c.2.192.53418.48265.35113.79417-.20221.34395-.64279.071-.87718-.0691a3.10228,3.10228,0,0,0-1.44974-.43173,3.34005,3.34005,0,0,0-3.29471,2.4635A3.61408,3.61408,0,0,0,53.35746,26.665a3.66092,3.66092,0,0,0,5.36038-2.26H59.016a4.03366,4.03366,0,0,1-.59635,2.98283,3.97229,3.97229,0,0,1-1.07641,1.07869v.5395h4.306v-.5395a3.97285,3.97285,0,0,1-1.07641-1.07869,4.03375,4.03375,0,0,1-.59635-2.98283h.29819a3.66089,3.66089,0,0,0,5.36036,2.26A3.61407,3.61407,0,0,0,67.32945,22.61894Z"/><path d="M51.663,104.38106a3.34,3.34,0,0,0,3.29471,2.4635,3.10235,3.10235,0,0,0,1.44973-.43173c.23438-.14006.675-.413.87716-.0691.18307.31152-.15112.60217-.35111.79417a3.32324,3.32324,0,0,0-.95657,1.78288,3.49684,3.49684,0,0,0,1.5724,3.54237,3.65174,3.65174,0,0,0,3.89378,0,3.49678,3.49678,0,0,0,1.57239-3.54237,3.32313,3.32313,0,0,0-.95654-1.78288c-.2-.192-.53418-.48265-.35113-.79417.20221-.34395.64279-.071.87718.0691a3.10228,3.10228,0,0,0,1.44974.43173,3.34005,3.34005,0,0,0,3.29471-2.4635A3.61408,3.61408,0,0,0,65.635,100.335a3.66092,3.66092,0,0,0-5.36038,2.26h-.29816a4.03366,4.03366,0,0,1,.59635-2.98283,3.97229,3.97229,0,0,1,1.07641-1.07869v-.5395h-4.306v.5395a3.97285,3.97285,0,0,1,1.07641,1.07869A4.03375,4.03375,0,0,1,59.016,102.595h-.29819a3.66089,3.66089,0,0,0-5.36036-2.26A3.61407,3.61407,0,0,0,51.663,104.38106Z"/></g></svg>