<svg xmlns="http://www.w3.org/2000/svg" viewBox="0 0 87 127"><defs><style>.cls-1{fill:#fff;}.cls-2{fill:#ff3b5c;}</style></defs><title>card-joker-1</title><g id="artwork"><rect class="cls-1" x="0.00232" width="86.99536" height="127" rx="6"/><path d="M7.86475,19.99163a4.36655,4.36655,0,0,0,1.18359-.112.74494.74494,0,0,0,.48828-.46533,3.56756,3.56756,0,0,0,.13574-1.17042V8.84817h1.21582l.01661,9.5723a3.62908,3.62908,0,0,1-.34375,1.79575,1.50807,1.50807,0,0,1-.95215.72907,7.599,7.599,0,0,1-1.74414.15266Z"/><path d="M7.29736,35.54423A3.24631,3.24631,0,0,1,5.9292,33.724a10.53776,10.53776,0,0,1-.4082-3.24655,10.61752,10.61752,0,0,1,.416-3.26269,3.40676,3.40676,0,0,1,1.376-1.876,4.71166,4.71166,0,0,1,2.57617-.617,4.71617,4.71617,0,0,1,2.57617.617,3.44568,3.44568,0,0,1,1.38379,1.876,10.57082,10.57082,0,0,1,.42383,3.2945,10.5273,10.5273,0,0,1-.4082,3.25486,3.18737,3.18737,0,0,1-1.35938,1.79575,5.00205,5.00205,0,0,1-2.60058.57739A4.93446,4.93446,0,0,1,7.29736,35.54423Zm4.48731-.94632a2.4219,2.4219,0,0,0,.93652-1.419,10.348,10.348,0,0,0,.27149-2.66965A10.5148,10.5148,0,0,0,12.7124,27.8a2.65228,2.65228,0,0,0-.95117-1.49924,3.1343,3.1343,0,0,0-1.87207-.48881,3.17747,3.17747,0,0,0-1.87207.4805,2.61076,2.61076,0,0,0-.95215,1.4914,10.43709,10.43709,0,0,0-.28027,2.69363,10.41228,10.41228,0,0,0,.27246,2.66966,2.42845,2.42845,0,0,0,.95215,1.443,3.37313,3.37313,0,0,0,1.89551.457A3.33567,3.33567,0,0,0,11.78467,34.59791Z"/><path d="M9.769,47.10457l-1.83984.06361v4.84218H6.69775v-11.095H7.9292V46.078l1.82422-.06361,2.832-5.09906h1.4082l-3.168,5.57956,3.34375,5.51546h-1.456Z"/><path d="M8.05713,58.03959v3.83175h4.54394v1.074H8.05713v4.0084H13.561v1.09017H6.82568v-11.095H13.561v1.09067Z"/><path d="M6.32178,72.982h4.0957a3.76077,3.76077,0,0,1,2.65625.82595,3.33355,3.33355,0,0,1,.87988,2.54145q0,2.58207-2.03222,3.22257l2.12793,4.50554H12.689l-2-4.24914H7.55322v4.24914H6.32178Zm4.11133,5.7562q2.25585,0,2.25585-2.34084a2.03151,2.03151,0,0,0-2.27148-2.3247H7.55322v4.66554Z"/><path d="M79.13525,107.00788a4.36655,4.36655,0,0,0-1.18359.112.745.745,0,0,0-.48828.46533,3.56614,3.56614,0,0,0-.13574,1.16993v9.39664H76.11182l-.01661-9.57279a3.62908,3.62908,0,0,1,.34375-1.79575,1.50807,1.50807,0,0,1,.95215-.72907,7.599,7.599,0,0,1,1.74414-.15266Z"/><path d="M79.70264,91.45528A3.24631,3.24631,0,0,1,81.0708,93.2755a13.05805,13.05805,0,0,1-.00781,6.50924,3.40676,3.40676,0,0,1-1.376,1.876,5.6865,5.6865,0,0,1-5.15234,0,3.44568,3.44568,0,0,1-1.38379-1.876,13.09745,13.09745,0,0,1-.01563-6.54936,3.18737,3.18737,0,0,1,1.35938-1.79575,5.00206,5.00206,0,0,1,2.60058-.57738A4.93446,4.93446,0,0,1,79.70264,91.45528Zm-4.48731.94632a2.4219,2.4219,0,0,0-.93652,1.419,10.348,10.348,0,0,0-.27149,2.66965,10.5148,10.5148,0,0,0,.28028,2.70929,2.65228,2.65228,0,0,0,.95117,1.49924,3.1343,3.1343,0,0,0,1.87207.48881,3.17747,3.17747,0,0,0,1.87207-.4805,2.61073,2.61073,0,0,0,.95215-1.4914,13.14908,13.14908,0,0,0,.00781-5.36328,2.42845,2.42845,0,0,0-.95215-1.443,3.37313,3.37313,0,0,0-1.89551-.457A3.33567,3.33567,0,0,0,75.21533,92.4016Z"/><path d="M77.231,79.89494l1.83984-.06361V74.98915h1.23145v11.095H79.0708V80.9215l-1.82422.06361-2.832,5.09906h-1.4082l3.168-5.57956-3.34375-5.51546h1.45605Z"/><path d="M78.94287,68.95992V65.12817H74.39893v-1.074h4.54394v-4.0084H73.439V58.95557h6.73536v11.095H73.439V68.95992Z"/><path d="M80.67822,54.01749h-4.0957a3.76077,3.76077,0,0,1-2.65625-.82595,3.33355,3.33355,0,0,1-.87988-2.54145q0-2.58207,2.03222-3.22257L72.95068,42.922H74.311l2,4.24914h3.13574V42.922h1.23144Zm-4.11133-5.7562q-2.25585,0-2.25585,2.34084a2.03151,2.03151,0,0,0,2.27148,2.3247h2.86426V48.26129Z"/><rect class="cls-2" x="43.2538" y="39.38289" width="0.5" height="5.74585"/><rect class="cls-2" x="29.56101" y="31.6816" width="5.57585" height="19.18901" rx="2.78792"/><rect class="cls-2" x="51.86314" y="31.6816" width="5.57585" height="19.18901" rx="2.78792"/><path class="cls-2" d="M47.73633,39.996a1.589,1.589,0,0,1,1.38951,1.10041v.00036l.00035.00035v-.00071A1.589,1.589,0,0,1,50.51534,39.996Z"/><path class="cls-2" d="M49.12619,36.24209H47.73633v-.0124a1.589,1.589,0,0,0,1.38951-1.10041v-.00035l.00035-.00036v.00071a1.589,1.589,0,0,0,1.38915,1.10041v.0124Z"/><circle class="cls-2" cx="49.12584" cy="38.10732" r="1.11964"/><path class="cls-2" d="M49.12563,41.59383a.61963.61963,0,1,1-.61963.61963.62016.62016,0,0,1,.61963-.61963m0-.5a1.11963,1.11963,0,1,0,1.11963,1.11963,1.11956,1.11956,0,0,0-1.11963-1.11963Z"/><circle class="cls-2" cx="37.87416" cy="38.10732" r="1.11964"/><path class="cls-2" d="M36.48466,39.996a1.589,1.589,0,0,1,1.3895,1.10041v.00036l.00036.00035v-.00071A1.58894,1.58894,0,0,1,39.26367,39.996Z"/><path class="cls-2" d="M37.87452,36.24209H36.48466v-.0124a1.589,1.589,0,0,0,1.3895-1.10041v-.00035l.00036-.00036v.00071a1.58894,1.58894,0,0,0,1.38915,1.10041v.0124Z"/><circle cx="37.84884" cy="58.18101" r="1.11964"/><circle cx="49.10051" cy="58.18101" r="1.11964"/><circle cx="43.50145" cy="61.54045" r="1.96002"/><path class="cls-2" d="M42.864,53.10777a5.70184,5.70184,0,0,0-4.986,3.94859v.00127l-.00127.00127v-.00254a5.70163,5.70163,0,0,0-4.98467-3.94859Z"/><path class="cls-2" d="M54.11565,53.10777a5.70183,5.70183,0,0,0-4.986,3.94859v.00127l-.00127.00127v-.00254a5.70165,5.70165,0,0,0-4.98468-3.94859Z"/><path class="cls-2" d="M51.68949,53.10777a9.36091,9.36091,0,0,0-8.18563,6.48255v.00209l-.00209.00209v-.00418a9.3606,9.3606,0,0,0-8.18354-6.48255Z"/><path d="M47.91921,49.6678h-.5a1.39192,1.39192,0,0,0-.38282-1.07568,1.41442,1.41442,0,0,0-.9729-.30542l-4.70874.00122a2.36933,2.36933,0,0,1-1.626-.56763,2.22219,2.22219,0,0,1-.64026-1.69873h.5a1.74859,1.74859,0,0,0,.47876,1.33057,1.88975,1.88975,0,0,0,1.27148.43628l4.70044-.00049a1.88843,1.88843,0,0,1,1.32947.43066A1.86108,1.86108,0,0,1,47.91921,49.6678Z"/><path d="M37.54863,28.99965V27.93872a3.14061,3.14061,0,0,0-2.388-3.04444,3.13428,3.13428,0,0,1,5.57138,1.983v2.12241Z"/><path d="M49.45909,28.99965V27.93872a3.14061,3.14061,0,0,1,2.388-3.04444,3.13427,3.13427,0,0,0-5.57137,1.983v2.12241Z"/><circle class="cls-2" cx="52.88879" cy="25.3086" r="1.11964"/><circle class="cls-2" cx="34.11893" cy="25.3086" r="1.11964"/><path d="M49.07428,27.50456h.00035a2.78813,2.78813,0,0,1,2.78787,2.78822v4.014a2.92058,2.92058,0,0,0-5.57042-.01347v.01347l-.00283-.00673-.00284.00673v-.01347a2.91961,2.91961,0,0,0-5.56475,0v.01347l-.00283-.00673-.00284.00673v-.01347a2.92082,2.92082,0,0,0-5.57077.01347v-4.014a2.78844,2.78844,0,0,1,2.78822-2.78822H49.07428Z"/><path d="M35.89325,28.459a8.70332,8.70332,0,0,0,7.61061-6.02716v-.00194l.00194-.00194v.00388A8.703,8.703,0,0,0,51.11447,28.459Z"/><circle class="cls-2" cx="43.50386" cy="20.46413" r="1.96002"/><rect class="cls-2" x="43.2462" y="81.87126" width="0.5" height="5.74585"/><rect class="cls-2" x="51.86314" y="76.1294" width="5.57585" height="19.18901" rx="2.78792" transform="translate(109.30213 171.4478) rotate(180)"/><rect class="cls-2" x="29.56101" y="76.1294" width="5.57585" height="19.18901" rx="2.78792" transform="translate(64.69787 171.4478) rotate(180)"/><path class="cls-2" d="M39.26367,87.004a1.589,1.589,0,0,1-1.38951-1.10041v-.00036l-.00035-.00035v.00071A1.589,1.589,0,0,1,36.48466,87.004Z"/><path class="cls-2" d="M37.87381,90.75791h1.38986v.0124a1.589,1.589,0,0,0-1.38951,1.10041v.00035l-.00035.00036v-.00071a1.589,1.589,0,0,0-1.38915-1.10041v-.0124Z"/><circle class="cls-2" cx="37.87416" cy="88.89268" r="1.11964"/><path class="cls-2" d="M37.87437,85.40617a.61963.61963,0,1,1,.61963-.61963.62016.62016,0,0,1-.61963.61963m0,.5a1.11963,1.11963,0,1,0-1.11963-1.11963,1.11956,1.11956,0,0,0,1.11963,1.11963Z"/><circle class="cls-2" cx="49.12584" cy="88.89268" r="1.11964"/><path class="cls-2" d="M50.51534,87.004a1.589,1.589,0,0,1-1.3895-1.10041v-.00036l-.00036-.00035v.00071A1.58894,1.58894,0,0,1,47.73633,87.004Z"/><path class="cls-2" d="M49.12548,90.75791h1.38986v.0124a1.589,1.589,0,0,0-1.3895,1.10041v.00035l-.00036.00036v-.00071a1.58894,1.58894,0,0,0-1.38915-1.10041v-.0124Z"/><circle cx="49.15116" cy="68.81899" r="1.11964"/><circle cx="37.89949" cy="68.81899" r="1.11964"/><circle cx="43.49855" cy="65.45955" r="1.96002"/><path class="cls-2" d="M44.136,73.89223a5.70184,5.70184,0,0,0,4.986-3.94859v-.00127l.00127-.00127v.00254a5.70163,5.70163,0,0,0,4.98467,3.94859Z"/><path class="cls-2" d="M32.88435,73.89223a5.70183,5.70183,0,0,0,4.986-3.94859v-.00127l.00127-.00127v.00254a5.70165,5.70165,0,0,0,4.98468,3.94859Z"/><path class="cls-2" d="M35.31051,73.89223a9.36091,9.36091,0,0,0,8.18563-6.48255v-.00209l.00209-.00209v.00418a9.3606,9.3606,0,0,0,8.18354,6.48255Z"/><path d="M39.08079,77.3322h.5a1.39192,1.39192,0,0,0,.38282,1.07568,1.41442,1.41442,0,0,0,.9729.30542l4.70874-.00122a2.36933,2.36933,0,0,1,1.626.56763,2.22219,2.22219,0,0,1,.64026,1.69873h-.5a1.74859,1.74859,0,0,0-.47876-1.33057,1.88975,1.88975,0,0,0-1.27148-.43628l-4.70044.00049a1.88843,1.88843,0,0,1-1.32947-.43066A1.86108,1.86108,0,0,1,39.08079,77.3322Z"/><path d="M49.45137,98.00035v1.06093a3.14061,3.14061,0,0,0,2.388,3.04444,3.13428,3.13428,0,0,1-5.57138-1.983V98.00035Z"/><path d="M37.54091,98.00035v1.06093a3.14061,3.14061,0,0,1-2.388,3.04444,3.13427,3.13427,0,0,0,5.57137-1.983V98.00035Z"/><circle class="cls-2" cx="34.11121" cy="101.6914" r="1.11964"/><circle class="cls-2" cx="52.88107" cy="101.6914" r="1.11964"/><path d="M37.92572,99.49544h-.00035a2.78813,2.78813,0,0,1-2.78787-2.78822V92.69317a2.92058,2.92058,0,0,0,5.57042.01347v-.01347l.00283.00673.00284-.00673v.01347a2.91961,2.91961,0,0,0,5.56475,0v-.01347l.00283.00673.00284-.00673v.01347a2.92082,2.92082,0,0,0,5.57077-.01347v4.01405a2.78844,2.78844,0,0,1-2.78822,2.78822H37.92572Z"/><path d="M51.10675,98.541a8.70332,8.70332,0,0,0-7.61061,6.02716v.00194l-.00194.00194v-.00388A8.703,8.703,0,0,0,35.88553,98.541Z"/><circle class="cls-2" cx="43.49614" cy="106.53587" r="1.96002"/></g></svg>