<svg xmlns="http://www.w3.org/2000/svg" viewBox="0 0 115 167"><defs><style>.cls-1{fill:#fff;}.cls-2{fill:#ff3b5c;}</style></defs><title>card-hearts-6</title><g id="artwork"><rect class="cls-1" width="115" height="167" rx="8"/><path class="cls-2" d="M9.6756,17.46271a8.54521,8.54521,0,0,1,1.40711-5.37349,4.868,4.868,0,0,1,4.04964-1.7696,20.05942,20.05942,0,0,1,3.2583.25484l.57059.10607-.14846,1.335a27.96549,27.96549,0,0,0-3.70109-.25483,3.30549,3.30549,0,0,0-2.77033,1.25088,5.724,5.724,0,0,0-.97336,3.58189l.52928-.21215a10.75587,10.75587,0,0,1,1.4794-.42429,7.08854,7.08854,0,0,1,1.4807-.19015q4.69575,0,4.6951,4.34509a4.45964,4.45964,0,0,1-1.27931,3.42278,5.07666,5.07666,0,0,1-3.60556,1.19656Q9.6756,24.73127,9.6756,17.46271ZM17.02614,22.474a3.09646,3.09646,0,0,0,.83523-2.32066,2.81859,2.81859,0,0,0-.80425-2.1926,3.30759,3.30759,0,0,0-2.3056-.73087,6.865,6.865,0,0,0-1.50135.19016,11.2778,11.2778,0,0,0-1.41743.4023l-.48539.21214a7.79151,7.79151,0,0,0,.83523,3.86777,2.61635,2.61635,0,0,0,2.39983,1.388A3.35935,3.35935,0,0,0,17.02614,22.474Z"/><path class="cls-2" d="M14.54128,45.241a25.15192,25.15192,0,0,1,2.33443-3.119c1.62468-1.85194,3.72992-3.72788,3.80593-6.385a3.74337,3.74337,0,0,0-1.56109-3.27741,2.77941,2.77941,0,0,0-3.30514.16669,2.84721,2.84721,0,0,0-.96287,1.69836c-.02934.17673-.07364.46783-.31126.46783s-.28193-.2911-.31125-.46783a2.84722,2.84722,0,0,0-.96288-1.69836A2.77939,2.77939,0,0,0,9.962,32.45966a3.7434,3.7434,0,0,0-1.56109,3.27741c.076,2.65711,2.18125,4.533,3.80591,6.385A25.151,25.151,0,0,1,14.54128,45.241Z"/><path class="cls-2" d="M105.32427,149.53859a8.54959,8.54959,0,0,1-1.40582,5.37219,4.87058,4.87058,0,0,1-4.05093,1.7696,20.04758,20.04758,0,0,1-3.257-.25354l-.57059-.10608.14717-1.33625a27.76736,27.76736,0,0,0,3.70238.25483,3.302,3.302,0,0,0,2.77033-1.25088,5.72815,5.72815,0,0,0,.97336-3.5806l-.52928.21215a10.66153,10.66153,0,0,1-1.4807.423,7.00285,7.00285,0,0,1-1.48069.19015q-4.69382,0-4.6951-4.3438a4.46238,4.46238,0,0,1,1.27931-3.42278,5.0784,5.0784,0,0,1,3.60685-1.19785Q105.32556,142.26873,105.32427,149.53859ZM97.975,144.526a3.10043,3.10043,0,0,0-.83523,2.32066,2.81917,2.81917,0,0,0,.803,2.19389,3.31193,3.31193,0,0,0,2.3056.73087,6.94589,6.94589,0,0,0,1.50264-.19016,11.51893,11.51893,0,0,0,1.41614-.40359l.48668-.21085a7.80558,7.80558,0,0,0-.83523-3.86777,2.6208,2.6208,0,0,0-2.40112-1.38929A3.354,3.354,0,0,0,97.975,144.526Z"/><path class="cls-2" d="M100.45872,121.93637a25.15043,25.15043,0,0,1-2.33443,3.11895c-1.62468,1.85194-3.72992,3.72788-3.80593,6.385a3.74339,3.74339,0,0,0,1.56109,3.27742,2.77942,2.77942,0,0,0,3.30514-.1667,2.84721,2.84721,0,0,0,.96287-1.69836c.02934-.17673.07364-.46783.31126-.46783s.28193.2911.31125.46783a2.84722,2.84722,0,0,0,.96288,1.69836,2.77941,2.77941,0,0,0,3.30513.1667,3.74342,3.74342,0,0,0,1.56109-3.27742c-.076-2.65711-2.18125-4.53305-3.80591-6.385A25.14951,25.14951,0,0,1,100.45872,121.93637Z"/><path class="cls-2" d="M36.34942,37.7144A37.72636,37.72636,0,0,1,39.85107,33.036c2.437-2.77791,5.59489-5.59182,5.70889-9.57749a5.61509,5.61509,0,0,0-2.34162-4.91612,4.16912,4.16912,0,0,0-4.95772.25,4.27086,4.27086,0,0,0-1.44431,2.54754c-.044.2651-.11045.70175-.46689.70175s-.42289-.43665-.46687-.70175a4.27088,4.27088,0,0,0-1.44432-2.54754,4.16909,4.16909,0,0,0-4.9577-.25,5.61513,5.61513,0,0,0-2.34163,4.91612c.114,3.98567,3.27187,6.79958,5.70887,9.57749A37.72337,37.72337,0,0,1,36.34942,37.7144Z"/><path class="cls-2" d="M36.34945,129.2856A37.72736,37.72736,0,0,1,32.8478,133.964c-2.437,2.77791-5.59489,5.59182-5.7089,9.57749a5.61513,5.61513,0,0,0,2.34163,4.91612,4.16912,4.16912,0,0,0,4.95772-.25,4.2708,4.2708,0,0,0,1.4443-2.54754c.044-.2651.11046-.70175.4669-.70175s.42289.43665.46686.70175a4.27089,4.27089,0,0,0,1.44433,2.54754,4.16909,4.16909,0,0,0,4.9577.25A5.61509,5.61509,0,0,0,45.56,143.54152c-.114-3.98567-3.27186-6.79958-5.70886-9.57749A37.72238,37.72238,0,0,1,36.34945,129.2856Z"/><path class="cls-2" d="M78.65055,37.7144A37.72736,37.72736,0,0,1,82.1522,33.036c2.437-2.77791,5.59489-5.59182,5.7089-9.57749a5.61513,5.61513,0,0,0-2.34163-4.91612,4.16912,4.16912,0,0,0-4.95772.25,4.2708,4.2708,0,0,0-1.4443,2.54754c-.044.2651-.11046.70175-.4669.70175s-.42289-.43665-.46686-.70175a4.27089,4.27089,0,0,0-1.44433-2.54754,4.16909,4.16909,0,0,0-4.9577-.25A5.61509,5.61509,0,0,0,69.44,23.45848c.114,3.98567,3.27186,6.79958,5.70886,9.57749A37.72238,37.72238,0,0,1,78.65055,37.7144Z"/><path class="cls-2" d="M78.65058,129.2856a37.72636,37.72636,0,0,1-3.50165,4.67843c-2.437,2.77791-5.59489,5.59182-5.70889,9.57749a5.61509,5.61509,0,0,0,2.34162,4.91612,4.16912,4.16912,0,0,0,4.95772-.25,4.27086,4.27086,0,0,0,1.44431-2.54754c.044-.2651.11045-.70175.46689-.70175s.42289.43665.46687.70175a4.27088,4.27088,0,0,0,1.44432,2.54754,4.16909,4.16909,0,0,0,4.9577.25,5.61513,5.61513,0,0,0,2.34163-4.91612c-.114-3.98567-3.27187-6.79958-5.70887-9.57749A37.72337,37.72337,0,0,1,78.65058,129.2856Z"/><path class="cls-2" d="M36.34942,93.4346a37.72785,37.72785,0,0,1,3.50165-4.67843c2.437-2.77791,5.59489-5.59182,5.70889-9.57748a5.61511,5.61511,0,0,0-2.34162-4.91613,4.16914,4.16914,0,0,0-4.95772.25005,4.27086,4.27086,0,0,0-1.44431,2.54754c-.044.26509-.11045.70174-.46689.70174s-.42289-.43665-.46687-.70174a4.27088,4.27088,0,0,0-1.44432-2.54754,4.16911,4.16911,0,0,0-4.9577-.25005,5.61514,5.61514,0,0,0-2.34163,4.91613c.114,3.98566,3.27187,6.79957,5.70887,9.57748A37.72486,37.72486,0,0,1,36.34942,93.4346Z"/><path class="cls-2" d="M78.65055,93.4346a37.72885,37.72885,0,0,1,3.50165-4.67843c2.437-2.77791,5.59489-5.59182,5.7089-9.57748a5.61514,5.61514,0,0,0-2.34163-4.91613,4.16914,4.16914,0,0,0-4.95772.25005,4.2708,4.2708,0,0,0-1.4443,2.54754c-.044.26509-.11046.70174-.4669.70174s-.42289-.43665-.46686-.70174a4.27089,4.27089,0,0,0-1.44433-2.54754,4.16911,4.16911,0,0,0-4.9577-.25005A5.61511,5.61511,0,0,0,69.44,79.17869c.114,3.98566,3.27186,6.79957,5.70886,9.57748A37.72387,37.72387,0,0,1,78.65055,93.4346Z"/></g></svg>