<svg xmlns="http://www.w3.org/2000/svg" viewBox="0 0 87 127"><defs><style>.cls-1{fill:#fff;}.cls-2{fill:#ff3b5c;}</style></defs><title>card-hearts-q</title><g id="artwork"><rect class="cls-1" x="0.00232" width="86.99536" height="127" rx="6"/><path class="cls-2" d="M12.34677,18.89583a5.23812,5.23812,0,0,1-1.34472.14386,4.89033,4.89033,0,0,1-2.59961-.593,3.26522,3.26522,0,0,1-1.36035-1.82022,10.5688,10.5688,0,0,1-.40821-3.247,10.62151,10.62151,0,0,1,.416-3.26269,3.407,3.407,0,0,1,1.37695-1.876,4.71473,4.71473,0,0,1,2.5752-.61653,4.71829,4.71829,0,0,1,2.57617.61653,3.4446,3.4446,0,0,1,1.38379,1.876,10.41936,10.41936,0,0,1,.42383,3.26269,10.28474,10.28474,0,0,1-.42383,3.28716,3.19829,3.19829,0,0,1-1.416,1.79575l1.36035,2.197-1.15234.54509Zm.55176-1.3955a2.42233,2.42233,0,0,0,.93555-1.419,10.301,10.301,0,0,0,.27246-2.66965,10.51427,10.51427,0,0,0-.28027-2.70978,2.64848,2.64848,0,0,0-.95215-1.49924,3.13233,3.13233,0,0,0-1.87207-.48832A3.17745,3.17745,0,0,0,9.13,9.19485a2.60967,2.60967,0,0,0-.95118,1.4914,10.38716,10.38716,0,0,0-.28027,2.69314A10.45995,10.45995,0,0,0,8.17,16.04905a2.43988,2.43988,0,0,0,.95214,1.44345,3.37668,3.37668,0,0,0,1.89649.457A3.33783,3.33783,0,0,0,12.89853,17.50033Z"/><path class="cls-2" d="M11.00252,34.555a19.0278,19.0278,0,0,1,1.766-2.35955c1.229-1.401,2.82162-2.82023,2.87911-4.83039a2.832,2.832,0,0,0-1.18093-2.47943,2.10249,2.10249,0,0,0-2.50028.12611A2.154,2.154,0,0,0,11.238,26.2966c-.02219.1337-.0557.35393-.23547.35393s-.21327-.22023-.23545-.35393a2.154,2.154,0,0,0-.7284-1.28484,2.10247,2.10247,0,0,0-2.50027-.12611,2.832,2.832,0,0,0-1.18093,2.47943c.05748,2.01016,1.65007,3.42935,2.8791,4.83039A19.02474,19.02474,0,0,1,11.00252,34.555Z"/><path class="cls-2" d="M74.65537,108.10417a5.19,5.19,0,0,1,1.34472-.14483,4.89033,4.89033,0,0,1,2.59961.593,3.26516,3.26516,0,0,1,1.36035,1.82021,13.05968,13.05968,0,0,1-.00781,6.50973,3.407,3.407,0,0,1-1.377,1.876,5.68045,5.68045,0,0,1-5.15137,0,3.4446,3.4446,0,0,1-1.38379-1.876,10.41932,10.41932,0,0,1-.42383-3.26269,10.28479,10.28479,0,0,1,.42383-3.28716,3.19829,3.19829,0,0,1,1.416-1.79575l-1.36035-2.196,1.15234-.54606Zm-.55176,1.39452a2.42233,2.42233,0,0,0-.93555,1.419,10.301,10.301,0,0,0-.27246,2.66966,10.51893,10.51893,0,0,0,.28028,2.70977,2.65175,2.65175,0,0,0,.95214,1.49924,3.13216,3.13216,0,0,0,1.87207.4893,3.17023,3.17023,0,0,0,1.87207-.48147,2.6097,2.6097,0,0,0,.95118-1.49141,13.16967,13.16967,0,0,0,.00879-5.36279,2.43691,2.43691,0,0,0-.95215-1.44346,3.37668,3.37668,0,0,0-1.89649-.457A3.33786,3.33786,0,0,0,74.10361,109.49869Z"/><path class="cls-2" d="M75.99748,92.57673a19.0278,19.0278,0,0,1-1.766,2.35955c-1.229,1.401-2.82162,2.82022-2.87911,4.83039a2.832,2.832,0,0,0,1.18093,2.47943,2.10249,2.10249,0,0,0,2.50028-.12611,2.154,2.154,0,0,0,.72839-1.28484c.02219-.1337.0557-.35393.23547-.35393s.21327.22023.23545.35393a2.154,2.154,0,0,0,.7284,1.28484,2.10247,2.10247,0,0,0,2.50027.12611,2.832,2.832,0,0,0,1.18093-2.47943c-.05748-2.01017-1.65007-3.42936-2.8791-4.83039A19.02474,19.02474,0,0,1,75.99748,92.57673Z"/><path class="cls-2" d="M43.50039,63.50773a8.18712,8.18712,0,0,1,.76134-1.01513A3.54469,3.54469,0,0,0,45.503,60.41448a1.21748,1.21748,0,0,0-.50912-1.0667.908.908,0,0,0-1.07793.05425.92624.92624,0,0,0-.314.55277c-.00956.05752-.024.15226-.10151.15226s-.092-.09474-.10151-.15226a.92619.92619,0,0,0-.314-.55277.90794.90794,0,0,0-1.07792-.05425,1.21746,1.21746,0,0,0-.50913,1.0667,3.54469,3.54469,0,0,0,1.24125,2.07812A8.18613,8.18613,0,0,1,43.50039,63.50773Z"/><path class="cls-2" d="M46.95307,60.17659a3.22546,3.22546,0,0,1,.3001-.40013,1.39721,1.39721,0,0,0,.48925-.81913.47984.47984,0,0,0-.20068-.42045.35787.35787,0,0,0-.42488.02138.36512.36512,0,0,0-.12378.21788c-.00377.02268-.00946.06-.04.06s-.03624-.03734-.04-.06a.36512.36512,0,0,0-.12378-.21788.35787.35787,0,0,0-.42488-.02138.47987.47987,0,0,0-.20068.42045,1.39721,1.39721,0,0,0,.48925.81913A3.22546,3.22546,0,0,1,46.95307,60.17659Z"/><path class="cls-2" d="M40.05474,60.17659a3.22745,3.22745,0,0,1,.3001-.40013,1.39717,1.39717,0,0,0,.48926-.81913.47987.47987,0,0,0-.20068-.42045.35786.35786,0,0,0-.42488.02138.36507.36507,0,0,0-.12378.21788c-.00377.02268-.00947.06-.04.06s-.03624-.03734-.04-.06a.36512.36512,0,0,0-.12378-.21788.35786.35786,0,0,0-.42488-.02138.47987.47987,0,0,0-.20068.42045,1.39722,1.39722,0,0,0,.48926.81913A3.22638,3.22638,0,0,1,40.05474,60.17659Z"/><path class="cls-2" d="M49.17048,59.35385a3.22787,3.22787,0,0,1,.30009-.40013,1.39715,1.39715,0,0,0,.48926-.81912.47987.47987,0,0,0-.20068-.42046.35787.35787,0,0,0-.42488.02139.36509.36509,0,0,0-.12378.21788c-.00377.02267-.00946.06-.04.06s-.03624-.03734-.04-.06a.36509.36509,0,0,0-.12378-.21788.35787.35787,0,0,0-.42488-.02139.47987.47987,0,0,0-.20068.42046,1.39713,1.39713,0,0,0,.48925.81912A3.228,3.228,0,0,1,49.17048,59.35385Z"/><path class="cls-2" d="M37.82327,59.35385a3.229,3.229,0,0,1,.3001-.40013,1.3972,1.3972,0,0,0,.48926-.81912.4799.4799,0,0,0-.20068-.42046.35788.35788,0,0,0-.42489.02139.36508.36508,0,0,0-.12377.21788c-.00378.02267-.00947.06-.04.06s-.03624-.03734-.04-.06a.36509.36509,0,0,0-.12378-.21788.35786.35786,0,0,0-.42488-.02139.47987.47987,0,0,0-.20068.42046,1.39715,1.39715,0,0,0,.48926.81912A3.22787,3.22787,0,0,1,37.82327,59.35385Z"/><path class="cls-2" d="M51.39492,57.94043a3.227,3.227,0,0,1,.30009-.40012,1.3972,1.3972,0,0,0,.48926-.81913.47988.47988,0,0,0-.20068-.42046.35788.35788,0,0,0-.42488.02139.36509.36509,0,0,0-.12378.21788c-.00377.02267-.00946.06-.04.06s-.03624-.03735-.04-.06a.36509.36509,0,0,0-.12378-.21788.35788.35788,0,0,0-.42488-.02139.47988.47988,0,0,0-.20068.42046,1.39719,1.39719,0,0,0,.48925.81913A3.2271,3.2271,0,0,1,51.39492,57.94043Z"/><path class="cls-2" d="M35.61993,57.94043a3.227,3.227,0,0,1,.30009-.40012,1.3972,1.3972,0,0,0,.48926-.81913.47988.47988,0,0,0-.20068-.42046.35788.35788,0,0,0-.42488.02139.36509.36509,0,0,0-.12378.21788c-.00377.02267-.00946.06-.04.06s-.03624-.03735-.04-.06a.36509.36509,0,0,0-.12378-.21788.35788.35788,0,0,0-.42488-.02139.47988.47988,0,0,0-.20068.42046,1.39719,1.39719,0,0,0,.48925.81913A3.2271,3.2271,0,0,1,35.61993,57.94043Z"/><path class="cls-2" d="M43.50744,50.77736a1.46,1.46,0,1,1-1.46,1.46,1.46143,1.46143,0,0,1,1.46-1.46m0-.5a1.96,1.96,0,1,0,1.96,1.96,1.96019,1.96019,0,0,0-1.96-1.96Z"/><path d="M43.50744,56.6526a8.88387,8.88387,0,0,1-8.8739-8.87377h.5a8.37384,8.37384,0,0,0,16.74768,0h.5A8.88376,8.88376,0,0,1,43.50744,56.6526Z"/><rect x="43.25744" y="44.9214" width="0.5" height="2.78857"/><rect class="cls-2" x="29.58638" y="34.48746" width="5.57585" height="21.17968" rx="2.78792"/><rect class="cls-2" x="51.85263" y="34.48746" width="5.57585" height="21.17968" rx="2.78792"/><path d="M37.93516,30.68994A2.92831,2.92831,0,0,1,35.149,28.64307v8.186a2.78593,2.78593,0,0,0,2.78564,2.78614h.00049A2.78593,2.78593,0,0,0,40.7208,36.8291v-8.186A2.92861,2.92861,0,0,1,37.93516,30.68994Z"/><path d="M43.50742,30.68994a2.92923,2.92923,0,0,1-2.78613-2.04687v8.186a2.78624,2.78624,0,0,0,2.78565,2.78614h.00048a2.78593,2.78593,0,0,0,2.78565-2.78614v-8.186A2.92818,2.92818,0,0,1,43.50742,30.68994Z"/><path d="M49.08018,30.68994a2.92876,2.92876,0,0,1-2.78613-2.04687v8.186a2.78593,2.78593,0,0,0,2.78564,2.78614h.00049a2.78593,2.78593,0,0,0,2.78564-2.78614v-8.186A2.92861,2.92861,0,0,1,49.08018,30.68994Z"/><path d="M56.0638,34.40214A1.57491,1.57491,0,0,0,57.441,33.3115v-.00035l.00035-.00035v.0007a1.57487,1.57487,0,0,0,1.37682,1.09064Z"/><path d="M59.87657,35.17373a1.57489,1.57489,0,0,0,1.46343.97183l.00067-.00022-.00034.00011.00045.00023-.00067.00021a1.57485,1.57485,0,0,0-.61078,1.64684Z"/><path d="M56.75587,40.68272a1.57492,1.57492,0,0,0-1.75561.06281l-.00041.00057.0002-.00028-.00049.00007L55,40.74533a1.57488,1.57488,0,0,0-.46311-1.69431Z"/><path d="M55.02017,35.13052a1.57493,1.57493,0,0,1-1.46892.96353l-.00067-.00023.00033.00012-.00044.00022.00067.00022a1.57484,1.57484,0,0,1,.60143,1.65027Z"/><path d="M58.08889,40.69562a1.57491,1.57491,0,0,1,1.7552.07345l.00041.00057-.00021-.00028.00049.00008-.00041-.00057a1.57485,1.57485,0,0,1,.47338-1.69146Z"/><path class="cls-1" d="M56.247,39.98247l-.261-.53064-.58367-.0851a1.34232,1.34232,0,0,1-.74082-2.28759l.42235-.41305-.09971-.58324A1.33765,1.33765,0,0,1,56.92358,34.669l.522.27537.52205-.27537a1.33764,1.33764,0,0,1,1.9395,1.41381l-.0997.58324.42235.41305a1.34232,1.34232,0,0,1-.74083,2.28759l-.58366.0851-.261.53064A1.33475,1.33475,0,0,1,56.247,39.98247Z"/><path d="M57.44568,40.855a1.45243,1.45243,0,0,1-1.31092-.81739l-.23193-.47143-.51868-.07568a1.46743,1.46743,0,0,1-.81018-2.50074l.37549-.36718-.0885-.5188a1.4626,1.4626,0,0,1,2.121-1.54541l.46375.24463.46362-.24463a1.46276,1.46276,0,0,1,2.12109,1.54541l-.08862.5188.37549.36718a1.46743,1.46743,0,0,1-.81018,2.50074l-.51868.07568-.23193.47143A1.45238,1.45238,0,0,1,57.44568,40.855ZM56.298,34.636a1.22141,1.22141,0,0,0-1.19067,1.42578l.11072.64771-.46924.459a1.21724,1.21724,0,0,0,.67151,2.07447l.6488.09472.29.5896a1.20974,1.20974,0,0,0,2.173,0l.29-.5896.64881-.09472a1.21724,1.21724,0,0,0,.6715-2.07447l-.46923-.459.11084-.64771A1.21278,1.21278,0,0,0,58.026,34.77956l-.58032.30615-.58045-.30615A1.21293,1.21293,0,0,0,56.298,34.636Z"/><path class="cls-2" d="M57.44543,36.27785a1.14063,1.14063,0,1,1-1.14013,1.14062,1.142,1.142,0,0,1,1.14013-1.14062m0-.25a1.39063,1.39063,0,1,0,1.39063,1.39062,1.39046,1.39046,0,0,0-1.39063-1.39062Z"/><path d="M50.42126,43.54323h-.5a1.71,1.71,0,1,0-3.41992,0h-.5a2.21,2.21,0,1,1,4.41992,0Z"/><circle cx="48.21133" cy="42.07498" r="0.64806"/><path d="M41.01343,43.54323h-.5a1.71,1.71,0,0,0-3.41993,0h-.5a2.21,2.21,0,0,1,4.41993,0Z"/><circle cx="38.80352" cy="42.07498" r="0.64806"/><path class="cls-2" d="M43.50742,33.42383a14.3705,14.3705,0,0,1,1.33626-1.78169c.93-1.05791,2.13506-2.12953,2.17857-3.6474a2.13681,2.13681,0,0,0-.89359-1.8722,1.59357,1.59357,0,0,0-1.89191.09522,1.62568,1.62568,0,0,0-.55116.97018c-.01679.101-.04215.26725-.17817.26725s-.16138-.16629-.17816-.26725a1.62569,1.62569,0,0,0-.55117-.97018,1.59356,1.59356,0,0,0-1.8919-.09522,2.13681,2.13681,0,0,0-.89359,1.8722c.0435,1.51787,1.24858,2.58949,2.17856,3.6474A14.3695,14.3695,0,0,1,43.50742,33.42383Z"/><path class="cls-2" d="M43.50742,25.96155a3.229,3.229,0,0,1,.3001-.40013,1.39723,1.39723,0,0,0,.48926-.81912.47987.47987,0,0,0-.20068-.42046.35788.35788,0,0,0-.42488.02138.36507.36507,0,0,0-.12378.21789c-.00377.02267-.00947.06-.04.06s-.03624-.03734-.04-.06a.36512.36512,0,0,0-.12378-.21789.35788.35788,0,0,0-.42488-.02138.47987.47987,0,0,0-.20068.42046,1.39718,1.39718,0,0,0,.48926.81912A3.22787,3.22787,0,0,1,43.50742,25.96155Z"/><path class="cls-2" d="M43.49961,63.49227a8.18712,8.18712,0,0,1-.76134,1.01513A3.54469,3.54469,0,0,0,41.497,66.58552a1.21748,1.21748,0,0,0,.50912,1.0667.908.908,0,0,0,1.07793-.05425.92624.92624,0,0,0,.314-.55277c.00956-.05752.024-.15226.10151-.15226s.092.09474.10151.15226a.92619.92619,0,0,0,.314.55277.90794.90794,0,0,0,1.07792.05425,1.21746,1.21746,0,0,0,.50913-1.0667A3.54469,3.54469,0,0,0,44.261,64.5074,8.18613,8.18613,0,0,1,43.49961,63.49227Z"/><path class="cls-2" d="M40.04693,66.82341a3.22546,3.22546,0,0,1-.3001.40013,1.39721,1.39721,0,0,0-.48925.81913.47984.47984,0,0,0,.20068.42045.35787.35787,0,0,0,.42488-.02138.36512.36512,0,0,0,.12378-.21788c.00377-.02268.00946-.06.04-.06s.03624.03734.04.06a.36512.36512,0,0,0,.12378.21788.35787.35787,0,0,0,.42488.02138.47987.47987,0,0,0,.20068-.42045,1.39721,1.39721,0,0,0-.48925-.81913A3.22546,3.22546,0,0,1,40.04693,66.82341Z"/><path class="cls-2" d="M46.94526,66.82341a3.22745,3.22745,0,0,1-.3001.40013,1.39717,1.39717,0,0,0-.48926.81913.47987.47987,0,0,0,.20068.42045.35786.35786,0,0,0,.42488-.02138.36507.36507,0,0,0,.12378-.21788c.00377-.02268.00947-.06.04-.06s.03624.03734.04.06a.36512.36512,0,0,0,.12378.21788.35786.35786,0,0,0,.42488.02138.47987.47987,0,0,0,.20068-.42045,1.39722,1.39722,0,0,0-.48926-.81913A3.22638,3.22638,0,0,1,46.94526,66.82341Z"/><path class="cls-2" d="M37.82952,67.64615a3.22787,3.22787,0,0,1-.30009.40013,1.39715,1.39715,0,0,0-.48926.81912.47987.47987,0,0,0,.20068.42046.35787.35787,0,0,0,.42488-.02139.36509.36509,0,0,0,.12378-.21788c.00377-.02267.00946-.06.04-.06s.03624.03734.04.06a.36509.36509,0,0,0,.12378.21788.35787.35787,0,0,0,.42488.02139.47987.47987,0,0,0,.20068-.42046,1.39713,1.39713,0,0,0-.48925-.81912A3.228,3.228,0,0,1,37.82952,67.64615Z"/><path class="cls-2" d="M49.17673,67.64615a3.229,3.229,0,0,1-.3001.40013,1.3972,1.3972,0,0,0-.48926.81912.4799.4799,0,0,0,.20068.42046.35788.35788,0,0,0,.42489-.02139.36508.36508,0,0,0,.12377-.21788c.00378-.02267.00947-.06.04-.06s.03624.03734.04.06a.36509.36509,0,0,0,.12378.21788.35786.35786,0,0,0,.42488.02139.47987.47987,0,0,0,.20068-.42046,1.39715,1.39715,0,0,0-.48926-.81912A3.22787,3.22787,0,0,1,49.17673,67.64615Z"/><path class="cls-2" d="M35.60508,69.05957a3.227,3.227,0,0,1-.30009.40012,1.3972,1.3972,0,0,0-.48926.81913.47988.47988,0,0,0,.20068.42046.35788.35788,0,0,0,.42488-.02139.36509.36509,0,0,0,.12378-.21788c.00377-.02267.00946-.06.04-.06s.03624.03735.04.06a.36509.36509,0,0,0,.12378.21788.35788.35788,0,0,0,.42488.02139.47988.47988,0,0,0,.20068-.42046,1.39719,1.39719,0,0,0-.48925-.81913A3.2271,3.2271,0,0,1,35.60508,69.05957Z"/><path class="cls-2" d="M51.38007,69.05957a3.227,3.227,0,0,1-.30009.40012,1.3972,1.3972,0,0,0-.48926.81913.47988.47988,0,0,0,.20068.42046.35788.35788,0,0,0,.42488-.02139.36509.36509,0,0,0,.12378-.21788c.00377-.02267.00946-.06.04-.06s.03624.03735.04.06a.36509.36509,0,0,0,.12378.21788.35788.35788,0,0,0,.42488.02139.47988.47988,0,0,0,.20068-.42046,1.39719,1.39719,0,0,0-.48925-.81913A3.2271,3.2271,0,0,1,51.38007,69.05957Z"/><path class="cls-2" d="M43.49256,76.22264a1.46,1.46,0,1,1,1.46-1.46,1.46143,1.46143,0,0,1-1.46,1.46m0,.5a1.96,1.96,0,1,0-1.96-1.96,1.96019,1.96019,0,0,0,1.96,1.96Z"/><path d="M43.49256,70.3474a8.88387,8.88387,0,0,1,8.8739,8.87377h-.5a8.37384,8.37384,0,0,0-16.74768,0h-.5A8.88376,8.88376,0,0,1,43.49256,70.3474Z"/><rect x="43.24256" y="79.29002" width="0.5" height="2.78857"/><rect class="cls-2" x="51.83778" y="71.33286" width="5.57585" height="21.17968" rx="2.78792" transform="translate(109.2514 163.8454) rotate(-180)"/><rect class="cls-2" x="29.57153" y="71.33286" width="5.57585" height="21.17968" rx="2.78792" transform="translate(64.7189 163.8454) rotate(-180)"/><path d="M49.06484,96.31006A2.92831,2.92831,0,0,1,51.851,98.35693v-8.186a2.78593,2.78593,0,0,0-2.78564-2.78614h-.00049A2.78593,2.78593,0,0,0,46.2792,90.1709v8.186A2.92861,2.92861,0,0,1,49.06484,96.31006Z"/><path d="M43.49258,96.31006a2.92923,2.92923,0,0,1,2.78613,2.04687v-8.186a2.78624,2.78624,0,0,0-2.78565-2.78614h-.00048a2.78593,2.78593,0,0,0-2.78565,2.78614v8.186A2.92818,2.92818,0,0,1,43.49258,96.31006Z"/><path d="M37.91982,96.31006A2.92876,2.92876,0,0,1,40.706,98.35693v-8.186a2.78593,2.78593,0,0,0-2.78564-2.78614h-.00049a2.78593,2.78593,0,0,0-2.78564,2.78614v8.186A2.92861,2.92861,0,0,1,37.91982,96.31006Z"/><path d="M30.9362,92.59786A1.57491,1.57491,0,0,0,29.559,93.6885v.00035l-.00035.00035v-.0007a1.57487,1.57487,0,0,0-1.37682-1.09064Z"/><path d="M27.12343,91.82627A1.57489,1.57489,0,0,0,25.66,90.85444l-.00067.00022.00034-.00011-.00045-.00023.00067-.00021a1.57485,1.57485,0,0,0,.61078-1.64684Z"/><path d="M30.24413,86.31728a1.57492,1.57492,0,0,0,1.75561-.06281l.00041-.00057L32,86.25418l.00049-.00007L32,86.25467a1.57488,1.57488,0,0,0,.46311,1.69431Z"/><path d="M31.97983,91.86948a1.57493,1.57493,0,0,1,1.46892-.96353l.00067.00023-.00033-.00012.00044-.00022-.00067-.00022a1.57484,1.57484,0,0,1-.60143-1.65027Z"/><path d="M28.91111,86.30438a1.57491,1.57491,0,0,1-1.7552-.07345l-.00041-.00057.00021.00028-.00049-.00008.00041.00057a1.57485,1.57485,0,0,1-.47338,1.69146Z"/><path class="cls-1" d="M30.75305,87.01753l.261.53064.58367.0851a1.34232,1.34232,0,0,1,.74082,2.28759l-.42235.413.09971.58324A1.33765,1.33765,0,0,1,30.07642,92.331l-.522-.27537-.522.27537a1.33764,1.33764,0,0,1-1.9395-1.41381l.0997-.58324-.42235-.413a1.34232,1.34232,0,0,1,.74083-2.28759l.58366-.0851.261-.53064A1.33475,1.33475,0,0,1,30.75305,87.01753Z"/><path d="M29.55432,86.145a1.45243,1.45243,0,0,1,1.31092.81739l.23193.47143.51868.07568a1.46743,1.46743,0,0,1,.81018,2.50074l-.37549.36718.0885.5188a1.4626,1.4626,0,0,1-2.121,1.54541l-.46375-.24463-.46362.24463a1.46276,1.46276,0,0,1-2.12109-1.54541l.08862-.5188-.37549-.36718a1.46743,1.46743,0,0,1,.81018-2.50074l.51868-.07568.23193-.47143A1.45238,1.45238,0,0,1,29.55432,86.145ZM30.702,92.364a1.22141,1.22141,0,0,0,1.19067-1.42578l-.11072-.64771.46924-.459a1.21724,1.21724,0,0,0-.67151-2.07447l-.6488-.09472-.29-.5896a1.20974,1.20974,0,0,0-2.173,0l-.29.5896-.64881.09472a1.21724,1.21724,0,0,0-.6715,2.07447l.46923.459-.11084.64771A1.21278,1.21278,0,0,0,28.974,92.22044l.58032-.30615.58045.30615A1.21293,1.21293,0,0,0,30.702,92.364Z"/><path class="cls-2" d="M29.55457,90.72215a1.14063,1.14063,0,1,1,1.14013-1.14062,1.142,1.142,0,0,1-1.14013,1.14062m0,.25a1.39063,1.39063,0,1,0-1.39063-1.39062,1.39046,1.39046,0,0,0,1.39063,1.39062Z"/><path d="M36.57874,83.45677h.5a1.71,1.71,0,1,0,3.41992,0h.5a2.21,2.21,0,0,1-4.41992,0Z"/><circle cx="38.78867" cy="84.92502" r="0.64806"/><path d="M45.98657,83.45677h.5a1.71,1.71,0,0,0,3.41993,0h.5a2.21,2.21,0,0,1-4.41993,0Z"/><circle cx="48.19648" cy="84.92502" r="0.64806"/><path class="cls-2" d="M43.49258,93.57617a14.3705,14.3705,0,0,1-1.33626,1.78169c-.93,1.05791-2.13506,2.12953-2.17857,3.6474a2.13681,2.13681,0,0,0,.89359,1.8722,1.59357,1.59357,0,0,0,1.89191-.09522,1.62568,1.62568,0,0,0,.55116-.97018c.01679-.101.04215-.26725.17817-.26725s.16138.16629.17816.26725a1.62569,1.62569,0,0,0,.55117.97018,1.59356,1.59356,0,0,0,1.8919.09522,2.13681,2.13681,0,0,0,.89359-1.8722c-.0435-1.51787-1.24858-2.58949-2.17856-3.6474A14.3695,14.3695,0,0,1,43.49258,93.57617Z"/><path class="cls-2" d="M43.49258,101.03845a3.229,3.229,0,0,1-.3001.40013,1.39723,1.39723,0,0,0-.48926.81912.47987.47987,0,0,0,.20068.42046.35788.35788,0,0,0,.42488-.02138.36507.36507,0,0,0,.12378-.21789c.00377-.02267.00947-.06.04-.06s.03624.03734.04.06a.36512.36512,0,0,0,.12378.21789.35788.35788,0,0,0,.42488.02138.47987.47987,0,0,0,.20068-.42046,1.39718,1.39718,0,0,0-.48926-.81912A3.22787,3.22787,0,0,1,43.49258,101.03845Z"/></g></svg>