<svg xmlns="http://www.w3.org/2000/svg" viewBox="0 0 115 167"><defs><style>.cls-1{fill:#fff;}.cls-2{fill:#ff3b5c;}</style></defs><title>card-hearts-4</title><g id="artwork"><rect class="cls-1" width="115" height="167" rx="8"/><path class="cls-2" d="M16.23288,21.78516H9.46455V20.51488l3.97606-9.98376h1.77631l-4.03931,9.813h5.05527V15.97834h1.62786v4.36579h1.77761v1.441H17.86074v2.73461H16.23288Z"/><path class="cls-2" d="M14.54128,45.24088a25.15043,25.15043,0,0,1,2.33443-3.11895c1.62468-1.85194,3.72992-3.72788,3.80593-6.385a3.74339,3.74339,0,0,0-1.56109-3.27742,2.77941,2.77941,0,0,0-3.30514.1667,2.84721,2.84721,0,0,0-.96287,1.69836c-.02934.17673-.07364.46783-.31126.46783s-.28193-.2911-.31125-.46783a2.84722,2.84722,0,0,0-.96288-1.69836,2.77939,2.77939,0,0,0-3.30513-.1667,3.74342,3.74342,0,0,0-1.56109,3.27742c.076,2.65711,2.18125,4.53305,3.80591,6.385A25.14951,25.14951,0,0,1,14.54128,45.24088Z"/><path class="cls-2" d="M98.767,145.21484h6.76833v1.27287l-3.97606,9.98117H99.783l4.03931-9.81172H98.767v4.3658H97.13917v-4.3658H95.36156v-1.44232h1.77761v-2.73331H98.767Z"/><path class="cls-2" d="M100.45872,121.93623a25.15128,25.15128,0,0,1-2.33443,3.119c-1.62468,1.85194-3.72992,3.72788-3.80593,6.385a3.74339,3.74339,0,0,0,1.56109,3.27741,2.77941,2.77941,0,0,0,3.30514-.16669,2.84721,2.84721,0,0,0,.96287-1.69836c.02934-.17673.07364-.46783.31126-.46783s.28193.2911.31125.46783a2.84722,2.84722,0,0,0,.96288,1.69836,2.77939,2.77939,0,0,0,3.30513.16669,3.74341,3.74341,0,0,0,1.56109-3.27741c-.076-2.65711-2.18125-4.53305-3.80591-6.385A25.15036,25.15036,0,0,1,100.45872,121.93623Z"/><path class="cls-2" d="M36.34942,37.7144A37.72636,37.72636,0,0,1,39.85107,33.036c2.437-2.77791,5.59489-5.59182,5.70889-9.57749a5.61509,5.61509,0,0,0-2.34162-4.91612,4.16912,4.16912,0,0,0-4.95772.25,4.27086,4.27086,0,0,0-1.44431,2.54754c-.044.2651-.11045.70175-.46689.70175s-.42289-.43665-.46687-.70175a4.27088,4.27088,0,0,0-1.44432-2.54754,4.16909,4.16909,0,0,0-4.9577-.25,5.61513,5.61513,0,0,0-2.34163,4.91612c.114,3.98567,3.27187,6.79958,5.70887,9.57749A37.72337,37.72337,0,0,1,36.34942,37.7144Z"/><path class="cls-2" d="M36.34945,129.2856A37.72736,37.72736,0,0,1,32.8478,133.964c-2.437,2.77791-5.59489,5.59182-5.7089,9.57749a5.61513,5.61513,0,0,0,2.34163,4.91612,4.16912,4.16912,0,0,0,4.95772-.25,4.2708,4.2708,0,0,0,1.4443-2.54754c.044-.2651.11046-.70175.4669-.70175s.42289.43665.46686.70175a4.27089,4.27089,0,0,0,1.44433,2.54754,4.16909,4.16909,0,0,0,4.9577.25A5.61509,5.61509,0,0,0,45.56,143.54152c-.114-3.98567-3.27186-6.79958-5.70886-9.57749A37.72238,37.72238,0,0,1,36.34945,129.2856Z"/><path class="cls-2" d="M78.65055,37.7144A37.72736,37.72736,0,0,1,82.1522,33.036c2.437-2.77791,5.59489-5.59182,5.7089-9.57749a5.61513,5.61513,0,0,0-2.34163-4.91612,4.16912,4.16912,0,0,0-4.95772.25,4.2708,4.2708,0,0,0-1.4443,2.54754c-.044.2651-.11046.70175-.4669.70175s-.42289-.43665-.46686-.70175a4.27089,4.27089,0,0,0-1.44433-2.54754,4.16909,4.16909,0,0,0-4.9577-.25A5.61509,5.61509,0,0,0,69.44,23.45848c.114,3.98567,3.27186,6.79958,5.70886,9.57749A37.72238,37.72238,0,0,1,78.65055,37.7144Z"/><path class="cls-2" d="M78.65058,129.2856a37.72636,37.72636,0,0,1-3.50165,4.67843c-2.437,2.77791-5.59489,5.59182-5.70889,9.57749a5.61509,5.61509,0,0,0,2.34162,4.91612,4.16912,4.16912,0,0,0,4.95772-.25,4.27086,4.27086,0,0,0,1.44431-2.54754c.044-.2651.11045-.70175.46689-.70175s.42289.43665.46687.70175a4.27088,4.27088,0,0,0,1.44432,2.54754,4.16909,4.16909,0,0,0,4.9577.25,5.61513,5.61513,0,0,0,2.34163-4.91612c-.114-3.98567-3.27187-6.79958-5.70887-9.57749A37.72337,37.72337,0,0,1,78.65058,129.2856Z"/></g></svg>