<svg xmlns="http://www.w3.org/2000/svg" viewBox="0 0 115 167"><defs><style>.cls-1{fill:#fff;}.cls-2{fill:#ff3b5c;}</style></defs><title>card-hearts-10</title><g id="artwork"><rect class="cls-1" width="115" height="167" rx="8"/><path class="cls-2" d="M36.34942,37.712a37.72884,37.72884,0,0,1,3.50165-4.67867c2.437-2.77806,5.59489-5.59212,5.70889-9.578a5.61551,5.61551,0,0,0-2.34162-4.91639,4.169,4.169,0,0,0-4.95772.25006,4.27115,4.27115,0,0,0-1.44431,2.54768c-.044.26511-.11045.70178-.46689.70178s-.42289-.43667-.46687-.70178A4.27116,4.27116,0,0,0,34.43823,18.789a4.16894,4.16894,0,0,0-4.9577-.25006,5.61554,5.61554,0,0,0-2.34163,4.91639c.114,3.98588,3.27187,6.79994,5.70887,9.578A37.72585,37.72585,0,0,1,36.34942,37.712Z"/><path class="cls-2" d="M78.65055,37.712a37.72984,37.72984,0,0,1,3.50165-4.67867c2.437-2.77806,5.59489-5.59212,5.7089-9.578a5.61554,5.61554,0,0,0-2.34163-4.91639,4.169,4.169,0,0,0-4.95772.25006,4.27108,4.27108,0,0,0-1.4443,2.54768c-.044.26511-.11046.70178-.4669.70178s-.42289-.43667-.46686-.70178A4.27118,4.27118,0,0,0,76.73936,18.789a4.16894,4.16894,0,0,0-4.9577-.25006A5.61551,5.61551,0,0,0,69.44,23.45528c.114,3.98588,3.27186,6.79994,5.70886,9.578A37.72485,37.72485,0,0,1,78.65055,37.712Z"/><path class="cls-2" d="M36.34945,129.28805a37.72984,37.72984,0,0,1-3.50165,4.67867c-2.437,2.77806-5.59489,5.59212-5.7089,9.578a5.61554,5.61554,0,0,0,2.34163,4.91639,4.169,4.169,0,0,0,4.95772-.25006,4.27108,4.27108,0,0,0,1.4443-2.54768c.044-.26511.11046-.70178.4669-.70178s.42289.43667.46686.70178a4.27118,4.27118,0,0,0,1.44433,2.54768,4.16894,4.16894,0,0,0,4.9577.25006A5.61551,5.61551,0,0,0,45.56,143.54472c-.114-3.98588-3.27186-6.79994-5.70886-9.578A37.72485,37.72485,0,0,1,36.34945,129.28805Z"/><path class="cls-2" d="M78.65058,129.28805a37.72884,37.72884,0,0,1-3.50165,4.67867c-2.437,2.77806-5.59489,5.59212-5.70889,9.578a5.61551,5.61551,0,0,0,2.34162,4.91639,4.169,4.169,0,0,0,4.95772-.25006,4.27115,4.27115,0,0,0,1.44431-2.54768c.044-.26511.11045-.70178.46689-.70178s.42289.43667.46687.70178a4.27116,4.27116,0,0,0,1.44432,2.54768,4.16894,4.16894,0,0,0,4.9577.25006,5.61554,5.61554,0,0,0,2.34163-4.91639c-.114-3.98588-3.27187-6.79994-5.70887-9.578A37.72585,37.72585,0,0,1,78.65058,129.28805Z"/><path class="cls-2" d="M36.34942,74.86074a37.72969,37.72969,0,0,1,3.50165-4.67868c2.437-2.77806,5.59489-5.59212,5.70889-9.578a5.6155,5.6155,0,0,0-2.34162-4.91638,4.16894,4.16894,0,0,0-4.95772.25006,4.27112,4.27112,0,0,0-1.44431,2.54767c-.044.26511-.11045.70179-.46689.70179s-.42289-.43668-.46687-.70179a4.27114,4.27114,0,0,0-1.44432-2.54767,4.16891,4.16891,0,0,0-4.9577-.25006,5.61554,5.61554,0,0,0-2.34163,4.91638c.114,3.98588,3.27187,6.79994,5.70887,9.578A37.7267,37.7267,0,0,1,36.34942,74.86074Z"/><path class="cls-2" d="M78.65055,74.86074a37.73069,37.73069,0,0,1,3.50165-4.67868c2.437-2.77806,5.59489-5.59212,5.7089-9.578a5.61554,5.61554,0,0,0-2.34163-4.91638,4.16894,4.16894,0,0,0-4.95772.25006,4.27106,4.27106,0,0,0-1.4443,2.54767c-.044.26511-.11046.70179-.4669.70179s-.42289-.43668-.46686-.70179a4.27115,4.27115,0,0,0-1.44433-2.54767,4.16891,4.16891,0,0,0-4.9577-.25006A5.6155,5.6155,0,0,0,69.44,60.60406c.114,3.98588,3.27186,6.79994,5.70886,9.578A37.7257,37.7257,0,0,1,78.65055,74.86074Z"/><path class="cls-2" d="M78.65058,92.13926a37.72969,37.72969,0,0,1-3.50165,4.67868c-2.437,2.77806-5.59489,5.59212-5.70889,9.578a5.6155,5.6155,0,0,0,2.34162,4.91638,4.16894,4.16894,0,0,0,4.95772-.25006,4.27112,4.27112,0,0,0,1.44431-2.54767c.044-.26511.11045-.70179.46689-.70179s.42289.43668.46687.70179a4.27114,4.27114,0,0,0,1.44432,2.54767,4.16891,4.16891,0,0,0,4.9577.25006,5.61554,5.61554,0,0,0,2.34163-4.91638c-.114-3.98588-3.27187-6.79994-5.70887-9.578A37.7267,37.7267,0,0,1,78.65058,92.13926Z"/><path class="cls-2" d="M36.34945,92.13926a37.73069,37.73069,0,0,1-3.50165,4.67868c-2.437,2.77806-5.59489,5.59212-5.7089,9.578a5.61554,5.61554,0,0,0,2.34163,4.91638,4.16894,4.16894,0,0,0,4.95772-.25006,4.27106,4.27106,0,0,0,1.4443-2.54767c.044-.26511.11046-.70179.4669-.70179s.42289.43668.46686.70179a4.27115,4.27115,0,0,0,1.44433,2.54767,4.16891,4.16891,0,0,0,4.9577.25006A5.6155,5.6155,0,0,0,45.56,106.39594c-.114-3.98588-3.27186-6.79994-5.70886-9.578A37.7257,37.7257,0,0,1,36.34945,92.13926Z"/><path class="cls-2" d="M57.5,56.344a37.73069,37.73069,0,0,1,3.50165-4.67868c2.437-2.77806,5.59489-5.59212,5.7089-9.578a5.61551,5.61551,0,0,0-2.34163-4.91638,4.16894,4.16894,0,0,0-4.95772.25006,4.27111,4.27111,0,0,0-1.4443,2.54767c-.044.26511-.11045.70179-.4669.70179s-.42288-.43668-.46686-.70179A4.2711,4.2711,0,0,0,55.58879,37.421a4.1689,4.1689,0,0,0-4.95769-.25006,5.61551,5.61551,0,0,0-2.34163,4.91638c.114,3.98588,3.27187,6.79994,5.70887,9.578A37.72662,37.72662,0,0,1,57.5,56.344Z"/><path class="cls-2" d="M57.5,110.65605a37.73069,37.73069,0,0,1-3.50165,4.67868c-2.437,2.77806-5.59489,5.59212-5.7089,9.578a5.61551,5.61551,0,0,0,2.34163,4.91638,4.16894,4.16894,0,0,0,4.95772-.25006,4.27111,4.27111,0,0,0,1.4443-2.54767c.044-.26511.11045-.70179.4669-.70179s.42288.43668.46686.70179a4.2711,4.2711,0,0,0,1.44433,2.54767,4.1689,4.1689,0,0,0,4.95769.25006,5.61551,5.61551,0,0,0,2.34163-4.91638c-.114-3.98588-3.27187-6.79994-5.70887-9.578A37.72662,37.72662,0,0,1,57.5,110.65605Z"/><path class="cls-2" d="M14.5404,45.23821a25.15318,25.15318,0,0,1,2.33443-3.11912c1.62469-1.852,3.72993-3.72808,3.80593-6.38533a3.74368,3.74368,0,0,0-1.56108-3.27759,2.7793,2.7793,0,0,0-3.30515.16671,2.84737,2.84737,0,0,0-.96287,1.69845c-.02933.17674-.07363.46785-.31126.46785s-.28193-.29111-.31124-.46785a2.8474,2.8474,0,0,0-.96289-1.69845,2.77927,2.77927,0,0,0-3.30513-.16671,3.74368,3.74368,0,0,0-1.56108,3.27759c.076,2.65725,2.18124,4.53329,3.80591,6.38533A25.15119,25.15119,0,0,1,14.5404,45.23821Z"/><path class="cls-2" d="M100.45785,121.93765a25.15344,25.15344,0,0,1-2.33443,3.11912c-1.62469,1.852-3.72993,3.72808-3.80594,6.38533a3.74369,3.74369,0,0,0,1.56109,3.27759,2.7793,2.7793,0,0,0,3.30515-.1667,2.84748,2.84748,0,0,0,.96287-1.69845c.02933-.17674.07363-.46786.31126-.46786s.28192.29112.31124.46786a2.84746,2.84746,0,0,0,.96289,1.69845,2.77927,2.77927,0,0,0,3.30513.1667,3.74366,3.74366,0,0,0,1.56108-3.27759c-.076-2.65725-2.18124-4.53329-3.80591-6.38533A25.14945,25.14945,0,0,1,100.45785,121.93765Z"/><path class="cls-2" d="M9.82089,12.35,6.22566,14.72379l-.741-1.22895,4.44208-2.96761H11.45V24.51662H9.82089Z"/><path class="cls-2" d="M15.621,24.02892A4.23475,4.23475,0,0,1,13.939,21.73918a13.01116,13.01116,0,0,1-.56027-4.21725,13.01975,13.01975,0,0,1,.56027-4.21855,4.28325,4.28325,0,0,1,1.68208-2.2988,5.24892,5.24892,0,0,1,2.85553-.7102,4.46519,4.46519,0,0,1,3.8276,1.674q1.249,1.67462,1.24832,5.55359a13.01119,13.01119,0,0,1-.56026,4.21725,4.23475,4.23475,0,0,1-1.68208,2.28974,5.27093,5.27093,0,0,1-2.83358.69856A5.31734,5.31734,0,0,1,15.621,24.02892Zm4.801-1.282a3.24609,3.24609,0,0,0,1.09987-1.802,12.95522,12.95522,0,0,0,.35888-3.423,12.95535,12.95535,0,0,0-.35888-3.423,3.246,3.246,0,0,0-1.09987-1.802,3.228,3.228,0,0,0-1.94542-.54074,3.22536,3.22536,0,0,0-1.94543.54074,3.23188,3.23188,0,0,0-1.09987,1.802,12.94781,12.94781,0,0,0-.36017,3.423,12.94767,12.94767,0,0,0,.36017,3.423,3.23194,3.23194,0,0,0,1.09987,1.802,3.22512,3.22512,0,0,0,1.94543.53944A3.22778,3.22778,0,0,0,20.422,22.74693Z"/><path class="cls-2" d="M105.17911,154.65l3.59523-2.37382.741,1.22895-4.44208,2.96761H103.55V142.48338h1.62915Z"/><path class="cls-2" d="M99.379,142.97108a4.23475,4.23475,0,0,1,1.68208,2.28974,16.157,16.157,0,0,1,0,8.4358,4.28325,4.28325,0,0,1-1.68208,2.2988,5.24892,5.24892,0,0,1-2.85553.7102,4.46519,4.46519,0,0,1-3.8276-1.674q-1.249-1.67462-1.24832-5.55359a13.01119,13.01119,0,0,1,.56026-4.21725,4.23475,4.23475,0,0,1,1.68208-2.28974,6.14076,6.14076,0,0,1,5.68911,0Zm-4.80095,1.282a3.24609,3.24609,0,0,0-1.09987,1.802,16.50341,16.50341,0,0,0,0,6.84593,3.10817,3.10817,0,0,0,6.09059,0,16.44558,16.44558,0,0,0,0-6.84593,3.31961,3.31961,0,0,0-4.99072-1.802Z"/></g></svg>