<svg xmlns="http://www.w3.org/2000/svg" viewBox="0 0 87 127"><defs><style>.cls-1{fill:#fff;}.cls-2{fill:#ff3b5c;}</style></defs><title>card-spades-q</title><g id="artwork"><rect class="cls-1" x="0.00232" width="86.99536" height="127" rx="6"/><path d="M15.25994,29.67243c-.41269-1.29959-1.61352-2.02693-2.55433-2.91269a8.2902,8.2902,0,0,1-1.7057-2.279,8.2902,8.2902,0,0,1-1.7057,2.279c-.94081.88576-2.14162,1.6131-2.55431,2.91269a2.73477,2.73477,0,0,0,1.41833,3.38816,1.97619,1.97619,0,0,0,2.29761-.48932,1.58043,1.58043,0,0,0,.28942-.568,2.4838,2.4838,0,0,1-.40854,1.50152,2.44765,2.44765,0,0,1-.66312.66457v.33238h2.65262v-.33238a2.44776,2.44776,0,0,1-.66315-.66457,2.48382,2.48382,0,0,1-.40853-1.50159,1.58046,1.58046,0,0,0,.28944.56808,1.97617,1.97617,0,0,0,2.29761.48932A2.7348,2.7348,0,0,0,15.25994,29.67243Z"/><path d="M12.34277,18.89681a5.22482,5.22482,0,0,1-1.34375.14385,4.89266,4.89266,0,0,1-2.59961-.593A3.26567,3.26567,0,0,1,7.03906,16.6279a10.5756,10.5756,0,0,1-.40723-3.24655,10.61863,10.61863,0,0,1,.415-3.26269,3.40324,3.40324,0,0,1,1.376-1.876A4.7118,4.7118,0,0,1,10.999,7.62515a4.70954,4.70954,0,0,1,2.57617.61751,3.43291,3.43291,0,0,1,1.38379,1.876,10.43849,10.43849,0,0,1,.4248,3.26269A10.30552,10.30552,0,0,1,14.959,16.668a3.2023,3.2023,0,0,1-1.416,1.79575l1.36035,2.1965-1.15234.54508Zm.55273-1.395a2.42078,2.42078,0,0,0,.93555-1.419,10.29846,10.29846,0,0,0,.27246-2.66966,10.51268,10.51268,0,0,0-.28027-2.70928,2.64682,2.64682,0,0,0-.95215-1.49924,3.13214,3.13214,0,0,0-1.87207-.4893,3.17387,3.17387,0,0,0-1.87207.481,2.61271,2.61271,0,0,0-.95215,1.49092,10.44714,10.44714,0,0,0-.2793,2.69412A10.42115,10.42115,0,0,0,8.167,16.051a2.43589,2.43589,0,0,0,.95214,1.44248,3.36916,3.36916,0,0,0,1.89551.457A3.34156,3.34156,0,0,0,12.8955,17.5018Z"/><path d="M71.74006,97.32794c.41269,1.29959,1.61352,2.02693,2.55433,2.91269a8.29005,8.29005,0,0,1,1.7057,2.279,8.29005,8.29005,0,0,1,1.7057-2.279c.94081-.88576,2.14162-1.6131,2.55431-2.91269a2.73479,2.73479,0,0,0-1.41833-3.38817,1.97621,1.97621,0,0,0-2.29761.48933,1.58047,1.58047,0,0,0-.28942.568,2.48379,2.48379,0,0,1,.40854-1.50151,2.44765,2.44765,0,0,1,.66312-.66457v-.33238H74.67378V92.831a2.44776,2.44776,0,0,1,.66315.66457,2.4838,2.4838,0,0,1,.40853,1.50159,1.58046,1.58046,0,0,0-.28944-.56808,1.97619,1.97619,0,0,0-2.29761-.48933A2.73482,2.73482,0,0,0,71.74006,97.32794Z"/><path d="M74.65722,108.10319a5.22482,5.22482,0,0,1,1.34375-.14385,4.89271,4.89271,0,0,1,2.59961.593,3.26516,3.26516,0,0,1,1.36035,1.82021,13.08983,13.08983,0,0,1-.00781,6.50973,3.41018,3.41018,0,0,1-1.376,1.876,5.69053,5.69053,0,0,1-5.15234,0,3.43993,3.43993,0,0,1-1.38379-1.876,10.44489,10.44489,0,0,1-.4248-3.26269,10.30885,10.30885,0,0,1,.4248-3.28716,3.2023,3.2023,0,0,1,1.416-1.79575l-1.36036-2.1965,1.15235-.54557Zm-.55273,1.3955a2.42228,2.42228,0,0,0-.93555,1.419,10.301,10.301,0,0,0-.27246,2.66966,10.51424,10.51424,0,0,0,.28027,2.70977,2.64848,2.64848,0,0,0,.95215,1.49924,3.13223,3.13223,0,0,0,1.87207.48832,3.17752,3.17752,0,0,0,1.87207-.48049,2.61567,2.61567,0,0,0,.95215-1.49141A13.192,13.192,0,0,0,78.833,110.95a2.43984,2.43984,0,0,0-.95215-1.44346,4.16093,4.16093,0,0,0-3.77636-.00783Z"/><path d="M37.92862,36.74718a2.92831,2.92831,0,0,0-2.78613,2.04687V32.608a2.78593,2.78593,0,0,1,2.78564-2.78614h.00049A2.78593,2.78593,0,0,1,40.71427,32.608v6.186A2.92864,2.92864,0,0,0,37.92862,36.74718Z"/><path d="M43.50089,36.74718a2.92922,2.92922,0,0,0-2.78613,2.04687V32.608a2.78624,2.78624,0,0,1,2.78564-2.78614h.00049A2.78593,2.78593,0,0,1,46.28653,32.608v6.186A2.92816,2.92816,0,0,0,43.50089,36.74718Z"/><path d="M49.07364,36.74718a2.92876,2.92876,0,0,0-2.78613,2.04687V32.608a2.78593,2.78593,0,0,1,2.78564-2.78614h.00049A2.78593,2.78593,0,0,1,51.85929,32.608v6.186A2.92864,2.92864,0,0,0,49.07364,36.74718Z"/><path d="M39.11289,59.27755c-.06135.19279-.23986.30068-.37971.43208a1.22988,1.22988,0,0,0-.25356.33807,1.22988,1.22988,0,0,0-.25356-.33807c-.13985-.1314-.31836-.23929-.3797-.43208a.40535.40535,0,0,1,.21083-.5026.29418.29418,0,0,1,.34155.07259.23425.23425,0,0,1,.043.08425.36773.36773,0,0,0-.06073-.22273.36338.36338,0,0,0-.09857-.09859v-.0493h.39432v.0493a.36328.36328,0,0,0-.09858.09859.36792.36792,0,0,0-.06073.22274.23424.23424,0,0,1,.043-.08426A.29417.29417,0,0,1,38.902,58.775.40536.40536,0,0,1,39.11289,59.27755Z"/><path d="M49.15542,59.27755c-.06134.19279-.23985.30068-.37971.43208a1.23,1.23,0,0,0-.25355.33807,1.22988,1.22988,0,0,0-.25356-.33807c-.13986-.1314-.31836-.23929-.37971-.43208a.40537.40537,0,0,1,.21084-.5026.29419.29419,0,0,1,.34155.07259.23425.23425,0,0,1,.043.08425.36787.36787,0,0,0-.06073-.22273.36328.36328,0,0,0-.09858-.09859v-.0493h.39433v.0493a.36328.36328,0,0,0-.09858.09859.36778.36778,0,0,0-.06073.22274.23421.23421,0,0,1,.043-.08426.29418.29418,0,0,1,.34155-.07259A.40537.40537,0,0,1,49.15542,59.27755Z"/><path d="M41.075,59.93159c-.06134.19278-.23985.30067-.37971.43207a1.23019,1.23019,0,0,0-.25355.33807,1.23,1.23,0,0,0-.25356-.33807c-.13986-.1314-.31836-.23929-.37971-.43207a.40538.40538,0,0,1,.21084-.50261.2942.2942,0,0,1,.34155.07259.23421.23421,0,0,1,.043.08426.36783.36783,0,0,0-.06073-.22274.36335.36335,0,0,0-.09857-.09858V59.2152h.39432v.04931a.36324.36324,0,0,0-.09858.09858.36779.36779,0,0,0-.06073.22275.23426.23426,0,0,1,.043-.08427.2942.2942,0,0,1,.34155-.07259A.40537.40537,0,0,1,41.075,59.93159Z"/><path d="M47.19333,59.93159c-.06135.19278-.23986.30067-.37971.43207a1.23,1.23,0,0,0-.25356.33807,1.23,1.23,0,0,0-.25356-.33807c-.13985-.1314-.31836-.23929-.37971-.43207a.40538.40538,0,0,1,.21084-.50261.2942.2942,0,0,1,.34155.07259.23421.23421,0,0,1,.043.08426.36783.36783,0,0,0-.06073-.22274.36335.36335,0,0,0-.09857-.09858V59.2152h.39432v.04931a.36324.36324,0,0,0-.09858.09858.36786.36786,0,0,0-.06073.22275.23412.23412,0,0,1,.043-.08427.29418.29418,0,0,1,.34154-.07259A.40538.40538,0,0,1,47.19333,59.93159Z"/><path d="M37.15079,57.96949c-.06135.19278-.23986.30068-.37971.43207a1.23,1.23,0,0,0-.25356.33807,1.23,1.23,0,0,0-.25356-.33807c-.13985-.13139-.31835-.23929-.3797-.43207a.40537.40537,0,0,1,.21084-.50261.29418.29418,0,0,1,.34154.07259.23424.23424,0,0,1,.043.08426.3679.3679,0,0,0-.06073-.22274.36338.36338,0,0,0-.09858-.09858V57.2531h.39432v.04931a.36352.36352,0,0,0-.09858.09858.36793.36793,0,0,0-.06073.22275.23444.23444,0,0,1,.043-.08427.2942.2942,0,0,1,.34155-.07259A.40538.40538,0,0,1,37.15079,57.96949Z"/><path d="M51.11752,57.96949c-.06135.19278-.23986.30068-.37971.43207a1.23,1.23,0,0,0-.25356.33807,1.23019,1.23019,0,0,0-.25355-.33807c-.13986-.13139-.31836-.23929-.37971-.43207a.40537.40537,0,0,1,.21084-.50261.29418.29418,0,0,1,.34154.07259.23424.23424,0,0,1,.043.08426.3679.3679,0,0,0-.06073-.22274.36338.36338,0,0,0-.09858-.09858V57.2531h.39432v.04931a.36366.36366,0,0,0-.09858.09858.36793.36793,0,0,0-.06073.22275.23444.23444,0,0,1,.043-.08427.2942.2942,0,0,1,.34155-.07259A.40538.40538,0,0,1,51.11752,57.96949Z"/><path d="M45.16171,61.48228c-.1609.5056-.629.78856-.99584,1.13316a3.226,3.226,0,0,0-.665.88664,3.226,3.226,0,0,0-.665-.88664c-.36678-.3446-.83493-.62756-.99582-1.13316a1.06312,1.06312,0,0,1,.553-1.31815.77156.77156,0,0,1,.89574.19037.61443.61443,0,0,1,.11284.221.96483.96483,0,0,0-.15927-.58416.95336.95336,0,0,0-.25853-.25854v-.12931H44.018v.12931a.95322.95322,0,0,0-.25853.25854.96478.96478,0,0,0-.15927.58419.61424.61424,0,0,1,.11284-.221.77156.77156,0,0,1,.89575-.19037A1.06316,1.06316,0,0,1,45.16171,61.48228Z"/><rect x="29.5619" y="36.0717" width="5.57585" height="23.18901" rx="2.78792"/><rect x="51.86403" y="36.0717" width="5.57585" height="23.18901" rx="2.78792"/><path d="M43.50093,56.002a8.88387,8.88387,0,0,1-8.8739-8.87378h.5a8.37384,8.37384,0,0,0,16.74768,0h.5A8.88376,8.88376,0,0,1,43.50093,56.002Z"/><rect x="43.25093" y="44.77303" width="0.5" height="2.74585"/><rect x="35.75972" y="42.24129" width="4.23633" height="0.5"/><rect x="47.0057" y="42.24129" width="4.23633" height="0.5"/><circle cx="49.13547" cy="42.49128" r="1.11964"/><circle cx="37.88379" cy="42.49128" r="1.11964"/><rect class="cls-2" x="41.15865" y="51.17806" width="4.68445" height="0.5"/><path class="cls-2" d="M37.92862,28.92412a2.92831,2.92831,0,0,1-2.78613-2.04687v6.186a2.78593,2.78593,0,0,0,2.78564,2.78613h.00049a2.78593,2.78593,0,0,0,2.78565-2.78613v-6.186A2.92864,2.92864,0,0,1,37.92862,28.92412Z"/><path class="cls-2" d="M43.50089,28.92412a2.92922,2.92922,0,0,1-2.78613-2.04687v6.186a2.78623,2.78623,0,0,0,2.78564,2.78613h.00049a2.78593,2.78593,0,0,0,2.78564-2.78613v-6.186A2.92816,2.92816,0,0,1,43.50089,28.92412Z"/><path class="cls-2" d="M49.07364,28.92412a2.92876,2.92876,0,0,1-2.78613-2.04687v6.186a2.78593,2.78593,0,0,0,2.78564,2.78613h.00049a2.78593,2.78593,0,0,0,2.78565-2.78613v-6.186A2.92864,2.92864,0,0,1,49.07364,28.92412Z"/><path d="M39.86484,27.201c.35224-1.10691,1.37719-1.72641,2.18019-2.48085A7.06209,7.06209,0,0,0,43.50089,22.779a7.06249,7.06249,0,0,0,1.45586,1.94112c.803.75444,1.82793,1.37394,2.18018,2.48085a2.32753,2.32753,0,0,1-1.21058,2.88584A1.68919,1.68919,0,0,1,43.96527,29.67a1.345,1.345,0,0,1-.247-.48379,2.11221,2.11221,0,0,0,.34869,1.2789,2.08683,2.08683,0,0,0,.566.566v.2831H42.36885v-.2831a2.0869,2.0869,0,0,0,.566-.566,2.11218,2.11218,0,0,0,.34869-1.279,1.34524,1.34524,0,0,1-.24705.48385,1.68916,1.68916,0,0,1-1.96107.41678A2.32755,2.32755,0,0,1,39.86484,27.201Z"/><path d="M47.90035,32.64073c.12023-.37781.47007-.58927.74416-.84678a2.41039,2.41039,0,0,0,.49692-.66255,2.41059,2.41059,0,0,0,.49692.66255c.27409.25751.62392.469.74415.84678a.79443.79443,0,0,1-.4132.985.57654.57654,0,0,1-.66936-.14225.45913.45913,0,0,1-.08432-.16513.721.721,0,0,0,.119.43652.71224.71224,0,0,0,.19319.1932v.09663H48.755v-.09663a.71238.71238,0,0,0,.19319-.1932.721.721,0,0,0,.119-.43655.4591.4591,0,0,1-.08432.16516.57655.57655,0,0,1-.66937.14225A.79445.79445,0,0,1,47.90035,32.64073Z"/><path d="M36.61927,32.64073c.12023-.37781.47007-.58927.74416-.84678a2.41059,2.41059,0,0,0,.49692-.66255,2.41039,2.41039,0,0,0,.49692.66255c.27409.25751.62392.469.74415.84678a.79443.79443,0,0,1-.4132.985.57656.57656,0,0,1-.66937-.14225.45926.45926,0,0,1-.08431-.16513.721.721,0,0,0,.119.43652.71252.71252,0,0,0,.19319.1932v.09663H37.474v-.09663a.71228.71228,0,0,0,.1932-.1932.721.721,0,0,0,.119-.43655.45928.45928,0,0,1-.08433.16516.57654.57654,0,0,1-.66936.14225A.79445.79445,0,0,1,36.61927,32.64073Z"/><path class="cls-2" d="M28.17484,35.95644A1.57492,1.57492,0,0,0,29.552,34.8658v-.00035l.00035-.00035v.0007a1.57484,1.57484,0,0,0,1.37682,1.09064Z"/><path class="cls-2" d="M31.98761,36.728a1.57491,1.57491,0,0,0,1.46344.97183l.00066-.00022-.00033.00011.00044.00023-.00067.00022a1.57483,1.57483,0,0,0-.61077,1.64684Z"/><path class="cls-2" d="M28.86691,42.237a1.57489,1.57489,0,0,0-1.7556.06282l-.00042.00056.00021-.00028-.00049.00007.00041-.00056a1.57484,1.57484,0,0,0-.46311-1.6943Z"/><path class="cls-2" d="M27.13121,36.68482a1.57491,1.57491,0,0,1-1.46892.96353l-.00066-.00022.00033.00011-.00045.00022.00067.00022a1.57485,1.57485,0,0,1,.60144,1.65028Z"/><path class="cls-2" d="M30.19994,42.24992a1.57488,1.57488,0,0,1,1.75519.07346l.00042.00056-.00021-.00028.00049.00008-.00041-.00057a1.57483,1.57483,0,0,1,.47337-1.69146Z"/><path class="cls-1" d="M28.358,41.53678l-.261-.53065-.58367-.0851a1.34232,1.34232,0,0,1-.74082-2.28759l.42234-.413-.0997-.58324a1.33764,1.33764,0,0,1,1.9395-1.41381l.52205.27537.52205-.27537a1.33764,1.33764,0,0,1,1.9395,1.41381l-.0997.58324.42234.413A1.34232,1.34232,0,0,1,31.6,40.921l-.58367.0851-.261.53065A1.33476,1.33476,0,0,1,28.358,41.53678Z"/><path d="M29.55672,42.40926a1.45242,1.45242,0,0,1-1.31091-.81739l-.23194-.47143-.51867-.07569A1.46745,1.46745,0,0,1,26.685,38.544l.37548-.36719L26.972,37.658a1.4626,1.4626,0,0,1,2.121-1.54541l.46374.24462.46362-.24462a1.46276,1.46276,0,0,1,2.1211,1.54541l-.08863.51879.37549.36719a1.46736,1.46736,0,0,1-.81018,2.50073l-.51867.07569-.23194.47143A1.45239,1.45239,0,0,1,29.55672,42.40926Zm-1.1477-6.219A1.22141,1.22141,0,0,0,27.21834,37.616l.11072.64771-.46924.459a1.21727,1.21727,0,0,0,.67151,2.07447l.6488.09472.29.5896a1.20975,1.20975,0,0,0,2.173,0l.29-.5896.6488-.09472a1.21727,1.21727,0,0,0,.67151-2.07447l-.46924-.459.11084-.64771A1.21277,1.21277,0,0,0,30.137,36.33382l-.58032.30615-.58044-.30615A1.213,1.213,0,0,0,28.409,36.19026Z"/><path class="cls-2" d="M29.55648,37.83235a1.14038,1.14038,0,1,1-1.14014,1.14014,1.14155,1.14155,0,0,1,1.14014-1.14014m0-.25a1.39038,1.39038,0,1,0,1.39062,1.39014,1.39036,1.39036,0,0,0-1.39062-1.39014Z"/><path d="M49.07138,90.25282A2.92831,2.92831,0,0,0,51.85751,88.206v6.186a2.78593,2.78593,0,0,1-2.78564,2.78614h-.00049A2.78593,2.78593,0,0,1,46.28573,94.392V88.206A2.92864,2.92864,0,0,0,49.07138,90.25282Z"/><path d="M43.49911,90.25282A2.92922,2.92922,0,0,0,46.28524,88.206v6.186a2.78624,2.78624,0,0,1-2.78564,2.78614h-.00049A2.78593,2.78593,0,0,1,40.71347,94.392V88.206A2.92816,2.92816,0,0,0,43.49911,90.25282Z"/><path d="M37.92636,90.25282A2.92876,2.92876,0,0,0,40.71249,88.206v6.186a2.78593,2.78593,0,0,1-2.78564,2.78614h-.00049A2.78593,2.78593,0,0,1,35.14071,94.392V88.206A2.92864,2.92864,0,0,0,37.92636,90.25282Z"/><path d="M47.88711,67.72245c.06135-.19279.23986-.30068.37971-.43208a1.22988,1.22988,0,0,0,.25356-.33807,1.22988,1.22988,0,0,0,.25356.33807c.13985.1314.31836.23929.3797.43208a.40535.40535,0,0,1-.21083.5026.29418.29418,0,0,1-.34155-.07259.23425.23425,0,0,1-.043-.08425.36773.36773,0,0,0,.06073.22273.36338.36338,0,0,0,.09857.09859v.0493h-.39432v-.0493a.36328.36328,0,0,0,.09858-.09859.36792.36792,0,0,0,.06073-.22274.23424.23424,0,0,1-.043.08426.29417.29417,0,0,1-.34154.07259A.40536.40536,0,0,1,47.88711,67.72245Z"/><path d="M37.84458,67.72245c.06134-.19279.23985-.30068.37971-.43208a1.23,1.23,0,0,0,.25355-.33807,1.22988,1.22988,0,0,0,.25356.33807c.13986.1314.31836.23929.37971.43208a.40537.40537,0,0,1-.21084.5026.29419.29419,0,0,1-.34155-.07259.23425.23425,0,0,1-.043-.08425.36787.36787,0,0,0,.06073.22273.36328.36328,0,0,0,.09858.09859v.0493h-.39433v-.0493a.36328.36328,0,0,0,.09858-.09859A.36778.36778,0,0,0,38.44,68.0682a.23421.23421,0,0,1-.043.08426.29418.29418,0,0,1-.34155.07259A.40537.40537,0,0,1,37.84458,67.72245Z"/><path d="M45.925,67.06841c.06134-.19278.23985-.30067.37971-.43207a1.23019,1.23019,0,0,0,.25355-.33807,1.23,1.23,0,0,0,.25356.33807c.13986.1314.31836.23929.37971.43207a.40538.40538,0,0,1-.21084.50261.2942.2942,0,0,1-.34155-.07259.23421.23421,0,0,1-.043-.08426.36783.36783,0,0,0,.06073.22274.36335.36335,0,0,0,.09857.09858v.04931h-.39432v-.04931a.36324.36324,0,0,0,.09858-.09858.36779.36779,0,0,0,.06073-.22275.23426.23426,0,0,1-.043.08427.2942.2942,0,0,1-.34155.07259A.40537.40537,0,0,1,45.925,67.06841Z"/><path d="M39.80667,67.06841c.06135-.19278.23986-.30067.37971-.43207a1.23,1.23,0,0,0,.25356-.33807,1.23,1.23,0,0,0,.25356.33807c.13985.1314.31836.23929.37971.43207a.40538.40538,0,0,1-.21084.50261.2942.2942,0,0,1-.34155-.07259.23421.23421,0,0,1-.043-.08426.36783.36783,0,0,0,.06073.22274.36335.36335,0,0,0,.09857.09858v.04931h-.39432v-.04931a.36324.36324,0,0,0,.09858-.09858.36786.36786,0,0,0,.06073-.22275.23412.23412,0,0,1-.043.08427.29418.29418,0,0,1-.34154.07259A.40538.40538,0,0,1,39.80667,67.06841Z"/><path d="M49.84921,69.03051c.06135-.19278.23986-.30068.37971-.43207a1.23,1.23,0,0,0,.25356-.33807,1.23,1.23,0,0,0,.25356.33807c.13985.13139.31835.23929.3797.43207a.40537.40537,0,0,1-.21084.50261.29418.29418,0,0,1-.34154-.07259.23424.23424,0,0,1-.043-.08426.3679.3679,0,0,0,.06073.22274.36338.36338,0,0,0,.09858.09858v.04931h-.39432v-.04931a.36352.36352,0,0,0,.09858-.09858.36793.36793,0,0,0,.06073-.22275.23444.23444,0,0,1-.043.08427.2942.2942,0,0,1-.34155.07259A.40538.40538,0,0,1,49.84921,69.03051Z"/><path d="M35.88248,69.03051c.06135-.19278.23986-.30068.37971-.43207a1.23,1.23,0,0,0,.25356-.33807,1.23019,1.23019,0,0,0,.25355.33807c.13986.13139.31836.23929.37971.43207a.40537.40537,0,0,1-.21084.50261.29418.29418,0,0,1-.34154-.07259.23424.23424,0,0,1-.043-.08426.3679.3679,0,0,0,.06073.22274.36338.36338,0,0,0,.09858.09858v.04931h-.39432v-.04931a.36366.36366,0,0,0,.09858-.09858.36793.36793,0,0,0,.06073-.22275.23444.23444,0,0,1-.043.08427.2942.2942,0,0,1-.34155.07259A.40538.40538,0,0,1,35.88248,69.03051Z"/><path d="M41.83829,65.51772c.1609-.5056.629-.78856.99584-1.13316a3.226,3.226,0,0,0,.665-.88664,3.226,3.226,0,0,0,.665.88664c.36678.3446.83493.62756.99582,1.13316a1.06312,1.06312,0,0,1-.553,1.31815.77156.77156,0,0,1-.89574-.19037.61443.61443,0,0,1-.11284-.221.96483.96483,0,0,0,.15927.58416.95336.95336,0,0,0,.25853.25854v.12931H42.982v-.12931a.95322.95322,0,0,0,.25853-.25854.96478.96478,0,0,0,.15927-.58419.61424.61424,0,0,1-.11284.221.77156.77156,0,0,1-.89575.19037A1.06316,1.06316,0,0,1,41.83829,65.51772Z"/><rect x="51.86225" y="67.7393" width="5.57585" height="23.18901" rx="2.78792" transform="translate(109.30035 158.6676) rotate(-180)"/><rect x="29.56012" y="67.7393" width="5.57585" height="23.18901" rx="2.78792" transform="translate(64.6961 158.6676) rotate(180)"/><path d="M43.49907,70.998a8.88387,8.88387,0,0,1,8.8739,8.87378h-.5a8.37384,8.37384,0,0,0-16.74768,0h-.5A8.88376,8.88376,0,0,1,43.49907,70.998Z"/><rect x="43.24907" y="79.48112" width="0.5" height="2.74585"/><rect x="47.00395" y="84.25871" width="4.23633" height="0.5"/><rect x="35.75798" y="84.25871" width="4.23633" height="0.5"/><circle cx="37.86453" cy="84.50872" r="1.11964"/><circle cx="49.11621" cy="84.50872" r="1.11964"/><rect class="cls-2" x="41.1569" y="75.32194" width="4.68445" height="0.5"/><path class="cls-2" d="M49.07138,98.07588a2.92831,2.92831,0,0,1,2.78613,2.04687v-6.186a2.78593,2.78593,0,0,0-2.78564-2.78613h-.00049a2.78593,2.78593,0,0,0-2.78565,2.78613v6.186A2.92864,2.92864,0,0,1,49.07138,98.07588Z"/><path class="cls-2" d="M43.49911,98.07588a2.92922,2.92922,0,0,1,2.78613,2.04687v-6.186a2.78623,2.78623,0,0,0-2.78564-2.78613h-.00049a2.78593,2.78593,0,0,0-2.78564,2.78613v6.186A2.92816,2.92816,0,0,1,43.49911,98.07588Z"/><path class="cls-2" d="M37.92636,98.07588a2.92876,2.92876,0,0,1,2.78613,2.04687v-6.186a2.78593,2.78593,0,0,0-2.78564-2.78613h-.00049a2.78593,2.78593,0,0,0-2.78565,2.78613v6.186A2.92864,2.92864,0,0,1,37.92636,98.07588Z"/><path d="M47.13516,99.799c-.35224,1.10691-1.37719,1.72641-2.18019,2.48085a7.06209,7.06209,0,0,0-1.45586,1.94112,7.06249,7.06249,0,0,0-1.45586-1.94112c-.803-.75444-1.82793-1.37394-2.18018-2.48085a2.32753,2.32753,0,0,1,1.21058-2.88584,1.68919,1.68919,0,0,1,1.96108.41678,1.345,1.345,0,0,1,.247.48379,2.11221,2.11221,0,0,0-.34869-1.2789,2.08683,2.08683,0,0,0-.566-.566v-.2831h2.26409v.2831a2.0869,2.0869,0,0,0-.566.566,2.11218,2.11218,0,0,0-.34869,1.279,1.34524,1.34524,0,0,1,.24705-.48385,1.68916,1.68916,0,0,1,1.96107-.41678A2.32755,2.32755,0,0,1,47.13516,99.799Z"/><path d="M39.09965,94.35927c-.12023.37781-.47007.58927-.74416.84678a2.41039,2.41039,0,0,0-.49692.66255,2.41059,2.41059,0,0,0-.49692-.66255c-.27409-.25751-.62392-.469-.74415-.84678a.79443.79443,0,0,1,.4132-.985.57654.57654,0,0,1,.66936.14225.45913.45913,0,0,1,.08432.16513.721.721,0,0,0-.119-.43652.71224.71224,0,0,0-.19319-.1932v-.09663H38.245v.09663a.71238.71238,0,0,0-.19319.1932.721.721,0,0,0-.119.43655.4591.4591,0,0,1,.08432-.16516.57655.57655,0,0,1,.66937-.14225A.79445.79445,0,0,1,39.09965,94.35927Z"/><path d="M50.38073,94.35927c-.12023.37781-.47007.58927-.74416.84678a2.41059,2.41059,0,0,0-.49692.66255,2.41039,2.41039,0,0,0-.49692-.66255c-.27409-.25751-.62392-.469-.74415-.84678a.79443.79443,0,0,1,.4132-.985.57656.57656,0,0,1,.66937.14225.45926.45926,0,0,1,.08431.16513.721.721,0,0,0-.119-.43652.71252.71252,0,0,0-.19319-.1932v-.09663h.77279v.09663a.71228.71228,0,0,0-.1932.1932.721.721,0,0,0-.119.43655.45928.45928,0,0,1,.08433-.16516.57654.57654,0,0,1,.66936-.14225A.79445.79445,0,0,1,50.38073,94.35927Z"/><path class="cls-2" d="M58.82516,91.04356A1.57492,1.57492,0,0,0,57.448,92.1342v.00035l-.00035.00035v-.0007a1.57484,1.57484,0,0,0-1.37682-1.09064Z"/><path class="cls-2" d="M55.01239,90.272a1.57491,1.57491,0,0,0-1.46344-.97183l-.00066.00022.00033-.00011L53.54818,89.3l.00067-.00022a1.57483,1.57483,0,0,0,.61077-1.64684Z"/><path class="cls-2" d="M58.13309,84.763a1.57489,1.57489,0,0,0,1.7556-.06282l.00042-.00056-.00021.00028.00049-.00007-.00041.00056a1.57484,1.57484,0,0,0,.46311,1.6943Z"/><path class="cls-2" d="M59.86879,90.31518a1.57491,1.57491,0,0,1,1.46892-.96353l.00066.00022-.00033-.00011.00045-.00022-.00067-.00022a1.57485,1.57485,0,0,1-.60144-1.65028Z"/><path class="cls-2" d="M56.80006,84.75008a1.57488,1.57488,0,0,1-1.75519-.07346l-.00042-.00056.00021.00028-.00049-.00008.00041.00057a1.57483,1.57483,0,0,1-.47337,1.69146Z"/><path class="cls-1" d="M58.642,85.46322l.261.53065.58367.0851a1.34232,1.34232,0,0,1,.74082,2.28759l-.42234.413.0997.58324a1.33764,1.33764,0,0,1-1.9395,1.41381l-.52205-.27537-.52205.27537a1.33764,1.33764,0,0,1-1.9395-1.41381l.0997-.58324-.42234-.413A1.34232,1.34232,0,0,1,55.4,86.079l.58367-.0851.261-.53065A1.33476,1.33476,0,0,1,58.642,85.46322Z"/><path d="M57.44328,84.59074a1.45242,1.45242,0,0,1,1.31091.81739l.23194.47143.51867.07569A1.46745,1.46745,0,0,1,60.315,88.456l-.37548.36719.0885.51879a1.4626,1.4626,0,0,1-2.121,1.54541l-.46374-.24462-.46362.24462a1.46276,1.46276,0,0,1-2.1211-1.54541l.08863-.51879L54.5717,88.456a1.46736,1.46736,0,0,1,.81018-2.50073l.51867-.07569.23194-.47143A1.45239,1.45239,0,0,1,57.44328,84.59074Zm1.1477,6.219A1.22141,1.22141,0,0,0,59.78166,89.384l-.11072-.64771.46924-.459a1.21727,1.21727,0,0,0-.67151-2.07447l-.6488-.09472-.29-.5896a1.20975,1.20975,0,0,0-2.173,0l-.29.5896-.6488.09472a1.21727,1.21727,0,0,0-.67151,2.07447l.46924.459-.11084.64771A1.21277,1.21277,0,0,0,56.863,90.66618l.58032-.30615.58044.30615A1.213,1.213,0,0,0,58.591,90.80974Z"/><path class="cls-2" d="M57.44352,89.16765a1.14038,1.14038,0,1,1,1.14014-1.14014,1.14155,1.14155,0,0,1-1.14014,1.14014m0,.25a1.39038,1.39038,0,1,0-1.39062-1.39014,1.39036,1.39036,0,0,0,1.39062,1.39014Z"/></g></svg>