<svg xmlns="http://www.w3.org/2000/svg" viewBox="0 0 87 127"><defs><style>.cls-1{fill:#fff;}.cls-2{fill:#ff3b5c;}</style></defs><title>card-hearts-2</title><g id="artwork"><rect class="cls-1" x="0.04557" width="87" height="127" rx="6"/><path class="cls-2" d="M7.66986,17.83772l3.08805-3.25486Q11.494,13.81366,11.902,13.34A5.046,5.046,0,0,0,12.59834,12.29a2.62764,2.62764,0,0,0,.2881-1.18608A1.71283,1.71283,0,0,0,12.342,9.66924a2.87629,2.87629,0,0,0-1.75986-.42569,11.54179,11.54179,0,0,0-2.32.273l-.416.08025-.0962-1.02657a11.2775,11.2775,0,0,1,3.1364-.43254,3.71622,3.71622,0,0,1,2.45569.68894,2.674,2.674,0,0,1,.80815,2.149,3.78766,3.78766,0,0,1-.48,1.92395,10.12006,10.12006,0,0,1-1.72812,2.0365L9.126,17.80543h5.29618v1.07451H7.66986Z"/><path class="cls-2" d="M11.04636,34.55592a19.02753,19.02753,0,0,1,1.766-2.35956c1.22912-1.401,2.82178-2.82022,2.87928-4.83038a2.832,2.832,0,0,0-1.181-2.47944,2.10268,2.10268,0,0,0-2.50041.12611,2.154,2.154,0,0,0-.72844,1.28485c-.02219.1337-.0557.35392-.23547.35392s-.21329-.22022-.23547-.35392a2.15393,2.15393,0,0,0-.72844-1.28485,2.10267,2.10267,0,0,0-2.5004-.12611,2.832,2.832,0,0,0-1.181,2.47944c.05749,2.01016,1.65016,3.42935,2.87926,4.83038A19.02661,19.02661,0,0,1,11.04636,34.55592Z"/><path class="cls-2" d="M79.42124,109.1628l-3.088,3.25487q-.73613.76918-1.14411,1.24283a5.03171,5.03171,0,0,0-.69584,1.05,2.62142,2.62142,0,0,0-.2881,1.18608,1.71746,1.71746,0,0,0,.544,1.43563,2.88158,2.88158,0,0,0,1.75986.42472,11.55792,11.55792,0,0,0,2.32043-.273l.416-.08024.09571,1.02656a11.27661,11.27661,0,0,1-3.13591.43255,3.71684,3.71684,0,0,1-2.45619-.68895,2.674,2.674,0,0,1-.80814-2.149,3.78529,3.78529,0,0,1,.48-1.92395,10.10918,10.10918,0,0,1,1.72812-2.03551l2.81607-2.87027H72.66893v-1.07452h6.75231Z"/><path class="cls-2" d="M76.04477,92.57762a19.02827,19.02827,0,0,1-1.766,2.35956c-1.22911,1.401-2.82177,2.82022-2.87927,4.83038a2.832,2.832,0,0,0,1.181,2.47944,2.10271,2.10271,0,0,0,2.50042-.12611,2.154,2.154,0,0,0,.72843-1.28485c.02219-.1337.0557-.35392.23547-.35392s.21329.22022.23547.35392a2.154,2.154,0,0,0,.72844,1.28485,2.10268,2.10268,0,0,0,2.5004.12611,2.832,2.832,0,0,0,1.181-2.47944c-.05749-2.01016-1.65016-3.42935-2.87926-4.83038A19.02735,19.02735,0,0,1,76.04477,92.57762Z"/><path class="cls-2" d="M43.54555,28.86219a28.543,28.543,0,0,1,2.64908-3.53933c1.84366-2.10155,4.23265-4.23033,4.3189-7.24557A4.248,4.248,0,0,0,48.742,14.35813a3.154,3.154,0,0,0-3.75062.18917,3.231,3.231,0,0,0-1.09265,1.92727c-.03329.20055-.08356.53088-.35322.53088s-.31992-.33033-.35319-.53088A3.231,3.231,0,0,0,42.0997,14.5473a3.154,3.154,0,0,0-3.75061-.18917,4.248,4.248,0,0,0-1.77149,3.71916c.08623,3.01524,2.47524,5.144,4.31888,7.24557A28.5389,28.5389,0,0,1,43.54555,28.86219Z"/><path class="cls-2" d="M43.54558,98.13781a28.54388,28.54388,0,0,1-2.64907,3.53933c-1.84367,2.10155-4.23266,4.23033-4.31891,7.24557a4.248,4.248,0,0,0,1.77149,3.71916,3.154,3.154,0,0,0,3.75062-.18917,3.231,3.231,0,0,0,1.09265-1.92727c.03329-.20055.08356-.53088.35322-.53088s.31992.33033.35319.53088a3.23093,3.23093,0,0,0,1.09267,1.92727,3.154,3.154,0,0,0,3.7506.18917,4.248,4.248,0,0,0,1.77149-3.71916c-.08622-3.01524-2.47524-5.144-4.31888-7.24557A28.5389,28.5389,0,0,1,43.54558,98.13781Z"/></g></svg>