<svg xmlns="http://www.w3.org/2000/svg" viewBox="0 0 87 127"><defs><style>.cls-1{fill:#fff;}</style></defs><title>card-spades-9</title><g id="artwork"><rect class="cls-1" x="0.00232" width="86.99536" height="127" rx="6"/><path d="M15.26,29.67241c-.41269-1.29958-1.61352-2.02692-2.55433-2.91268a8.29025,8.29025,0,0,1-1.7057-2.279,8.29025,8.29025,0,0,1-1.7057,2.279c-.94081.88576-2.14162,1.6131-2.55431,2.91268a2.73479,2.73479,0,0,0,1.41833,3.38817,1.97621,1.97621,0,0,0,2.29761-.48933,1.58047,1.58047,0,0,0,.28942-.568,2.48384,2.48384,0,0,1-.40854,1.50152,2.44747,2.44747,0,0,1-.66312.66456v.33238h2.65262v-.33238a2.44758,2.44758,0,0,1-.66315-.66456,2.48385,2.48385,0,0,1-.40853-1.5016,1.58062,1.58062,0,0,0,.28944.56808,1.97619,1.97619,0,0,0,2.29761.48933A2.73482,2.73482,0,0,0,15.26,29.67241Z"/><path d="M7.99139,18.81651l-.416-.0641.11231-.99427a20.9364,20.9364,0,0,0,2.7832.1923q2.87988,0,2.91211-3.68742a8.166,8.166,0,0,1-2.75195.60919q-3.45557,0-3.45606-3.22306a3.37734,3.37734,0,0,1,.99219-2.56494,3.7103,3.7103,0,0,1,2.67188-.94632q3.8247,0,3.82422,5.64415a6.24449,6.24449,0,0,1-1.04,4.00007,3.8514,3.8514,0,0,1-3.15235,1.2585A14.71464,14.71464,0,0,1,7.99139,18.81651ZM12.98358,13.349l.415-.14434q-.04687-3.97587-2.55957-3.9766a2.33009,2.33009,0,0,0-1.752.6498,2.43289,2.43289,0,0,0-.63183,1.77129q0,2.13288,2.27148,2.13289A7.06294,7.06294,0,0,0,12.98358,13.349Z"/><path d="M71.74008,97.32792c.41269,1.29959,1.61352,2.02693,2.55433,2.91269a8.29035,8.29035,0,0,1,1.7057,2.279,8.29035,8.29035,0,0,1,1.7057-2.279c.94081-.88576,2.14162-1.6131,2.55431-2.91269a2.73476,2.73476,0,0,0-1.41833-3.38816,1.97619,1.97619,0,0,0-2.29761.48933,1.58047,1.58047,0,0,0-.28942.568,2.48384,2.48384,0,0,1,.40854-1.50152,2.44747,2.44747,0,0,1,.66312-.66456v-.33239H74.6738V92.831a2.44758,2.44758,0,0,1,.66315.66456,2.48383,2.48383,0,0,1,.40853,1.50159,1.58042,1.58042,0,0,0-.28944-.56807,1.97617,1.97617,0,0,0-2.29761-.48933A2.7348,2.7348,0,0,0,71.74008,97.32792Z"/><path d="M79.009,108.18338l.416.06459-.1123.99427a21.02179,21.02179,0,0,0-2.7832-.19278q-2.8799,0-2.91211,3.68839a8.14451,8.14451,0,0,1,2.752-.60968q3.45556,0,3.45605,3.22257a3.3803,3.3803,0,0,1-.99218,2.56592,3.7119,3.7119,0,0,1-2.67188.94534q-3.8247,0-3.82422-5.64366a6.247,6.247,0,0,1,1.04-4.00056,3.85438,3.85438,0,0,1,3.15235-1.2585A14.81828,14.81828,0,0,1,79.009,108.18338Zm-4.99219,5.46849-.415.14386q.04688,3.97659,2.55957,3.9761a2.32822,2.32822,0,0,0,1.752-.6498,2.43289,2.43289,0,0,0,.63183-1.77129q0-2.13141-2.27148-2.1324A7.038,7.038,0,0,0,74.01678,113.65187Z"/><path d="M33.89,21.68361c-.619-1.94938-2.42029-3.04039-3.8315-4.369A12.43537,12.43537,0,0,1,27.5,13.89607a12.43554,12.43554,0,0,1-2.55854,3.41851c-1.41122,1.32864-3.21243,2.41965-3.83147,4.369a4.10218,4.10218,0,0,0,2.12749,5.08225,2.96431,2.96431,0,0,0,3.44642-.734,2.3706,2.3706,0,0,0,.43412-.852,3.72566,3.72566,0,0,1-.6128,2.25228,3.67117,3.67117,0,0,1-.99469.99684v.49858h3.97894V28.429a3.67146,3.67146,0,0,1-.99473-.99684,3.72571,3.72571,0,0,1-.61279-2.25239,2.37077,2.37077,0,0,0,.43416.85211,2.96426,2.96426,0,0,0,3.44641.734A4.10222,4.10222,0,0,0,33.89,21.68361Z"/><path d="M65.89005,21.68361c-.619-1.94938-2.42029-3.04039-3.8315-4.369A12.43537,12.43537,0,0,1,59.5,13.89607a12.43554,12.43554,0,0,1-2.55854,3.41851c-1.41122,1.32864-3.21243,2.41965-3.83147,4.369a4.10218,4.10218,0,0,0,2.12749,5.08225,2.96431,2.96431,0,0,0,3.44642-.734,2.3706,2.3706,0,0,0,.43412-.852,3.72566,3.72566,0,0,1-.6128,2.25228,3.67117,3.67117,0,0,1-.99469.99684v.49858h3.97894V28.429a3.67146,3.67146,0,0,1-.99473-.99684,3.72571,3.72571,0,0,1-.61279-2.25239,2.37077,2.37077,0,0,0,.43416.85211,2.96426,2.96426,0,0,0,3.44641.734A4.10222,4.10222,0,0,0,65.89005,21.68361Z"/><path d="M21.11,105.31639c.619,1.94938,2.42029,3.04039,3.8315,4.369A12.43537,12.43537,0,0,1,27.5,113.10393a12.43554,12.43554,0,0,1,2.55854-3.41851c1.41122-1.32864,3.21243-2.41965,3.83147-4.369a4.10218,4.10218,0,0,0-2.12749-5.08225,2.96431,2.96431,0,0,0-3.44642.734,2.3706,2.3706,0,0,0-.43412.852,3.72566,3.72566,0,0,1,.6128-2.25228,3.67117,3.67117,0,0,1,.99469-.99684v-.49858H25.51053V98.571a3.67146,3.67146,0,0,1,.99473.99684,3.72571,3.72571,0,0,1,.61279,2.25239,2.37077,2.37077,0,0,0-.43416-.85211,2.96426,2.96426,0,0,0-3.44641-.734A4.10222,4.10222,0,0,0,21.11,105.31639Z"/><path d="M53.11,105.31639c.619,1.94938,2.42029,3.04039,3.8315,4.369A12.43537,12.43537,0,0,1,59.5,113.10393a12.43554,12.43554,0,0,1,2.55854-3.41851c1.41122-1.32864,3.21243-2.41965,3.83147-4.369a4.10218,4.10218,0,0,0-2.12749-5.08225,2.96431,2.96431,0,0,0-3.44642.734,2.3706,2.3706,0,0,0-.43412.852,3.72566,3.72566,0,0,1,.6128-2.25228,3.67117,3.67117,0,0,1,.99469-.99684v-.49858H57.51055V98.571a3.67146,3.67146,0,0,1,.99473.99684,3.72571,3.72571,0,0,1,.61279,2.25239,2.37077,2.37077,0,0,0-.43416-.85211,2.96426,2.96426,0,0,0-3.44641-.734A4.10222,4.10222,0,0,0,53.11,105.31639Z"/><path d="M33.89,49.7424c-.619-1.94938-2.42029-3.04039-3.8315-4.369A12.43537,12.43537,0,0,1,27.5,41.95486a12.43554,12.43554,0,0,1-2.55854,3.41851C23.53022,46.702,21.729,47.793,21.11,49.7424a4.10218,4.10218,0,0,0,2.12749,5.08225,2.96431,2.96431,0,0,0,3.44642-.734,2.3706,2.3706,0,0,0,.43412-.852,3.72566,3.72566,0,0,1-.6128,2.25228,3.67117,3.67117,0,0,1-.99469.99684v.49858h3.97894v-.49858a3.67146,3.67146,0,0,1-.99473-.99684,3.72571,3.72571,0,0,1-.61279-2.25239,2.37077,2.37077,0,0,0,.43416.85211,2.96426,2.96426,0,0,0,3.44641.734A4.10222,4.10222,0,0,0,33.89,49.7424Z"/><path d="M65.89005,49.7424c-.619-1.94938-2.42029-3.04039-3.8315-4.369A12.43537,12.43537,0,0,1,59.5,41.95486a12.43554,12.43554,0,0,1-2.55854,3.41851C55.53024,46.702,53.729,47.793,53.11,49.7424a4.10218,4.10218,0,0,0,2.12749,5.08225,2.96431,2.96431,0,0,0,3.44642-.734,2.3706,2.3706,0,0,0,.43412-.852,3.72566,3.72566,0,0,1-.6128,2.25228,3.67117,3.67117,0,0,1-.99469.99684v.49858h3.97894v-.49858a3.67146,3.67146,0,0,1-.99473-.99684,3.72571,3.72571,0,0,1-.61279-2.25239,2.37077,2.37077,0,0,0,.43416.85211,2.96426,2.96426,0,0,0,3.44641.734A4.10222,4.10222,0,0,0,65.89005,49.7424Z"/><path d="M53.11,77.2576c.619,1.94938,2.42029,3.04039,3.8315,4.369A12.43537,12.43537,0,0,1,59.5,85.04514a12.43554,12.43554,0,0,1,2.55854-3.41851C63.46978,80.298,65.271,79.207,65.89,77.2576a4.10218,4.10218,0,0,0-2.12749-5.08225,2.96431,2.96431,0,0,0-3.44642.734,2.3706,2.3706,0,0,0-.43412.852,3.72566,3.72566,0,0,1,.6128-2.25228,3.67117,3.67117,0,0,1,.99469-.99684v-.49858H57.51055v.49858a3.67146,3.67146,0,0,1,.99473.99684,3.72571,3.72571,0,0,1,.61279,2.25239,2.37077,2.37077,0,0,0-.43416-.85211,2.96426,2.96426,0,0,0-3.44641-.734A4.10222,4.10222,0,0,0,53.11,77.2576Z"/><path d="M21.11,77.2576c.619,1.94938,2.42029,3.04039,3.8315,4.369A12.43537,12.43537,0,0,1,27.5,85.04514a12.43554,12.43554,0,0,1,2.55854-3.41851C31.46976,80.298,33.271,79.207,33.89,77.2576a4.10218,4.10218,0,0,0-2.12749-5.08225,2.96431,2.96431,0,0,0-3.44642.734,2.3706,2.3706,0,0,0-.43412.852,3.72566,3.72566,0,0,1,.6128-2.25228,3.67117,3.67117,0,0,1,.99469-.99684v-.49858H25.51053v.49858a3.67146,3.67146,0,0,1,.99473.99684,3.72571,3.72571,0,0,1,.61279,2.25239,2.37077,2.37077,0,0,0-.43416-.85211,2.96426,2.96426,0,0,0-3.44641-.734A4.10222,4.10222,0,0,0,21.11,77.2576Z"/><path d="M49.89,63.77179c-.619-1.94938-2.42029-3.04039-3.8315-4.369A12.43533,12.43533,0,0,1,43.5,55.98426a12.43549,12.43549,0,0,1-2.55854,3.4185c-1.41122,1.32864-3.21243,2.41965-3.83147,4.369A4.10217,4.10217,0,0,0,39.23747,68.854a2.9643,2.9643,0,0,0,3.44642-.734,2.3706,2.3706,0,0,0,.43412-.852,3.72565,3.72565,0,0,1-.6128,2.25227,3.67107,3.67107,0,0,1-.99469.99685v.49857h3.97894v-.49857a3.67136,3.67136,0,0,1-.99473-.99685,3.72569,3.72569,0,0,1-.61279-2.25239,2.37073,2.37073,0,0,0,.43416.85212,2.96426,2.96426,0,0,0,3.44641.734A4.10221,4.10221,0,0,0,49.89,63.77179Z"/></g></svg>