<svg xmlns="http://www.w3.org/2000/svg" viewBox="0 0 87 127"><defs><style>.cls-1{fill:#fff;}.cls-2{fill:#ff3b5c;}</style></defs><title>card-clubs-q</title><g id="artwork"><rect class="cls-1" x="0.00232" width="86.99536" height="127" rx="6"/><path d="M12.33571,18.89681a5.22487,5.22487,0,0,1-1.34375.14385,4.89266,4.89266,0,0,1-2.59961-.593A3.26617,3.26617,0,0,1,7.032,16.62838a10.58109,10.58109,0,0,1-.40723-3.247,10.61616,10.61616,0,0,1,.415-3.26269,3.40327,3.40327,0,0,1,1.376-1.876A4.71186,4.71186,0,0,1,10.992,7.62515a4.70956,4.70956,0,0,1,2.57617.61751,3.43291,3.43291,0,0,1,1.38379,1.876,10.43665,10.43665,0,0,1,.4248,3.26269,10.30248,10.30248,0,0,1-.4248,3.28618,3.20456,3.20456,0,0,1-1.416,1.79673l1.36035,2.196-1.15234.54508Zm.55273-1.3955a2.41616,2.41616,0,0,0,.93555-1.419,10.29589,10.29589,0,0,0,.27246-2.66966,10.51112,10.51112,0,0,0-.28027-2.70879A2.64848,2.64848,0,0,0,12.864,9.20463a3.13216,3.13216,0,0,0-1.87207-.4893,3.17023,3.17023,0,0,0-1.87207.48147,2.60971,2.60971,0,0,0-.95215,1.49043,10.44929,10.44929,0,0,0-.2793,2.69412A10.4207,10.4207,0,0,0,8.15993,16.051a2.43438,2.43438,0,0,0,.95214,1.44248,3.36522,3.36522,0,0,0,1.89551.457A3.34137,3.34137,0,0,0,12.88844,17.50131Z"/><path d="M16.21387,30.20673a2.22658,2.22658,0,0,0-2.19635-1.64233,2.068,2.068,0,0,0-.96644.28781c-.15625.09338-.45.27537-.58474.04607-.122-.20768.10074-.40145.23406-.52944a2.21556,2.21556,0,0,0,.63767-1.18859,2.33125,2.33125,0,0,0-1.0482-2.36158,2.43424,2.43424,0,0,0-2.59572,0,2.33124,2.33124,0,0,0-1.04821,2.36158,2.21562,2.21562,0,0,0,.63766,1.18859c.13334.128.3561.32176.23408.52944-.1348.2293-.42851.04731-.58476-.04607a2.068,2.068,0,0,0-.96643-.28781,2.22659,2.22659,0,0,0-2.19636,1.64233A2.40943,2.40943,0,0,0,6.8997,32.90411a2.44044,2.44044,0,0,0,3.5734-1.50665h.19877a2.68923,2.68923,0,0,1-.39755,1.98855,2.648,2.648,0,0,1-.71757.71913v.35967h2.8705v-.35967a2.64844,2.64844,0,0,1-.71757-.71913,2.68927,2.68927,0,0,1-.39754-1.98855h.19878a2.44042,2.44042,0,0,0,3.57338,1.50665A2.40943,2.40943,0,0,0,16.21387,30.20673Z"/><path d="M74.66774,108.10319a5.22476,5.22476,0,0,1,1.34375-.14385,4.89271,4.89271,0,0,1,2.59961.593,3.26521,3.26521,0,0,1,1.36035,1.82021,13.08983,13.08983,0,0,1-.00781,6.50973,3.41023,3.41023,0,0,1-1.376,1.876,5.69053,5.69053,0,0,1-5.15234,0,3.43988,3.43988,0,0,1-1.38379-1.876,10.44486,10.44486,0,0,1-.42481-3.26269,10.30882,10.30882,0,0,1,.42481-3.28716,3.20228,3.20228,0,0,1,1.416-1.79575l-1.36035-2.197,1.15234-.54508Zm-.55274,1.3955a2.42232,2.42232,0,0,0-.93554,1.419,10.301,10.301,0,0,0-.27246,2.66966,10.51424,10.51424,0,0,0,.28027,2.70977,2.64843,2.64843,0,0,0,.95215,1.49924,3.13223,3.13223,0,0,0,1.87207.48832,3.17754,3.17754,0,0,0,1.87207-.48049,2.61567,2.61567,0,0,0,.95215-1.49141,13.19251,13.19251,0,0,0,.00781-5.36279,2.43984,2.43984,0,0,0-.95215-1.44346,4.161,4.161,0,0,0-3.77637-.00783Z"/><path d="M70.78613,96.77794a2.22659,2.22659,0,0,0,2.19635,1.64234,2.06805,2.06805,0,0,0,.96644-.28782c.15625-.09337.45-.27537.58474-.04607.122.20768-.10074.40145-.23406.52945a2.21554,2.21554,0,0,0-.63767,1.18858,2.33125,2.33125,0,0,0,1.0482,2.36158,2.43424,2.43424,0,0,0,2.59572,0,2.33124,2.33124,0,0,0,1.04821-2.36158,2.21559,2.21559,0,0,0-.63766-1.18858c-.13334-.128-.3561-.32177-.23408-.52945.1348-.2293.42851-.0473.58476.04607a2.068,2.068,0,0,0,.96643.28782,2.2266,2.2266,0,0,0,2.19636-1.64234,2.40942,2.40942,0,0,0-1.12957-2.69737,2.44045,2.44045,0,0,0-3.5734,1.50664h-.19877a2.68924,2.68924,0,0,1,.39755-1.98855,2.64816,2.64816,0,0,1,.71757-.71913v-.35967h-2.8705v.35967a2.64858,2.64858,0,0,1,.71757.71913,2.68928,2.68928,0,0,1,.39754,1.98855h-.19878a2.44042,2.44042,0,0,0-3.57338-1.50664A2.40942,2.40942,0,0,0,70.78613,96.77794Z"/><rect x="35.75883" y="40.77275" width="2.23633" height="0.5"/><rect x="49.0048" y="40.77275" width="2.23633" height="0.5"/><circle cx="49.13458" cy="41.02274" r="1.11964"/><circle cx="37.88291" cy="41.02274" r="1.11964"/><path class="cls-2" d="M42.11818,57.04764A1.57493,1.57493,0,0,0,43.49535,55.957v-.00035l.00035-.00035v.0007a1.57486,1.57486,0,0,0,1.37682,1.09064Z"/><path class="cls-2" d="M45.93094,57.81923a1.57492,1.57492,0,0,0,1.46344.97183l.00066-.00022-.00033.00011.00044.00023-.00066.00021a1.57484,1.57484,0,0,0-.61078,1.64684Z"/><path class="cls-2" d="M42.81024,63.32822a1.57489,1.57489,0,0,0-1.7556.06281l-.00042.00057.00021-.00028-.00049.00007.00042-.00056a1.57488,1.57488,0,0,0-.46312-1.69431Z"/><path class="cls-2" d="M41.07454,57.776a1.57491,1.57491,0,0,1-1.46892.96353l-.00066-.00023.00033.00011-.00044.00023.00066.00022a1.57484,1.57484,0,0,1,.60144,1.65027Z"/><path class="cls-2" d="M44.14327,63.34112a1.5749,1.5749,0,0,1,1.75519.07345l.00042.00057-.00021-.00028.00049.00008-.00041-.00057a1.57482,1.57482,0,0,1,.47338-1.69146Z"/><path class="cls-1" d="M42.30132,62.628l-.261-.53064-.58367-.0851a1.34232,1.34232,0,0,1-.74082-2.28759l.42234-.413-.0997-.58324a1.33764,1.33764,0,0,1,1.9395-1.41381l.52205.27537.52205-.27537a1.33764,1.33764,0,0,1,1.9395,1.41381l-.0997.58324.42234.413a1.34232,1.34232,0,0,1-.74082,2.28759l-.58367.0851-.261.53064A1.33476,1.33476,0,0,1,42.30132,62.628Z"/><path d="M43.49992,63.50053a1.45239,1.45239,0,0,1-1.31079-.81738l-.23193-.47168-.51856-.07544a1.46733,1.46733,0,0,1-.81018-2.50073l.37537-.36719-.0885-.5188a1.46255,1.46255,0,0,1,2.121-1.54541l.46374.24463.46363-.24463a1.46266,1.46266,0,0,1,2.12109,1.54541l-.08862.5188.37549.36719a1.46743,1.46743,0,0,1-.81018,2.50073l-.51856.07544-.23206.47168A1.45241,1.45241,0,0,1,43.49992,63.50053ZM42.4135,62.5728a1.20975,1.20975,0,0,0,2.173,0l.29016-.58985.64868-.09448a1.21724,1.21724,0,0,0,.67151-2.07446l-.46924-.459.11084-.6477a1.21267,1.21267,0,0,0-1.758-1.28223L43.5,57.73124l-.58044-.30615a1.21257,1.21257,0,0,0-1.75794,1.28223l.11072.6477-.46911.459a1.21725,1.21725,0,0,0,.67138,2.07446l.64881.09448Z"/><path class="cls-2" d="M43.49992,58.92338A1.14063,1.14063,0,1,1,42.3593,60.064a1.142,1.142,0,0,1,1.14062-1.14063m0-.25A1.39063,1.39063,0,1,0,44.89055,60.064a1.39057,1.39057,0,0,0-1.39063-1.39063Z"/><rect x="43.25004" y="42.71" width="0.5" height="5.74609"/><path class="cls-2" d="M37.92773,27.76521a2.92832,2.92832,0,0,1-2.78613-2.04688v9.186a2.78592,2.78592,0,0,0,2.78565,2.78613h.00048a2.78592,2.78592,0,0,0,2.78565-2.78613v-9.186A2.92863,2.92863,0,0,1,37.92773,27.76521Z"/><path class="cls-2" d="M43.5,27.76521a2.92922,2.92922,0,0,1-2.78613-2.04688v9.186a2.78623,2.78623,0,0,0,2.78564,2.78613H43.5a2.78592,2.78592,0,0,0,2.78564-2.78613v-9.186A2.92815,2.92815,0,0,1,43.5,27.76521Z"/><path class="cls-2" d="M49.07275,27.76521a2.92878,2.92878,0,0,1-2.78613-2.04688v9.186a2.78592,2.78592,0,0,0,2.78565,2.78613h.00048a2.78592,2.78592,0,0,0,2.78565-2.78613v-9.186A2.92863,2.92863,0,0,1,49.07275,27.76521Z"/><path d="M43.5,55.96293l-.10217-.04565c-.35815-.1604-8.77173-3.9834-8.77173-8.852h.5c0,4.272,7.41065,7.89575,8.3739,8.34839.96326-.45264,8.37378-4.07642,8.37378-8.34839h.5c0,4.86865-8.41345,8.69165-8.7716,8.852Z"/><path class="cls-2" d="M43.48784,51.74882a2.18771,2.18771,0,0,1-2.26575-2.26611h.5a1.71575,1.71575,0,0,0,1.76672,1.76611Z"/><path d="M46.978,29.54866a1.4826,1.4826,0,0,0-1.46288-1.09158,1.37961,1.37961,0,0,0-.64369.1913c-.10407.06206-.29969.183-.38946.03062-.08129-.138.06709-.26683.15589-.3519a1.47162,1.47162,0,0,0,.42472-.79,1.54819,1.54819,0,0,0-.69815-1.56963,1.62417,1.62417,0,0,0-1.72887,0,1.54817,1.54817,0,0,0-.69815,1.56963,1.47161,1.47161,0,0,0,.42471.79c.08881.08507.23718.21386.1559.3519-.08978.1524-.2854.03144-.38947-.03062a1.37958,1.37958,0,0,0-.6437-.1913A1.4826,1.4826,0,0,0,40.022,29.54866a1.60007,1.60007,0,0,0,.75235,1.79282,1.62639,1.62639,0,0,0,2.38-1.0014h.13238a1.78433,1.78433,0,0,1-.26478,1.3217,1.76209,1.76209,0,0,1-.47793.478v.239h1.91188v-.239a1.76224,1.76224,0,0,1-.47793-.478,1.78437,1.78437,0,0,1-.26478-1.3217h.13239a1.62637,1.62637,0,0,0,2.38,1.0014A1.60006,1.60006,0,0,0,46.978,29.54866Z"/><rect x="51.86874" y="32.63544" width="5.57585" height="20.64073" rx="2.78792"/><path d="M52.026,55.12186a1.12139,1.12139,0,0,0,1.10647.82563,1.04341,1.04341,0,0,0,.48686-.1447c.07871-.04694.22668-.13843.29458-.02316.06148.10441-.05075.20182-.11792.26617a1.11314,1.11314,0,0,0-.32124.59752,1.171,1.171,0,0,0,.52806,1.18721,1.2285,1.2285,0,0,0,1.30765,0,1.171,1.171,0,0,0,.52806-1.18721,1.113,1.113,0,0,0-.32124-.59752c-.06717-.06435-.17939-.16176-.11792-.26617.06791-.11527.21587-.02378.29459.02316a1.04337,1.04337,0,0,0,.48686.1447,1.12139,1.12139,0,0,0,1.10647-.82563,1.21024,1.21024,0,0,0-.56905-1.356,1.23013,1.23013,0,0,0-1.80018.75742h-.10013a1.34961,1.34961,0,0,1,.20027-.99968,1.33269,1.33269,0,0,1,.36149-.36152v-.18081H53.93362v.18081a1.333,1.333,0,0,1,.36149.36152,1.34961,1.34961,0,0,1,.20027.99968h-.10014a1.23012,1.23012,0,0,0-1.80017-.75742A1.21024,1.21024,0,0,0,52.026,55.12186Z"/><rect x="29.55542" y="32.63544" width="5.57585" height="20.64073" rx="2.78792"/><path d="M29.7127,55.12186a1.12139,1.12139,0,0,0,1.10647.82563,1.04341,1.04341,0,0,0,.48686-.1447c.07872-.04694.22668-.13843.29458-.02316.06148.10441-.05075.20182-.11791.26617a1.11309,1.11309,0,0,0-.32125.59752,1.171,1.171,0,0,0,.52806,1.18721,1.2285,1.2285,0,0,0,1.30765,0,1.171,1.171,0,0,0,.52806-1.18721,1.11306,1.11306,0,0,0-.32123-.59752c-.06718-.06435-.1794-.16176-.11792-.26617.0679-.11527.21586-.02378.29458.02316a1.04338,1.04338,0,0,0,.48687.1447,1.12139,1.12139,0,0,0,1.10646-.82563,1.21024,1.21024,0,0,0-.569-1.356,1.23013,1.23013,0,0,0-1.80018.75742h-.10013a1.34961,1.34961,0,0,1,.20027-.99968,1.33269,1.33269,0,0,1,.36149-.36152v-.18081H31.6203v.18081a1.33283,1.33283,0,0,1,.36149.36152,1.34961,1.34961,0,0,1,.20027.99968h-.10014a1.23012,1.23012,0,0,0-1.80017-.75742A1.21024,1.21024,0,0,0,29.7127,55.12186Z"/><rect x="49.00484" y="85.72725" width="2.23633" height="0.5"/><rect x="35.75887" y="85.72725" width="2.23633" height="0.5"/><circle cx="37.86542" cy="85.97726" r="1.11964"/><circle cx="49.11709" cy="85.97726" r="1.11964"/><path class="cls-2" d="M44.88182,69.95236A1.57493,1.57493,0,0,0,43.50465,71.043v.00035l-.00035.00035V71.043a1.57486,1.57486,0,0,0-1.37682-1.09064Z"/><path class="cls-2" d="M41.06906,69.18077a1.57492,1.57492,0,0,0-1.46344-.97183l-.00066.00022.00033-.00011-.00044-.00023.00066-.00021a1.57484,1.57484,0,0,0,.61078-1.64684Z"/><path class="cls-2" d="M44.18976,63.67178a1.57489,1.57489,0,0,0,1.7556-.06281l.00042-.00057-.00021.00028.00049-.00007-.00042.00056a1.57488,1.57488,0,0,0,.46312,1.69431Z"/><path class="cls-2" d="M45.92546,69.224a1.57491,1.57491,0,0,1,1.46892-.96353l.00066.00023-.00033-.00011.00044-.00023-.00066-.00022a1.57484,1.57484,0,0,1-.60144-1.65027Z"/><path class="cls-2" d="M42.85673,63.65888a1.5749,1.5749,0,0,1-1.75519-.07345l-.00042-.00057.00021.00028-.00049-.00008.00041.00057a1.57482,1.57482,0,0,1-.47338,1.69146Z"/><path class="cls-1" d="M44.69868,64.372l.261.53064.58367.0851a1.34232,1.34232,0,0,1,.74082,2.28759l-.42234.413.0997.58324a1.33764,1.33764,0,0,1-1.9395,1.41381L43.5,69.41009l-.52205.27537a1.33764,1.33764,0,0,1-1.9395-1.41381l.0997-.58324-.42234-.413a1.34232,1.34232,0,0,1,.74082-2.28759l.58367-.0851.261-.53064A1.33476,1.33476,0,0,1,44.69868,64.372Z"/><path d="M43.50008,63.49947a1.45239,1.45239,0,0,1,1.31079.81738l.23193.47168.51856.07544a1.46733,1.46733,0,0,1,.81018,2.50073l-.37537.36719.0885.5188a1.46255,1.46255,0,0,1-2.121,1.54541L43.5,69.55147l-.46363.24463a1.46266,1.46266,0,0,1-2.12109-1.54541l.08862-.5188-.37549-.36719a1.46743,1.46743,0,0,1,.81018-2.50073l.51856-.07544.23206-.47168A1.45241,1.45241,0,0,1,43.50008,63.49947Zm1.08642.92773a1.20975,1.20975,0,0,0-2.173,0l-.29016.58985-.64868.09448a1.21724,1.21724,0,0,0-.67151,2.07446l.46924.459-.11084.6477a1.21267,1.21267,0,0,0,1.758,1.28223L43.5,69.26876l.58044.30615a1.21257,1.21257,0,0,0,1.75794-1.28223l-.11072-.6477.46911-.459a1.21725,1.21725,0,0,0-.67138-2.07446l-.64881-.09448Z"/><path class="cls-2" d="M43.50008,68.07662A1.14063,1.14063,0,1,1,44.6407,66.936a1.142,1.142,0,0,1-1.14062,1.14063m0,.25A1.39063,1.39063,0,1,0,42.10945,66.936a1.39057,1.39057,0,0,0,1.39063,1.39063Z"/><rect x="43.24996" y="78.5439" width="0.5" height="5.74609"/><path class="cls-2" d="M49.07227,99.23479a2.92832,2.92832,0,0,1,2.78613,2.04688v-9.186a2.78592,2.78592,0,0,0-2.78565-2.78613h-.00048a2.78592,2.78592,0,0,0-2.78565,2.78613v9.186A2.92863,2.92863,0,0,1,49.07227,99.23479Z"/><path class="cls-2" d="M43.5,99.23479a2.92922,2.92922,0,0,1,2.78613,2.04688v-9.186a2.78623,2.78623,0,0,0-2.78564-2.78613H43.5a2.78592,2.78592,0,0,0-2.78564,2.78613v9.186A2.92815,2.92815,0,0,1,43.5,99.23479Z"/><path class="cls-2" d="M37.92725,99.23479a2.92878,2.92878,0,0,1,2.78613,2.04688v-9.186a2.78592,2.78592,0,0,0-2.78565-2.78613h-.00048a2.78592,2.78592,0,0,0-2.78565,2.78613v9.186A2.92863,2.92863,0,0,1,37.92725,99.23479Z"/><path d="M43.5,71.03707l.10217.04565c.35815.1604,8.77173,3.9834,8.77173,8.85205h-.5c0-4.272-7.41065-7.89575-8.3739-8.34839-.96326.45264-8.37378,4.07642-8.37378,8.34839h-.5c0-4.86865,8.41345-8.69165,8.7716-8.85205Z"/><path class="cls-2" d="M43.51216,75.25118a2.18771,2.18771,0,0,1,2.26575,2.26611h-.5a1.71575,1.71575,0,0,0-1.76672-1.76611Z"/><path d="M40.022,97.45134a1.4826,1.4826,0,0,0,1.46288,1.09158,1.37961,1.37961,0,0,0,.64369-.1913c.10407-.06206.29969-.183.38946-.03062.08129.138-.06709.26683-.15589.3519a1.47162,1.47162,0,0,0-.42472.79,1.54819,1.54819,0,0,0,.69815,1.56963,1.62417,1.62417,0,0,0,1.72887,0,1.54817,1.54817,0,0,0,.69815-1.56963,1.47161,1.47161,0,0,0-.42471-.79c-.08881-.08507-.23718-.21386-.1559-.3519.08978-.1524.2854-.03144.38947.03062a1.37958,1.37958,0,0,0,.6437.1913A1.4826,1.4826,0,0,0,46.978,97.45134a1.60007,1.60007,0,0,0-.75235-1.79282,1.62639,1.62639,0,0,0-2.38,1.0014h-.13238a1.78433,1.78433,0,0,1,.26478-1.3217,1.76209,1.76209,0,0,1,.47793-.478v-.239H42.54406v.239a1.76224,1.76224,0,0,1,.47793.478,1.78437,1.78437,0,0,1,.26478,1.3217h-.13239a1.62637,1.62637,0,0,0-2.38-1.0014A1.60006,1.60006,0,0,0,40.022,97.45134Z"/><rect x="29.55542" y="73.72383" width="5.57585" height="20.64073" rx="2.78792" transform="translate(64.68668 168.08839) rotate(180)"/><path d="M34.974,71.87814a1.12139,1.12139,0,0,0-1.10647-.82563,1.04341,1.04341,0,0,0-.48686.1447c-.07871.04694-.22668.13843-.29458.02316-.06148-.10441.05075-.20182.11792-.26617a1.11314,1.11314,0,0,0,.32124-.59752,1.171,1.171,0,0,0-.52806-1.18721,1.2285,1.2285,0,0,0-1.30765,0,1.171,1.171,0,0,0-.52806,1.18721,1.113,1.113,0,0,0,.32124.59752c.06717.06435.17939.16176.11792.26617-.06791.11527-.21587.02378-.29459-.02316a1.04337,1.04337,0,0,0-.48686-.1447,1.12139,1.12139,0,0,0-1.10647.82563,1.21024,1.21024,0,0,0,.569,1.356,1.23013,1.23013,0,0,0,1.80018-.75742h.10013a1.34961,1.34961,0,0,1-.20027.99968,1.33269,1.33269,0,0,1-.36149.36152v.18081h1.44608V73.838a1.333,1.333,0,0,1-.36149-.36152,1.34961,1.34961,0,0,1-.20027-.99968h.10014a1.23012,1.23012,0,0,0,1.80017.75742A1.21024,1.21024,0,0,0,34.974,71.87814Z"/><rect x="51.86874" y="73.72383" width="5.57585" height="20.64073" rx="2.78792" transform="translate(109.31332 168.08839) rotate(180)"/><path d="M57.2873,71.87814a1.12139,1.12139,0,0,0-1.10647-.82563,1.04341,1.04341,0,0,0-.48686.1447c-.07872.04694-.22668.13843-.29458.02316-.06148-.10441.05075-.20182.11791-.26617a1.11309,1.11309,0,0,0,.32125-.59752,1.171,1.171,0,0,0-.52806-1.18721,1.2285,1.2285,0,0,0-1.30765,0,1.171,1.171,0,0,0-.52806,1.18721,1.11306,1.11306,0,0,0,.32123.59752c.06718.06435.1794.16176.11792.26617-.0679.11527-.21586.02378-.29458-.02316a1.04338,1.04338,0,0,0-.48687-.1447,1.12139,1.12139,0,0,0-1.10646.82563,1.21024,1.21024,0,0,0,.569,1.356,1.23013,1.23013,0,0,0,1.80018-.75742h.10013a1.34961,1.34961,0,0,1-.20027.99968,1.33269,1.33269,0,0,1-.36149.36152v.18081H55.3797V73.838a1.33283,1.33283,0,0,1-.36149-.36152,1.34961,1.34961,0,0,1-.20027-.99968h.10014a1.23012,1.23012,0,0,0,1.80017.75742A1.21024,1.21024,0,0,0,57.2873,71.87814Z"/></g></svg>