<svg xmlns="http://www.w3.org/2000/svg" viewBox="0 0 87 127"><defs><style>.cls-1{fill:#fff;}</style></defs><title>card-clubs-2_1</title><g id="artwork"><rect class="cls-1" width="87" height="127" rx="6"/><path d="M8,18.72l-.49-.11.11-1a15.36,15.36,0,0,0,2.88.38,3.5,3.5,0,0,0,1.94-.46,1.81,1.81,0,0,0,.7-1.62c0-1.28-.73-2-2.18-2H8.83V12.85H11a1.81,1.81,0,0,0,.91-.25,2.09,2.09,0,0,0,.73-.69,1.85,1.85,0,0,0,.28-1,1.51,1.51,0,0,0-.5-1.28,2.76,2.76,0,0,0-1.66-.39,13.28,13.28,0,0,0-2.52.24l-.42.08-.11-1a11.11,11.11,0,0,1,3.23-.45,3.77,3.77,0,0,1,2.48.66,2.63,2.63,0,0,1,.77,2.1,2.63,2.63,0,0,1-.42,1.44,2.41,2.41,0,0,1-1.15,1,4.54,4.54,0,0,1,1,.53,1.82,1.82,0,0,1,.58.78,3.26,3.26,0,0,1,.2,1.26,3.13,3.13,0,0,1-.83,2.41A3.68,3.68,0,0,1,11,19,15.54,15.54,0,0,1,8,18.72Z"/><path d="M16.21,30.21A2.15,2.15,0,0,0,13,28.85c-.15.1-.45.28-.58,0s.1-.4.23-.53a2.21,2.21,0,0,0,.64-1.19,2.32,2.32,0,0,0-1.05-2.36,2.4,2.4,0,0,0-2.59,0,2.32,2.32,0,0,0-1,2.36,2.21,2.21,0,0,0,.64,1.19c.13.13.35.32.23.53s-.43.05-.58,0a2.23,2.23,0,0,0-1-.29,2.24,2.24,0,0,0-2.2,1.65A2.41,2.41,0,0,0,6.89,32.9a2.45,2.45,0,0,0,3.58-1.5h.2a2.74,2.74,0,0,1-.4,2,2.7,2.7,0,0,1-.72.71v.36h2.87V34.1a2.59,2.59,0,0,1-1.11-2.7h.19a2.45,2.45,0,0,0,3.58,1.5A2.39,2.39,0,0,0,16.21,30.21Z"/><path d="M79,108.28l.49.11-.11,1A15.17,15.17,0,0,0,76.5,109a3.44,3.44,0,0,0-1.93.46,1.8,1.8,0,0,0-.71,1.62c0,1.28.73,2,2.18,2h2.13v1.06H76a1.81,1.81,0,0,0-.91.25,2.06,2.06,0,0,0-.72.69,1.78,1.78,0,0,0-.29,1,1.54,1.54,0,0,0,.5,1.28,2.76,2.76,0,0,0,1.66.39,13.47,13.47,0,0,0,2.53-.24l.41-.08.11,1a11.11,11.11,0,0,1-3.23.45,3.77,3.77,0,0,1-2.48-.66,3,3,0,0,1-.35-3.54,2.41,2.41,0,0,1,1.15-1,4.17,4.17,0,0,1-1-.53,1.84,1.84,0,0,1-.58-.78,3.26,3.26,0,0,1-.2-1.26,3.13,3.13,0,0,1,.83-2.41A3.68,3.68,0,0,1,76,108,15.54,15.54,0,0,1,79,108.28Z"/><path d="M70.78,96.78A2.23,2.23,0,0,0,73,98.42a2,2,0,0,0,1-.29c.15-.09.45-.27.58,0s-.1.4-.23.53a2.15,2.15,0,0,0-.64,1.18,2.33,2.33,0,0,0,1,2.37,2.45,2.45,0,0,0,2.59,0,2.33,2.33,0,0,0,1-2.37,2.15,2.15,0,0,0-.64-1.18c-.13-.13-.35-.33-.23-.53s.43,0,.58,0a2,2,0,0,0,1,.29,2.23,2.23,0,0,0,2.2-1.64,2.41,2.41,0,0,0-1.13-2.7,2.45,2.45,0,0,0-3.58,1.51h-.19a2.68,2.68,0,0,1,.39-2,2.74,2.74,0,0,1,.72-.72v-.36H74.57v.36a2.74,2.74,0,0,1,.72.72,2.68,2.68,0,0,1,.39,2h-.19a2.45,2.45,0,0,0-3.58-1.51A2.41,2.41,0,0,0,70.78,96.78Z"/><path d="M51.33,22.62A3.33,3.33,0,0,0,48,20.16a3.13,3.13,0,0,0-1.45.43c-.23.14-.67.41-.87.07s.15-.61.35-.8A3.31,3.31,0,0,0,47,18.08a3.47,3.47,0,0,0-1.57-3.54,3.6,3.6,0,0,0-3.89,0A3.47,3.47,0,0,0,40,18.08a3.31,3.31,0,0,0,1,1.78c.2.19.54.48.35.8s-.64.07-.87-.07A3.1,3.1,0,0,0,39,20.16a3.33,3.33,0,0,0-3.3,2.46,3.62,3.62,0,0,0,1.7,4.05,3.67,3.67,0,0,0,5.36-2.26H43a4,4,0,0,1-1.68,4.06V29h4.31v-.54a4.11,4.11,0,0,1-1.08-1.08,4,4,0,0,1-.59-3h.29a3.75,3.75,0,0,0,2.13,2.45,3.7,3.7,0,0,0,3.23-.19A3.62,3.62,0,0,0,51.33,22.62Z"/><path d="M35.66,104.38a3.33,3.33,0,0,0,3.3,2.46,3.1,3.1,0,0,0,1.45-.43c.23-.14.67-.41.87-.07s-.15.61-.35.8a3.31,3.31,0,0,0-1,1.78,3.47,3.47,0,0,0,1.57,3.54,3.6,3.6,0,0,0,3.89,0A3.47,3.47,0,0,0,47,108.92a3.31,3.31,0,0,0-.95-1.78c-.2-.19-.54-.48-.35-.8s.64-.07.87.07a3.13,3.13,0,0,0,1.45.43,3.33,3.33,0,0,0,3.3-2.46,3.62,3.62,0,0,0-1.7-4,3.7,3.7,0,0,0-3.23-.19,3.75,3.75,0,0,0-2.13,2.45H44a4,4,0,0,1,.59-3,4.11,4.11,0,0,1,1.08-1.08V98H41.34v.54A4,4,0,0,1,43,102.59h-.3a3.67,3.67,0,0,0-5.36-2.26A3.62,3.62,0,0,0,35.66,104.38Z"/><path d="M51.33,64.63A3.33,3.33,0,0,0,48,62.17a3.13,3.13,0,0,0-1.45.43c-.23.14-.67.41-.87.07s.15-.61.35-.8A3.31,3.31,0,0,0,47,60.09a3.47,3.47,0,0,0-1.57-3.54,3.6,3.6,0,0,0-3.89,0A3.47,3.47,0,0,0,40,60.09a3.31,3.31,0,0,0,1,1.78c.2.19.54.48.35.8s-.64.07-.87-.07A3.1,3.1,0,0,0,39,62.17a3.33,3.33,0,0,0-3.3,2.46,3.6,3.6,0,0,0,1.7,4,3.67,3.67,0,0,0,3.23.2,3.72,3.72,0,0,0,2.13-2.46H43a4,4,0,0,1-1.68,4.07V71h4.31v-.54a4.11,4.11,0,0,1-1.08-1.08,4,4,0,0,1-.59-3h.29a3.75,3.75,0,0,0,2.13,2.46,3.67,3.67,0,0,0,3.23-.2A3.6,3.6,0,0,0,51.33,64.63Z"/></g></svg>