<svg xmlns="http://www.w3.org/2000/svg" viewBox="0 0 87 127"><defs><style>.cls-1{fill:#fff;}.cls-2{fill:#ff3b5c;}</style></defs><title>card-diamonds-a</title><g id="artwork"><rect class="cls-1" width="87" height="127" rx="6"/><path class="cls-2" d="M43.5,71.01574q-1.6816-2.06037-3.56266-3.94581Q38.059,65.188,35.9996,63.5q2.05617-1.685,3.93776-3.56991,1.8783-1.88222,3.56266-3.94581,1.68154,2.06037,3.56262,3.94581Q48.941,61.81221,51.0004,63.5q-2.05617,1.685-3.93776,3.56995Q45.18458,68.95209,43.5,71.01574Z"/><path class="cls-2" d="M13.36106,16.02657H8.62448L7.82463,18.8802H6.60875L9.64895,7.78469h2.68764l3.0402,11.09551H14.16091ZM8.897,14.91976h4.19162L11.40881,8.84257h-.83208Z"/><path class="cls-2" d="M73.57911,110.97349H78.3157l.79984-2.85363h1.21589l-3.0402,11.0955H74.60358l-3.0402-11.0955h1.21589Zm4.46411,1.10681H73.85159l1.67978,6.07718h.83207Z"/><path class="cls-2" d="M10.99239,34.49211q-1.12107-1.37358-2.37511-2.63054-1.25224-1.25464-2.62517-2.38,1.37078-1.12332,2.62517-2.37994,1.25222-1.25481,2.37511-2.63054,1.121,1.3736,2.37509,2.63054,1.25225,1.25477,2.62517,2.37994-1.37079,1.12336-2.62517,2.38Q12.11543,33.11633,10.99239,34.49211Z"/><path class="cls-2" d="M76.00763,102.47288q-1.12107-1.3736-2.37511-2.63054-1.25224-1.25464-2.62517-2.38,1.37077-1.12332,2.62517-2.37994,1.25222-1.25481,2.37511-2.63054,1.121,1.37358,2.37509,2.63054,1.25224,1.25477,2.62517,2.37994-1.37079,1.12336-2.62517,2.38Q77.13067,101.09711,76.00763,102.47288Z"/></g></svg>