<svg xmlns="http://www.w3.org/2000/svg" viewBox="0 0 115 167"><defs><style>.cls-1{fill:#fff;}</style></defs><title>card-spades-9</title><g id="artwork"><rect class="cls-1" width="115" height="167" rx="8"/><path d="M20.16919,38.78306c-.54553-1.71794-2.13293-2.67941-3.37659-3.85031a10.959,10.959,0,0,1-2.25478-3.01263A10.959,10.959,0,0,1,12.283,34.93275c-1.24367,1.1709-2.831,2.13237-3.37656,3.85031a3.61511,3.61511,0,0,0,1.87489,4.47885,2.61237,2.61237,0,0,0,3.03724-.64685,2.08912,2.08912,0,0,0,.38258-.75085,3.28342,3.28342,0,0,1-.54,1.98488,3.23539,3.23539,0,0,1-.8766.87849V45.167h3.50653v-.43938a3.23564,3.23564,0,0,1-.87663-.87849,3.28336,3.28336,0,0,1-.54-1.985,2.08918,2.08918,0,0,0,.38261.75094,2.61233,2.61233,0,0,0,3.03723.64685A3.61516,3.61516,0,0,0,20.16919,38.78306Z"/><path d="M10.5608,24.43254l-.54993-.08474.14845-1.31433a27.67749,27.67749,0,0,0,3.67915.2542q3.80694,0,3.84954-4.87443a10.79486,10.79486,0,0,1-3.63783.80529q-4.56795,0-4.56859-4.26059a4.46451,4.46451,0,0,1,1.31158-3.39062,4.9047,4.9047,0,0,1,3.532-1.251q5.05591,0,5.05527,7.46105,0,3.62381-1.37484,5.28774a5.09121,5.09121,0,0,1-4.16711,1.66362A19.45254,19.45254,0,0,1,10.5608,24.43254ZM17.16,17.205l.54865-.19082q-.062-5.25571-3.38352-5.25669a3.08011,3.08011,0,0,0-2.31593.859,3.216,3.216,0,0,0-.83523,2.34148q0,2.81947,3.0027,2.81948A9.3365,9.3365,0,0,0,17.16,17.205Z"/><path d="M94.83081,128.21753c.54553,1.71793,2.13293,2.67941,3.37659,3.8503a10.95918,10.95918,0,0,1,2.25478,3.01264,10.95918,10.95918,0,0,1,2.25478-3.01264c1.24367-1.17089,2.831-2.13237,3.37656-3.8503a3.61511,3.61511,0,0,0-1.87489-4.47885,2.61236,2.61236,0,0,0-3.03724.64685,2.08908,2.08908,0,0,0-.38258.75084,3.28341,3.28341,0,0,1,.54-1.98487,3.23539,3.23539,0,0,1,.8766-.87849v-.43938H98.70892v.43938a3.23564,3.23564,0,0,1,.87663.87849,3.28336,3.28336,0,0,1,.54,1.985,2.08918,2.08918,0,0,0-.38261-.75094,2.61232,2.61232,0,0,0-3.03723-.64685A3.61516,3.61516,0,0,0,94.83081,128.21753Z"/><path d="M104.43962,142.56746l.54993.08538-.14845,1.31434a27.78888,27.78888,0,0,0-3.67915-.25485q-3.80694,0-3.84954,4.87572a10.76652,10.76652,0,0,1,3.63783-.80593q4.568,0,4.56859,4.25994a4.46847,4.46847,0,0,1-1.31158,3.39192,4.9068,4.9068,0,0,1-3.532,1.24965q-5.05591,0-5.05527-7.4604,0-3.62478,1.37484-5.28839a5.09512,5.09512,0,0,1,4.16711-1.66362A19.58759,19.58759,0,0,1,104.43962,142.56746Zm-6.59922,7.22885-.54865.19016q.062,5.25669,3.38352,5.25605a3.07763,3.07763,0,0,0,2.31593-.859,3.216,3.216,0,0,0,.83523-2.34148q0-2.81754-3.0027-2.81883A9.30341,9.30341,0,0,0,97.8404,149.79631Z"/><path d="M44.79648,28.22251c-.8183-2.5769-3.19939-4.01912-5.06489-5.77546a16.43852,16.43852,0,0,1-3.38217-4.519,16.43829,16.43829,0,0,1-3.38216,4.519c-1.8655,1.75634-4.24654,3.19856-5.06485,5.77546a5.42268,5.42268,0,0,0,2.81234,6.71827,3.91852,3.91852,0,0,0,4.55585-.97027,3.13356,3.13356,0,0,0,.57388-1.12627,4.92508,4.92508,0,0,1-.81006,2.97731,4.85317,4.85317,0,0,1-1.3149,1.31774v.65907h5.2598v-.65907a4.85335,4.85335,0,0,1-1.315-1.31774,4.92512,4.92512,0,0,1-.81-2.97746,3.13391,3.13391,0,0,0,.57392,1.12642,3.91848,3.91848,0,0,0,4.55585.97027A5.42274,5.42274,0,0,0,44.79648,28.22251Z"/><path d="M87.09762,28.22251c-.81831-2.5769-3.1994-4.01912-5.0649-5.77546a16.43829,16.43829,0,0,1-3.38216-4.519,16.43852,16.43852,0,0,1-3.38217,4.519c-1.8655,1.75634-4.24654,3.19856-5.06485,5.77546a5.42268,5.42268,0,0,0,2.81235,6.71827,3.91852,3.91852,0,0,0,4.55585-.97027,3.13354,3.13354,0,0,0,.57387-1.12627,4.925,4.925,0,0,1-.81006,2.97731,4.85327,4.85327,0,0,1-1.31489,1.31774v.65907h5.25979v-.65907a4.85349,4.85349,0,0,1-1.31495-1.31774,4.92512,4.92512,0,0,1-.81005-2.97746,3.13391,3.13391,0,0,0,.57392,1.12642,3.91849,3.91849,0,0,0,4.55585.97027A5.42275,5.42275,0,0,0,87.09762,28.22251Z"/><path d="M27.90238,138.77749c.81831,2.5769,3.1994,4.01912,5.0649,5.77546a16.43829,16.43829,0,0,1,3.38216,4.519,16.43852,16.43852,0,0,1,3.38217-4.519c1.8655-1.75634,4.24654-3.19856,5.06485-5.77546a5.42268,5.42268,0,0,0-2.81235-6.71827,3.91852,3.91852,0,0,0-4.55585.97027,3.13354,3.13354,0,0,0-.57387,1.12627,4.925,4.925,0,0,1,.81006-2.97731,4.85327,4.85327,0,0,1,1.31489-1.31774v-.65907H33.71955v.65907a4.85349,4.85349,0,0,1,1.315,1.31774,4.92512,4.92512,0,0,1,.81,2.97746,3.13391,3.13391,0,0,0-.57392-1.12642,3.91849,3.91849,0,0,0-4.55585-.97027A5.42275,5.42275,0,0,0,27.90238,138.77749Z"/><path d="M70.20352,138.77749c.8183,2.5769,3.19939,4.01912,5.06489,5.77546a16.43852,16.43852,0,0,1,3.38217,4.519,16.43829,16.43829,0,0,1,3.38216-4.519c1.8655-1.75634,4.24654-3.19856,5.06485-5.77546a5.42268,5.42268,0,0,0-2.81234-6.71827,3.91852,3.91852,0,0,0-4.55585.97027,3.13356,3.13356,0,0,0-.57388,1.12627,4.92508,4.92508,0,0,1,.81006-2.97731,4.85317,4.85317,0,0,1,1.3149-1.31774v-.65907h-5.2598v.65907a4.85335,4.85335,0,0,1,1.31495,1.31774,4.92512,4.92512,0,0,1,.81005,2.97746,3.13391,3.13391,0,0,0-.57392-1.12642,3.91848,3.91848,0,0,0-4.55585-.97027A5.42274,5.42274,0,0,0,70.20352,138.77749Z"/><path d="M44.79648,65.31369c-.8183-2.5769-3.19939-4.01912-5.06489-5.77546a16.43863,16.43863,0,0,1-3.38217-4.51895,16.43839,16.43839,0,0,1-3.38216,4.51895c-1.8655,1.75634-4.24654,3.19856-5.06485,5.77546A5.42269,5.42269,0,0,0,30.71475,72.032a3.91853,3.91853,0,0,0,4.55585-.97028,3.1336,3.1336,0,0,0,.57388-1.12626,4.92507,4.92507,0,0,1-.81006,2.9773,4.853,4.853,0,0,1-1.3149,1.31774v.65907h5.2598v-.65907a4.85321,4.85321,0,0,1-1.315-1.31774,4.92509,4.92509,0,0,1-.81-2.97745,3.13386,3.13386,0,0,0,.57392,1.12641,3.9185,3.9185,0,0,0,4.55585.97028A5.42276,5.42276,0,0,0,44.79648,65.31369Z"/><path d="M87.09762,65.31369c-.81831-2.5769-3.1994-4.01912-5.0649-5.77546a16.43839,16.43839,0,0,1-3.38216-4.51895,16.43863,16.43863,0,0,1-3.38217,4.51895c-1.8655,1.75634-4.24654,3.19856-5.06485,5.77546A5.42269,5.42269,0,0,0,73.01589,72.032a3.91854,3.91854,0,0,0,4.55585-.97028,3.13358,3.13358,0,0,0,.57387-1.12626,4.925,4.925,0,0,1-.81006,2.9773,4.85313,4.85313,0,0,1-1.31489,1.31774v.65907h5.25979v-.65907a4.85335,4.85335,0,0,1-1.31495-1.31774,4.92509,4.92509,0,0,1-.81005-2.97745,3.13386,3.13386,0,0,0,.57392,1.12641,3.91851,3.91851,0,0,0,4.55585.97028A5.42276,5.42276,0,0,0,87.09762,65.31369Z"/><path d="M70.20352,101.68631c.8183,2.5769,3.19939,4.01912,5.06489,5.77546a16.43863,16.43863,0,0,1,3.38217,4.519,16.43839,16.43839,0,0,1,3.38216-4.519c1.8655-1.75634,4.24654-3.19856,5.06485-5.77546A5.42269,5.42269,0,0,0,84.28525,94.968a3.91853,3.91853,0,0,0-4.55585.97028,3.1336,3.1336,0,0,0-.57388,1.12626,4.92507,4.92507,0,0,1,.81006-2.9773,4.853,4.853,0,0,1,1.3149-1.31774v-.65907h-5.2598v.65907a4.85321,4.85321,0,0,1,1.31495,1.31774,4.92509,4.92509,0,0,1,.81005,2.97745,3.13386,3.13386,0,0,0-.57392-1.12641,3.9185,3.9185,0,0,0-4.55585-.97028A5.42276,5.42276,0,0,0,70.20352,101.68631Z"/><path d="M27.90238,101.68631c.81831,2.5769,3.1994,4.01912,5.0649,5.77546a16.43839,16.43839,0,0,1,3.38216,4.519,16.43863,16.43863,0,0,1,3.38217-4.519c1.8655-1.75634,4.24654-3.19856,5.06485-5.77546A5.42269,5.42269,0,0,0,41.98411,94.968a3.91854,3.91854,0,0,0-4.55585.97028,3.13358,3.13358,0,0,0-.57387,1.12626,4.925,4.925,0,0,1,.81006-2.9773,4.85313,4.85313,0,0,1,1.31489-1.31774v-.65907H33.71955v.65907a4.85335,4.85335,0,0,1,1.315,1.31774,4.92509,4.92509,0,0,1,.81,2.97745,3.13386,3.13386,0,0,0-.57392-1.12641,3.91851,3.91851,0,0,0-4.55585-.97028A5.42276,5.42276,0,0,0,27.90238,101.68631Z"/><path d="M65.94705,83.85929c-.8183-2.57691-3.1994-4.01912-5.0649-5.77547A16.43859,16.43859,0,0,1,57.5,73.56487a16.43843,16.43843,0,0,1-3.38217,4.519c-1.8655,1.75635-4.24653,3.19856-5.06484,5.77547a5.42267,5.42267,0,0,0,2.81234,6.71827,3.91855,3.91855,0,0,0,4.55585-.97027,3.13388,3.13388,0,0,0,.57388-1.12627,4.925,4.925,0,0,1-.81007,2.9773,4.853,4.853,0,0,1-1.31489,1.31774v.65907h5.2598v-.65907a4.85307,4.85307,0,0,1-1.315-1.31774,4.925,4.925,0,0,1-.81-2.97745,3.134,3.134,0,0,0,.57391,1.12642,3.91852,3.91852,0,0,0,4.55585.97027A5.42275,5.42275,0,0,0,65.94705,83.85929Z"/></g></svg>