<svg xmlns="http://www.w3.org/2000/svg" viewBox="0 0 115 167"><defs><style>.cls-1{fill:#fff;}.cls-2{fill:#ff3b5c;}</style></defs><title>card-hearts-3</title><g id="artwork"><rect class="cls-1" width="115" height="167" rx="8"/><path class="cls-2" d="M10.58511,24.307l-.65579-.14746.14846-1.33626a19.51326,19.51326,0,0,0,3.80694.50837,4.60119,4.60119,0,0,0,2.55927-.61444,2.37041,2.37041,0,0,0,.93076-2.14086q0-2.54185-2.87684-2.62723H11.685V16.55074h2.81293a2.4063,2.4063,0,0,0,1.1954-.32857,2.73939,2.73939,0,0,0,.96239-.92231,2.42109,2.42109,0,0,0,.38018-1.335,2.007,2.007,0,0,0-.66612-1.68552,3.60661,3.60661,0,0,0-2.18877-.51872,17.70524,17.70524,0,0,0-3.34156.31692l-.54994.10608L10.141,10.89138a14.77115,14.77115,0,0,1,4.273-.59375,5.00373,5.00373,0,0,1,3.27767.86928,3.46386,3.46386,0,0,1,1.016,2.776,3.50174,3.50174,0,0,1-.54994,1.908A3.21612,3.21612,0,0,1,16.6344,17.1225a5.37763,5.37763,0,0,1,1.37484.69982,2.37961,2.37961,0,0,1,.772,1.02709,4.44574,4.44574,0,0,1,.26464,1.66482A4.16958,4.16958,0,0,1,17.946,23.70288a4.884,4.884,0,0,1-3.42612,1.02839A20.14334,20.14334,0,0,1,10.58511,24.307Z"/><path class="cls-2" d="M14.54128,45.24023a25.15118,25.15118,0,0,1,2.33443-3.11895c1.62468-1.85194,3.72992-3.72788,3.80593-6.385a3.7434,3.7434,0,0,0-1.56109-3.27742,2.77942,2.77942,0,0,0-3.30514.1667,2.84721,2.84721,0,0,0-.96287,1.69836c-.02934.17673-.07364.46783-.31126.46783s-.28193-.2911-.31125-.46783a2.84722,2.84722,0,0,0-.96288-1.69836,2.77941,2.77941,0,0,0-3.30513-.1667,3.74343,3.74343,0,0,0-1.56109,3.27742c.076,2.65711,2.18125,4.53305,3.80591,6.385A25.15026,25.15026,0,0,1,14.54128,45.24023Z"/><path class="cls-2" d="M104.41487,142.693l.6558.14876-.14846,1.335a19.635,19.635,0,0,0-3.807-.50967,4.60456,4.60456,0,0,0-2.5599.61574,2.37026,2.37026,0,0,0-.92947,2.13956q0,2.5438,2.87618,2.62853H103.315v1.39964h-2.81293a2.40287,2.40287,0,0,0-1.1954.32728,2.73536,2.73536,0,0,0-.963.92231,2.42594,2.42594,0,0,0-.37953,1.335,2.007,2.007,0,0,0,.66612,1.68552,3.60752,3.60752,0,0,0,2.18941.51872,17.59294,17.59294,0,0,0,3.34092-.31822l.54994-.10607.14845,1.29357a14.72707,14.72707,0,0,1-4.273.59375,5.00372,5.00372,0,0,1-3.27766-.86928,3.46713,3.46713,0,0,1-1.016-2.77729,3.50607,3.50607,0,0,1,.54993-1.90672,3.212,3.212,0,0,1,1.5233-1.27158,5.37746,5.37746,0,0,1-1.37484-.69982,2.37954,2.37954,0,0,1-.772-1.02709,4.46073,4.46073,0,0,1-.26464-1.66353,4.17465,4.17465,0,0,1,1.09987-3.18994,4.884,4.884,0,0,1,3.42612-1.02839A20.04371,20.04371,0,0,1,104.41487,142.693Z"/><path class="cls-2" d="M100.45872,121.93559a25.15043,25.15043,0,0,1-2.33443,3.11895c-1.62468,1.85194-3.72992,3.72788-3.80593,6.385a3.7434,3.7434,0,0,0,1.56109,3.27742,2.77942,2.77942,0,0,0,3.30514-.1667,2.84721,2.84721,0,0,0,.96287-1.69836c.02934-.17673.07364-.46783.31126-.46783s.28193.2911.31125.46783a2.84722,2.84722,0,0,0,.96288,1.69836,2.77941,2.77941,0,0,0,3.30513.1667,3.74343,3.74343,0,0,0,1.56109-3.27742c-.076-2.65711-2.18125-4.533-3.80591-6.385A25.14951,25.14951,0,0,1,100.45872,121.93559Z"/><path class="cls-2" d="M57.5,37.7144A37.72736,37.72736,0,0,1,61.00163,33.036c2.437-2.77791,5.59489-5.59182,5.7089-9.57749a5.6151,5.6151,0,0,0-2.34163-4.91612,4.16912,4.16912,0,0,0-4.95772.25,4.27085,4.27085,0,0,0-1.4443,2.54754c-.044.2651-.11045.70175-.4669.70175s-.42288-.43665-.46686-.70175a4.27084,4.27084,0,0,0-1.44433-2.54754,4.16908,4.16908,0,0,0-4.95769-.25,5.6151,5.6151,0,0,0-2.34163,4.91612c.114,3.98567,3.27187,6.79958,5.70887,9.57749A37.72329,37.72329,0,0,1,57.5,37.7144Z"/><path class="cls-2" d="M57.5,93.4346a37.72885,37.72885,0,0,1,3.50165-4.67843c2.437-2.77791,5.59489-5.59182,5.7089-9.57748a5.61512,5.61512,0,0,0-2.34163-4.91613,4.16914,4.16914,0,0,0-4.95772.25005,4.27085,4.27085,0,0,0-1.4443,2.54754c-.044.26509-.11045.70174-.4669.70174s-.42288-.43665-.46686-.70174a4.27084,4.27084,0,0,0-1.44433-2.54754,4.16909,4.16909,0,0,0-4.95769-.25005,5.61512,5.61512,0,0,0-2.34163,4.91613c.114,3.98566,3.27187,6.79957,5.70887,9.57748A37.72479,37.72479,0,0,1,57.5,93.4346Z"/><path class="cls-2" d="M57.5,129.2856a37.72736,37.72736,0,0,1-3.50165,4.67843c-2.437,2.77791-5.59489,5.59182-5.7089,9.57749a5.6151,5.6151,0,0,0,2.34163,4.91612,4.16912,4.16912,0,0,0,4.95772-.25,4.27085,4.27085,0,0,0,1.4443-2.54754c.044-.2651.11045-.70175.4669-.70175s.42288.43665.46686.70175a4.27084,4.27084,0,0,0,1.44433,2.54754,4.16908,4.16908,0,0,0,4.95769.25,5.6151,5.6151,0,0,0,2.34163-4.91612c-.114-3.98567-3.27187-6.79958-5.70887-9.57749A37.72329,37.72329,0,0,1,57.5,129.2856Z"/></g></svg>