<svg xmlns="http://www.w3.org/2000/svg" viewBox="0 0 87 127"><defs><style>.cls-1{fill:#fff;}.cls-2{fill:#ff3b5c;}</style></defs><title>card-hearts-k</title><g id="artwork"><rect class="cls-1" x="0.00232" width="86.99536" height="127" rx="6"/><path class="cls-2" d="M10.88114,13.9739l-1.83984.06361v4.84217H7.80985V7.78418H9.0413v5.16315l1.82422-.06361,2.832-5.09954h1.4082l-3.168,5.58,3.34375,5.51546h-1.456Z"/><path class="cls-2" d="M11.00252,34.55574a19.0278,19.0278,0,0,1,1.766-2.35955c1.229-1.401,2.82162-2.82022,2.87911-4.83039a2.832,2.832,0,0,0-1.18093-2.47943,2.10249,2.10249,0,0,0-2.50028.12611,2.154,2.154,0,0,0-.72839,1.28484c-.02219.1337-.0557.35393-.23547.35393s-.21327-.22023-.23545-.35393a2.154,2.154,0,0,0-.7284-1.28484,2.10247,2.10247,0,0,0-2.50027-.12611A2.832,2.832,0,0,0,6.35747,27.3658c.05748,2.01017,1.65007,3.42935,2.8791,4.83039A19.02474,19.02474,0,0,1,11.00252,34.55574Z"/><path class="cls-2" d="M76.11942,113.02708l1.83985-.06459v-4.84217h1.23144v11.0955H77.95927v-5.16315l-1.82422.06458-2.832,5.09857H71.89481l3.168-5.58L71.719,108.12032h1.45606Z"/><path class="cls-2" d="M75.99748,92.57745a19.0278,19.0278,0,0,1-1.766,2.35955c-1.229,1.401-2.82162,2.82022-2.87911,4.83039a2.832,2.832,0,0,0,1.18093,2.47943,2.10249,2.10249,0,0,0,2.50028-.12611,2.154,2.154,0,0,0,.72839-1.28484c.02219-.1337.0557-.35393.23547-.35393s.21327.22023.23545.35393a2.154,2.154,0,0,0,.7284,1.28484,2.10247,2.10247,0,0,0,2.50027.12611,2.832,2.832,0,0,0,1.18093-2.47943c-.05748-2.01017-1.65007-3.42936-2.8791-4.83039A19.02474,19.02474,0,0,1,75.99748,92.57745Z"/><path d="M55.75844,31.496h0a.71131.71131,0,0,1,.71131.71131v1.93317a.71131.71131,0,0,1-.71131.71131h0a.7113.7113,0,0,1-.7113-.7113V32.20727A.71131.71131,0,0,1,55.75844,31.496Z" transform="translate(22.58459 88.9323) rotate(-90)"/><path d="M55.14815,33.17385h0a1.50328,1.50328,0,0,0-1.50328-1.50328H31.05474c-.83024,0-1.50328,1.50328-1.50328,1.50328h0s.673,1.50329,1.50328,1.50329H53.64487A1.50329,1.50329,0,0,0,55.14815,33.17385Z"/><path class="cls-1" d="M54.70245,34.55575H31.05474c-.6488,0-1.232-1.10474-1.3424-1.32617l-.02771-.05567.02783-.05591c.11059-.22143.69531-1.32592,1.34228-1.32592H54.70245v.25H31.05474c-.34912,0-.80224.57641-1.09021,1.13183.28711.55567.74,1.13184,1.09021,1.13184H54.70245Z"/><path class="cls-2" d="M54.70471,33.17416a7.41285,7.41285,0,0,1,.68923-.919,3.209,3.209,0,0,0,1.12368-1.88129,1.10216,1.10216,0,0,0-.4609-.96567.822.822,0,0,0-.97583.04912.83851.83851,0,0,0-.28428.50041c-.00866.05207-.02174.13784-.0919.13784s-.08324-.08577-.09189-.13784a.83852.83852,0,0,0-.28429-.50041.82194.82194,0,0,0-.97582-.04912,1.10216,1.10216,0,0,0-.46091.96567,3.209,3.209,0,0,0,1.12368,1.88129A7.41186,7.41186,0,0,1,54.70471,33.17416Z"/><path class="cls-2" d="M54.70472,33.17355a7.41285,7.41285,0,0,1-.68923.919,3.209,3.209,0,0,0-1.12369,1.88129,1.10215,1.10215,0,0,0,.46091.96566.82194.82194,0,0,0,.97582-.04911.83855.83855,0,0,0,.28429-.50041c.00866-.05208.02174-.13785.0919-.13785s.08323.08577.09189.13785a.83855.83855,0,0,0,.28429.50041.82194.82194,0,0,0,.97582.04911,1.10214,1.10214,0,0,0,.4609-.96566A3.20893,3.20893,0,0,0,55.394,34.09253,7.41086,7.41086,0,0,1,54.70472,33.17355Z"/><path class="cls-1" d="M54.70471,33.17328a4.12563,4.12563,0,0,1,.38367-.51155,1.78629,1.78629,0,0,0,.62551-1.04724.61354.61354,0,0,0-.25657-.53755.45754.45754,0,0,0-.5432.02734.46673.46673,0,0,0-.15825.27856c-.00482.029-.0121.07673-.05116.07673s-.04633-.04774-.05115-.07673a.46678.46678,0,0,0-.15825-.27856.45755.45755,0,0,0-.5432-.02734.61352.61352,0,0,0-.25657.53755,1.78629,1.78629,0,0,0,.62551,1.04724A4.12655,4.12655,0,0,1,54.70471,33.17328Z"/><path class="cls-1" d="M54.70472,33.17442a4.127,4.127,0,0,1-.38367.51156,1.78629,1.78629,0,0,0-.62551,1.04724.61352.61352,0,0,0,.25657.53755.45755.45755,0,0,0,.5432-.02735.46671.46671,0,0,0,.15825-.27855c.00482-.029.0121-.07674.05116-.07674s.04633.04775.05115.07674a.46671.46671,0,0,0,.15825.27855.45755.45755,0,0,0,.5432.02735.61354.61354,0,0,0,.25657-.53755,1.78629,1.78629,0,0,0-.62551-1.04724A4.12491,4.12491,0,0,1,54.70472,33.17442Z"/><rect class="cls-1" x="32.69915" y="33.04879" width="22.00452" height="0.25"/><path d="M43.51763,60.94711c-5.06335,0-8.8739-7.20313-8.8739-11.87378h.5c0,4.49145,3.75147,11.37378,8.3739,11.37378s8.37378-6.88233,8.37378-11.37378h.5C52.39141,53.744,48.58087,60.94711,43.51763,60.94711Z"/><rect x="43.26763" y="46.7181" width="0.5" height="5.74609"/><rect class="cls-2" x="41.17535" y="55.12313" width="4.68445" height="0.5"/><circle cx="49.14344" cy="45.0677" r="1.11964"/><circle cx="37.89177" cy="45.0677" r="1.11964"/><rect x="51.87252" y="38.43621" width="5.57585" height="19.48399" rx="2.78792"/><path d="M54.66046,58.4266a2.28809,2.28809,0,1,1-2.28809,2.28808,2.29059,2.29059,0,0,1,2.28809-2.28808m0-.5a2.78809,2.78809,0,1,0,2.78808,2.78808,2.78842,2.78842,0,0,0-2.78808-2.78808Z"/><path class="cls-2" d="M54.66044,62.11a4.59113,4.59113,0,0,1,.42688-.56917,1.98753,1.98753,0,0,0,.696-1.16519.68266.68266,0,0,0-.28546-.5981.5091.5091,0,0,0-.60439.03042.51929.51929,0,0,0-.17607.30994c-.00537.03225-.01347.08537-.05692.08537s-.05156-.05312-.05692-.08537a.51934.51934,0,0,0-.17607-.30994.5091.5091,0,0,0-.60439-.03042.68266.68266,0,0,0-.28546.5981,1.98753,1.98753,0,0,0,.696,1.16519A4.59113,4.59113,0,0,1,54.66044,62.11Z"/><rect x="29.58685" y="38.43621" width="5.57585" height="19.48399" rx="2.78792"/><path d="M32.37481,58.4266a2.28809,2.28809,0,1,1-2.28808,2.28808,2.29059,2.29059,0,0,1,2.28808-2.28808m0-.5a2.78809,2.78809,0,1,0,2.78809,2.78808,2.7881,2.7881,0,0,0-2.78809-2.78808Z"/><path class="cls-2" d="M32.37477,62.11a4.59113,4.59113,0,0,1,.42688-.56917,1.98753,1.98753,0,0,0,.696-1.16519.68266.68266,0,0,0-.28546-.5981.5091.5091,0,0,0-.60439.03042.51929.51929,0,0,0-.17607.30994c-.00537.03225-.01347.08537-.05692.08537s-.05156-.05312-.05692-.08537a.51934.51934,0,0,0-.17607-.30994.5091.5091,0,0,0-.60439-.03042.68266.68266,0,0,0-.28546.5981,1.98753,1.98753,0,0,0,.696,1.16519A4.59013,4.59013,0,0,1,32.37477,62.11Z"/><path class="cls-2" d="M37.94708,38.8629a2.92834,2.92834,0,0,0-2.78614,2.04688v-6.186a2.78593,2.78593,0,0,1,2.78565-2.78613h.00049a2.78593,2.78593,0,0,1,2.78564,2.78613v6.186A2.92862,2.92862,0,0,0,37.94708,38.8629Z"/><path class="cls-2" d="M43.51934,38.8629a2.92923,2.92923,0,0,0-2.78613,2.04688v-6.186a2.78624,2.78624,0,0,1,2.78564-2.78613h.00049A2.78593,2.78593,0,0,1,46.305,34.72374v6.186A2.92819,2.92819,0,0,0,43.51934,38.8629Z"/><path class="cls-2" d="M49.0921,38.8629A2.9288,2.9288,0,0,0,46.306,40.90978v-6.186a2.78593,2.78593,0,0,1,2.78565-2.78613h.00049a2.78593,2.78593,0,0,1,2.78564,2.78613v6.186A2.92862,2.92862,0,0,0,49.0921,38.8629Z"/><path d="M37.94708,30.98449a2.92834,2.92834,0,0,1-2.78614-2.04688v6.186a2.78593,2.78593,0,0,0,2.78565,2.78613h.00049a2.78593,2.78593,0,0,0,2.78564-2.78613v-6.186A2.92862,2.92862,0,0,1,37.94708,30.98449Z"/><path d="M43.51934,30.98449a2.92923,2.92923,0,0,1-2.78613-2.04688v6.186a2.78624,2.78624,0,0,0,2.78564,2.78613h.00049A2.78593,2.78593,0,0,0,46.305,35.12365v-6.186A2.92819,2.92819,0,0,1,43.51934,30.98449Z"/><path d="M49.0921,30.98449A2.9288,2.9288,0,0,1,46.306,28.93761v6.186a2.78593,2.78593,0,0,0,2.78565,2.78613h.00049a2.78593,2.78593,0,0,0,2.78564-2.78613v-6.186A2.92862,2.92862,0,0,1,49.0921,30.98449Z"/><path class="cls-2" d="M43.5729,33.71837a14.3705,14.3705,0,0,1,1.33626-1.78169c.93-1.05791,2.13506-2.12953,2.17857-3.64739a2.13683,2.13683,0,0,0-.89359-1.87221,1.59357,1.59357,0,0,0-1.89191.09522,1.62571,1.62571,0,0,0-.55116.97018c-.01679.101-.04215.26725-.17817.26725s-.16138-.16629-.17816-.26725a1.62572,1.62572,0,0,0-.55117-.97018,1.59356,1.59356,0,0,0-1.8919-.09522,2.13683,2.13683,0,0,0-.89359,1.87221c.0435,1.51786,1.24858,2.58948,2.17856,3.64739A14.3695,14.3695,0,0,1,43.5729,33.71837Z"/><path class="cls-2" d="M51.87562,28.94592a3.229,3.229,0,0,1,.3001-.40013,1.39715,1.39715,0,0,0,.48926-.81912.47987.47987,0,0,0-.20068-.42046.35786.35786,0,0,0-.42488.02139.365.365,0,0,0-.12378.21788c-.00377.02267-.00947.06-.04.06s-.03624-.03734-.04-.06a.36509.36509,0,0,0-.12378-.21788.35786.35786,0,0,0-.42488-.02139.47987.47987,0,0,0-.20068.42046,1.3972,1.3972,0,0,0,.48926.81912A3.22787,3.22787,0,0,1,51.87562,28.94592Z"/><path class="cls-2" d="M35.15958,28.94592a3.229,3.229,0,0,1,.3001-.40013,1.3972,1.3972,0,0,0,.48926-.81912.47987.47987,0,0,0-.20068-.42046.35786.35786,0,0,0-.42488.02139.365.365,0,0,0-.12378.21788c-.00377.02267-.00947.06-.04.06s-.03624-.03734-.04-.06a.36509.36509,0,0,0-.12378-.21788.35786.35786,0,0,0-.42488-.02139.47987.47987,0,0,0-.20068.42046,1.39715,1.39715,0,0,0,.48926.81912A3.22787,3.22787,0,0,1,35.15958,28.94592Z"/><path d="M31.24156,92.14825h0a.71131.71131,0,0,1,.71131.71131v1.93317a.71131.71131,0,0,1-.71131.71131h0a.7113.7113,0,0,1-.7113-.7113V92.85956a.71131.71131,0,0,1,.71131-.71131Z" transform="translate(125.0677 62.58459) rotate(90)"/><path d="M31.85185,93.82615h0a1.50328,1.50328,0,0,0,1.50328,1.50328H55.94526c.83024,0,1.50328-1.50328,1.50328-1.50328h0s-.673-1.50329-1.50328-1.50329H33.35513A1.50329,1.50329,0,0,0,31.85185,93.82615Z"/><path class="cls-1" d="M32.29755,92.44425H55.94526c.6488,0,1.23205,1.10474,1.3424,1.32617l.02771.05567-.02783.05591c-.11059.22143-.69531,1.32592-1.34228,1.32592H32.29755v-.25H55.94526c.34912,0,.80224-.57641,1.09021-1.13183-.28711-.55567-.74-1.13184-1.09021-1.13184H32.29755Z"/><path class="cls-2" d="M32.29529,93.82584a7.41285,7.41285,0,0,1-.68923.919,3.209,3.209,0,0,0-1.12368,1.88129,1.10216,1.10216,0,0,0,.4609.96567.822.822,0,0,0,.97583-.04912.83851.83851,0,0,0,.28428-.50041c.00866-.05207.02174-.13784.0919-.13784s.08324.08577.09189.13784a.83852.83852,0,0,0,.28429.50041.82194.82194,0,0,0,.97582.04912,1.10216,1.10216,0,0,0,.46091-.96567,3.209,3.209,0,0,0-1.12368-1.88129A7.41186,7.41186,0,0,1,32.29529,93.82584Z"/><path class="cls-2" d="M32.29528,93.82645a7.41285,7.41285,0,0,1,.68923-.919,3.209,3.209,0,0,0,1.12369-1.88129,1.10215,1.10215,0,0,0-.46091-.96566.82194.82194,0,0,0-.97582.04911.83855.83855,0,0,0-.28429.50041c-.00866.05208-.02174.13785-.0919.13785s-.08323-.08577-.09189-.13785a.83855.83855,0,0,0-.28429-.50041.82194.82194,0,0,0-.97582-.04911,1.10214,1.10214,0,0,0-.4609.96566,3.20893,3.20893,0,0,0,1.12367,1.88129A7.41086,7.41086,0,0,1,32.29528,93.82645Z"/><path class="cls-1" d="M32.29529,93.82672a4.12563,4.12563,0,0,1-.38367.51155,1.78629,1.78629,0,0,0-.62551,1.04724.61354.61354,0,0,0,.25657.53755.45754.45754,0,0,0,.5432-.02734.46673.46673,0,0,0,.15825-.27856c.00482-.029.0121-.07673.05116-.07673s.04633.04774.05115.07673a.46678.46678,0,0,0,.15825.27856.45755.45755,0,0,0,.5432.02734.61352.61352,0,0,0,.25657-.53755,1.78629,1.78629,0,0,0-.62551-1.04724A4.12655,4.12655,0,0,1,32.29529,93.82672Z"/><path class="cls-1" d="M32.29528,93.82558A4.127,4.127,0,0,1,32.679,93.314a1.78629,1.78629,0,0,0,.62551-1.04724.61352.61352,0,0,0-.25657-.53755.45755.45755,0,0,0-.5432.02735.46671.46671,0,0,0-.15825.27855c-.00482.029-.0121.07674-.05116.07674s-.04633-.04775-.05115-.07674a.46671.46671,0,0,0-.15825-.27855.45755.45755,0,0,0-.5432-.02735.61354.61354,0,0,0-.25657.53755,1.78629,1.78629,0,0,0,.62551,1.04724A4.12491,4.12491,0,0,1,32.29528,93.82558Z"/><rect class="cls-1" x="32.29633" y="93.70121" width="22.00452" height="0.25"/><path d="M43.48237,66.05289c5.06335,0,8.8739,7.20313,8.8739,11.87378h-.5c0-4.49145-3.75147-11.37378-8.3739-11.37378s-8.37378,6.88233-8.37378,11.37378h-.5C34.60859,73.256,38.41913,66.05289,43.48237,66.05289Z"/><rect x="43.23237" y="74.5358" width="0.5" height="5.74609"/><rect class="cls-2" x="41.1402" y="71.37687" width="4.68445" height="0.5"/><circle cx="37.85656" cy="81.9323" r="1.11964"/><circle cx="49.10823" cy="81.9323" r="1.11964"/><rect x="29.55164" y="69.0798" width="5.57585" height="19.48399" rx="2.78792" transform="translate(64.67912 157.64359) rotate(180)"/><path d="M32.33954,68.5734a2.28809,2.28809,0,1,1,2.28809-2.28808,2.29059,2.29059,0,0,1-2.28809,2.28808m0,.5a2.78809,2.78809,0,1,0-2.78808-2.78808,2.78842,2.78842,0,0,0,2.78808,2.78808Z"/><path class="cls-2" d="M32.33956,64.89a4.59113,4.59113,0,0,1-.42688.56917,1.98753,1.98753,0,0,0-.696,1.16519.68266.68266,0,0,0,.28546.5981.5091.5091,0,0,0,.60439-.03042.51929.51929,0,0,0,.17607-.30994c.00537-.03225.01347-.08537.05692-.08537s.05156.05312.05692.08537a.51934.51934,0,0,0,.17607.30994.5091.5091,0,0,0,.60439.03042.68266.68266,0,0,0,.28546-.5981,1.98753,1.98753,0,0,0-.696-1.16519A4.59113,4.59113,0,0,1,32.33956,64.89Z"/><rect x="51.83731" y="69.0798" width="5.57585" height="19.48399" rx="2.78792" transform="translate(109.25046 157.64359) rotate(-180)"/><path d="M54.62519,68.5734a2.28809,2.28809,0,1,1,2.28808-2.28808,2.29059,2.29059,0,0,1-2.28808,2.28808m0,.5a2.78809,2.78809,0,1,0-2.78809-2.78808,2.7881,2.7881,0,0,0,2.78809,2.78808Z"/><path class="cls-2" d="M54.62523,64.89a4.59113,4.59113,0,0,1-.42688.56917,1.98753,1.98753,0,0,0-.696,1.16519.68266.68266,0,0,0,.28546.5981.5091.5091,0,0,0,.60439-.03042.51929.51929,0,0,0,.17607-.30994c.00537-.03225.01347-.08537.05692-.08537s.05156.05312.05692.08537a.51934.51934,0,0,0,.17607.30994.5091.5091,0,0,0,.60439.03042.68266.68266,0,0,0,.28546-.5981,1.98753,1.98753,0,0,0-.696-1.16519A4.59013,4.59013,0,0,1,54.62523,64.89Z"/><path class="cls-2" d="M49.05292,88.1371a2.92834,2.92834,0,0,0,2.78614-2.04688v6.186a2.78593,2.78593,0,0,1-2.78565,2.78613h-.00049a2.78593,2.78593,0,0,1-2.78564-2.78613v-6.186A2.92862,2.92862,0,0,0,49.05292,88.1371Z"/><path class="cls-2" d="M43.48066,88.1371a2.92923,2.92923,0,0,0,2.78613-2.04688v6.186a2.78624,2.78624,0,0,1-2.78564,2.78613h-.00049A2.78593,2.78593,0,0,1,40.695,92.27626v-6.186A2.92819,2.92819,0,0,0,43.48066,88.1371Z"/><path class="cls-2" d="M37.9079,88.1371A2.9288,2.9288,0,0,0,40.694,86.09022v6.186a2.78593,2.78593,0,0,1-2.78565,2.78613H37.9079a2.78593,2.78593,0,0,1-2.78564-2.78613v-6.186A2.92862,2.92862,0,0,0,37.9079,88.1371Z"/><path d="M49.05292,96.01551a2.92834,2.92834,0,0,1,2.78614,2.04688v-6.186a2.78593,2.78593,0,0,0-2.78565-2.78613h-.00049a2.78593,2.78593,0,0,0-2.78564,2.78613v6.186A2.92862,2.92862,0,0,1,49.05292,96.01551Z"/><path d="M43.48066,96.01551a2.92923,2.92923,0,0,1,2.78613,2.04688v-6.186a2.78624,2.78624,0,0,0-2.78564-2.78613h-.00049A2.78593,2.78593,0,0,0,40.695,91.87635v6.186A2.92819,2.92819,0,0,1,43.48066,96.01551Z"/><path d="M37.9079,96.01551A2.9288,2.9288,0,0,1,40.694,98.06239v-6.186a2.78593,2.78593,0,0,0-2.78565-2.78613H37.9079a2.78593,2.78593,0,0,0-2.78564,2.78613v6.186A2.92862,2.92862,0,0,1,37.9079,96.01551Z"/><path class="cls-2" d="M43.4271,93.28163a14.3705,14.3705,0,0,1-1.33626,1.78169c-.93,1.05791-2.13506,2.12953-2.17857,3.64739a2.13683,2.13683,0,0,0,.89359,1.87221,1.59357,1.59357,0,0,0,1.89191-.09522,1.62571,1.62571,0,0,0,.55116-.97018c.01679-.101.04215-.26725.17817-.26725s.16138.16629.17816.26725a1.62572,1.62572,0,0,0,.55117.97018,1.59356,1.59356,0,0,0,1.8919.09522,2.13683,2.13683,0,0,0,.89359-1.87221c-.0435-1.51786-1.24858-2.58948-2.17856-3.64739A14.3695,14.3695,0,0,1,43.4271,93.28163Z"/><path class="cls-2" d="M35.12438,98.05408a3.229,3.229,0,0,1-.3001.40013,1.39715,1.39715,0,0,0-.48926.81912.47987.47987,0,0,0,.20068.42046.35786.35786,0,0,0,.42488-.02139.365.365,0,0,0,.12378-.21788c.00377-.02267.00947-.06.04-.06s.03624.03734.04.06a.36509.36509,0,0,0,.12378.21788.35786.35786,0,0,0,.42488.02139.47987.47987,0,0,0,.20068-.42046,1.3972,1.3972,0,0,0-.48926-.81912A3.22787,3.22787,0,0,1,35.12438,98.05408Z"/><path class="cls-2" d="M51.84042,98.05408a3.229,3.229,0,0,1-.3001.40013,1.3972,1.3972,0,0,0-.48926.81912.47987.47987,0,0,0,.20068.42046.35786.35786,0,0,0,.42488-.02139.365.365,0,0,0,.12378-.21788c.00377-.02267.00947-.06.04-.06s.03624.03734.04.06a.36509.36509,0,0,0,.12378.21788.35786.35786,0,0,0,.42488.02139.47987.47987,0,0,0,.20068-.42046,1.39715,1.39715,0,0,0-.48926-.81912A3.22787,3.22787,0,0,1,51.84042,98.05408Z"/></g></svg>