<svg xmlns="http://www.w3.org/2000/svg" xmlns:xlink="http://www.w3.org/1999/xlink" width="34" height="34" viewBox="0 0 34 34"><defs><style>.a{clip-path:url(#a);}.b{fill:#ff1612;}.c{fill:#0456bd;}.d{fill:#fff;}.e{fill:#fedc36;fill-rule:evenodd;}</style><clipPath id="a"><path d="M36.9,19.9a17,17,0,1,1-17-17h0A17.006,17.006,0,0,1,36.9,19.9Z" transform="translate(-2.9 -2.9)"/></clipPath></defs><g class="a" transform="translate(0 0)"><path class="b" d="M-71.1,2.9l29.586,17h21.4v17H-71.1l29.586-17Z" transform="translate(62.548 -2.9)"/><path class="c" d="M-71.1,2.9h50.989v17h-21.4Z" transform="translate(62.548 -2.9)"/><path class="d" d="M-41.514,19.9-71.1,36.9V2.9Z" transform="translate(62.548 -2.9)"/><path class="e" d="M-55.573,35.772l.428.393-.208,3.328a1.422,1.422,0,0,1,.231.023l.37-2.982.358.335-.543,2.681a3.176,3.176,0,0,1,1.225.508l1.514-2.277.5.023-1.849,2.369a2.111,2.111,0,0,1,.185.15l2.207-2.5.578.023.023.578-2.5,2.207a1.167,1.167,0,0,1,.15.185l2.369-1.849.023.5-2.277,1.514a3.365,3.365,0,0,1,.508,1.225l2.681-.543.335.358-2.982.37a1.566,1.566,0,0,1,.023.231l3.328-.208.393.428-.393.428-3.328-.208a1.423,1.423,0,0,1-.023.231l2.982.37-.335.358-2.681-.543a3.176,3.176,0,0,1-.508,1.225l2.277,1.514-.023.5L-52.9,44.868a2.11,2.11,0,0,1-.15.185l2.5,2.207-.023.578-.578.023-2.207-2.5a1.167,1.167,0,0,1-.185.15l1.849,2.369-.5.023-1.514-2.277a3.365,3.365,0,0,1-1.225.508l.543,2.681-.358.335-.37-3.016a1.736,1.736,0,0,1-.231.023l.208,3.328-.428.393L-56,49.49l.208-3.328a1.423,1.423,0,0,1-.231-.023l-.37,2.982-.358-.335.543-2.681a3.176,3.176,0,0,1-1.225-.509l-1.514,2.277-.5-.023L-57.6,45.48a2.111,2.111,0,0,1-.185-.15l-2.207,2.508-.578-.023-.023-.578,2.5-2.207c-.046-.058-.1-.116-.15-.185l-2.369,1.849-.023-.5,2.277-1.5a3.365,3.365,0,0,1-.508-1.225l-2.681.543-.335-.358,2.982-.37a1.739,1.739,0,0,1-.023-.231l-3.328.208-.393-.428.393-.428,3.328.208a1.424,1.424,0,0,1,.023-.231l-2.982-.37.335-.358,2.681.543a3.176,3.176,0,0,1,.508-1.225l-2.277-1.514.023-.5,2.369,1.849.15-.185-2.5-2.207.023-.578.578-.023,2.207,2.5.185-.15-1.849-2.369.5-.023,1.514,2.277a3.578,3.578,0,0,1,1.225-.509l-.555-2.67.358-.335.37,2.982a1.736,1.736,0,0,1,.231-.023l-.2-3.328Zm13.949,5.293v1.341l1.283.416-1.283.416v1.341l-.786-1.086-1.271.416.8-1.086-.8-1.086,1.271.416.786-1.086ZM-63.582,53.223l.555,1.225,1.329-.15-.994.9.555,1.225-1.167-.67-.994.913.277-1.317-1.167-.659,1.341-.15.266-1.317ZM-64.322,29l1.005.9,1.156-.682-.543,1.225,1.005.89-1.341-.139-.532,1.237-.289-1.317-1.341-.127,1.156-.67L-64.322,29Z" transform="translate(57.33 -25.984)"/></g></svg>