<svg xmlns="http://www.w3.org/2000/svg" width="34" height="34" viewBox="0 0 34 34"><defs><style>.a{fill:#005cb9;}.b{fill:#0a51a1;}.c{fill:#003100;}.d{fill:#5ab124;}.e{fill:#217200;}.f{fill:#d0cf59;}.g{fill:#6f580b;}.h{fill:#fff;}.i{fill:#fbeb0f;}.j{fill:#7c6302;}</style></defs><path class="a" d="M36.927,19.926a17,17,0,1,1-17-17h0a17,17,0,0,1,17,17Z" transform="translate(-2.927 -2.927)"/><path class="b" d="M89.728,93.881a1.94,1.94,0,0,0-.654-.985A1.968,1.968,0,0,1,89.728,93.881Z" transform="translate(-79.117 -82.496)"/><path class="c" d="M234.8,165.1l1.167,1.689.091.031-.025.073-.092-.031h0l-1.861.608.007.02c.008.031.015.062.022.093l2.074-.677-1.289-1.867,0,0Z" transform="translate(-207.358 -146.304)"/><path class="d" d="M222.784,165.57l-.017.011a3.374,3.374,0,0,1-2.105.5.285.285,0,0,0-.168.014h0l3.457,1.161Z" transform="translate(-195.345 -146.77)"/><path class="e" d="M225.02,172.365l-3.288-1.1h0a3.339,3.339,0,0,1,1.426,1.711l1.861-.608Z" transform="translate(-196.44 -151.803)"/><path class="c" d="M223.772,171.4l.025-.073-.091-.031-3.457-1.161h0a.144.144,0,0,0-.032.021l.033.02q.072.043.141.088h0l3.288,1.1Z" transform="translate(-195.1 -150.81)"/><path class="c" d="M139.691,240.919h0v.1h-.077v-.1l-1.232-1.676-.108.051,1.373,1.868,1.416-1.868-.1-.054Z" transform="translate(-122.629 -211.923)"/><path class="d" d="M150.536,225.233l1.273-1.681-.015-.009-.08-.063a3.642,3.642,0,0,1-1.137-1.836c-.016-.041,0-.1-.019-.138v0h0l-.022,3.731Z" transform="translate(-133.474 -196.237)"/><path class="e" d="M140.466,221.3h0a6.35,6.35,0,0,1-.293.857,3.463,3.463,0,0,1-.957,1.218l0,0,1.232,1.676Z" transform="translate(-123.459 -196.056)"/><path class="c" d="M149.861,224.954h.077v-.1l.022-3.731a.092.092,0,0,0-.038-.036.137.137,0,0,0-.032-.013l-.007.025-.022,3.754Z" transform="translate(-132.877 -195.862)"/><path class="c" d="M195.24,61.376l1.885-.58h0l.057-.078.063.046-.057.078h0l.019,1.985.1,0,.018,0-.022-2.2-2.1.645.019.043C195.231,61.334,195.235,61.355,195.24,61.376Z" transform="translate(-172.981 -53.956)"/><path class="d" d="M196.074,62.1l-1.885.58.01.042a3.354,3.354,0,0,1,.1,1.027,6,6,0,0,1-.21,1.026c-.011.029-.039.086-.066.145h0l2.056-2.82Z" transform="translate(-171.931 -55.263)"/><path class="e" d="M195.752,62.5l-2.168,2.974h0a3.412,3.412,0,0,1,2.186-.989l-.019-1.985Z" transform="translate(-171.546 -55.616)"/><path class="c" d="M195.705,61.476l-.063-.046-.057.078-2.056,2.82h0a1.02,1.02,0,0,0-.057.143h0c-.01.033-.01.055.007.056h0l2.168-2.974Z" transform="translate(-171.442 -54.668)"/><path class="c" d="M87.585,60.83l-.056-.078.063-.045.057.079h0l1.843.579c.006-.026.013-.052.02-.078l.016-.033-2.05-.645-.034,2.2.11.011Z" transform="translate(-77.674 -53.941)"/><path class="d" d="M88.4,64.513c.161.017.414.048.537.072a3.9,3.9,0,0,1,1.406.695,1.763,1.763,0,0,0,.175.13h0l-2.088-2.884Z" transform="translate(-78.52 -55.637)"/><path class="e" d="M89.218,62.138l2.048,2.829h0a3.508,3.508,0,0,1-.2-2.249l-1.843-.579Z" transform="translate(-79.244 -55.294)"/><path class="c" d="M88.246,61.458l-.063.045.056.078,2.088,2.884h0c.029.022.063.048.1.081,0,0,0-.009-.006-.014v0c-.026-.056-.051-.111-.074-.167h0L88.3,61.537Z" transform="translate(-78.328 -54.693)"/><path class="f" d="M74.887,186.758a1.476,1.476,0,0,0,.566.757,4.066,4.066,0,0,0,1.038.519,4.814,4.814,0,0,1,2.375,1.733,4.031,4.031,0,0,0,.737.764,1.524,1.524,0,0,0,.981.349.917.917,0,0,0,.961-.793,3.009,3.009,0,0,0-.131-1.443,2.862,2.862,0,0,1-.2,1.035.565.565,0,0,1-.951.278,3.339,3.339,0,0,1-.84-.9,4.591,4.591,0,0,0-2.473-1.784,3.675,3.675,0,0,1-1.032-.469.594.594,0,0,1-.044-1.07,3.778,3.778,0,0,1,.861-.474,2.854,2.854,0,0,0-1.433.348A.9.9,0,0,0,74.887,186.758Z" transform="translate(-66.51 -164.181)"/><path class="g" d="M79.525,186.354c-.181.04-.091.162-.079.26a3.009,3.009,0,0,1,.131,1.443.917.917,0,0,1-.961.793,1.524,1.524,0,0,1-.981-.349,4.032,4.032,0,0,1-.737-.764,4.814,4.814,0,0,0-2.375-1.733,4.066,4.066,0,0,1-1.038-.519,1.476,1.476,0,0,1-.566-.757.9.9,0,0,1,.412-1.154,2.854,2.854,0,0,1,1.433-.348c.05,0,.1-.007.152-.007.1,0,.09-.075.095-.142.006-.089-.035-.118-.119-.117a3.227,3.227,0,0,0-1.725.41,1.159,1.159,0,0,0-.494,1.431,1.9,1.9,0,0,0,.924,1.062,7.553,7.553,0,0,0,1.108.491,4.108,4.108,0,0,1,1.783,1.288c.17.21.341.42.523.619a2.39,2.39,0,0,0,1.224.811,1.237,1.237,0,0,0,1.613-1.058,3.342,3.342,0,0,0-.151-1.472C79.672,186.46,79.691,186.318,79.525,186.354Z" transform="translate(-64.542 -162.152)"/><path class="f" d="M165.977,189.987a.978.978,0,0,0,1.28.868,2.058,2.058,0,0,0,1.1-.724c.226-.25.438-.513.656-.772a4.575,4.575,0,0,1,2.033-1.324,4.379,4.379,0,0,0,1.038-.52,1.477,1.477,0,0,0,.566-.758.9.9,0,0,0-.414-1.153,2.834,2.834,0,0,0-1.432-.348,2.887,2.887,0,0,1,1.006.613.526.526,0,0,1,0,.769,1.4,1.4,0,0,1-.387.281,5.393,5.393,0,0,1-.958.393,4.393,4.393,0,0,0-2.212,1.565,5,5,0,0,1-.9,1.02c-.489.374-.854.27-1.071-.311a3.021,3.021,0,0,1-.164-.942A3.062,3.062,0,0,0,165.977,189.987Z" transform="translate(-147.106 -164.181)"/><path class="g" d="M168.6,183.082c0,.113.042.153.147.144a.852.852,0,0,1,.1,0,2.835,2.835,0,0,1,1.432.348.9.9,0,0,1,.414,1.153,1.476,1.476,0,0,1-.566.758,4.377,4.377,0,0,1-1.038.52,4.576,4.576,0,0,0-2.033,1.324c-.217.258-.43.522-.656.772a2.057,2.057,0,0,1-1.1.724.978.978,0,0,1-1.28-.868,3.062,3.062,0,0,1,.146-1.344c.011-.1.1-.221-.079-.26-.166-.036-.145.105-.17.19a3.8,3.8,0,0,0-.179,1.247,1.25,1.25,0,0,0,1.517,1.305,1.783,1.783,0,0,0,.87-.382,5.584,5.584,0,0,0,.937-.992,4.25,4.25,0,0,1,1.942-1.4,6.442,6.442,0,0,0,1.014-.453,1.979,1.979,0,0,0,.828-.829,1.218,1.218,0,0,0-.6-1.775,3.548,3.548,0,0,0-1.5-.3C168.661,182.964,168.6,182.968,168.6,183.082Z" transform="translate(-145.146 -162.155)"/><path class="f" d="M62.726,90.989c-.049-.039-.1-.076-.155-.11a.858.858,0,0,0-.979.032,1.59,1.59,0,0,0-.683,1.052A8.245,8.245,0,0,0,60.77,93.3a4.37,4.37,0,0,1-.725,2.13,7.722,7.722,0,0,0-.573.983,1.866,1.866,0,0,0-.19.88A.993.993,0,0,0,60.561,98.3a2.565,2.565,0,0,0,1.069-.492c-.075.009-.149.016-.224.027a2.244,2.244,0,0,1-.878.023.5.5,0,0,1-.434-.557,1.327,1.327,0,0,1,.209-.643c.192-.318.394-.629.6-.938a4.049,4.049,0,0,0,.7-1.744,12.633,12.633,0,0,0,.077-1.261,2.216,2.216,0,0,1,.2-.958.515.515,0,0,1,.775-.26,2.2,2.2,0,0,1,.546.405c.064.061.1.157.212.163l0-.009c-.008-.028-.016-.056-.024-.083A1.968,1.968,0,0,0,62.726,90.989Z" transform="translate(-52.768 -80.59)"/><path class="g" d="M60.019,95.808c-.039-.053-.071-.12-.159-.058a2.508,2.508,0,0,1-.22.124,2.566,2.566,0,0,1-1.069.492.993.993,0,0,1-1.278-1.013,1.866,1.866,0,0,1,.19-.88,7.725,7.725,0,0,1,.573-.983,4.369,4.369,0,0,0,.725-2.13,8.247,8.247,0,0,1,.138-1.332,1.59,1.59,0,0,1,.683-1.052.858.858,0,0,1,.979-.032c.054.035.106.071.155.11a1.94,1.94,0,0,1,.654.985c.009.027.017.055.024.083,0,0,.024.044.039.076.032.077.078.144.109.221s.055.134.163.093c.093-.035.118-.078.085-.168a3.358,3.358,0,0,0-.892-1.477,1.178,1.178,0,0,0-1.574-.026,1.781,1.781,0,0,0-.624.93,3.767,3.767,0,0,0-.157,1,4.708,4.708,0,0,1-.892,2.847,3.743,3.743,0,0,0-.263.432,2.385,2.385,0,0,0-.366,1.421,1.213,1.213,0,0,0,1.138,1.18,3,3,0,0,0,1.834-.692C60.083,95.909,60.055,95.857,60.019,95.808Z" transform="translate(-50.778 -78.653)"/><path class="f" d="M208.469,97.347a1.757,1.757,0,0,0-.135-.815,4.332,4.332,0,0,0-.489-.884,4.868,4.868,0,0,1-.9-2.875,3.7,3.7,0,0,0-.162-1.022,1.435,1.435,0,0,0-.644-.847.861.861,0,0,0-.98,0,1.994,1.994,0,0,0-.814,1.176c.216-.1.346-.309.54-.442.538-.371.923-.24,1.094.391a3.506,3.506,0,0,1,.105.977,4.671,4.671,0,0,0,.947,3,7.384,7.384,0,0,1,.408.639,1.658,1.658,0,0,1,.2.491.542.542,0,0,1-.488.747,4.081,4.081,0,0,1-1.028-.064,2.466,2.466,0,0,0,1.2.507A.963.963,0,0,0,208.469,97.347Z" transform="translate(-181.067 -80.597)"/><path class="g" d="M200.823,90.357c-.031.085,0,.12.081.149s.124.027.159-.057.082-.165.124-.246c.014-.027.033-.072.033-.072a1.994,1.994,0,0,1,.814-1.176.861.861,0,0,1,.98,0,1.435,1.435,0,0,1,.644.847,3.694,3.694,0,0,1,.162,1.022,4.868,4.868,0,0,0,.9,2.875,4.328,4.328,0,0,1,.489.884,1.756,1.756,0,0,1,.135.815.963.963,0,0,1-1.149.977,2.466,2.466,0,0,1-1.2-.507,1.14,1.14,0,0,1-.177-.1c-.084-.066-.139-.063-.2.029-.076.109,0,.144.071.191a3.911,3.911,0,0,0,1.268.609,1.217,1.217,0,0,0,1.535-.722,1.733,1.733,0,0,0,.066-1.044,4.672,4.672,0,0,0-.737-1.459,4.188,4.188,0,0,1-.711-2.13,7.529,7.529,0,0,0-.137-1.282,1.875,1.875,0,0,0-.776-1.2,1.145,1.145,0,0,0-1.328-.014A3.065,3.065,0,0,0,200.823,90.357Z" transform="translate(-177.938 -78.652)"/><path class="f" d="M123.364,61.994a.9.9,0,0,0-.38-1.06,1.9,1.9,0,0,0-1.555-.209,13.565,13.565,0,0,1-1.682.345,5.68,5.68,0,0,1-1.795-.239,3.055,3.055,0,0,0-1.47-.133,1.488,1.488,0,0,0-.588.282.886.886,0,0,0-.32,1.015,2.14,2.14,0,0,0,.852,1.094l0,0,0,0c-.025-.275-.221-.484-.279-.75-.121-.555.082-.825.65-.831a4.365,4.365,0,0,1,1.234.249,4.477,4.477,0,0,0,1.942.214,10.778,10.778,0,0,0,1.275-.313,2.837,2.837,0,0,1,1.045-.144.508.508,0,0,1,.526.6,1.617,1.617,0,0,1-.18.626c-.052.113-.144.212-.127.349h0A2.13,2.13,0,0,0,123.364,61.994Z" transform="translate(-102.509 -53.978)"/><path class="g" d="M114.587,61.565c.072.058.115.03.161-.032s.083-.108,0-.17-.139-.122-.208-.184c-.028-.03-.014-.013-.053-.055l0,0,0,0a2.141,2.141,0,0,1-.852-1.094.886.886,0,0,1,.32-1.015,1.487,1.487,0,0,1,.588-.282,3.055,3.055,0,0,1,1.47.133,5.68,5.68,0,0,0,1.795.239,13.568,13.568,0,0,0,1.682-.345,1.9,1.9,0,0,1,1.555.209.9.9,0,0,1,.38,1.06,2.13,2.13,0,0,1-.852,1.094h0c-.03.031-.019.026-.049.056-.064.055-.124.114-.192.164s-.078.111-.02.188.108.08.182.021a3.49,3.49,0,0,0,1.12-1.282,1.166,1.166,0,0,0-.327-1.438,1.746,1.746,0,0,0-.719-.352,3.256,3.256,0,0,0-1.522.118,8.121,8.121,0,0,1-1.236.25,5.83,5.83,0,0,1-1.916-.277,2.946,2.946,0,0,0-1.424-.088,1.285,1.285,0,0,0-1.06,1.688A3.277,3.277,0,0,0,114.587,61.565Z" transform="translate(-100.573 -52.014)"/><path class="f" d="M162.6,99.917c.242-.079.459-.2.506-.474a.723.723,0,0,0-.287-.691,1.662,1.662,0,0,0-.573-.315,3.042,3.042,0,0,1-1.546-1.127,1.269,1.269,0,0,0-.787-.555.556.556,0,0,0-.7.528,1.576,1.576,0,0,0,.082.72,1.789,1.789,0,0,1,.119-.565c.126-.27.29-.321.545-.161a1.212,1.212,0,0,1,.358.352,3.06,3.06,0,0,0,1.734,1.273,1.4,1.4,0,0,1,.278.117c.171.092.367.188.37.409s-.178.309-.335.412c-.069.046-.159.06-.206.138A1,1,0,0,0,162.6,99.917Z" transform="translate(-141.134 -85.898)"/><path class="g" d="M161.183,97.086A3,3,0,0,1,159.674,96a1.718,1.718,0,0,0-.558-.505.77.77,0,0,0-1.219.709,1.928,1.928,0,0,0,.093.622c.018.054,0,.161.1.141s.052-.117.05-.185a1.576,1.576,0,0,1-.082-.72.556.556,0,0,1,.7-.528,1.269,1.269,0,0,1,.787.555,3.041,3.041,0,0,0,1.546,1.127,1.66,1.66,0,0,1,.573.315.723.723,0,0,1,.287.691c-.048.277-.264.4-.506.474a1,1,0,0,1-.446.062v0c-.084.016-.291,0-.279.126.009.1.1.064.167.06a2.205,2.205,0,0,0,.737-.15.726.726,0,0,0,.356-1.121A1.407,1.407,0,0,0,161.183,97.086Z" transform="translate(-139.984 -84.673)"/><path class="f" d="M110.127,97.206a.552.552,0,0,0-.676-.509,1.138,1.138,0,0,0-.746.483,3.355,3.355,0,0,1-1.7,1.245,1.125,1.125,0,0,0-.686.527.57.57,0,0,0,.3.867,1.117,1.117,0,0,0,.564.107,4.29,4.29,0,0,1-.387-.275c-.216-.19-.209-.36.009-.548a1.279,1.279,0,0,1,.49-.253,3.067,3.067,0,0,0,1.732-1.274,1.189,1.189,0,0,1,.38-.365.315.315,0,0,1,.513.155,1.907,1.907,0,0,1,.132.587A1.649,1.649,0,0,0,110.127,97.206Z" transform="translate(-94.281 -85.845)"/><path class="g" d="M105.424,98.831a2.354,2.354,0,0,0,.691.131c.062,0,.158.033.165-.061.01-.121-.109-.078-.17-.095a.338.338,0,0,1-.112-.03v0a1.117,1.117,0,0,1-.564-.107.57.57,0,0,1-.3-.867,1.125,1.125,0,0,1,.686-.527,3.355,3.355,0,0,0,1.7-1.245,1.137,1.137,0,0,1,.746-.484.552.552,0,0,1,.676.509,1.649,1.649,0,0,1-.075.747c-.008.068-.073.161.046.184.1.021.085-.087.1-.141a1.954,1.954,0,0,0,.082-.8.71.71,0,0,0-.851-.65,1.211,1.211,0,0,0-.814.511,3.415,3.415,0,0,1-1.727,1.252,1.229,1.229,0,0,0-.659.488A.738.738,0,0,0,105.424,98.831Z" transform="translate(-93.097 -84.697)"/><path class="f" d="M129.91,185.642a.575.575,0,0,0,.405.753,1.236,1.236,0,0,0,.82-.014,3.279,3.279,0,0,1,2.035,0,1.26,1.26,0,0,0,.821.02.586.586,0,0,0,.332-.928,1,1,0,0,0-.432-.441c-.006.153.107.259.155.393.155.435-.019.664-.472.6a1.735,1.735,0,0,1-.345-.078,2.961,2.961,0,0,0-2.078-.014,1.973,1.973,0,0,1-.344.082c-.186.033-.388.06-.521-.1s-.053-.367.01-.551c.04-.119.142-.211.138-.347A1.15,1.15,0,0,0,129.91,185.642Z" transform="translate(-115.196 -163.971)"/><path class="g" d="M132.832,182.977c-.045-.034-.094-.125-.166-.047s.011.119.052.168a.4.4,0,0,0,.054.057,1,1,0,0,1,.432.441.586.586,0,0,1-.332.928,1.26,1.26,0,0,1-.821-.02,3.278,3.278,0,0,0-2.035,0,1.236,1.236,0,0,1-.82.014.575.575,0,0,1-.405-.753,1.15,1.15,0,0,1,.524-.623c.039-.071.195-.116.087-.217-.079-.075-.144.043-.2.09a1.932,1.932,0,0,0-.429.46.756.756,0,0,0,.437,1.216,1.416,1.416,0,0,0,.871-.032,3.039,3.039,0,0,1,1.935,0,1.515,1.515,0,0,0,.6.074.891.891,0,0,0,.8-.487.778.778,0,0,0-.153-.847A2.126,2.126,0,0,0,132.832,182.977Z" transform="translate(-114.076 -162.096)"/><path class="f" d="M182.375,146.164a.759.759,0,0,0,.594-.562,3.346,3.346,0,0,0,.12-.9,2.6,2.6,0,0,1,.427-1.255,3.474,3.474,0,0,0,.367-.663.864.864,0,0,0,.043-.569.557.557,0,0,0-.713-.43,1.505,1.505,0,0,0-.615.282c.142-.016.284-.044.426-.046.411-.006.548.2.4.585a3.171,3.171,0,0,1-.375.628,2.55,2.55,0,0,0-.464,1.393,3.1,3.1,0,0,1-.089.852c-.1.313-.3.386-.583.2-.118-.078-.225-.171-.338-.257a.716.716,0,0,0,.169.362C181.893,146.008,182.073,146.212,182.375,146.164Z" transform="translate(-160.922 -125.715)"/><path class="g" d="M180.422,140.966a.074.074,0,0,0,.122.028,1.2,1.2,0,0,1,.111-.06,1.5,1.5,0,0,1,.615-.282.557.557,0,0,1,.713.43.864.864,0,0,1-.043.569,3.474,3.474,0,0,1-.367.663,2.6,2.6,0,0,0-.427,1.255,3.345,3.345,0,0,1-.12.9.759.759,0,0,1-.593.562c-.3.048-.482-.156-.636-.378a.717.717,0,0,1-.169-.362l-.038-.063c-.014-.013-.03-.227-.168-.159-.106.053-.008.155.02.22a3,3,0,0,0,.244.469.768.768,0,0,0,.746.427.878.878,0,0,0,.716-.605,1.775,1.775,0,0,0,.121-.642,2.913,2.913,0,0,1,.56-1.749,1.807,1.807,0,0,0,.324-.733.765.765,0,0,0-.768-.972,1.89,1.89,0,0,0-.919.385C180.429,140.893,180.391,140.913,180.422,140.966Z" transform="translate(-158.978 -124.583)"/><path class="f" d="M97.1,142.675a1.639,1.639,0,0,0,.277.62,3.222,3.222,0,0,1,.61,1.919,1.2,1.2,0,0,0,.236.76.579.579,0,0,0,.983.018.967.967,0,0,0,.262-.481q-.183.15-.38.282a.32.32,0,0,1-.522-.183,1.169,1.169,0,0,1-.079-.444,3.145,3.145,0,0,0-.656-2.1,1.292,1.292,0,0,1-.245-.467c-.084-.3.039-.481.353-.492a4.072,4.072,0,0,1,.5.042,1.422,1.422,0,0,0-.517-.254A.618.618,0,0,0,97.1,142.675Z" transform="translate(-86.191 -125.801)"/><path class="g" d="M96.094,142.059A3.342,3.342,0,0,1,96.708,144a1.246,1.246,0,0,0,.319.859.708.708,0,0,0,.956.153,1.765,1.765,0,0,0,.588-.894c.016-.042.02-.086-.025-.111s-.093,0-.116.053c-.017.038-.037.076-.055.113l-.037.062v0a.967.967,0,0,1-.262.481.578.578,0,0,1-.983-.018,1.2,1.2,0,0,1-.236-.76,3.222,3.222,0,0,0-.61-1.919,1.639,1.639,0,0,1-.277-.62.618.618,0,0,1,.823-.777,1.422,1.422,0,0,1,.517.254c.079.01.16.161.229.03.054-.1-.087-.124-.147-.165a1.916,1.916,0,0,0-.691-.3.707.707,0,0,0-.864.544A1.24,1.24,0,0,0,96.094,142.059Z" transform="translate(-85.063 -124.53)"/><path class="c" d="M177.833,185.791l-.031,0h-.051l0,1.117h0l.043.058-.046.034-.043-.058h0l-1.094-.327c0,.024-.011.048-.017.072l-.006.012,1.245.372Z" transform="translate(-156.513 -164.654)"/><path class="d" d="M178.01,183.887l0-1.117h-.046a1.749,1.749,0,0,1-.872-.282c-.066-.04-.126-.123-.212-.117h0l1.128,1.514Z" transform="translate(-156.774 -161.63)"/><path class="e" d="M177.415,184.06l-1.141-1.531h0l-.013.007a3.259,3.259,0,0,1,.06,1.2l1.094.327Z" transform="translate(-156.226 -161.769)"/><path class="c" d="M177.56,183.982l.046-.034-.043-.058-1.128-1.514h0a.1.1,0,0,0-.031.007.152.152,0,0,0-.027.011l1.141,1.531Z" transform="translate(-156.327 -161.633)"/><path class="c" d="M114.568,186.731l-.011-.02-.011-.053,0-.007-1.022.321-.059.019h0l-.042.058-.047-.034.042-.059-.018-1.141h-.04l-.047,0,.02,1.306Z" transform="translate(-100.553 -164.673)"/><path class="d" d="M114.619,183.718h0l.059-.019,1.022-.321a2.473,2.473,0,0,1,.059-1.167.221.221,0,0,0,.016-.1h0Z" transform="translate(-101.709 -161.4)"/><path class="e" d="M115.215,182.077h0a.439.439,0,0,0-.053.033,1.964,1.964,0,0,1-1.1.4l.018,1.141Z" transform="translate(-101.216 -161.369)"/><path class="c" d="M113.854,183.592l.047.034.042-.058,1.156-1.606h0a.021.021,0,0,0-.021-.019.1.1,0,0,0-.046.016h0l-1.135,1.576Z" transform="translate(-101.032 -161.249)"/><path class="c" d="M91.565,125.056l.064-.052-.665-.938-.069-.022.018-.055.068.022h0l1.089-.37-.018-.046c0-.013-.006-.025-.008-.038l-1.242.423Z" transform="translate(-80.645 -109.613)"/><path class="d" d="M92.867,128.9a1.287,1.287,0,0,1,.108-.077,1.975,1.975,0,0,1,1.119-.229.442.442,0,0,0,.086,0l-1.978-.636Z" transform="translate(-81.883 -113.508)"/><path class="e" d="M92.344,124.647l1.972.634h0c-.016-.022-.053-.031-.073-.043a1.95,1.95,0,0,1-.808-.962l-1.089.37Z" transform="translate(-82.008 -110.249)"/><path class="c" d="M91.625,127.3l-.018.055.069.022,1.978.636h0a.009.009,0,0,0,.007,0,.078.078,0,0,0,.008-.021.038.038,0,0,0-.006-.032l-1.972-.634Z" transform="translate(-81.357 -112.92)"/><path class="c" d="M144.166,85.818h0c.021.017.042.035.062.053l.622-.837v-.072h.057v.07h0l.642.856.07-.051-.739-.985Z" transform="translate(-127.841 -75.384)"/><path class="d" d="M144.706,87.256a2.22,2.22,0,0,1,.6.965.859.859,0,0,0,.026.084h0l-.008-1.888Z" transform="translate(-128.318 -76.768)"/><path class="e" d="M150.58,86.4h0l.009,1.954h0a2,2,0,0,1,.606-1.075l.028-.022-.642-.856Z" transform="translate(-133.513 -76.752)"/><path class="c" d="M150.137,85.794h-.057v.072l.008,1.888h0a.18.18,0,0,0,.029.053c.009.011.019.015.029.01l-.009-1.953Z" transform="translate(-133.071 -76.215)"/><path class="c" d="M198.92,124.039c0,.014,0,.027,0,.041s-.011.025-.018.038l1.015.332.067-.023.018.054-.068.023-.613.887.074.045.7-1.015Z" transform="translate(-176.246 -110.04)"/><path class="d" d="M192.07,124.723a2.366,2.366,0,0,1-.71.853c-.069.048-.106.063-.183.124h0l1.908-.646Z" transform="translate(-169.418 -110.645)"/><path class="e" d="M191.6,128.7a2.076,2.076,0,0,1,1.263.252l.613-.887Z" transform="translate(-169.79 -113.604)"/><path class="c" d="M192.915,127.452l-.018-.054-.067.023-1.908.646h0a.36.36,0,0,0-.026.039h0l-.008.013.082-.008h0l1.876-.635Z" transform="translate(-169.162 -113.01)"/><path class="c" d="M47.977,166.559h0l-.092.028-.023-.074.092-.028h0l1.2-1.628-.058-.039-.035-.032-1.33,1.8,2.15.777c.006-.033.014-.071.022-.11Z" transform="translate(-42.554 -146.076)"/><path class="d" d="M49.846,172.232h0l1.928.7a1.135,1.135,0,0,1,.069-.224,2.864,2.864,0,0,1,.824-1.094c.188-.148.419-.291.567-.411h0Z" transform="translate(-44.422 -151.749)"/><path class="e" d="M49.65,167.031l3.533-1.077h0a.171.171,0,0,0,.021-.038,3.574,3.574,0,0,1-2.353-.513l-1.2,1.628Z" transform="translate(-44.25 -146.622)"/><path class="c" d="M48.855,171.283l.023.074.092-.028,3.388-1.033h0a.9.9,0,0,0,.07-.062.386.386,0,0,0,.049-.055h0l-3.533,1.076Z" transform="translate(-43.546 -150.846)"/><path class="g" d="M67.976,48.236l-.1,0a3.412,3.412,0,0,0-2.186.989h0c-.016,0-.016-.023-.007-.056h0a1.008,1.008,0,0,1,.057-.143h0c.027-.059.055-.116.066-.145a6,6,0,0,0,.21-1.026,3.355,3.355,0,0,0-.1-1.027l-.01-.042c-.005-.021-.01-.042-.014-.063l-.019-.043a4.073,4.073,0,0,0-2.632-2.12,9.379,9.379,0,0,0-2.553-.431,9.979,9.979,0,0,0-1.7.2A4.582,4.582,0,0,0,55.5,46.68l-.016.033c-.007.026-.014.052-.02.078a3.508,3.508,0,0,0,.2,2.249h0c.023.056.048.111.074.167v0s0,.009.006.014c-.04-.033-.073-.059-.1-.081h0a1.759,1.759,0,0,1-.175-.13,3.9,3.9,0,0,0-1.406-.695c-.124-.024-.377-.055-.537-.072l-.11-.011h-.031c-.158.027-.316.05-.472.084a3.854,3.854,0,0,0-2.18,1.516,7.925,7.925,0,0,0-1.76,5.184,3.94,3.94,0,0,0,1.184,3.062l.035.032.058.039a3.574,3.574,0,0,0,2.353.513.172.172,0,0,1-.021.038h0a.387.387,0,0,1-.049.055.9.9,0,0,1-.07.062h0c-.148.12-.379.263-.567.411a2.864,2.864,0,0,0-.824,1.094,1.134,1.134,0,0,0-.069.224c-.009.039-.016.077-.022.11-.01.051-.017.092-.021.114a3.281,3.281,0,0,0,.376,2.2,7.882,7.882,0,0,0,5.013,4,4.4,4.4,0,0,0,1.977.123,3.754,3.754,0,0,0,.97-.354l.108-.051,0,0a3.462,3.462,0,0,0,.957-1.218,6.346,6.346,0,0,0,.293-.857h0l.007-.025a.136.136,0,0,1,.032.013.092.092,0,0,1,.038.036h0v0c.02.043,0,.1.019.138a3.642,3.642,0,0,0,1.137,1.836l.08.063.015.009.1.054a3.6,3.6,0,0,0,2.523.319,7.9,7.9,0,0,0,5-3.336,3.793,3.793,0,0,0,.786-3.069c-.007-.031-.014-.062-.022-.093l-.007-.02a3.34,3.34,0,0,0-1.426-1.711h0q-.069-.045-.141-.088l-.033-.02A.145.145,0,0,1,68.8,58.7h0a.285.285,0,0,1,.168-.014,3.374,3.374,0,0,0,2.105-.5l.017-.011.088-.057,0,0A3.579,3.579,0,0,0,72.389,55.5,7.917,7.917,0,0,0,71,50.306a4.09,4.09,0,0,0-3-2.067Zm-12.3-1.164h0a2.145,2.145,0,0,1,.059-.212A2.809,2.809,0,0,1,57,45.367a6.621,6.621,0,0,1,2.891-.918,7.525,7.525,0,0,1,4.088.693,3.665,3.665,0,0,1,1.136.833,2.455,2.455,0,0,1,.551.953c.021.07.039.14.053.211h0a2.85,2.85,0,0,1-.075,1.315,4.293,4.293,0,0,1-.146.439c-.034.09-.072.177-.113.265a7.037,7.037,0,0,1-.583,1.014c-.09.132-.148.12-.275.043a3.763,3.763,0,0,0-2.313-.675,1.759,1.759,0,0,0-.628.18,1.661,1.661,0,0,0-.159.1l-.07.051-.028.022a2,2,0,0,0-.606,1.075h0c-.01,0-.02,0-.029-.01a.179.179,0,0,1-.029-.053h0a.856.856,0,0,1-.026-.084,2.219,2.219,0,0,0-.6-.965c-.02-.018-.041-.036-.062-.053h0a3.034,3.034,0,0,0-3.1.4c-.171.1-.234.075-.329-.07a8.031,8.031,0,0,1-.491-.848c-.043-.087-.084-.175-.122-.265h0c-.045-.106-.087-.213-.124-.323A3,3,0,0,1,55.68,47.072Zm10.489,6.244q-.011.04-.026.078a1.733,1.733,0,0,1-.682.809,3.652,3.652,0,0,1-.854.41h0l-.115.04-.2.069c-.5.167-.994.32-1.487.492a.262.262,0,0,1-.151.018,2.136,2.136,0,0,0-.635-.829.2.2,0,0,1,.05-.108c.159-.207.309-.422.463-.634.037-.051.073-.1,0-.147s-.09.02-.118.059c-.15.2-.3.406-.445.615a.247.247,0,0,1-.1.1,2.114,2.114,0,0,0-1.06-.344.236.236,0,0,1-.034-.153c.007-.389,0-.777,0-1.272,0-.135,0-.283,0-.439,0-.045,0-.091,0-.138a4.93,4.93,0,0,1,.067-.781,1.9,1.9,0,0,1,.611-1.173c.022-.019.045-.036.068-.053a1.733,1.733,0,0,1,1.4-.22,4.411,4.411,0,0,1,3.037,2.2,2.025,2.025,0,0,1,.266.786A1.475,1.475,0,0,1,66.169,53.317Zm.53,1.59a1.552,1.552,0,0,1,.476.663,3.16,3.16,0,0,1,.18,1.226,4.377,4.377,0,0,1-1.267,2.995,1.731,1.731,0,0,1-1.118.567l-.082,0a1.786,1.786,0,0,1-1.161-.5,4.015,4.015,0,0,1-.526-.577h0l-.074-.1c-.067-.089-.133-.178-.2-.268-.272-.365-.533-.739-.807-1.1a.283.283,0,0,1-.059-.114,2.133,2.133,0,0,0,.627-.889.318.318,0,0,1,.159.03c.228.087.464.149.7.222.056.018.116.051.137-.042.017-.077-.048-.08-.09-.094-.239-.081-.478-.164-.72-.235a.28.28,0,0,1-.124-.064,2.126,2.126,0,0,0-.03-1.217.217.217,0,0,1,.088-.045c.541-.167,1.078-.348,1.618-.518l.133-.042q.193-.061.388-.119a2.442,2.442,0,0,1,1.08-.063,1.463,1.463,0,0,1,.606.231c.024.016.048.033.07.052Zm-3.113,6.377c-.008.028-.016.056-.025.083a1.521,1.521,0,0,1-.769.839,4.257,4.257,0,0,1-4.188,0,1.545,1.545,0,0,1-.777-.834c-.01-.026-.018-.052-.025-.078a1.8,1.8,0,0,1,.089-1.137,3.518,3.518,0,0,1,.39-.722h0l.071-.1c.059-.086.12-.17.18-.255.282-.4.577-.79.859-1.19a.257.257,0,0,1,.076-.079A2.116,2.116,0,0,0,60.6,58.2a.3.3,0,0,1,.025.192,2.427,2.427,0,0,0,0,.278c0,.127,0,.253,0,.38,0,.061-.025.155.082.147.084-.006.063-.086.063-.141,0-.245,0-.49,0-.734a.307.307,0,0,1,.015-.121,2.116,2.116,0,0,0,1.146-.391.281.281,0,0,1,.066.072c.328.465.666.923.993,1.389l.082.117.127.184a2.412,2.412,0,0,1,.44,1.17A1.549,1.549,0,0,1,63.586,61.284Zm-8.863-6.4a1.5,1.5,0,0,1,.76-.272,3.2,3.2,0,0,1,1.2.144l.121.036.161.051c.52.17,1.04.34,1.562.5a.272.272,0,0,1,.139.076,2.129,2.129,0,0,0-.03,1.2.3.3,0,0,1-.15.079c-.235.066-.465.149-.7.227-.054.018-.122.032-.084.118.031.07.083.034.128.02.241-.075.485-.142.721-.23a.287.287,0,0,1,.14-.026,2.135,2.135,0,0,0,.629.893.28.28,0,0,1-.057.106c-.328.439-.649.884-.977,1.324l-.083.111-.128.171a2.9,2.9,0,0,1-.7.655,1.589,1.589,0,0,1-.888.289c-.029,0-.058,0-.087,0a1.487,1.487,0,0,1-.814-.318,4.074,4.074,0,0,1-1.489-2.59c-.049-.256-.061-.518-.077-.665a3.061,3.061,0,0,1,.221-1.3,1.545,1.545,0,0,1,.41-.55C54.679,54.915,54.7,54.9,54.723,54.882Zm.472-1.62a1.487,1.487,0,0,1,.057-.893,4.08,4.08,0,0,1,2.074-2.251,3.245,3.245,0,0,1,1.8-.431,1.479,1.479,0,0,1,.749.257c.023.016.045.032.066.05a1.565,1.565,0,0,1,.445.608,3.079,3.079,0,0,1,.236,1.084c0,.069,0,.138,0,.207,0,.04,0,.08,0,.119,0,.583,0,1.166,0,1.748a.269.269,0,0,1-.047.187,2.113,2.113,0,0,0-1.035.338c-.06-.015-.107-.072-.159-.15-.121-.183-.254-.358-.386-.533-.035-.047-.061-.147-.149-.077s0,.121.035.169c.141.2.282.4.433.593a.193.193,0,0,1,.053.122,2.133,2.133,0,0,0-.629.825.279.279,0,0,1-.149-.02c-.561-.188-1.125-.368-1.685-.56l-.132-.046-.147-.051a2.793,2.793,0,0,1-.918-.522,1.607,1.607,0,0,1-.487-.691C55.212,53.318,55.2,53.29,55.2,53.262Zm3.592,1.975.015-.015a1.942,1.942,0,1,1-.009.021Zm-7.363,3.124a2.788,2.788,0,0,1-.614-.193,2.213,2.213,0,0,1-.269-.142A2.621,2.621,0,0,1,49.4,56.314a7.2,7.2,0,0,1,.623-4.867A6.748,6.748,0,0,1,51.5,49.384a2.847,2.847,0,0,1,2.117-.869,2.391,2.391,0,0,1,.238.026,3.06,3.06,0,0,1,1.428.671c.034.027.068.055.1.084l.124.109a8.374,8.374,0,0,1,.834.9c.107.131.112.2-.026.317a4.231,4.231,0,0,0-1.01,1.221,2.1,2.1,0,0,0-.261,1.471c0,.013.005.025.008.038l.018.046a1.95,1.95,0,0,0,.808.962c.02.012.058.021.073.043h0a.038.038,0,0,1,.006.032.078.078,0,0,1-.008.021.009.009,0,0,1-.007,0h0a.443.443,0,0,1-.086,0,1.974,1.974,0,0,0-1.119.229,1.3,1.3,0,0,0-.108.077l-.064.052c-.032.027-.062.054-.088.08a2.085,2.085,0,0,0-.583,1.364,4.566,4.566,0,0,0,.144,1.629c.024.089.086.186-.078.232a7.784,7.784,0,0,1-1.5.3c-.123.01-.246.014-.369.013A3.605,3.605,0,0,1,51.425,58.362Zm8.834,6.682a3.087,3.087,0,0,1-.532.971v0a2.3,2.3,0,0,1-.227.235,2.4,2.4,0,0,1-.75.453,3.379,3.379,0,0,1-2.044.078A7.568,7.568,0,0,1,51.5,62.719a3.053,3.053,0,0,1-.329-1.239,2.463,2.463,0,0,1,.169-1.066,2.081,2.081,0,0,1,.1-.215h0a3.153,3.153,0,0,1,1.1-1.13h0l.037-.024q.116-.074.234-.142a6.653,6.653,0,0,1,1.132-.505c.182-.063.259-.06.342.14A3.9,3.9,0,0,0,55.3,60a1.912,1.912,0,0,0,1.111.508l.047,0h.04a1.964,1.964,0,0,0,1.1-.4.442.442,0,0,1,.053-.033h0a.1.1,0,0,1,.046-.016.021.021,0,0,1,.021.019h0a.221.221,0,0,1-.016.1,2.473,2.473,0,0,0-.059,1.167l0,.007.011.053.011.02a3.131,3.131,0,0,0,2.728,1.455c.066.008.133.008.192.011a10.312,10.312,0,0,1-.2,1.736l0,.013c-.036.138-.077.272-.123.4Zm8.725-5.882a2.969,2.969,0,0,1,1.059,1.246q.042.1.075.205a2.784,2.784,0,0,1-.138,1.878A6.81,6.81,0,0,1,67.6,65.446a7.1,7.1,0,0,1-3.266,1.4,2.894,2.894,0,0,1-2.492-.635,2.379,2.379,0,0,1-.215-.231h0a3.018,3.018,0,0,1-.5-.928c-.04-.114-.075-.233-.1-.356q-.04-.161-.07-.333a6.022,6.022,0,0,1-.1-1.183.592.592,0,0,0-.04-.268c1.164-.133,2.3-.315,2.927-1.491l.006-.012c.006-.024.012-.048.017-.072a3.259,3.259,0,0,0-.06-1.2l.013-.007h0a.148.148,0,0,1,.027-.011.1.1,0,0,1,.031-.007h0c.087-.007.146.077.212.117a1.749,1.749,0,0,0,.872.282h.1l.031,0a1.865,1.865,0,0,0,1.142-.53,4.093,4.093,0,0,0,1.017-1.493c.057-.139.1-.169.252-.114a8.375,8.375,0,0,1,1.077.47q.127.068.25.143c.093.057.185.117.275.181Zm2.508-7.428a7.078,7.078,0,0,1,.511,4.5A2.677,2.677,0,0,1,70.75,58.08a2.328,2.328,0,0,1-.263.127h0a3.17,3.17,0,0,1-1.2.219h0c-.118,0-.239,0-.362-.014-.056,0-.111-.009-.168-.015a6.933,6.933,0,0,1-1.259-.266c-.17-.051-.2-.116-.153-.279a4.2,4.2,0,0,0,.064-2.053A2.157,2.157,0,0,0,66.8,54.77l-.006,0-.074-.045a2.076,2.076,0,0,0-1.263-.252h0l-.082.008.008-.013h0a.362.362,0,0,1,.026-.039h0c.077-.061.114-.077.183-.124a2.365,2.365,0,0,0,.71-.853c.007-.013.012-.025.018-.038s0-.027,0-.041l0-.021a2.414,2.414,0,0,0-.615-2.057,4.626,4.626,0,0,0-.684-.711c-.069-.059-.125-.1-.046-.2a8.323,8.323,0,0,1,.821-.914c.077-.072.157-.142.238-.209a3.538,3.538,0,0,1,1.045-.6,2.541,2.541,0,0,1,.478-.123,2.286,2.286,0,0,1,.253-.025,2.627,2.627,0,0,1,1.68.571,6.28,6.28,0,0,1,2,2.661Z" transform="translate(-43.651 -39.368)"/><path class="h" d="M92.922,135.6a3.061,3.061,0,0,0-.221,1.3c.016.146.028.409.077.665a4.074,4.074,0,0,0,1.488,2.59,1.487,1.487,0,0,0,.814.318c.029,0,.058,0,.087,0a1.589,1.589,0,0,0,.888-.289,2.9,2.9,0,0,0,.7-.655l.128-.171.083-.112c.328-.44.649-.885.977-1.324A.28.28,0,0,0,98,137.82a2.134,2.134,0,0,1-.629-.893.287.287,0,0,0-.14.026c-.236.087-.48.155-.721.23-.045.014-.1.05-.128-.02-.038-.085.03-.1.084-.118.232-.078.462-.16.7-.227a.3.3,0,0,0,.15-.079,2.129,2.129,0,0,1,.03-1.2.272.272,0,0,0-.139-.076c-.522-.165-1.042-.334-1.562-.5l-.161-.051-.121-.036a3.2,3.2,0,0,0-1.2-.144,1.5,1.5,0,0,0-.76.272c-.022.016-.044.033-.065.051A1.546,1.546,0,0,0,92.922,135.6Zm1.038-.2a1.916,1.916,0,0,1,.691.3c.06.041.2.061.147.165-.069.131-.15-.02-.229-.03a4.073,4.073,0,0,0-.5-.042c-.314.01-.437.187-.353.492a1.292,1.292,0,0,0,.245.467,3.145,3.145,0,0,1,.656,2.1,1.169,1.169,0,0,0,.079.444.32.32,0,0,0,.522.183,4.721,4.721,0,0,0,.38-.282v0l.037-.062c.018-.038.038-.075.055-.113.023-.053.057-.085.116-.053s.042.069.025.111a1.765,1.765,0,0,1-.588.894.708.708,0,0,1-.956-.153,1.246,1.246,0,0,1-.319-.859,3.342,3.342,0,0,0-.614-1.945,1.24,1.24,0,0,1-.258-1.071.707.707,0,0,1,.864-.544Z" transform="translate(-82.324 -119.486)"/><path class="h" d="M130.327,164.205l-.127-.184-.082-.117c-.326-.466-.664-.924-.993-1.389a.281.281,0,0,0-.066-.072,2.116,2.116,0,0,1-1.146.391.307.307,0,0,0-.015.121c0,.244,0,.489,0,.734,0,.055.02.136-.063.141-.107.008-.081-.086-.082-.147,0-.127,0-.253,0-.38a2.421,2.421,0,0,1,0-.278.3.3,0,0,0-.025-.192,2.115,2.115,0,0,1-1.129-.388.257.257,0,0,0-.076.079c-.282.4-.576.79-.859,1.19-.06.085-.121.17-.18.255l-.071.1h0a3.516,3.516,0,0,0-.39.722,1.8,1.8,0,0,0-.089,1.137c.008.026.016.052.025.078a1.545,1.545,0,0,0,.777.834,4.257,4.257,0,0,0,4.188,0A1.521,1.521,0,0,0,130.7,166c.01-.027.018-.055.025-.083a1.55,1.55,0,0,0,.046-.545A2.413,2.413,0,0,0,130.327,164.205Zm-.206,1.956a.89.89,0,0,1-.8.487,1.514,1.514,0,0,1-.6-.074,3.039,3.039,0,0,0-1.935,0,1.416,1.416,0,0,1-.871.032.756.756,0,0,1-.437-1.216,1.931,1.931,0,0,1,.429-.46c.06-.047.125-.164.2-.09.107.1-.048.146-.087.217,0,.135-.1.228-.138.347-.062.184-.152.382-.01.551s.335.131.521.1a1.974,1.974,0,0,0,.344-.082,2.961,2.961,0,0,1,2.078.014,1.734,1.734,0,0,0,.345.078c.453.06.627-.169.472-.6-.047-.133-.16-.24-.155-.393a.4.4,0,0,1-.054-.057c-.041-.049-.12-.095-.052-.168s.121.013.166.047a2.125,2.125,0,0,1,.427.428A.778.778,0,0,1,130.121,166.161Z" transform="translate(-110.785 -144.005)"/><path class="h" d="M165.094,134.723l-.388.119-.133.042c-.54.171-1.076.351-1.618.518a.217.217,0,0,0-.088.045,2.125,2.125,0,0,1,.03,1.217.28.28,0,0,0,.124.064c.242.071.481.154.72.235.043.014.107.017.09.094-.022.093-.081.06-.137.042-.233-.074-.469-.136-.7-.222a.318.318,0,0,0-.159-.03,2.133,2.133,0,0,1-.627.889.283.283,0,0,0,.059.114c.275.363.536.736.807,1.1.066.089.132.179.2.268l.074.1h0a4.015,4.015,0,0,0,.526.577,1.786,1.786,0,0,0,1.161.5l.082,0a1.732,1.732,0,0,0,1.118-.567,4.376,4.376,0,0,0,1.267-2.995,3.161,3.161,0,0,0-.18-1.226,1.552,1.552,0,0,0-.476-.663c-.023-.018-.046-.035-.07-.052a1.463,1.463,0,0,0-.606-.231A2.442,2.442,0,0,0,165.094,134.723Zm1.882,1.554a1.806,1.806,0,0,1-.324.733,2.913,2.913,0,0,0-.56,1.749,1.776,1.776,0,0,1-.121.642.879.879,0,0,1-.716.605.768.768,0,0,1-.746-.427,3,3,0,0,1-.244-.469c-.028-.065-.127-.168-.02-.22.138-.068.154.145.168.159l.038.063c.113.086.219.18.338.257.279.183.481.11.583-.2a3.1,3.1,0,0,0,.089-.852,2.55,2.55,0,0,1,.464-1.393,3.173,3.173,0,0,0,.375-.628c.152-.384.015-.591-.4-.585-.142,0-.284.03-.426.046a1.22,1.22,0,0,0-.11.06.074.074,0,0,1-.122-.028c-.03-.053.008-.073.043-.1a1.89,1.89,0,0,1,.919-.385A.765.765,0,0,1,166.976,136.277Z" transform="translate(-143.801 -119.404)"/><path class="h" d="M156.146,94.291a4.411,4.411,0,0,0-3.037-2.2,1.733,1.733,0,0,0-1.4.22c-.023.017-.046.034-.068.053a1.9,1.9,0,0,0-.611,1.173,4.937,4.937,0,0,0-.067.781c0,.047,0,.093,0,.138,0,.156,0,.3,0,.439,0,.494,0,.883,0,1.272a.236.236,0,0,0,.034.153,2.114,2.114,0,0,1,1.06.344.247.247,0,0,0,.1-.1c.142-.209.3-.411.445-.615.028-.039.058-.095.118-.059s.038.1,0,.147c-.155.211-.3.426-.463.634a.2.2,0,0,0-.05.108,2.137,2.137,0,0,1,.635.829.262.262,0,0,0,.151-.018c.493-.171.992-.324,1.487-.492l.2-.069.115-.04h0a3.653,3.653,0,0,0,.854-.411,1.733,1.733,0,0,0,.682-.809q.014-.038.026-.078a1.475,1.475,0,0,0,.046-.609A2.024,2.024,0,0,0,156.146,94.291Zm-.654,1.56a2.205,2.205,0,0,1-.737.15c-.062,0-.158.036-.167-.06-.012-.121.2-.109.279-.126h0c.047-.078.137-.092.206-.138.157-.1.338-.2.335-.411s-.2-.317-.37-.409a1.4,1.4,0,0,0-.278-.117,3.06,3.06,0,0,1-1.734-1.273,1.211,1.211,0,0,0-.358-.352c-.254-.16-.419-.109-.545.161a1.79,1.79,0,0,0-.119.565c0,.068.069.163-.05.185s-.083-.087-.1-.141a1.927,1.927,0,0,1-.093-.622.77.77,0,0,1,1.219-.709,1.718,1.718,0,0,1,.558.505,3,3,0,0,0,1.508,1.089,1.407,1.407,0,0,1,.8.581A.726.726,0,0,1,155.492,95.851Z" transform="translate(-133.847 -81.737)"/><path class="h" d="M102.984,96.484a2.793,2.793,0,0,0,.918.522l.147.051.132.046c.56.192,1.124.372,1.685.56a.28.28,0,0,0,.149.02,2.133,2.133,0,0,1,.629-.825.193.193,0,0,0-.053-.122c-.151-.193-.292-.393-.433-.593-.033-.048-.119-.1-.035-.169s.114.03.149.077c.132.175.265.35.386.533.052.078.1.135.159.15a2.113,2.113,0,0,1,1.035-.338.269.269,0,0,0,.047-.187c-.008-.583-.005-1.166,0-1.748,0-.04,0-.08,0-.119,0-.069,0-.138,0-.207a3.079,3.079,0,0,0-.236-1.084,1.565,1.565,0,0,0-.445-.608c-.021-.017-.043-.034-.066-.05a1.479,1.479,0,0,0-.749-.257,3.245,3.245,0,0,0-1.8.431,4.08,4.08,0,0,0-2.074,2.251,1.487,1.487,0,0,0-.057.893c.008.028.016.055.026.083A1.607,1.607,0,0,0,102.984,96.484Zm-.108-1.716a1.229,1.229,0,0,1,.659-.488,3.415,3.415,0,0,0,1.727-1.252,1.211,1.211,0,0,1,.814-.511.71.71,0,0,1,.851.65,1.954,1.954,0,0,1-.082.8c-.017.054,0,.162-.1.141-.119-.023-.054-.116-.046-.184a1.908,1.908,0,0,0-.132-.587.315.315,0,0,0-.513-.155,1.189,1.189,0,0,0-.38.365,3.067,3.067,0,0,1-1.732,1.274,1.279,1.279,0,0,0-.49.253c-.218.188-.225.358-.009.548a4.286,4.286,0,0,0,.387.275v0a.339.339,0,0,0,.112.03c.06.017.18-.026.17.095-.008.094-.1.066-.165.061a2.353,2.353,0,0,1-.691-.131A.738.738,0,0,1,102.877,94.768Z" transform="translate(-90.928 -81.816)"/><path class="h" d="M106.825,51.106h0c.038.09.079.177.122.265a8.033,8.033,0,0,0,.491.848c.095.145.158.171.329.07a3.034,3.034,0,0,1,3.1-.4l.715-.964.739.985a1.664,1.664,0,0,1,.159-.1,1.759,1.759,0,0,1,.628-.18,3.763,3.763,0,0,1,2.313.675c.126.077.185.09.275-.043a7.038,7.038,0,0,0,.583-1.014c.041-.087.078-.175.113-.265a4.294,4.294,0,0,0,.146-.439,2.851,2.851,0,0,0,.075-1.315h0a2.174,2.174,0,0,0-.053-.211,2.454,2.454,0,0,0-.551-.953,3.665,3.665,0,0,0-1.136-.833,7.525,7.525,0,0,0-4.088-.693,6.621,6.621,0,0,0-2.891.918,2.809,2.809,0,0,0-1.263,1.493,2.153,2.153,0,0,0-.059.212h0a3,3,0,0,0,.134,1.627C106.738,50.893,106.779,51,106.825,51.106Zm1.614-3.185a2.947,2.947,0,0,1,1.424.088,5.83,5.83,0,0,0,1.916.277,8.121,8.121,0,0,0,1.236-.25,3.256,3.256,0,0,1,1.522-.118,1.747,1.747,0,0,1,.719.352,1.166,1.166,0,0,1,.327,1.438,3.49,3.49,0,0,1-1.12,1.282c-.074.059-.122.058-.182-.021s-.06-.129.02-.188.128-.109.192-.164c.029-.03.018-.025.049-.056-.018-.137.074-.237.127-.349a1.617,1.617,0,0,0,.18-.626.508.508,0,0,0-.526-.6,2.836,2.836,0,0,0-1.045.144,10.779,10.779,0,0,1-1.275.313,4.477,4.477,0,0,1-1.942-.214,4.366,4.366,0,0,0-1.234-.249c-.568.006-.771.275-.65.831.058.266.254.475.279.75.038.043.025.025.053.055.069.062.135.127.208.184s.038.113,0,.17-.089.09-.161.032a3.277,3.277,0,0,1-1.173-1.393A1.285,1.285,0,0,1,108.438,47.921Z" transform="translate(-94.537 -41.451)"/><path class="h" d="M54.33,91.928a7.786,7.786,0,0,0,1.5-.3c.164-.046.1-.143.078-.232a4.566,4.566,0,0,1-.144-1.629,2.085,2.085,0,0,1,.583-1.364c.026-.025.056-.053.088-.08l-.763-1.076,1.242-.423a2.1,2.1,0,0,1,.261-1.471,4.231,4.231,0,0,1,1.01-1.221c.137-.115.133-.186.026-.317a8.373,8.373,0,0,0-.834-.9l-.124-.109c-.033-.029-.067-.057-.1-.084a3.06,3.06,0,0,0-1.428-.671,2.386,2.386,0,0,0-.238-.026,2.847,2.847,0,0,0-2.117.869,6.748,6.748,0,0,0-1.481,2.063,7.2,7.2,0,0,0-.623,4.867A2.621,2.621,0,0,0,52.4,91.539a2.209,2.209,0,0,0,.269.142,2.787,2.787,0,0,0,.614.193,3.6,3.6,0,0,0,.674.067C54.084,91.942,54.207,91.938,54.33,91.928Zm-1.416-1.055a1.213,1.213,0,0,1-1.138-1.18,2.385,2.385,0,0,1,.366-1.421,3.747,3.747,0,0,1,.263-.432,4.708,4.708,0,0,0,.892-2.847,3.768,3.768,0,0,1,.157-1,1.781,1.781,0,0,1,.624-.93,1.178,1.178,0,0,1,1.574.026,3.359,3.359,0,0,1,.892,1.477c.033.09.008.133-.085.168-.108.042-.133-.018-.163-.093s-.077-.144-.109-.221c-.015-.032-.039-.076-.039-.076l0,.009c-.107-.006-.147-.1-.212-.163a2.2,2.2,0,0,0-.546-.405.515.515,0,0,0-.775.26,2.217,2.217,0,0,0-.2.958,12.63,12.63,0,0,1-.077,1.261,4.049,4.049,0,0,1-.7,1.744c-.205.309-.407.62-.6.938a1.326,1.326,0,0,0-.209.643.5.5,0,0,0,.434.557,2.244,2.244,0,0,0,.878-.023c.075-.011.149-.018.224-.027a2.518,2.518,0,0,0,.22-.124c.088-.061.12.005.159.058s.064.1-.005.147A3,3,0,0,1,52.914,90.873Z" transform="translate(-45.512 -72.88)"/><path class="h" d="M77.154,173.5a10.312,10.312,0,0,0,.2-1.736c-.059,0-.126,0-.192-.011a3.131,3.131,0,0,1-2.728-1.455l-1.235.388-.02-1.306a1.912,1.912,0,0,1-1.111-.508,3.9,3.9,0,0,1-1.017-1.463c-.083-.2-.16-.2-.342-.14a6.653,6.653,0,0,0-1.132.505q-.119.068-.234.142l-.037.024h0a3.153,3.153,0,0,0-1.1,1.13h0a2.079,2.079,0,0,0-.1.215,2.463,2.463,0,0,0-.169,1.066,3.052,3.052,0,0,0,.329,1.239,7.568,7.568,0,0,0,5.206,4.062,3.379,3.379,0,0,0,2.044-.078,2.4,2.4,0,0,0,.75-.453,2.3,2.3,0,0,0,.227-.235h0a3.087,3.087,0,0,0,.532-.971h0c.046-.13.087-.265.123-.4Zm-1.431.6a1.237,1.237,0,0,1-1.613,1.058,2.39,2.39,0,0,1-1.224-.811c-.182-.2-.353-.409-.523-.619a4.109,4.109,0,0,0-1.783-1.288,7.547,7.547,0,0,1-1.108-.491,1.9,1.9,0,0,1-.924-1.062,1.159,1.159,0,0,1,.494-1.431,3.227,3.227,0,0,1,1.725-.41c.084,0,.125.027.119.117,0,.067.009.141-.095.142-.051,0-.1,0-.152.007a3.779,3.779,0,0,0-.861.474.594.594,0,0,0,.044,1.07,3.676,3.676,0,0,0,1.032.469,4.591,4.591,0,0,1,2.473,1.784,3.34,3.34,0,0,0,.84.9.565.565,0,0,0,.951-.278,2.862,2.862,0,0,0,.2-1.035c-.013-.1-.1-.221.079-.26.166-.036.147.105.17.19A3.342,3.342,0,0,1,75.723,174.105Z" transform="translate(-60.419 -148.241)"/><path class="h" d="M158.927,167.578a8.379,8.379,0,0,0-1.077-.47c-.147-.055-.2-.025-.252.114a4.093,4.093,0,0,1-1.017,1.493,1.865,1.865,0,0,1-1.142.53l0,1.283-1.245-.372c-.628,1.176-1.763,1.358-2.927,1.491a.592.592,0,0,1,.04.268,6.026,6.026,0,0,0,.1,1.183q.03.173.07.333c.03.124.065.243.1.356a3.019,3.019,0,0,0,.5.928h0a2.4,2.4,0,0,0,.215.231,2.894,2.894,0,0,0,2.493.635,7.1,7.1,0,0,0,3.266-1.4,6.81,6.81,0,0,0,2.385-2.955,2.784,2.784,0,0,0,.138-1.878q-.033-.1-.074-.205a2.968,2.968,0,0,0-1.059-1.246c-.09-.064-.181-.124-.275-.181S159.012,167.623,158.927,167.578Zm.887,3.414a1.979,1.979,0,0,1-.828.829,6.435,6.435,0,0,1-1.014.453,4.25,4.25,0,0,0-1.942,1.4,5.587,5.587,0,0,1-.937.992,1.783,1.783,0,0,1-.87.382,1.25,1.25,0,0,1-1.517-1.305,3.8,3.8,0,0,1,.179-1.247c.024-.085,0-.226.17-.19.181.039.09.162.079.26a3.022,3.022,0,0,0,.164.942c.217.581.583.685,1.071.311a5,5,0,0,0,.9-1.02,4.394,4.394,0,0,1,2.212-1.565,5.392,5.392,0,0,0,.958-.393,1.4,1.4,0,0,0,.387-.281.526.526,0,0,0,0-.769,2.889,2.889,0,0,0-1.006-.613.864.864,0,0,0-.1,0c-.106.008-.149-.031-.147-.144s.064-.118.147-.116a3.548,3.548,0,0,1,1.5.3A1.218,1.218,0,0,1,159.815,170.991Z" transform="translate(-134.119 -148.107)"/><path class="h" d="M190,81.936a2.286,2.286,0,0,0-.253.025,2.54,2.54,0,0,0-.478.123,3.538,3.538,0,0,0-1.045.6c-.082.066-.161.136-.238.209a8.324,8.324,0,0,0-.821.914c-.079.1-.023.141.046.2a4.623,4.623,0,0,1,.684.711,2.414,2.414,0,0,1,.615,2.057l0,.021,1.174.384-.7,1.015.006,0a2.157,2.157,0,0,1,.605,1.031,4.2,4.2,0,0,1-.064,2.053c-.043.163-.017.229.153.279a6.934,6.934,0,0,0,1.259.266c.057.006.113.011.168.015.123.01.244.014.362.014h0a3.17,3.17,0,0,0,1.2-.219h0a2.331,2.331,0,0,0,.263-.127,2.677,2.677,0,0,0,1.253-1.849,7.079,7.079,0,0,0-.511-4.5,6.28,6.28,0,0,0-2-2.661A2.627,2.627,0,0,0,190,81.936Zm1.093.982a1.874,1.874,0,0,1,.776,1.2A7.536,7.536,0,0,1,192,85.4a4.187,4.187,0,0,0,.711,2.13,4.673,4.673,0,0,1,.737,1.459,1.733,1.733,0,0,1-.066,1.044,1.217,1.217,0,0,1-1.535.722,3.913,3.913,0,0,1-1.268-.609c-.07-.047-.147-.082-.071-.191.065-.092.121-.1.2-.029a1.136,1.136,0,0,0,.177.1,4.081,4.081,0,0,0,1.028.064.542.542,0,0,0,.488-.747,1.659,1.659,0,0,0-.2-.491,7.372,7.372,0,0,0-.408-.639,4.671,4.671,0,0,1-.947-3,3.5,3.5,0,0,0-.105-.977c-.171-.631-.556-.762-1.094-.391-.194.133-.323.34-.54.442,0,0-.019.046-.033.072-.042.082-.089.162-.124.246s-.084.084-.159.057-.113-.064-.081-.149a3.064,3.064,0,0,1,1.044-1.6A1.145,1.145,0,0,1,191.091,82.918Z" transform="translate(-165.834 -72.801)"/><path class="i" d="M135.82,144.619l-.318-.318-.322.323.318.316Z" transform="translate(-119.893 -127.96)"/><path class="i" d="M138.906,141.569l-.32-.319-.315.317.318.318Z" transform="translate(-122.627 -125.261)"/><path class="i" d="M133.913,147.726l-.318-.316-.167.168a1.953,1.953,0,0,0,.072.378l.092.092Z" transform="translate(-118.343 -130.709)"/><path class="i" d="M145.1,135.307l-.321-.321-.319.321.321.32Z" transform="translate(-128.1 -119.721)"/><path class="i" d="M151.26,135.326l-.317-.315-.318.319.317.317Z" transform="translate(-133.553 -119.743)"/><path class="i" d="M148.173,132.242l-.323-.322-.317.318.322.322Z" transform="translate(-130.818 -117.01)"/><path class="i" d="M141.954,138.4l-.321-.32-.329.331.32.319Z" transform="translate(-125.309 -122.454)"/><path class="i" d="M166.1,140.861l0-.007,0,0Z" transform="translate(-147.236 -124.911)"/><path class="i" d="M150.9,130.837l.326-.326-.042-.042a1.953,1.953,0,0,0-.465-.1l-.142.143Z" transform="translate(-133.514 -115.641)"/><path class="i" d="M157.226,131.8a1.967,1.967,0,0,0-.4-.224l.314.314Z" transform="translate(-139.034 -116.708)"/><path class="i" d="M135.783,138.465l-.325-.324-.315.315.326.326Z" transform="translate(-119.86 -122.512)"/><path class="i" d="M138.834,135.3l-.324-.322-.33.33.325.323Z" transform="translate(-122.546 -119.716)"/><path class="i" d="M141.991,132.215l-.322-.322-.322.321.324.322Z" transform="translate(-125.348 -116.986)"/><path class="i" d="M133.952,141.5l-.326-.326-.059.059a1.953,1.953,0,0,0-.1.429l.162.161Z" transform="translate(-118.379 -125.192)"/><path class="i" d="M160.177,134.21l.1-.1a1.982,1.982,0,0,0-.335-.324l-.095.1Z" transform="translate(-141.709 -118.658)"/><path class="i" d="M154.33,132.2l-.315-.315-.326.326.317.315Z" transform="translate(-136.263 -116.978)"/><path class="i" d="M134.349,153.054l.012.031.01-.01Z" transform="translate(-119.158 -135.701)"/><path class="i" d="M149.531,130.31l-.1,0c-.041,0-.083,0-.123,0l.111.11Z" transform="translate(-132.389 -115.584)"/><path class="i" d="M133.362,145.962c0,.052-.007.1-.007.158,0,.037,0,.074,0,.11l.136-.137Z" transform="translate(-118.279 -129.429)"/><path class="i" d="M163.33,137.357l.016-.016a1.969,1.969,0,0,0-.241-.4l-.1.1Z" transform="translate(-144.505 -121.448)"/><path class="i" d="M148.187,138.394l-.317-.317-.319.319.318.317Z" transform="translate(-130.834 -122.455)"/><path class="i" d="M140.7,131.648a1.967,1.967,0,0,0-.4.228l.086.085Z" transform="translate(-124.418 -116.769)"/><path class="i" d="M137.008,156.643l-.121.121a1.985,1.985,0,0,0,.326.334l.124-.125Z" transform="translate(-121.403 -138.875)"/><path class="i" d="M157.48,141.52l-.321-.32-.32.321.319.319Z" transform="translate(-139.048 -125.217)"/><path class="i" d="M160.557,138.41l-.321-.322-.322.324.321.32Z" transform="translate(-141.768 -122.465)"/><path class="i" d="M160.586,150.757l-.326-.326-.315.317.325.324Z" transform="translate(-141.795 -133.381)"/><path class="i" d="M154.425,144.611l-.319-.319-.317.318.319.318Z" transform="translate(-136.351 -127.951)"/><path class="i" d="M157.5,147.684l-.319-.319-.317.317.32.319Z" transform="translate(-139.071 -130.67)"/><path class="i" d="M157.444,153.8l-.325-.323-.329.331.324.322Z" transform="translate(-139.005 -136.079)"/><path class="i" d="M154.359,156.977l-.324-.322-.32.321.322.322Z" transform="translate(-136.286 -138.886)"/><path class="i" d="M145.058,147.7l-.331-.329-.317.318.33.33Z" transform="translate(-128.056 -130.677)"/><path class="i" d="M141.986,150.77l-.33-.33-.32.321.331.329Z" transform="translate(-125.337 -133.389)"/><path class="i" d="M138.893,153.86l-.331-.329-.322.324.33.33Z" transform="translate(-122.599 -136.123)"/><path class="i" d="M145.034,141.468l-.318-.317-.33.33.319.318Z" transform="translate(-128.035 -125.174)"/><path class="i" d="M144.763,130.848l.316-.318-.142-.141a1.953,1.953,0,0,0-.459.1l-.037.037Z" transform="translate(-128.084 -115.655)"/><path class="i" d="M145.144,153.922l-.317-.317-.319.32.317.315Z" transform="translate(-128.144 -136.188)"/><path class="i" d="M143.9,162.872l.083.032-.058-.058Z" transform="translate(-127.606 -144.362)"/><path class="i" d="M140.176,159.811l-.12.12a1.969,1.969,0,0,0,.395.234l.04-.04Z" transform="translate(-124.206 -141.677)"/><path class="i" d="M148.9,162.981c.056,0,.113.008.171.008s.113,0,.169-.008l-.171-.17Z" transform="translate(-132.024 -144.33)"/><path class="i" d="M154.349,150.734l-.32-.319-.33.33.321.32Z" transform="translate(-136.271 -133.367)"/><path class="i" d="M160.553,144.59l-.318-.317-.322.322.318.318Z" transform="translate(-141.767 -127.935)"/><rect class="i" width="0.467" height="0.467" transform="translate(16.706 16.661) rotate(-45.152)"/><path class="i" d="M142.041,157l-.317-.315-.324.325.315.315Z" transform="translate(-125.395 -138.913)"/><path class="i" d="M144.758,159.719l-.326.326.128.128a1.951,1.951,0,0,0,.324.067l.2-.2Z" transform="translate(-128.075 -141.595)"/><path class="i" d="M151.281,147.675l-.319-.318-.329.331.318.317Z" transform="translate(-133.56 -130.662)"/><path class="i" d="M148.2,156.976l-.322-.322-.318.318.323.322Z" transform="translate(-130.842 -138.885)"/><path class="i" d="M148.211,150.847l-.318-.317-.318.319.317.317Z" transform="translate(-130.855 -133.469)"/><path class="i" d="M137.495,133.983l-.09-.09a1.983,1.983,0,0,0-.332.328l.092.092Z" transform="translate(-121.567 -118.755)"/><path class="i" d="M151.266,153.9l-.321-.32-.319.32.321.321Z" transform="translate(-133.553 -136.165)"/><path class="i" d="M150.985,159.746l-.317.318.2.2a1.954,1.954,0,0,0,.3-.06l.136-.136Z" transform="translate(-133.591 -141.619)"/><path class="i" d="M135.8,150.777l-.321-.319-.322.322.321.322Z" transform="translate(-119.869 -133.404)"/><path class="i" d="M151.264,141.457l-.33-.33-.318.319.331.329Z" transform="translate(-133.545 -125.153)"/><path class="i" d="M154.324,138.374l-.331-.329-.319.32.33.33Z" transform="translate(-136.249 -122.427)"/><path class="i" d="M135.108,137.164l-.088-.087a1.969,1.969,0,0,0-.233.4l.005.005Z" transform="translate(-119.546 -121.57)"/><path class="i" d="M157.393,135.251l-.33-.33-.324.325.331.329Z" transform="translate(-138.961 -119.664)"/><path class="i" d="M134.649,153.549l-.025.025a1.967,1.967,0,0,0,.231.413l.116-.116Z" transform="translate(-119.401 -136.139)"/><path class="i" d="M163.005,141.5l.318.316.173-.174a1.952,1.952,0,0,0-.087-.38l-.083-.083Z" transform="translate(-144.502 -125.201)"/><path class="i" d="M166.22,146.046c0-.037,0-.075,0-.112,0-.061,0-.122-.009-.182l-.145.146Z" transform="translate(-147.212 -129.242)"/><path class="i" d="M163.07,153.873l.123.122a1.966,1.966,0,0,0,.227-.4l-.034-.034Z" transform="translate(-144.56 -136.147)"/><path class="i" d="M159.9,156.918l.132.131a1.982,1.982,0,0,0,.326-.334l-.128-.127Z" transform="translate(-141.758 -138.827)"/><path class="i" d="M156.809,160.071l.045.045a1.97,1.97,0,0,0,.4-.239l-.128-.127Z" transform="translate(-139.022 -141.623)"/><path class="i" d="M162.978,147.645l.326.326.109-.109a1.948,1.948,0,0,0,.067-.361l-.181-.18Z" transform="translate(-144.478 -130.631)"/><path class="i" d="M138.886,147.685l-.32-.32-.321.322.321.319Z" transform="translate(-122.604 -130.67)"/><path class="i" d="M166.126,152.958q.011-.029.022-.059l-.04.04Z" transform="translate(-147.245 -135.564)"/><path class="i" d="M141.972,144.633l-.319-.318-.317.317.32.319Z" transform="translate(-125.337 -127.972)"/><path class="i" d="M155.915,162.9l.1-.037-.031-.031Z" transform="translate(-138.231 -144.353)"/><path class="j" d="M144.122,162.573l.058.058c.035.013.07.024.106.035l-.128-.128Z" transform="translate(-127.801 -144.088)"/><rect class="j" width="0.051" height="0.445" transform="translate(15.97 18.134) rotate(-44.942)"/><path class="j" d="M138.3,156.662l-.33-.33-.036.036.33.33Z" transform="translate(-122.325 -138.6)"/><rect class="j" width="0.051" height="0.455" transform="translate(15.248 17.41) rotate(-44.942)"/><path class="j" d="M134.142,152.227l-.092-.092c.011.036.022.071.034.106l.021.021Z" transform="translate(-118.894 -134.888)"/><rect class="j" width="0.051" height="0.467" transform="translate(15.963 17.408) rotate(-45.163)"/><path class="j" d="M133.583,145.558l-.162-.161c0,.022,0,.043-.006.065l.132.132Z" transform="translate(-118.332 -128.929)"/><rect class="j" width="0.051" height="0.453" transform="translate(15.606 17.053) rotate(-45.163)"/><rect class="j" width="0.051" height="0.447" transform="translate(16.33 17.773) rotate(-45.164)"/><rect class="j" width="0.051" height="0.456" transform="translate(16.682 18.123) rotate(-45.163)"/><path class="j" d="M150.36,162.536l.171.17.065-.007-.2-.2Z" transform="translate(-133.318 -144.055)"/><rect class="j" width="0.051" height="0.449" transform="translate(15.251 16.701) rotate(-45.162)"/><path class="j" d="M133.882,140.106l.006.006.009-.021Z" transform="translate(-118.745 -124.236)"/><rect class="j" width="0.051" height="0.448" transform="matrix(0.707, -0.707, 0.707, 0.707, 16.684, 17.417)"/><rect class="j" width="0.051" height="0.455" transform="matrix(0.707, -0.707, 0.707, 0.707, 17.036, 17.769)"/><path class="j" d="M144.467,150.459l-.33-.33-.036.036.33.33Z" transform="translate(-127.783 -133.114)"/><path class="j" d="M153.764,159.757l-.322-.322-.036.036.321.321Z" transform="translate(-136.013 -141.344)"/><path class="j" d="M156.5,162.564l.031.031.05-.021-.045-.045Z" transform="translate(-138.747 -144.08)"/><path class="j" d="M135.195,141.188l-.326-.326-.036.036.326.326Z" transform="translate(-119.586 -124.918)"/><rect class="j" width="0.051" height="0.452" transform="translate(15.963 16.696) rotate(-45)"/><rect class="j" width="0.051" height="0.45" transform="translate(15.609 16.341) rotate(-45)"/><path class="j" d="M134.725,140.511l-.005-.005-.009.02Z" transform="translate(-119.478 -124.603)"/><rect class="j" width="0.051" height="0.449" transform="matrix(0.705, -0.709, 0.709, 0.705, 17.038, 17.061)"/><rect class="j" width="0.051" height="0.459" transform="matrix(0.705, -0.709, 0.709, 0.705, 15.598, 15.629)"/><rect class="j" width="0.051" height="0.452" transform="matrix(0.705, -0.709, 0.709, 0.705, 15.959, 15.989)"/><rect class="j" width="0.051" height="0.453" transform="matrix(0.705, -0.709, 0.709, 0.705, 17.392, 17.414)"/><rect class="j" width="0.051" height="0.457" transform="matrix(0.705, -0.709, 0.709, 0.705, 17.749, 17.769)"/><path class="j" d="M159.592,159.476l.128.127.04-.032-.132-.131Z" transform="translate(-141.483 -141.349)"/><path class="j" d="M136.923,136.821l-.092-.092-.031.04.088.087Z" transform="translate(-121.325 -121.264)"/><rect class="j" width="0.051" height="0.451" transform="matrix(0.705, -0.709, 0.709, 0.705, 16.315, 16.343)"/><rect class="j" width="0.051" height="0.467" transform="matrix(0.705, -0.709, 0.709, 0.705, 16.671, 16.696)"/><rect class="j" width="0.051" height="0.455" transform="translate(18.468 15.623) rotate(-44.943)"/><rect class="j" width="0.051" height="0.445" transform="translate(17.752 14.907) rotate(-45.149)"/><path class="j" d="M159.9,134.94l-.33-.33-.036.036.33.33Z" transform="translate(-141.436 -119.389)"/><path class="j" d="M155.9,131.233l-.062-.022.042.042Z" transform="translate(-138.162 -116.383)"/><path class="j" d="M165.787,140.907l.083.083q-.02-.058-.042-.114l0,0Z" transform="translate(-146.962 -124.927)"/><path class="j" d="M148.909,130.455l-.111-.11-.067.005.142.141Z" transform="translate(-131.878 -115.616)"/><rect class="j" width="0.051" height="0.467" transform="translate(17.743 15.618) rotate(-45.162)"/><rect class="j" width="0.051" height="0.447" transform="translate(17.391 15.268) rotate(-45.162)"/><path class="j" d="M165.761,147.046l.181.18c0-.022,0-.044.005-.066l-.15-.149Z" transform="translate(-146.939 -130.356)"/><rect class="j" width="0.051" height="0.456" transform="translate(17.031 14.91) rotate(-45.163)"/><rect class="j" width="0.051" height="0.453" transform="translate(18.11 15.983) rotate(-45.163)"/><rect class="j" width="0.051" height="0.449" transform="matrix(0.705, -0.709, 0.709, 0.705, 18.467, 16.338)"/><path class="j" d="M165.8,153.284l.034.034.02-.051-.019-.019Z" transform="translate(-146.97 -135.873)"/><path class="j" d="M153.731,141.146l-.33-.33-.036.036.33.33Z" transform="translate(-135.976 -124.878)"/><rect class="j" width="0.051" height="0.448" transform="matrix(0.707, -0.707, 0.707, 0.707, 17.036, 15.622)"/><rect class="j" width="0.051" height="0.455" transform="translate(16.679 15.265) rotate(-45)"/><rect class="j" width="0.051" height="0.45" transform="matrix(0.707, -0.707, 0.707, 0.707, 18.11, 16.696)"/><rect class="j" width="0.051" height="0.452" transform="matrix(0.707, -0.707, 0.707, 0.707, 17.755, 16.34)"/><rect class="j" width="0.051" height="0.461" transform="translate(18.465 17.05) rotate(-45)"/><rect class="j" width="0.051" height="0.455" transform="matrix(0.707, -0.707, 0.707, 0.707, 16.322, 14.907)"/><rect class="j" width="0.051" height="0.453" transform="matrix(0.705, -0.709, 0.709, 0.705, 16.324, 15.622)"/><rect class="j" width="0.051" height="0.452" transform="matrix(0.705, -0.709, 0.709, 0.705, 17.758, 17.048)"/><rect class="j" width="0.051" height="0.457" transform="matrix(0.705, -0.709, 0.709, 0.705, 15.964, 15.264)"/><path class="j" d="M140.071,133.709l-.086-.085-.041.031.09.09Z" transform="translate(-124.107 -118.517)"/><path class="j" d="M162.76,156.314l.128.127.031-.041-.123-.122Z" transform="translate(-144.285 -138.553)"/><rect class="j" width="0.051" height="0.459" transform="matrix(0.705, -0.709, 0.709, 0.705, 18.114, 17.402)"/><rect class="j" width="0.051" height="0.449" transform="translate(16.681 15.977) rotate(-45.152)"/><rect class="j" width="0.051" height="0.467" transform="translate(17.035 16.33) rotate(-45.152)"/><rect class="j" width="0.051" height="0.451" transform="translate(17.402 16.695) rotate(-45.152)"/><path class="j" d="M135.062,131.657l-.33.33-.036.036-.315.314-.014.014c-.016.038-.031.077-.045.116l.059-.059.036-.036.315-.314.036-.036.33-.33.036-.036.322-.321.036-.036.037-.037c-.039.014-.078.028-.116.044l-.314.314Z" transform="translate(-119.134 -116.429)"/><path class="j" d="M135.3,130.478l-.316.318-.036.036-.32.321-.036.036-.329.331-.036.036-.315.317-.036.036-.322.324-.036.036-.136.137c0,.022,0,.045.005.067l.167-.168.036-.036.322-.323.036-.036.315-.317.036-.036.329-.331.036-.036.32-.321.036-.036.317-.318.036-.036.142-.143-.067-.005-.112.112Z" transform="translate(-118.304 -115.603)"/><path class="j" d="M136.636,131.746l-.036.036-.318.318-.036.036-.32.32-.036.036-.33.33-.036.036-.317.317-.036.036-.322.322-.036.036-.321.321-.036.036-.01.01.02.051.025-.025.036-.036.322-.322.036-.036.322-.322.036-.036.317-.317.036-.036.33-.33.036-.036.319-.319.036-.036.318-.318.036-.036.326-.326.036-.036-.051-.02-.02.02Z" transform="translate(-119.246 -116.55)"/><path class="j" d="M139.234,133.647l-.324.325-.036.036-.319.32-.036.036-.318.319-.036.036-.329.331-.036.036-.317.318-.036.036-.32.321-.036.036-.322.324-.036.036-.116.116.031.041.121-.121.036-.036.322-.324.036-.036.32-.321.036-.036.317-.319.036-.036.329-.331.036-.036.318-.319.036-.036.319-.32.036-.036.323-.325.036-.036.095-.1-.041-.03-.09.09Z" transform="translate(-121.168 -118.426)"/><path class="j" d="M156.221,152.14l-.315.315-.036.036-.33.33-.036.036-.322.321-.036.036-.136.136q.053-.015.1-.033l.067-.067.036-.036.322-.321.036-.036.33-.33.036-.036.315-.314.036-.036.04-.04q.018-.052.033-.1l-.109.109Z" transform="translate(-137.43 -134.764)"/><path class="j" d="M150.315,145.4l-.322.323-.036.036-.315.317-.036.036-.329.331-.036.036-.319.321-.036.036-.317.318-.036.036-.2.2.065.007.169-.17.036-.036.316-.318.036-.036.32-.321.036-.036.329-.331.036-.036.315-.317.036-.036.322-.323.036-.036.145-.146c0-.022,0-.043-.007-.065l-.173.174Z" transform="translate(-131.529 -128.748)"/><path class="j" d="M146.013,140.473l-.322.322-.036.036-.321.321-.036.036-.317.317-.036.036-.33.33-.036.036-.319.319-.036.036-.319.319-.036.036-.326.326-.036.036-.04.04.05.022.025-.025.036-.036.326-.326.036-.036.318-.318.036-.036.32-.32.036-.036.33-.33.036-.036.317-.317.036-.036.322-.322.036-.036.322-.322.036-.036,0,0-.022-.05-.016.016Z" transform="translate(-127.224 -124.528)"/><path class="j" d="M142.331,136.728l-.322.324-.036.036-.32.321-.036.036-.317.319-.036.036-.329.331-.036.036-.318.319-.036.036-.319.32-.036.036-.323.325-.036.036-.124.125.04.031.12-.12.036-.036.324-.325.036-.036.319-.32.036-.036.318-.319.036-.036.329-.331.036-.036.317-.318.036-.036.32-.321.036-.036.322-.324.036-.036.1-.1-.032-.04-.1.1Z" transform="translate(-123.899 -121.141)"/><path class="j" d="M134.547,133.566a2.069,2.069,0,1,0-1.891-2.905l-.009.021a2.068,2.068,0,0,0,1.9,2.885Zm-1.569-3.254.032-.04a1.984,1.984,0,0,1,.332-.328l.041-.031a1.967,1.967,0,0,1,.4-.228c.038-.016.077-.031.116-.044a1.952,1.952,0,0,1,.459-.1l.067-.005c.041,0,.082,0,.123,0l.1,0,.066,0a1.955,1.955,0,0,1,.465.1l.062.022.051.02h0a1.965,1.965,0,0,1,.4.225l.041.03a1.982,1.982,0,0,1,.335.324l.032.04a1.971,1.971,0,0,1,.241.4l.022.05,0,.007q.023.056.042.114a1.955,1.955,0,0,1,.087.381c0,.021.005.043.007.065.006.06.009.121.009.182,0,.038,0,.075,0,.112s0,.044-.005.066a1.951,1.951,0,0,1-.067.36q-.015.053-.033.1l-.022.059-.02.051a1.965,1.965,0,0,1-.227.4l-.031.041a1.983,1.983,0,0,1-.326.334l-.04.032a1.967,1.967,0,0,1-.4.239l-.05.021q-.048.02-.1.037t-.1.033a1.952,1.952,0,0,1-.3.06l-.065.007c-.056,0-.112.008-.169.008s-.115,0-.171-.008l-.065-.007a1.955,1.955,0,0,1-.324-.067c-.036-.011-.071-.022-.106-.035l-.083-.032-.05-.022a1.967,1.967,0,0,1-.394-.234l-.04-.032a1.983,1.983,0,0,1-.326-.334l-.031-.041a1.966,1.966,0,0,1-.231-.413l-.02-.051-.012-.031c-.013-.035-.024-.07-.034-.106a1.958,1.958,0,0,1-.072-.378c0-.022,0-.044-.005-.067s0-.073,0-.11c0-.053,0-.106.007-.158,0-.022,0-.044.006-.065a1.951,1.951,0,0,1,.1-.429c.014-.039.029-.078.045-.116l.009-.02A1.971,1.971,0,0,1,132.978,130.312Z" transform="translate(-117.503 -114.806)"/></svg>